<svg width="37" height="37" viewBox="0 0 37 37" fill="none" xmlns="http://www.w3.org/2000/svg">
<circle cx="18.5" cy="18.5" r="18.5" fill="white"/>
<svg x="9" y="9" width="20" height="20" viewBox="0 0 20 20" fill="none">
<path d="M14.3 4.8H15.5667M6.06667 1H13.6667C15.0104 1 16.2992 1.53381 17.2493 2.48399C18.1995 3.43418 18.7333 4.7229 18.7333 6.06667V13.6667C18.7333 15.0104 18.1995 16.2992 17.2493 17.2493C16.2992 18.1995 15.0104 18.7333 13.6667 18.7333H6.06667C4.7229 18.7333 3.43418 18.1995 2.48399 17.2493C1.53381 16.2992 1 15.0104 1 13.6667V6.06667C1 4.7229 1.53381 3.43418 2.48399 2.48399C3.43418 1.53381 4.7229 1 6.06667 1ZM9.86667 13.6667C8.85884 13.6667 7.8923 13.2663 7.17966 12.5537C6.46702 11.841 6.06667 10.8745 6.06667 9.86667C6.06667 8.85884 6.46702 7.8923 7.17966 7.17966C7.8923 6.46702 8.85884 6.06667 9.86667 6.06667C10.8745 6.06667 11.841 6.46702 12.5537 7.17966C13.2663 7.8923 13.6667 8.85884 13.6667 9.86667C13.6667 10.8745 13.2663 11.841 12.5537 12.5537C11.841 13.2663 10.8745 13.6667 9.86667 13.6667Z" stroke="#F8714B" stroke-width="2"/>
</svg>
</svg>
