<svg id="Layer_1" data-name="Layer 1" xmlns="http://www.w3.org/2000/svg" viewBox="0 0 93.3 307.47"><defs><style>.cls-1{fill:#f5bb41;}.cls-2{fill:#fefbf5;}.cls-3{fill:#fae4b6;}.cls-4{fill:#f9e3b6;}.cls-5{fill:#fefdfc;}.cls-6{fill:#afbac9;}.cls-7{fill:#b0bbc9;}.cls-8{fill:#2e4974;}.cls-9{fill:#fe6669;}.cls-10{fill:#586169;}.cls-11{fill:#2e4973;}.cls-12{fill:#5c6368;}.cls-13{fill:#82888a;}.cls-14{fill:#5c6468;}.cls-15{fill:#fc7462;}.cls-16{fill:#f97761;}.cls-17{fill:#fc6e65;}.cls-18{fill:#d6616b;}.cls-19{fill:#f4bb41;}.cls-20{fill:#b95e6c;}</style></defs><path class="cls-1" d="M9,.08H84.84c1.8.72,3.87.47,5.48,2,2.44,2.27,2.62,5.14,2.68,8.11V23.21c-.66,2-1.68.56-2.33.12A62.4,62.4,0,0,0,80,17.66a58.28,58.28,0,0,0-14.41-4c-2.28-.33-4.33.65-6.28,1.61a3.51,3.51,0,0,1-3.67-.19c-5.24-2.86-10.4-5.86-15.87-8.27a17.16,17.16,0,0,1-5.13-2.57A9.67,9.67,0,0,0,21.5,6.54c-2.7,3.67-1.77,7.65-.33,11.54,1,2.74,3,5,4.4,7.45,2.63,4.16,4.62,8.7,7.52,12.7a3.74,3.74,0,0,1,.88,3c-1.51,6.76.85,12.85,3.2,19A81,81,0,0,0,51,83.64a10.74,10.74,0,0,0,2.61,2.18c3.9,2.41,7.51.68,8.07-3.95A21.71,21.71,0,0,0,62,78.45c0-.72.08-1.46.86-1.77s1.34.21,1.88.65c.69.55,1.28,1.21,2,1.75,2.89,2.25,5.49,1.5,6.81-2a13.54,13.54,0,0,0,.45-6c-.71-3.51-.45-3.81,3.07-3.49s5-.86,6.25-5.06c0-.27,0-.53,0-.79-.11-3.13.44-5.67,4.11-6.61,2-.5,2.72-2.6,3.51-4.37.31-.72.48-1.54,1.19-2s.92,0,1,.64V98.18a2.09,2.09,0,0,1-.17.92c-.83,1-1.92,1-3.1.83-7.58-1.28-15.23-2.05-22.88-2.83-5.66-.58-11.73,6.82-10.36,12.55.35,1.45,1.29,1.7,2.57,1.53,8.72-1.12,17.47-.55,26.21-.66,2.44,0,4.92-.16,7.16,1.17a1.93,1.93,0,0,1,.54.75c0,.64.13,1.31-.44,1.81a8.18,8.18,0,0,1-4.32.89c-11-.31-22,.86-33.09.56-2.7-.07-5.37.89-8.1.35a1.85,1.85,0,0,1-1.23-2.2c.47-1.59,1.83-.88,2.61-1.11a5.9,5.9,0,0,1-2.5-.25,21.68,21.68,0,0,1-3.12-10.57c1.1-2.74,2.77-4.53,6.09-4.15,1.44.17,2.94-.38,4.14-.37a14.62,14.62,0,0,0-2.47.26c-2.56.35-5.13.74-5.89-2.84a2.23,2.23,0,0,0-1.72-1.5c-1.94-.47-2.83-1.81-3.47-3.59-1.25-3.47-3.41-4.18-6.52-2.27l-1.58,1c-1.39.83-2.66.83-3.64-.66-5.57-6-12.35-9.39-20.58-9.65A17.43,17.43,0,0,0,3,78.74c-1,.2-1.95.44-2.36-.89-.15-23-.06-46,0-68.93C.61,3.63,2.7,1.57,9,.08Z"/><path class="cls-2" d="M9,.08C2.67,2.47.73,7.2.8,13.77c.25,20.45.09,40.9.1,61.35,0,1,.09,2.1.13,3.16a4.33,4.33,0,0,1,.87,1.28,7.07,7.07,0,0,1,.4,3.12c0,11.17.06,22.35,0,33.52a31.59,31.59,0,0,0-.11,5,10.88,10.88,0,0,1,0,3.51c.31,10.62.3,21.25,0,31.87.14,2.2.16,4.4.16,6.6q0,65.15,0,130.3c0,9,3.21,12.23,12.21,12.24q32.37,0,64.73,0a18,18,0,0,0,5-.5c3-.86,5.43-2.43,6.69-5.45a3.24,3.24,0,0,1,1.39-1.85,1,1,0,0,1,1,0c0,2.74-.07,5.47,0,8.2,0,1.14-.22,1.38-1.36,1.36-5-.08-10,0-15,0H.05q0-152.49,0-305C0,.47.43-.15,2.42,0,4.6.23,6.81.08,9,.08Z"/><path class="cls-3" d="M93.26,297.91l-.48,0a2.38,2.38,0,0,1-1.16-2.22c-.09-1-.1-1.93-.1-2.9q0-41.49,0-83c0-1.64-.35-3.37.76-4.86a.84.84,0,0,1,1-.19Z"/><path class="cls-4" d="M92.82,98.93l-.09-43.26c0-2.28,0-4.57-.07-6.85a13.81,13.81,0,0,1-.83-8.39,89.57,89.57,0,0,1,0-15.45,3.88,3.88,0,0,1,.86-1.25q.07-7.08.16-14.17c.18-.34.33-.33.45,0V99C93.08,99.19,92.93,99.15,92.82,98.93Z"/><path class="cls-3" d="M92.64,113.92l.17-1.51c.07-.29.21-.35.45-.18v59.25a.69.69,0,0,1-.89-.2,2.56,2.56,0,0,1-.39-.93,13.1,13.1,0,0,1-.46-4.18q0-23.49,0-47a11.24,11.24,0,0,1,.4-3.91A2.64,2.64,0,0,1,92.64,113.92Z"/><path class="cls-5" d="M93.26,9.6a1.71,1.71,0,0,0-.45,0C92.37,4.51,89,2,84.84.08c2.45,0,4.91.05,7.37,0,.92,0,1.11.16,1.08,1.08C93.21,4,93.26,6.78,93.26,9.6Z"/><path class="cls-6" d="M92.8,171.52a1.2,1.2,0,0,1,.46,0V204.8a1.55,1.55,0,0,1-.43-.07,1.62,1.62,0,0,1-.82-1.27c-.86-9.29-.4-18.6-.45-27.9C91.56,174.14,91.17,172.49,92.8,171.52Z"/><path class="cls-7" d="M93.26,112.23l-.45.17-.16-.19a3,3,0,0,1-1-1.8,70.5,70.5,0,0,1,0-9.42,2.37,2.37,0,0,1,1-1.77.66.66,0,0,1,.17-.29,3.11,3.11,0,0,0,.44.07Z"/><path class="cls-8" d="M92.65,99.22v13c-4.63-.18-9.26-.42-13.89-.53a138.26,138.26,0,0,0-20.45.92c-2.42.3-3.23-.8-3.32-2.8-.25-5.51,2.2-9.92,6.31-13.24,1.79-1.45,4.44-.64,6.65-.46A209.71,209.71,0,0,1,92.65,99.22Z"/><path class="cls-8" d="M46.58,113.29c-.06.76-.49,1.55.25,2.22a1.67,1.67,0,0,1,.68,1c1.37,7.76-5.51,13.3-10.85,14.83-2.94-.25-5.07-2.12-7.15-3.91-1-.9-.43-2.18,1-2.4a3.08,3.08,0,0,1,2.72.58c-1.15-.95-2.68-.89-4.25-.5-2.58.23-4.32-.82-5.51-3.43a13.52,13.52,0,0,1-1.23-8.19q3.87-6.24,7.58-.45a7.9,7.9,0,0,1-1-1.84c-2.26-4.83-1.52-7.1,3.12-9.72a52.67,52.67,0,0,1,6.79-3.43c1.35-.52,2.66-1.58,4.18-.5s1,2.64.8,4.08c.59,3.66,1.82,7.14,2.76,10.7A.75.75,0,0,1,46.58,113.29Z"/><path class="cls-9" d="M43.7,101.65c-1.47-3.83-1.47-3.84-5.35-2.06-1.35.62-2.72,1.21-4,2-7.32,4.26-6.21,2-4.22,10.31.26,1.1.61,2.17.79,3.33a13.1,13.1,0,0,0-3.69-3.51c-2-1.07-3,.32-3.94,1.83-2.07-2.35-4.66-4.1-6.9-6.22-1.62-1.55-1-3.92.12-5.64a11,11,0,0,0,1.41-5.75,8.72,8.72,0,0,1,5-8c1.45-.72,2.92-.25,4.34-.58a1.53,1.53,0,0,1,1.15.1c.59.89,1.22,1.12,2.13.33a14.8,14.8,0,0,1,2.75-2,4.87,4.87,0,0,1,7,2.71c.65,1.93,1.08,3.65,3.65,4,1.39.16,2.19,1.75,2.33,3.21s1,1.83,2.28,1.7a77.39,77.39,0,0,1,7.92-.47c-1.61,1.36-3.56,1-5.37,1.07C48,98,45.31,98.66,43.7,101.65Z"/><path class="cls-10" d="M92.65,40.71c-.55,2.71.35,5.4,0,8.11-1,2.22-1.62,4.64-3.56,6.31-.26.23-.51.62-.8.66-4.51.61-3.94,4.11-4.11,7.2a1.07,1.07,0,0,1-1.06-.47A6.13,6.13,0,0,1,82.54,60,37,37,0,0,0,70.21,38.87c-1.08-.92-1.95-1.79-1.2-3.32,1.22-1,2.09-.13,3,.54,4,3,6.84,7,9.24,11.34a52,52,0,0,1,2.63,5.48c.85,2.08,1.86,2.32,3.55.75a9.12,9.12,0,0,0,2.78-9.37c-1.31-5.5-4.63-9.65-9-13-5.4-4.14-11.18-7.62-18.06-8.71a9.33,9.33,0,0,0-5.92.55,2,2,0,0,0-1.23,1.61c-.07.91.68,1.16,1.31,1.43A48,48,0,0,1,67.08,32c1.17.84,2.58,1.7,1.94,3.6a1.41,1.41,0,0,1-1.78.18,56.06,56.06,0,0,1-5.92-3.85,25.9,25.9,0,0,0-8.47-3.38,3.49,3.49,0,0,0-2.05.08c-.92.3-2,.48-2.2,1.61s1,1.31,1.68,1.74A39.24,39.24,0,0,1,61.37,42.59,2.89,2.89,0,0,1,62,45.3a1.16,1.16,0,0,1-.54.51c-1.44.13-2.14-.89-3-1.8-2.81-3-5-6.57-8.81-8.57a16.19,16.19,0,0,0-3.61-1.53c-1.61-.4-2.78,0-3.46,1.5s-1.29,3.23.5,4.5c7.3,5.17,10.54,13.18,14.33,20.79,1.95,3.93,3.62,8,5.23,12.09a11,11,0,0,0,5.52,5.79c2.18,1.07,3.42.4,4.23-1.9.55-1.58.54-3.29,1.1-4.87.24-.5.52-.94,1.19-.81a12.76,12.76,0,0,1-.42,6.77c-1.18,3.54-4.07,4.58-7.3,2.73a23.14,23.14,0,0,1-4.25-3.68c0,1.61,0,2.7,0,3.78a8.43,8.43,0,0,1-.92,4.08c-1.69,3.48-4.79,4.36-8,2.33a25.81,25.81,0,0,1-7-7.12A82.56,82.56,0,0,1,33,49.68a13.28,13.28,0,0,1,.13-7.82c.5-1.31-.26-2.14-.84-3.12-2.49-4.24-4.94-8.51-7.4-12.77a.93.93,0,0,1,1.2-.65c2.51,2,3.31,5.09,5,7.6.84,1.22,1.58,2.52,2.31,3.82a2.22,2.22,0,0,0,2.31,1.39c1.14-.16,2.75.42,3.11-1.21s1.54-3.43-.15-5.18c-2.31-2.39-4.34-5-6.79-7.31a6.19,6.19,0,0,1-2.13-3.23,1.42,1.42,0,0,1,1.21-1.34,3.1,3.1,0,0,1,2.34,1.48c2.38,2.93,5.43,5.23,7.7,8.27,1,1.39,2.42,1,3.47.14,1.28-1,.38-1.91-.48-2.8-2.56-2.65-5.62-4.76-8.11-7.48a12.89,12.89,0,0,1-2.45-3,1.53,1.53,0,0,1,1.21-1.77c3.18,1.62,5.17,4.66,8,6.75,1.12.83,2,1.94,3.07,2.88a4.22,4.22,0,0,0,4.8.93c.61-.26,1.58,0,1.71-.91s-.63-1.17-1.21-1.57c-4.43-3.15-8.77-6.41-13.38-9.3-.59-.37-1.28-.6-1.57-1.32a1.74,1.74,0,0,1,1.14-2.25c3.37.93,5.82,3.42,8.64,5.27,2.18,1.44,4.36,2.9,6.44,4.5a2.75,2.75,0,0,0,3.14.58c.37-.09.73-.22,1.1-.32,2.57-1.28,5.26-1,7.93-.49,6.81,1.42,12.7,4.72,18.26,8.81A31.26,31.26,0,0,1,92.65,40.71Z"/><path class="cls-11" d="M34.86,14.92a2.79,2.79,0,0,0-1,1.66c.47,2.26-.59,3.34-2.74,3.58l-1,1.09c-.07,2.73-1.62,4.26-4.25,4.2l-1,.52C20.94,21.39,18,16.43,18.8,10a9.78,9.78,0,0,1,8.6-8.26c3.29-.25,6.45.15,9.22,2.25A33.3,33.3,0,0,0,40,6a1.06,1.06,0,0,1,0,1c-.71,1.16-.79,2.86-2.61,3.06a4,4,0,0,0-1,2.11C37,13.75,36.64,14.73,34.86,14.92Z"/><path class="cls-12" d="M39.44,6.5,40,6c5.46,2.17,10.44,5.31,15.62,8,1.3.68,2.29,1.09,3.77.17a10.11,10.11,0,0,1,6.84-1.29A57.2,57.2,0,0,1,92.65,23.73V25c-1.41.57-2.34-.45-3.33-1.09a56.35,56.35,0,0,0-21.63-8.5c-4.21-.7-8.08-.39-10.22,4.17a2.82,2.82,0,0,1-1,.88l-.65.76a2.4,2.4,0,0,1-1-2.77c.47-2-.6-2.75-2.11-3.59-3.64-2-7.4-3.86-11.08-5.81C40.63,8.51,39.34,8.09,39.44,6.5Z"/><path class="cls-13" d="M46.84,116.32c0-.27,0-.54,0-.81,7.14-.69,14.31-.58,21.47-.78,8.11-.23,16.23-.54,24.34-.81,0,.35,0,.69,0,1-1.17,1.28-2.75,1.44-4.32,1.58a44.2,44.2,0,0,1-4.46.07c-11.28-.17-22.54.37-33.8.86C48.87,117.53,47.56,117.71,46.84,116.32Z"/><path class="cls-14" d="M74.72,71l-.48,1.16c-1.27-.06-1.45-1.09-1.72-2-2.31-7.69-6.21-14.59-10.5-21.3-.64-1-1.26-1.92-.54-3.12l.37-.32c2.31-.08,3,1.91,3.94,3.35A109.19,109.19,0,0,1,73.61,63.3c1.31,2.8,2.47,3.43,5.54,2.84a3.07,3.07,0,0,0,3-2.36c.24-.8.56-1.47,1.56-1.39l.46.6c-1,4-3.8,6.44-7.18,5.57C74.17,67.81,74,68.73,74.72,71Z"/><path class="cls-15" d="M28.41,87.42,28,87.9c-1.54.13-2.59-.77-3.66-1.7-5.59-4.91-11.92-7.47-19.48-6.26A4.56,4.56,0,0,1,1,79.4V78.28C12.05,75.6,21,79.13,28.41,87.42Z"/><path class="cls-16" d="M46.58,113.29l-.12-.94h5.87C50.53,113.54,48.52,113.21,46.58,113.29Z"/><path class="cls-1" d="M1,79.4c9.13-2.28,17.25-.45,24.21,6,.89.83,1.81,1.64,2.72,2.46-.09.72-.56.69-1.14.68-4.61,0-7.3,2.17-7.73,6.74-.25,2.69-.26,5.22-1.92,7.69-1.49,2.22-.31,5,2,5.11,2.65.07,2.79,1.76,3.4,3.4.24.66.46,1.33.69,2a14.1,14.1,0,0,0,1.54,8.11c.95,1.93,2.33,3,4.54,2.72-.61,2.58,1,3.72,3,4.71,1.23.64,2.36,1.46,3.58,2.12.72.39.12-.42.39-.43a27.71,27.71,0,0,0,7.46-5.26c2.65-2.56,2.59-5.93,3.09-9.16L91.08,115h1.57q0,28.11,0,56.2c-1.45.83-2.47-.14-3.56-.87C77.78,162.73,67,154.49,56,146.51c-3.9-2.83-7.9-5.52-11.62-8.6-3-2.47-3.83-2.35-6.89-.06a8,8,0,0,0-1.61,1.72c-3.89,5.32-4.05,6.3.31,11.06,4.22,4.6,8.07,9.51,12.54,13.89,3.76,3.69,7,7.88,10.93,11.43,9.24,8.39,18.73,16.49,30,22.09,2.58,1.28,2.5,3.54,3,5.68l.18,1c0,6.6-.09,13.2-.09,19.8q0,36.71,0,73.41c-1.81,6.12-5.23,8.79-11.44,8.79q-34.46,0-68.92,0c-7.21,0-11.51-4.24-11.51-11.44q0-68.33,0-136.63c0-.62.08-1.23.13-1.84a4.31,4.31,0,0,1,3.39-1.76c6.58-.54,9.32-7.55,8.57-12.4S9.5,134.3,6.56,130.78c-1.85-2.21-4.33-3.89-5.48-6.68A5.89,5.89,0,0,1,1,121.27c2.18-2.7,2.62-2.8,5.63-1,4.24,2.6,8.14,5.71,12.28,8.48,3,2,4.11,5.78,6.26,8.63a13,13,0,0,1,1.36,2.35c-1.8-3.52-4.19-6.25-5.93-9.41-.9-1.64-2.81-2.27-4.34-3.27-2.71-1.76-5.23-3.8-7.89-5.63a14.33,14.33,0,0,0-4.84-2.58c-1.39-.31-1.83-1.52-2.53-2.5Q.69,97.9,1,79.4Z"/><path class="cls-8" d="M1.08,124.1C6.82,128.77,12,133.76,14,141.38c1.73,6.82-2.61,14.8-9.84,14.91a18.39,18.39,0,0,0-3.08.53C.76,145.91.67,135,1.08,124.1Z"/><path class="cls-17" d="M1,116.39a130.69,130.69,0,0,1,14.85,9.94c.87.65,1.7,1.39,2.12-.52,3.66,5.52,7.28,11,11.08,16.72a2.11,2.11,0,0,1-1.78-1.22,39.34,39.34,0,0,1-2.92-4.39c-3.1-6-8.4-9.74-13.77-13.4a16.23,16.23,0,0,1-1.75-1.18C6.47,120.29,4,119,1,121.27A16.63,16.63,0,0,1,1,116.39Z"/><path class="cls-1" d="M56.51,20.47c.67-4.36,1.87-5.52,6.38-6.3,4.14-.71,8,.48,11.85,1.69,6.47,2,12.67,4.66,17.91,9.15v15.7c-1.15.9-1.3,0-1.76-.84C84.32,28.25,74,22.29,61.19,20.15,59.57,19.88,58.08,20.58,56.51,20.47Z"/><path class="cls-8" d="M92.65,203.72c-.78-3.24-3.39-4.44-6-5.92-13.51-7.59-25-17.67-35.55-29-6.15-6.62-12.24-13.28-18.16-20.11a4.31,4.31,0,0,1-1-4.6A14.88,14.88,0,0,1,39.79,135a2.68,2.68,0,0,1,3.3.38c9.73,8,20.36,14.85,30.39,22.48,6.2,4.73,12.7,9,19.16,13.35a.54.54,0,0,0,.16.36Z"/><path class="cls-18" d="M36.29,130.74l2.27,2.08-.23.37c-3-1.89-6.06-3.71-9-5.71-1.29-.88.08-2.08,0-3.14,1.22-.77,2.28-1,3.4.34s2.77,1.33,4.32,1.81c-2.54.89-5-1.42-7.75-.07A32.4,32.4,0,0,0,36.29,130.74Z"/><path class="cls-1" d="M33.28,46.3c0-5.82,2.66-7.51,7.34-5.33,4.27,2,6.88,5.68,9.2,9.53A124.69,124.69,0,0,1,61.61,76.32a10.88,10.88,0,0,1,.35,5c-.33,2.45-1.27,4.67-3.76,5.62-2.32.88-4.11-.52-5.63-2-5.28-5-9.1-11.16-12.37-17.6a68.16,68.16,0,0,1-6.6-18.85C33.43,47.53,33.32,46.57,33.28,46.3Z"/><path class="cls-1" d="M61.48,45.74c3.42,5.52,6.92,11,9.56,17a53.48,53.48,0,0,1,3.2,9.46,20.9,20.9,0,0,1-.77,5.21c-.93,2.83-3.14,3.86-5.73,2.38a14.5,14.5,0,0,1-6.65-7.53c-3.43-8.87-7.23-17.57-12.73-25.39a20.84,20.84,0,0,0-5.71-5.75c-2.17-1.4-2.45-3.42-1.2-6.31,1-2.31,2.66-2.67,4.95-2.07a16.87,16.87,0,0,1,7.9,5C56.8,40.27,59.1,43.05,61.48,45.74Z"/><path class="cls-1" d="M69.05,35.52c-3.36-4-7.85-6.23-12.46-8.33-.82-.37-2.14-.19-2.22-1.45a3.71,3.71,0,0,1,1.5-3.21,7.14,7.14,0,0,1,5-1.34c7.92.54,14.5,4.2,20.68,8.85,4.62,3.46,8.09,7.69,9.76,13.33A10.77,10.77,0,0,1,87.83,55c-2.33,1.76-3.89,1.33-4.94-1.33A41.57,41.57,0,0,0,71.58,37.09c-.76-.65-1.33-1.7-2.57-1.61Z"/><path class="cls-1" d="M79.59,67.16c-3.29,1.14-5.57.15-6.92-2.88-3-6.65-6.19-13.16-10.82-18.86C58,39.9,53.94,34.68,47.54,32c-1.1-.47-.93-1-.61-1.84.91-2.29,3.31-3.35,6.41-2.72,5.45,1.12,10,4,14.08,7.63-.28,2.49.91,4.14,2.72,5.77,2.5,2.26,4.09,5.42,6.4,7.85s2.51,6,4.63,8.59C83.06,59.58,81.88,65.06,79.59,67.16Z"/><path class="cls-1" d="M25.82,25.45a16.17,16.17,0,0,0,4.25-4.2c4.08,3.2,7.09,7.45,10.72,11.08a1.15,1.15,0,0,1,.15,1.44c-.18.39-.51.82-.47,1.21.38,4.35-2.89,4.16-5.64,4.65a1.16,1.16,0,0,1-1.34-.52C30.76,34.65,27.9,30.28,25.82,25.45Z"/><path class="cls-1" d="M79.59,67.16c2-2.64.77-5.71,1.11-8.57.09-.72-.52-1.25-1.13-1.66-.42-.29-1-.68-1.08-1.08a11.91,11.91,0,0,0-3-6.28c-2.07-2.56-3.69-5.52-6.08-7.79-1-.9-1.67-2-2.61-2.8-2-1.75-1.33-2.88.58-3.93.54.19,1,.74,1.63.47l0,0c0,1.89,1.73,2.09,2.74,3a35.22,35.22,0,0,1,7,8.55c2.73,4.76,5.11,9.66,5,15.36C82.94,64.49,82.33,66.75,79.59,67.16Z"/><path class="cls-19" d="M39.44,6.5c5.25,2.81,10.48,5.66,15.77,8.4,1.13.59,2,.9,1,2.43-.69,1.15-.34,2.59-.4,3.9-.76.83-1.49,1.36-2.67.53-5.11-3.6-10.27-7.15-15.4-10.74-.24-.17-.29-.61-.44-.92C38.19,9,37.88,7.19,39.44,6.5Z"/><path class="cls-19" d="M34.86,14.92a7.25,7.25,0,0,0,1.51-2.71c.71-.58,1.29-.17,1.88.23,4.81,3.34,9.61,6.7,14.45,10a2.17,2.17,0,0,1,.93,2.68c-.28,1.19-1,1.26-2,1.15a1.82,1.82,0,0,0-1,.06c-3.1,1.89-4.88-.4-6.81-2.15-2.58-2.36-5.17-4.71-7.72-7.11C35.51,16.49,34.64,16,34.86,14.92Z"/><path class="cls-19" d="M31.07,20.16l2.74-3.58c2.06.88,3.33,2.74,5,4.13,2.2,1.85,4.13,4.06,6.46,5.73,2.14,1.53,1.12,3,.4,4.5-.46.94-4.08,1-4.81.13C37.66,27.37,34,24.13,31.07,20.16Z"/><path class="cls-20" d="M33.39,5.39A13,13,0,0,0,25,5.63C27.52,3.26,30.53,3.17,33.39,5.39Z"/></svg>