<svg id="Layer_1" data-name="Layer 1" xmlns="http://www.w3.org/2000/svg" viewBox="0 0 998.08 561.78"><defs><style>.cls-1{fill:#ecbe58;}.cls-2{fill:#e16f6e;}.cls-3{fill:#ecbe59;}.cls-4{fill:#354a72;}.cls-5{fill:#2e4174;}.cls-6{fill:#fff;}.cls-7{fill:#ebbe59;}.cls-8{fill:#df6f6e;}.cls-9{fill:#747f97;}.cls-10{fill:#6f7c9b;}.cls-11{fill:#e3ba5c;}.cls-12{fill:#e16f6f;}.cls-13{fill:#6f7d99;}.cls-14{fill:#e06f6f;}.cls-15{fill:#737f98;}.cls-16{fill:#707d99;}.cls-17{fill:#d26d6d;}.cls-18{fill:#dd6e6f;}.cls-19{fill:#d86e6e;}.cls-20{fill:#d06c6d;}.cls-21{fill:#cb6c6d;}.cls-22{fill:#e0716f;}.cls-23{fill:#ecbf59;}.cls-24{fill:#3e4a71;}.cls-25{fill:#dfb759;}.cls-26{fill:#d5af5b;}.cls-27{fill:#e06f6e;}.cls-28{fill:#d66e6e;}.cls-29{fill:#d66e6d;}.cls-30{fill:#cd6b6d;}.cls-31{fill:#374872;}.cls-32{fill:#3d4a71;}.cls-33{fill:#414a72;}.cls-34{fill:#3d4a72;}.cls-35{fill:#be686d;}.cls-36{fill:#d56e6e;}.cls-37{fill:#d16d6d;}.cls-38{fill:#474c71;}.cls-39{fill:#5a4e70;}</style></defs><path class="cls-1" d="M997.93.89V217.94c-3.52,1.39-7.16.71-10.74.5-8.2-.49-16.38-1.25-24.61-1.22-1.47-.07-3,.21-4.41-.32-2.89-.79-5.84-.21-8.75-.39-2.55-.07-5.09.16-7.63-.15-2.72-1.1-5.57-.33-8.35-.56-13.94-.44-27.86-1.18-41.79-2-6.25-.36-12.53-.54-18.77-.7-13.15-.35-26.3-.72-39.44-1-20.92-.51-41.86-.86-62.77-1.87-9.59-.45-19.22.05-28.82-.14-64-1.27-128-.45-192.06-.68-7.34,0-14.66.44-22,.67a13.09,13.09,0,0,1-5.28-.38c-1.35-1.88.29-2.55,1.45-3.09,5.84-2.74,11.36-6.31,18.07-6.83a13.31,13.31,0,0,0,5.28-2c1.31-.74,2.38-1.67,2-3.36a3.25,3.25,0,0,0-3.11-2.48,27.52,27.52,0,0,0-7.42.1,5.11,5.11,0,0,1-3.45-.15c-1.93-1-1.21-2.22-.22-3.43,7.68-3.65,15.3-7.48,23.42-10.12,7.45-2.42,8-4.29,2.85-10.2-1.29-1.5-3-1.4-4.61-.93-8.87,2.63-17.71,5.37-25.84,9.91-5.68,3.18-11.35,6.4-16.78,10-2.15,1.43-4.57,1.27-6.88.67-14.38-3.76-29.12-5.64-43.81-7-13.64-1.28-27.3-3.32-41.11-2.56a10.83,10.83,0,0,0-7.63,3.15c-4.09,4.13-8.39,8.11-9.49,14.24a24.48,24.48,0,0,0-.38,2.82c-.32,5.74,1.16,7.13,6.79,6.24a28.32,28.32,0,0,1,3.18-.33,663.63,663.63,0,0,1,73.56.07c5.67.33,11.38.21,17,1.11,2.27.37,4.39,1,4.75,3.79-1,1.17-2.42.8-3.68.79-21.1-.15-42.19.7-63.28,1-11,.13-22.05-.24-33,.62-8.4.65-16.8.19-25.17.81-1.92-.87-2.19-2.39-1.64-4.21,1.06-1.63,2.73-.92,4.16-1a22.87,22.87,0,0,0,4.21-.61c-2.39.79-5.12.6-7.85.52a1.83,1.83,0,0,1-1.43-.93c-2.36-6.19-5.2-12.25-5.85-19a10.33,10.33,0,0,1,1.57-2.76c2.19-3.26,4.73-5.76,9.26-5.08,4.84.72,9.65-.89,14-.7-4.72-.06-9.89,1.12-15.14.8-2-.12-3.34-.65-4-2.72-1.22-4-3.7-6.5-8.2-6.56a3.76,3.76,0,0,1-3.86-3.52c-1.29-9.09-12.62-10.69-18.59-5.77a18.43,18.43,0,0,1-3.53,2.36,3.07,3.07,0,0,1-4.09-.81c-8.77-9.5-19.76-15-32.26-17.83-12.69-2.86-25.14-1.29-37.42,2.15a48.62,48.62,0,0,0-9.13,3.43A76.52,76.52,0,0,1,302,143.36,59.22,59.22,0,0,1,335.26,155c2.17,1.62,4.49,3.05,6.6,4.76,1.11.91,2.29,2.06,1.88,3.56-.49,1.8-2.31,1.49-3.64,1.33-3.39-.4-6.69-.25-9.6,1.63-4.7,3-6.72,7.59-6.34,13.05.21,3,.18,5.64-2.41,7.69a6.79,6.79,0,0,0-1.42,2c-2.28,4-1.1,7.62,3.38,7.86,6.69.37,7.94,4.89,9.22,9.81.21.8.47,1.58.68,2.38a22.26,22.26,0,0,0,1.27,8.32c1.6,4.82,3.9,8.9,9.64,9.52a2.54,2.54,0,0,1,1.52.85,3.42,3.42,0,0,1,.52,2.11,3.78,3.78,0,0,1-.4,2.09c.19.47-1.51.47-.39,1a182.72,182.72,0,0,1,16.81,9c-.65-.53-2-.76-1.87-2.3.48-1.73,2-2.11,3.4-2.78,4.89-2.36,9.62-5,13.53-8.86a15.15,15.15,0,0,0,4.85-10.29c.12-2.19.15-4.62,3.07-5.29,8.15-.58,16.34-.65,24.46-.71,18.37-.15,36.72-1.22,55.09-1,14.45.2,28.89-1.14,43.36-.71,3,.08,5.86-1.22,8.81-1,21.4,1.77,42.8,0,64.2.18,42.7.4,85.42-.22,128.12.27,20.12.23,40.24,0,60.34.72,18.92.67,37.86.57,56.76,1.83a90.89,90.89,0,0,0,9.91.14c12.21-.53,24.4.48,36.59.85,15.69.47,31.38,1.47,47.08,2,1.31,0,2.57.44,3.88.38,3.86.7,7.75.18,11.62.34a38.83,38.83,0,0,1,5.06.15c2.62,1.09,5.37.34,8,.56,2.91.1,5.83-.22,8.73.2a8.12,8.12,0,0,0,3.81.51c11.43-.2,22.77,1.42,34.18,1.5a3,3,0,0,1,2.32.64v54.08c-1.95.88-3-.61-4.2-1.63-2.56-2.14-4.56-4.95-7.61-6.52-6.75-5.39-14.58-4.51-22.14-3.22-14.21,2.42-26.82,9.13-39.39,15.77-9.12,4.81-18.11,9.85-27.12,14.86C887.41,298.29,878,305,868.56,311.45c-3.13,2.15-6.3,4.23-9.57,6.14-6.46,3.79-12.2,8.58-18.24,13-5.75,4.17-11.82,7.88-17.62,12-7.93,5.58-15.53,11.62-23.39,17.29q-12.36,8.94-24.73,17.88c-14.26,10.35-29.09,19.94-42.77,31-6.53,5.3-13.36,6.37-21.2,4.91-8.15-1.52-16.48-1.73-24.64-3-7.48-1.16-15-2.06-22.46-3.39-11.76-2.09-23.62-3.63-35.29-6.26-4.87-1.09-9.58-2.65-14.35-4.07a6.23,6.23,0,0,1-4.42-4.74c-1.58-6.83-6.41-10.87-12.12-14.05a66.91,66.91,0,0,0-13.55-6.19,4.21,4.21,0,0,1-3-2.82c-.17-2.68,1.88-4.51,2.71-6.82s.4-3.61-1.41-4.91a28.64,28.64,0,0,0-6.21-3.45,12.47,12.47,0,0,1-8-9.19,23.67,23.67,0,0,0-13.17-15.89,20.37,20.37,0,0,0-8.11-2.45c-8.4-.33-16.92-1.06-24.89,2.56a11.72,11.72,0,0,1-11.22-.7c-11.36-6.38-23.41-11.46-34.51-18.33-8.66-5.37-17.94-9.69-26.61-15-14.82-9.11-29.65-18.2-44.66-27-5.51-3.23-11.09-6.36-16.62-9.59a83.86,83.86,0,0,1-9.89-6.89c-4.63-3.69-9-3.08-13.4-.33a28.65,28.65,0,0,0-11.57,12.68c-1.56,3.52-1.24,5.19,1.45,8,6.39,6.7,13.91,12.15,20.45,18.71,5.76,5.78,12.13,11,18.25,16.35a329.56,329.56,0,0,0,26.68,21.79c7.9,5.63,15.76,11.36,24.11,16.34,11.5,6.85,23,13.67,35.61,18.43,3.16,1.2,5.5,3.09,6.66,6.4,3.3,9.48,9.25,17.37,16.1,24.4,3.93,4,9.23,6.68,15.36,6a7.7,7.7,0,0,1,4.78.92c4.19,2.28,8.77,2.84,13.41,2.81a13.6,13.6,0,0,1,5.12,1.28c5.85,2.3,11.19,1.1,16.2-2.21a12.56,12.56,0,0,1,4.21-1.77c4.19.31,7.36,3.05,10.93,4.76,9.87,4.76,19.82,4.62,30,1.44a17.3,17.3,0,0,0,3.35-1.19c3.59-2,6.69-1.05,10,1,10.37,6.41,21.29,11.85,32,17.67,6.88,3.74,14.12,6.69,21.19,10,2.44,1.14,5.16,1.67,7.69,2.69,1.47.59,3,1.19,3.31,2.9.36,2-1.38,2.55-2.67,3.32-8.43,5.06-17.33,9.24-25.84,14.17-3.81,2.21-7.12,5.07-10.75,7.51-7.64,5.17-15.65,9.74-23.41,14.69-15.35,9.79-31.61,18.09-46.33,28.9a148.93,148.93,0,0,1-16.62,10.22c-6.35,3.47-12,8-17.63,12.56a160.74,160.74,0,0,0-24.5,25.58c-1.23,1.55-1.92,3.56-4,4.21H.8c-.61-1-.35-2.08-.35-3.12q0-162,0-323.91c0-.47,0-1,0-1.42a1.71,1.71,0,0,1,1.74-1c7.81.09,15.52-1.25,23.31-1.55,7.29-.29,14.55-1.2,21.85-1.58,8.84-.45,17.65-1.49,26.49-2,8.11-.49,16.21-1.25,24.31-1.82,4.36-.31,8.7-1,13.09-.92,2.36,0,4.74.31,7.08-.3,4-.48,8-.91,11.94-1.05,12.13-.42,24.23-1.53,36.35-2.07,4.94-.22,9.88-.9,14.81-.77,7.45.21,14.83-1.18,22.28-.8,2,.2,2.69,1.64,3.08,3.37,1.51,6.75,4.42,12.94,7.66,19,1.53,2.87,3.81,5.11,5.71,7.67.79,1.07,1.71,2,1,3.47-1.15,1.13-2.09.36-3.15-.25-2-1.21-4-2.55-5.91-3.92-3.61-2.59-7.75-3.49-12-3.86-3.37-.29-5.05,2.58-6.45,4.84-6.58,10.64-8.38,22.42-7.36,34.71a7.45,7.45,0,0,0,6.41,7.05,67,67,0,0,0,14.09,1.2c3.57-.17,6.5-1.57,7.7-4.73A11,11,0,0,0,213,276.8a11.74,11.74,0,0,0-2.35-2.15c-1-1.73-2.77-3-2.93-5.21a5.28,5.28,0,0,1,.72-2.07,25.88,25.88,0,0,1,2-2.55,3.19,3.19,0,0,1,1.93-.9c2.94-.12,4.62,2.13,6.58,3.7a69.94,69.94,0,0,0,16.64,9.67c6.79,2,13.42,4.5,20.37,6,10.82,2.4,21.59,4,32.66,1.62,3.8-.82,7.65-1.05,11.27-2.84,7.78-3.85,11.83-12.89,10.16-21.39-1.38-7.09-5.61-12-10.24-17a94.6,94.6,0,0,0-23.55-18c-1.46-2.61-1.1-4,1.53-4.15a24.9,24.9,0,0,0,10.54-2.83c1.56-.86,3,0,4.37.72,8.62,4.46,16.5,10.42,25.36,14.2,8.25,3.53,11.49,11.12,17,16.85,2.12,2.2,3.81,4.8,5.41,6.55-3.81-4.61-8.13-9.72-12.15-15.06-2.55-3.39-5.12-6.21-9.56-7.83-5-1.81-9.4-5.38-14.14-8a184.77,184.77,0,0,0-17-8.62c-6.67-2.85-13.72-5.11-19.89-9.17-1.13-.75-2.71-.78-3.7-1.43a.91.91,0,0,1,.36.19c.93.78,3,.45,2.84,2.16-.1,1.53-1.63,2.29-2.91,2.86a38.56,38.56,0,0,0-13.16,10.39c-4.1,4.73-5.95,5-10.88.9C226,211.59,223.11,197,230,180.82c3.87-9.09,9.5-17.12,17.41-22.4-11.64,5.48-22.52,13.08-31.13,23.69a5.1,5.1,0,0,1-3.27,2c-9.25-.32-18.46-.17-27.55,1.84-4.81.11-9.55,1-14.36,1.18-4.57.14-9.11,1-13.7.85-5.23-2.16-8.44-6.71-12.26-10.51-1.76-1.76-3.29-2.83-5.84-1.67-2,.93-4.28,0-6.55.54-3.55.89-6.19,2.92-8.66,5.22-2.76,2.57-2.24,7.94.66,11.32,1.44,1.68,3.52,2.69,4.63,4.79.55,1.05,2,.89,3.24.82,7.3-.43,14.39-2.38,21.67-3,5.21,1.77,9.92,4.87,15.42,5.86,3.46.62,6.67,2.25,10.23,2.45,5.92,1.7,11.94,3,18,4.09a18,18,0,0,1,6.34,2.21c2.21,3,2.32,5.73.36,8.81a86.46,86.46,0,0,1-14.79.94c-12.63.14-25.21,1.3-37.81,1.84-10.57.45-21.18,1-31.74,2-2.34.22-4.65.8-7,.64-12.12.85-24.27,1.33-36.36,2.68-4.91.55-9.93.35-14.88.87-11.26,1.18-22.61,1.31-33.85,2.77-3.28.43-6.6.19-9.91.48-5,.45-10.09,1.28-15.19,1-.94,0-1.93.07-2.55-.9a30.27,30.27,0,0,1-.08-3.56Q.44,116.37.45,5C.45-.08,0,.54,5.07.54q494.34,0,988.67,0C995.13.56,996.58.21,997.93.89Z"/><path class="cls-2" d="M581.41,368.86c7,3.18,14.39,5.43,20.69,10,4.51,3.24,8.27,7.17,9.34,12.84.49,2.63,2.25,3.29,4.28,4A190.81,190.81,0,0,0,642.26,402q16,2.88,32.16,5.18c14.49,2.06,29.05,3.6,43.55,5.58,4.2.58,7.36-1.23,10.41-3.43,7-5,13.79-10.31,20.78-15.34,10.13-7.3,20.44-14.33,30.5-21.72s20.07-15,30.25-22.18c20.1-14.27,40.22-28.51,60.8-42.11,14.6-9.66,29.42-18.85,44.83-27.12,11.65-6.27,23.24-12.68,35.75-17.17a65.42,65.42,0,0,1,24.67-4,17.13,17.13,0,0,1,11.24,4.6c7.09,10.33,6.54,22,5.48,33.59-1.34,14.74-5.6,28.75-11.8,42.17-4,8.73-9.14,16.85-14.31,24.92a504,504,0,0,1-42.85,57.88c-10.6,12.29-21.29,24.46-33,35.75a498.89,498.89,0,0,1-44.25,37.71,514.17,514.17,0,0,1-49.21,33c-19.88,11.81-40.83,21.51-62.08,30.56-2.3,1-4.92.69-7.18,1.8H682.41c-.47-1.46.51-2.25,1.53-2.77,5-2.51,9.66-5.68,15.18-7a1.27,1.27,0,0,0,1.56-.88c3.57-3.26,8.17-4.75,12.35-6.86,13.41-6.78,26-15,39.35-21.84,12.12-6.26,23.16-14.2,35-20.85,4.93-2.77,9.11-6.79,14.39-9.06.43-.26.84-.56,1.25-.86,4.87-3.93,10.35-7,15.48-10.52,6.22-4.29,12.28-8.76,18.27-13.36,7.5-5.75,14.85-11.66,22.12-17.68a135.49,135.49,0,0,0,15-13.91,6.14,6.14,0,0,1,1.54-1.23,9.53,9.53,0,0,0,2.59-2.74c1-1.77,3.66-2,4.11-4.29a150.91,150.91,0,0,1,11.73-13.17,195.22,195.22,0,0,0,16.39-19.8,19,19,0,0,1,1.41-1.43c3.26-5.5,7.54-10.23,11.57-15.15,3.22-3.93,6.17-8.06,9-12.27,2.22-3.34,4.74-6.45,6.92-9.8a9.85,9.85,0,0,0,1.51-3c4-6.17,7.34-12.7,11.33-18.86a14.28,14.28,0,0,1,.61-1.39c2.44-4.83,5.24-9.47,7.46-14.41a8.2,8.2,0,0,1,2.19-2.72,1.06,1.06,0,0,0,.5-1.5c-.46-1.55.79-2.8.69-4.28a7.07,7.07,0,0,0,.36-3.35c.81-5.58,1-11.1-1.35-16.41a8,8,0,0,0-1.12-1.06c-5.38-2.77-10.47-.44-15.43,1.19-7.56,2.48-14.55,6.34-21.62,9.95-1.57.8-3.46.91-4.78,2.22a5.66,5.66,0,0,0-2.81,1.9c-4.85,3.64-10.51,5.88-15.61,9.12-7.38,4.69-14.43,9.86-21.77,14.58-7,4.48-12.86,10.39-20.16,14.36a20,20,0,0,0-2.43,2.06c-1.6.59-3.47.73-4.33,2.57-2.41,3-5.61,5.05-8.57,7.37-8.92,7-18,13.78-27.39,20.08-2.14,1.43-4.34,2.79-6.46,4.26-.41.31-.78.65-1.18,1a107.57,107.57,0,0,1-16.46,11.74c-11.33,6.66-21.29,15.42-33.11,21.3-1,.49-2.15.52-2.81,1.55-6.38,4.06-12.7,8.2-19.19,12.09-8.71,5.23-17,11.17-25.51,16.72-8.12,5.29-16.2,10.64-25,14.72a4.14,4.14,0,0,0-2.33,1.69c-15.12,11.22-31.45,20.56-47.45,30.39-1.14.7-2.42,1-3.58,1.53a13.33,13.33,0,0,1-1.35.71c-8.87,7.32-19.19,12.47-28.61,19a199.82,199.82,0,0,1-20.29,12.3c-.57.34-1,.89-1.52,1.27-14.69,11.28-30.21,21.54-43.29,34.82-1,1-2.27,1.24-3.29,2H508.63c5.18-10.33,13.72-17.82,21.77-25.75,6.27-6.17,13-11.86,20.61-16.12,16.71-9.35,31.72-21.37,48.5-30.57,10.78-5.9,20.91-12.85,31.51-19,9.37-5.47,17.51-12.84,27.26-17.73,7.17-3.6,14.26-7.37,21.3-11.59-.63-1.23-2-1.39-3.1-1.77-16.09-5.39-30.81-13.63-45.63-21.7-6.12-3.33-12.26-6.62-18.14-10.36a3.33,3.33,0,0,0-3.61-.16,43,43,0,0,1-27.57,3.77c-7-1.39-13.33-4.59-19.28-8.52-5.3-.91-8.42-5-11.94-8.41a34.83,34.83,0,0,1-6.35-8c-.88-1.6-1.66-3.33-4.31-1.94-1.58.83-3-1.41-2.15-3.95a62,62,0,0,0,1.79-9.72,59.86,59.86,0,0,0-.19-15.54c-.05-.47-.14-.94-.17-1.41-.09-1.36,0-2.8,1.62-3.1s2.33.93,2.83,2.19A30.85,30.85,0,0,0,553,365c7.55,6,16,6.29,24.85,3.75C579.12,368.41,580.25,367.59,581.41,368.86Z"/><path class="cls-3" d="M997.93,379.47v177.9c-3.15,3.16-7.45,3.24-11.39,4.27H827.71c-.56-2.29,1.26-3.18,2.65-4.09C840,551.22,849,544.16,858,537c7.11-5.69,14-11.72,20.88-17.65,12.17-10.43,23.42-21.81,34.6-33.26A465,465,0,0,0,947.05,448c9.12-11.65,18.32-23.25,27.27-35,5.15-6.76,9.52-14.12,13.92-21.4,2.08-3.44,4.68-6.56,6.38-10.25C995.19,380.13,996.1,378.82,997.93,379.47Z"/><path class="cls-4" d="M997.93,379.47c-3.59,5.62-7.34,11.15-10.75,16.88-7.24,12.17-15.95,23.29-24.44,34.58a623.24,623.24,0,0,1-70.31,78.46c-13.93,13.17-28.75,25.38-43.9,37.15-6.76,5.26-13.87,10.08-20.82,15.1H728c5.8-3.61,12.3-5.74,18.51-8.46a485.58,485.58,0,0,0,70.34-38,555.91,555.91,0,0,0,49.47-36.59,392,392,0,0,0,41.58-39.91c18.84-20.84,36.46-42.72,51.84-66.31,7.48-11.47,15-22.91,20.68-35.4a124.69,124.69,0,0,0,11.19-55.73c-.12-4.63-2.55-8.56-3.76-12.85a10.36,10.36,0,0,1-.65-4.14c4.21,2.32,7,6.25,10.73,9.16v51.24c-.61,12.08-6.16,22.5-11.15,33.12-.49,1-2,2.5-.55,3.38s2.48-.79,3.26-2c1.89-2.84,3.68-5.75,5.46-8.67.69-1.14,1.08-2.73,3-2.37Z"/><path class="cls-5" d="M953.93,333.84l-.75.79c-3,3.39-7.32,2.21-11,2.85a135.38,135.38,0,0,1-16.24,1.67c-3.84.19-6.94,2.14-10,4.2-13.54,9.15-27.37,17.84-41,26.89-6.69,4.45-13.33,9-20.35,13.26,9.38,1.26,18.48,2.74,27.57,4.31a8.34,8.34,0,0,0,6.39-1.19q22.32-14.55,44.46-29.38a43,43,0,0,1,5.19-3.08c1.14-.54,2.34-1.35,3.62-.23.43,1.44-.95,1.83-1.57,2.67-14.07,13-31.53,21.11-46.8,32.77,5.27,1.34,10.75,1.25,15.94,2.75,1.49.43,3.13.56,3.12,2.68l-1.17.72a6.49,6.49,0,0,1-5.08.63c-5.52-1.36-11.27-1.37-16.8-2.7-1.67-.4-3,.41-4.32,1.22-7.55,4.65-14.93,9.57-22.24,14.59-8.19,5.61-16.83,10.54-25,16.75,2.61,1.43,5.47,1.36,8.14,1.84,7.11,1.27,14.12,2.95,21.2,4.34a11.4,11.4,0,0,0,8.75-1.56c2.12-1.3,4.18-3.83,7.29-2.13.05,2.92-3.35,2.26-4.29,4.15-.76,1.3-3.18,1.2-2.87,3.4l-1.18.58c-8.45,5.42-17.15,10.42-25.69,15.72-14.95,9.27-30.21,18-45.06,27.47-3.55,2.26-7.42,4-11.08,6.63,2.43,1.67,5,1.68,7.28,2.63,1.62.69,3.5,1.16,3.29,3.54l-1,.47c-4.33,1.21-8.12-1.09-12.09-2a9.62,9.62,0,0,0-7.74,1.34C762.76,505.14,742.2,517,722,529.56c-7.32,4.56-14.83,8.82-22.13,13.43-3.36,2.12-3.43,2.25-.75,5.07,1.05,1.11,2.34,2.08,2.16,3.87-.26,1.09-.92,1.16-1.8.72a6.26,6.26,0,0,1-4.62-2.3c-2-2.45-4-2.26-6.47-.59-4.61,3.12-9.47,5.84-14.17,8.83-2.33,1.49-5,2.06-7.51,3h-2.85c-.54-2.35,1.4-3,2.8-3.94q9.12-5.82,18.44-11.3c3-1.77,3.12-2.39.48-4.5-2.86-2.3-5.57-4.75-8.38-7.1-1.49-1.25-2.72-1.51-4.43-.42-6.68,4.26-13.35,8.51-19.85,13-6,4.18-12.25,8-18.39,12-1.73,1.13-3.86,1.11-5.57,2.21h-2.85c-.52-2,1-2.72,2.19-3.59,7.06-5,14.47-9.45,21.62-14.31,6.26-4.27,12.66-8.33,19-12.53,1.4-.93,2.08-1.85.62-3.36-4.31-4.44-9.51-7.84-13.88-12.2-1.33-1.33-2.67-.3-3.86.46-7.6,4.81-15.18,9.68-22.67,14.66-7.89,5.25-15.84,10.4-23.74,15.62-3.45,2.28-3.67,2.64-1.45,6.07,1.09,1.69,2.18,3.38,3.4,5,.93,1.22,1.9,2.5,1,4.19H606.2c-3.08-1.64-4.73-4.59-6.42-7.39-1.41-2.34-2.88-2.52-4.89-1.09-1.73,1.24-3.64,2.24-5.31,3.55a33.44,33.44,0,0,1-9.73,4.93H577c-.65-2.51,1.42-3.28,2.92-4.22,4.11-2.59,8-5.47,12.2-8,2.2-1.32,2.4-2.66,1-4.92-4.22-6.92-4.14-7-10.86-2.53-8.18,5.46-16.44,10.78-24.55,16.34-2.39,1.64-5.19,2.24-7.8,3.31h-2.85c-.56-1.68.74-2.35,1.78-3,10.66-7,21.14-14.36,32-21.07,5.35-3.31,5.62-3.6,1.86-8.79-1.16-1.6-2.14-3.13-1.63-5.19l.82-1c2.64-.41,3.09,2.08,4.4,3.39a17.77,17.77,0,0,1,1.87,3c1.18,1.8,2.34,2.11,4.36.82,7.49-4.78,14.8-9.84,22.27-14.66,6.66-4.31,13.2-8.81,19.91-13.05,3-1.9,2.92-2.55.3-5-1.7-1.59-4.62-2.5-3.46-5.81l.83-.55c2.09,0,3.46,1.23,4.85,2.57,4.15,4,4.28,4.15,8.91,1.1,15.59-10.27,31.29-20.39,46.8-30.78.08-.06.1-.21.24-.51-1.66-1.39-3.88-1.37-5.8-2.08-1.51-.56-3.37-.66-3.63-2.82.23-1.21,1.3-.83,2.05-1.07,3.38-.65,6.5.47,9.6,1.49a7.1,7.1,0,0,0,6.67-.91c15.46-10,30.64-20.45,46.14-30.39,5.37-3.44,10.69-6.94,16.06-10.59-2.81-1.45-6.91.07-8.57-3.76.2-2.79,2.08.23,2.79-.81a13.7,13.7,0,0,1,8,.16,6.4,6.4,0,0,0,5.77-.74c13.73-9.27,27.63-18.26,41.47-27.35a4.89,4.89,0,0,0,1.81-1.7c-1.22-.95-2.7-.61-4.05-.83-1.7-.26-3.37-.56-3.33-2.84l.95-.89a21.34,21.34,0,0,1,10.85.19,5.39,5.39,0,0,0,4.65-1.05c15.45-10.48,31.22-20.48,46.76-30.82a18.79,18.79,0,0,1,3.18-1.57c-4.38,1.8-9.12,1.33-13.66,2.1-1.73.29-3.51.39-5.27.62-1.5.2-3.14.33-4.06-1.38.53-2.44,2.95-1.1,4.2-2.11,6.21-2.66,12.89-3,19.44-3.53A21.44,21.44,0,0,0,885.53,337c13.33-8.8,26.52-17.81,40.08-26.24a7.34,7.34,0,0,0,2.41-2.4c-2.56-1.75-5.55-1.92-8.27-2.83-1.48-.5-3.42-.42-3.71-2.62.13-1.91,1.67-.65,2.46-1.08a14.6,14.6,0,0,1,8.64,1c4.79,2,8.85,1.38,13.11-1.81,5.27-3.94,10.91-7.41,16.4-11a8,8,0,0,1,5.92-1.62l.57.65c.69,2.51-1.4,3.31-2.85,4.29-5.76,3.92-11.53,7.83-17.4,11.58-.57.37-1.34.55-1.52,1.81,4.87,1.39,9.73,3.05,14.79,4,1.41.26,2.54-1.08,3.79-1.73,1.71-.89,3.26-2.58,5.51-1.39,1.6,1.45-.52,1.52-.84,2.26-.84,1.52-2.88,2.78-1,4.88.51.71.58,1.29-.47,1.52-.4.27-.9.62-1.29.53-5.86-1.44-9.42,3-13.54,5.56-6.29,4-12.62,7.86-18.61,12.09,6.61-1.67,13.64-.9,20.38-2.55a3.62,3.62,0,0,1,1.76.06C952.86,332.14,953.9,332.46,953.93,333.84Z"/><path class="cls-3" d="M608.34,561.64c-2.42-3.63-4.68-7.38-7.3-10.85-1.43-1.89-1.36-2.7.68-4q25.59-16.5,51-33.25c1.31-.86,2-1,3.25.07,5.33,4.85,10.7,9.66,16.16,14.36,1.87,1.6,1.33,2.29-.45,3.45Q652,544.21,632.33,557.2c-2.12,1.4-4.13,3-6.19,4.44Z"/><path class="cls-6" d="M.9,233c0,1.54-.1,3.08-.1,4.62v324c-.22-.15-.75.36-.72-.35,0-.95,0-1.9,0-2.85Q.09,281,0,3.51C0,.52.73.11,3.52.11q495.6.12,991.21.12c1,0,2.41-.82,3.2.66H6.2C.8.89.8.89.8,6.33V226.92c0,1.54.07,3.08.11,4.62A1.24,1.24,0,0,1,.9,233Z"/><path class="cls-3" d="M629,561.64c5.4-4.56,11.63-7.91,17.44-11.88,8.54-5.84,17.34-11.3,25.91-17.11,2.3-1.56,3.72-1.37,5.66.51,4,3.92,8.34,7.57,12.75,11.54-8.83,5.44-17.43,10.74-26,16-.41.26-.85.36-.82.94Z"/><path class="cls-3" d="M581.11,523.55c1.75,2.64,3.35,5.4,5.32,7.87s1.35,3.57-1,5.11c-10.87,7-21.64,14.14-32.44,21.23l-5.86,3.88H535c2.39-4.33,6.24-7.34,9.85-10.5,11-9.65,23.11-17.94,34.63-27A6,6,0,0,1,581.11,523.55Z"/><path class="cls-3" d="M549.94,561.64q18.79-12.45,37.56-24.93c1.3-.87,2-.87,2.72.53a27.06,27.06,0,0,0,1.84,2.59c5.85,8.34,5.73,8.54-3.24,13.81a76,76,0,0,0-11.82,8Z"/><path class="cls-7" d="M666.74,561.64c7.69-5.63,16.25-9.9,24.1-15.27,1.27-.87,2,.07,2.77.72,2,1.79,3.94,3.7,5.9,5.56-5.53,3.32-11.73,5.37-17.1,9Z"/><path class="cls-8" d="M997.93,348.16c-2.11,3.63-4.15,7.3-6.35,10.88-1.31,2.14-2.92,4.09-5.58,4.6-1.93.38-3.06-.17-2.36-2.48a62.28,62.28,0,0,1,3.86-8.73c3.81-8,7.47-16.07,9.26-24.83a17.28,17.28,0,0,1,1.17-2.92Z"/><path class="cls-7" d="M579.85,561.64c5.37-4.53,11.54-7.9,17.34-11.8,1-.69,1.51-.2,1.93.59,2.09,3.91,5.46,7,7.08,11.21Z"/><path class="cls-9" d="M962.29,216.63c10.75-.35,21.42,1.16,32.15,1.36,1.17,0,2.33.39,3.49-.05v1.42c-7.42.39-14.82-.38-22.2-.91-6-.43-12.05.22-18-1.07C959.11,216.25,960.85,217.34,962.29,216.63Z"/><path class="cls-10" d="M986.54,561.64a55.61,55.61,0,0,1,11.39-4.27v1.43c-1.61,2.85-4.79,1.78-7.12,2.84Z"/><path class="cls-11" d="M990.81,561.64l7.12-2.84c.54,2.43-.39,3.28-2.85,2.88A27.62,27.62,0,0,0,990.81,561.64Z"/><path class="cls-4" d="M581.41,368.86c-9.34,4.64-18.61,4.43-27.43-1.08a26.61,26.61,0,0,1-12-15.53c-.22-.78-.48-1.61-1.87-1.72,2.32,11,1.46,21.83-1.74,32.75,2.57-.7,1.71-2.81,2.77-4.12,3,2.53,4.47,6.18,6.71,9.23a53.57,53.57,0,0,0,13.2,12.2c.62.43,1.16.72,1.23,1.51-1.9,1.16-3.79,2.34-5.7,3.48a16.8,16.8,0,0,1-16.8.68,11.33,11.33,0,0,0-6.45-1.1,17.75,17.75,0,0,1-10.84-2.51,6.27,6.27,0,0,0-4.55-1c-7.11,1.14-12.87-2.11-16.95-7.23s-8.78-10.19-11.9-16.19c-1.41-2.71-3.22-5.33-4-8.22s-2.39-3.76-4.67-4.67c-15.94-6.35-30.76-14.81-45-24.27a289.4,289.4,0,0,1-31.19-23.23c-10.81-9.47-21.87-18.67-32.37-28.48-6.12-5.71-12.6-11-18.47-17-2.84-2.9-2.7-5.59-1.45-8.51,3.82-8.89,10.69-14.43,19.92-17.11a3.07,3.07,0,0,1,3,.35c14.16,10.46,29.8,18.49,44.89,27.44,10.72,6.36,21.19,13.12,31.86,19.55,4.85,2.92,10,5.4,14.88,8.2,8.19,4.65,16.2,9.6,24.67,13.78,7.89,3.9,15.51,8.33,23.45,12.14a5.54,5.54,0,0,0,5,0c10-4.09,20.47-5.22,30.92-2.6,9.55,2.4,17,8,19.18,18.18,1.07,4.94,4.07,7.32,8.11,9.22a36.31,36.31,0,0,1,4.09,2.05c5.1,3.19,5.65,6.87,1.77,11.53C582.93,367.35,582.14,368.08,581.41,368.86Z"/><path class="cls-2" d="M213.82,182.93c9.91-13.41,23.12-22.14,38.65-27.62-1,2.33-3,3.61-4.81,5a49.13,49.13,0,0,0-18.53,28.5c-3.74,16.38,3.14,27.25,15.05,35.64,2,1.45,3.17.1,4.12-1.08a54.6,54.6,0,0,1,18-14.3c-2.2-2-5.15-1.62-7.58-2.75.86-1.8,2.14-.91,3.14-.67,7.75,1.83,14.94,5.17,22.08,8.54,12.4,5.86,24.19,12.86,35.92,20,1.24-1.48-1.39-2.28,0-3.94,8.83,10.13,16.31,21.24,25.08,31.34-3-1.12-4.76-3.6-6.63-5.8-4.37-5.11-8.33-10.57-12.73-15.66-2.9-3.36-7.2-4.93-10.93-7.18-7.07-4.28-14.31-8.27-21.45-12.43-1.8-1-3.31-1.33-5.21,0-2.89,2-6.31,2.54-9.82,2.54-1,0-2.79-.47-1.79,1.73,4,3.41,2.54,7.94,2,12-1.26,9.09-6.93,15.54-13.89,21-3.93,3.1-8.14,5.61-13.28,6.38,4.4,1.8,8.56,3.84,13,5a23.75,23.75,0,0,1,4,1.52c1.35.6,2.7,1.51,2.11,3.19s-2.1,1.34-3.39,1.05c-1.61-.36-3.21-.81-4.8-1.27a166.58,166.58,0,0,1-15.61-5.88c-3.52-1.42-5.09-1-6.93,2.33a33.07,33.07,0,0,0-2.48,5.49c-.37,1.11-.61,2.32-1.73,3-8-2.3-14.36-7.22-20.65-12.32-.64-.52-1.3-1-2-1.49q-5.34-2.72-3.52-7.7a7.37,7.37,0,0,1,8.51-4.65c1.25.35,2.39,1,3.67,1.3.21-1.14-.66-1.65-1.32-2.3-7.88-7.83-12.29-17.47-14.64-28.15a11.6,11.6,0,0,0-1.11-3.32,1.12,1.12,0,0,1,0-1.45c-.05-2.53.43-5.09-.45-7.56-1.7-3.85-.46-7.72.38-11.4,1-4.45,3.12-8.59,5.17-12.72C210.4,184.76,212.6,184.48,213.82,182.93Z"/><path class="cls-4" d="M535.5,191.1A29.34,29.34,0,0,1,545.66,190c2.61.22,4.88,1.05,5.63,3.94.81,3.16-1.32,4.3-3.62,5.61-3.8,2.15-8.18,2-12.17,3.37-4.68,1.62-8.62,4.9-13.55,5.92-2.71,1.6-9.36,1.66-11.64.12-4.62-3.06-9.88-2.23-15-2.52-18.51-1.06-37-1.81-55.57-1.41-10.5.23-21,1-31.48,1.5-3.56.19-5.14-1.71-5.25-5.7-.26-9.55,5-16,11.64-21.87a10.34,10.34,0,0,1,7.67-2.54c15.94.21,31.75,1.82,47.58,3.58a367.28,367.28,0,0,1,38.62,6.31c2.46.54,4.41-.17,6.48-1.58a137.3,137.3,0,0,1,41.68-19.35c4.88-1.32,6.2-.48,6.76,4.22a1.27,1.27,0,0,0,1.26,1.32c2.25.36,2.86,2.21,3,3.9s-1.55,2.43-2.87,2.79c-7.51,2.07-14.37,5.7-21.46,8.77-2.56,1.11-5.13,2.2-7.7,3.3-3.18,1.59-6.46,3-8.34,3.91C529,192.67,532,191,535.5,191.1Z"/><path class="cls-4" d="M445.35,125c1.82,5.06,2.66,10.13,1.29,15.53-1.84,7.31-7.74,10.68-14.79,8a22.51,22.51,0,0,1-6.19-3.4c-1.83-1.47-3.67-2.93-6-4.77.92,2.84.6,5.25.55,7.64-.23,10.07-10.46,17.78-20.65,11.26-8.75-5.6-15.39-13.14-21.64-21.22a136.47,136.47,0,0,1-23.41-44.67c-1.71-5.71-3-11.48.3-17.14.59-1,.12-1.74-.56-2.52-5.16-5.9-9.45-12.44-13.74-19-4-6.06-9.67-10.7-13.57-16.82a30.06,30.06,0,0,1-5-16c-.11-6.6,3.25-11.12,8.41-14.18,9.37-5.56,19.48-5.37,29-1,16.2,7.5,32.85,13.92,49.06,21.37.5.22.78.8,1.52.31,7.2-4.72,15.22-4.67,23.22-3.4a151.13,151.13,0,0,1,50.47,17,28.43,28.43,0,0,1,11.73,12.06c3.83,7.62.95,16.83-6.69,21.57-2.48,1.54-3.52,2.67-2.4,5.91,3.55,10.27-6.86,23.68-16.45,23.12-1.76-.1-2.36.46-1.81,2.27a14.46,14.46,0,0,1,.54,3.83c.46,13.38-10.66,16.76-19.64,14.52C447.77,125.22,446.76,124.39,445.35,125Z"/><path class="cls-4" d="M235.32,278.53c-.32-5.8,2.42-10.1,6.79-13.54a2.21,2.21,0,0,1,3.1,0c3.92,2.84,19,8,24.5,8.29-7.86-3.31-16.13-5.7-23.85-9.83,10-.69,17.41-5.83,23.81-12.9,6.76-7.47,9-16,6.65-25.8,3.82.1,6.54,2.72,9.35,4.63A82.54,82.54,0,0,1,307.23,250c4.91,7,6.8,14.83,3.42,23s-10.25,12.2-18.86,13.47c-8.41,1.24-16.83,1.81-25.29.55C255.78,285.35,245.27,283,235.32,278.53Z"/><path class="cls-4" d="M345.6,232.29l.21-2.62c2.74.11,5.58-.69,8.21.54a18.76,18.76,0,0,0,4.12,1.51c-.24-.13-.74-.08-1.06-.29-3.57-2.22-7.72-2.29-11.62-3.28-7.18.84-10.3-4.4-12.73-11.62a16,16,0,0,1-.48-7.64c.3-2.9,1.22-5.42,4.57-5.84,4.26-.54,7.62,1.29,10.21,4.51a5.2,5.2,0,0,1,1.38,3.05c-1-2.91-2.79-6-3.94-9.36-3.53-10.44-1.92-9.71,4.9-13.19,7.38-3.76,15.25-6.41,22.95-9.43,2.15-.85,3.68-.06,4.58,2s1.53,4.22.79,6.52q3.19,9.72,6.38,19.45a.73.73,0,0,1,.09,1c.21,1.49.41,3,.61,4.47a.71.71,0,0,1,.05,1.1c-1.31,3.83-.11,8.12-2.58,11.81-4.53,6.73-11.22,10.4-18.29,13.64-1.06.48-2.15.91-3.22,1.36-4,.09-6.88-2.58-10.06-4.34C348.94,234.74,346.39,234.72,345.6,232.29Z"/><path class="cls-12" d="M377.69,187.17c-1.49-2.5-1.07-7-3.43-7.54-1.78-.43-5,1.85-7.62,2.88a178.32,178.32,0,0,0-20.92,9.33c-1.89,1-1.87,1.83-1.33,3.48,1.88,5.8,3.65,11.63,5.27,17.54-2.1-2.18-3.41-4.86-6.17-6.51-5.48-3.26-8-2.86-11.24,2.55-.63-1.64-1.28-3.27-1.88-4.92-1.08-3-1.82-5.64-6.32-5.15a6.2,6.2,0,0,1-6.64-4.92c-.67-3.65,1.28-6.75,4.06-8.87,1.58-1.22,1.65-2.24,1.32-3.85-1.65-7.94,2.94-16.86,12.21-18.49,2.78-.5,5.31.9,8.77.42-11.4-11.49-24.79-17.79-40.3-18.83a84.77,84.77,0,0,0-43.82,9.09c1.37-2.33,3.6-3.15,5.72-4.08a80.57,80.57,0,0,1,37.72-6.66,60.67,60.67,0,0,1,32.84,11.87c3,2.24,6.48,4,8.67,7.25.78,1.15,1.51,1.29,2.85.28,2.8-2.1,5.48-4.54,9.16-5.15,8.62-1.42,13.39,2,15.17,9.32.5,2,1.12,2.48,3.15,2.59,5.27.28,7.74,2.55,8.88,7.95.39,1.84,1.1,2.2,2.85,2,6.11-.55,12.24-1,18.36-1.35.83-.05,1.87-.44,2.7.77-1.66,1.15-3.52,1.18-5.33,1.28-4.13.24-8.3.88-12.38.53C384,179.52,380.82,183.13,377.69,187.17Z"/><path class="cls-4" d="M221.37,253.67c-1.23.82-2.4-.33-3.63-.11-2.65.47-5.54.45-7,3.34-1.55,3.11-.28,5.6,2,7.82l-1.85.71a1.36,1.36,0,0,1-1.77-.77c-1.11-2.91-3.61-3.85-5.55-4.38,3.37.61,5.83,3,6.28,7.22l-1.22,1.86c-1.11.47-1.68-.35-2.46-.9-1.81-1.28-3.6-2.71-5.65-2.52,1.94-.23,3.64,1.18,5.42,2.32a1.81,1.81,0,0,1,.88,2.14c-.33.92-1.12,1.08-2,1.07a54.73,54.73,0,0,0-8.36,1c5.38-.79,10.43-2.35,15.23.89,7.22,5.24,7.3,14.85.3,19.79-1.88,1.32-3.87.95-5.81,1.08a44.7,44.7,0,0,1-14.93-1.53c-3.71-1.05-6.49-3.39-6.61-7.71-.19-6.66-.71-13.48.88-19.91,1.9-7.65,4.52-15.23,10.69-21a3.74,3.74,0,0,1,3.18-1.26,30.68,30.68,0,0,1,19,8.42A37.29,37.29,0,0,0,221.37,253.67Z"/><path class="cls-13" d="M384.82,213.22l-.05-1.1c8-1.06,16.06-.77,24.08-1,23.55-.68,47.11-.72,70.65-1.4,9.6-.27,19.18-.19,28.77-.37a10.57,10.57,0,0,0,2-.42c3.89.67,7.77,1.1,11.64-.11,8.63.74,17.26,0,25.89-.09q73.83-.39,147.65.16c22.55.18,45.09.06,67.63.51,31.51.63,63,1.59,94.52,2.57,20.31.64,40.61,1.57,60.91,2.39,5.09.21,10.18.51,15.27.77,0,1.34-1,1-1.74,1-2.64-.09-5.29.36-7.9-.28-9.22-.29-18.45-.54-27.68-.89-14.07-.53-28.14-1.27-42.22-1.66-41.1-1.16-82.2-2.56-123.32-2.82q-58.34-.37-116.67-.49c-22.26-.05-44.53-.07-66.79.18-34.23.37-68.45.94-102.67,1.52-18,.31-36,.83-54,1.26C388.83,213,386.83,213.13,384.82,213.22Z"/><path class="cls-4" d="M213.82,182.93c.48.39.94.85.35,1.44-7,6.92-9.37,15.55-9.29,25.06a1.27,1.27,0,0,1-1,1.46c-8.08-1.88-16.39-2.81-24.24-5.66a4.17,4.17,0,0,1-2.26-4.39,30.21,30.21,0,0,1,3.77-13.1c1-1.75,2.78-2.46,4.4-3.38,8.78-1.69,17.57-3.06,26.54-1.51A13,13,0,0,0,213.82,182.93Z"/><path class="cls-4" d="M154.14,196.64c-7.1,1.63-14.25,3.15-21.55,3.38-2.11.07-4.53.27-5.4-3.12-.56-2.17-4-2.42-5.22-5-2.2-4.59-2.19-8.75,1.5-12.16s7.66-6.38,13.22-5.09a2.2,2.2,0,0,0,1.37,0c4.82-2.46,7.48,1.05,10.17,3.86a115.39,115.39,0,0,0,8.71,8.14c.13.32.35.75.19,1C155.38,190.41,155,193.58,154.14,196.64Z"/><path class="cls-14" d="M154.14,196.64c-2.91-4.4.32-7.08,2.8-10q11.64-1,23.28-2c1.76-.15,3.53-.24,5.3-.35a27.84,27.84,0,0,0-6.6,17.12,5.78,5.78,0,0,0,.69,3.75C170.63,203.83,162,201.43,154.14,196.64Z"/><path class="cls-15" d="M.9,233v-1.49c11.9-.79,23.81-1.53,35.71-2.38,11.55-.83,23.08-1.86,34.62-2.65,14-1,28-2.42,42.12-2.81,1.66.86,3.64-.43,5.25.79-10.59.75-21.19,1.46-31.78,2.25-14,1-28,2.22-42.07,3.25C30.15,231.06,15.52,232,.9,233Z"/><path class="cls-16" d="M118.61,224.49c-1.73-.38-3.63.28-5.25-.79,12.84-.91,25.68-2,38.53-2.69,17.47-1,34.94-1.72,52.41-2.56v1.45c-17.12.84-34.25,1.63-51.37,2.54C141.49,223,130.05,223.8,118.61,224.49Z"/><path class="cls-17" d="M211.64,273.41c-4.07-.27-8-1.41-12.25-.63-2.4.45-4.43,2-7,2.16,1.87-2.76,1.87-2.76,13.95-4.5-2-3.34-4.75-4.37-8.92-3.3-.7.17-1.6,1.2-2,0-.33-1,.8-1.25,1.53-1.55,3.47-1.41,6.44-.08,9.26,1.8a29.17,29.17,0,0,1,2.46,2A13.11,13.11,0,0,0,211.64,273.41Z"/><path class="cls-18" d="M345.6,232.29,360.73,240c2,1.74,5,1.93,6.66,4.15l-.47.85-26.48-13.76C342.73,230.08,344,231.79,345.6,232.29Z"/><path class="cls-19" d="M345.46,228.15c3-1.26,5.64-1.67,8.53,1.06,2.46,2.32,6.23,2.35,9.63,2.79-3.15,1.68-6.2.61-9-.71-1.55-.72-2.52-1.18-3.93.18-2.68,2.58-3.06-1.64-4.87-1.79C345.69,229.17,345.57,228.66,345.46,228.15Z"/><path class="cls-20" d="M535.5,191.1l-14.2,5.76-.52-1.21c4.94-2,9.2-5.55,14.88-6C535.52,190.13,534,190.45,535.5,191.1Z"/><path class="cls-21" d="M209.82,267.5c-2.07-4.8-5.29-7.63-10.93-6.39-.53.11-1.32.07-1.39-.68-.1-1,.81-.93,1.46-1.06a9.65,9.65,0,0,1,10.58,4.44,16.69,16.69,0,0,0,1.32,1.62Z"/><path class="cls-22" d="M384.16,207.65l-.09-1c4.55.22,9.1-1.41,13.67,0C393.23,207.38,388.78,208.56,384.16,207.65Z"/><path class="cls-13" d="M962.29,216.63c-1.41.89-3,.43-4.54.75-3,0-6,.37-9-.34-2.7-.54-5.49.28-8.18-.49a8.06,8.06,0,0,1-4.59,0c1.78-2.27,4-.76,6.09-.75a19.67,19.67,0,0,1,7.49.19c2.94.59,6-.26,8.9.5A6.46,6.46,0,0,1,962.29,216.63Z"/><path class="cls-9" d="M942.06,215.77c-2,.28-4.19-.51-6.09.75-3.93-.29-7.9.36-11.79-.66,3.2-.41,6.51.63,9.64-.73Z"/><path class="cls-9" d="M958.45,216.46c-3-.15-6,.64-8.9-.5C952.52,216.15,955.53,215.51,958.45,216.46Z"/><path class="cls-9" d="M940.56,216.55c2.73.17,5.51-.58,8.18.49C946,217.11,943.25,217.38,940.56,216.55Z"/><path class="cls-3" d="M941.81,353.93c-9.81,5.44-18.8,12.15-28.21,18.2q-13.11,8.4-26.1,17a3.63,3.63,0,0,1-2.63.75l-34.65-5.48c12.64-8.23,24.78-16.12,36.9-24q16-10.43,31.86-20.92a11.79,11.79,0,0,1,5.38-1.58c9.6-1.1,19.21-2.14,28.82-3.2A154.5,154.5,0,0,1,941.81,353.93Z"/><path class="cls-3" d="M883.3,428.5c-1.63.12-2.86,1.18-4,2.05-4,3-8.06,4.34-13.36,3.06-10.62-2.57-21.43-4.36-32.85-6.61,5.59-3.73,10.69-7.17,15.82-10.56,11.72-7.74,23.47-15.44,35.18-23.2a7.86,7.86,0,0,1,6.31-1.23c7,1.35,14,2.36,21,3.51-3.22,5.8-7.76,10.59-12.08,15.51C894.05,417,888.63,422.69,883.3,428.5Z"/><path class="cls-3" d="M701.31,551.93c-2.15-1.84-4.27-3.71-6.46-5.51-1.48-1.22-.77-1.85.46-2.6q25.59-15.5,51.16-31c12.93-7.82,25.89-15.58,38.82-23.4.91-.55,1.54-1.06,2.83-.63,4.8,1.58,9.69,2.91,14.54,4.33-13.12,8.87-26.27,17.73-40.09,25.41C742.24,529.79,722.36,541.93,701.31,551.93Z"/><path class="cls-3" d="M916,303l17,4.6c-6.7,4.48-12.85,8.66-19.07,12.75-8.73,5.74-17.72,11.12-26.19,17.23-4.79,3.46-10,4.6-15.46,4.88s-10.92,1.79-16.49,1.5c4.74-4.61,10.36-8.09,15.64-12,12.38-9.13,24.78-18.26,38.66-25.12A56.21,56.21,0,0,0,916,303Z"/><path class="cls-3" d="M803.7,492.62c-2.49-2.54-6.06-2.32-9.07-3.51-1.72-.67-3.67-.68-5.69-2l9.16-5.62q19.46-11.89,38.92-23.77c11.17-6.79,22.38-13.5,33.58-20.24,1.34-.81,2.73-1.44,4.36-.86-3.78,5.22-8.77,9.24-13.62,13.36-12,10.24-24.42,20.07-37.31,29.21C817.4,483.89,810.48,488.16,803.7,492.62Z"/><path class="cls-3" d="M755.73,412.93c3.91,1.63,8.24,1.59,12.79,3-10,6.59-19.63,12.9-29.24,19.2-12.77,8.37-25.57,16.7-38.3,25.13a3.49,3.49,0,0,1-3.45.56c-3.92-1.18-7.95-2-11.7-3.69,11.39-6.47,22.42-13.5,33.36-20.7,10.23-6.73,20.65-13.17,30.92-19.84C752,415.34,754.2,414.67,755.73,412.93Z"/><path class="cls-3" d="M631.58,491.23c1.92,3.81,6.18,5.36,8.69,9q-10.9,7.17-21.79,14.34c-8.88,5.85-17.78,11.7-26.62,17.61-1.61,1.07-2.5,1.51-3.72-.69a100.43,100.43,0,0,0-6.21-9q21.78-13.64,43.57-27.26C627.57,494,628.87,491.54,631.58,491.23Z"/><path class="cls-3" d="M683.78,458.16l13.92,4.26c-3.59,2.41-6.67,4.51-9.78,6.56q-19.56,12.91-39.13,25.8a20.46,20.46,0,0,1-1.82,1.05c-5.78,3.13-5.78,3.13-10.71-1.55-1.28-1.21-2.57-2.4-3.85-3.6C649.84,480.33,667.35,470.1,683.78,458.16Z"/><path class="cls-3" d="M851.61,346l27.06-2.79c-3.37,2.35-6,4.23-8.64,6q-22.26,14.67-44.55,29.31a7,7,0,0,1-6,1.21c-3.4-.81-6.9-1.23-10.36-1.82,12-8.44,23.92-16.9,35.39-26C847,350,849.26,348,851.61,346Z"/><path class="cls-23" d="M808.21,378.82c2.86,2,6.35,1.13,9.45,2.06a25.38,25.38,0,0,0,3.17.47l-15.65,10.38c-10.52,7-21.07,13.88-31.53,20.94a7.85,7.85,0,0,1-7.25,1.23c-2.57-.76-5.33-.83-7.88-1.78,5.1-3.41,10.2-6.8,15.29-10.23q16.44-11.07,32.88-22.18C807.18,379.39,807.7,379.11,808.21,378.82Z"/><path class="cls-3" d="M912.5,394.8c-3-2.2-6.71-1.6-10.08-2.33-4.27-.91-8.64-1.38-13.82-2.17,10.76-7.07,20.68-13.61,30.63-20.11,7-4.56,14-9.06,21-13.59A345.43,345.43,0,0,1,916,389.92C914.73,391.47,913.66,393.17,912.5,394.8Z"/><path class="cls-3" d="M965.46,307.53c-5.8,5.25-12.15,5.4-19.07,2.38-2.85-1.24-6-1.76-9.76-2.8,5.41-3.6,10.31-6.73,15.06-10.08,3.81-2.69,8.21-4.54,11.45-8,2.38,1.73,2.32,4.53,2.53,6.92A48,48,0,0,1,965.46,307.53Z"/><path class="cls-3" d="M962.57,288.35c-8.47,5.52-17,11-25.37,16.6a5.5,5.5,0,0,1-5.24.92c-4.45-1.43-9-2.68-13.46-4,10.81-6.1,21.64-12.1,33.89-15A12.38,12.38,0,0,1,962.57,288.35Z"/><path class="cls-7" d="M953.93,333.84c-2.78-1.55-5.51.05-8.22.26-6.9.56-13.77,1.45-20.93,1.66,3.33-2.23,6.64-4.49,10-6.67,6.13-4,12.57-7.56,18.34-12,3.52-2.7,6.46-2.73,10-.9Z"/><path class="cls-24" d="M583.51,403.17c-2.81-3.4-2.7-8.8-.22-13,2.63-4.44,4.88-6.08,8-5.57C583.93,388.63,581.84,394.89,583.51,403.17Z"/><path class="cls-25" d="M963.57,314.67l-4.6-1.49,5.65-3.39Z"/><path class="cls-26" d="M876.14,436.05c-.56-.46-1.65-.89-.51-1.68a24.37,24.37,0,0,1,3.38-1.72C878.47,434.14,877.14,435,876.14,436.05Z"/><path class="cls-27" d="M796.27,559.49c-1.75.13-3.07-.36-3.6-1.62-.73-1.74.58-3,1.83-3.81,4.69-3.19,9.36-6.44,14.22-9.35,9.15-5.47,17.44-12.11,25.92-18.5a66.06,66.06,0,0,1,6.31-4,3.27,3.27,0,0,1,4,0c1.46,1.23.55,2.65-.14,3.85-2.59,4.53-6.71,7.65-10.64,10.82-10,8.09-21.63,13.84-32.5,20.69A14.2,14.2,0,0,1,796.27,559.49Z"/><path class="cls-27" d="M922.28,455c-.43,2.78-2.4,5.26-4.32,7.59A234.17,234.17,0,0,1,896.83,485c-6,5.56-12.1,10.93-19.12,15.16-1.06.64-2.33,1.84-3.51.67s-.25-2.65.34-3.92c2-4.25,6-6.73,9.29-9.61,11.83-10.26,22-22.09,32.89-33.28a5.8,5.8,0,0,1,2.94-1.79C921.78,451.74,922.53,452.44,922.28,455Z"/><path class="cls-27" d="M973.47,388.24a17.37,17.37,0,0,1-1.84,5.84,143.92,143.92,0,0,1-22.56,31.21c-2.33,2.49-4.79,4.85-7.23,7.22-1.27,1.23-2.63,2.76-4.55,1.22-2.1-1.69-.78-3.46.34-4.93,4.44-5.78,9-11.45,13.46-17.24a121.83,121.83,0,0,0,13.58-21.06c1-2,2.74-3.18,4.27-4.61a2.58,2.58,0,0,1,3-.47C973.25,386,973.16,387.31,973.47,388.24Z"/><path class="cls-3" d="M870.33,435.81c-7.44,4.59-14.4,9-21.42,13.22q-20.58,12.48-41.21,24.87c-6.36,3.84-12.73,7.66-19.06,11.54-1.16.71-2.27,1.3-3.64.9l-29.1-8.49c6-4,11.4-7.76,16.87-11.38q23.44-15.51,46.94-31c3.14-2.06,6.33-4,9.43-6.16a5.8,5.8,0,0,1,4.93-.78C846,431.07,857.87,433.35,870.33,435.81Z"/><path class="cls-3" d="M784.74,487.76,762,501.58q-19.49,11.87-39,23.75-14.65,8.91-29.34,17.79c-.86.52-1.47.92-2.45,0-4.8-4.36-9.68-8.63-14.82-13.18,10.64-7,20.94-13.62,31.18-20.37,9.75-6.43,19.43-13,29.16-19.41q7.82-5.18,15.7-10.23c.88-.57,1.84-1.22,3-.89C765,481.9,774.58,484.74,784.74,487.76Z"/><path class="cls-3" d="M722.4,468.08c5.9-3.93,11.14-7.46,16.43-10.93Q761.92,442,785,426.94c2.36-1.54,4.8-3,7.06-4.67,1.78-1.33,3.47-1.23,5.54-.8,9.67,2,19.39,3.79,29.09,5.65.58.11,1.19.11,1.59,1-6.87,4.58-13.77,9.2-20.69,13.78q-23.13,15.25-46.28,30.49c-1.87,1.23-3.73,2.49-5.6,3.73a4.34,4.34,0,0,1-4,.56C742.29,473.82,732.78,471.1,722.4,468.08Z"/><path class="cls-3" d="M655.67,511.57c9.45-6.17,18.69-12.2,27.92-18.25q17.6-11.54,35.18-23.1c.86-.57,1.63-1.2,2.9-.83,9.91,2.9,19.85,5.72,30.57,8.8-5.39,3.6-10.11,6.78-14.87,9.92q-25.95,17.14-51.92,34.25c-2.75,1.82-5.48,3.68-8.25,5.47-1.05.68-1.93,1.27-3.32,0C668,522.37,661.93,517.12,655.67,511.57Z"/><path class="cls-3" d="M796.38,419.55l31.34-20.34c5.94-3.86,11.93-7.64,17.75-11.67A7.13,7.13,0,0,1,851,386c10.87,1.72,21.76,3.34,33.36,5.1-6.16,4.22-11.67,8.12-17.3,11.83-8.48,5.58-17.07,11-25.57,16.54-2.67,1.74-5.21,3.66-7.84,5.45a6.34,6.34,0,0,1-5,1.31q-15.54-3.14-31.09-6.23A10.84,10.84,0,0,1,796.38,419.55Z"/><path class="cls-3" d="M701.36,462c6.46-4.33,12.21-8.23,18-12.06,16.16-10.65,32.38-21.2,48.46-31.95a8.19,8.19,0,0,1,6.65-1.19c5.54,1.09,11.06,2.29,16.79,3.5-.56,1.85-2.29,2.26-3.58,3.1q-21,13.72-42,27.43c-6.8,4.45-13.61,8.91-20.34,13.48-3,2-5.85,3.44-9.71,2C711.29,464.6,706.71,463.55,701.36,462Z"/><path class="cls-3" d="M825,380.53l14.68-9.68q20.25-13.35,40.52-26.7c3.22-2.13,6.92-2,10.54-2.42,8.41-.91,16.82-1.91,25.47-2.37-5.43,3.65-10.81,7.37-16.28,10.95-10,6.51-20,12.91-30,19.41-6.62,4.31-13.31,8.55-19.73,13.14-2.25,1.62-4.33.93-6.38.67C837.86,382.78,832,381.67,825,380.53Z"/><path class="cls-3" d="M718.75,468.46c-8,5.31-15.4,10.29-22.88,15.19q-15.2,10-30.45,19.82c-3.07,2-6.3,3.75-9.18,6-1.44,1.11-2.27.81-3.3-.12-2.55-2.3-4.94-4.78-7.62-6.88-2.36-1.85-1.65-2.82.42-4.16,7.9-5.09,15.72-10.3,23.59-15.45l28.36-18.55c1-.64,1.84-1.37,3.22-1C706.65,465,712.42,466.64,718.75,468.46Z"/><path class="cls-3" d="M846,385.34c-6.73,4.44-13,8.59-19.23,12.69-10.42,6.81-20.87,13.57-31.27,20.42a3.37,3.37,0,0,1-2.9.62c-6.48-1.4-13-2.65-19.95-4.05,16.52-10.91,32.6-21.52,48.66-32.16a5,5,0,0,1,3.68-.95C831.75,383,838.56,384.13,846,385.34Z"/><path class="cls-3" d="M599.29,546.65c-.92.17-1.19-.39-1.51-.87-2.1-3.14-4.09-6.36-6.35-9.37-1.06-1.42-.56-1.89.6-2.65q21.75-14.16,43.46-28.37c2.11-1.38,4-4.2,6.4-3.71,2.11.44,3.78,3,5.65,4.64,5.73,5,5.69,4.91-.59,9q-23,15.07-46,30.25Z"/><path class="cls-3" d="M955.56,313.77l-20.65,13.4c-2.77,1.81-5.64,3.49-8.26,5.5a24.48,24.48,0,0,1-13.58,5.12c-8.9.64-17.76,1.92-27.69,3,10.88-7.2,20.86-13.83,30.86-20.42,5.61-3.69,11.27-7.29,16.85-11a4.43,4.43,0,0,1,4.23-.61C943,310.52,948.85,312,955.56,313.77Z"/><path class="cls-28" d="M536.44,403.21c-8.16-2-22.12-26.85-20.13-36,1.3,6.9,4.26,13.17,7.18,19.41A48.4,48.4,0,0,0,536.44,403.21Z"/><path class="cls-29" d="M520.53,400c-3.58.17-5-2.37-6.41-4.22-6.07-7.95-10.12-17-13.23-26.42-.05-.16.16-.41.63-1.56C506.69,379.54,510.35,391.5,520.53,400Z"/><path class="cls-30" d="M497.87,387.58c-5.33-5.17-5.92-12.21-7.3-18.94C493.65,374.7,494.65,381.58,497.87,387.58Z"/><path class="cls-31" d="M256.52,259.74c-11.15-6.1-21.54-13.2-30.32-22.41-6-6.32-4-18.41,2.17-22a23.39,23.39,0,0,1,2.18-1.1c.44-.19,1-.18,1.17.36s-.16.8-.58,1.11c-9,6.74-9.74,15.27-1.6,23A122.46,122.46,0,0,0,254.25,257C255.74,257.84,255.75,257.83,256.52,259.74Z"/><path class="cls-32" d="M219,262.7a107.38,107.38,0,0,1,14.72,8l-.55,1-14.68-8.09Z"/><path class="cls-33" d="M222.21,257.69c4.79,1.38,9.57,2.8,13.73,5.69l-.36.83-13.75-5.6Z"/><path class="cls-24" d="M273.87,221.93a40.29,40.29,0,0,1-12.34-8.13C266.21,215.64,270.1,218.69,273.87,221.93Z"/><path class="cls-34" d="M227.22,255.48l14.29,7.17-.43.84C236,261.72,231.22,259.38,227.22,255.48Z"/><path class="cls-28" d="M519.29,188c11.9-10.39,26.72-14,41.73-17.06-1.76,2.07,2,6.91-3.66,7.57-.35-.62.18-.84.48-1.14.84-.84,1.9-1.72,1.13-3-.63-1.05-1.86-.81-2.91-.6-8.91,1.8-17.72,3.93-25.66,8.6-3.59,2.1-7.1,4.34-10.64,6.52Z"/><path class="cls-35" d="M505.91,205.17a3.53,3.53,0,0,1-3.39-2.48c-.19-.42.42-1,.82-.83C504.71,202.46,505.34,203.67,505.91,205.17Z"/><path class="cls-3" d="M418.77,146.94a12.53,12.53,0,0,1-4,10.33c-3.82,3.74-8.81,4-14.29.94-6.09-3.45-10.59-8.61-15.2-13.68a135.9,135.9,0,0,1-28.63-48.95,42,42,0,0,1-2.3-10.37c-.61-9,4.15-13,13-10.87a33.45,33.45,0,0,1,16.36,9.49c10.22,10.55,17.78,22.93,24.62,35.83a198.3,198.3,0,0,1,9.25,19.49A14.41,14.41,0,0,1,418.77,146.94Z"/><path class="cls-3" d="M445.92,135.4c-.13.9-.34,2.78-.72,4.63-1.47,7.1-7.48,10-14,6.78a34.82,34.82,0,0,1-16.47-17.23c-7.91-16.81-16.9-33.1-30-46.66a39.06,39.06,0,0,0-9.7-7.11c-3.92-2.1-4.81-4.41-3.7-8.8s4-7.09,7.79-7.13c7.84-.08,14.44,3.41,20.39,8,18.15,14,31.39,32,42,52.14C444.68,126,446,131.08,445.92,135.4Z"/><path class="cls-3" d="M396.25,50.37a44.69,44.69,0,0,1,16.14,4c14.37,6.42,27.72,14.5,38.57,26.05,7.1,7.57,12.71,16.26,15.49,26.39,1.38,5,1.46,10.43-2.7,14.3-4.45,4.12-10.07,4.2-15.76,2.8a7.6,7.6,0,0,1-5.36-4.44c-10.58-20.7-24.34-38.9-42.94-53.14a36,36,0,0,0-13.82-7c-2.19-.5-2.07-1.35-1.33-2.94C386.76,51.58,390.82,50.35,396.25,50.37Z"/><path class="cls-3" d="M485.47,84.71c-.41,10.64-7.73,18.49-15.87,18.69-1.8,0-2.84-.41-3.55-2.12-8.26-20-23.95-32.76-42.28-42.9-6.55-3.62-13.22-7-20.6-8.52-2.6-.54-2.24-1.93-1.69-3.54,1.56-4.56,6.79-7.36,13-7.12,17.42.67,32.89,7,47.44,16.11,7.6,4.77,14.75,10,19.13,18.1C483.22,77.45,485.36,81.54,485.47,84.71Z"/><path class="cls-3" d="M495.34,60.7c.35,6.5-4,13.13-9.57,15.35-1.2.48-1.69.3-2.17-.77-4.22-9.37-11.88-15.39-20.26-20.74C451.47,47,438.84,41.3,424.89,38.82c-5.38-1-10.78-1.76-16.2-.42-2,.49-2.2-.31-2.16-1.95.12-4.25,2.85-7.16,8-8.69,7.43-2.23,14.86-2,22.38-.53A158.7,158.7,0,0,1,481,42.32a32.4,32.4,0,0,1,11,9.33C494.15,54.5,495.51,57.52,495.34,60.7Z"/><path class="cls-3" d="M337.42,48.12c.15-.94,1-1,1.54-1.41,2.71-2.09,5.76-3.75,7.94-6.47.67-.83,1.16-1.25,2.23-.29Q360.4,50,371.8,59.9c1.24,1.08.56,1.77,0,2.68a12.93,12.93,0,0,0-2.21,8.76c.25,1.65-.33,1.77-1.64,1.59-3.62-.49-7.26-1.36-10.71.83-.86.54-1.65-.33-2.1-.94Q346.44,61,337.84,49A4.68,4.68,0,0,1,337.42,48.12Z"/><path class="cls-3" d="M408,29.68c-2.56,2.19-2.79,5-2.92,7.83-.17,3.78-2.5,5.22-5.67,3.43-11.54-6.49-22.81-13.44-34.57-19.52-1.55-.8-1.51-1.56-.77-3.05,3-6,2.89-6,9.2-3.68C385,19.05,396.14,24.86,408,29.68Z"/><path class="cls-3" d="M396.26,49c-2.72-.21-5.06-.11-7,1.05s-3.37.82-5.22-.6c-8-6.19-16.24-12.18-24.44-18.15-1.85-1.35-2.65-2.43-.55-4.25,1.58-1.37,1.84-4.59,3.71-4.79s3.7,1.74,5.59,2.69c10.69,5.32,20.62,12,31.14,17.6,1,.56,2.11,1.2,1,2.33s.64,4.27-2.59,4.12C397.23,49,396.52,49,396.26,49Z"/><path class="cls-3" d="M356.54,30.62c.63.45,1.2.84,1.76,1.25,8.17,6.07,16.36,12.11,24.47,18.25,1,.72,3.19,1.62,1.85,3.08-1.57,1.71-.64,5.68-4.6,5.25a4.07,4.07,0,0,0-2.43.17c-3.33,2.36-5.37,0-7.52-1.9-6.22-5.48-12.33-11.08-18.64-16.45-2.14-1.82-2-3,.06-4.56a33.35,33.35,0,0,0,3.13-3.36C355.19,31.76,355.83,31.25,356.54,30.62Z"/><path class="cls-17" d="M335.81,11.29c3-4.27,14.44-4.57,19.44-.47A28,28,0,0,0,335.81,11.29Z"/><path class="cls-36" d="M129.79,198c1.75-3.87,3.12-7.41,4.9-10.72,2-3.82,5.23-7,6.63-11.16.19-.56.43-.86.92-.61a1.31,1.31,0,0,1,.66,2c-1.06,1.68-2.14,3.37-3.3,5a51.49,51.49,0,0,0-7.11,12.92A3,3,0,0,1,129.79,198Z"/><path class="cls-37" d="M128,195.5c-1.72-5.32,5-17.62,10.34-19.37C132.86,181.52,130.05,188,128,195.5Z"/><path class="cls-38" d="M173.73,197.24c-4.2,0-8.08-1.92-12.21-2.33a.77.77,0,0,1-.6-1.07c.31-.63.86-.68,1.49-.52l11.45,2.9Z"/><path class="cls-39" d="M162.75,190.5c3.9-.46,7.79-.72,11.48,1.07C170.33,192,166.46,192.1,162.75,190.5Z"/></svg>