<svg id="Layer_1" data-name="Layer 1" xmlns="http://www.w3.org/2000/svg" viewBox="0 0 610.41 610.13"><defs><style>.cls-1{fill:#332f34;}.cls-2{fill:#fefefc;}.cls-3{fill:#3f3b40;}.cls-4{fill:#cccbcc;}.cls-5{fill:#bbbabb;}.cls-6{fill:#f8e7cc;}.cls-7{fill:#e6cec8;}.cls-8{fill:#999799;}.cls-9{fill:#ccc8c6;}.cls-10{fill:#cdc9c6;}.cls-11{fill:#f0f0f0;}.cls-12{fill:#f0d0c6;}.cls-13{fill:#cec9c3;}.cls-14{fill:#c8c7c8;}.cls-15{fill:#672417;}.cls-16{fill:#953925;}.cls-17{fill:#561514;}.cls-18{fill:#7f2021;}.cls-19{fill:#e2a135;}.cls-20{fill:#b96829;}.cls-21{fill:#a6402b;}.cls-22{fill:#34261f;}.cls-23{fill:#e2a134;}.cls-24{fill:#e1a133;}.cls-25{fill:#312724;}.cls-26{fill:#312726;}.cls-27{fill:#c24527;}.cls-28{fill:#4c341e;}.cls-29{fill:#382821;}.cls-30{fill:#382620;}.cls-31{fill:#3e2a18;}.cls-32{fill:#402916;}.cls-33{fill:#d6a45c;}.cls-34{fill:#c54527;}.cls-35{fill:#25241a;}.cls-36{fill:#6d441d;}.cls-37{fill:#902425;}.cls-38{fill:#a6412a;}.cls-39{fill:#a6412c;}.cls-40{fill:#7e2021;}.cls-41{fill:#312725;}.cls-42{fill:#33271b;}.cls-43{fill:#fbc819;}.cls-44{fill:#322724;}.cls-45{fill:#f4b11a;}.cls-46{fill:#312824;}.cls-47{fill:#e1a038;}.cls-48{fill:#c79d62;}.cls-49{fill:#d1a85f;}.cls-50{fill:#2c282b;}.cls-51{fill:#bb6173;}.cls-52{fill:#a24d5e;}.cls-53{fill:#c74628;}.cls-54{fill:#623e1a;}.cls-55{fill:#633c1a;}.cls-56{fill:#b96756;}.cls-57{fill:#c8a369;}.cls-58{fill:#d93227;}.cls-59{fill:#df954d;}.cls-60{fill:#da3327;}.cls-61{fill:#de9a4a;}.cls-62{fill:#e2a136;}.cls-63{fill:#e69943;}.cls-64{fill:#e69344;}.cls-65{fill:#de9542;}.cls-66{fill:#e2a236;}.cls-67{fill:#3c2a16;}.cls-68{fill:#e09847;}.cls-69{fill:#3c3121;}.cls-70{fill:#dc3227;}.cls-71{fill:#121213;}.cls-72{fill:#dea23a;}.cls-73{fill:#dfa13b;}.cls-74{fill:#d87d97;}.cls-75{fill:#bb6073;}.cls-76{fill:#d77a92;}.cls-77{fill:#3e2816;}.cls-78{fill:#db3127;}.cls-79{fill:#db3228;}.cls-80{fill:#3f3f41;}.cls-81{fill:#d4d8da;}.cls-82{fill:#333332;}.cls-83{fill:#bfbfc1;}.cls-84{fill:#322f2c;}.cls-85{fill:#30271f;}.cls-86{fill:#423220;}.cls-87{fill:#37291d;}.cls-88{fill:#3d321d;}.cls-89{fill:#ccc8b0;}.cls-90{fill:#d5b183;}.cls-91{fill:#d93228;}.cls-92{fill:#d2d6d6;}.cls-93{fill:#bec0c2;}.cls-94{fill:#343434;}.cls-95{fill:#e1a137;}.cls-96{fill:#daa240;}.cls-97{fill:#dea23c;}.cls-98{fill:#bebfc2;}.cls-99{fill:#c0bab5;}.cls-100{fill:#92703b;}.cls-101{fill:#dda23b;}.cls-102{fill:#dfa13c;}.cls-103{fill:#c69a55;}.cls-104{fill:#c29754;}.cls-105{fill:#cda85c;}.cls-106{fill:#cfa567;}.cls-107{fill:#d1ad6d;}</style></defs><path class="cls-1" d="M608.82,610q-301.73-.49-603.6-.24c-1.56-.09-4,.56-4-1.71-.08-1-.05-2.08-.05-3.12.15-95.84-.27-191.81.11-287.6,2.72-5.34,16.75,10.06,20,10.93,22.52,8,41.23,24.34,62.91,34.46,7.49,3.74,14.53,8.38,21.77,12.62,4.48,2.95,9.92,4.16,13.79,8.07a32.39,32.39,0,0,0,8.17,5.4c4.45,2.19,8.92,4.33,12.73,7.59,2.43,1.86,6,1.12,8.41,3.24,15,11.32,32.49,19,47.76,29.55a70,70,0,0,1,18,9.75c21.54,13,44.09,24.51,65.66,37.54a220.63,220.63,0,0,0,20.77,12.36c4.51,2.86,9.94,2,14.05-1.2,24.91-13.05,49-27.56,73.08-42.11,66.94-39.17,134.77-78,201.93-117.39,5.72-2.21,14.7-12.1,19.55-9.36C608.92,415.53,612.25,514.26,608.82,610Z"/><path class="cls-2" d="M2,316.72c-1,97.65.4,195.67-.52,293.3H0V0H610.26V1.38C448,4.1,283.9,1.86,121.16,2.09,83.71,3.9,46,1.79,8.38,2.33,6,2.34,2.29,1.78,2.44,5.18c-.07,4.71-.25,9.42.07,14.13,1.33,44.08-.67,88.15.18,132.21q.44,63.84,0,127.81c.37,11.5.09,23,.16,34.49A3.84,3.84,0,0,1,2,316.72Z"/><path class="cls-3" d="M1.44,610c.69-94.87-.46-190,.41-284.85.3,93.57,0,187.15.11,280.73,0,4-.39,3.64,3.57,3.64,170.14.46,340.81-.89,510.7.48Z"/><path class="cls-4" d="M609.86,487.61c.25-56-.92-113.95.4-168.95C609.86,374.58,611,432.78,609.86,487.61Z"/><path class="cls-5" d="M609.86,487.61a1.77,1.77,0,0,1,.4,0c-.43,29.49.81,61.42-.42,89.74C609.75,547.45,609.69,517.52,609.86,487.61Z"/><path class="cls-6" d="M610.26,165.54v84c-1.68-.2-1.36-2.64-1.43-3.87q0-38.13,0-76.26C608.9,168.15,608.59,165.77,610.26,165.54Z"/><path class="cls-7" d="M609.89,249.55a1.14,1.14,0,0,1,.37,0v69.12a3.37,3.37,0,0,0-.55,0,4.08,4.08,0,0,1-.87-2.91c0-11.49-.19-23,.12-34.46q-.33-9.78,0-19.54C609.26,257.88,607.76,252.91,609.89,249.55Z"/><path class="cls-6" d="M610.26,112.74v49.44c-1.68-.18-1.36-2.64-1.42-3.86q0-20.85,0-41.71C608.93,115.37,608.62,112.93,610.26,112.74Z"/><path class="cls-6" d="M609.67,1.46l.59-.08V48.9c-1.78.12-1.34-3-1.43-4.16q0-19.59,0-39.17C608.84,4.16,608.6,2.67,609.67,1.46Z"/><path class="cls-8" d="M609.84,577.36l.42,0c-.42,9.57.8,21.22-.41,29.79Q609.85,592.26,609.84,577.36Z"/><path class="cls-6" d="M610.26,53.22V80.1c-3-1.11-.75-20.51-1.35-24.73C608.94,54.56,609.2,53.14,610.26,53.22Z"/><path class="cls-6" d="M610.26,83.46v25c-3-.77-.75-17.82-1.41-21.6C608.91,85.73,608.74,83.54,610.26,83.46Z"/><path class="cls-9" d="M609.9,108.31a.66.66,0,0,1,.36.11v4.32C608.58,113,608.66,108.9,609.9,108.31Z"/><path class="cls-10" d="M610.26,53.22a1,1,0,0,1-.37.1c-1.26-1-1.43-4,.37-4.42Z"/><path class="cls-11" d="M608.82,610c.21-.7,1.09-1,1-1.9C610.41,607.19,610.91,610.8,608.82,610Z"/><path class="cls-12" d="M609.89,162.18a1.15,1.15,0,0,1,.37,0v3.36C608.78,165.62,608.76,162.69,609.89,162.18Z"/><path class="cls-13" d="M610.26,83.46c-1.55.49-1.6-3.69,0-3.36Z"/><path class="cls-14" d="M610.26,608.1l-.41,0v-1l.41,0Z"/><path class="cls-15" d="M2,316.72c-.25-12.46-.15-25,0-37.44C70.69,315.46,137.63,359.16,206.71,396c5,1.17.16,5.36.92,8.61.2,6.86-.36,13.73.44,20.59.7,3-2,7.82-5.33,5.95a350.91,350.91,0,0,1-40.27-21.7c-6.72-3.19-12-10.14-19.51-11.1-4.75-2.06-9.12-6.56-14.54-8.5A36.67,36.67,0,0,1,118,382.76c-4.39-3.56-10.24-4.84-14.81-8.23C86.69,364.31,69,356.26,52.84,345.45c-6.18-4.12-13.17-6.85-19.26-11.14-3.81-2.36-7.68-4.55-12.24-5.18-3.4-.49-4.54-4.36-7.48-5.71C9.83,321.28,6.82,316.86,2,316.72Z"/><path class="cls-16" d="M609.7,281.24q.12,18.72,0,37.44A12,12,0,0,0,603,321c-10,7.1-21,12.66-31.46,19.18-35.91,21-72,41.65-108,62.47-14.37,8.15-28.29,17.1-42.93,24.75-4.07,1.75-6.67,6.17-11.4,6-2.38.09-3.39-.75-3.69-3.28-.61-10.34.46-20.73-.05-31.08.07-1,.88-1.45,1.64-1.88,14.64-8.56,29.69-16.38,44.15-25.16C504.17,342.38,555.68,308,609.7,281.24Z"/><path class="cls-17" d="M192.82,426.68c3.83-.62,6.64,1.36,9.54,3.52,3.84,2.13,5.61-2.46,4.86-5.6-1-7.28-.2-14.64-.45-22-.19-3.23,2.69-5.21,5.26-2.88,31.33,18.05,62.93,36.1,93.9,54.44,6.81,5.59.21,28.83,4,36.86-9.33,2.44-28.21-14.26-37.41-18.64-23.21-12.77-46.34-25.82-68.87-39.59C200.36,430.69,194.29,430.62,192.82,426.68Z"/><path class="cls-18" d="M310,491.05c-1.9-.34-1.93-.34-1.94-2.19-1-9.2,2.5-27.58-2.39-34.36,33.39-13.75,63.4-37,96-53.4,5.61-2.87,4.43-1.74,4.53,2.84,0,8.33.36,16.66.23,25,0,3.07.17,3.31,2.89,4.44-3,3.8-7.6,5.78-11.77,8-6.55,3.18-12.54,7.31-18.82,11C355.92,465.47,333.61,479.88,310,491.05Z"/><path class="cls-19" d="M609.89,83.56c0,8.25-.25,16.51,0,24.75-67.87,40.34-136.83,79.55-205,119.56q-34.71,20.22-69.43,40.42a59,59,0,0,1-22.35,7.52c-6.11,1.48-6.39-4.43-6.33-9,0-29.59.29-59.18-.51-88.75,0-2.24.37-4.2,2.11-5.87,4.47-5.62-12.31-6.34-7,1.39,2,31,.06,62.6.7,93.81.49,5.9-1.79,6.08-7,6.84-5.38-.07-10.1-2.27-14.61-4.87q-81-46.65-162-93.48C80.48,154,42.51,132,4.38,110.27c-4.79-2.54-1.57-9.49-2.5-13.94,0-5,.06-9.9.09-14.85,32-2.5,65.37-.06,97.84-.89,17.91.09,36.21-.78,53.65,1.61,2.79-.54,2.87-3.89-.06-4.42a6.42,6.42,0,0,0-4,.07c-5.18,1.68-10.5,1.78-15.88,1.78C89.87,78.57,45,81.59,2,78.53c-.16-8.38-.14-16.75,0-25.13C29.78,36.49,58.53,20.9,86.35,3.88,93.64-.9,103.49,2.8,111.83,2c.06,1.62-1.29,2.12-2.34,2.73C86.56,18.32,63.15,31.24,40.43,45.18c-18.31,18,23.34,29.07,39.86,16.16C104.06,47.71,127.68,33.8,151.38,20c9.75-5.66,19.6-11.12,29.07-17.23,2-1.63,4.44-1.28,6.87-1.25H430.53C440,4,448.33,11.62,457.36,15.92,484.07,31.36,510.68,47,537.71,61.86c11.93,6.57,23.79,5.17,35-2,11.78-7.79.13-17.8-8.62-21.69C544.56,26.56,524.48,15.9,505.25,3.84c-.69-.45-1.63-.81-1.48-1.94,7.06-.06,14.3-.68,21.28-.18-.55,1.19-1.85.54-2.77,1.07C549.39,18.85,577,33.68,603.74,50.24c2,1.26,4.39,1.44,6.15,3.07q-.1,12.91-.19,25.81c-45.13,2.11-91.45,0-137,.75a21.49,21.49,0,0,1-9.09-1.65c-1.4-.64-3-1.34-4.25.5-1.72,1.36-5,3.23-1.77,5.11a4.63,4.63,0,0,0,4.18.31c5.06-2,10.35-1.61,15.61-1.61C521.37,83.5,566.44,80.64,609.89,83.56Z"/><path class="cls-19" d="M609.9,165.55q-.36,42,0,84h-.2C511.07,308,411.11,364.39,312.44,422.82c-3.15,1.87-5.87,1.9-9.14,0-50.58-29.26-101.08-58.65-151.81-87.65Q77.73,292.64,4.18,249.78a3.72,3.72,0,0,1-2.29-4c.05-26.23-.13-52.48.06-78.72C48,191.28,93.25,219.21,138.68,245.3c1,.63,2.17,1.13,2.28,2.57-.16,4.45-2.33,8.39-2.78,12.72-1.73,17.44,10.19,24.89,25.89,27,22.62,3.88,31.28-10.52,38.63-5.57,9.21,4.76,17.82,10.61,27.1,15.2,6.57,3.29,7.15,8.41,14.64,11,0,3.85-2.13,7.24,2.27,9.79,3.75,4.24,22.55,0,13.19,7.4-25.69,28.13,23.33,47,46.3,45.72a77.34,77.34,0,0,0,30.91-6.89c14.41-5,28.1-20.67,16.7-35.22-.94-2.67-11.59-9.18-3.37-8.63,6.54.85,20.34-2.11,15.26-11.2-2.11-2.46.69-2.9,2.64-2.78,3-.21,5.23-1.46,6.48-4.21,30-20.88,64.18-37.23,95.44-56.82C512.79,220,556,195.8,598.59,170.7,602.3,169,605.79,165.51,609.9,165.55Z"/><path class="cls-19" d="M609.9,112.86c-.23,16.43-.2,32.89,0,49.32l-.21.06C554.43,195.09,498,227,442.44,259.71q-32.62,19-65.25,38c-3.14,1.82-6.34,3.31-10.08,3.49-5.09.17-1.62,3.12-2,5.94h0c-1.36.86-2.46-.13-3.56-.6a20.57,20.57,0,0,0-17.16.11c-5.1,1.81-4.7,4.68-4.91,9.41-.45.79-1.49.42-2.21.32a104.22,104.22,0,0,0-23.95-5.63,84,84,0,0,0-37.44,4.77c-1.39.52-2.75,1.36-4.36.88-1.85-3.72.17-7.22-5.07-9.48-5.89-3.35-12-1.18-18.19-1.33-1.83-2.43-1.58-4.26-5.35-4.29a17.48,17.48,0,0,1-8.73-2.86c-10.72-7-23.08-12.25-33-20.09a2.86,2.86,0,0,1,.91-2.48,5.4,5.4,0,0,0,1.42-4.17c-.08-11.41,3-26-12.25-28.37-7.37-5-30.41-5.73-37.95-1-2.64,2.13-6.27,1.13-8.92,3-1.39.68-2.46-.14-3.56-.77C95.22,218.62,50.2,191.49,4.28,166.1a4.69,4.69,0,0,1-2.35-1.95c-.38-17.05-.64-34.1.17-51.15,64.4,33.8,127.43,73.68,191.37,109.49,23,13.34,46.24,26.37,69.11,40,11,6.69,22.37,13.55,35.38,15.25,1.61.23,3.7-.18,4.44,2.07.34,4.35-.18,8.67-.4,13-1,5.75-5.6.53-8.76.95,6.47,7.12,17.94,8.25,24.48,0-5.44-.06-10.83,8.16-10.46-2.16.67-4.6-2.47-12.87,4.16-13.72A61.76,61.76,0,0,0,340,268.94C430,217.33,519.47,162.69,609.9,112.86Z"/><path class="cls-20" d="M2,247.66c100.73,58.58,201.77,116.65,302.62,175,6,3.6,12.5-4.65,18-6.72l23.72-14Q374,385.61,401.8,369.65c69.68-39.28,138-81.45,207.89-120.09-.58,4.21,2.08,11.77-2.11,14.2-30.19,17.94-61,34.78-90.9,53.23C447.54,355.74,380,397.09,310.77,435.36a12.51,12.51,0,0,1-11-1.58c-10.82-6.8-21.87-13.21-32.91-19.66-58.37-33.09-116-67.6-174.39-100.58C62.71,297,33.83,279,4,262.49A4.21,4.21,0,0,1,2,260.59C1.83,256.28,1.78,252,2,247.66Z"/><path class="cls-21" d="M2,260.59c73.88,42.69,148.22,84.66,221.62,128.14a2.08,2.08,0,0,1-1.45,1.13c-4,1.24-7.26,3.81-10.57,6.26-.84.63-1.58,1.65-2.89,1.29-24.29-10.57-46.14-26.37-69.51-38.88C93.45,332.08,47.8,305.41,1.93,279.28,1.79,273.05,1.75,266.82,2,260.59Z"/><path class="cls-22" d="M609.72,112.82Q473.58,192.13,337.33,271.25a53.8,53.8,0,0,1-24.15,7.13c-5.87.35-5.34,2.09-5.25,5.64s0,7,.06,10.56c.21,5.18,8.08-4.35,11.28-1.37-6.88,9.32-18.74,9.48-27.78.27,3.06-3.3,8.88,4.76,10.49.5-.24-3.47,2.91-16.22-2.87-15.35-11.86-1.27-22.46-6.76-32.5-12.84Q134.65,188.91,2.1,113a7,7,0,0,1-.14-5C94.75,161.1,187.17,214.81,279.78,268.19c4.46,2.58,9.05,4.75,14.24,5.38,1.94.72,4,0,5.92.31,2.19.18,2.07-2.86,2.07-4.38q0-45.83,0-91.65c.52-2.92-1.63-4.29-2.65-6.65-1.33-7,15.93-4.19,9.51,1.68a4.75,4.75,0,0,0-1.81,4.17c.52,30.54.46,61.08.6,91.63.05,3,0,7.41,4.2,6.53a60.12,60.12,0,0,0,23.29-7.62C426.81,214.85,517.62,160.2,609.7,108.42,609.71,109.89,609.71,111.35,609.72,112.82Z"/><path class="cls-23" d="M468.26,1.9c7.94-.22,15.88-.24,23.82-.35,2.69.91,4.73,2.92,7.14,4.31,20.41,11.73,40.68,23.7,61.17,35.29,7,2.52,16.37,12.63,5.5,16.85-8.69-.37,2.82-7.21-5.12-11.08-4.68-2.94-10.09-1.37-15.24-1.55-3.94-.14-6,1.77-6,5.67,0,1.94.19,4-2.32,4.65C506.86,40.35,477.37,21.84,447.61,5c-1.21-.81-2.81-1.32-3-3.14,7,.07,14.11-.84,21-.21-.06.58-.74.55-1,1.07q17.31,10,34.61,20c5.58,4.2,17.49,8,20.45,13.62,1.38,3.23,6,4.15,8.66,1.8s-1.21-4.29-3.57-3.94a24.33,24.33,0,0,1-10.22-3.88c-14.42-8.89-29.26-17.07-43.69-25.95C469.84,3.78,468.4,3.49,468.26,1.9Z"/><path class="cls-24" d="M149.8,1.55l21.42.34c0,1.83-1.71,2.14-2.82,2.86-8.88,5.69-18.08,10.85-27.23,16.07-20.73,11-40.32,25.5-61.57,34.83-2.47-1.19-4.68-2.63-5.79-5.33-1.18-3.65-5-2.29-7.41-4.15-1.15-1.45-2.77-.82-4.18-.86-8.39-.46-1.43-7.83,2.67-9.27,18.66-11.56,38-21.88,56.78-33.23-1.43-.69-3.28.5-4.35-1.13,8.94-.3,18.1-.94,27,.42-.17,1.32-1.33,1.74-2.23,2.31-13.28,8.46-27.3,15.65-40.45,24.34a51.17,51.17,0,0,1-14.7,5.67c-1.74.14-4.36,1.34-2.61,3.31,2,2.48,6.77,2.22,8.24-.6C94.2,34,96.8,32,99.77,30.35,116.68,21.19,133,10.8,149.8,1.55Z"/><path class="cls-19" d="M609.66,1.46c.23,15.7.18,31.43,0,47.13-5.78.25-16.22-8.71-22-11.43C568.41,25.28,546.58,15,528.81,1.92,555.72.74,582.72,1.8,609.66,1.46Z"/><path class="cls-19" d="M2,48.58c-.27-14-.3-28-.48-42-.05-4.9.31-5.27,5.28-5.25,25.09.12,50.18.06,75.26.52,0,1.32-1.16,1.63-2,2.13Q56,18.45,31.77,32.63c-8.48,5-17.11,9.7-25.63,14.61C4.88,48,3.69,49.14,2,48.58Z"/><path class="cls-25" d="M117.32,1.68c2,.41,4.09-.24,6.45.28C99,18.31,71.67,31.21,47.25,48.19c-6.44,4.34-1.36,10.8,4.33,12.53,8,2.5,15.56,1.91,22.69-2.73,29.32-15,57.82-33.1,86.7-49.52,8.91-5.68,10.88-7.71,22-7C149.62,23.66,113.39,42.35,78.85,63c-11.16,6.69-25.32,6.38-36.72.42-9.64-4.29-8.66-16.84.8-20.79C65.73,28.85,89.54,16.39,111.83,2Z"/><path class="cls-26" d="M444.61,1.9c30.91,19.25,63.12,37.38,95.16,54.54,7.26,4.84,14.92,5.38,22.92,2.08,5.89-.93,9.9-5.8,5.63-11.07-24.08-17-52.37-28.59-76.24-45.9,10.95-1.17,14,1.94,22.84,7.33q25.91,15,51.87,30c24,12,6.09,27.22-12.69,27.8a32.9,32.9,0,0,1-17.41-4.47c-34.5-20.2-70.82-38.84-104-60.59A112.88,112.88,0,0,1,444.61,1.9Z"/><path class="cls-27" d="M1.93,164.15c33.35,17.47,65.25,37.63,98.12,56,14.65,8.25,29,17.21,43.81,25.09,1.87,1.93-1.71,4.22-3.18,2.32C95,219.79,48.09,194,2,167A8.44,8.44,0,0,1,1.93,164.15Z"/><path class="cls-28" d="M2,78.53c48.79-1.29,98.28,2.76,146.75-1.48,2.42-.86,5.48-.88,7.4,1.09,3.42,4-4.51,6.82-7.44,4.91C100.34,78.73,50.71,82.86,2,81.48A8.13,8.13,0,0,1,2,78.53Z"/><path class="cls-29" d="M528.81,1.92c27,15.42,53.34,32.41,80.87,46.67a.58.58,0,0,0,.16.32c-.05,1.43-.09,2.86-.14,4.29-22.82-10.33-43.94-25.39-66.2-37.26-7.61-4.91-16.15-8.5-23.27-14A49.2,49.2,0,0,1,528.81,1.92Z"/><path class="cls-30" d="M2,48.58C28.81,34.06,54.81,18.05,81.1,2.6c2.71-1.74,6.54-.73,9.69-1-9.9,7.58-21.46,13-32.14,19.46C39.6,31.46,21.3,43.94,1.91,53.4A20.45,20.45,0,0,1,2,48.58Z"/><path class="cls-31" d="M468.26,1.9c15.39,9.75,31.46,18.36,46.94,28a21.24,21.24,0,0,0,11.69,3.77,3,3,0,0,1,3.21,2.64c.49,2.74-3.08,3.64-5.36,3.78-6,1.25-4.51-4.2-8-6.51-18-10.49-36.78-20.19-54.09-31.51C464.52,1.45,466.34,1.82,468.26,1.9Z"/><path class="cls-32" d="M149.8,1.55c-16.18,11.29-34.13,20.38-51.21,30.38-4.61,1.51-4.42,6.85-8,8-2.84.85-8.15-.52-7.77-4,.37-1.35,1.4-1.8,2.68-2C99,32,109.15,22.16,120.88,16,129,13.16,143,0,149.8,1.55Z"/><path class="cls-21" d="M515.26,317.21c30.78-19.63,63.22-36.65,94.44-55.62v19.65c-36,19.47-71.22,40.21-106.37,61.13-14.24,8.7-28.58,17.1-43.29,25a3.2,3.2,0,0,1-4-1.25c-4.11-5,4.09-6.1,7.59-5.94,4.63,0,6.09-5.94,9.73-8.17,3.7-3.15-1.85-3.75-4.05-4.76-1.67-.62-1.55-3.25.38-3.15,4,.31,6.61-2.22,9.63-4.11,3.69-2.31,8-3.3,12.08-4.52,7.64-1.08,4.71,11.69,13.36-.66,1.38-1.94,1.16-4,.61-6.21-.67-2.66.08-4.72,2.43-5.53C511,321.92,513.09,319.54,515.26,317.21Z"/><path class="cls-33" d="M459.14,78.2c-2.31-1.52,4.11-2,4.87-.92,47.72,5.1,97.36.25,145.69,1.84l.18.95c-47.41,2.12-96,.07-143.83.72C463.65,80.2,461.17,79.81,459.14,78.2Z"/><path class="cls-34" d="M365.09,307.15c-6.39-9.62,6.14-5,11.23-9.73,77.9-44.81,154.9-91.47,233.36-135.18,0,1.11,0,2.23,0,3.34C540.88,204.08,473.28,244.87,405,284.31q-13.8,8-27.6,15.93a3.47,3.47,0,0,0-1.72,1.89C374.14,306.83,369.33,307.36,365.09,307.15Z"/><path class="cls-35" d="M459.14,78.2c3.92.36,7.16,3,11.2,2.63,46.32.67,93.46-1.32,139.37.69,0,.65,0,1.29,0,1.93q-70,0-139.94-.08c-3.78-.29-6.94,2.4-10.74,2-3.2.12-6.21-4.5-2.24-6A8,8,0,0,0,459.14,78.2Z"/><path class="cls-36" d="M609.71,81.52c-47.88-1.27-97.07,2.47-144.33-1.33q72.15,0,144.3,0Z"/><path class="cls-37" d="M208.67,397.41c4.68-3.38,9.08-7.49,14.91-8.68,17.91,9.61,35.37,20.12,53,30.26,6.13,3.59,12.17,7.34,18.33,10.87,4.6,2.75,9,6.71,14.83,5,11-3.68,20.07-11.46,30.23-16.87,16.41-9.14,32.26-19.68,49.11-27.85,4.93-1.17,10.94,6.39,16.34,7.66,2.21,4,.35,9.85.93,14.44-1.49-3.73.47-8.31-.82-12.14-20.35,9.62-39,22.67-58.68,33.52-7.92,4.47-15.75,9.07-23.72,13.46-5.6,2.86-10.81,8-17.51,7.4h0c-1.45-2.67-4.07-3.51-6.73-4.3-30.35-15.73-59.84-34.93-90.16-51.39C208.7,398.34,208.69,397.87,208.67,397.41Z"/><path class="cls-38" d="M515.26,317.21c-.24,2.61-4.06,5.46-6.62,6.26a3.4,3.4,0,0,0-2.56,4.72c1,3.14.71,5.88-1.68,8.4-1.91,1.74-4.18,6.62-7.09,3.71-1.72-1.67-2.57-5.45-5.58-4.23a94.46,94.46,0,0,0-10.6,3.73c-3.37,1.12-5.3,5.14-9.07,4.79-4.25-.63-4.81,1.93-.47,2.61,2.67.46,6,2.28,2.87,4.8a42.5,42.5,0,0,0-7.16,7.94,2.2,2.2,0,0,1-2.27.95c-5.51-.22-14.75,1-5.89,6.73-2.12,2.06-5.05,3.39-7.68,4.8-.8-.55-.85-1.49-1.17-2.29-1.26-3.1-4-3.66-6.4-1.25A43.68,43.68,0,0,1,432,379.42c-10.69,7-12.64,10.6-22.73-.28,6.65-6.95,16.72-9.87,24.66-15.25C441,359.78,448,355.52,455,351.3,475.37,340.54,494.58,327.33,515.26,317.21Z"/><path class="cls-39" d="M409.24,379.14c5.47,2.47,8.44,9.69,14.92,4.57,6.27-4.6,13.63-7.9,18.3-14.37,3.11-5,9.32-2.68,9,3.08-.52.66-1.41.78-1.92,1.43h-.48c-.14.17-.34.3-.48.48h-.48c-.51.66-1.41.77-1.92,1.43h-.48c-.14.17-.34.3-.48.48h-.48c-.5.66-1.41.77-1.92,1.43h-.48c-.14.17-.33.3-.48.48h-.47c-.51.66-1.42.77-1.92,1.43H439c-.14.17-.33.3-.48.48H438c-.51.66-1.42.77-1.92,1.43h-.48c-.15.17-.34.3-.48.48h-.48c-.51.66-1.42.77-1.92,1.43h-.48c-.15.17-.34.3-.48.48h-.48c-8.26,5-16.64,10.41-25.44,14.41-6.48-.78-10.57-7.29-16.79-8.19C395.91,386.68,401.66,381.07,409.24,379.14Z"/><path class="cls-38" d="M451,372.9l.48-.48Z"/><path class="cls-38" d="M448.58,374.34l.48-.48Z"/><path class="cls-38" d="M447.62,374.82l.48-.48Z"/><path class="cls-38" d="M446.18,375.77l.48-.47Z"/><path class="cls-38" d="M445.22,376.26l.48-.48Z"/><path class="cls-38" d="M444.26,376.74l.48-.48Z"/><path class="cls-38" d="M442.82,377.69l.48-.47Z"/><path class="cls-38" d="M441.86,378.18l.48-.48Z"/><path class="cls-38" d="M440.9,378.66l.49-.48Z"/><path class="cls-38" d="M439.47,379.61l.47-.47Z"/><path class="cls-38" d="M438.5,380.1l.48-.48Z"/><path class="cls-38" d="M437.54,380.58l.49-.48Z"/><path class="cls-38" d="M436.11,381.53l.47-.47Z"/><path class="cls-38" d="M435.15,382l.48-.48Z"/><path class="cls-38" d="M434.19,382.5l.48-.48Z"/><path class="cls-38" d="M432.75,383.45l.47-.47Z"/><path class="cls-38" d="M431.79,383.94l.48-.48Z"/><path class="cls-38" d="M430.83,384.42l.48-.48Z"/><path class="cls-38" d="M449.54,373.85l.48-.47Z"/><path class="cls-40" d="M298.88,450.19c3-.1,6.69.68,6.73,4.3C302.81,454.42,301.19,451.48,298.88,450.19Z"/><path class="cls-41" d="M260.61,239c-6.94.5-13.15-1.85-19.07-5.26L55.68,126.42c-41.75-18.43,2.16-41,25.82-26q98.19,56.33,196.1,113.1C299.1,226,276.71,240.68,260.61,239Z"/><path class="cls-42" d="M292.83,157.78C143.77,146.49,127.35,24.23,283.47,5.12,332.06.84,387.84,9.21,423.28,45.43c24.81,25.72,17.1,61.4-10.67,81.27C381.47,151.1,331.27,160.58,292.83,157.78Z"/><path class="cls-43" d="M381.42,181.86c-3.82-28.38,56.56-29.35,66.08-9.42,2.11,3.88,1.67,8,1,12.1a68.48,68.48,0,0,0-10.73,7.39C420.61,202.67,392.25,200.38,381.42,181.86Z"/><path class="cls-44" d="M437,163.57a10.72,10.72,0,0,1-4.3-1.85,2.13,2.13,0,0,1,1.08-2.62c34.41-19.47,68.38-39.77,102.64-59.52,7.16-4.17,14.8-6.33,23.14-5.6,9.38.76,26.91,7.3,20.61,19.34-40,29.1-86.53,50.58-128.78,77-3.7,2.66-3.09-1.55-3.35-4.12-.89-1.43,1.53-2.59,2.51-3.31,35.77-20.33,71.14-41.35,106.64-62.15,5.07-3.66,14.61-5.14,15.19-12.42-.21-3.45-2.68-5.24-5.63-6.48-16.46-7.7-30.6,6.64-44.5,13.69-26.18,15.48-52.86,30.19-78.77,46.07C441.51,162.73,439.53,164,437,163.57Z"/><path class="cls-45" d="M448.16,185.32l-.09.87c-3.55,3.05,0,7.28-1,11.08-2.1,8.84-22.31,13-30.16,11.48-1.39,1.16-3.11.89-4.56.56a16.58,16.58,0,0,0-9.34.93c-2.2.79-3.82.5-5.12-1.51-2.13-2.42-5.68-3-8.26-4.87-4.17-2-8.76-.73-7.24-7.24a2.9,2.9,0,0,0-.45-2.46c-.46-1.16-1.33-2.25-.56-3.6,0-2.9,0-5.8,0-8.7,10.15,13.41,28.43,18.64,44.44,14.2,4.88-1.37,10.15-3,13.86-6.59a14.84,14.84,0,0,1,8.34-4.75C448.34,184.88,448.37,185.08,448.16,185.32Z"/><path class="cls-46" d="M381.38,190.56c1,3.13,2.57,6.05-1.24,7.62-10.76,6.27-21.66,12.31-32.28,18.82-2.26,1.41-4.17,3.05-4,6,1.85,10.26,19.61,10.58,27,6.18,9.39-5,18.53-10.38,27.58-15.94,5-3.38,10.93-5.24,17-4.05.55.09,1.17.11,1,1-13.62,8.77-27.42,17.34-42,24.34-12.41,6.26-33.28,4.4-39.5-9.28-1.34-4.71,1.36-8.88,5.32-11.23C353.63,205.74,367,197,381.38,190.56Z"/><path class="cls-47" d="M416.46,210.18c-10.33-5-32.58,14.17-43.53,18.91-8.11,7-38.43,3.11-27.55-11.26,11.08-7.36,23-13.45,34.44-20.28,1.51-.86,2.55-1.89,2.59-3.7,1.39.7.86,2.22.53,3.38-1.42,6.17,4.31,3.49,7.11,6.17-1.51,3.19-5.68.83-8.18,2.68-5,3.86,5.16,6.76,7.23,2.45,1.07-1.39,1.49-3.18,2.71-4.48,2.27,2,6.05,1.82,7.29,5,.48,1.23,1.45,1.34,2.56.84,4.89-2.62,10-1,15.25-1.13C416.91,209.27,417,209.81,416.46,210.18Z"/><path class="cls-48" d="M300.39,173.08c2,.17,2.16,1.65,2.2,3.13.21,26.71.13,53.42.26,80.14-.15,5.65.48,11.38-.1,17a1.77,1.77,0,0,1-2,1.62c-2.23-.43-4.65,0-6.69-1.4,3.66-.33,8.13-.28,7.28-5.3C300.49,236.63,302.93,204.5,300.39,173.08Z"/><path class="cls-49" d="M292.83,157.78c9.39.56,19.48-1.12,28.54.65-1.76.54-22.49.75-30.75.29A4.61,4.61,0,0,1,292.83,157.78Z"/><path class="cls-50" d="M271.55,316.23a87.86,87.86,0,0,1,67.22,0c1.22.2,1.82-.91,2.87-1.11,2.64,1,5.78,2.8,5.72,6,31.69,27.15-8.91,49-35.79,50.49-21.53,1.86-67.94-9.16-57.94-38.66A28.75,28.75,0,0,1,262.46,322C264.53,318,266.5,315.17,271.55,316.23Z"/><path class="cls-51" d="M140.68,247.57c2.13,0,3.27.37,3.18-2.32,1.51-3.49,6.39-.88,9.08-3.64,4-4.59,40.17-5,38.75,3-1.39,1.22-2.77.32-4-.15a44,44,0,0,0-22.59-2.37c26.42-5.65,50.27,21.14,14,30.06-13.15,4-46-6.34-30.27-23.48-13.39,10.9,3.78,22.47,15.06,23.78,11.43,2.25,39.51-2.28,33.12-19.07a28.71,28.71,0,0,0-3.68-5.88c-.54-.72-1.47-1.36-.86-2.5,9.68.1,12.29,13.05,10.33,20.85C186.12,284,128.39,282.12,140.68,247.57Z"/><path class="cls-52" d="M139.24,254.39c1.35,6.24,1.28,13,7.89,16.14,17.25,9.53,39.93,7.19,55.31-4.67,2,4.17,1.05,8.65-1,12.48-.8,2.28-3.88,1.55-5.2,3.4C175.45,297.08,126,287.78,139.24,254.39Z"/><path class="cls-53" d="M196.23,281.74c.31-2.55,3.59-2,5.2-3.4l24.75,14.51c6,3.38,11.43,7.9,18.57,8,2.81.87,3.22,1.42,3.28,4.43-.53,2.39-1.58,3.16-3.86,2.85-7.11.13-8.75-8.28-14.87-10.35C221.12,294.91,203.31,279.89,196.23,281.74Z"/><path class="cls-54" d="M244.17,308.12a6.24,6.24,0,0,0,3.86-2.85c8.93-2.1,25.53-2.23,23.52,11-.9,1.37-2.49.49-3.82.49,3.88-10.72-13.15-12.47-19.36-7.8-7.67,6.92,6.57,11.43,12.17,9.67,1.42-.18,2.92-1,4.31.16a3.31,3.31,0,0,1-2.39,3.26C254.24,320.31,238.41,321.86,244.17,308.12Z"/><path class="cls-55" d="M347.36,321.06c-1.11-.45-1-1.42-1-2.33,1-.72,2-.25,3-.13,23.73,2.35,15.45-17.62-3.14-10.77-2.64,1.1-4.42,2.83-4.32,5.94.19.92-.49,1.59-.87,2.38-.69,1.26-.72,1.26-1.91,0-1.31-5.84-.23-8,5.21-10.38,7.06-3.31,14-1.72,20.74,1.37,3.13,3.15,3.85,7.67-.29,10.88C359.82,322,353.27,321,347.36,321.06Z"/><path class="cls-56" d="M202.45,276.41c-.82-10.69,4.06-27.77-10.09-31.16-1.48.78-.8-1.67-.91-2.46,5.8.16,12.83,5.52,13,12.7C203.56,261.31,206.46,272.3,202.45,276.41Z"/><path class="cls-57" d="M301.78,279.27c2.73,4.83,1,10.62.9,15.84.06,2.39-1.91,1-2.87.06C302.42,293.72,301.43,282.71,301.78,279.27Z"/><path class="cls-55" d="M338.77,316.19a.91.91,0,0,1-1-.37A1.11,1.11,0,0,1,338.77,316.19Z"/><path class="cls-58" d="M545.52,44.61c5.69-.1,11.75-1.5,16.71,2.19,3.92,2.27,2.36,6.52.45,9.66-4.59,3.77-11.86,3.49-17.36,1.82C537.86,55.84,537.08,46.54,545.52,44.61Z"/><path class="cls-59" d="M545.52,44.61c-3.89,3.11-7.88,4.92-4.11,10,5.38,6,14.52,4.18,21.27,1.82.9,1.1,2.43.22,3.41,1.08-9.28,6.05-21,4.77-29.39-2.33C541.56,54.2,535.28,44.12,545.52,44.61Z"/><path class="cls-60" d="M66.69,45.91c4.68,1.07,10.44,5.76,6.45,10.68-5,6.22-15.91,5.08-22.51,2.06-6.89-4.88-.72-13.07,6.08-13.38C59.74,45.25,64.24,44.11,66.69,45.91Z"/><path class="cls-61" d="M66.69,45.91A25.08,25.08,0,0,0,52.42,47.5c-8,3.82-3,12.31,3.73,12.17,5.92.4,14.43,1.69,17.22-5.06,1.8-3.88-2.78-5.67-4.82-8.07,7-.14,4.66,5.46,11.16,8.65C61.09,73.39,21.19,55,59.5,40.36,56.33,48.31,67.74,42,66.69,45.91Z"/><path class="cls-38" d="M482.19,347.44c-1.77.35-2.41-1.62-.91-2.35,1.71-.43,5.4-2.53,6.5-.57C487.92,347.11,483.78,346.71,482.19,347.44Z"/><path class="cls-39" d="M418.83,379.54c-3.48-.3,3.1-5.52,4.15-6.12,2.57-1.17,7.35-6.29,9.9-3.82.66.83.31,1.66-.38,2.33C429,375.89,423.9,378.2,418.83,379.54Z"/><path class="cls-62" d="M80.12,106.51c62.81,35.4,125.71,72.26,188.44,108.4,5.81,3,14.55,9,6.4,15-2-.31-1.8-2-2.2-3.36-.16-10.15-11.87-8.65-19-8.36-10.33-.05-2.89,12-9.69,9.81-61.85-35.21-124-70.34-185-106.8-.78-5.87,16,2.18,19.29-11.21C78.67,108.72,78.77,107.27,80.12,106.51Z"/><path class="cls-63" d="M80.12,106.51c-3.78,19.19-17.46,9.14-21.1,14.68C26.76,107.6,65.19,91.56,80.12,106.51Z"/><path class="cls-64" d="M244.07,228c6.19.75-2.36-10.34,9.79-10.57.16,1.41-1,1.87-1.84,2.53-3.6,2.81-3.41,7.08.8,8.9,6.05,2.6,12.2,2.78,18-1.11.82-.56,1.42-1.6,2.67-1.24.38,1.18.46,2.51,1.5,3.4C265.75,237.26,252.72,235.24,244.07,228Z"/><path class="cls-65" d="M88.22,111.32c-3.23,0-4.35.37-5.18-3.07C85,108.87,87,109.5,88.22,111.32Z"/><path class="cls-19" d="M307.62,7c37.37.68,80.7,9.86,108.83,37.46,27.75,26.81,18.76,63-11.56,83.19-48.16,31.9-112.71,33.92-166.45,15.86-27.71-10.26-60.15-30.71-59.93-63.77C183.18,24,261.41,6.73,307.62,7Z"/><path class="cls-66" d="M448.16,185.32c-.46-4.38.82-9-1.48-13,21.93-11.5,43.12-24.41,64.36-37.14a42.15,42.15,0,0,1,16.43-6.38c7.09-2.8-4.83-8.35-7.45-1.46-21.54,16.52-47.71,28-70.9,42.66-.88.5-1.71,1.26-2.87.88-2.56-3.07-6.24-4.73-9.22-7.27,34.94-17.88,67.85-40.43,102.68-58.52,5.37-1.58,3.59,6,6.38,8.57,1.5,6.53,13.69.3,11.4,7.71C521.23,143,484.59,164,448.16,185.32Z"/><path class="cls-67" d="M446.25,170.84q35.21-20.46,70.4-41a5.33,5.33,0,0,0,2.84-3.39c1.18-4,7.73-4.35,10.29-1.6,1.48,1.88.93,3.78-1.33,4.5a43.35,43.35,0,0,0-17.76,6.75c-20.27,12.59-41.06,24.37-61.87,36C447.54,173.22,446.4,172.53,446.25,170.84Z"/><path class="cls-68" d="M557.49,121.33c.58-7.17-10.12.67-12-7.58,1.31-.72,2.48,0,3.65.43,5.67,1.82,16.58,2.1,18-5.26-1.17-8.22-17-7.85-22.05-3-.56.42-1.14.91-1.94.65-.91-1-2.22-1.11-3.41-1.49,10.2-11.3,41.86-5.62,31.38,8.37C567.05,116.75,562.1,118.89,557.49,121.33Z"/><path class="cls-69" d="M391.81,204.05c-2,15.34-22.52,2.49-6.31.41a6.28,6.28,0,0,0,4.55-1.06Z"/><path class="cls-70" d="M360.71,229.92c-6,.85-18.32-5.47-11.13-11.53C363.61,207.1,387.18,226.68,360.71,229.92Z"/><path class="cls-71" d="M306.37,362.86c-13.14-.42-38-5.2-38.23-20.92-1.08-14.36,14.76-20.64,26.47-23a72.37,72.37,0,0,1,31.06,3C362.73,338.22,334.16,363.15,306.37,362.86Z"/><path class="cls-72" d="M264.85,318.75c-5.64.84-11.9,1.94-16.9-1.6-3.65-2.29-3.69-6.84,0-9,6.82-4.61,22.84-3.38,21.19,7.42-.23.78-1.08.61-1.42,1.15A14.82,14.82,0,0,0,264.85,318.75Z"/><path class="cls-73" d="M341.49,315.33c-2.8-11.84,19-12.36,23.33-4.39C366.89,321.88,346.69,321.6,341.49,315.33Z"/><path class="cls-74" d="M191.41,244.77a1.23,1.23,0,0,0,1,.48c23.2,23.93-21.86,34.8-38.47,24.83-11.4-4.79-15.62-16.63-3.06-23.42-3.39,5.56-8.74,10.08-3,16.66,11.52,11.27,32.21,12,44.76,2.05,12-10.13-3.86-22-14.55-22.86-5.38-1.06-10.9.79-16.29.16C170.35,238.3,182.25,242.34,191.41,244.77Z"/><path class="cls-75" d="M165,251.45c2.46-1,5.15-.27,7.72-.48,5-2.76,14.49,5.65,8.2,10.23C170.77,270.05,149.16,258,165,251.45Z"/><path class="cls-76" d="M165,251.45c-10.43,5.39-1.28,12.56,6.57,12.35,12.69-.5,15.09-11.78,1.15-12.83-1.54-1-3.42-.25-5.17-.46,6.53-4.52,24.08,4.29,13.4,11.92-6.2,4.31-25.24,3.71-22.32-7.33C159.1,253.08,163.47,249.49,165,251.45Z"/><path class="cls-77" d="M88.4,123.26c2.57,0,5.66.49,6.09,3.4,28.65,21.15,63.46,36.77,94.15,56.05q17.45,10.08,34.85,20.19a10.06,10.06,0,0,0,5.22,1.51c2.5.12,6.68.34,6.44,3.67-.08,3.91-5.46,3.63-8.24,3-3.51-.68-2.5-5.31-5.79-6.46q-27.83-16-55.63-32.13-34.65-20-69.3-40.1c-3.24-2.35-7-2.14-10.72-2.86a2.58,2.58,0,0,1-2.11-2.81C83.07,123.93,86.31,123.33,88.4,123.26Z"/><path class="cls-78" d="M273.46,226.5c-7.46,10.1-36.67,3.24-19.6-9.08C260.92,216.58,274.42,216.16,273.46,226.5Z"/><path class="cls-79" d="M64,103.14c11.44-.34,19,10,4.55,14.16-5.58,1.79-10.54.08-15.17-2.91C46.56,108.34,58.33,102.25,64,103.14Z"/><path class="cls-80" d="M233.15,34c7.64-4.78,14.92-11.54,24.48-11.47,8.13,0,16.22-1.16,24.34-1.1,1.83,1.72,4.21,2.43,6.43,3.45,24.2,11,5.94,28.89,18.06,27.55,12.77-.3,28.32,2.77,35,14.86,7.18-24.11,38.39-22.51,57.72-15.91,27.69,20.51-1.87,37.36-25.08,36.28a3.92,3.92,0,0,0-2.73.55c-2.37.35-4.56-.56-6.79-1.06a56.37,56.37,0,0,0-21.6-.67c-6.26,1.05-12.07,4-17.34,7.72-2.89,2.36-3.37,6.51-5.8,9.26-3,3.58,4.33,6.43,1.55,17.53-14.92,14.67-43.54,19.14-60.16,4.84-1.57-2.36-5.93-1.21-5.48-4.88.35,1.49-.15,3.2-.52,4.9-2.6,4.32-1.71-8.53-2.18-9.68.37-12.14,11.79-18.15,22.17-20.7,2.43-.81,2.48-.78,1.58-3.27a16.36,16.36,0,0,1-.78-6.36c1.41-11.77-11.12-14.42-4.7-15,4.31,1.28,6-9.23,11-11.78-10.27,1.33-22.17,3.4-32-1.2-4.15-2.81-14.08-6.25-14.16-11.74a3.55,3.55,0,0,0-2-3.53c-1.34-1.28-.9-3.22-1.75-4.68C232.56,36.59,234.15,35.51,233.15,34Z"/><path class="cls-81" d="M324.71,55.19c-3.34-.71-7.4-.59-9.87-3.24a4.06,4.06,0,0,0-4.1-1.38c-2.26.66-3.34-.55-4.4-2.27-8-12.88-3.49-27.34,12.15-29.73,15.09-4.25,34.09-3,45.7,8.19,1.25,5.85,5.85,13.47,1,18.64-2.5,5.1-8.3,5.7-13,7.86h0c-5.14-.07-9.79,3-14.94,2.22C333.05,54.63,328.83,55.77,324.71,55.19Z"/><path class="cls-82" d="M254.31,126.66c1-2.8.61-5.8,1.13-8.63,1.72.26.05,5.65,2.68,5.26a4,4,0,0,1,3.77,2c1.49,2.18,3.77,3.4,6.15,4.39,16.6,6.66,40,5.17,52-9.4,5.78,6.43-1.35,16.82-7.52,20.53-2.51.39-5.15-.59-6.66,2.27-12.65,4.33-28.56,4.55-40.51-2.51-1.12-5.56-7.09-5.28-11.14-7.15C254.87,131.12,252.38,128.62,254.31,126.66Z"/><path class="cls-83" d="M321.43,124.7c-.89-4.41-.35-8.93-.42-13.4,1.11-.2,1.76.61,2.48,1.2,7.93,6.51,16.92,10.11,27.28,10,10.21,1.63,20-.36,28.27-6.73,8.58-5.43,3.43-12.28,6.87-12.1,1.83,4.12-.71,9.07,2.51,12.9-4.57,13.7-20.18,18.53-33.15,19.24-2.9,1.6-7,.69-10.29,1.11C336.64,134.25,327.8,130.73,321.43,124.7Z"/><path class="cls-84" d="M383.72,124.32c1.44-2.51,2.37-5.44,4.6-7.4a2.29,2.29,0,0,1,1.16-1.44c9.68-7,17.25-17.36,19-29.38a34.49,34.49,0,0,1-22.59,12.79c-4.38-2.87-7.88-7.19-12.87-9.39-2.21-.52-2.34-2.77.27-2.69C391.49,88,423,76.33,403,55.14c.21-.52.31-1.12.94-1.35C426.19,76.68,411.71,113.51,383.72,124.32Z"/><path class="cls-85" d="M254.19,133.32c4.49.14,9.5,1.77,11.8,5.9.45.72.17,1.21-.67,1.36-22.16-7.52-46-15.65-60.23-35.54-20.77-27.58.29-59.41,28-71.06,2.74,1.26.66,2.54-.46,3.85-.35,1.4-1.62,1.92-2.62,2.65-28.94,17.33-38.39,49.91-9.88,72.91,9,8.83,20.66,13.51,32,18.36C253,132.11,253.89,132.34,254.19,133.32Z"/><path class="cls-86" d="M344.6,136.26a68,68,0,0,1,10.67-.44c.38.41,1.06.37,1.37,1-16.15,5.69-34.6,7.65-52,7.07,2.23-4,3.28-4.44,7.61-3.28,3.26-1.36,6.76-.87,10.14-1.21C329.93,139.08,337.21,136.76,344.6,136.26Z"/><path class="cls-87" d="M403.94,53.79a1.44,1.44,0,0,1-.94,1.35c-1.08-3.51-5.16-2.61-7.72-4.33-3.15-1.57-5.55-4.23-8.31-6.37A80.49,80.49,0,0,0,371,35.25c-2.52-1-5.32-3.45-4.37-6.53C380.75,33.86,394.64,41.77,403.94,53.79Z"/><path class="cls-88" d="M318.49,18.57c-3.19,1.31-6.49,3.1-10,3.35-7.39-.68-14.71.33-22,.89-1.34.11-2.71.28-3.84-.75-8.23.26-17,2-25,.45C277.56,19.86,298.58,15.47,318.49,18.57Z"/><path class="cls-89" d="M366.67,28.72c.21,2.67,2.86,4.36,2.86,7-1,6,2.85,14.62-6.81,13.22a3.52,3.52,0,0,1,1.35-3.57c6-5-.63-12.36.12-18.59C365.06,27.36,366.39,27.37,366.67,28.72Z"/><path class="cls-90" d="M363.64,135.25c1.44-2.69,4.11-2.45,6.77-2.32C369.67,136.22,366.12,135.12,363.64,135.25Z"/><path class="cls-91" d="M543.12,106.54c5.14-6.59,23.77-7.17,24.88,2.35C567.17,119.31,540.7,118.61,543.12,106.54Z"/><path class="cls-92" d="M269.5,71.52c11.4,5.38,4.15,15.84,9.91,23.5-6.3,1.83-12.34,3.56-17.79,6.76-9,3.1-19.21,2.41-28.62,1.64C221.93,102.2,208.42,93.6,210.43,81c3.6-13,18.21-13.58,28.67-17.48,4.3,1.48,8.86.55,13.24,1.38C258.2,66.28,264.91,67.52,269.5,71.52Z"/><path class="cls-92" d="M371.33,87.8c4.44,2.61,18.81,9.54,14.32,15.82-1.14,2.71.54,5.81-1.61,8.23-8,10.23-21.83,13.39-34.16,11.45-12.21-.32-26.25-5.71-31.8-17.22-.38-.67-.6-1.27.13-1.91,4-4.2,4.55-10.83,10.66-13.06C341.85,83.4,357.13,83.92,371.33,87.8Z"/><path class="cls-19" d="M238.92,63.81c-1.19,1.85-3.14,2-5,2.32-17.15,2.62-26.28,11.66-24.42,29.4.15,2.2-2.11,2.51-2.89.52-13.9-22.87,6.47-47,26.11-58.22,1.83.66,1,2.85,1.43,4.35,1.08,1.14.77,2.51.68,3.85-.35,5.47-.32,10.84,3.45,15.39A2.24,2.24,0,0,1,238.92,63.81Z"/><path class="cls-93" d="M211.17,86.82c7.81,19.8,33.19,17.07,50.45,15-4,3.78-7.5,8.16-7.78,13.88-5.1,1.93-11.44.73-16.91.6-2-1.76-4.5-1.74-7-1.72-2.51.42-4.11-1.05-6.08-2.2a8.87,8.87,0,0,1-5-3c-2.85-2.81-7.29-4.16-8.47-8.41C210.46,96.9,209,90.1,211.17,86.82Z"/><path class="cls-94" d="M238.92,63.81c-5.77-6.16-5.37-13.87-4.81-21.63,2.34.42,3,.9,2.83,3-.53,5.89,9.28,8.68,13.33,11.82,5.78,3.17,12.1,2.91,18.37,2.48A49.41,49.41,0,0,0,285,57.54c-.09.78-.66,1-1.05,1.28a23.89,23.89,0,0,0-7.7,9.57c-1,2-1.6,4.17-4.33,3.24-1.5-.31-3.08.19-4.36-.85-7.51-3.74-15.39-6-23.86-5.59A8.11,8.11,0,0,1,238.92,63.81Z"/><path class="cls-95" d="M236.59,115.55l17.25.11c1.21,5-.58,10.33,1.09,15.11.78,1.41.72,1.45-.74,2.55-8.81-3.57-17.61-7.18-25.62-12.39-3.44-1.74-15.8-11.06-4.47-9.21,1.37-.08,1.79,1,2.39,1.92C229.5,116.39,233.31,114.1,236.59,115.55Z"/><path class="cls-96" d="M368.47,48c.14-4.77-.56-9.62.56-14.31a74.4,74.4,0,0,1,25.33,16.23c.05.9-.45.73-1,.51A92.38,92.38,0,0,0,368.47,48Z"/><path class="cls-97" d="M282.64,22.06c9.7-.43,19.42-2,29.12-.84-4.06,3.56-9,7.07-9.73,12.83-.2,1-.18,2.11-1.56,2.29a28.8,28.8,0,0,0-15.64-12.15C283.78,23.84,282.65,23.51,282.64,22.06Z"/><path class="cls-98" d="M324.71,55.19a31.57,31.57,0,0,1,13-.48c5.06.84,9.62-3.64,14.44-1.46-5.66,3.6-8.56,9.65-10.51,15.61C338.66,61.79,331.49,58.24,324.71,55.19Z"/><path class="cls-99" d="M300.47,36.34c1.87-2-.15-5.82,3.18-6.7.19,4.47-1.38,8.94,1,13.13,1,1.74,2.71,8.56,5.29,7.24,2.83-1.69,5.93,1.2,7.21,3.64C294.63,52.9,303.21,56,300.47,36.34Z"/><path class="cls-100" d="M393.38,50.38c.37-.09.77-.12,1-.51a1.48,1.48,0,0,1,.92.94A2.21,2.21,0,0,1,393.38,50.38Z"/><path class="cls-98" d="M352.16,53.26a.93.93,0,0,1,1-.47A1.2,1.2,0,0,1,352.16,53.26Z"/><path class="cls-101" d="M344.6,136.26a100.41,100.41,0,0,1-32.32,4.32c5.45-6,8.34-6.55,9.15-15.88C328.84,129.22,336.37,133.54,344.6,136.26Z"/><path class="cls-102" d="M385.64,103.62c.05-1.73.09-3.46.13-5.2,6.8-2.13,15.18-1.86,19.19-8.68,2.36.17,2.74.69,2.35,3.29-3.5,10-9.8,18.49-19,23.9C384.12,113.92,386.29,108,385.64,103.62Z"/><path class="cls-103" d="M404.92,90.18C402.76,95,399,96.91,393.87,96.4,397.48,94.44,401.17,91.3,404.92,90.18Z"/><path class="cls-104" d="M407.31,93A3.18,3.18,0,0,0,405,89.74L409,83.88A12.85,12.85,0,0,1,407.31,93Z"/><path class="cls-104" d="M404.92,90.18h-.51l.54-.42C405,89.9,404.93,90,404.92,90.18Z"/><path class="cls-105" d="M211.17,86.82q0,7.44-.08,14.89c.35,1.11,1.15,2.23,0,3.35-3.11-3.77-6-8-6.65-13,2.95.16,1.71,3.73,3.84,4.9,2.08-4.74-2.23-12.9,2.78-16.41C211.09,82.67,211.13,84.74,211.17,86.82Z"/><path class="cls-106" d="M211.09,105.06v-3.35c2.1,3.27,5.81,4.66,8.5,7.26a6.91,6.91,0,0,0,4.51,2.75c-2,.28-4.14-.8-4.44,2A28.26,28.26,0,0,1,211.09,105.06Z"/><path class="cls-107" d="M236.59,115.55c-3.44-.16-8.15,2.19-10.11-1.91C229.82,114,234.19,112.51,236.59,115.55Z"/></svg>