<svg id="Layer_1" data-name="Layer 1" xmlns="http://www.w3.org/2000/svg" viewBox="0 0 80.76 266.15"><defs><style>.cls-1{fill:#fdfdfc;}.cls-2{fill:#f9f0e4;}.cls-3{fill:#332f34;}.cls-4{fill:#d1d5d5;}.cls-5{fill:#e1a035;}.cls-6{fill:#e1a135;}.cls-7{fill:#cca467;}.cls-8{fill:#3f3f41;}.cls-9{fill:#7f2021;}.cls-10{fill:#8f2425;}.cls-11{fill:#b86829;}.cls-12{fill:#35271f;}.cls-13{fill:#e09f38;}.cls-14{fill:#322824;}.cls-15{fill:#8f2525;}.cls-16{fill:#36291b;}.cls-17{fill:#35291c;}.cls-18{fill:#fac719;}.cls-19{fill:#322f2c;}.cls-20{fill:#f3b01a;}.cls-21{fill:#dda03c;}.cls-22{fill:#c54827;}.cls-23{fill:#392c1e;}.cls-24{fill:#37332d;}.cls-25{fill:#a5402b;}.cls-26{fill:#561514;}.cls-27{fill:#bdbfc1;}.cls-28{fill:#343434;}.cls-29{fill:#372c22;}.cls-30{fill:#e1a036;}.cls-31{fill:#322725;}.cls-32{fill:#e0a037;}.cls-33{fill:#342a20;}.cls-34{fill:#c74828;}.cls-35{fill:#442d18;}.cls-36{fill:#d1a65e;}.cls-37{fill:#2c282b;}.cls-38{fill:#70471e;}.cls-39{fill:#6e471d;}.cls-40{fill:#613e1b;}.cls-41{fill:#d3d7d9;}.cls-42{fill:#333332;}.cls-43{fill:#bebec0;}.cls-44{fill:#dba13b;}.cls-45{fill:#d8a040;}.cls-46{fill:#dba03c;}.cls-47{fill:#bcbdc0;}.cls-48{fill:#40351e;}.cls-49{fill:#bfb9b4;}.cls-50{fill:#cac3a9;}.cls-51{fill:#785020;}.cls-52{fill:#453521;}.cls-53{fill:#db3327;}.cls-54{fill:#423522;}.cls-55{fill:#da3227;}.cls-56{fill:#e08f42;}.cls-57{fill:#121213;}.cls-58{fill:#dca039;}.cls-59{fill:#dea03b;}</style></defs><path class="cls-1" d="M80.7,257c0,2.67-.06,5.35,0,8,0,1-.19,1.19-1.17,1.17-4.33-.07-8.66,0-13,0H0q0-132,0-264C0,.39.38,0,2.09,0q38.4.09,76.79,0c1.56,0,2,.29,1.86,1.88-.17,2.12,0,4.27,0,6.41A.56.56,0,0,1,80,8.13c-1.78-5.36-5.55-6.65-11-6.58-19.66.23-39.33.08-59,.11C4.77,1.67,3,3,1.48,8a8.58,8.58,0,0,0-.34,3.14c-.08,7.28.18,14.56.06,21.83.15,4.76-.16,9.51,0,14.27q0,103.88,0,207.76a6.71,6.71,0,0,0,.3,2.48c1.63,5.18,4.06,7,9.51,7,19.56,0,39.11-.07,58.67.05,4.87,0,8.17-1.78,9.77-6.46a3.24,3.24,0,0,1,.56-1A.56.56,0,0,1,80.7,257Z"/><path class="cls-2" d="M80.7,257h-.37c-.94-.8-.82-1.92-.82-3,0-20.65-.11-41.29,0-61.93-.07-5.27-.1-10.54,0-15.81,0-.56,0-1.13,0-1.69,0-1.1,0-2.19,0-3.29s0-2.48,0-3.73c0-1.85,0-3.7,0-5.56-.1-11.92-.13-23.84,0-35.76,0-.74,0-1.47,0-2.21,0-6.88-.1-13.76,0-20.64-.06-.85,0-1.7,0-2.54-.07-1.37,0-2.74,0-4.12-.09-1.09.07-2.18,0-3.27,0-1.24,0-2.49,0-3.73-.06-1.84-.09-3.68,0-5.52q-.17-6.78,0-13.56c-.1-3.61-.08-7.22,0-10.83-.07-.7.07-1.41,0-2.12,0-2.24,0-4.47,0-6.71-.12-1,.09-2,0-2.93,0-2.26,0-4.52,0-6.77-.06-1.71,0-3.42,0-5.13-.08-4.48-.1-9,0-13.44.07-.85-.09-1.7,0-2.55,0-2.36,0-4.73,0-7.09.11-.69,0-1.38,0-2.07.08-.95-.15-2,.74-2.72a1.63,1.63,0,0,1,.38,0Z"/><path class="cls-3" d="M80.17,192q0,12.24.09,24.48,0,20.24.07,40.49c-1,5.56-4.28,8.29-9.89,8.3H10c-4.81,0-8.08-2.71-9.16-7.49a11,11,0,0,1-.09-2.5q0-31.65,0-63.28c0-1.91,1.15-.95,1.79-.59,3.16,1.82,6.45,3.4,9.54,5.33,7.85,4.93,16.24,8.92,23.93,14.12,1.62,1.1,3.36,2.13,5.46,2a6.87,6.87,0,0,0,3.43-1.06C54.82,206.64,64.35,200.75,74,195,76,193.85,77.74,192.23,80.17,192Z"/><path class="cls-4" d="M.51,47.25.61,32.9c1.3-2.56,3.88-3.16,6.25-4a43.09,43.09,0,0,1,5.21-1.29A26.42,26.42,0,0,1,26.16,31.3a6.93,6.93,0,0,1,2.67,5.77c0,1.57,1,3.3.21,4.63S26.35,42.84,25,43.44A20.66,20.66,0,0,1,21.45,45a49,49,0,0,1-11.09.53A13.37,13.37,0,0,1,1.76,42a31.25,31.25,0,0,0-.21,3.91C1.4,46.48,1.41,47.22.51,47.25Z"/><path class="cls-5" d="M80.32,8.28,80.17,11A2.62,2.62,0,0,1,78,10.62,86.34,86.34,0,0,0,49,2.9,90.85,90.85,0,0,0,6.64,9c-1.48.59-2.85,1.43-4.34,2-.49.19-1,.38-1.5,0A7.6,7.6,0,0,1,.94,7.8C1.61,3.39,4.43.89,8.74.89H71.15C76.77.89,78.93,2.63,80.32,8.28Z"/><path class="cls-6" d="M.94,7.8,1,11a2.62,2.62,0,0,1,.63,1.91c0,2.22.06,4.44,0,6.66-.12.84.21,1.79-.51,2.53A36.33,36.33,0,0,1,7,17.34c.73-.47,1.4-1.21,2.43-.84a2.8,2.8,0,0,1,.84,2.33,19.33,19.33,0,0,0,1.52,9.08,4.67,4.67,0,0,1-1.55.85A18.87,18.87,0,0,0,.61,32.9c0-7.64,0-15.28,0-22.91A3.33,3.33,0,0,1,.94,7.8Z"/><path class="cls-7" d="M.51,47.25c.46-.39.34-1,.44-1.45,1.88,0,2.81,1.09,3.36,2.72a1.64,1.64,0,0,1-1.13,1.14c-.62.11-1-.53-1.59-.56a8.83,8.83,0,0,0,0,2c.08,2.21.08,4.42,0,6.63,0,.7,0,1.39,0,2.09.14,5.65.06,11.3.06,17-.14,1,.07,2,0,3,0,2.08.08,4.15,0,6.22,0,.55,0,1.1,0,1.64,0,1.5.07,3,0,4.48,0,1.09.06,2.18,0,3.28.06,1.65,0,3.31,0,5,0,.85.05,1.71,0,2.56.13,7.18.12,14.36,0,21.55,0,.59,0,1.18,0,1.77q.19,17.43,0,34.86c0,1.87.07,3.73,0,5.6,0,1.41,0,2.82,0,4.23.09,1.43.06,2.86,0,4.29.15,4.42,0,8.84,0,13.26A3.19,3.19,0,0,1,1,191c0,4.42-.09,8.84-.09,13.26q0,26.76,0,53.52c-.66-.89-.33-1.92-.33-2.87q0-53.35.05-106.7,0-32.85,0-65.7Q.55,64.86.51,47.25Z"/><path class="cls-5" d="M1,100.31l0-5.07c1-.67,1.73,0,2.5.44q4.8,2.66,9.5,5.45A16.14,16.14,0,0,0,26.4,102.7a10.41,10.41,0,0,0,1.07-.37c1.94-.86,3.81-2,4-4.26s-1.58-3.58-3.27-4.58c-4.19-2.49-8.38-4.95-12.62-7.34s-8.53-5-12.83-7.42A3.93,3.93,0,0,1,1,77V59.52c1-.5,1.78.15,2.55.53A77.41,77.41,0,0,0,26.11,67c2.84.45,5.75.35,8.52,1.28a50.77,50.77,0,0,0,12.38,0c3.06-1,6.27-.88,9.4-1.41A79.21,79.21,0,0,0,76.16,61c1.28-.58,2.48-1.51,4-1.29,0,3.63,0,7.26,0,10.89C79.39,71.68,78,71.85,77,72.62a7.22,7.22,0,0,0-3,7.3,9.15,9.15,0,0,1-.25,2.81c-.54,1.13-1.67,1.51-2.67,2a141,141,0,0,0-14.67,8.64c-3.77,2.44-3.57,5.42.37,7.65a14.06,14.06,0,0,0,13.49.45c2.63-1.19,5.08-2.7,7.6-4.08.7-.39,1.35-1.07,2.28-.61v4A4.53,4.53,0,0,1,78,102.76c-8.21,4.92-16.55,9.62-24.76,14.54a22.65,22.65,0,0,1-8.15,2.77c-3.14.51-4.21-.41-4.23-3.62,0-11.13-.07-22.26,0-33.39,0-2.7-.94-5.46.35-8.12a.81.81,0,0,0-.5-1.12,1.34,1.34,0,0,0-1.3,0A.78.78,0,0,0,39.19,75c1,1.7.68,3.56.68,5.37q0,17.39,0,34.77c0,.76,0,1.53,0,2.29-.15,2.28-1,3-3.23,2.6a24.12,24.12,0,0,1-8-3.1q-10.17-5.84-20.3-11.78c-1.7-1-3.46-1.9-5.15-2.92A4.43,4.43,0,0,1,1,100.31Z"/><path class="cls-5" d="M1,161.28V125.93c.2-.13.45-.28.63-.18,2.75,1.55,5.82,2.63,8.22,4.69,1.39,1.19,2.72,2.52,4.17,3.68.18,4,.78,4.62,4.61,5,1.15.15,2.45-.38,3.37.77,0,1.15-.92,1.69-1.53,2.42-3.65,4.3-3.41,9.15,1.05,12.58,7.84,6,16.77,7.43,26.26,5.38,4.61-1,9-2.61,12.48-6.13s3.43-7.84.35-11.48c-.75-.89-2-1.5-1.87-3,1.06-.87,2.33-.48,3.51-.56,3.73-.27,4.88-1.68,4.19-5.26,3.94-1.88,6.77-5.43,10.8-7.17.93-.4,1.72-1.32,2.91-.76v36.25c-1.73,2-4.23,2.93-6.43,4.22C63.9,172.14,54.11,178,44.3,183.76a4.81,4.81,0,0,1-5.33.05c-11.87-6.94-23.81-13.74-35.67-20.7A7.17,7.17,0,0,1,1,161.28Z"/><path class="cls-8" d="M9.68,18.83c-.17-.75.1-1.62-.54-2.25a2.29,2.29,0,0,1-.06-1.9c3.41-2.92,7-5.47,11.76-5.36,3.12.51,6.23-.08,9.34-.11,2.11,1.14,4.48,1.83,6.29,3.53a8.07,8.07,0,0,1,2.29,3.06,10.93,10.93,0,0,1,.52,4.88c-.21,1.36.43,2,1.72,2.05s2.69,0,4,.09c1.05.15,2.07.39,3.11.61,3.29,1.23,6.59,2.47,8,5.48a9.38,9.38,0,0,1,4.92-6.33c1.43-.43,2.69-1.34,4.19-1.58,1-.1,1.88-.37,2.84-.48a37.87,37.87,0,0,1,10.4.77c.87-.06,1.23.6,1.66,1.18V36.23c-2.54,2.18-5.71,1.89-8.71,2.17a6.08,6.08,0,0,0-2.16.35c-3.6-.4-7.16-1.33-10.83-1a15.73,15.73,0,0,0-9.41,4.09A5.75,5.75,0,0,0,48,49.32a31,31,0,0,1,.07,5.1c-.09.65-.16,1.31-.89,1.59-.78-.27-.51-1.19-1-1.7A22.14,22.14,0,0,1,28.39,58.4,15.6,15.6,0,0,1,19,53c.17,1.25,1,2.76-.55,3.93-1.59-1.83-.6-4-.83-6,.22-2.76,1.18-5.09,3.8-6.43A31.32,31.32,0,0,1,29,41.53c-1.45-3.22.12-7.24-3-9.83.71-1.83,2.13-3.2,3.07-4.93-.52-.76-1.22-.27-1.81-.19a19.11,19.11,0,0,1-15.17-3.77C10.65,21.69,10.57,20.09,9.68,18.83Z"/><path class="cls-5" d="M1,124.61,1,102.52c.92-.45,1.6.15,2.3.55,7.24,4.16,14.48,8.34,21.63,12.64a33.57,33.57,0,0,0,12.2,4.84c2.28.35,2.91,1.21,3.07,3.53a10.25,10.25,0,0,1-.15,2.28c-.56,3.33-.57,3.34-3.66,2,2.94,2.12,5.37,2.12,8.37,0-.65,0-1.09.53-1.67.65-1.18.25-2-.14-2.11-1.39a21.31,21.31,0,0,1,0-4.79,2.66,2.66,0,0,1,2.91-2.36c5.25-.13,9.59-2.58,13.9-5.19,6.56-4,13.27-7.69,19.87-11.59.73-.43,1.44-1.24,2.47-.68v21.13a2.81,2.81,0,0,1-1.37,1.45c-3.75,1.85-7,4.87-11.24,5.56-1.55.24-.75,2.12-2,2.39A24,24,0,0,0,60.2,133c-2.9.18-4.08,1.07-4.84,3.91a1,1,0,0,1-.9.88,6.53,6.53,0,0,1-2.41-.6,36.13,36.13,0,0,0-22.82-.07c-1,.34-2,.87-3.08.54a1.09,1.09,0,0,1-.56-.69c-.59-3.39-3-4-5.88-4a14.59,14.59,0,0,0-3.16.19,1.79,1.79,0,0,1-1-.17,5.15,5.15,0,0,0-2.52-1.8C8.5,130,4.69,127.38,1,124.61Z"/><path class="cls-9" d="M80.17,192C69.36,198.18,59,205.17,47.84,210.72c-2.06,1-3.76,2.9-6.33,2.74a4.27,4.27,0,0,1-.7-3c0-4,.07-7.9-.13-11.84.06-.79.62-1.15,1.25-1.48,10.18-5.25,20-11.19,29.8-17.07,2-1.17,3.85-2.45,5.9-3.45.79-.39,1.55-1,2.54-.68Z"/><path class="cls-10" d="M80.17,175.91c-8.3,4.38-16,9.76-24.33,14.15-4.93,2.61-9.33,6.24-14.8,7.83-2.23.18-3.83-1.35-5.5-2.35-10.79-6.49-21.79-12.63-32.63-19A6.82,6.82,0,0,1,1,175L1,170.87a6.08,6.08,0,0,1,3.66-2.23c1.69,0,2.9,1.16,4.26,1.93,4.2,2.36,8.39,4.74,12.54,7.19a7.62,7.62,0,0,1,2.14,1.65c2,2.2,4.78,3.4,7.28,4.94s5.05,3.06,7.56,4.6c3,1.83,5.59.33,8-1.22,4.44-2.88,9-5.52,13.62-8.15,2-1.14,3.75-1.94,6.46-1.47s5.95-.55,8.69-2.05c1.52-.84,3-2.22,5-1.53Z"/><path class="cls-11" d="M23.28,179.58c-6.15-3.65-12.21-7.47-18.67-10.56-1.33-.55-2.8-.88-3.61-2.27v-5.47c5,2.83,10,5.63,15,8.5q12,6.91,23.94,13.92a3.5,3.5,0,0,0,3.84-.25q17.88-10.56,35.77-21.11a2.29,2.29,0,0,1,.65-.16v5.5c-.55,1.19-1.72,1.62-2.74,2.25-5.65,2.79-11,6.23-16.48,9.25-4.92,2.67-9.69,5.61-14.41,8.62-3.08,2-6.12,2.75-9.67.31-4-2.77-8.38-5.11-12.6-7.61A3,3,0,0,1,23.28,179.58Z"/><path class="cls-5" d="M1,57.54l.08-7.27a1.76,1.76,0,0,1,1.48.43c6,5.09,13.42,7.34,20.64,10,5.47,2.94,11.22,2.56,17,1.48a69.49,69.49,0,0,0,19.36-2.29A8.83,8.83,0,0,0,62.13,59c2.73-.77,5.62-.83,8.19-2.39,1.43-.87,2.65-2,4.07-2.84A13.71,13.71,0,0,0,78,51.66c.63-.48,1.25-1.07,2.16-.86v7.08A4.08,4.08,0,0,1,78,59.82a76.24,76.24,0,0,1-24.47,7.32A97,97,0,0,1,38.6,68C27.31,67.63,16.33,65.73,6,60.89,4.2,60,2.18,59.37,1,57.54Z"/><path class="cls-5" d="M20.59,9.81c-4.64,0-8,2.9-11.53,5.25A43.15,43.15,0,0,1,1,20.21V12.89C3.15,10.2,6.38,9.3,9.36,8.15A86.15,86.15,0,0,1,32.76,3,86.62,86.62,0,0,1,66.15,6.29,61.81,61.81,0,0,1,78,11c.87.47,1.8.85,2.22,1.85v7.32c-.78.24-1.29-.3-1.79-.71C75,16.65,71,14.87,67,13.15a9.52,9.52,0,0,1-1.39-1.07c-4.81-3.8-10.32-4.66-16.21-3.84a13.08,13.08,0,0,1-3.58.41c-6.56-.53-13.06.22-19.57.86A27.78,27.78,0,0,1,20.59,9.81Z"/><path class="cls-12" d="M80.17,103.05c-8.2,4.75-16.42,9.48-24.6,14.27a23.9,23.9,0,0,1-11.32,3.74c-2.1.07-3.08,1-2.69,3.15a3.85,3.85,0,0,1,0,.68c0,1.21-.37,2.89.25,3.53,1,1.05,2-.72,3.16-1a1.38,1.38,0,0,1,1.28.12c-2.13,4.07-8.68,4-11.54,0,1.8-.7,2.83,1.22,4.44,1.2.09-.73.18-1.48.28-2.23.61-4.28.18-4.83-4-5.7a34.48,34.48,0,0,1-10.82-4.64Q13,109.14,1,102.52a3.7,3.7,0,0,1,0-2.21c9.14,5.27,18.3,10.52,27.41,15.85a27.9,27.9,0,0,0,8.65,3.34c1.65.33,2.33-.15,2.32-2-.1-13.44-.12-26.87-.17-40.3a2,2,0,0,0-.65-1.84c-.77-.58-1.11-1.37-.15-2.05a2.94,2.94,0,0,1,3.42-.13c1,.59.87,1.36.15,2.08a2.88,2.88,0,0,0-.76,2.31c.43,13,.18,26,.28,38.92,0,3.19.47,3.6,3.63,3a27.85,27.85,0,0,0,8.68-3.27c8.77-5.17,17.57-10.28,26.36-15.4Z"/><path class="cls-13" d="M80.17,89.8v3.81c-4.42,3.76-9.24,6.82-14.93,8.16a9.65,9.65,0,0,1-6-1,4.6,4.6,0,0,1-3-3.7c-.18-1.74,1.09-2.77,2.41-3.57,5-3,10.13-5.8,15.09-8.87.22,0,.6,0,.59.14-.08,2.06,1.78,2.51,2.87,3.59-.29,1.39-1.56.87-2.37,1.23-.52.23-1.39.24-1.16,1.07s1,.81,1.72.65c1.33-.31,1.61-1.73,2.5-2.51A2.12,2.12,0,0,1,80.17,89.8Z"/><path class="cls-14" d="M73.88,84.77c-.85,1.5-2.49,1.92-3.82,2.73-3.63,2.2-7.33,4.28-11,6.43-1.27.75-2.52,1.61-2.29,3.33s1.43,2.57,2.95,3.14a11.08,11.08,0,0,0,10-.71c3.46-2,6.93-4,10.4-6.08,0,1.06,0,2.12,0,3.17-3.27,1.77-6.48,3.64-9.82,5.27a14.24,14.24,0,0,1-14.51-.87c-3.6-2.23-3.74-5.76-.22-8A137.77,137.77,0,0,1,73.37,83C74,83.45,74.39,84,73.88,84.77Z"/><path class="cls-15" d="M23.28,179.58c4.71,2.74,9.52,5.34,14.09,8.3a6.76,6.76,0,0,0,7.66.2c4.27-2.45,8.43-5.09,12.67-7.59q8.8-5.2,17.67-10.29a10.52,10.52,0,0,1,2.14-.7,4.54,4.54,0,0,1,2.66,1.83v3.2a11.76,11.76,0,0,0-2.76,1c-2.79,1.86-5.92,2.56-9.12,3.14-1.21.22-2.43,1-3.47-.48-.37-.53-1,0-1.43.23A159.75,159.75,0,0,0,48,187.47a34.34,34.34,0,0,1-6.06,3c-1.41.6-2.75-.37-3.85-1-4.75-2.74-9.38-5.69-14.06-8.55A1.5,1.5,0,0,1,23.28,179.58Z"/><path class="cls-16" d="M80.17,12.85C53.77-.21,27.37-.35,1,12.89A2.88,2.88,0,0,1,1,11c9.84-5.34,20.49-7.7,31.53-8.75A88.58,88.58,0,0,1,75.23,8.69c1.68.69,3.3,1.54,4.94,2.31Z"/><path class="cls-17" d="M1,57.54c13.51,7.77,28.22,10.34,43.54,9.78,12.55-.46,24.6-3.13,35.65-9.44,0,.6,0,1.2,0,1.8a77.93,77.93,0,0,1-30.09,8.6,7.4,7.4,0,0,0-2.67.46,80.8,80.8,0,0,1-13.2,0c-3.58-.51-7.19-.91-10.75-1.56A77.19,77.19,0,0,1,1,59.52,3.7,3.7,0,0,1,1,57.54Z"/><path class="cls-18" d="M73.42,79.73c-.06-5.32,1.64-7.62,6.75-9.16V84.32c-2.89.22-4.47-1.83-6.19-3.63C73.73,80.43,73.65,80,73.42,79.73Z"/><path class="cls-19" d="M69.32,38.42c.66-1.44,1.88-.51,2.79-.57a34.7,34.7,0,0,0,8.07-1.62l0,5.08c-1.15,1.76-3.08,1.64-4.81,2C73.38,41.62,71,40.44,69.32,38.42Z"/><path class="cls-20" d="M73.42,79.73c2.1,1.75,3.94,3.89,6.75,4.59V89.8l-2.25-.88c-.43.17-.65-.07-.79-.43-2-.44-3.61-1.21-3.25-3.72L73.37,83C73.39,81.91,73.41,80.82,73.42,79.73Z"/><path class="cls-21" d="M75.31,42.94c1.62-.53,3.35-.73,4.84-1.63l0,6.8c-.94,1.74-2,3.26-4.37,2.83-1.09-.79-1.17-2-1.26-3.18C74.7,46.14,74,44.38,75.31,42.94Z"/><path class="cls-22" d="M65.71,133.36c-.35-2,.52-2.84,2.53-2.83,1.4,0,2.53-.92,3.7-1.58,2.76-1.56,5.49-3.18,8.23-4.77,0,.58,0,1.16,0,1.75-3.47,2-7.48,3.22-10,6.71-.78,1.07-2.25,1.12-3.56,1.14C66.08,134.05,65.71,134.09,65.71,133.36Z"/><path class="cls-23" d="M67.09,12.8C72,14.23,76.21,17,80.18,20.17v2.3c-.68.08-.82-.64-1.29-.89a.59.59,0,0,1-.64,0A63.45,63.45,0,0,0,67.7,14.94C67.25,14.3,66.59,13.72,67.09,12.8Z"/><path class="cls-24" d="M76.25,50.93c1.6-.53,2.6-1.91,3.93-2.82,0,.9,0,1.79,0,2.69-1.82,1.2-3.37,2.88-5.64,3.32A2.8,2.8,0,0,1,76.25,50.93Z"/><path class="cls-25" d="M80.17,171.33a4.92,4.92,0,0,1-2.66-1.83l2.66-1.82Z"/><path class="cls-26" d="M1,175c3.78,1.57,7.12,3.95,10.65,6,9.85,5.6,19.63,11.3,29.44,17,1,3.42.3,6.91.46,10.36.08,1.73,0,3.47,0,5.21-3.14.2-5.44-1.8-7.81-3.31-10.05-6.39-20.59-11.92-30.84-17.94-.66-.39-1.28-.82-1.91-1.23Z"/><path class="cls-27" d="M21.42,44.45c-1.57,1.72-3.1,3.46-3.22,6-1.64,1.2-3.54.79-5.27.62-3-.29-6.17-.46-8.75-2.48A8.12,8.12,0,0,0,1,45.8V40.14A12.31,12.31,0,0,0,9.2,44.73a39.44,39.44,0,0,0,8.62.05C19,44.67,20.21,44.51,21.42,44.45Z"/><path class="cls-28" d="M9.68,18.83a1.2,1.2,0,0,1,1.12.65c2,4.73,6.18,5.95,10.58,6.6a18.62,18.62,0,0,0,7.19-.35c.53-.14,1.33-.31,1.68.26s-.34,1.11-.76,1.44C28,28.59,27.92,30.91,26,31.7c-4-1.88-8.15-3.55-12.76-3.3a4.1,4.1,0,0,1-1.48-.49C9.32,25.28,9.4,22.08,9.68,18.83Z"/><path class="cls-29" d="M1,20.21c2.5-2,5-4.05,8.07-5.15.81.47.27,1,.08,1.52a51.65,51.65,0,0,0-8,6.18A3.49,3.49,0,0,1,1,20.21Z"/><path class="cls-30" d="M1,86.05V79.86c.85-.47,1.46.17,2.07.52,7.51,4.41,15.09,8.72,22.59,13.15A9.23,9.23,0,0,1,28.56,96c1.2,1.67.69,3.16-1.33,4.06-1.17-.56-.68-1.87-1.22-2.71-2-2.55-4.81-3.1-8.48-1.64a2.09,2.09,0,0,0-1.92,2.14,2,2,0,0,1-.92,1.74A1.88,1.88,0,0,1,13,99.39c-3.63-2.11-7.31-4.14-10.9-6.32A2.91,2.91,0,0,1,1,92l0-4.51c2-.13,3.31,1.11,4.46,2.52.54.66,1,1.35,1.94,1.43.67.06,1.52.13,1.67-.73s-.62-1-1.22-1.08A13.51,13.51,0,0,1,3,87.81,5.11,5.11,0,0,1,1,86.05Z"/><path class="cls-31" d="M1,92l13.57,7.65a1,1,0,0,1,.66,0c4,2.48,8.09,2.23,12.21.27,1.94-2.16,1.85-3.39-.79-5C22,92,17.26,89.33,12.56,86.58Q6.77,83.21,1,79.86A6.19,6.19,0,0,1,1,77Q14.71,85,28.4,92.89A12.07,12.07,0,0,1,31.07,95a4,4,0,0,1,0,5.75,8.14,8.14,0,0,1-3.83,2.37c-4.92,1.48-9.7,1.4-14.26-1.33-3.26-2-6.57-3.8-9.86-5.69A3.74,3.74,0,0,0,1,95.24,8.42,8.42,0,0,1,1,92Z"/><path class="cls-32" d="M4.18,48.55a35.69,35.69,0,0,0,14,1.86c.48,2.11-.42,4.34.53,6.4a1.09,1.09,0,0,1,.18,1.33c-.61.61-1.26.3-1.88,0A55,55,0,0,1,5.65,52.25c-1-.74-2.16-1.42-2.42-2.84Z"/><path class="cls-33" d="M3.23,49.41c4.27,4.38,9.83,6.46,15.3,8.72,1.79-.92,3.17,0,4.38,1.13.47.44,1.33,1.3-.15,1.74C15,58.55,7.33,55.81,1.05,50.27a3.17,3.17,0,0,1,.05-2.4Z"/><path class="cls-34" d="M1,124.61c2.71,1,5,2.81,7.49,4.15,1.58.84,3,1.91,4.94,2,1.1,0,2.31.44,2.16,2.05.11,1.34-.72,1.54-1.78,1.46A6.49,6.49,0,0,1,10,131.33c-.62-1.09-1.88-1.46-2.93-2L1,125.93C1,125.49,1,125.05,1,124.61Z"/><path class="cls-35" d="M1,86.05c2.51,1.16,4.7,3.09,7.68,3.14a1.29,1.29,0,0,1,1.4,1.46c-.06,1-.79,1.26-1.55,1.37-1.06.16-2.4.27-2.86-.81C4.73,89.05,2.76,88.44,1,87.45,1,87,1,86.51,1,86.05Z"/><path class="cls-25" d="M1,166.75c1.18.8,2.74,1,3.61,2.27L1,170.87Z"/><path class="cls-36" d="M34.22,68.74h13.2c-1,.88-2.16.48-3.22.42C40.88,69,37.51,69.78,34.22,68.74Z"/><path class="cls-37" d="M26,137.43c8.08-3,16.29-3.76,24.65-1.32,1.37.39,2.71.88,4.06,1.32.62.4,1-.51,1.6-.28a3.77,3.77,0,0,1,2.31,1.39,2,2,0,0,1,.23,1.2c.77.83,1.56,1.64,2.3,2.49,3.3,3.86,3.23,8.75-.36,12.33-4,4-9.12,5.61-14.44,6.64-7.55,1.47-14.74,0-21.6-3.33-.21-.1-.41-.19-.61-.3-7-3.89-9.93-11.06-2.33-17.43.37-.47.43-1.11.84-1.57a3,3,0,0,1,1.49-1.08A4,4,0,0,1,26,137.43Z"/><path class="cls-38" d="M58.87,139.74c-.41-.17-.48-.54-.5-.93.79-.79,1.71-.3,2.59-.27,2.31.08,4.55-1.24,4.44-2.62s-2.38-2.44-4.5-2.31c-2.43.14-4.14,1.24-4.72,3.74-.47.18-.92.81-1.45.08.09-3.09,1.4-4.59,4.57-5a10.24,10.24,0,0,1,6.41.94l.85.42c1.54,2.47.85,4.41-1.88,5.46C62.78,140,60.81,139.63,58.87,139.74Z"/><path class="cls-39" d="M13.8,134.26c.61-.47,1.47-.63,1.78-1.46l.82,0c.46-.27.83-.25,1.08.28,0,.51-.41.75-.76,1-2.08,1.64-2,2.61.33,3.87.52.27,1.13.42,1.39,1a.73.73,0,0,1-.16.6C14.2,139.27,13,137.84,13.8,134.26Z"/><path class="cls-40" d="M18.28,139.63v-.45c1.47-.68,2.94-1.29,4.54-.37a1.21,1.21,0,0,1-1,1.33C20.73,139.38,19.44,140,18.28,139.63Z"/><path class="cls-4" d="M75.31,42.94l-.14,5.2a6,6,0,0,1-2.57,3.33,17.17,17.17,0,0,1-12,3c-4.09-.41-7.88-1.2-11.27-3.58a6.33,6.33,0,0,1-1.94-1.88c-.28-1.24-2-2.32-1.26-3.48,1.26-2.07,2-4.48,4.46-5.86,6.11-3.41,12.33-3,18.71-1.29A21.69,21.69,0,0,1,75.31,42.94Z"/><path class="cls-41" d="M46,8.23c6.27-1.55,12.36-1.45,18.09,2a4.89,4.89,0,0,1,2.06,1.71,26.45,26.45,0,0,1,1.31,4.28c.64,2.32-.74,3.82-2.25,5.24l-4,1.54a19.93,19.93,0,0,1-13,.92l-3.07-.58a3.8,3.8,0,0,0-1.37-.74c-3.35-1.15-4.6-2.85-4.7-6.4a14.35,14.35,0,0,1,.09-2.7c.53-2.2,2.21-3.39,3.94-4.55A5.1,5.1,0,0,1,46,8.23Z"/><path class="cls-42" d="M22.76,61c1-.92,0-1.32-.53-1.67a6,6,0,0,0-3.7-1.2c.06-.44.13-.88.2-1.32V52.17c6.39,7.17,18.75,8.6,28,.77.51,1,.11,2.11.33,3.08.63,2.71-1.34,3.85-3.07,5.14a14.74,14.74,0,0,0-3.82,1.55c-4.89,1-9.77,1.52-14.61-.29A9.62,9.62,0,0,1,22.76,61Z"/><path class="cls-43" d="M47.41,49.05c1,.63,2.07,1.24,3.08,1.91,5.44,3.61,17.16,4.68,22.55-.52.77-.74,1.18-1.77,2.13-2.3a3.64,3.64,0,0,0,1.08,2.79l-1.73,3.19A16.27,16.27,0,0,1,62.41,59.2a9.44,9.44,0,0,1-4.14.58,18.72,18.72,0,0,1-10.78-5.32A21.77,21.77,0,0,1,47.41,49.05Z"/><path class="cls-44" d="M47.49,54.46c3.35,1.71,6.4,4.1,10.22,4.8-.12,1.15-1.13,1.08-1.85,1.28-3.28.9-6.68,1-10,1.44-.85.1-1.87.15-2.21-1C45.09,59.54,47,58.41,47,56Z"/><path class="cls-45" d="M68,14.75a35.88,35.88,0,0,1,10.88,6.83.59.59,0,0,1-.72.38A40.83,40.83,0,0,0,67.89,21,8.27,8.27,0,0,1,68,14.75Z"/><path class="cls-46" d="M43.26,9.37c-1.3,1.21-2.84,2.18-3.66,3.85-.62.72.14,2.14-1.24,2.48a14,14,0,0,0-6.57-5c-.52-.16-1-.37-1.11-1,1.21-1.29,2.87-.61,4.3-1,2.19-.55,4.5-.21,6.76-.17A1.58,1.58,0,0,1,43.26,9.37Z"/><path class="cls-47" d="M48.24,23.92a74.07,74.07,0,0,0,13-.92,10.87,10.87,0,0,0-4.88,7C54.41,26.63,51.35,25.23,48.24,23.92Z"/><path class="cls-48" d="M43.26,9.37c-4.21-.54-8.39.17-12.58.35a59.41,59.41,0,0,1-7.89.4c-.74-.06-1.52.2-2.2-.31,7.62-1.19,15.26-2.24,23-2,.8,0,1.68-.26,2.39.4Z"/><path class="cls-49" d="M38.36,15.7c.74-.66.12-2,1.24-2.48.22,2.39-.3,4.89,1.25,7.08.58.82.89,1.6,2.23,1.39a1.81,1.81,0,0,1,2.09,1.65c-1.94,0-4.15.51-5.76-.24-2.11-1-.17-3.43-.73-5.17A13.77,13.77,0,0,1,38.36,15.7Z"/><path class="cls-50" d="M68,14.75,67.89,21a5.44,5.44,0,0,1-2.7.45c2.25-2.74,1.68-5.78.94-8.84a2.58,2.58,0,0,1,0-.68,1.55,1.55,0,0,1,1,.86Z"/><path class="cls-51" d="M17.35,133.26l-1-.43a9.38,9.38,0,0,1,5.71-.27c2.94.58,3.65,1.61,3.91,4.87-.5.64-1.2.4-1.84.43-.51-3.39-1.55-4.25-5.18-4.22C18.41,133.64,17.8,133.83,17.35,133.26Z"/><path class="cls-15" d="M61.14,182.77c.49.21,1.74-.34,1.49.62-.37,1.41-1.9,1.8-3.22,2-.51.08-1.41-.24-1.28-.94C58.41,182.86,59.75,182.75,61.14,182.77Z"/><path class="cls-52" d="M43.61,61c1.67,1,3.37.08,5,0a29,29,0,0,0,9.07-1.69l4.69-.06c.05.76-.52.76-1,.9a66.48,66.48,0,0,1-21.22,2.61A3.22,3.22,0,0,1,43.61,61Z"/><path class="cls-53" d="M63.85,93.43l1.53.34c2.61.59,4.51,2.11,4.26,3.41s-3.45,3.31-5.45,3.06a9,9,0,0,1-3.67-1.11c-.86-.53-1.68-1-1.72-2.22a2.57,2.57,0,0,1,1.77-2.43A25.76,25.76,0,0,1,63.85,93.43Z"/><path class="cls-54" d="M77.13,88.49l.79.43c-1,2.91-2.36,3.79-4.27,2.87-.55-.26-1.13-.56-1.1-1.27s.57-1,1.13-1.25C74.78,88.72,76.11,89.33,77.13,88.49Z"/><path class="cls-55" d="M17.32,95.28c3.32-1.88,7.55-1,9.27,1.89.49,2.08-.63,3.1-2.38,3.75a8.91,8.91,0,0,1-6.62-.33,3.16,3.16,0,0,1-2.05-3C15.48,96.26,16.28,95.7,17.32,95.28Z"/><path class="cls-56" d="M17.32,95.28c-.84.78-1.67,1.56-1.24,2.88a3.26,3.26,0,0,0,2.6,2.2,8.64,8.64,0,0,0,5.72-.16c1.37-.57,2.29-1.41,2.19-3,.79.76-.16,2,.83,2.73-3.84,3.08-8.24,3-12.87-.3a4.58,4.58,0,0,0,.54-2.13A2,2,0,0,1,17.32,95.28Z"/><path class="cls-57" d="M56.53,148.09c.39,3.41-1.75,5.17-4.17,6.53-7.87,4.41-15.82,4.28-23.77.14-5.51-2.86-6-9.24-.85-12.64a19.89,19.89,0,0,1,13.69-3.44c4.11.49,8.13.88,11.54,3.4C55,143.57,57.06,145.16,56.53,148.09Z"/><path class="cls-58" d="M17.35,133.26a9,9,0,0,1,5.12.33c2.21.91,2.65,1.95,1.71,4.27l-1.36.95-4.54.37a4.67,4.67,0,0,0-.57-.33c-1.36-.55-3-.75-3.1-2.76S16.15,133.92,17.35,133.26Z"/><path class="cls-59" d="M56.18,137.35c-.55-2.3.68-3.39,2.66-4a7.39,7.39,0,0,1,6.12.73c1.74,1,1.7,2.86,0,4-2.08,1.35-4.32,1.12-6.58.74Z"/></svg>