<svg id="Layer_1" data-name="Layer 1" xmlns="http://www.w3.org/2000/svg" viewBox="0 0 80.29 264.58"><defs><style>.cls-1{fill:#f2ecd6;}.cls-2{fill:#252c58;}.cls-3{fill:#fdfdfc;}.cls-4{fill:#3bb1b2;}.cls-5{fill:#f2ecd7;}.cls-6{fill:#dfe0dc;}.cls-7{fill:#40476d;}.cls-8{fill:#ececd9;}.cls-9{fill:#fafbfb;}.cls-10{fill:#44b1b3;}.cls-11{fill:#3fafb0;}.cls-12{fill:#4a99a5;}.cls-13{fill:#377a7f;}.cls-14{fill:#5d6282;}.cls-15{fill:#2e7376;}.cls-16{fill:#1e5e6b;}.cls-17{fill:#add2d0;}.cls-18{fill:#cdd4ca;}.cls-19{fill:#6fc3c3;}.cls-20{fill:#5e637f;}.cls-21{fill:#7c857f;}.cls-22{fill:#256c78;}.cls-23{fill:#edb00a;}.cls-24{fill:#f0ecd6;}.cls-25{fill:#eeebd5;}.cls-26{fill:#605f59;}.cls-27{fill:#63625c;}.cls-28{fill:#777572;}.cls-29{fill:#72716e;}.cls-30{fill:#776b4a;}.cls-31{fill:#5e5d58;}.cls-32{fill:#706e6b;}.cls-33{fill:#64635c;}.cls-34{fill:#62625c;}.cls-35{fill:#676660;}.cls-36{fill:#dcb233;}.cls-37{fill:#6f4c19;}.cls-38{fill:#5a5753;}.cls-39{fill:#62605a;}.cls-40{fill:#6a5a39;}.cls-41{fill:#838175;}.cls-42{fill:#41797a;}.cls-43{fill:#7d7b6f;}.cls-44{fill:#7d7d76;}.cls-45{fill:#66675f;}.cls-46{fill:#838174;}.cls-47{fill:#5a5b54;}.cls-48{fill:#888385;}.cls-49{fill:#879186;}.cls-50{fill:#8b887d;}.cls-51{fill:#807d77;}.cls-52{fill:#b2b4c1;}.cls-53{fill:#575756;}.cls-54{fill:#a5a49c;}.cls-55{fill:#5c5a58;}.cls-56{fill:#646066;}.cls-57{fill:#858175;}.cls-58{fill:#6c6c69;}.cls-59{fill:#252c55;}.cls-60{fill:#4b93a2;}.cls-61{fill:#eeecd7;}.cls-62{fill:#595952;}.cls-63{fill:#5f5f4f;}.cls-64{fill:#555452;}.cls-65{fill:#f0ecd7;}.cls-66{fill:#deac24;}.cls-67{fill:#e9e5cd;}.cls-68{fill:#6f4d0f;}.cls-69{fill:#eee9cf;}.cls-70{fill:#67665f;}.cls-71{fill:#635e4f;}.cls-72{fill:#666264;}.cls-73{fill:#56817f;}.cls-74{fill:#1f5f66;}.cls-75{fill:#50a8aa;}.cls-76{fill:#465c59;}.cls-77{fill:#29696e;}.cls-78{fill:#307274;}.cls-79{fill:#6ca09e;}.cls-80{fill:#242c53;}.cls-81{fill:#686663;}.cls-82{fill:#504e47;}.cls-83{fill:#c5c9c5;}.cls-84{fill:#e9af11;}.cls-85{fill:#7f5f1b;}.cls-86{fill:#4f4f4d;}.cls-87{fill:#666562;}.cls-88{fill:#e5be50;}.cls-89{fill:#76756e;}.cls-90{fill:#3e3b30;}.cls-91{fill:#e1e2de;}.cls-92{fill:#edb009;}.cls-93{fill:#795814;}.cls-94{fill:#71541b;}.cls-95{fill:#ebe1b8;}.cls-96{fill:#694c10;}.cls-97{fill:#e0ca78;}.cls-98{fill:#3bb0b1;}.cls-99{fill:#859084;}.cls-100{fill:#624e29;}.cls-101{fill:#4b494c;}.cls-102{fill:#ece2c0;}.cls-103{fill:#e7b115;}.cls-104{fill:#cdcec7;}.cls-105{fill:#74746d;}.cls-106{fill:#6d6a66;}.cls-107{fill:#77766e;}.cls-108{fill:#e8b011;}.cls-109{fill:#1f6f79;}.cls-110{fill:#d4ae34;}</style></defs><path class="cls-1" d="M80.22,8.24V138.9a25.68,25.68,0,0,0-6.36-.82c-1.38,0-1.86-1-2.18-2.19-.26-.95-.57-1.94-1.73-2.14s-2.35-.42-3.12.63a2.92,2.92,0,0,0,0,3.39c.46.76,1.22,1.35,1.17,2.37-.14,2-1.64,2.36-3.14,2.75a15.11,15.11,0,0,0-4.08,4,3.85,3.85,0,0,1-.37.86,20.66,20.66,0,0,0-1.58,4.47,5,5,0,0,0,0,3.2c.45,2.32.23,4.76,1.22,7A14.49,14.49,0,0,0,62,165a3.58,3.58,0,0,0,.86.69c2.78,1.49,2.79,1.58.48,3.92-.72.74-1.48,1.45-2.13,2.26a2.73,2.73,0,0,1-.71.6A6.09,6.09,0,0,0,58,174.78a3.39,3.39,0,0,1-.41.44,14.71,14.71,0,0,0-2.81,3.47A8.37,8.37,0,0,0,53.65,183a9,9,0,0,1-1.19,5.22c-1.38,1.85-2.68,3.78-4.84,4.86-2-2.64-3.27-5.77-5.4-8.34a2.07,2.07,0,0,1-.1-2.57c3.32-4.61,2.59-9.67,1.89-14.83-.86-6.36-2.06-12.66-2.07-19.14a33.77,33.77,0,0,1,5.89-19.87,3.17,3.17,0,0,1,.37-.58c2.32-2.37,4.51-4.9,7.28-6.78,1.15-.79,1.26-1.57.22-2.54-.78-.72-1.53-1.47-2.31-2.18-1.48-1.34-1.34-2.27.61-3.16s4.23-1.61,6.2-2.73c.79-2.2.25-4.46.3-6.69,0-1.09-.9-1-1.65-1-1.63-.09-3.29.16-4.89-.37-1.81-.6-2.16-1.31-1.3-3a11,11,0,0,0,1.15-2.42A36.76,36.76,0,0,1,61,87.41a19.31,19.31,0,0,0,3.22-2.48,19.39,19.39,0,0,0,2.82-2.54,1.7,1.7,0,0,0,.18-2.57C65.52,77,62.72,75.59,60,74.12c-.73-.7-2.26-.74-1.95-2.33a6,6,0,0,1,2.68-1.6,2.45,2.45,0,0,0,1.55-2.74c-.14-1.37-1.15-1.58-2.28-1.71-2.81-.32-3-.65-2-3.22a7.76,7.76,0,0,0,.36-5.33,7.82,7.82,0,0,1-.27-4,6.92,6.92,0,0,0-.2-3.13c-.55-2-.24-2.38,1.85-2.42a5.53,5.53,0,0,0,.91,0A1.67,1.67,0,0,0,62.22,46a1.71,1.71,0,0,0-1.52-1.93,3.79,3.79,0,0,0-3.27.41,2.79,2.79,0,0,1-3.2.24c.89,2.38.05,3.38-2.09,3.44-.45,0-1,.28-1.1.68-.35,2.48-2.66,4-3.06,6.42a1.86,1.86,0,0,1-.7.77,10,10,0,0,0-4.52,3.23A5,5,0,0,0,41.58,63c.25,2.42-.42,3.14-2.86,3.22-3,.09-6-.09-9,.07S25.62,67.36,25,70.13c-.55,2.4,0,3.1,2.47,3.33,1.34.24,1.69,1.51,2.45,2.35,2.25,3.44,4.71,6.77,5.67,10.89.6,1.75.38,3.57.41,5.36a8.09,8.09,0,0,1-1.36,4.27c-1.26,1.83-2.7,2-4.38.62-.35-.29-.67-.61-1-.93-1.12-1.12-2.15-1.18-3.27.07s-2.41,2.9-3.63,4.34c-.11.18-.23.35-.35.51-1.09,1.72.52,1.92,1.41,2.53a13,13,0,0,1,2.52,2.09,9.55,9.55,0,0,1,.92,1c1.21,1.63.78,2.85-1.22,3.23a32.15,32.15,0,0,1-4.71.15c-.68,0-1.52,0-.95,1.1a29.18,29.18,0,0,1,5.22,10.88,15.67,15.67,0,0,1,.39,3.12v4.4c-.34,6.18-3.06,11.52-6,16.76-3.11,5.56-7.22,10.47-10.43,16a23.75,23.75,0,0,0-2.79,6.43,6,6,0,0,0,.19,3.78,14.3,14.3,0,0,0,.71,1.41c.32.55,1,1.21.14,1.74a1.49,1.49,0,0,1-2.14-.6,11,11,0,0,1-1.09-2.71,6.71,6.71,0,0,1-.23-1.4,46.4,46.4,0,0,0-1.14-5.07A2.33,2.33,0,0,1,3,164.36a3.45,3.45,0,0,0,.83-2.71c-.32-1.8.39-2.91,2.31-3.42-3.27-.62-4.44-3.06-5.32-5.78a10.67,10.67,0,0,1-.3-3.38c0-16,0-32.11,0-48.16,0-1.72-.71-3.45.06-5.15C2.08,92,2.4,88,3.41,84.13q2.51-9.66,5.95-19A195.12,195.12,0,0,1,23.22,36.45q6.12-9.86,13.14-19.1a27.78,27.78,0,0,0,2.35-2.85c.18-.26.37-.51.57-.76A68.81,68.81,0,0,1,52.25.91,2.09,2.09,0,0,1,53.66.28c5.5,0,11,0,16.5,0C76.44.28,78.79,2.14,80.22,8.24Z"/><path class="cls-2" d="M7.75,264.55H7.3C2.41,262.94.46,260.26.53,255c0-2.16-.4-4.35.32-6.48,1.07-.74,2.19-.29,3.27-.07,16.65,3.46,33.35,6.71,50,10.25a1.9,1.9,0,0,1,.92.45,6.16,6.16,0,0,1,.87,1.32c0,.61-.27,1.22,0,1.84,0,.77.73,1.8-.74,2q-22.59,0-45.17,0A4,4,0,0,0,7.75,264.55Z"/><path class="cls-1" d="M80.22,214.93v18.66a1.67,1.67,0,0,1-.65.36c-6.16-1.11-12.36-2-18.33-4-2.15-.57-4-2.14-6.44-1.87A2.08,2.08,0,0,1,52.58,226a28.76,28.76,0,0,0-1.33-6.64A3.24,3.24,0,0,1,53.87,215a4.74,4.74,0,0,0,4.37-3.28,1.72,1.72,0,0,1,.61-.65c1.86-.67,3.56.28,5.33.53a34,34,0,0,0,3.6.79,3.8,3.8,0,0,1,1.3.07,38.7,38.7,0,0,0,5.29,1.35A17,17,0,0,1,80.22,214.93Z"/><path class="cls-3" d="M1,248.62c0,2,0,4,0,6.08a9.11,9.11,0,0,0,5.6,9.15c.32.15.73.23.78.7-2.12,0-4.23-.05-6.35,0-.78,0-1.06-.15-.91-.94a7.22,7.22,0,0,0,0-1.14Q.05,132.3,0,2.09C0,.39.39,0,2.09,0Q40.25.09,78.41,0c1.55,0,2,.29,1.86,1.87-.18,2.11,0,4.24,0,6.37a20.1,20.1,0,0,0-1.57-3.46A9.23,9.23,0,0,0,70.85.51c-6,0-11.91,0-17.87,0-1.12.84-2.44.66-3.7.67q-18.76,0-37.51,0A10.19,10.19,0,0,0,3.51,4.64a10.2,10.2,0,0,0-2,4.72,8.77,8.77,0,0,0-.31,2.93c0,19.85-.19,39.7.11,59.55.1,6.11.44,12.23.36,18.36,0,1.29-.17,2.57-.22,3.85.07.55-.23,1.1,0,1.65a1.8,1.8,0,0,0-.83,2.15,13.43,13.43,0,0,1,.36,4.72q0,23.43,0,46.86c0,1.24.43,2.37.47,3.58a2.77,2.77,0,0,1,.41,2.2,7.33,7.33,0,0,0-.21,2c0,6.28.23,12.55,0,18.83a7,7,0,0,0,.06,1.29c0,6.75.05,13.49,0,20.24,0,.4-.06.81-.07,1.22s0,1,0,1.58v.78c.06,1.41,0,2.83,0,4.24,0,1.76,0,3.51,0,5.27a3.61,3.61,0,0,0,.44,1.69,1.75,1.75,0,0,1-.06.72c-.62,1.84-.37,3.73-.37,5.61.14,9.06,0,18.12.05,27.18A3.85,3.85,0,0,1,1,248.62Z"/><path class="cls-4" d="M80.22,152.1V153a2,2,0,0,1-2.11.4,5,5,0,0,0-3.87.59c.74,2.49,2.89,3.83,4.52,5.59.53.58,1.35,1,1.23,2v12.15c.08,1.07-.84,1.46-1.43,2.06a4.88,4.88,0,0,0-1.4,2.42c-1,2.14-2.2,4.17-4.64,5A5.32,5.32,0,0,0,69.38,186a1.6,1.6,0,0,1-.63.2,1.28,1.28,0,0,1-.93-.36c-1-2.73.43-4.83,1.91-6.84a21,21,0,0,1,3.16-3.24c3.55-3.09,4.15-7.18,4-11.54a7.3,7.3,0,0,0-1.79-3.85c-1.66-2.34-3.25-4.73-4.78-7.15-1.33-2.1-.84-3.31,1.52-4.09s2.46-.81,2.71-3.13a8.32,8.32,0,0,1,5.7,1.13v3.65C79.05,151.19,79.31,151.65,80.22,152.1Z"/><path class="cls-5" d="M72.14,182.6c2.48-.4,3.21-2.63,4.47-4.3.83-1.46,1.21-3.45,3.61-3v27.77A1.29,1.29,0,0,1,79,203c-.84-.53-1.8-.93-2.24-1.93a14.17,14.17,0,0,0-1.43-8,10.84,10.84,0,0,0-4.84-5.48,2,2,0,0,1-.91-.93C69.17,184.47,71.17,183.87,72.14,182.6Z"/><path class="cls-1" d="M67.55,140.28a1.78,1.78,0,0,0-.89-1.67c-1.52-1.19-1.16-3-.72-4.37.6-1.91,2.5-1.16,3.91-1.24,1.65-.11,2.18,1,2.33,2.41.18,1.75,1.12,2.32,2.87,2.17s3.77-.38,5.17,1.32v7.74c-1.61-.26-3.22-.65-4.83-.85a2.57,2.57,0,0,1-2.53-2.39c-.71-1.24-2.43-.4-3.18-1.55-.5-.49-.09-1.39-.82-1.76C68.42,140.15,68,140.56,67.55,140.28Z"/><path class="cls-6" d="M69,212.68l-1,.42c-1.08-1-2.56-.67-3.79-1.16a32,32,0,0,0-6.59-1.12c-2.43-.68-5-.93-7.35-1.82a1.3,1.3,0,0,1-.49-.57c.23-.79.9-.83,1.53-.93a69.19,69.19,0,0,1,9.49,1.74c6.08,1.31,12.23,2.29,18.26,3.84a3.07,3.07,0,0,1,1.17.94v.91c-2,.58-3.9-.81-5.91-.46C72.78,213.12,70.59,213.75,69,212.68Z"/><path class="cls-7" d="M7.75,264.55c.64-.82,1.54-.44,2.32-.44q22.82,0,45.63,0c.14.09.19.19.17.3s-.07.17-.11.17Z"/><path class="cls-8" d="M80.22,153.92v5.47c-.5.5-1.11,1-1.7.25-1.33-1.59-2.94-2.92-4.13-4.64-.27-.38-.08-.69.2-1C76.44,152.62,78.34,153.52,80.22,153.92Z"/><path class="cls-9" d="M80.22,257.27c0,2.12,0,4.25,0,6.37,0,.79-.14,1-.93.94-2.12-.08-4.23,0-6.34,0-.16-1,.83-1,1.24-1.56a8.13,8.13,0,0,0,4.24-3.66c.55-.62.67-1.49,1.21-2.12A.43.43,0,0,1,80.22,257.27Z"/><path class="cls-10" d="M71.62,264.55H60.75a1.44,1.44,0,0,1-.44-2.37c1.17-.68,2.37-.12,3.5.05,2.14.33,4.26.82,6.38,1.26C70.81,263.62,71.61,263.56,71.62,264.55Z"/><path class="cls-11" d="M60.27,262.45a3.68,3.68,0,0,0,.48,2.1h-5l-.06-.47c-.15-.76-.31-1.51-.46-2.26.85-1.57,2.12-.79,3.29-.6a4,4,0,0,1,1.5.66A.75.75,0,0,1,60.27,262.45Z"/><path class="cls-12" d="M74.43,263.29c0,1-1.13.65-1.45,1.26h-.91c-.33-.81-1.09-.63-1.72-.77-3.41-.73-6.89-1.14-10.25-2.14-.68-.67-.63-1.19.36-1.36a7.17,7.17,0,0,1,2.44.17c1.19.28,2.38.53,3.59.74C69.11,262,72,261.84,74.43,263.29Z"/><path class="cls-13" d="M73.44,143c0,1.73,1,2.2,2.6,2.43s3,.1,4.18,1.23v.45l-5.83-.89c-1.92-.41-3.57-1.17-4.17-3.28A3.3,3.3,0,0,1,73.44,143Z"/><path class="cls-14" d="M80.22,257.27H80l-.21.06a3,3,0,0,1-.76-2.51c0-5.8-.11-11.6.06-17.39,0-1.32-.29-2.69.68-3.84h.44Z"/><path class="cls-15" d="M74.81,154.36c.58,2,4,5.2,5.41,5v.91c-.16.14-.19.41-.46.45-2.21-1-6.07-5.27-6.21-6.92C74.13,153.64,74.73,153.38,74.81,154.36Z"/><path class="cls-16" d="M60.26,261.41c3.71.74,7.4,1.5,11.11,2.21.62.12,1,.19.7.93h-.45a69.37,69.37,0,0,0-11.35-2.1l0-.21A.55.55,0,0,1,60.26,261.41Z"/><path class="cls-17" d="M74.81,154.36c-.27-.55-.83-.38-1.26-.53a4.44,4.44,0,0,1,4.26-1.1,8.24,8.24,0,0,0,2.41.28v.91c-.77.51-1.55.13-2.33,0A4.24,4.24,0,0,0,74.81,154.36Z"/><path class="cls-18" d="M79.39,202.62l.83.47v2.28a.93.93,0,0,1-.57.25,7.6,7.6,0,0,1-2.54-1.39,2.1,2.1,0,0,1-.88-1.26,1.25,1.25,0,0,1,.22-1.07c.4-.46.8,0,1.22,0C78.29,202.06,78.56,203.06,79.39,202.62Z"/><path class="cls-19" d="M79.76,160.75l.46-.45v14.11a.29.29,0,0,1-.48-.11Q79.74,167.52,79.76,160.75Z"/><path class="cls-20" d="M79.73,205.44l.49-.07V214l-1-.4C79.14,210.88,78.5,208.11,79.73,205.44Z"/><path class="cls-21" d="M79.74,174.3l.48.11v.91c-2,0-2.51,1.86-3.61,3A4.69,4.69,0,0,1,79.74,174.3Z"/><path class="cls-22" d="M80.22,152.1c-.92,0-1.93.18-2.55-1,.83-.59,1.73-.23,2.55-.33Z"/><path class="cls-1" d="M25.17,105.65l-1.77-1.79c-1.08-.8-3-1.18-1.6-3.22l0,0c1.48-1.6,2.72-3.4,4.25-5,.95-1,1.87-1.2,2.94-.29s2.08,3,4.06,2.13,2.39-2.79,2.67-4.71a13.21,13.21,0,0,0-.43-6.15c-1-4.29-3.51-7.81-6-11.32a20.59,20.59,0,0,0-1.76-2.3c-1.81-2-1.25-4,1.33-4.81s5.47-.58,8.23-.39c1.51.43,3.11.35,4.62.81a3.56,3.56,0,0,1,2.18,1.75C46,73.53,49,74,52.46,73.23a28.91,28.91,0,0,1,5.18.08,3.9,3.9,0,0,1,1.3.58c2,2.39,2.16,3.29.51,5.81a99.38,99.38,0,0,1-9.23,11.14,37.75,37.75,0,0,0-4,5.19c-2.7,4.33-2.18,6.06,2.35,8.32a3.27,3.27,0,0,1,.58.39,6.25,6.25,0,0,1,2.28,2.14c1.13,2.22-.39,4.73-3.28,5.21-1.33.22-2.4.26-2.55,2.08-.11,1.38-1.53,1.27-2.55,1.14a85.78,85.78,0,0,1-11-2.13c-.27-.13-.52-.29-.79-.41a1.9,1.9,0,0,0-.42-.15c-.08.32.28.21.37.37a3.07,3.07,0,0,1,.51.35,26.69,26.69,0,0,1,4.41,4.9c1.92,3.33,2,6.93,1.51,10.59-.55,4.37-1.84,8.58-2.85,12.85a34.26,34.26,0,0,0-.39,16.17,60.21,60.21,0,0,1,2.08,13.22,12.12,12.12,0,0,1-.75,4.91c-1.06,2.55-2.8,4.08-5.67,4.05-3.38-.22-6.37-2-9.73-2.43-1.41-.17-2.81-.24-4.22-.31a6.89,6.89,0,0,1-1.11-.15,8,8,0,0,0-3.06-.54c-2.91,0-4.42-1.72-5.66-4-1.08-3.95.66-7.24,2.56-10.43,3.71-6.2,8.33-11.8,11.72-18.21,2.37-4.47,4.42-9.07,4.71-14.25a21.44,21.44,0,0,0,0-5.31,23.3,23.3,0,0,0-4.4-11.65c-.52-.74-1-1.49-1.5-2.24.4-1.1,1.37-1,2.24-1,1.27,0,2.53,0,3.8,0,.84,0,1.71-.11,2.07-1s-.52-1.44-1-2A2.71,2.71,0,0,0,25.17,105.65Z"/><path class="cls-2" d="M.88,9.17C1.76,3.55,5.19.59,11,.58q21,0,42,0c-.12.26-.16.62-.36.77A81.33,81.33,0,0,0,39.45,14.17c-1.4.39-1.9,1.82-3,2.62-2.18,2.56-4.55,5-6.58,7.65A164.46,164.46,0,0,0,1.65,74.53C.58,74,.74,73.47.74,73.06q0-31.5,0-63A2.06,2.06,0,0,1,.88,9.17Z"/><path class="cls-23" d="M48.5,104.79c-5.49-2-5.8-5-2.27-9.75C50,90,54.26,85.27,58.29,80.4c1.53-1.84,2.61-3.76.66-6,1.2-.94,2,.22,2.93.59a7.76,7.76,0,0,1,3.71,2.68c.46,1.11,1.79,1.88,1.33,3.36-1.22,1.78-2.82,3.23-4.16,4.91a1.65,1.65,0,0,1-1.92.76c-.64-1.54-1.05-.11-1.65,0,.4.82,1.17.26,1.57.68.25,1.07-.71,1.41-1.23,2A38.12,38.12,0,0,0,53,98.44a3.33,3.33,0,0,1-.36.56c-1.33,2.7-1.08,3.17,1.82,3.44,1.69.16,3.4-.17,5.08.22a1.52,1.52,0,0,1,1,1.4c0,2.29.77,4.6-.11,6.88L54,113.72c-1.27.56-1.64,1.12-.27,2.16s3.47,2.25,3.6,3.81-2.39,2.14-3.6,3.33c-1.71,1.69-3.44,3.36-5.16,5-.58-.37-.16-.89-.19-1.35h-.16c-.67.65-.07,1,.37,1.31-1.62,3.22-3.7,6.19-4.69,9.75-2.17,7.81-1.28,15.61-.16,23.43.73,5.08,2,10.13,1.31,15.33a10.52,10.52,0,0,1-2.3,5.82c-.54.61-.9,1.23-.19,2,2.41,2.51,3.72,5.75,5.56,8.64,1.1,1.19,1,2.78,1.38,4.2a15.92,15.92,0,0,1-1.76,9.72,6.24,6.24,0,0,0-1,2c-.91,1-1.48,1.94-.61,3.39,2.21,3.67,1.6,6.51-1.83,9.49a7.06,7.06,0,0,1-4.61.6,65,65,0,0,1-10.9-2.68c-2.36-1.16-5-1.38-7.47-2.17a9.13,9.13,0,0,1-1.3-.31c-.74-.36-2.12-.25-1.88-1.47s1.46-.67,2.3-.71c2.62.63,5.35.43,7,1-7.31-.77-15.49-2.33-23.7-3.7a3.8,3.8,0,0,1-2.63-1.09,28.83,28.83,0,0,1,0-5.65c1.24-2.31,3.59-2.26,5.71-2.69a5.43,5.43,0,0,1,1.39.14c4.12,1.2,8.2,2.54,12.3,3.8a89.86,89.86,0,0,0,21.22,4.43c-1.77-1.61-4-2.18-6.16-2.92-4-1.35-8.09-2.53-12.16-3.71-.83-.23-1.82-.27-2.1-1.37,1.13-1.14,2.57-.68,3.86-.66a12.85,12.85,0,0,0,6.13-1.23,5.76,5.76,0,0,0,2.82-8.17c-1.46-3.11-4.06-5.22-6.4-7.58-.59-.6-1.65-.95-1.32-2.13,1.33-.84,2.64-.07,3.92.16A70.11,70.11,0,0,0,38,184.71a5.53,5.53,0,0,0,2.7-.34,16.42,16.42,0,0,0-5.42-2.49c-1.42-.49-2.87-.89-4.29-1.39-.46-.17-1.08-.23-1-1,4.11-.12,5.52-3.34,5.75-6.81.31-4.83-.81-9.5-1.95-14.11a35.23,35.23,0,0,1,.42-17.46c1.29-5,2.78-10.06,2.91-15.33a14.65,14.65,0,0,0-1.78-7.86c-.81-2-2.49-3.23-4.12-4.48h0c-.22-.54-.32-1,.52-1a82.8,82.8,0,0,0,12.08,2.32c1.09.14,1.6-.3,1.18-1.43-.53-1.47.06-1.92,1.48-1.82a6.44,6.44,0,0,0,2.23-.16,3.12,3.12,0,0,0,2.5-2.32,3,3,0,0,0-1.24-3l-1.54-1.29a1.12,1.12,0,0,1,1.63-.11c1.3,1,2.78.68,4.25.66A10.24,10.24,0,0,1,47.57,103c-.7-.5-1.43-1-1.13-2s1.25-1,2.16-.81c-.42-1.52-.08-3,0-5a13.82,13.82,0,0,1-2.26,3.33c-1.33,1.3-1.1,2.88.4,4C47.55,103.12,48.83,103.35,48.5,104.79Z"/><path class="cls-1" d="M49.05,197a10.56,10.56,0,0,1-.94-4c.77-2.05,2.63-3.15,4-4.66a7.7,7.7,0,0,0,1.15-5.1,7.73,7.73,0,0,1,1.17-4.49,23.32,23.32,0,0,1,3.14-3.87l0,0a8.48,8.48,0,0,1,2.94-2.77c.08-.05.15-.12.23-.18,1.3-1.35,2.66-2.62,3.94-4,.61-.65,1-1.36-.36-1.49-1.1-.1-1.9-.82-2.87-1.17-.44-.76-1.23-1.3-1.36-2.24-1.63-2.07-.59-4.66-1.35-6.91-.11-.33,0-.75-.14-1.11a8.85,8.85,0,0,1-.07-2.3,18.11,18.11,0,0,1,1.76-5.16l0-1c1.57-1,2.63-2.63,4.14-3.74a3.43,3.43,0,0,1,2.13.36c.37.24.61.63,1,.89.31-.49-.27-.77-.23-1.17a.84.84,0,0,1,.26-.58,2.13,2.13,0,0,1,1.64-.22,1.16,1.16,0,0,1,.94.9l4.19,3.18c.38.75,1.58,1.18,1,2.31-.5.94-1.47.89-2.38,1-3.32.37-3.72,1.21-1.88,4,1.43,2.15,2.86,4.29,4.34,6.39a12.78,12.78,0,0,1-1.22,15.41c-.74.75-1.51,1.48-2.32,2.16a11.21,11.21,0,0,0-4.07,8.31c-.52.47-1.16.91-.53,1.74-.21,1.28-1.32,1.32-2.23,1.57a39.08,39.08,0,0,0-3.83,1,28.6,28.6,0,0,1,9.29,2.23,8.78,8.78,0,0,1,3.24,2.4,3.09,3.09,0,0,1-1.9,5.28,5.31,5.31,0,0,1-2.68-.26,12.47,12.47,0,0,0-8.64.14c-3.57-.28-7-1.5-10.49-2.05A1.24,1.24,0,0,1,49.05,197Z"/><path class="cls-24" d="M47.61,55.12a3.21,3.21,0,0,1,1.53-3.29,1.54,1.54,0,0,0,.73-1.55c0-2.15,1.11-3,3.12-2.89,1.19,0,1.55-.31.78-1.43a1.67,1.67,0,0,1,0-2.12c.8-.78,1.1.35,1.57.68s.86.51,1.11,0c.86-1.81,2.46-1.1,3.79-1.17A2.29,2.29,0,0,1,63,45.89a2.24,2.24,0,0,1-2.87,2.36c-2.41-.45-2.44.42-1.5,2.15a3,3,0,0,1,.12,2.42A6.57,6.57,0,0,0,58.89,57a7.39,7.39,0,0,1-.77,6.43c-.77,1.34-.43,1.7,2.13,1.64,1.55,0,2.56.53,2.68,2s0,2.91-1.71,3.52c-1.13.38-2.21.9-3.31,1.35-1.71.34-3,0-3.43-2a27,27,0,0,0,2.19-10.87c.66-2.59-.6-5.13-.17-7.71.21-1.5-.65-3-.23-4.43-2.48,2.54-5.15,4.94-7.49,7.67C48.49,55.05,48.12,55.36,47.61,55.12Z"/><path class="cls-24" d="M27.65,73.8c-2.53.82-4-.39-3.55-3,.59-3.79,2.22-5.19,6.11-5.21,3,0,6,0,9,0,1.31,0,2-.52,2-1.85-.23-4.54,1.53-6.95,6-8.16.36,1-.39,1.67-.89,2.39a19.24,19.24,0,0,0-3.47,7.23c-.12,1.09.19,2.24-.54,3.22-1.38.81-2.71-.25-4.07-.11a25.47,25.47,0,0,0-8.08-.19c-3.31.51-4,1.81-2.57,4.81A.92.92,0,0,1,27.65,73.8Z"/><path class="cls-25" d="M1,176.32V156.56c1.34.47.8,1.73,1.09,2.64s.32,1.91.62,2.82c.35,1.29.08,2.63.36,3.92.49,1.59.55,3.32,1.47,4.78v1.16a4.16,4.16,0,0,1,.24,1.1C5.43,176.3,4.54,177.09,1,176.32Z"/><path class="cls-26" d="M25.52,129.82c-.27,6-2.71,11.25-5.75,16.21-3.49,5.71-7.32,11.22-10.94,16.86-1.87,2.92-3,6.06-2.25,9.64a.36.36,0,0,1-.59.06c-1.2-3.62.26-6.75,2-9.64,3.46-5.59,7.23-11,10.72-16.54A39.82,39.82,0,0,0,25,129.8.32.32,0,0,1,25.52,129.82Z"/><path class="cls-27" d="M6,172.59l.59-.06a5.49,5.49,0,0,0,5,3.4c1.08,0,2.4-.13,3.34.8a.94.94,0,0,1-.6.72,3.49,3.49,0,0,1-.72.11,55.75,55.75,0,0,0,8.92,3.33c.77.37,2,.32,1.6,1.78-1,.57-1.92.14-2.82-.14a46.11,46.11,0,0,1-10.16-4.2,10.79,10.79,0,0,0-7.77-1.25c-.8.13-1.6.48-2.41,0,0-.27,0-.53,0-.8,1.24-.27,2.77-.17,3.63-.89,1-.85-.61-2.31-.07-3.55a4.42,4.42,0,0,1,.94,2.46c.26,1.09.93,1.2,1.89,1Z"/><path class="cls-25" d="M1.42,155.19c0-.73,0-1.46,0-2.18A8.43,8.43,0,0,0,6,157.73c.27.13.38.61.61,1-1.8.38-2.87,1-2.13,3.12a1.84,1.84,0,0,1-1.2,2.56c-.81-.59-.69-1.51-.79-2.35A33.11,33.11,0,0,1,1.42,155.19Z"/><path class="cls-28" d="M1.41,95.7C1,95.52,1,95.13,1,94.77c.7-9.1,3.62-17.66,6.44-26.24.41-1.26.66-2.66,1.86-3.53a.75.75,0,0,1,.69.14A181.15,181.15,0,0,0,1.78,94.88,3.52,3.52,0,0,1,1.41,95.7Z"/><path class="cls-29" d="M10,65.14H9.49c-.63-.82-.16-1.59.13-2.34A193.12,193.12,0,0,1,21.48,38.2a3.82,3.82,0,0,1,1.63-1.81.53.53,0,0,1,.61.18C20,43.58,16,50.5,13,57.86Q11.47,61.51,10,65.14Z"/><path class="cls-30" d="M60.38,110.94c-.15-2.3-.35-4.6-.39-6.91,0-.62-.58-.62-.68-1-1.81-.65-3.69-.2-5.53-.27-2.48-.09-2.81-.53-1.93-3a13.33,13.33,0,0,1,.72-1.41v0c.76-.4.43-2,1.82-1.72,0,1.33-.92,2.21-1.44,3.28s-.3,1.47.84,1.72a16.32,16.32,0,0,0,4.72.37c2-.14,3,.46,2.74,2.66a49,49,0,0,0,0,5C61.2,110.28,61.33,111,60.38,110.94Z"/><path class="cls-31" d="M42.29,64.7c.68-3.55,3.08-6.17,4.89-9.1l.43-.48c2.49-2.58,4.82-5.32,7.54-7.68.33-.28.6-.76,1.11-.63s.37.73.42,1.13c.14,1,.24,2.08.36,3.12-.13.31-.27.6-.68.52-.88-.51-.48-1.53-1.07-2.56a45.5,45.5,0,0,0-5,5.07c-2.53,3-5.14,6-6.47,9.8a1.55,1.55,0,0,1-.89,1A.73.73,0,0,1,42.29,64.7Z"/><path class="cls-32" d="M36.88,17.49Q30,26.84,23.72,36.57l-.3-.24a2.36,2.36,0,0,1,.5-2.13c2.13-3.3,4.17-6.65,6.44-9.84,1.51-1.87,2.85-3.87,4.38-5.71.48-.58.86-1.24,1.65-1.46A.48.48,0,0,1,36.88,17.49Z"/><path class="cls-33" d="M35.93,93a6.34,6.34,0,0,1-1,3.22c-1.4,2.16-3.46,2.37-5.26.55-2.29-2.3-2.26-2.27-4.43.2-1.11,1.27-1.9,2.87-3.5,3.66,1.06-2.37,3-4.07,4.68-5.91.83-.89,1.77-.37,2.61.28,1.15.91,1.76,3,3.77,2.16s2.25-2.85,2.59-4.71C35.88,92.41,36.1,92.55,35.93,93Z"/><path class="cls-34" d="M27.65,73.8a7.46,7.46,0,0,0-.4-.8c-1.68-2.66-.85-4.52,2.28-5.11a25.5,25.5,0,0,1,8.54,0c0,.9-.6.53-1,.48-2.53,0-5.06-.32-7.58.29s-3.09,1.64-1.66,3.85c.6.93,1.18,1.88,1.77,2.82a.58.58,0,0,1-.08.73Z"/><path class="cls-35" d="M19.52,110.68a21.28,21.28,0,0,1,6,13.46c.16.42.05.65-.43.63a26.41,26.41,0,0,0-5.58-13.4A.59.59,0,0,1,19.52,110.68Z"/><path class="cls-36" d="M54.75,70.33c.61,1.39,2.12,1.11,3.16,1.7l2.35,1.71c-.81.69-1.53,0-2.29-.15s-1.61,0-2.41,0c-1.1-.27-2.35-.32-2.68-1.77A2.31,2.31,0,0,1,54.31,70,.33.33,0,0,1,54.75,70.33Z"/><path class="cls-37" d="M54.38,96.65c-1,.18-.84,1.55-1.82,1.72,1.38-3.4,3.87-6,6.19-8.75.63-.74,1.31-1.43,2-2.15a.49.49,0,0,1,.44-.14l.16.19C60.79,89.27,59,90,58.09,91.37,56.9,93.17,55.62,94.9,54.38,96.65Z"/><path class="cls-38" d="M19.52,110.68c0,.23,0,.46,0,.69-.41-.41-1.05-.71-.73-1.47s.86-.53,1.37-.55c1.8-.08,3.61-.08,5.42-.2.62-.05,1.48,0,1.73-.77s-.56-1.13-1-1.59-.72-.76-1.08-1.14c.82-.24,1.22.43,1.74.82.68.5,1.38,1.07,1.14,2s-1.15,1.29-2.12,1.31c-1.43,0-2.86,0-4.28.12C20.9,110,20,109.68,19.52,110.68Z"/><path class="cls-39" d="M29.48,76.11c0-.24.05-.48.08-.73,2.6,3.39,4.94,6.92,6,11.15a.44.44,0,0,1-.59,0C33.86,82.67,31.54,79.46,29.48,76.11Z"/><path class="cls-40" d="M58,73.4l2.25.34c3,1.31,5.81,2.82,7.44,5.85a.45.45,0,0,1-.48.27,4.5,4.5,0,0,1-2-2.2A11.77,11.77,0,0,0,59,74.4l-1-.53c-.14-.11-.18-.22-.13-.32S58,73.4,58,73.4Z"/><path class="cls-41" d="M61.44,165.29c.92-.17,1.5.59,2.28.83s2-.38,2.24.47c.26,1-1,1.57-1.65,2.23-1.11,1.12-2.38,2.08-3.58,3.11.71-2.1,3-2.78,4.06-4.75C63.76,166.41,62.14,166.62,61.44,165.29Z"/><path class="cls-42" d="M66.59,143.51a3.43,3.43,0,0,1-2.22-.4.33.33,0,0,1-.13-.36c0-.13.08-.19.12-.19,1-.84,3.1-.14,3.19-2.28l1.34-.85c.71,1.54-.58,2.23-1.32,3.15a.4.4,0,0,0,0,.37C67.6,143.76,67.15,143.73,66.59,143.51Z"/><path class="cls-43" d="M54.85,178.5a10.2,10.2,0,0,0-1.31,6,4.29,4.29,0,0,1-1.41,3.81c1.54-3.23,0-7.18,2.38-10.22C54.85,178,55.09,178.06,54.85,178.5Z"/><path class="cls-44" d="M35,86.53h.59A9.36,9.36,0,0,1,35.93,93l-.5-.55A23.8,23.8,0,0,0,35,86.53Z"/><path class="cls-45" d="M25.06,124.77l.43-.63a9.81,9.81,0,0,1,0,5.68l-.49,0Z"/><path class="cls-46" d="M58.88,154.88c.59,2.69.23,5.53,1.2,8.17-1-.11-1-1-1.1-1.68-.26-2-.37-4-.54-6C58.25,154.85,58.47,154.77,58.88,154.88Z"/><path class="cls-47" d="M67.7,79.59c1.22,1,1,2,0,3a11.64,11.64,0,0,1-3.2,2.69l-.25-.19c0-1.23,1.07-1.75,1.73-2.54s1.45-1.16,1.21-2.27a1.37,1.37,0,0,1,.22-.58Z"/><path class="cls-48" d="M4.56,170.72c-1.83-1-1.12-3-1.72-4.54.14-.19.17-.49.47-.52Z"/><path class="cls-49" d="M64.36,142.56c0,.18,0,.37,0,.55-1.28,1.24-2.08,3-4.05,3.47A20.52,20.52,0,0,1,64.36,142.56Z"/><path class="cls-50" d="M54.85,178.5l-.34-.41c.85-1.24,1.51-2.68,3.08-3.24A20.73,20.73,0,0,1,54.85,178.5Z"/><path class="cls-51" d="M60.28,147.57l-1.43,4.92c-.4.11-.61,0-.41-.42C58.85,150.48,58.75,148.69,60.28,147.57Z"/><path class="cls-52" d="M36.27,16.42a37.72,37.72,0,0,1,2.58-2.78c.76-.68.51.21.6.53l-.25.44c-.85.61-1.29,1.71-2.36,2.07A.89.89,0,0,1,36.27,16.42Z"/><path class="cls-53" d="M21.8,100.64c-1,1.84,1.13,2.11,1.6,3.22-1.39,0-2.16-1-2.78-2C20.39,101.56,21,100.72,21.8,100.64Z"/><path class="cls-54" d="M58.44,152.07l.41.42,0,2.39-.44.45A3,3,0,0,1,58.44,152.07Z"/><path class="cls-55" d="M64.5,85.31c-1,.88-1.68,2.13-3.19,2.21a1.22,1.22,0,0,1-.26-.06.59.59,0,0,1,.13-.58c1.24-.25,1.55-2.07,3.07-1.85A3.33,3.33,0,0,0,64.5,85.31Z"/><path class="cls-56" d="M3.31,165.66l-.47.52-.63-4a.31.31,0,0,1,.48,0l.59,2.28Z"/><path class="cls-57" d="M60.5,172.11a11.4,11.4,0,0,1-2.94,2.77A3.74,3.74,0,0,1,60.5,172.11Z"/><path class="cls-58" d="M37,16.45c.84-.48,1-1.74,2.21-1.84a10.4,10.4,0,0,1-2.32,2.88l-.29-.26C36.5,16.85,36.54,16.54,37,16.45Z"/><path class="cls-1" d="M1,248.62V218.07c.84-.63,1.75-.32,2.62-.15L44,226c1.12.23,2.24.47,2.77,1.69.41,1.05.53,2.17.9,3.23,2.28,8.44,4.59,16.87,6.76,25.33.24.93.77,1.85.15,2.82-2.51.23-4.85-.68-7.25-1.17-15-3-30-6.15-45-9.22A10.09,10.09,0,0,0,1,248.62Z"/><path class="cls-59" d="M46.36,228.11c-.37-1.19-1.42-1.18-2.36-1.37L1,218.07c.3-1.83-.9-3.88.8-5.5,2.8.07,5.44,1,8.14,1.59,6.43,1.39,12.69,3.49,19.1,5,3.65.9,7.3,1.82,11,2.7,1.54.37,3-.26,4.42-.65a2.76,2.76,0,0,1,1.19,2.28,3.29,3.29,0,0,0,3.56,3.18,16.4,16.4,0,0,1,2.18.41,6.31,6.31,0,0,1,1.06.16c2.85,1.09,6,1.15,8.78,2.33l16.67,3.55c.66.14,1.3.34,2,.51,0,1.22,0,2.44,0,3.66a3.84,3.84,0,0,1-2,1c-.92.25-1.88.35-2.47-.52-.79-1.15.51-1.5,1-2.17-.36-.73-1.09-.76-1.71-.9-3-.66-6-1.21-9-1.78a7.4,7.4,0,0,0-5,.37,2.27,2.27,0,0,0-1.49,2.05A11.36,11.36,0,0,1,59,237.6c-.47,1.82-.24,3.05,2,3.37a2.92,2.92,0,0,1,2.49,2.86A3,3,0,0,1,61.33,247c-.67.28-1.6.36-1.67,1.3s.88,1.06,1.53,1.37c2.14,1,2.73,2.57,1.89,4.86-.24.64-.64,1.2-.86,1.85-.39,1.17-.09,2.05,1.27,2a6.18,6.18,0,0,1,3.45.8,3.12,3.12,0,0,0,3.24-.14c2.3-1.4,4.81-1,7.27-.84.81,0,1.68.34,1.47,1.53-1.07,1.74-2.13,3.49-4.49,3.61a41.4,41.4,0,0,1-8.25-1.55A2.27,2.27,0,0,0,63,261c-.87-.07-1.73-.19-2.6-.2s-.33.36-.13.62l0,.83c-.56.19-.91-.23-1.32-.47a.89.89,0,0,1-.33-.41,2.57,2.57,0,0,0-1.08-1.2,3.89,3.89,0,0,1-1.34-2.46c0,1-.17,1.65-.93,2a.38.38,0,0,1-.45-.3.67.67,0,0,0-.31-.31Q51,245.9,47.39,232.68a15.12,15.12,0,0,1-.25-1.79.33.33,0,0,1,.09-.53c.39-.23,1.14.14,1.18-.65a1.25,1.25,0,0,0-1-1.25A4.1,4.1,0,0,1,46.36,228.11Z"/><path class="cls-60" d="M54.84,259.41l.49.07c1-.55,1.79.33,2.68.49.18.56,1.82.14.94,1.41a6,6,0,0,1-3.28-.85A.88.88,0,0,1,54.84,259.41Z"/><path class="cls-16" d="M55.67,260.53l3.28.85a1.7,1.7,0,0,0,0,.39c-1.24.28-2.5-1.11-3.73.05C54.47,261.08,55.56,261,55.67,260.53Z"/><path class="cls-61" d="M61.15,229.52a63.37,63.37,0,0,1-9-1.83c-1.37-2.78-1.63-5.88-2.45-8.82,0-.17,0-.3-.16-.3-.09-.3-.34.2-.11,0s.18-.05.21.09c.44,2.3,1.11,4.53,1.63,6.81.15.7.56,1.43-.1,2.1-4.44.18-6.45-2.22-6.76-6.42,1-1.45,2.43-2.7,2.46-4.69a4.9,4.9,0,0,0-1.15-3.79c-1.77-1.8-1-3.15.81-4.28.61.84,1.09.16,1.69-.05.75-.27,1.3.53,2,.64a74.33,74.33,0,0,1,7.37,1.58c.46.21,1.31-.34,1.36.7.05.83-.75,1.28-.91,2-.32,1.59-1.25,2.15-2.89,2.14-2.87,0-4.29,2.12-3.08,4.67a10.08,10.08,0,0,1,1,5c-.1,2,.87,2.91,2.77,2.43a2.91,2.91,0,0,1,2.31.43,5.64,5.64,0,0,0,3.07,1.17.28.28,0,0,1,.07.19C61.26,229.39,61.19,229.45,61.15,229.52Z"/><path class="cls-62" d="M58.94,211.27l-1.36-.49a.27.27,0,0,1-.11-.29c0-.1.07-.15.11-.15a31.5,31.5,0,0,1,6.79,1.46v.31Z"/><path class="cls-63" d="M69,212.68l4.6.91c.49.09.86.28.75.88C72.56,213.77,70.43,214.21,69,212.68Z"/><path class="cls-64" d="M64.37,212.11v-.31c1.25.33,2.84-.32,3.62,1.3Z"/><path class="cls-1" d="M1,177.12c3.84-1.19,7.42-1.4,11.14.93A35.22,35.22,0,0,0,24,182.56a1.43,1.43,0,0,1,1.88.11,1.35,1.35,0,0,1,.49.88c2.41,2.47,5.23,4.53,7.19,7.45,1.64,2.45,2.74,5,1.19,7.84s-4.33,4-7.43,4.24c-1.95.17-3.91.15-5.86.21-1.92,1-3.55-.44-5.33-.61a19.33,19.33,0,0,0-4.55-1.2,6.08,6.08,0,0,1-3.23-.77,42.53,42.53,0,0,0-5.22-1.47A3.78,3.78,0,0,1,1,198.14Z"/><path class="cls-65" d="M30.81,24.48c-2.37,4-5.3,7.66-7.39,11.85A137.93,137.93,0,0,0,12.58,57.14a47.82,47.82,0,0,0-3.09,8,137.18,137.18,0,0,0-7.2,23.72c-.45,2-.87,4-1.31,5.92C1,92.88,1,91,1,89.09.33,63.33.52,37.56.52,11.8c0-.88-.3-1.83.36-2.63q0,19,.07,38c0,8.88,0,17.75,0,27.15,2-4.83,3.67-9.23,5.59-13.54A155.18,155.18,0,0,1,27.41,26.59c.79-1,1.31-2.21,2.44-2.92C30.58,23.45,30.83,23.8,30.81,24.48Z"/><path class="cls-66" d="M29,219.11c-6.58-1.1-13-2.91-19.5-4.39-2.61-.59-5.34-.78-7.74-2.15,0-.12,0-.23,0-.35a1.43,1.43,0,0,1,1.45-.33c5.53.87,11,1.87,16.56,2.82.42.07.72.18.6.69-.65.07-1.36-.21-2.17.45,2.63,1.14,5.36,1.42,7.92,2.24C27.1,218.4,28.24,218.26,29,219.11Z"/><path class="cls-67" d="M8.69,200.36c.93,0,1.67,1,2.69.46a8.43,8.43,0,0,0,2.87,1c.43.13,1.14.2.63,1-1.63.73-3.4.45-5.1.69-.48,0-.94-.23-1.43-.23-2.52-.85-5.29-1.09-7.4-3L1,198.93C3.71,198.62,6.09,200.06,8.69,200.36Z"/><path class="cls-68" d="M20.39,215.4c-3.76-1.22-7.7-1.5-11.55-2.21-2.33-.43-4.64-1.15-7.06-1-.88.08-1-.37-.73-1.07l29.16,5-.09.62Z"/><path class="cls-69" d="M6.91,203.2c-2,.53-4.19.83-5.87,2.3L1,200.85A13.21,13.21,0,0,1,6.91,203.2Z"/><path class="cls-70" d="M8.69,200.36c-2.71.31-5.08-1.22-7.69-1.43,0-.27,0-.53,0-.79C3.55,198.91,6.28,199.05,8.69,200.36Z"/><path class="cls-71" d="M6.91,203.2l-6-2.35v-.53A51.1,51.1,0,0,1,8.31,203a.64.64,0,0,1-.46.37Z"/><path class="cls-72" d="M2.69,162.12l-.48,0q-.6-2.81-1.19-5.59c.1-.47-.3-1.08.4-1.37C1.84,157.5,2.27,159.81,2.69,162.12Z"/><path class="cls-73" d="M67.17,187.16c-.63,0-1.59.14-1.39-.78s1.37-.41,2.07-.64l1.08.1a6.74,6.74,0,0,1,.6,1.91.68.68,0,0,1-.27.49,1.76,1.76,0,0,1-1.65-.34A2,2,0,0,1,67.17,187.16Z"/><path class="cls-73" d="M72.14,182.6c.08,1.08-1,1.19-1.48,1.78a2.53,2.53,0,0,0-.73,2.25c-.93.18-.82-.31-.59-.9C69.26,183.77,71,183.49,72.14,182.6Z"/><path class="cls-74" d="M69.34,185.73c0,.4.09.8.59.9l.73.55c.4,1.53-.46,1.21-1.31.89-.12-.74-1.07-1.33-.42-2.23A1.91,1.91,0,0,0,69.34,185.73Z"/><path class="cls-75" d="M69.35,188.07c.63,0,1.37.14,1.31-.89,2.62.94,4,3.06,5.06,5.44-.42.3-.8.09-1.18-.06a15,15,0,0,1-2.37-2c-.72-1.07-2.63-.81-2.8-2.51Z"/><path class="cls-76" d="M79.39,202.62l-2.78-.43c-.57.84.38,1.26.85,1.84.1,1.2.51,2.54-1.36,2.77-.5-2-2.13-4,.34-5.74a.88.88,0,0,1,.67.16Z"/><path class="cls-77" d="M77.11,201.22l-.63,0a2.33,2.33,0,0,1-.51-1.67,11.3,11.3,0,0,0-1.41-6.24,1.59,1.59,0,0,1-.14-1.3l1.3.63A11.58,11.58,0,0,1,77.11,201.22Z"/><path class="cls-1" d="M76.31,142.73a.72.72,0,0,1-.75.65,1,1,0,0,1-1.13-.86c-.06-1.35-.37-2.33-2-2.37a.52.52,0,0,1-.45-.8,1,1,0,0,1,.75-.38C73.53,138.92,76.36,142,76.31,142.73Z"/><path class="cls-78" d="M70.2,143l-.84-.49c-.75-.42-1.15-1.14-.44-1.7s.52.57.87.81c1,1,3-.65,3.65,1.34Z"/><path class="cls-79" d="M69.79,141.64l-.79-.48c-.27.56.24.91.36,1.37l-1.79.05,1.32-3.15c.36-.11.91-1,1,.22C69.87,140.31,69.81,141,69.79,141.64Z"/><path class="cls-80" d="M76.28,206.73c1.17-.56.38-2,1.18-2.7l2.27,1.41c-.2,2.73.6,5.51-.47,8.18l-26-5.27c-.65-.14-1.32-.2-2-.29-1.27-.44-2.73.34-3.92-.62l-.22-.26A23.59,23.59,0,0,0,49.05,197l11.73,2.37c3.25,1.23,6.73,1.33,10.07,2.15,3.16.78,4.14,3.15,2.48,5.67C74.4,207.53,75.32,207,76.28,206.73Z"/><path class="cls-81" d="M57.58,210.34v.44l-7.71-1.43c-.09-.38.11-.59.44-.73A45.45,45.45,0,0,1,57.58,210.34Z"/><path class="cls-82" d="M50.31,208.62l-.44.73c-.73.3-1.63-1.84-2.37.23-.13.37-.28-1.09-1-1.18,0-.53,0-1.08.67-1.22h0c.78.71,2,.49,2.74,1.3Z"/><path class="cls-83" d="M49.91,208.47c-1-.34-2.34.24-2.74-1.3a12,12,0,0,1,4.14.89C50.84,208.19,50.28,208,49.91,208.47Z"/><path class="cls-2" d="M78.92,259.68c-.37-.95-1.15-1.09-2-1.05-2.43.12-5-.57-7.11,1.35a1.33,1.33,0,0,1-.85.19c-2.29-.06-4.26-1.6-6.73-1.3-.93.11-1.22-1.52-.69-2.62.32-.68.78-1.3,1-2,.91-2.26.21-3.82-2.12-4.2-1.14-.18-1.67-.63-1.68-1.65s.49-1.57,1.62-1.74c1.52-.23,2.78-1,2.57-2.84a2.67,2.67,0,0,0-3-2.48c-1.92.05-2.09-1.14-1.84-2.55a10.89,10.89,0,0,0,.38-2.67c-.15-1.92.08-3.54,2.6-3.53a1.87,1.87,0,0,0,1.11-.71c.81-.94,1.52-1.2,2.21.1.1.19.38.46.5.43,2.11-.59,3.93.76,5.91.86A18.65,18.65,0,0,1,77,235c.41.16.89.41.73,1s-.59.36-.95.4c-.61.06-1.45.13-1.27.89s1,.89,1.84.6a24.66,24.66,0,0,1,2.4-.58q0,10,.07,20.08A4,4,0,0,1,78.92,259.68Z"/><path class="cls-2" d="M63,261c.15-1.25,1.11-1,1.88-1,1.07,0,1.34.78,1.31,1.71Z"/><path class="cls-84" d="M25.66,183.08c-.42-.56-1.08-.38-1.64-.52-.05-1.19-1.27-.69-1.76-1.24-1.8-.94-3.73-1.57-5.58-2.4-.83-.37-2-.49-2.17-1.7l.42-.49h.89c5.08,1,10.13,2.13,15.1,3.58a69.36,69.36,0,0,1,8.54,2.93c.52.23,1.43.29,1.29,1s-1.08.62-1.72.63a47,47,0,0,1-10.69-1.49A9.76,9.76,0,0,0,25.66,183.08Z"/><path class="cls-85" d="M25.66,183.08c.7-.85,1.5-.33,2.28-.17a50,50,0,0,0,13,1.47,44.62,44.62,0,0,0-9.54-3.5c-4.65-1.17-9.35-2.16-14-3.2-.66-.14-1.4-.05-1.56-1,5-.32,9.5,1.72,14.22,2.78,3.4,1.18,6.8,2.35,10.19,3.54.71.25,1.58.59,1.39,1.51s-1.12.82-1.87.83a57.36,57.36,0,0,1-11.58-1.6c-.58-.12-1.18-.15-1.78-.23Z"/><path class="cls-86" d="M42.29,64.7a1.89,1.89,0,0,0,.41,0,8.46,8.46,0,0,0,3.43,5.54c1.55,1.06,3.32.88,4.93,1.46-.05,1.4-.35,1.72-1.71,1.56A10,10,0,0,1,44,70.82a1.46,1.46,0,0,0-.55-.07c-.73-.34-.63-1.54-1.64-1.58-.28-.47.22-.61.37-.9A9.75,9.75,0,0,1,42.29,64.7Z"/><path class="cls-87" d="M52.14,73.81c-3.85,1-6.89-.09-8.74-3.06a.56.56,0,0,1,.28-.2,11.46,11.46,0,0,0,8.4,2.63A.44.44,0,0,1,52.14,73.81Z"/><path class="cls-88" d="M31.27,113.45c1.93,1,3.78,2,4.12,4.48Z"/><path class="cls-89" d="M42.13,68.27l-.37.9A25.19,25.19,0,0,1,37,68.42l1-.48C39.43,67.93,40.74,68.6,42.13,68.27Z"/><path class="cls-90" d="M52.14,73.81a1.54,1.54,0,0,0,0-.37c1-1.09,2.12-.15,3.19-.21L58,73.4c0,.16,0,.31,0,.47Z"/><path class="cls-88" d="M31.78,112.45l-.52,1a3.81,3.81,0,0,1-2.19-1.36A2.74,2.74,0,0,1,31.78,112.45Z"/><path class="cls-91" d="M30.81,24.48l-1-.81a77.53,77.53,0,0,1,6.42-7.25l.72,0c-.14.26-.27.52-.4.78Q33.69,20.85,30.81,24.48Z"/><path class="cls-92" d="M34.56,143c.69-.22.87.61,1.55.57.82-1.64-1.52-2.94-.54-4.64.56-.27.59.42.9.64s.7.31,1-.07a.57.57,0,0,0-.1-.81c-1.31-.88-1.32-1.88-.39-3.06.31-.39.12-.84,0-1.29-.37-1.36.23-1.55,1.26-.93,1.24.76,1.42,0,1.11-.86-.39-1,0-2.34-1-3.17-.63-.53-.11-.78.19-1.24,1.4-2.09,1.23-3.29-.57-5a.78.78,0,0,1-.06-1.18.71.71,0,0,1,1.17.1c.56.85,1.38,1.66,1,2.85-.2.69-.33,1.35.3,1.87.13.1.53.12.6,0a2.15,2.15,0,0,0,.21-2,9,9,0,0,1,0-4.67c.3-1.48,0-2.87-2-2.59-2.23.3-1.09-2.5-2.74-2.84,2.82.59,6-.64,8.12,2.13.57.74,1,.33,1.51,0,1.63-1.28,3-.83,3.22,1.32.18,1.51.4,2.4,2.12,2.85s1.75,1.63.2,3c-.05-1.86-1.53-2.77-4.1-2.87-2.17-.09-2.24,1.17-2.2,2.76.05,1.82-.12,3.66,1.26,5.13a.81.81,0,0,1,0,1.21c-.49.59-.68,0-1-.25-1.53-1.05-2.28-.71-2.52,1.1-.22,1.66-.43,3.24-2.16,4.21-1.08.61-1.16,1.63.09,2.22a2.78,2.78,0,0,1,1.48,3.43c-.4,1.51.28,3.45-1.46,4.53a.45.45,0,0,0-.15.41c1.3,2.36-.26,4.89.2,7,.5,2.31.73,4.84,1.8,7.06a.81.81,0,0,1-.23,1.09,5.49,5.49,0,0,1-1.7-2.26c-.31-.65-.68-1.22-1.49-1.2-1.93,0-2.23-1-2.34-2.76a36.27,36.27,0,0,0-2.4-9.9A3.48,3.48,0,0,1,34.56,143Z"/><path class="cls-92" d="M48.5,104.79A4.13,4.13,0,0,0,46.6,103c-2.15-1.13-2.35-3.43-.48-5a3.88,3.88,0,0,0,1.52-2.42,1.16,1.16,0,0,1,1.45-1.06c.94.24.35.93.2,1.47a6.26,6.26,0,0,0,.41,5.31c-1.16.44-1.87-2.05-2.74-.38s1.12,1.55,1.87,2.22c1.49,1.34,3.33,1.45,5.16,1.5.57,0,1.19-.43,1.56.35a.63.63,0,0,1-.21.81,2.65,2.65,0,0,1-1.82.6c-1.86-.07-3.31-1.24-5.05-1.58Z"/><path class="cls-92" d="M36.32,174.34c.15-1.72,1.27-3.05.23-4.62-.32-.47.88-.82,1.54-.76,1.57.14,2.82-.22,3.43-1.85.12-.33.33-.8.78-.46s1.31.92,1.14,1.8c-.19,1-.54,2-.79,3-.66,2.69-.71,2.79-3,1.46C38,172,37.68,173.78,36.32,174.34Z"/><path class="cls-93" d="M35.81,207.73a29,29,0,0,1,6.26,2.53c.52.28,1.2.58.9,1.32-.22.54-.85.53-1.39.46a96.67,96.67,0,0,1-21.24-4.79,1,1,0,0,1,.66-.71c3.32.25,6.38,1.61,9.61,2.24,2.94.58,5.88,1.22,8.71,1.65-1.2-.73-2.91-.72-4-2C35.2,208,35.48,207.86,35.81,207.73Z"/><path class="cls-92" d="M53,108.05a3.57,3.57,0,0,1,2.13,1.86c.55,1.33,1.26,1.26,2.22.42s.87-1.22-.3-1.47c-.63-.14-1.24-.31-1.13-1.11a1.75,1.75,0,0,1,.9-1.25c.64-.39,1.07-.18,1.6.25,2.1,1.7,1.89,3.44-.67,4.5-.82.34-1.52,1.5-2.36,1.07a11.72,11.72,0,0,1-2.87-2.46C51.89,109.18,52.07,108.49,53,108.05Z"/><path class="cls-92" d="M57.89,85.41a8,8,0,0,1,1.45-4.91c.59-1,1.5-.73,2.4-.39.46.17,1.17,0,1.17.77a2.18,2.18,0,0,1-1.4,1.88A12.78,12.78,0,0,0,57.89,85.41Z"/><path class="cls-94" d="M35.81,207.73l-.54.44a1.72,1.72,0,0,1-1.72.17q-8.23-2.49-16.51-4.82a2.28,2.28,0,0,1-1.14-.72.56.56,0,0,1,0-.68l5.53,1.17Z"/><path class="cls-92" d="M55.34,86.18a4.64,4.64,0,0,1,1.89,2.58c.3.77-2,2.88-2.81,2.71s-.92-.75-1.12-1.31c-.3-.81.36-.73.84-.92.86-.34,2.21-.57.67-1.88C54.17,86.82,54.72,86.48,55.34,86.18Z"/><path class="cls-92" d="M41.23,179.63a1.42,1.42,0,0,1-1.68,1.3c-1-.17-2.47-.12-2.42-1.64a1.6,1.6,0,0,1,1.72-1.69C39.94,177.65,41.27,178.68,41.23,179.63Z"/><path class="cls-92" d="M43.54,179.32c-2.43-1.82-2.32-3,.81-7.17-.19,1.85.93,3.4-.85,4.71C42.59,177.54,44.66,178.34,43.54,179.32Z"/><path class="cls-95" d="M64.25,85c-1.18.39-1.79,1.69-3,2-.47.29-.47,0-.42-.35,2.43-1.33,3.55-4.06,5.84-5.56.38-.2,0-1.06.81-.92.7.93.24,1.64-.45,2.3Z"/><path class="cls-96" d="M20.87,206.82l-.53.43L7.85,203.39l.46-.37,1.36.18c3.57.05,6.72,1.7,10.06,2.64A1.62,1.62,0,0,1,20.87,206.82Z"/><path class="cls-92" d="M60.79,86.64l.42.35c-.05.16-.1.31-.16.47l-.17,0-.17,0a4.79,4.79,0,0,0-1,.39c-.83.57-1-.09-1.3-.62s-.3-1,.47-1.16a1.87,1.87,0,0,0,.94-.5c.42-.43.86-1.16,1.44-.66C62,85.56,60.74,86,60.79,86.64Z"/><path class="cls-92" d="M52.49,116.06a2.44,2.44,0,0,1-.38.65.49.49,0,0,1-.77,0c-.74-1-1.63-1.92-.43-3.12.38-.38.73-1.2,1.4-.73s.1,1-.23,1.35C51.44,114.92,52.19,115.37,52.49,116.06Z"/><path class="cls-37" d="M52.57,98.35c-1,4.06-1,4,3.34,4.15,1.14,0,2.39-.45,3.4.49H53.69c-2.69,0-3.28-1-2.09-3.48C51.82,99.05,52,98.54,52.57,98.35Z"/><path class="cls-92" d="M35.77,157.39A3.64,3.64,0,0,1,34.55,155c0-.39.27-.85.63-.72a2.42,2.42,0,0,1,1.48,2.27C36.7,157,36.39,157.34,35.77,157.39Z"/><path class="cls-92" d="M48.58,128c-.77.28-1.38.16-1.38-.79,0-1.47,1.44-1.13,2.23-2,.42,1.38-1.24,1.74-.87,2.78Z"/><path class="cls-92" d="M49.6,112.38c-.6.68-1.05,1.66-2.45,1.17C47.93,112.76,48.48,112,49.6,112.38Z"/><path class="cls-92" d="M36.21,178.58a.61.61,0,0,1-.58.76.87.87,0,0,1-1-.69.7.7,0,0,1,.7-.89C35.88,177.73,36.1,178.12,36.21,178.58Z"/><path class="cls-92" d="M52.07,111.27c0,.59-.39.75-.88.73s-.78-.13-.64-.63a1,1,0,0,1,.89-.85C51.85,110.51,52,110.87,52.07,111.27Z"/><path class="cls-97" d="M67.44,80.16l-.81.92c.3-1.44-1.54-2-1.36-3.42l2.14,2.07A1,1,0,0,1,67.44,80.16Z"/><path class="cls-98" d="M76.28,206.73c-.9,1.4-.9,1.4-4.27.75,1.06-.69,2.12-1.4,1.72-2.85a3.22,3.22,0,0,0-2.68-2.47q-2.77-.49-5.56-.93c-1.72-.26-3.46-.44-4.72-1.87,2.53-1.55,5.18-1.24,7.84-.5,3.11.85,4.91.46,5.55-1.26.55-1.48-.92-3.35-3.52-4.63a23.2,23.2,0,0,0-8.24-2.18c-.8-.07-1.68.13-2.5-.76,1.47-1.3,3.38-1,5-1.55.83-.29,2.1.13,2.27-1.32l.46.57c1.64,1,3.38,1.7,5,2.63.58.55,1.17,1.09,1.76,1.63a11.28,11.28,0,0,1,2,9.21C75.07,203,76.48,204.89,76.28,206.73Z"/><path class="cls-99" d="M66.59,143.51c.39-.08.81-.1,1-.56.63.38,1.38.69,1.3,1.6a.72.72,0,0,1-.78.64C67.11,145.11,66.87,144.27,66.59,143.51Z"/><path class="cls-100" d="M54.75,70.33l-.23,0-.22,0c-.1-2.6,1-5,1.4-7.48.6-1.12.17-2.42.55-3.58a1.27,1.27,0,0,1,.47-.58c.47,0,.7.24.46.74A18.73,18.73,0,0,1,54.75,70.33Z"/><path class="cls-101" d="M57.18,59.42l-.44-.66a8.13,8.13,0,0,1-.14-7.15l.44-.55C57.08,53.85,57.69,56.62,57.18,59.42Z"/><path class="cls-102" d="M14.51,177.22c2.46,1.59,5.52,2.06,7.75,4.1a35.58,35.58,0,0,1-10.75-4.49C12.64,176.5,13.53,177.33,14.51,177.22Z"/><path class="cls-24" d="M56.6,51.61c0,2.38.09,4.77.14,7.15l-.16.55a18.44,18.44,0,0,1-.83,3.27,15.09,15.09,0,0,1-3.7,5.89c-1.39,1.19-.32,2.33-.29,3.5a.44.44,0,0,1-.56,0c-3.61.86-5.86-1.66-8.22-3.59-.93-.76-.22-2.44-.28-3.7,2.78-6.81,7.71-11.92,13.06-16.91C56.6,49.09,55.9,50.51,56.6,51.61Z"/><path class="cls-103" d="M51.68,71.85c-1.72-1.33-1.59-2.5.1-3.84s2.45-3.69,3.57-5.61c.18-.34.47-.64.83-.41s.28.62.08,1a30.86,30.86,0,0,1-2,7.37l-1.25,1.2c-.36.44-.59,1.13-1.36.84C51.43,72.26,51.52,72,51.68,71.85Z"/><path class="cls-104" d="M51.68,71.85c.56.34.81-.66,1.37-.33.4,1.07,1.4,1.32,2.3,1.71l-3.18.21c-3.2.14-6.31,0-8.49-2.89-.24-1,0-1,.63-.34a7.38,7.38,0,0,0,5.06,2.49c.67.07,1.54.35,1.83-.71Z"/><path class="cls-2" d="M46.36,228.11c.91-.67,1.58-.31,2.33.39s.39,1.41.23,2.06c-.31,1.24-1.31-.51-1.78.33A6.89,6.89,0,0,1,46.36,228.11Z"/><path class="cls-105" d="M51.14,227.58c-.17-3.33-1.75-6.41-1.42-9.86l2.4,10Z"/><path class="cls-2" d="M58,260a6.67,6.67,0,0,1-2.68-.49c.7-1,.27-2.16.59-3.48C57.12,257.26,56.63,259.13,58,260Z"/><path class="cls-2" d="M56.15,231.66a1,1,0,0,1-1,1c-.7-.05-1.36-.39-1.27-1.2a1,1,0,0,1,1.13-.84C55.54,230.67,56.12,230.89,56.15,231.66Z"/><path class="cls-2" d="M50.63,234.71c.13.86.42,1.54-.38,1.94-.14.07-.54-.06-.56-.16C49.52,235.78,49.84,235.25,50.63,234.71Z"/><path class="cls-1" d="M48.48,211.79a2.44,2.44,0,0,1,.36-.56c.68-.6,1.17-1.78,2.36-1a.93.93,0,0,1,.1,1.55c-.92.9-1.89,1.12-2.83,0Z"/><path class="cls-106" d="M48.47,211.78c-.13,1.61,1,3.06.68,5.26a16.62,16.62,0,0,1-1.39-5c-.07-.37.46-.19.72-.23Z"/><path class="cls-107" d="M15.94,202.12l.15.53c-.32.38-.64.86-1.07.1-.91-1.21-3-.2-3.64-1.93A13.25,13.25,0,0,1,15.94,202.12Z"/><path class="cls-108" d="M15,202.75c.39.35.71-.12,1.07-.1l19.18,5.52,6.17,2.51-.17.56a129.69,129.69,0,0,1-20.4-4.42L9.67,203.2A16.07,16.07,0,0,1,15,202.75Z"/><path class="cls-109" d="M72.67,190.36a11,11,0,0,1-5-2.63l1.74.34C70.27,189.13,71.87,189.16,72.67,190.36Z"/><path class="cls-110" d="M56.26,63c0-.65-.31-.86-.91-.55a9.67,9.67,0,0,1,1.23-3.1C56.58,60.53,56.84,61.78,56.26,63Z"/></svg>