<svg id="Layer_1" data-name="Layer 1" xmlns="http://www.w3.org/2000/svg" viewBox="0 0 797.56 569.38"><defs><style>.cls-1{fill:#272d58;}.cls-2{fill:#3cb0b3;}.cls-3{fill:#f0ecd6;}.cls-4{fill:#fff;}.cls-5{fill:#3cb0b2;}.cls-6{fill:#42aeaf;}.cls-7{fill:#0f3c4d;}.cls-8{fill:#45aaaf;}.cls-9{fill:#22273e;}.cls-10{fill:#193549;}.cls-11{fill:#4fa3ad;}.cls-12{fill:#40adb0;}.cls-13{fill:#40aeaf;}.cls-14{fill:#f0ebd5;}.cls-15{fill:#f1ecd6;}.cls-16{fill:#f0ecd7;}.cls-17{fill:#f0ecdb;}.cls-18{fill:#3db0b2;}.cls-19{fill:#3e3c3d;}.cls-20{fill:#212638;}.cls-21{fill:#173347;}.cls-22{fill:#2a2c2f;}.cls-23{fill:#133947;}.cls-24{fill:#e9eadb;}.cls-25{fill:#323335;}.cls-26{fill:#41adaf;}.cls-27{fill:#255255;}.cls-28{fill:#ebe9d7;}.cls-29{fill:#262a3e;}.cls-30{fill:#21293f;}.cls-31{fill:#165260;}.cls-32{fill:#45abb0;}.cls-33{fill:#e1e1df;}.cls-34{fill:#27293a;}.cls-35{fill:#4da0aa;}.cls-36{fill:#262937;}.cls-37{fill:#858899;}.cls-38{fill:#9ea3b5;}.cls-39{fill:#4f768f;}.cls-40{fill:#aeb2c0;}.cls-41{fill:#48a2ab;}.cls-42{fill:#4ca2ac;}.cls-43{fill:#4f9faa;}.cls-44{fill:#49aab0;}.cls-45{fill:#519fac;}.cls-46{fill:#4d748e;}.cls-47{fill:#52a4b1;}.cls-48{fill:#4a9fa8;}.cls-49{fill:#6b7589;}.cls-50{fill:#59a0af;}.cls-51{fill:#5d98ab;}.cls-52{fill:#2c2d32;}.cls-53{fill:#babcca;}.cls-54{fill:#8e91a6;}.cls-55{fill:#64687e;}.cls-56{fill:#52a0ad;}.cls-57{fill:#babeca;}.cls-58{fill:#969dab;}.cls-59{fill:#7e879a;}.cls-60{fill:#797b8e;}.cls-61{fill:#3cb0b1;}.cls-62{fill:#242b4d;}.cls-63{fill:#eab244;}.cls-64{fill:#2e2c28;}.cls-65{fill:#322e27;}.cls-66{fill:#2c5c5f;}.cls-67{fill:#4c524b;}.cls-68{fill:#e3b146;}.cls-69{fill:#4c331f;}.cls-70{fill:#2f2f2b;}.cls-71{fill:#dab958;}.cls-72{fill:#225860;}.cls-73{fill:#d5b84e;}.cls-74{fill:#4fa9ac;}.cls-75{fill:#dbb24c;}.cls-76{fill:#504e43;}.cls-77{fill:#285052;}.cls-78{fill:#65a1a1;}.cls-79{fill:#4d483f;}.cls-80{fill:#6da2a1;}.cls-81{fill:#4b4d4b;}.cls-82{fill:#435149;}.cls-83{fill:#4e5853;}.cls-84{fill:#414741;}.cls-85{fill:#edecd9;}.cls-86{fill:#3c2e1e;}.cls-87{fill:#58a3a6;}.cls-88{fill:#272d57;}.cls-89{fill:#3eafb0;}.cls-90{fill:#cfd6d4;}.cls-91{fill:#4a9ea1;}.cls-92{fill:#accdd2;}.cls-93{fill:#5a979f;}.cls-94{fill:#cdd8db;}.cls-95{fill:#4aa7aa;}.cls-96{fill:#d9e0dd;}.cls-97{fill:#4a8d9d;}.cls-98{fill:#262d55;}.cls-99{fill:#ecece5;}.cls-100{fill:#f0ebd7;}.cls-101{fill:#42301d;}.cls-102{fill:#e4e6e5;}.cls-103{fill:#ceb450;}.cls-104{fill:#eae2c7;}.cls-105{fill:#f6e49d;}.cls-106{fill:#d0c095;}.cls-107{fill:#f0ebd6;}.cls-108{fill:#e3d6b7;}.cls-109{fill:#c8c08a;}.cls-110{fill:#d3e0e3;}.cls-111{fill:#bdd5d5;}.cls-112{fill:#d0dfdd;}.cls-113{fill:#b7d0d0;}.cls-114{fill:#d9e5e6;}.cls-115{fill:#e7b044;}.cls-116{fill:#e5b245;}.cls-117{fill:#e6e5dd;}.cls-118{fill:#ebe3c9;}.cls-119{fill:#ecead9;}.cls-120{fill:#ddae46;}.cls-121{fill:#ece8d1;}.cls-122{fill:#4caba7;}.cls-123{fill:#64acaa;}.cls-124{fill:#d3ded5;}.cls-125{fill:#3fafb0;}.cls-126{fill:#c8d5d1;}.cls-127{fill:#e6b044;}.cls-128{fill:#ecebdc;}</style></defs><path class="cls-1" d="M.05,472V428c21-4.34,43.62-5.59,64.86-8.11-21.18-4.62-44.25-7.57-64.86-13.91V1.54c141.59-.44,283.9-.72,425.41.1-106.57,85-158,234.67-116.84,366.94,1,5.81,4.15,16.62-4.27,18-3.41,3.19-6,8.15-8.58,12.21-2.11,6-2.59,12.8-2.76,19.14.48,2.38-1.21,4.6-3.78,3.52-9.18-1.8-18.33-3.77-27.5-5.6-4.22-1.94-1.81-7.18-4.72-10.17-1.49-2.38-3.17-4.78-2.56-7.88,5.43-2.26,12.69-2.39,18.23-2.51-6.41,0-13.39-2.71-19.87-3.47A4.24,4.24,0,0,1,250,390.5c-7.82-17.73-6.55-39.32,2.83-56.25.86-2.92,3.7-4.32,6.58-4.45,6-.13,11.87-6.49,8.83-12.26-.78,1.44-1.87,2.66-3.78,1-2.09-1-5.85-3.36-2.49-5.28,3.82-1.15.81-4.19,3-6.05,7-8.65,5.59-21.11,4.12-31.34.09-1.8-2.58-2.25-2.05-4.18.49-7.17-5.46-12.38-5.76-19.53-.17-.57-.09-1.63-1.11-.58-6,6.18-11.35,13.22-17.47,19.2-3.48,1.66-4.57,5.27-6.53,8.15-2.95,4.63-6.07,9-5.74,14.82.18,4.07-.9,8.55,2.27,11.79.61.66,1.48,1.47.93,2.53-.66,1.28-1.85.6-2.84.49a26.29,26.29,0,0,0-6.33-.05c-4.27,0-6,4.9-2.27,7.35,4.07,3,3.47,8.65,6.81,12.36,3.6,14.11-3.35,29.09-10.71,41-2,4.43-8,4.26-10.24,8.4-2.74,3.53-6.28,3.12-9.43,2.07-6.31-3.42-15.49.81-20.05-5.32-.83-2.09-.59-4.5-2.13-6.27-2-2.06-1.55-24.35,2.38-23.85,3.13-1.75-1.74-3.93-.84-6.41-.3-3.77,4.13-3.13,5.62-5.91,2.11-4,3.35-8.35,4.77-12.62-3.51-.83-2.12,5.41-6.05,5.54.29,4.58-4,6.76-5.44,10.45-1.46,8.31-12.4,4.58-18.13,5.35,8.86,3.93,16.59.67,13.2,14.16-.82,4.54-.91,9,1.6,13.17,2.49,3.24,0,6.31-3.85,5.23-6-.62-11.68-2.5-17.56-3.62-8.12-1.48-16.44-.46-24.38-3.12C87.8,359.4,46.28,366.08,6,363,61.09,373.31,117.11,384,171.59,396.62c.56,2.7,14.32.28,13,5.39-1.32,9.06-14.63,4.82-21.22,6.71.46-.27.63,0,.8.38-27.88,6.13-58.55,7.07-87.36,11.09C132,433,188,442.6,243.29,455c6.7,3.79-13,10.05-15.34,12.57-12.14,7.31-25,13.24-37.54,19.75-9.09,5.67-19.53,8.62-27.09,16.39,72.8,16.16,148.48,27.06,219.7,46.27,7.32-1.12,12.43,5.71,19.68,3.6,1.23-.27,2.64.39,1.16,2.25,3.13,1.65,6.61-.87,10,0,2-.26,2.34,2.25.46,2.42,3.93,1,12.3,0,14.26,4.43-.05,2.56,4.05,4.17,2.09,6.66H42.36c-.21-2,1.55-2.26,2.7-2.89,32.64-18,65.15-36.16,97.83-54,1.62-1.54,4.94-1,5.55-3.25.26-1.25,1.93-1.53,3.42-1.32,3.88.55,4.13.28,4-3.62C104.14,492.93,51.41,484.19.05,472Z"/><path class="cls-1" d="M682.79,569.33H479.36c-12.34-2-24.91-4-36.88-7.46-1.7-1.61-3.79-.82-5.74-.91-2.46-.79-9.3-.59-10.32-2.43-3.49-22.95-12.95-45.25-16.94-68.15,1.62-4.38,13,1,16.68,1.3,22.3,3.8,44.75,8.33,66.69,12.91,45.4,10.72,92.14,18.73,137.33,28.83,9.17,6.46,19,12.3,28.63,17.78a14.5,14.5,0,0,1,6.86,5.37c6.54,1.64,10.49,7.47,16.37,10.2C683.07,567.25,683.72,568.13,682.79,569.33Z"/><path class="cls-2" d="M32.5,569.33c-10.14,0-20.28-.06-30.42,0C.35,569.39,0,569,0,567.3q.11-45.63.05-91.25c49.22,7.13,99.17,20,148.68,28.78,2.6.26,5,2.15,1.17,3.43C111.1,529.17,71.85,549.55,32.5,569.33Z"/><path class="cls-3" d="M790.59,569.33H686.84c-4.55-1.92-8.34-5.07-12.45-7.69-12.4-8.39-25.43-15.78-37.77-24.26-.71-.49-1.69-1.06-1.34-2,36.81,4.51,75.61,15.75,113,22.59C752.7,559.93,795.6,565.2,790.59,569.33Z"/><path class="cls-4" d="M790.59,569.33l0-1.29c3.51-1.1,3.49-1.1,3.53-5.14.08-7.95-.21-15.9.16-23.84-.65-176.6,0-353.32-.24-530,0-7.07.59-6.42-6.37-6.42-120.88-.12-242.7.18-363.1-.07C286.79-.52,140.62,2.62.05,1.54,262.53,2.63,536.11-3.81,795.87,3.68,790.62,189.16,805.77,392.47,790.59,569.33Z"/><path class="cls-5" d="M.05,405.94c22.66,4.85,46.33,8.21,68.37,14.34C45.53,422.66,22.91,426.15.05,428Z"/><path class="cls-6" d="M.05,472c52.61,9.69,105.17,20.81,157.53,31.76-1.81,2.27-3.85,2.63-6.81,1.95-11.28-2.6-22.68-4.65-34-7C78,490.34,38.47,484.1.05,474.89Z"/><path class="cls-7" d="M.05,474.89c34.8,6.75,69.55,13.8,104.3,20.8,16,3.21,31.94,6.37,47.88,9.68,2.27.47,3.57-1.1,5.35-1.62.37,1.09-1.64,2.38.3,3.33-3,4.05-8.94-.64-8.29,3.41-8,2.55-16.75,8-24.88,12.21-21.59,11.6-43.33,22.9-65,34.25-9,3.86-17.4,11.09-27.16,12.38,39-22.12,80.1-41.17,119.44-62.92L.05,476.05Z"/><path class="cls-8" d="M34.82,569.33c29.32-15.48,61.56-34,90.43-46.39-27.5,15.64-55.86,30-82.89,46.39Z"/><path class="cls-9" d="M652.51,538.63l-17.2-3.39c16.48,12.23,35.13,22,51.53,34.09h-4.05c0-.68,0-1.43-.73-1.75-5.15-2.24-8.69-7.19-13.71-9.08-13.31-9-26.75-17.37-40.58-25.65-6.29.58-6-3.53-11-5.67-4.3-3.34-10.19-5.14-13.59-9.36.14-7.28,19.68,9.9,23.43,10.94,8.46,5,18.61,4.17,27.73,7.36C657.43,536.84,654.62,539.79,652.51,538.63Z"/><path class="cls-10" d="M437,560.06c9.8-.68,2.25,1.92,6.47,2.52,8.68,1.8,17.38,3.48,26.05,5.31.79.2,1.79.19,1.73,1.44-9,.35-17.78-1.74-26.53-3.49-4-1-2,1.37-3.61,3.49h-1.16c-2.12-3.94-3.48-6.49-8.45-6.24-2.13-.11-.37,2.28-1.45,3.31-1.66-.44-2-1.94-2.18-3.22-1.72-4.36-12.23-2.73-16.55-5.19,1-1.52,3,.88,3.83-1.27-2.59.09-4.95-.65-7.51.63-2,1-3.94-.8-6-1.37.62-1,2-.31,2.38-1.65-1.81.29-3.53-.77-5.31.82-1.06,1-3.13.4-4-.63-3.09-5.26-15.2-1.67-14.31-5.65,1.2-1,2.55-.67,3.86-.39,12.84,2.82,25.78,5.24,38.65,7.93,3.56,0,2.89,2.47,5.28,2.51C429.64,559.68,436.94,562.47,437,560.06Z"/><path class="cls-11" d="M471.24,569.33c-9.53-2.68-19.4-3.86-29-6.15-1-.24-2.79,0-2.44-1.69.27-1.25,1.69.09,2.51-.38,12.25,3,25.14,4.49,37.07,8.22Z"/><path class="cls-12" d="M441.1,569.33c.21-3.53-1.77-6.1,3.08-4.53,7.06,1.64,14.33,2.32,21.27,4.53Z"/><path class="cls-13" d="M430,566.4c-.27-1.39-.53-2.77-.84-4.35,5.13.26,11.91.54,10.74,7.28h-9.27A3.68,3.68,0,0,0,430,566.4Z"/><path class="cls-14" d="M424.62,2.61c121.73-3,244.24-.06,366.24-1.07,4.82,0,4.36-.48,4.36,4.34q-.09,247.94-.06,495.88c-34-4.35-68.77-13.67-102.82-20.34,19,10.15,38.09,21,56.95,31.46,1.13.76,3.07,1.26,3,2.8-.3,1.19-1.37.67-2.19.65-12.2-2.09-24.32-4.68-36.45-7.2-35.43-7.2-70.74-14.9-106.19-22-23.13-4.83-46.26-9.75-69.41-14.49-21.39-10.72-41.24-25.95-61.6-38.78.84-11.89-3.18-25.76-15-31.34-5.65-5.48,10-11.08,11.64-16.55,8.18-13.71,16.47-8.08,20.42-27.65.34-1,.58-2.41,1.86-2.17,2.19,1.16.44,4.94,1.58,7,1,3.32,8.27,6.45,8.26,1.07-.05-2.31.06-4.27,3.37-3.95,5.36-1.92,1.2-10.93-.41-14.71-4.44-3.6-11.38-3.73-16.8-5.58-2.92-.66-5.46-.2-7.29,2.65-1.44,2.23-2.84,2.26-4.73.39-1.76-2.76-12.44-9.7-7-11.91,4.64-3.19,11.71,4.13,12-3,.68-4,4.8-5.37,1.78-10-3.25-5.46-11.79-3-16.81-5.87-1-1.29-.33-3-1.14-4.39-2.26-5-10.85,2.38-7.8-7.8.05-1.38-.33.31-.53,0-2.89,2.63-3.5,7.6-8.56,7-14.41,7.87-15.86,23.65-12.81,38.2.82,15.69,19,10.73,11.08,17.22-41.39,35.19-9.39,28.24-35.89,52.42-1.48-.29-1.88-1.59-2.37-2.69A60.59,60.59,0,0,0,403,399.29c-7-7,4.9-9.25,4.07-23,.1-22.48-8.61-44.42-5.54-67,1.6-20.51,13.41-37.72,30.06-49.61,2.15-1.47,2.09-2.17.33-4.15-2.07-2.31-4.57-4.14-6.83-6.24-5.88-6.06,13.05-8.24,15.87-11.68.06-3.35,2.58-17.35-2.41-16.84-3.52-.34-16.19.41-14.2-5.29,1.65-5.86,6.18-10.23,8.36-15.69.19-2.09,2.08-3.06,3.06-4.64,3.55-7.05,27.83-17.57,19-25-6.44-7.52-16-11.64-24.7-15.93-6.48-1.7,2.24-9.56,1.69-14.12,1.74-12.22,2.19-25.7-.81-37.55-12.37,10.46-28.45,25.62-29,42.8,0,2.84-.32,3.22-3.2,2.9-6.89-.63-36.59-6.42-29.31,7.8,9.35,13.86,22.64,29.42,17.39,47.31-1.51,5.76-7.45,10.41-12.22,4.81-5.13-5.28-5.1-5.25-10.17.49-2.48,2.82-4.88,5.71-7.35,8.53-5.43,5.33,22.26,14,9.69,18.55-4.92,1.41-10.9-.47-15.38,1.22,15.24,17.69,18.07,42.88,7.72,64.2-5.55,20.16-47.69,57.44-32.37,74.8,1.61,1.14.48,3.2-1.4,2.89-2.75.23-3.53-.41-4.5-3.68-6.63-23.46-9.82-47.66-11.69-71.93C298.09,202.38,333.85,97.13,402.45,22.54l0,0C408.32,14.63,416.94,8.82,424.62,2.61Z"/><path class="cls-15" d="M426.5,558.31c-88.57-18.56-177.69-35.82-266.12-54.55,28.42-16.78,58.48-30.67,87.48-46.56a7,7,0,0,1,5-.7c13.2,2.63,26.35,5.44,39.56,8,15.48,3,30.86,6.42,46.38,9.22q34.31,7,68.67,13.78c1.59.3,3.06.86,2.62,3,5.92,22.11,11.7,44.27,17.69,66.36C428.11,558.06,427.6,558.41,426.5,558.31Z"/><path class="cls-16" d="M308.81,373c-37.3-119.91-3.45-259.94,88.55-346C342.16,94.62,306.2,180.43,307.27,269c1.46,35.95,4.48,72.19,14.12,107,1.25,4.49-5.94,3.08-8.47,4.73-.88.15-2,.19-2.22-.72C310.17,377.58,308.21,375.63,308.81,373Z"/><path class="cls-2" d="M214.35,372.34A60.22,60.22,0,0,0,229,332c-.93-7-9.16-17.15,4.58-10.11,3.87,2.43,9.27,2.27,12.6,5.15,5,20.27-15.43,38.45-2.06,60.74,6.11,10.11,11.11,21.76,9,33.86-2.49,12.23-17.86,6.52-25.85,3.78-10.78-2.85-21.44-6.12-32.49-7.84C164.73,408.92,202.79,381,214.35,372.34Z"/><path class="cls-3" d="M171.75,397.17C115.43,385,58.21,374.9,2.23,362.28c46,1.78,92.81-4.43,138,5.5,2.66.36.86,2.76-.39,3.67-7.79,9.18,30.21,10.14,35.42,11.6,4.24.49,5.73-1,4.65-4.92-.65-2.34.43-2.23,2-1.84,6.92,1.29,14.6,1.64,21,4.26.38.9-.36,1.44-.9,1.94-5,4.61-10.6,9.08-14.38,14.82-1.42,2.42-3.16,3.21-5.65,2.27C178.64,398.34,174.9,399,171.75,397.17Z"/><path class="cls-3" d="M292.09,421c.22-3.42-.71-6.91.57-10.27,1.59,1.29.45,3.29,1.25,4.78a14.66,14.66,0,0,0,2.91,6.48c5,6.09-12.82,2.09-14.75,15.82-9.9,6.66-20.91,11.52-31.26,17.43-3,1.71-5.83.2-8.67-.43-12.06-2.64-24.25-4.61-36.24-7.53-37.42-7.91-75-14.94-112.34-23.11-3.16-.09-3.3-2.29.16-2.42,29-3.1,58-6.7,87.07-9.11,3.43.3,2.53,3.31-.32,3.77-7,2.31-8.79,9.5-3.62,14.72,4.07,4.1,9.43,5.55,14.71,7,19.09,4.87,38.6,8,58,11.3,9.09,1,10.45-8.1,6.29-13.71-5.6-6,3.77-10.12,3.74-16.49.54-3.3,1.29-3.62,4.53-2.95,8.57,1.8,17.14,3.59,25.68,5.5A2,2,0,0,0,292.09,421Z"/><path class="cls-2" d="M242.3,270.27l15.22-17.17c1.82-3,4.17-1.91,4,1.21,1.32,16,8.84,33.05,3.58,48.73-2.2,5.71-8.85,6.73-13.85,9-3.74.56-7.14-1.14-10.69-1.79-7.5-1.36-10.23-5.23-10.46-12.95C230.2,287,235.43,277.46,242.3,270.27Z"/><path class="cls-17" d="M76.2,420.39c-.83-.56-1.35-1,.23-1.12,28.93-3.24,57.83-6.69,86.74-10,5.38-2.4,11.25-1,16.78-2.6a2.25,2.25,0,0,1,3.19,1.08c0,1.82.73,3.85-1.45,5.05-12.74,1.18-25.45,2.66-38.17,4q-17.66,1.83-35.31,3.71C97.48,420.91,86.49,425.41,76.2,420.39Z"/><path class="cls-18" d="M178.44,371.33c.85,2.62.1,5.27,1.83,7.68,2.77,6.29-7.92,4.06-11.28,3.69-9.42-1.22-19-2.39-28-5.34-5.22-1.64-2.45-8.13,2.23-6.6,4.19.71,7.61,3.27,12,2.91-2.21-2.33-17.35-1.34-11.46-5.95,4.47-2.07,33.64,9.8,29.57,1.62-5.65-7-1.45-14.57-1.59-22.33,8.44-2.45,1.49,13.92,2.05,18.23C173.26,368.36,177.78,368.59,178.44,371.33Z"/><path class="cls-19" d="M321.05,376c-34-121.53-5.87-261,81.4-353.43-85.12,94.95-114.67,230.25-80.81,352.72C321.45,375.5,321.42,375.88,321.05,376Z"/><path class="cls-20" d="M158.42,437.18c29.37,5.77,58.68,11.86,88,17.89,4,.7,7.19-2.84,10.78-4.1,3.66,1.22-.77,3.26-1.91,4.72,20.07,3.27,39.6,8.09,59.54,11.82,5.2,1.89,23.55,2.4,25,6.78C221.48,453.93,276.2,445.66,167,499.94c-.58-1.22,7.2-5.4,9-5.85,7-3,13.78-7.47,20.63-10.84,2.58-1.56,5.89-2.22,7.73-5,.8-1.21,1.32,1.08,2.58.23,3.48-2.34,7.76-3.34,10.88-6.33.57-.56,1.24-.38,1.88-.45,2.22-2,5.19-2.7,7.61-4.35l-.06.05c5.83-3.26,13.54-7.17,18.37-9.83a1.25,1.25,0,0,1-1.57,0c0-3.11-3-2.5-4.28-2.72-7.47-1.24-14.79-3.48-22.24-4.46-20.23-4.69-41.27-7.41-61.05-13.09A1.79,1.79,0,0,1,158.42,437.18Z"/><path class="cls-21" d="M242.3,270.27c-7.09,9.2-20.19,32.08-4.27,38.64,6.13,1.2,12.25,2.38,18.38,3.33,7,2.67,5.52-7.42,10.77-9.54,1.13,1.47-.52,3.85-1.87,4.82-.07.68-1.35.9-.34,2.1s-.53,4.11-2.2,4.12c-.86,0-1.52.71-1.4,1,.28.67,0,1.94,1.27,1.92,1.9-.37,2.44,2.86,4.11,1.63.6-.56,1.15-1,.47-1.92-.2-6.45,9.57,11.62-7.55,14.17-.54-1,0-1.35.89-1.46.7-.09-.13-.5.17-.65,2.7-2.43,8.93-3,4.39-7.71-5.24-4.9-13.37-2.24-19.62-5.29-7.46-2.82-12.34-6.17-20.65-4.66-5.61.11-.82,6.18,2.36,6.23,9.16,2.25,18.8,4,27.31,8.12,3.6,4.52-7,4.5-8.79,1.76-6.78-1.43-13-4.46-19.53-7.25,0,3.22,1.73,5.78,2.11,8.64-3.87-3.13-2.62-9-6.67-11.77-8.42-8.15,5.58-10.77,11.89-8.48-6.81-5.28-4.34-20.53.27-26.12C235.46,278.87,238.79,270.5,242.3,270.27Z"/><path class="cls-22" d="M260.68,328.83c2.18.59-1.23.43-1,1.73-13,2.65-12.43,20.4-14.24,30.74-1.24,13.36,2.94,25.47,8.92,37.05,1.51,3,2.49,6.32,4.7,9,1.47,2.42-.19,5.64,2.31,7.71,10.13,2.92,20.79,3.73,30.79,7-.62,1.53-1.74.59-2.56.41-8.95-1.86-17.9-3.73-26.81-5.75-3.6-1.7-1.41,7.55-7,12.16-3.41,3.61,2.61,7.11,2.85,11.07,1.6,6.2-2.58,11.33-8.87,10.3-14.7-4.45-80.78-7.05-76.56-27.31,1-3.65,3-6.41,7-7.21.66-.3.78.11.83.62C159.71,434.14,201.17,439,212.7,441.6q17.9,3.56,35.91,6.44c4.22,1.13,9.31-1.88,8.15-6.68-.35-4.78-6.76-9-2.58-13.5,14.59-17-13.27-34.92-11.1-61C243.47,354,243.41,328.66,260.68,328.83Z"/><path class="cls-23" d="M180.91,416.28l-.72-.54c2.17-.69,4.34-2.09,6.59-.71-2.86-1.42-3.9-3.9-4.1-6.86-.57-2.23-2.23-.9-3.27-.82-5.75.36-11.09,2-16.93,1.36,6.91-2.84,13.06-.56,19.64-3,2-.3,1.1-3.12,1.81-4.73.52-1.16-1.41-.53-2.16-.89-3.35-1.69-7.54-.55-10.7-2.53l.68-.4C193.52,402,179.93,399,203,380.79L186,377c7.43-2.06,15.64,6.62,21.47-.09,1.58-2.18,3.64-4.47,6.85-4.59-9.26,10.26-22.62,16.85-28.92,29.7-3,6.22.23,12.89,7.07,14.12a375.9,375.9,0,0,1,47.41,12.3c1.66.08,4.67-.15,4.44,2.34-2.18,5-12.75-.09-17-.45-15.09-1.91-28.24-10.69-43-13C183.15,417.21,181.8,417.48,180.91,416.28Z"/><path class="cls-24" d="M267.13,302.66c-6.46,9.58-2.74,13.81-16.13,8.92,7.37-4.1,15.47-5.72,15-16.06a252.9,252.9,0,0,0-6.39-44.27,4.14,4.14,0,0,1,1.63-2.53C264.42,266.14,275.74,285.71,267.13,302.66Z"/><path class="cls-25" d="M76.2,420.39c12.13,3.32,24.1.25,36.11-.91,23.17-1.57,47.92-6.27,70.28-6.8-29.73,4.4-60.88,6.47-91.32,10.13,1.46,1.24,3.28.69,4.6,1.56-4.5,1.24-9.54-2.44-14.39-.61C81.11,421.7,73.69,421.13,76.2,420.39Z"/><path class="cls-26" d="M176.08,335.34c0-4.41,6.63-5.34,5-10.48-.21-1.26-.07-1.92,1.39-1.42,3.84.89.3-6.37,7.43-5.58-3.44,6.44-2.15,15.3-11.29,18.09C177.75,338.43,175.19,338.11,176.08,335.34Z"/><path class="cls-27" d="M143.74,367.72c-1.7,1.79-1.07,2.57,1.15,2.69,1.69-.47,18.09,3.27,10.72,4.49-4.58-.32-8.71-2.41-13-3.59-3.85-1.21-5.62,4.57-1.56,5.55,7.32,2,33.64,8.52,39,4.64,1.13-3.42-4.32-2.8-1.05-7.53.56,1.29,1.86,1.64,2.91,2.32h-1.68c-.48.91.38,1.25.61,1.78,1.44,3.42,0,5.9-3.75,5.77-11.87-.82-23.81-2.35-35.26-5.7-4.62-.54-5.74-6-1.52-8.17,1.29-.83,1.23-1.52-.1-2.19Z"/><path class="cls-28" d="M254.35,398.35c-1.6-2.3-4-5.43-3.91-8.12,8.29,1.72,16,3.19,24.37,5C267.63,396.78,260.87,396.81,254.35,398.35Z"/><path class="cls-29" d="M293.23,416.1c-1.65-5.52.65-11.49,1-17.05,5.66-4.75,6.24-14.13,14.62-14.84-.75-1-1.33-.19-1.6-.53-.44-.54.19-.9.51-1.11,4.5-2.62-.69-6.26,1.06-9.58,1.22,1.85,1,7.15,3.65,7,2.1,1.21-.78,4.22-2.15,5.06-9.3,6.19-15.59,15.53-15.54,26.86C294.69,413.36,294.8,415.36,293.23,416.1Z"/><path class="cls-30" d="M267.13,302.66c5.48-13.77-.26-27.83-2.78-41.57,6.77,6.45.75,12.1,4.9,11.83,1.32,3.77,1.06,8.83,2,12.9.34,5.52-.87,13.39-4,17.74Z"/><path class="cls-31" d="M176.08,335.34l.2,1.74c1.09.27,1.3-1.33,2.33-1.13.2.53.81,1,.08,1.61-3.56,3.27,2.73,4.55.39,7.41l-1.05.12c-1.35-.85-1.17.25-1.28,1,.42,1,1.14,1.93.16,3-1.86,4.39-1.08,9.44-2,14.13-1.31,4.95,4.13,4.2,3.52,8.15-13.13-3.6,3.13-24.2-6.72-24.32,0-.32,0-.63,0-.95,8.95-6.12-12.35-3.46-13.89-5.56-.44-.86-.17-1.34.78-1.17A36.34,36.34,0,0,0,175,338.7c.58.56-.27.86-.36,1.34.45-.27.79-.93.41-1.39Z"/><path class="cls-32" d="M157.79,340.5c4.9.55,13.92-1.44,17.27,2.45.75,2.65-.13,3.47-3.38,3.11C171.39,343.57,152.81,342.16,157.79,340.5Z"/><path class="cls-33" d="M245.18,361.2c.84-9.63.63-21.88,8.75-28.43.38.09.78.18.44.71-5.7,8.81-7.65,18.74-8.66,29C244.58,362.43,245,361.79,245.18,361.2Z"/><path class="cls-34" d="M93.87,424.53c12.08.89,24.14,4.29,36,7a.67.67,0,0,1,0,1.05C117.92,429.94,105.52,428.06,93.87,424.53Z"/><path class="cls-35" d="M177.4,368.35c-6.61.73-1.91-10.56-2-14.3.38-2.08-.07-4.32,1.21-6.63C177.6,354.29,174.1,361.87,177.4,368.35Z"/><path class="cls-36" d="M129.88,432.55V431.5c9.64,1.19,19.05,3.67,28.54,5.68C148.65,437.63,139.55,433.24,129.88,432.55Z"/><path class="cls-37" d="M292.15,422.07c-10.13-2.58-21.06-3.65-30.79-7l30.73,6Z"/><path class="cls-38" d="M245.18,361.2a134.57,134.57,0,0,0,5.12,29.89C245.65,382,244.36,371.27,245.18,361.2Z"/><path class="cls-39" d="M125.25,522.94l-.61-.69c7.22-3.45,14-8.24,21.51-10.88C139.31,515.46,132.36,519.34,125.25,522.94Z"/><path class="cls-40" d="M244,457.54c1.35-.11,2.31-1.83,4.29-.79-7.32,3.49-13.73,7.86-21.09,10.64C232.12,463.26,238.57,461,244,457.54Z"/><path class="cls-41" d="M156.2,313.67c.33-.59-.9-2.39.75-2.21a3.17,3.17,0,0,1,3.07,3.17C160.33,319.15,155,317.76,156.2,313.67Z"/><path class="cls-42" d="M169.91,315c-1.66.2-.59,2.85-2.76,2.7s-1.84-2.43-2.55-3.65c-.41-.72,1.58-.95,2.54-1.06C168.41,312.86,169.21,313.73,169.91,315Z"/><path class="cls-43" d="M179.08,345c.57-3.22-5.93-4.31-.39-7.41C177.57,340.76,184.05,342.1,179.08,345Z"/><path class="cls-44" d="M181.34,317.22c.7,1.42,3.87,1,2.72,3.88-.5,1.24-1.11,1.65-2.35,1.45-2.54-.42-1-3.47-1.13-5.19A.53.53,0,0,1,181.34,317.22Z"/><path class="cls-45" d="M181.34,317.22l-.75.14c-1.88-1.18-3.55-1.85-4.1,1.3-.12,1.76-4,.48-4-.89-.09-1.2,1-.87,1.62-1.13C176.65,315.64,179.16,314.21,181.34,317.22Z"/><path class="cls-46" d="M233.8,281.92c-2.31,3.66-2.75,8-4.25,11.93C229.11,292,231.64,280.64,233.8,281.92Z"/><path class="cls-47" d="M162.49,317.34c-1.05,0-2.1.19-2-1.3,0-.81.19-1.65,1.28-1.32s2.82-.16,2.86,1.62C164.62,317.82,163.2,317.14,162.49,317.34Z"/><path class="cls-48" d="M179.69,319.58c.05,2.44-2.87,1.4-2.37-.74.1-.77.07-1.63,1.18-1.54C179.83,317.42,179.88,318.37,179.69,319.58Z"/><path class="cls-19" d="M407.63,16.76l-5.21,5.8C403.67,20.19,404.18,17.16,407.63,16.76Z"/><path class="cls-49" d="M267.3,303.56a10.76,10.76,0,0,0,1.74-4.09c.36,3.39-1.17,6-3.34,8.4l-.39-.36A11.77,11.77,0,0,0,267.3,303.56Z"/><path class="cls-40" d="M227.28,467.34c-2.2,2-5.15,2.76-7.61,4.35A14.53,14.53,0,0,1,227.28,467.34Z"/><path class="cls-50" d="M176.75,346.08a1,1,0,0,1-.53-1.18c.15-.69-.55-2,.79-1.91,1.14.06,1.43,1,1,2.1Z"/><path class="cls-51" d="M171.65,317.11c.21,1.58-2.15,1.32-2.32.15C169.05,315.76,171.62,315.85,171.65,317.11Z"/><path class="cls-3" d="M603.43,517.68c6.39,4.29,13.36,8,19.43,12.61-2.34,1.61-5.12.18-7.49-.27-16.55-3.43-33.14-6.7-49.7-10.08-27.74-5.75-55.69-10.68-83.21-17.32-17-2.75-34.18-6.65-51.23-10-3.26-.9-8.75-.17-10-4.07-2.86-12.18-5.8-24.34-8.72-36.5-.86-3.56,0-4.26,4.11-3.34,40.1,9.41,81,16.22,120.78,26.66C559.1,489.76,582.76,502.37,603.43,517.68Z"/><path class="cls-52" d="M531,474.17c-39.34-7.9-79-17.72-118.18-24.75,2.94,12.7,6.26,25.67,9.13,38.47a3.36,3.36,0,0,0,3.09,3.05c18.5,3.75,37.07,7.21,55.51,11.21-6.07,1.1-11.8-2.22-17.83-2.59-14.35-2.78-28.74-5.13-42.89-8.72-2.85-.28-7.58-3-9.75-.36-.18-1.81-1.65-1.87-2.94-2.13-22.84-4.78-45.93-8.81-68.64-14l1.18-.09c3.58-3,22.5,3.87,29.27,3.81,12.92,2.53,26.37,7.33,39.43,7,2.41,2.41,5.63,2.64,8.74,3.17,2.75.48,2.94.33,2.38-2.34-3-12.32-5.37-24.83-9.16-36.94a4.43,4.43,0,0,1,.62-3.87c3.63-5.27,2.79-12.3,5.46-17.44,4.31.77.25,10.29-.14,13.34-.64,1.74.54,3.91-1.18,5.42,34.44,10,76.18,16.19,113,25.15C529.34,471.86,531.9,472.43,531,474.17Z"/><path class="cls-52" d="M482.46,502.62q70.05,13.63,140,28c-1.89,1.87-4.48.52-6.54.07-11.47-2.2-22.9-4.88-34.39-6.89-33.19-7.12-66.74-13.23-99.73-20.8Z"/><path class="cls-53" d="M581.38,523.38c15.43,3.31,31.11,5.61,46.39,9.47-.34,1.6-1.49.56-2,.45-14.8-3-29.57-6.14-44.35-9.24C581.16,523.88,581.2,523.46,581.38,523.38Z"/><path class="cls-54" d="M581.38,523.38v.68C533.9,514.9,534.84,513.38,581.38,523.38Z"/><path class="cls-55" d="M503.53,507.87c11.78,1.65,23.49,4.09,35,6.87,0,.42-.35.42-.58.57C526.57,512.66,514.71,511.08,503.53,507.87Z"/><path class="cls-56" d="M437,560.06c2.2.82,1.85,3.06-.59,2-2.63-1-7.19,0-8.25-3.16C431.21,558.41,434,559.93,437,560.06Z"/><path class="cls-57" d="M630,533.9c4.6,2,8.47,5.16,12.7,7.75-.07,1.87-10.15-5.88-12-6.53C630.37,534.88,629.55,534.73,630,533.9Z"/><path class="cls-58" d="M642.19,542.12l.55-.47a43.14,43.14,0,0,1,6.75,4.51C646.57,545.69,644.56,543.58,642.19,542.12Z"/><path class="cls-59" d="M538,515.31l.58-.57a19.55,19.55,0,0,1,5.7,1.22c0,.19,0,.37,0,.55Z"/><path class="cls-60" d="M653.68,549.06c2.1.25,3.42,1.87,5.07,2.9A8.27,8.27,0,0,1,653.68,549.06Z"/><path class="cls-1" d="M750.62,515.68c1.29.54,1.52-.67.35-.84-20.34-11.86-42-22.26-61.73-34.75,35.33,7.13,70.61,14.45,105.92,21.67q0,11.38,0,22.79c-.81,1.12-2,.64-2.91.44-11.59-2.42-23.25-4.47-34.16-7.13,11.82,6.92,25.88,13.07,37,21.25,0,9.25,0,18.5.14,27.75.17,3-3.07,1.4-4.62,1.18-45.94-10.27-92.21-19.14-138.12-29.41a6.25,6.25,0,0,0,3.16-1.35c-8.74-2.47-17.2-2.91-25.68-5.54-7.88-3.81-14.68-9.74-22.49-13.71-4.74-2.81-2.22-5,2.21-3.67a1.47,1.47,0,0,0-1.36-.35c-8.66,1.91-5.2-4.72-11.63-4.29-4.59,0-8.44-1-9.87-6.07-.15-.52-.48-.51-.86-.43-4.16.84-2.34-2-3.06-4.47-3.92,4.87-16.57-7.95-21.33-9.81-4.54-2.07-.51-8.82,3.53-7.19,3.6,1.77,7.93-.3,11.13,2.29,3.8,1.74,8.61.66,12.7,2.1,5.31-.08,6.77,6.81,12.38,4.07,5.75-2.09,10.81,2.44,16.62,1.86,10.6,3.13,21.29,6.24,32.33,8.16,3.65.36,7.78.06,10.92,2.91a2.45,2.45,0,0,0,2,.28,5.7,5.7,0,0,1,5.29,1.66c2.4,2.14,6,.08,8.92,1.49,3.78.67,4.28-4.73,9-3.13,13.8,3.49,28.79,4.52,42,8.92,5.84,2.58,13.28.62,19.47,3.77A2.71,2.71,0,0,0,750.62,515.68Z"/><path class="cls-61" d="M795.12,539.11c-13.36-7.23-27.23-14.11-39.84-22.47l39.86,7.91Q795.13,531.83,795.12,539.11Z"/><path class="cls-62" d="M750.62,515.68c-.67,2.62-2.64,1.76-3.84,1a13.22,13.22,0,0,0-8.22-1.84c-2.46.17-4.8-1.68-7.45-.17-2.85.79-4.44-4.63-7.74-3.27-2,.3-3.71-.9-5.5-1.36-3-.77-6.28-.4-9.16-1.83-4.14-.39-8.25-.74-12.22-2.11-21-6.16-11.43,4.18-20.53,1-5.08-1.55-5.11,2.46-9.77-2.79-3.3.55-6-1.11-9-2-5.13-1.53-10.89-1.08-15.92-2.82-9.41-2.41-18.13-6.16-27.87-6.86-2.82.21-5.78-1.48-8.67-2.33a2,2,0,0,0-1.89.14c-2.35,1.56-6.65,1.46-8.68-.09-1.58-3.73-2.56-2.66-5.7-3.33-3.84-1.44-8-.92-11.88-1.34-2.83-3.92-7.1-1.08-10.68-2.49-4.53-3-8.35,3.9-3,5.41,5.57,3.73,11.13,7.35,16.9,10.74,2.3,1.71,1.67-2.7,3.55-2.58,1.51.32,1,4.61.18,5.78,1.93.23,3.6-1.16,5.26,0-1.55,1.48-.27,4.08,2.34,5.42,3.7,2,10.37-.94,11.61,4.4.36,1.94,1.86,1.41,3,1.28,7.46-2.25,7.71,3.22,3.72,1.89-1.45-.24-3.3-2.73-4.35.52-1.14,0-.84,1.39-1.69,1.65l-.66-.44c-1.84-4-5.88-4.4-9.3-5.85-12.19-7.06-23.9-14.88-35.86-22.32-7.57-3.63-19-14.66-26.39-14.79l-.25-.11c.5-2.68-4.28-1.92-4-4.39.92-1.6,3.1-.33,4.52-.38.92-.08,1.28,1.3,2.32.88C605.71,486.56,678.39,500.47,750.62,515.68Z"/><path class="cls-63" d="M416.21,427.87c.4,7.51-3.25,14.16-5.46,20.7-3.41,3.61-2.75,6.73.11,10.68,6.73,10.28-6.55,23-17.43,18.66-25.36-6-50.73-12-76.15-17.69-2.09-.31-5.87-2.17-4.59-4.76,19.3,2.79,39.61,6.53,58.67,9.82-19.62-3.5-41.29-6.88-61.21-10.54-6.13-8.58,3.65-17.46,12.23-17.75,3.51-.79,6.78.2,10,1.48,14.24,4.45,28.34,9.36,42.95,12.54,1.93.52,32.77,7.39,24.57,2.24-13.35-6.65-28.2-9.74-42.42-14-1.16-.32-2.55-.35-2.9-1.92,8.28-3.05,17.86,1.91,25.82-5.58,12.46-9.21-.4-24.28-9.12-31-1.8-2.18-5.91-3.55-6.17-6.44,1.86-1.41,3.8-.32,5.53.11,1.91,1,36.23,6.86,26,.71-39.54-14.54-12.49-1.15-10.46-22.88,1.17-15.68-5.87-30.42-6.25-46-.74-22,13.09-43,8.36-65.08-1.83-7.78-7.35-13.47-14.08-17.59-4-3.16,1.71-3.93,4.17-2.82,8.48,2.55,17.24,3.91,25.9,5.62,6,.85-1.79-8,4.95-7,2.47.06,5,.41,7.28-1,8.29-4.6-.64-11.08-5.79-13.53-13.58-6.16-2.54-20.65,4-28.08,7.23-8.62,15.27-16.56,21.61-25.94,5.28-7.09-.22-7.2.6-11.25,4.54-.88,9.62,3.23,13.33,5.82,3.07,4.08,8,7.72,2.38,12.36-11.3,11.41-22.71,23.26-30.35,37.6-4.55,8.29,6.8,4.69,11.2,5.37,7,.52,7.31.87,7.83,8.23,0,3.28.56,6.54.28,9.83-18,9.39-23.51,3.16-7.29,17.88,1.35,1.46.08,2.51-1.06,3.25-14.08,9.59-25.1,23.43-29,40.28-9.43,29.19,14,73.46-2.3,93.16-.81.9-1.22,1.61-.28,2.72C407.65,403.37,419,418.51,416.21,427.87Z"/><path class="cls-63" d="M611,362.92c-5.05-9.56-8-20.1,1.66-27.65,7-5.38,16.12-11.19,22.67-1.94-.52,1.28.75,1.05,1.24,1.38,13.91,9,7.57,27.23-4.12,35-3.52,3.08,6.72,6.11,5.48,9.89-2.14,2.15-5.3,2.08-7.79,3.57-12.85,7.18-15.47,25.15-10.89,38.13,4.09,12.56,13.33,22.57,17,35.27,2.61,8.09-5.59,3-8.18,6.56-.72,2.65,2.65,3.9,4.59,4.66,6.76,1.93,10.71,12.57,2.65,15.6-7.6,2.76-15.69-1.66-23.34-2.72-9.8-3.12-72.72-10.21-51.55-27.9,13.6-6.53,38,6.58,53.57,6.8-9.53-4.41-19.28-8.3-29-12.28-6.39-.78-10.84-9-4.27-12.69,10.49-6.67,15.76-17.15,20.85-27.78,13.65-20.14-9.87-34.8,20.56-33.16,1.31,0,2.77.17,3.49-1.39.74-1,2.95-.78,2.66-2.56s-2-1.83-3.32-2.36a42.9,42.9,0,0,0-12.31-3.53C611.94,363.78,611.28,363.65,611,362.92Z"/><path class="cls-18" d="M475,384c-2.62,5.34-8.47,7.65-12.19,12-2.49,1.86-2.12,7.32-6.32,4.31-1.66-7.63,3.77-15.58,9.61-20.06,8.79-6.44,13.85-21.38,9.32-31.21-2.46-6.64-24-25.6-9.23-27.9,2.6,0,7.7-.43,5.32-4.22-.46-.82-1.29-1.5-.93-2.6,4.2-1,8.75,1,12.9,1.9,5.76,1.27,5.35,11.13-1,9.72a14.88,14.88,0,0,0-2.58-.21c2,.9,4.66,0,4.88,3-1.55,2.4-3.7,2.42-6,1.32-3.12-1.52-5.57-.17-8,1.65-3.33,1.18,8.3,10,9.43,12.29,3.26,3.1,3.32-6.86,13.59-2.94,11.15,3.19,18.12,2.42,17.55,16.75-1.85,2-5,2-5.89-.89-.69,2.62.51,5.09,0,7.54-2.16,3.44-6.78.88-8.89-1.23-.4-4.2-2.07-8.4-.18-12.34-3.69,8.77-4.36,21.67-15.16,25.17C478.09,377.59,477.41,381.6,475,384Z"/><path class="cls-64" d="M435.83,195c5.07-5.55,10.28-11.06,16.3-15.56,4-3.3,4.22-3.92,2.32-8.72l0,0c-4.62-5.38-10.19-10-17.52-10.88-11.45-.72-26.67,4.65-34.2-7.27-2.14-5.74-40.22-8.26-32.39,2.79,7.64,11.55,17,22.86,18.61,37.12,1.82,9-5.08,26.59-15.47,16-1.8-2-4.19-4.28-6.33-1.37-1.66,3.17-12.41,11.05-8.17,13.79,17.3,11.95,16.77,17.46-5.14,16.68,24.37,31.69,9,67.26-12.65,96-6.6,10.53-16.7,20.84-16.82,33.95.23,10.31,11.22,10.52,19,11.69,7,1.79,14.15,2.54,21.1,4.37a217,217,0,0,1,34.72,11.86c5.76,7.63-27.56-.18-30.88-.75-12.06-1.17-23.89-5.86-34.42-11.87-5.46-3.36-11-2.94-16.75-2.17-1.63.44-3.31.71-4.67-.71,2.18-2.09,9.68-.15,8.59-4,.19-.24.39-.47.59-.71.48,3.57,3.08,2.78,6,2.74-28.23-27.56,75.66-82.54,21.52-141.52,21-3.16,29.75,2.11,6.77-15.5-4.38-1.84,8.85-12.73,10.29-15.68,6.45-7.93,11.55,12.53,18.22,1.51,9.34-18.2-6.37-36.16-15.91-50.67-7.85-15.87,25.24-8.52,32.09-8.59.79-19.39,17.2-34.39,31.29-47.22,4.56,18.08,4.76,75.07-26.08,51.88,8.45,10.74,24.26.76,34.86,6.93,6.25,2.6,11.78,6.13,15.65,11.86,2.42,3.57,2.5,4.69-.73,7.66-6.42,5.67-13.22,10.91-19.28,17C435.89,195.59,435.52,195.5,435.83,195Z"/><path class="cls-65" d="M578.91,443.72c2.91,1.64,17.26,6.34,8.82,9.78-7.73-1.62-16.63-3-23.11-7.75-6.83-5.66-27,17.48-10.23,21.21,25.42,6.54,50.55,15.69,77,16.94,10.68-1.23,9.49-12.1,1.16-15.35-4.85-.62-8.94-7-2-7.7,6.58-.31,6.64-.36,4.26-6.76-5.16-14.37-16.91-26-18.41-41.68-.92-17.26,5.13-27.47,21.34-33.27.92-3.31-3.36-3.55-4.8-5.68l0,0c-6.91-3.77,10.08-9.9,10.42-19,2.06-8.71-1.48-18-10.57-20.7.9-1.25,1.74-.4,2.47-.48,14.17,7.2,12.84,26.13-1.27,35.41-4.75,4.9,6.1,4.3,5.65,8.75-.63,5.23-7.69,4.28-11,7.16-12.28,8.44-11.68,26.11-7.91,39,4.5,12.63,14.68,23,16.7,36.56-.64,4.54-7,1.28-7.92,3.86,1.11,4.26,12.35,1.77,11,14.84-6.53,18.16-71.71-7.47-87.35-10.23-15.87-5-3.07-22.75,7.4-26a5.27,5.27,0,0,0,3.44-3.56c1.5-4.43,5.28-7,9-9.5,13.85-10.83,38.18-26.52,27-46.73-5.32-8.94-14.15-17.87,2.55-19.9-13.32-17.29,3.53-42.15,23.42-36-19.55-1.66-35,15.56-23,34.32,1.74,2.7,5.32,1.06,8,1.54,3.91-.47,27.31,6,14.84,9.56-6.81,1.35-14.72-1.65-20.54-5.69-3.49-3.25-13.5-.27-9.8,5.3,7.54,10,14,23.33,5,34.53-8.6,13.39-23.27,20.38-33.86,31.61C563.62,441.89,576.78,439.71,578.91,443.72Z"/><path class="cls-66" d="M489.38,369.43a95.19,95.19,0,0,0,5.83-17.89c.09-1.24.43-4.51,2.43-3.28,1.24,3.09-2.72,5-1.13,10.17-.08,3.58.91,6.94,4.83,7.63,1.68.6,3.26.3,3.93-1.73-.5-3.49-2.28-7.08.85-10,.86,1.53.33,2.92.68,4.14,1.79,1.79,3,.49,4.26-.77,0-6.7-1.87-13.26-9.92-13.71-6.34-.41-13.78-6.9-18,.8-1.23,1.69-1.85,1.6-3.15.15-3.49-4.48-8.9-8.25-11.59-13,.28-.91,1.43,0,2-.56,3-1.7,6-2.94,9.41-1.09,2,1.07,3.53.46,4.54-1.54-.81-3.19-5.17.1-6.48-3.68,3-1.57,6.37,1.64,8.18-.36,4.92-9.28-9.94-8.63-15.42-10.21-1.67.45-2.71-.8-3.07-2.23-.21-4.65-1.71-3.51-5.57-3.59-3.26-.82-4.63-5.82-1.76-7.1a1.18,1.18,0,0,1,0,1.32c.47,7.58,9.57-2.85,9.31,9.09,5.48,2.91,13,.82,17.34,5.86,1.74,3.68,1.62,5.43-1,8.06a3,3,0,0,0-.71,2.6c-.91,8.67-6.78-.38-14.79,4,20,22.93,5.49,2.21,23.57,7.25,4.19,1.37,8.55,2.23,12.78,3.48,4.61,1.94,9.09,21-.52,17.5-.13,4.08.09,9-5.63,6.94-5.74-1.62-4.93-6.42-5.32-11.69-2.53,5.7-2.91,11.49-6.47,15.93C487.54,371.51,488.78,369.94,489.38,369.43Z"/><path class="cls-67" d="M448.12,363.09l3.28-3.74c-8.89-1.44-13.32-6.42-13.94-15.16-1.63-9.33-1.93-18,1.87-26.86a3.32,3.32,0,0,1,1-2c3.83-2.39,5.9-6.89,10-8.89,5.33.38,6.15-4.58,9.13-7.32,1.84,2.27-3,5-2.33,7.75,1,1.71,3.78,3.72,1.45,5.63-1.46,1.18-2.71.48-3.77-.7-3.91-6.71-8.15.89-11.83,3.48-6.69,8.72-4.83,20.52-3.47,30.85,1.06,7.1,5.9,10.57,12.8,11.66C455.6,358.45,449.17,366,448.12,363.09Z"/><path class="cls-68" d="M636.77,483.55c7.43-7.28,1.22-15.34-7.31-17.5a2.11,2.11,0,0,1,1.13-4.05c2.45,0,5.08.67,6.89-1.8C639.6,465.31,645.7,482.82,636.77,483.55Z"/><path class="cls-69" d="M435.83,195l.47.7c-4.34,6.82-9.8,13.36-13,20.94-3,5.15,13,2.75,15.94,3.46,2,0,3,.69,2.94,2.85-.57,5.13,1,11.17-.56,15.87-2.6-3.57,2.05-17.89-4.26-17.39-4.93-1-19.71,4.33-16.37-5.07A79.78,79.78,0,0,1,435.83,195Z"/><path class="cls-70" d="M533.77,470.28c-1.16,1.33-1.62-.45-2.45-.56a10.29,10.29,0,0,1-4.51-1.78c-16-10.36-32.11-20.58-48-31.08C464.4,423.61,530.85,468.78,533.77,470.28Z"/><path class="cls-71" d="M620.78,423.64c-5-10.34-4.4-20.57.59-30.72C619.54,403.06,619.91,413.42,620.78,423.64Z"/><path class="cls-72" d="M477.06,433.65c-2.17,1.77.64,4,.4,6-.13,1.61.3,3.4-1.2,4.64-1.13-.67-.26-1.85-.81-2.39-.28,1.53,1.42,3.19-.38,4.73-1.18-1.4-2.65-10.78-1.61-12.14,4.64-6,.83-18.28-5.78-22.5-2.83-2.41-7.55-3.13-9.35-6.37.27-.88,1.54-1.05,2.24-.71C473.61,409.67,478.94,420.33,477.06,433.65Z"/><path class="cls-73" d="M432.62,220c-3.47-.18-13.44,3.22-10.34-3.57,2.72-6.2,6.91-11.58,11.18-16.77a2.66,2.66,0,0,1-.38,2.18c-3.88,4.91-6.2,10.49-8.93,15.92Z"/><path class="cls-74" d="M474.16,415.43c-4-4.81-9.26-7.74-14.88-10.16a2.68,2.68,0,0,1-2.67-4.1c2.58-1.83,4.37,4.84,5.27.84C468.07,404.56,471.82,409.36,474.16,415.43Z"/><path class="cls-75" d="M424.94,154.8l2.88-2.7c4.14,2.51,9.4,3.6,12.84,7a53.28,53.28,0,0,0-12.39-1.41c-.06-1.13.92-.35,1.23-.65C427.63,157.08,425.59,157.38,424.94,154.8Z"/><path class="cls-76" d="M414,416c-.08-.52-.16-1.05-.23-1.57,1.82-3.24,4.44-5.78,7.09-8.31,8.13-8-.25-18.06,11-27.38,3.14.79-7.37,9.24-5.14,17.59C427.35,404.79,418.76,410.35,414,416Z"/><path class="cls-77" d="M456.75,403.65l2.53,1.62c-2.41,1.28-8.2-1.59-7.32-4.55,2.09-4.19,7.38,3,8.44-2.39.32-.78,2.47-4.15,3.5-3.33-.36,1.83-5.36,5.21-2,7,2.65,2.79-1.52,4.27-2.47,1.19a2.45,2.45,0,0,0-2.65-2C453.82,402,457.15,402.84,456.75,403.65Z"/><path class="cls-78" d="M487,317.82c-5-4.27-12.83-1.79-17.34-5.86C475.12,313.49,484,312.11,487,317.82Z"/><path class="cls-79" d="M432.28,379.28l-.43-.53c4.71-6,10.64-10.66,16.27-15.66l.51.45c-.36,2.1-2.1,3.21-3.51,4.39C440.46,371.21,437.3,376.85,432.28,379.28Z"/><path class="cls-80" d="M468.91,307.42c-2.32-2.92-6.62,1.6-8.12-2.44C463.48,305.52,468.12,303.73,468.91,307.42Z"/><path class="cls-81" d="M475,384c1.89-3.75,5.54-10.41,10.29-8.55-3.71,2.26-7.58,3.76-9.35,8.16A.73.73,0,0,1,475,384Z"/><path class="cls-82" d="M463.79,395.74c0-.26-.07-.51-.11-.77,1.54-2.2,3.91-3.39,6-4.89a.59.59,0,0,1,.59.42A18.9,18.9,0,0,1,463.79,395.74Z"/><path class="cls-67" d="M460.3,302.87l-.22-1.28c-.71-.77.31-1.8-.62-2.48.4-.8,1.13-1.14,2.06-1.75A13.35,13.35,0,0,1,460.3,302.87Z"/><path class="cls-83" d="M470.72,388.46a8.84,8.84,0,0,1,3-2.33,8.71,8.71,0,0,1-3.42,4.37C469.28,389.79,470.06,388.92,470.72,388.46Z"/><path class="cls-84" d="M488.86,371.9a7.3,7.3,0,0,1-3.56,3.52,1.81,1.81,0,0,0-.29-.33c.36-2,2.07-2.68,3.52-3.61A2.18,2.18,0,0,0,488.86,371.9Z"/><path class="cls-85" d="M225.13,429.12c4.16.11,16.27,5.13,18.73,1.76.49-1.82-2.71-1.32-4-2.42,5.53-.64,12-.25,12.35-7.56A42.28,42.28,0,0,0,245.32,392c-8.87-13.56-7.87-27.54-2.79-41.82a41.64,41.64,0,0,0,3.2-23.25c2.8.18,6.75,1.94,9.1,0,.42-1.09-1.76-1.08-.94-2.24,2-.74,3.88.82,5.9.7,7.61.63,3.09-5-1-6.54-2.06-.5-1.64-2.54.58-1.7,4.35-.26,12.14,6,6.47,9.28-8,3.84-17.24,5.3-19.07,15.76-3.37,14.52-4.07,29,.17,43.43,3.09,11.95,14.61,21.33,12.26,34.45-3.52,12.2-9.3,6.09-1.68,19.95,3.48,17.4-24.59,4.58-33.43,4.68-11.25-2.6-68.3-8.53-44.33-27.8,1.38.49,1.49.6.28,1.71-10.11,12.1,6.95,16.15,16.53,15.55,16.68,0,32.73,6.56,49.3,8.21,2.88,1,8.59-.86,3.67-3.46C246.19,437,223.66,432.31,225.13,429.12Z"/><path class="cls-86" d="M354.71,437.34c3,.87,63.37,17.42,44.81,18.67-27.18-2.23-52.39-13.17-78.54-19.54-6.13-2.25-12.43-4.24-18-7.66-9-5.34-18.31,1.86-20.57,10.62-1.78-.09-1-1.13-.71-2,.37-7.16,8-12.34,16.13-12.69-2.21-3.1-5.75-6.35-4-10.12,3,3.39,3.22,8.67,8.92,9.16C320,427.79,338.28,431.15,354.71,437.34Z"/><path class="cls-20" d="M281.69,437.47c.25.39-.5,1.39.72,1.19,2.55.84,2.53,8.32-.34,4.64-3.3-5.51-18.83,12.88-24.87,7.67C265.36,446.46,273.58,442.07,281.69,437.47Z"/><path class="cls-87" d="M181.16,413.26c0-.51,1.66.1.74-1.07.9-1.21,0-2.79.78-4,1.1,2.53,2.25,5,5.4,7h-5.63C183.12,413.8,182.19,413.5,181.16,413.26Z"/><path class="cls-88" d="M257.44,451.17c3.77.76,7-1.1,9.64-3.07,3-2.22,6.82-2.74,9.39-5.83a3.73,3.73,0,0,1,6.37.76c1.9,10.35,14.18,10.26,22.31,12.52,10.57,2.58,21.08,6.11,31.93,8.24,12.58,2.95,25.16,5.84,37.73,8.77,10.25,1.35,21.15,8.19,31.16,3.33,2.67,2.45,4.9,12.35-.83,11-5.3-2.08-11.07-1.73-16.45-3.3-14.14-3.76-28.77-5.5-43-9-1.89-.53-4-.24-6-.32-2.21-1.35-4.54-2.6-7.19-2.26-2.25.3-4.1-.88-6.06-1.37-24.24-5.31-49.6-8.83-73.28-14.77C252.27,454.16,259.91,453.57,257.44,451.17Z"/><path class="cls-89" d="M259.35,317.14l-1.67.34c3.79.92,11.77,7.37,4.55,8.72-8.88.35-16.83-5.69-25.6-6.12-5.18-1.71-16-1-15.5-8.64,2.21-3.84,9.06-.58,12.82-2C242,313.56,250.24,316.58,259.35,317.14Z"/><path class="cls-90" d="M239,322a88.47,88.47,0,0,1,13.52,4.08c-2.95.73-7.22,0-10.67-1.74C241.2,323.23,238.72,324.31,239,322Z"/><path class="cls-91" d="M250.93,314.53a26.29,26.29,0,0,1-11.53-4.24l12.26,2.84C251.19,313.48,250.79,313.86,250.93,314.53Z"/><path class="cls-92" d="M236.63,320.08c4.85-1.17,12.38,2.95,17.28,4.67,0,.23,0,.46-.08.69C248.25,323.14,242.35,321.91,236.63,320.08Z"/><path class="cls-93" d="M239,322c.53,1.29,2.26,1.11,2.85,2.33-3.85-.46-7.22-2.18-10.59-3.92C234,320.38,236.47,321.36,239,322Z"/><path class="cls-94" d="M250.93,314.53c-.4-3.12,5.67.08,7.18.78A13.26,13.26,0,0,1,250.93,314.53Z"/><path class="cls-61" d="M225.13,429.12c7.78,4.65,17.31,5.62,25.61,9.26,12.4,12.27-36-1.91-40-1.74-8.76-3.49-31.51,1.59-34.4-9-.49-3.61-.31-7.18,3.07-9.63.6-.43.6-.43.36-1.09C192.54,414.19,210.65,427.43,225.13,429.12Z"/><path class="cls-95" d="M223.91,427.34a119.08,119.08,0,0,1-26.35-8.83,243.89,243.89,0,0,1,33.88,8.77C229.29,429.5,226.47,426.9,223.91,427.34Z"/><path class="cls-96" d="M223.91,427.34c5.93-1.22,12.1.89,17.56,3.3A67.21,67.21,0,0,1,223.91,427.34Z"/><path class="cls-97" d="M155.44,373.73a18.76,18.76,0,0,1-7.66-1.91A19.79,19.79,0,0,1,155.44,373.73Z"/><path class="cls-15" d="M354.71,437.34c-18.61-5-38.06-9.17-56.32-13.9-11.08-12.55-1-31.55,11.51-39.1,1.64-1,1.6-3.13,3.35-3.79,5.52-1.14,11.6-2.52,17.09-.75,10.77,7.13,23,10.52,35.12,14.51C393.82,415.3,396.42,439.42,354.71,437.34Z"/><path class="cls-26" d="M175.05,338.65a1.17,1.17,0,0,1,.26,1.91c-.87,1-1.66-.51-2.86.09.79-1.26,2.18-.89,2.55-1.95Z"/><path class="cls-9" d="M593.47,511.39c3.38-.37,9.88,1.84,9.3,5.85A72.27,72.27,0,0,1,593.47,511.39Z"/><path class="cls-52" d="M531.5,474.24c1.09-.74,8.73.69,5.68,1.81Z"/><path class="cls-98" d="M474.81,446.45c1.16-1.54.22-3.35.77-5.34l.48,2.63c.84-3.37.08-7,4.74-3.94Q501.65,452.9,522.47,466c1.1.68,3.06,1.36,2.55,2.72-.64,1.7-2.54.6-3.84.33-35.25-8.27-72.8-12.85-106.91-23,.26-.12.75-.28.74-.36-.44-3,.87-5.76,1-8.61s3.19-7.3.16-9.19c-.53-2.16-.62-5.2,2.55-4.24a195.79,195.79,0,0,1,22.87,4.87c8,6.78,21.13,1.18,27.87,9.63,1.71,2.72,1,5.93-1.71,8A21.74,21.74,0,0,0,474.81,446.45Z"/><path class="cls-99" d="M414.27,446c37,7.71,73.89,15.64,111,22.82-16.54-10.43-31.63-19.82-47.93-29.94-1.2-1.34-3.36-2.49-.94-4.57,18.31,11.78,36.46,23.79,54.9,35.38-1.31,1.23-2.6-.78-4.11.26.61.69,5.91,2.91,3.75,3.25q-58.22-12.6-116.46-25c-.94-.26-2.5-.21-2.32-1.6S413.6,446.36,414.27,446Z"/><path class="cls-100" d="M408.38,485.26q-1.2-4.68-2.41-9.37c15.64-13.63-6.77-20.59,4.78-27.32,5.08,12.52,6.67,27.7,10.67,41.6l-11.49-2.37C408.54,487.51,409,486.07,408.38,485.26Z"/><path class="cls-1" d="M651,496.69c-1.27,1.86-13.87.83-10-1.43C644.41,494.67,647.39,496.92,651,496.69Z"/><path class="cls-1" d="M677,502.12c-2.42-.56-11.55,1.29-12-1.08a1.26,1.26,0,0,1,1.66-1.16c3,1.86,8.48-.17,10.32,2.24Z"/><path class="cls-1" d="M661.94,499.16c-1.66,1.22-13.39.71-7.36-1.67C657.27,496.91,659.38,499.08,661.94,499.16Z"/><path class="cls-1" d="M617.1,491.66c-1.18-.82-5.17-.45-4.9-2.56.34-1.17,1.45-1.07,2.14-.66,1.36,1.53,4.66.08,5.27,2C619.58,491.55,618.37,491.68,617.1,491.66Z"/><path class="cls-1" d="M598.57,487.08c2.31.58,8.16-1.49,8.68,1.46-.45,1.84-6.88-1.19-8.68-1.15Z"/><path class="cls-1" d="M677,502.12c1.22.3,3.66-.82,3.84,1.08-.38,2.16-4.73,1.5-3.84-1.08Z"/><path class="cls-1" d="M630.19,492.26c-1.79.55-3.59,1.33-5.84-.14A8.71,8.71,0,0,1,630.19,492.26Z"/><path class="cls-1" d="M585.38,482.62c-1.82,1.15-2.37,1.19-5.66.53C581.77,481.83,583.61,482.72,585.38,482.62Z"/><path class="cls-3" d="M343.22,380.1c-20-.36-24.77-11.19-15-28.32,22.16-33.74,57.33-76.14,23.46-114.47,4.52-1.48,10.35-.46,15.33-1.19,11.23-2.57-6.92-12.39-9.89-15.56-3.63-1.61,8.38-11.7,9.65-14.37,2.6-3.62,5.27-.86,7.27,1.71,9.75,10.09,15.64-6.94,14.07-15.16-1.31-14.34-11.11-25.41-18.58-37-6-10.39,12.84-8.89,18.75-8.5,4.52,1.15,10.76-.12,14.22,3.16,3.57,7.07,9.67,9.5,17.25,9.1,5.74-.44,11.57-1.41,17.21.36,3,4.32,4.09,6.71.47,11.12-9.19,15.34-29.05,27.41-32.42,45.1-.48,6.75,8.51,8.37,12.67,12.19,8.61,6.88-1.21,13.43-9,11.29-3.44-.52-2.36,2.84-1.54,4.61,1.46,6.47-24.46-1.56-28.29-2.31-4.5-2-8-.14-2,2.32A27.46,27.46,0,0,1,389,259.87c4,14.25-1.73,29.26-4.9,43.19-3.34,12.81-4.22,25.65-1,38.77,2.48,13,11.9,41.19-7.51,44.39C364.7,384.65,354.39,380.16,343.22,380.1Z"/><path class="cls-3" d="M441.65,429.13l-25.41-5.21c-1.27-2.49-1.46-5.28-2.23-7.91,3.5-7.59,13.46-11.28,11.73-21-.16-16.77,18.68-24.52,27.59-36.53-8.54.15-15-6.1-15-14.51-.19-7-3.07-14.08.23-20.78,1.74-8.76,4.68-8.23,9.83-14.5,1.14-1.42,2.76.17,4.12-.28,3.43-1.06,1.49,4.57,5,4.05,2.35-.28,1.4-3-.11-3.79-.56-.53-2.27-.23-1.46-1.84,2-2.49,4-.15,5.76,1.18,4,.79,5.66,4.66,8.94,6.45,1.12,1.64,3.73,2.76,2.41,5.33-2.45,4.36-15.68-.19-10.58,8.65,5.5,10.66,18,19.5,15,32.6-1.23,19.24-20.62,20.27-20.81,39-1.54.37-3.94-.94-4.48,1.06s2.79,2.16,3.93,3.45c-4,3.19-9.84,2-14.68,4.19.84,1.12,1.86.8,2.71.88,6.78.59,13.36,1.91,19.46,5.12,5.57,2.35,11.9,10.7,4.08,14.46C459.32,431.86,453,425.13,441.65,429.13Z"/><path class="cls-16" d="M284,443.64c-3.75-6.9.55-14.52,8.25-16.69,3.72-1.06,7.09-1.36,10.9,1,6.88,4.23,14.79,6.39,22.31,9.32-8.8.68-20.06,6.55-15.41,16.86C304.25,456,285.27,451,284,443.64Z"/><path class="cls-101" d="M284,443.64c5.8,8.75,16.75,8.82,26,10.48,21.53,4.48,45.11,6.35,65.66,12-20.66-2.05-41.34-7.05-62-10.09C308.27,457.2,280.19,451.8,284,443.64Z"/><path class="cls-102" d="M283.48,444.24c5.94,10.17,19.07,9.16,29.11,11.76.17,1,1.47,1.21,1.48,2.29-10.22-3.77-26.33-1.19-31.34-12.81-.26-.78-1.17-1.7.11-2.45A1.42,1.42,0,0,0,283.48,444.24Z"/><path class="cls-103" d="M343.22,380.1c11.21-1.36,21.71,3.37,32.37,6.12l.55,1C365.26,384.42,354.19,382.49,343.22,380.1Z"/><path class="cls-104" d="M454.45,170.67c7.91,6.27-7.85,12.59-11.6,17.17-.07-2.12,1.73-3.12,2.9-4.34,2.21-2.3,3.94-5.16,6.73-6.81C455.05,175.17,454.35,172.85,454.45,170.67Z"/><path class="cls-105" d="M398.77,246c19.58,1.62-6.53-8.57,18.47-7-2.57,1.81-5.51,1.36-8.29,1.06C402.28,239.53,415.4,251.5,398.77,246Z"/><path class="cls-106" d="M433,221.43c10.73-2.14,7.83,4.13,7.81,11.88C439.21,226.37,442.66,220.58,433,221.43Z"/><path class="cls-104" d="M449.79,165.75a13.27,13.27,0,0,1,4.69,4.95C451.87,170,451.18,167.56,449.79,165.75Z"/><path class="cls-16" d="M578.91,443.72c-4.31-1.32-8.55-3-13.22-2.51-1.63.15-1-1-.71-1.72,1.48-3.78,4.55-6.17,7.74-8.33a122.48,122.48,0,0,0,21.91-18.73c13.26-12.39,11-26.24.38-39.43-5.33-6.83,7-11.48,11.54-6.53,5.07,4.84,12.66,4.95,19.26,6,.5,1.63-.08,2.27-1.81,2.22-31.84-2.25-8.55,11.11-20.16,29.47-2.67,5.11-5,10.4-7.83,15.43C590,432.89,575.1,434.75,578.91,443.72Z"/><path class="cls-107" d="M631.35,483.9c-26.64,1-51.81-10.17-77.41-16.08-15.7-4.62-2-21.77,8-24.48.72-.28,1.57-.93,2.13.4,5.17,6.29,15.29,6.17,22.65,8.86,1.08.26,2.22.51,2.86-.57.88-2.66-3.2-3.85-4.69-5.47a287.41,287.41,0,0,1,30.5,12.65c.7.36,1.41.62,1.53,1.79-15.14.05-44.28-13.65-56-7.46-5.06,2.67-5.53,9.19,0,11.63,7.09,3.74,14.31,6.79,22.36,8.24C599.33,476.41,615.15,481.12,631.35,483.9Z"/><path class="cls-108" d="M632.94,373.46c2.13,1.12,8,2.43,4.8,5.68C636.45,377,634.07,375.75,632.94,373.46Z"/><path class="cls-109" d="M643.36,344.23a13.55,13.55,0,0,1,0,10.28C643.39,351.09,643.37,347.66,643.36,344.23Z"/><path class="cls-108" d="M632,369.46a3.82,3.82,0,0,0,1,4C630.59,373.36,629.06,370.05,632,369.46Z"/><path class="cls-110" d="M484.39,328.72c-.39,6.44-5.37-1.05-13.94,2.63-.62-.29-1.55-.89-.27-1.15,3.21-.65,6.37-3,9.8-.56C481.7,330.86,483,329.4,484.39,328.72Z"/><path class="cls-111" d="M488.53,371.48c-2.68,4.15-7.57,4.49-10.9,7.79,1.18-4.85,8.75-5.44,11.75-9.84C489.1,370.11,488.82,370.8,488.53,371.48Z"/><path class="cls-112" d="M505.27,364.33c.52,5.15-8.36,2.41-8.3-1.33C499.54,364,502.73,366.91,505.27,364.33Z"/><path class="cls-113" d="M470.72,388.46c-1.41,3.2-5.22,5.18-8.14,7C464.69,392.39,468,390.77,470.72,388.46Z"/><path class="cls-114" d="M511.06,357.67c.05,2.38-4.61,4-4.26.77C508.32,358.72,509.67,358.09,511.06,357.67Z"/><path class="cls-3" d="M422.71,154.41a14,14,0,0,1-16.32-4.34c-1.3-2.77-4.16-.76-4.12-4,0-18.6,16.72-31.36,29.06-43.92,2.67,16.63,3,33.66-9.74,46.1C417.45,151.66,421.76,151.2,422.71,154.41Z"/><path class="cls-115" d="M337.87,380.54c20.79,3.6,41.52,7.42,60.88,16.43C377.49,398.26,358,390.7,339,382.36,338.29,382.12,336.45,382.26,337.87,380.54Z"/><path class="cls-116" d="M422.71,154.41c-5.23-3.22-5.33-3.33-.79-7.71,5.58-5.14,6.5-12.9,10.68-18.7C432.37,137,431.94,149.88,422.71,154.41Z"/><path class="cls-117" d="M424.94,154.8a8.93,8.93,0,0,0,5.7,2.18c-.65.83-1.68.26-2.37.75-9,1-21,2.23-24.65-8.4C409.57,156,416.41,158.74,424.94,154.8Z"/><path class="cls-118" d="M337.87,380.54c6.85,3.83,15.12,5.26,21.38,10.52A113,113,0,0,1,332,379.65,18.57,18.57,0,0,1,337.87,380.54Z"/><path class="cls-119" d="M588.61,451.38c-2.06.36-33-7.75-21-9.1A34.19,34.19,0,0,1,588.61,451.38Z"/><path class="cls-120" d="M613,364.33c21.72,2.88,17.57,12.52,1.9,2.83C614,366.43,612.65,365.92,613,364.33Z"/><path class="cls-121" d="M613,364.33a21.5,21.5,0,0,0,6.86,4.87c.56.26,1.85.19,1.65,1.48-5.9-.49-11.34-2.15-16.3-6.61A26.74,26.74,0,0,1,613,364.33Z"/><path class="cls-122" d="M468.29,312.73c-2.51-1.13-4.44-3.05-6.56-4.71C467.3,307.17,468.59,306.47,468.29,312.73Z"/><path class="cls-123" d="M460.33,306.94c-1.44-.5-2.89-.86-4.36-.1.63-2.77,2.34-5,3.85-7.26.89.57.21,1.33.26,2A5,5,0,0,0,460.33,306.94Z"/><path class="cls-124" d="M455.7,309.07c1.18.26,2.07.67,2.21,1.86C457.25,312.52,455.24,310.39,455.7,309.07Z"/><path class="cls-125" d="M441.65,429.13c9-7.14,20.37,4.41,28-2.35,5.19-11.82-19.3-15.82-27.44-16.32-1-.12-2.49.08-2.51-1.29,1.81-3.5,12.48-3,16.5-4.6,11.78,4.09,25.82,16.83,18.24,29.9-1.09,1.27-1.08,2.23-.23,3.76,1.4,2.54.43,5.47.62,8.22-2.38,1.71-4.29,1.67-9.67-.24,2.48-.62,4.45-1.54,4.51-4.45C467.56,428.87,448.39,437.54,441.65,429.13Z"/><path class="cls-126" d="M456.75,403.65c-1.23-.66-2.65-1-3.71-2.47a4.74,4.74,0,0,1,3.72,0C456.77,402,457.41,402.84,456.75,403.65Z"/><path class="cls-127" d="M344.07,436.06c19.21,5.87,39.93,8.86,57.53,18.78-24.59-1.64-48.15-9.9-71.31-17.61C333.84,433.41,339.59,435.62,344.07,436.06Z"/><path class="cls-128" d="M344.07,436.06c-4.59.43-9.29-.45-13.78,1.17-9.5-3.06-20.56-5.7-28.26-11.72C316.31,428.75,330.26,432.13,344.07,436.06Z"/></svg>