<svg id="Layer_1" data-name="Layer 1" xmlns="http://www.w3.org/2000/svg" viewBox="0 0 611.49 427.92"><defs><style>.cls-1{fill:#43a49c;}.cls-2{fill:#fff;}.cls-3{fill:#deefed;}.cls-4{fill:#b6cbd5;}.cls-5{fill:#30437f;}.cls-6{fill:#aab9dc;}.cls-7{fill:#f3f3f4;}.cls-8{fill:#fddf50;}.cls-9{fill:#6276b5;}.cls-10{fill:#dbdbdc;}.cls-11{fill:#4961a8;}.cls-12{fill:#6376b5;}.cls-13{fill:#787878;}.cls-14{fill:#314480;}.cls-15{fill:#808fb9;}.cls-16{fill:#eff0f2;}.cls-17{fill:#395395;}.cls-18{fill:#283664;}.cls-19{fill:#808eb9;}.cls-20{fill:#d9dedf;}.cls-21{fill:#263561;}.cls-22{fill:#646465;}.cls-23{fill:#a8b8db;}.cls-24{fill:#cfd0d4;}.cls-25{fill:#93a4cf;}.cls-26{fill:#8798c6;}.cls-27{fill:#8898c6;}.cls-28{fill:#99abd2;}.cls-29{fill:#43a59d;}.cls-30{fill:#6275b5;}.cls-31{fill:#a7b7db;}.cls-32{fill:#eeeff2;}.cls-33{fill:#7d89ad;}.cls-34{fill:#627cb6;}.cls-35{fill:#7e89ad;}.cls-36{fill:#858cac;}.cls-37{fill:#7a82a5;}.cls-38{fill:#8999c6;}.cls-39{fill:#8796c5;}.cls-40{fill:#8695c4;}.cls-41{fill:#8897c5;}.cls-42{fill:#8a9ac7;}.cls-43{fill:#8998c7;}.cls-44{fill:#8493c2;}.cls-45{fill:#8090bf;}.cls-46{fill:#8594c3;}.cls-47{fill:#8494c4;}.cls-48{fill:#8291c2;}.cls-49{fill:#8797c5;}.cls-50{fill:#8291c1;}.cls-51{fill:#808fbf;}.cls-52{fill:#8696c4;}.cls-53{fill:#8695c5;}.cls-54{fill:#7e8fbe;}.cls-55{fill:#8392c2;}.cls-56{fill:#8c9cc7;}.cls-57{fill:#8393c2;}.cls-58{fill:#7e90ba;}.cls-59{fill:#7c8dbd;}.cls-60{fill:#7c8bbc;}.cls-61{fill:#8090c1;}.cls-62{fill:#8d9cc9;}.cls-63{fill:#7d8dbe;}.cls-64{fill:#7f8dbe;}.cls-65{fill:#8595c3;}.cls-66{fill:#8b9bc9;}.cls-67{fill:#94a5d0;}.cls-68{fill:#8f9fcb;}.cls-69{fill:#8c9bc9;}.cls-70{fill:#8e9fca;}.cls-71{fill:#8fa0cb;}.cls-72{fill:#95a6d0;}.cls-73{fill:#90a0cc;}.cls-74{fill:#91a2cd;}.cls-75{fill:#8493c3;}.cls-76{fill:#93a3cd;}.cls-77{fill:#90a5c9;}.cls-78{fill:#8595c4;}.cls-79{fill:#8998c6;}.cls-80{fill:#8697c5;}.cls-81{fill:#8494c3;}.cls-82{fill:#8191c0;}.cls-83{fill:#8a9ac8;}.cls-84{fill:#8393c3;}.cls-85{fill:#8190c0;}.cls-86{fill:#7e8cbd;}.cls-87{fill:#7c8abc;}.cls-88{fill:#8999c7;}.cls-89{fill:#8392c1;}.cls-90{fill:#90a0cb;}.cls-91{fill:#8c9cc9;}.cls-92{fill:#8e9fcb;}.cls-93{fill:#8596c5;}.cls-94{fill:#8292c3;}.cls-95{fill:#8b9bc8;}.cls-96{fill:#8292c2;}.cls-97{fill:#8797c6;}.cls-98{fill:#8191c1;}.cls-99{fill:#8c9dc8;}.cls-100{fill:#8b9bc7;}.cls-101{fill:#8d9eca;}.cls-102{fill:#8e9ecb;}.cls-103{fill:#93a4ce;}.cls-104{fill:#babab9;}.cls-105{fill:#6175b4;}.cls-106{fill:#b9babb;}.cls-107{fill:#bababb;}.cls-108{fill:#6377b5;}.cls-109{fill:#324480;}.cls-110{fill:#16203c;}.cls-111{fill:#d1d2d3;}.cls-112{fill:#d3d3d4;}.cls-113{fill:#4d61a5;}.cls-114{fill:#4d61a4;}.cls-115{fill:#98a7d1;}.cls-116{fill:#6e7eb9;}.cls-117{fill:#7483bc;}.cls-118{fill:#8692c4;}.cls-119{fill:#324581;}.cls-120{fill:#dedee0;}.cls-121{fill:#31437f;}.cls-122{fill:#b9baba;}.cls-123{fill:#99aad3;}.cls-124{fill:#a0b0d7;}.cls-125{fill:#9fafd7;}.cls-126{fill:#9eafd6;}.cls-127{fill:#a2b2d8;}.cls-128{fill:#a3b4d9;}.cls-129{fill:#9caed5;}.cls-130{fill:#9eaed6;}.cls-131{fill:#d2d2d2;}.cls-132{fill:#f1f2f3;}.cls-133{fill:#7a7f7f;}.cls-134{fill:#445f87;}.cls-135{fill:#818181;}.cls-136{fill:#7bb1a8;}.cls-137{fill:#7d8283;}.cls-138{fill:#f1f2f2;}.cls-139{fill:#6273b2;}.cls-140{fill:#4d65a9;}.cls-141{fill:#a5b7d9;}.cls-142{fill:#354781;}.cls-143{fill:#344782;}.cls-144{fill:#384a85;}.cls-145{fill:#a8b7db;}.cls-146{fill:#374b89;}.cls-147{fill:#f3f5f5;}.cls-148{fill:#b9b8b9;}.cls-149{fill:#354987;}.cls-150{fill:#334684;}.cls-151{fill:#f0f1f2;}.cls-152{fill:#586cad;}.cls-153{fill:#6f80bb;}.cls-154{fill:#6879b7;}.cls-155{fill:#6779b6;}.cls-156{fill:#edeef0;}.cls-157{fill:#a9b8db;}.cls-158{fill:#6c7db9;}</style></defs><path class="cls-1" d="M611.48,1.67v424.9a2.14,2.14,0,0,1-1.71.63h-1.89q-302,0-604,0c-1.14,0-2.39.4-3.43-.5a5.74,5.74,0,0,1-.18-2.47q0-210,0-420a20.88,20.88,0,0,1,0-2.09A2.15,2.15,0,0,1,2.77.21c.49,0,1,0,1.47,0Q306,.21,607.79.23C609.17.23,610.85-.32,611.48,1.67Z"/><path class="cls-2" d="M.51,426.46c.76,0,1.53.12,2.29.12H610l1.47,0c0,.7.26,1.62-1.05,1.27a3.36,3.36,0,0,0-.84,0H1.9a3.36,3.36,0,0,0-.84,0c-1.31.35-1-.57-1-1.27A.33.33,0,0,1,.51,426.46Z"/><path class="cls-3" d="M611.48,1.67A3,3,0,0,0,608.58.4c-.62,0-1.25,0-1.88,0H524.36L84.59.44q-39.5,0-79,0c-.69,0-1.39,0-2.09,0a2.81,2.81,0,0,0-3,1.72q-.24.39-.45,0V0H611.48Z"/><path class="cls-4" d="M0,2.09l.45,0C.3,9.23.31,16.34.45,23.46c0,1,0,1.95,0,2.92q0,58.29,0,116.56c0,36.9.17,73.79.06,110.69C.39,307.9.52,362.16.45,416.43c0,3.34.26,6.69.06,10l-.5.11Z"/><path class="cls-5" d="M277.39,416.91c-6.21,0-12.43-.05-18.64.13-17.11.48-34.22,0-51.32.45-16.2.38-32.4,0-48.59.39-19.9.44-39.8.05-59.7.45-18.78.37-37.57,0-56.34.4-12.5.25-25,.24-37.49.3a23.09,23.09,0,0,0-3.12.35c-.84.13-1.35-.22-1.38-1.11q0-.84,0-1.68V261.53c0-2.82,0-2.83,2.92-2.83h102c1.11,0,2.23,0,3.35,0,1.35,0,1.5,1.08,1.79,1.95,2.29,6.88,4.4,13.8,6.58,20.71.68,2.13,1.35,4.25,2.08,6.36.63,1.81,1.14,1.9,2.65.59,3.16-2.73,6.31-5.47,9.49-8.18a2.34,2.34,0,0,1,1.82-.87c.51-.08.8.91,1.42.28,1.73-1.77,4.22-2.91,4.74-5.68,1.08-2.24,3.22-3.46,5-4.94,8.39-6.9,16.38-14.26,24.62-21.31a16.43,16.43,0,0,1,3-1.9c8.33-7.84,17-15.3,25.42-23.06,3.33-3.08,6.52-6.31,9.87-9.36,3.7-3.39,7.51-6.66,11.27-10q6-5.34,11.79-11c8.12-8,16.7-15.44,25.08-23.13q7.8-7.14,15.61-14.25c8.46-7.71,16.75-15.61,25.54-22.94a107.64,107.64,0,0,1,9.65-7.35c1.21,1,.46,1.8-.22,2.59a47.93,47.93,0,0,1-5.25,4.72,58.8,58.8,0,0,0-6,6c-3.51,3.18-7.07,6.28-10.58,9.46-4.59,4.16-8.82,8.7-13.47,12.8A26.45,26.45,0,0,0,265.8,165a5.52,5.52,0,0,1-1.75,1.75c-8.4,7.46-16.64,15.08-24.64,23-1.92,1.15-3.34,2.89-4.95,4.38q-11.55,10.74-23.13,21.46c-4.76,4.4-9.47,8.85-14.22,13.26-7.4,6.87-14.78,13.78-22.21,20.62-4.41,4.05-8.77,8.17-13.15,12.25-7.75,7.22-15.45,14.49-23.3,21.6-2.12,1.92-4.17,3.91-6.23,5.89-8,7.71-16.47,15-24.35,22.93-1.78,1.78-2.85,3.79-2.42,6.36a9.42,9.42,0,0,0,2.75,4.85q4.59,4.86,9.26,9.65c7.41,7.58,14.65,15.31,22,23q5.06,5.28,10,10.72c.61.68,1.31,1.32,1,2.36s-1.32.95-2.09,1c-4.19.45-8.34,1.45-12.61.95a17.93,17.93,0,0,1-2.85-.54,23.57,23.57,0,0,0,8.09.45c2.65-.38,5.34-.69,8-.92a3.72,3.72,0,0,0,2.8-1.51c4.8-5.89,9.68-11.71,14.52-17.56q10.51-12.74,21-25.47c1-1.24,2.07-2.45,3.07-3.7.74-.92,1.45-1.92,2.78-2.05l.67.05c7.5.61,15,.27,22.53.35a5.1,5.1,0,0,0,3.19-.6c-.21-1.47-1.62-1.81-2.51-2.54-2.95-2.43-5.94-4.81-8.94-7.18-.83-.65-1.7-1.35-1.41-2.58s1.35-1.33,2.28-1.57c2.42-.65,4.85-1.25,7.29-1.83,1.44-.34,1.53-1,.5-1.94a19.52,19.52,0,0,1-4.35-5.3c-.41-1.47.64-2.38,1.4-3.31q9.78-12,19.64-23.89a56,56,0,0,1,6.19-7.05c.71-1.12,1.63-2.06,2.42-3.11a2.57,2.57,0,0,1,2.54-1.11c4.3-.61,8.63-.25,12.94-.32,12.18-.19,24.36.7,36.54.44a5.56,5.56,0,0,1,3.25.59c1.4,1.57.57,3.39.57,5.12a3.67,3.67,0,0,1-1.89,3.09,4.4,4.4,0,0,1-2.24.29c-2.5.08-4.27,1.51-5.92,3.15-.83,2.05-.62,3.07,1.19,4.25a19.34,19.34,0,0,0,12.1,3.09c2.27-.14,4.53-.59,6.8-.82a5.45,5.45,0,0,1,1.45.14c2.39.41,3.12,1.72,2.15,4.08-1.68,4.12-3.39,8.24-5.1,12.35-4.47,10.81-9,21.58-13.9,32.2-3.28,7.15-6.4,14.38-10.47,21.13a37.51,37.51,0,0,1-5.71,7.16c-3.07,3.09-2.57,5.76,1.32,7.74a30.07,30.07,0,0,0,4.52,1.63,3.26,3.26,0,0,0,1.76.48,2.2,2.2,0,0,1,2.5,2.57c-.2,1.18-1.14,1.65-2.06,2.17A117.76,117.76,0,0,0,270,377.79a42.6,42.6,0,0,0-7,7.11c-4.66,3.83-7.58,10.58-4.46,17,2.38,4.88,6.44,7.92,11.07,10.4,1.91,1,3.93,1.77,5.92,2.63C276.31,415.28,277.6,415.43,277.39,416.91Z"/><path class="cls-6" d="M349.12,350.4c-1.8,4.6-3.66,9.19-5.37,13.82-4,10.85-7.4,21.9-11,32.89a37.45,37.45,0,0,1-3.48,8,16.68,16.68,0,0,1-3.46,4.16,7,7,0,0,1-11.12-3.43,8.77,8.77,0,0,0-.84-2.78c-.85-.64-.92-1.72-1.46-2.54a45.67,45.67,0,0,0-3-11.44,2.73,2.73,0,0,1-.09-2.43c1.64-1,1.83-2.79,2.4-4.43,2-5.67,3.91-11.34,5.93-17,2.5-7,4.95-14.07,7.4-21.11q10.26-29.55,20.62-59.05c3.94-11.18,7.66-22.43,11.61-33.6a16.54,16.54,0,0,1,3.24-6,2.06,2.06,0,0,1,2.36,0c7.35,4.13,14.56,8.46,20.95,14,.53.45,1.12.86,1.21,1.63.57,4.09-1.3,7.58-2.82,11.11a120.09,120.09,0,0,1-7.09,12.93,3.51,3.51,0,0,1-1.75,1.71,2.52,2.52,0,0,1-1,.17c-2.63-.31-2.9-.14-3.76,2.25a15.3,15.3,0,0,0-.65,2.41c-.47,2.39.15,3.63,2.46,4.94,1.32.76,2.8,1.33,3.22,3a8,8,0,0,1-1,4.79c-2,3.79-3.77,7.7-6.07,11.34-.93,1.48-2.38,2.51-3.1,4.12a2.87,2.87,0,0,1-2,.87,4.28,4.28,0,0,0-3.73,3.68,23.74,23.74,0,0,1-2.07,6.08A164.64,164.64,0,0,1,349.12,350.4Z"/><path class="cls-5" d="M448.38,345.84a52,52,0,0,1-1.78-23.47,13.57,13.57,0,0,1,.14-6.21,56.48,56.48,0,0,1,14-24.89c6.82-7,15.2-11.21,24.49-13.8a64.84,64.84,0,0,1,19.23-2.57A44.54,44.54,0,0,1,519,277.69a4.11,4.11,0,0,1,2,1.45c.8.52.69,2.67,2.51,1.4l1.71.83a6.57,6.57,0,0,1,.87,1.76c.19.82.63.39,1,.08a.81.81,0,0,1,1.18-.4,4.54,4.54,0,0,1,2.44,2c.52,1.16-.18,2-.77,2.86q-9.54,13.85-19.06,27.71-9.17,13.34-18.34,26.67c-7,10.14-13.92,20.34-21,30.43a4,4,0,0,1-2.2,1.82,2.13,2.13,0,0,1-2.16-1.29,3.4,3.4,0,0,1-.09-1c-.16-1.85-.3-1.92-2-1.13a2.41,2.41,0,0,1-2.22-1.65c0-1.22.17-2.7-1.92-2a3.63,3.63,0,0,1-2.53-1.67c-4.34-5.09-6.93-11.19-9.88-17.09C448.07,347.62,448.39,346.73,448.38,345.84Z"/><path class="cls-5" d="M537.41,290.07a2.79,2.79,0,0,1,1.91,2.92,3.81,3.81,0,0,0,.33,1.84c.49,1,.85,1.15,1.81.39.55-.44.87-.3,1.22.09.5.58,1,1.18,1.44,1.79a52.26,52.26,0,0,1,10.69,26,53.44,53.44,0,0,1-13,42.27c-8.69,10.17-19.91,15.91-33,18.15a51.4,51.4,0,0,1-29.24-3.79,3.57,3.57,0,0,1-2.11-1.6c-.65.12-.76-1.18-1.59-.58a2,2,0,0,1-1.35.69,4.31,4.31,0,0,1-4-2.84,4.75,4.75,0,0,1,1.2-2.84c11.33-16.66,22.82-33.21,34.2-49.83,7.92-11.57,15.9-23.09,23.78-34.68.65-1,1.16-2.13,2.62-2.11a7.54,7.54,0,0,1,2.86,2C536,288.57,535.4,290.65,537.41,290.07Z"/><path class="cls-7" d="M412.33,127.27c2.17.89,4.3,1.88,6.51,2.62a10.16,10.16,0,0,1,5.71,4.16c.7,1.56-.92,1.33-1.57,2,.76.7,1.79,1,2.47,1.82s1.68,1.52,1,2.69-1.8.73-2.81.36a102.75,102.75,0,0,0-12.15-3.87,30.44,30.44,0,0,0-9.86-.74c3.29,2,6.45,3.71,9.45,5.66,2.76,1.78,5.44,3.66,8.07,5.61,2.82,2.09,3.21,4.89,1,7.11a3.64,3.64,0,0,0-.84,1.66c-.64,2.21-1.49,2.65-3.69,1.95s-4.22-1.84-6.36-2.68c-1-.41-2.09-.78-3.28-1.22a85.75,85.75,0,0,1,9,6.57,9.72,9.72,0,0,1,3.79,8.63c-.32,3.83-3.61,5.66-7.09,4a54.39,54.39,0,0,1-8.13-4.71,8.25,8.25,0,0,0-3.79-1.57,5.21,5.21,0,0,0,1.75,3.05c1.55,1.79,3,3.66,4.54,5.46a5.22,5.22,0,0,1,.87,1.42c.63,1.56-.26,2.64-1.92,2.4a6.52,6.52,0,0,1-2.11-.88,8.37,8.37,0,0,0-4.73-1.39c-2.16-.79-3.53-2.66-5.35-3.91-2.11-1-3.74-2.87-6.11-3.41-1.7-.4-3.36-.9-5-1.38-2.8-.7-5.63-.06-8.44-.21-.86-.39-1.56.12-2.33.34-1.45.41-2.83,1.45-4.48.71a1.64,1.64,0,0,1-.73-1.61c.35-3.36.48-6.75,1.44-10,.49-2.23.46-2.1-1.8-2.55-2.45-.5-5,0-7.4-1.1-.78-.38-1.64.19-2.41.47a7.92,7.92,0,0,1-5.9-.12,3,3,0,0,1-1.83-1.6c-.4-1.74,1.3-2.33,2-3.47a39.87,39.87,0,0,1,4.79-6.29,5.66,5.66,0,0,1,5.29-1.83,2.8,2.8,0,0,1,2.57,3.71,8.75,8.75,0,0,1-.89,2.12c-.38.67-1,1.18-1.39,1.83a34.43,34.43,0,0,1,4.21-5.12c2.52-2.2,4.33-2.28,6.91-.12a2.58,2.58,0,0,0,2.55.44,13.47,13.47,0,0,0,4.59-2.37,1.43,1.43,0,0,0,1.18-1c.83-2.51,1.83-5,1.68-7.69a5.18,5.18,0,0,0-3.42-5,38.38,38.38,0,0,1-6.78-3.69c-.51-.34-1-.81-1.66-.76-.91-.07-1.79.4-2.71.19-1.83-.44-2.09-2-2.51-3.47-.62-2.18-.94-2.29-2.77-1-.52.36-1,.72-1.57,1a3.4,3.4,0,0,1-4.89-1.13c-.4-.54-.6-1.28-1.37-1.48-1.69,0-2,1.62-2.63,2.61-.92,1.39-1.82,2.34-3.6,2.39s-2.32,1.51-2.62,3a44.89,44.89,0,0,0-.9,10.79,5.12,5.12,0,0,1-.05,1.87c-.7,1.15-1.13,2.69-3,2.23-1.52-.64-1.68-2.11-2.09-3.43.4-4.1,2.09-7.88,2.91-11.89a110.13,110.13,0,0,0,2-16.07c.2-3.71,1-7.31,3.77-10.1a4.87,4.87,0,0,1,5-2.08,38.32,38.32,0,0,1,12,3.72,54.49,54.49,0,0,1,7.1,3.72,31.65,31.65,0,0,1,8.8,9.42c2.43,3,3.07,6.6,3.37,10.32.15,1.84.68,2.22,2.23,1.58,5.15-2.15,10.46-1.9,15.81-1.15.83.11,1.66.2,2.49.26,1.35.19,2.65.73,4,.52C409.73,125.82,411.33,125.81,412.33,127.27Z"/><path class="cls-8" d="M172.27,245.68c.11.77-.48,1.11-.94,1.51-7.19,6.3-14.33,12.65-21.61,18.84-3.13,2.67-6.38,5.19-9.37,8-1.24,1.93-3.09,3.28-4.68,4.88a2.2,2.2,0,0,1-1.85.68l-14,12a11.67,11.67,0,0,1-1.17-3.11q-4.43-13.92-8.81-27.87a5.89,5.89,0,0,0-.76-1.92,81.79,81.79,0,0,0-2.4-8q-6.48-20.65-13-41.29a4.38,4.38,0,0,1-.21-2.11l33.42,37.38.41-.19L122.83,223l.33-.27,29.45,19.45,3.79-20.33a5.43,5.43,0,0,1,1.6,1.95q6.42,9.93,12.82,19.87C171.27,244.34,171.79,245,172.27,245.68Z"/><path class="cls-9" d="M339.43,137.3c.45,1,.91,1.94,1.37,2.9.68.83.3,1.56-.23,2.26a92.73,92.73,0,0,1-6,7.46c-4.89,6.34-10.15,12.38-15.17,18.62-7.12,8.85-14.67,17.34-22,26-1.25,1.47-1.87,1.54-3.16.34-.29-4-.58-8.06-.61-12.08-.11-13.51,0-27-.06-40.51a18.94,18.94,0,0,1,.63-4.93c2.6-3.4,6-6,9.14-8.81.76-.7,1.54-1.4,2.29-2.12a2,2,0,0,0,.83-1.81c2.12-1.69,3.8-3.86,6-5.41a22.59,22.59,0,0,1,2.42-1.61,3.72,3.72,0,0,1,4.55.79c.65.62,1.28,1.27,1.92,1.91a2.92,2.92,0,0,0,1.92,1.12c1.2-.29,1.93.42,2.62,1.22,2.78,2.09,5,4.77,7.93,7.31a7.14,7.14,0,0,0-5.44-5.85c-.82-.23-1.86-.14-2.17-1.27,1.81-3,4.51-4,7.88-3.74,5.9-.08,4.53,0,5.34,4.74a9.57,9.57,0,0,1-.52,5.94C337.65,132.46,338.14,134.86,339.43,137.3Z"/><path class="cls-8" d="M521.05,279.69a40.22,40.22,0,0,0-18.28-3.75,65.21,65.21,0,0,0-29.59,7.26c-9.22,4.76-15.92,12.1-20.76,21.18a50.31,50.31,0,0,0-5.82,18,3.67,3.67,0,0,1-.81-2.1q-5.6-25.08-11.18-50.18-1.51-6.82-3-13.67a1.19,1.19,0,0,1,.07-1.2l26.24,22.17c3.73-8.79,7.37-17.34,11-25.95.84.18,1.07.82,1.42,1.28,3.82,5,7.61,10,11.44,15,1.3,1.69,1,1.71,3,.8l7.72-3.41c.94,1.7.61,3.62,1.39,5.24a4.29,4.29,0,0,0,2.13-.8c1.89-.9,3.75-1.86,5.64-2.76s1.51-1.29,3.22.73c1,1.22,2.13,2.41,3.09,3.68a2.21,2.21,0,0,0,2.56.86c1.49-.34,3-.57,4.51-.88.59-.12,1.11-.16,1.49.4,1.77,2.58,3.84,5,5,7.93C521.44,279.66,521.3,279.8,521.05,279.69Z"/><path class="cls-9" d="M412.33,127.27a13.87,13.87,0,0,1-4.12-.84,2.78,2.78,0,0,1-1.47-1.64c-1.88-5.91-4.91-11.31-7.2-15.7a129,129,0,0,1,6.22,12.9,16.12,16.12,0,0,1,.58,1.56c.7,2.55.43,2.84-2.35,2.49-2-.2-4-.43-6-.61-4.74-.45-9.31,0-13.53,2.44-1,.58-1.33.41-1.53-.78a33.46,33.46,0,0,1-.59-4.76,12.46,12.46,0,0,0-2.42-7,10.58,10.58,0,0,1-.62-1.09,4.11,4.11,0,0,1,.82-3.67,23,23,0,0,0,3.62-13.66,4.77,4.77,0,0,0-.56-2.4,3.91,3.91,0,0,1-.15-1.63c.05-.69,0-1.12-.9-1.23-1.58-.19-1.7-1.38-1.45-2.64a5.19,5.19,0,0,1,.57-1.33c1.38-2.71,1.38-2.71-.49-4.93a1.31,1.31,0,0,1-.24-.57c.19-2-.73-3.61-1.72-5.22-.7-1.16-1.86-2.14-1.7-3.7A18.77,18.77,0,0,1,382,67c1.85-1.75,3.86-3.33,5.63-5.18.57-.6,1.23-1.19,2.17-.59,7.08,13,13.37,26.35,17.81,40.51a103,103,0,0,1,4.33,19.55C412.12,123.24,412.19,125.26,412.33,127.27Z"/><path class="cls-10" d="M398.09,176.7a8.36,8.36,0,0,1,5.57,1.35c.75.49,1.85,1.43,2.56.52.53-.68-.57-1.58-1.12-2.26-1.91-2.38-3.89-4.72-5.81-7.11a20.93,20.93,0,0,1-1.36-2.1c-.18-.29-.45-.62-.21-1s.73-.27,1.14-.18a13.43,13.43,0,0,1,5,2,62.52,62.52,0,0,0,7.73,4.57c3.47,1.76,6.23.22,6.2-3.68a8.63,8.63,0,0,0-3.16-6.79,83.18,83.18,0,0,0-10.17-7.32c-.57-.36-1.59-.65-1.31-1.38.38-1,1.34-.26,2-.11,3.3.71,6.25,2.36,9.35,3.59.33.13.64.29,1,.41,2.19.83,2.31.78,2.81-1.51a3.53,3.53,0,0,1,.94-1.59c1.89-2.2,1.78-3.86-.56-5.62a131.33,131.33,0,0,0-11.26-7.6c-2.74-1.65-5.52-3.23-8.64-4.76a5.86,5.86,0,0,1,3.33-.93,39.35,39.35,0,0,1,14.6,2.23c2.72.87,5.38,1.92,8.07,2.88.38.14.83.39,1.1-.11s-.16-.63-.38-.9a10.21,10.21,0,0,0-3.57-2.48c-.67-.34-1.73-.61-1.58-1.45.18-1,1.27-.48,2-.57s1.72.21,2.22-.76c3.17,2.34,4.23,5.64,4,9.37a37,37,0,0,1-3.63,14.9,45.32,45.32,0,0,0-4.36,24,19.27,19.27,0,0,1-1.13,8.22,136.13,136.13,0,0,1-14.63,28.82,6.12,6.12,0,0,1-.41.48c-1.3-.21-1.1-1.16-1-2.05a53.79,53.79,0,0,1,1.25-6.91,8,8,0,0,0,0-4.46c1-4,.32-7.95.24-11.93-.73-1.82-.79-3.8-1.34-5.68a24.42,24.42,0,0,0-3.82-7.84C398.78,179.67,397.59,178.5,398.09,176.7Z"/><path class="cls-11" d="M384.35,261.21a128.89,128.89,0,0,0-22.48-15.11,5.43,5.43,0,0,0-1-.31,2.3,2.3,0,0,1-2-.15,50.31,50.31,0,0,0-7.21-3,15.14,15.14,0,0,0-6.72-2.82c-3.11-1.39-6.47-1.94-9.72-2.84a14.29,14.29,0,0,1-4.93-1.69c-3.13-1.87-3.76-5.89-1.58-9.77a7.58,7.58,0,0,1,3.51-2.63c3-.93,5.95,0,8.85.72a130.87,130.87,0,0,1,25,8.78,189.47,189.47,0,0,1,18,9.36A23.91,23.91,0,0,1,392,248.9a3.27,3.27,0,0,1,.76,2.72,9.45,9.45,0,0,0,.08,1.85c.94,3.89.17,7.22-3.08,9.79a3,3,0,0,1-4.4-.5A8.78,8.78,0,0,1,384.35,261.21Z"/><path class="cls-12" d="M392.72,251.62a3,3,0,0,1-1-1.09c-1.83-3.43-4.75-5.76-8-7.76-1.83-1.13-3.71-2.19-5.61-3.21-11.83-6.3-24-11.74-37.12-14.87-2.84-.68-5.67-1.44-8.65-1.13-2-2.2-.85-7.2,1.94-8.57a5.92,5.92,0,0,1,1.79-.51c10.23-1.15,20,.75,29.41,4.65,10.22,4.22,19.2,10.42,27.6,17.51,1.18,1,2.77,1.75,2.88,3.63a20.58,20.58,0,0,1,1.34,5.39,5.06,5.06,0,0,1-2.78,5.11A6,6,0,0,1,392.72,251.62Z"/><path class="cls-11" d="M396,240.27a163.07,163.07,0,0,0-17.3-13.07,77.27,77.27,0,0,0-26.22-11,75.94,75.94,0,0,0-16-1c-1.39-1.15-.95-2.65-.69-4a9.35,9.35,0,0,1,4.53-6.41,9,9,0,0,0,2.31-.82c1.61-.89,3.33-1.36,5.13-.41,2.42.89,5,.28,7.48.9,2.16.39,4.16,1.29,6.27,1.85,2.42,1,5,1.76,7.38,2.81a48.79,48.79,0,0,1,6.46,2.34c3.32,1.54,6.65,3.06,9.81,4.92a43.2,43.2,0,0,1,7.06,4.6,25,25,0,0,1,5.51,4.9c1.24,2.3,2.23,4.63,1.26,7.3a5.33,5.33,0,0,1-.87,3.13C397.37,237.55,396.73,238.93,396,240.27Z"/><path class="cls-8" d="M471,375.12a11.55,11.55,0,0,0,3.41,2.47c.43.42,1.17,0,1.54.59l.11.26c.68.95,1.84,1.17,2.76,1.78a13.72,13.72,0,0,1,2.18,1.37c.06.49-.23.62-.45.75-2.94,1.74-5.9,3.45-8.82,5.22-.85.51-1.33.41-1.86-.42-1.22-1.95-2.52-3.85-3.81-5.76-1-1.44-1-1.45-2.67-.81-2.55.95-5.08,1.94-7.63,2.89a3.53,3.53,0,0,1-2.16.48c-.57-4.55-1.15-9.15-1.77-14.06l-19.31,9.88a1.66,1.66,0,0,1,.28-1.55q7.29-15.39,14.61-30.77a4.28,4.28,0,0,1,.95-1.6c2.25,4.69,4.4,9.42,7,13.91a27,27,0,0,0,5.74,7.06c1.37.05,2,.93,2.3,2.11a6.93,6.93,0,0,0,1.83,1.71c1.45-.18,2,.76,2.33,1.92a4.43,4.43,0,0,0,1.73,1.36A1.27,1.27,0,0,1,471,375.12Z"/><path class="cls-9" d="M313,400.54c1,.62.91,1.59.83,2.56-2.21,1.22-3.93,3.07-5.93,4.56a50.13,50.13,0,0,1-13.6,7.66,28.78,28.78,0,0,1-10,1.64c-2.3-.06-4.6,0-6.9,0A26.74,26.74,0,0,0,273,415a39.71,39.71,0,0,1-10.38-6.14,19.52,19.52,0,0,1-5.06-6.56c-2.58-5.57-1.52-10.7,2.08-15.45a10.21,10.21,0,0,1,2.68-2.6c1.07.33,1.24,1.3,1.36,2.16,1,7.48,5.38,12.4,12,15.48,8.46,3.95,17.24,5.43,26.43,2.72a46.41,46.41,0,0,0,8.61-3.76C311.46,400.44,312.17,400,313,400.54Z"/><path class="cls-13" d="M389.75,61.18c-4.16,3.87-8.64,7.44-12,12.08a1.17,1.17,0,0,1-1.68-.19c-.87-1.1-2.2-1.71-2.95-2.91a2.31,2.31,0,0,1,.2-1.78c.76-2.11-.3-3.42-2.6-3.19a4.08,4.08,0,0,1-2.42,0c-2.82-.33-5.59-1.07-8.49-.62a11.25,11.25,0,0,1-4.36-.15c-1.66-.9-1.48-2.35-1.08-3.81.67-2.46,2.42-4.18,4.2-5.84a16.25,16.25,0,0,1,7-3.88A61.58,61.58,0,0,1,375,49c4.38-.41,8.68-.38,12,3.29A10.57,10.57,0,0,1,389.75,61.18Z"/><path class="cls-14" d="M312.14,67.08a16.55,16.55,0,0,1-3.89-6.59,10,10,0,0,1,2.32-10.28,18.73,18.73,0,0,1,9.05-5.76c5.22-1.43,9.59.13,13.17,4.1,0,1.69-.73,3.28-.62,5,.05.74-.68,1.39-1.45,1.61-6.28,1.8-10.78,6.13-15.23,10.56C314.59,66.63,313.76,67.89,312.14,67.08Z"/><path class="cls-15" d="M384.35,261.21c1.7.93,3.21,2.33,5.37,2.05a43.69,43.69,0,0,1-.46,7.49,103.37,103.37,0,0,1-2.53,16.48,77.69,77.69,0,0,1-2.7,9.21,4,4,0,0,1-1.18,2.16c-1.19.21-1.57-.71-2-1.49a27.11,27.11,0,0,0-6.26-8c-.94-.65-2.1-1.18-1.66-2.68,1.64-1.84,2.61-4.1,3.85-6.19a64.07,64.07,0,0,0,6.62-13.91A14.63,14.63,0,0,0,384.35,261.21Z"/><path class="cls-16" d="M471,375.12a5.72,5.72,0,0,1-1.67-1.21l60-87.19,1.31-1.89a3.63,3.63,0,0,1,1.66,1.09l-30.72,44.8q-14.47,21.11-29,42.2C472.1,373.66,471.55,374.38,471,375.12Z"/><path class="cls-9" d="M322.56,119.73a17.78,17.78,0,0,1-4.78-6.27c-2.71-6.17-1.47-11.69,2.93-16.61A27.45,27.45,0,0,1,323.77,94,22.67,22.67,0,0,0,331,84.23a1.07,1.07,0,0,1,1.18-.53,20,20,0,0,1,4.13,5.11,6,6,0,0,1,.37,1.73A3.34,3.34,0,0,0,336.5,92a4.71,4.71,0,0,1-1.92,5.14c-2,1-4.47.94-6.34,2.37-1.22.92-2.64,1.5-3.7,2.66-1.83,2-1.72,4.42-1.59,6.86-.62,1.5-.21,3,0,4.5s.33,2.88.42,4.33C323.43,118.62,323.46,119.37,322.56,119.73Z"/><path class="cls-17" d="M312.14,67.08a11.15,11.15,0,0,0,3.23-2.6,49.34,49.34,0,0,1,9.62-8,22.79,22.79,0,0,1,5.17-2.18c.81-.25,1.6-.77,1.19-1.61-1-2,0-3.11,1.44-4.18.72.26,1.43.57,2.16.78,2.7.77,3.19,1.41,3.2,4.3-.1,1.43-1.32,1.91-2.24,2.65-6.25,2.08-10.49,7.12-15.68,10.75a2.65,2.65,0,0,0-.66,3.88A3.41,3.41,0,0,1,320.3,73c-.32.79-.77,1.38-1.76,1.07-.7-.39-1-1.13-1.52-1.69-1.25-1.33-1.77-1.46-3.49-.84-.56.2-1.14.79-1.73.28s-.36-1.28-.18-2A6.12,6.12,0,0,0,312.14,67.08Z"/><path class="cls-18" d="M355.07,330.27c.69-2.51,1.28-5,2.12-7.51a4.53,4.53,0,0,1,3.77-2.9c.67-.12,1.4,0,2-.48,3.26-2.59,7.34-2.84,11.14-3.87a1.18,1.18,0,0,1,1.39.68,41.55,41.55,0,0,1-10.17,12.54,4.83,4.83,0,0,1-1.92,1.21,10.54,10.54,0,0,1-4.77,2C357.14,332.15,355.61,332.18,355.07,330.27Z"/><path class="cls-19" d="M375.48,316.19c-4,.77-7.8,2.05-11.72,3-.27.07-.54.11-.81.17a100.89,100.89,0,0,0,9-15.87,7.81,7.81,0,0,0,1.06-3.76.69.69,0,0,1,.56-.24,13,13,0,0,1,5.64,9.8A72.43,72.43,0,0,1,375.48,316.19Z"/><path class="cls-9" d="M365.51,51.48a14.58,14.58,0,0,1-3.06,1.72,15.58,15.58,0,0,0-6.41,6c-.77,1.36-1.56,2.83-.67,4.48.15,1.06-.69,1.27-1.38,1.52-2.21.83-4.41,1.68-6.63,2.46a2.05,2.05,0,0,1-2.5-.35c-.53-1.16-.7-2.27.44-3.19,1.85-.9,3.16-2.5,4.71-3.78,1.78-1.46,3.5-3,5.37-4.32a10.19,10.19,0,0,0,3.5-4.31,16.51,16.51,0,0,1,3.4-5.22,12,12,0,0,1,11-3.3,5.48,5.48,0,0,1,3.11,1.6c-.51,1.16-1.61,1-2.51,1-3.43-.19-6,.91-7,4.42C366.59,50.83,365.92,51,365.51,51.48Z"/><path class="cls-20" d="M318.54,74.11l1.31-1.29c.94-2.61,4-4.53,6.14-3.88.83.91.29,1.58-.34,2.33-1.09,1.33-.88,2.84.42,4.26s2.24.57,3.32-.11c.82-.52,1.55-1.17,2.32-1.76,1.09-.84,1.87-1.68,1-3.13A3,3,0,0,0,329,69c-1,.27-2,1.18-3,0a1.93,1.93,0,0,1,1-2.63c3.27-2,6.2-4.44,9.5-6.35,1.32-.76,2.76-1.35,4.16,0a1.32,1.32,0,0,1,.11.62c-.4,1.41-1.55,2-2.75,2.6a23.45,23.45,0,0,0-2.69,1.59c-1.58,1-1.62,2-.27,3.32a1.51,1.51,0,0,0,2.6-.19c.87-1.16,1.7-2.36,2.67-3.45.73-.81,1.53-1.19,2.52-.38a1.7,1.7,0,0,1,.34,1.52,17.73,17.73,0,0,1-2.86,3.82,7.47,7.47,0,0,0-2.4,4.07,2.26,2.26,0,0,1-1.57,1.46c-2.57.24-4,2.23-5.63,3.81-.42.4-.09.9.31,1.26s1.26.65,1.56,1.35c.22,1,.69,2-.3,2.9a2,2,0,0,0-1.27,0,27.28,27.28,0,0,1-5.19.43c-3.8-.2-6.33-2.26-8-5.48C316.82,77.34,317.43,75.67,318.54,74.11Z"/><path class="cls-21" d="M379.2,309.31a11.29,11.29,0,0,1-1.59-2.91,16.1,16.1,0,0,0-3.8-5.65,1.46,1.46,0,0,1-.46-.91c-.54-3.38,0-6.76.13-10.13a1.37,1.37,0,0,1,1.6-1.29,14.18,14.18,0,0,1,4.58,4.79c1.12,1.76,2.13,3.59,3.19,5.39a7.71,7.71,0,0,1-.81,4.23C381.17,305,380.15,307.15,379.2,309.31Z"/><path class="cls-22" d="M365.51,51.48c.14-.61.24-1.23.42-1.83,1-3.31,3-4.82,6.43-4.86h4c.93.28,1.87.53,2.78.86,3.44,1.24,6.3,3.18,7.82,6.66-3.53-1.74-7.2-2.91-11.19-2.39-2.54.33-5.05.83-7.56,1.32A12,12,0,0,1,365.51,51.48Z"/><path class="cls-23" d="M399,233.12a24.29,24.29,0,0,0-2.17-7.06,3.45,3.45,0,0,1,0-2.43c2.32-5.2,4.12-10.62,6.77-15.67.43-.81.74-1.9,2.07-1.6.43,4-.75,7.8-1.33,11.67-.09.61-.36,1.21.09,1.78a50.56,50.56,0,0,0-2.59,7.16C401.1,229.11,400.5,231.32,399,233.12Z"/><path class="cls-15" d="M355.07,330.27a5.76,5.76,0,0,0,4.93.3,7.72,7.72,0,0,1,3.39-.63c-.51,1.53-1.91,2.36-2.87,3.53a105.14,105.14,0,0,0-9.87,14.7,9,9,0,0,1-1.53,2.23,16.05,16.05,0,0,1,1-5.31c1.27-4.27,2.63-8.51,4-12.76A4.53,4.53,0,0,1,355.07,330.27Z"/><path class="cls-24" d="M322.56,119.73c-.22-2.33-.5-4.65-.64-7-.09-1.44,0-2.89,0-4.33,1.5-.32,1.69,1.17,2.49,1.81.42.73.47,1.69,1.34,2.14.92,3.65,3.64,5.22,7,6A1.83,1.83,0,0,1,334,119a.57.57,0,0,1,0,.58,6.38,6.38,0,0,0-5.23,1.94,6.92,6.92,0,0,1-2.28,1.39c-.25.42-.57.37-.92.12a6.83,6.83,0,0,1-2.24-1.64C323.35,120.74,322.78,120.32,322.56,119.73Z"/><path class="cls-14" d="M342.42,65.73,342.35,64c-1.12-.86-3-1.21-2.12-3.34l.18-.48c-.28-1-1.16-.46-1.74-.59a3.66,3.66,0,0,1-2.95-4,5.13,5.13,0,0,1,2.43-2,27.66,27.66,0,0,1,6.26,8.87c.26.55.59,1.08.89,1.62,0,1.07,0,2.14,0,3.21-.14,1.6-1.18,1.92-2.55,1.76C341,68.14,342.72,66.83,342.42,65.73Z"/><path class="cls-25" d="M527,283.21a3.89,3.89,0,0,1,.11,2.24,1,1,0,0,1-.51.61c-.38.15-.63-.15-.82-.46a6.16,6.16,0,0,1-.69-3.4c0-.28,0-.55,0-.83C526,281.76,526.88,282.12,527,283.21Z"/><path class="cls-26" d="M537.41,290.07c0,.48,0,1,0,1.45s.06,1.25-.66,1.31-.87-.58-1.11-1.08a7.81,7.81,0,0,1-.42-3.86A10.29,10.29,0,0,1,537.41,290.07Z"/><path class="cls-27" d="M521.05,279.69l.5-.24a7.81,7.81,0,0,0,1.9,1.09c0,.54,0,1.09,0,1.64s-.16,1.18-.83,1.23-.88-.61-1-1.11C521.32,281.45,521.21,280.56,521.05,279.69Z"/><path class="cls-28" d="M475.45,377a4.18,4.18,0,0,1-.05-.61c0-.64-.18-1.57.77-1.58.77,0,1,.86,1.12,1.52s.12,1.22.18,1.83c-.33.67-.91.28-1.39.33l0,0A1.33,1.33,0,0,1,475.45,377Z"/><path class="cls-9" d="M193.2,320.14c-2.32,2-4.06,4.59-6,6.94Q173.53,343.49,160,360c-2.27,2.75-4.54,5.48-6.77,8.26a5.79,5.79,0,0,1-3.94,2.41,136.05,136.05,0,0,1-14,1.14,5.09,5.09,0,0,1-5.18-3.29c.25-.41.52-.36.76-.22A17.32,17.32,0,0,0,142.64,370c2.33-.38,4.67-.69,7-1,.27-.77-.3-1.08-.65-1.45-4.49-4.79-8.95-9.6-13.48-14.35-6.68-7-13.45-14-20.1-21-2.54-2.69-5.14-5.32-7.67-8a19.1,19.1,0,0,1-1.85-2.27c-2.43-3.53-2.18-6.94.8-10.07,1.83-1.92,3.75-3.75,5.69-5.56q12.69-11.86,25.41-23.7,12-11.2,24.06-22.39l24.52-22.81,18.24-17L228.68,198c2.81-2.61,5.65-5.19,8.49-7.77.57-.51,1.21-1,1.81-1.42a2.28,2.28,0,0,1,.89,1.8,34.65,34.65,0,0,1,.47,5.19q0,30.3,0,60.58c0,2.16-.47,4.29-.27,6.45q-12.78,15.5-25.56,31a8.66,8.66,0,0,0-1.69,2.38c.25,1.39-.78,2.16-1.5,3.06-5.15,6.44-10.3,12.89-15.58,19.23A3.49,3.49,0,0,1,193.2,320.14Z"/><path class="cls-29" d="M295,195.53c1.4-.88,2.21-2.32,3.24-3.53,7.11-8.31,14.32-16.54,21.18-25.06,4.67-5.81,9.49-11.5,14.24-17.24a2.91,2.91,0,0,1,.33-.26,1.45,1.45,0,0,1,1.54,1.47,11.44,11.44,0,0,0,1.61,3.91c.41.68,1,1.34.82,2.25a22.23,22.23,0,0,1-1.76,4.88,26.14,26.14,0,0,0-2.09,10.14,22.48,22.48,0,0,1-2.66,10.2,235.7,235.7,0,0,1-11.86,22c-.54.88-1,1.88-2,2.34a1.65,1.65,0,0,1-1.8-.56,4.27,4.27,0,0,0-2.45-1.26c-1.9-.1-2.87,1.37-3.8,2.56a30.59,30.59,0,0,0-5.51,12.91,4,4,0,0,1-.28,1.61c-.81,5.07-2.55,10-2.76,15.15a15.11,15.11,0,0,1-.34,2.69A77,77,0,0,0,299,250.2c-.25,2.34-.35,4.68-.58,7-.09.9-.28,1.65-1.3,1.86-7,0-14.09.16-21.12-.09-10.67-.37-21.34,0-32-.34-.73-1.32.32-2.1,1-2.91,5.79-7.32,11.73-14.53,17.56-21.82.31-.38.55-.81.85-1.19a28.72,28.72,0,0,0,5.41-6.28,4.26,4.26,0,0,1,1.49-1.71c1.7-1.65,2.9-3.71,4.46-5.47,6.28-7.16,12-14.77,18-22.12C293.38,196.43,293.81,195.4,295,195.53Z"/><path class="cls-9" d="M352.12,241.94a26.18,26.18,0,0,1,7.05,2.73,5.57,5.57,0,0,1,1.71,1.12c-3.93,7.67-6,16-8.8,24.12q-14.24,40.39-28.29,80.86-5.49,15.69-11,31.36a11.6,11.6,0,0,0-.61,2.42c-.25,1.81-.49,2-2.4,2.19a2.45,2.45,0,0,1-2.38-.9c-.64-.83.35-1.92-.44-2.74a57.36,57.36,0,0,0-3-5.88c-2.52-3.73-6.19-6.09-9.91-8.38a7.85,7.85,0,0,0-3.62-.71c-1.19-1.14-2.55-.17-3.82-.3a1.4,1.4,0,0,1-.79-1.24c.1-1.24-.6-1.76-1.73-1.88-.82-.09-1.7.12-2.39-.53,1.46-4.34,3-8.67,4.72-12.89,9.68-23.22,19.49-46.39,29.12-69.62,5.71-13.78,11.55-27.5,17.24-41.28.64-1.55.92-3.44,2.81-4.2a43.4,43.4,0,0,1,9.81,2.77,83,83,0,0,1-4,10.08q-7.22,17.39-14.39,34.77-10.89,26.25-21.71,52.54c-.35.84-.63,1.7-.92,2.56a3.82,3.82,0,0,0,1,4.22c1.28,1.3,2.52,2.62,3.87,3.83,1.59,1.44,2.48,1.23,3.24-.76,2-5.21,3.9-10.45,5.82-15.68q7.22-19.72,14.52-39.43,6.79-18.33,13.41-36.72c1.29-3.61,2.8-7.13,4.31-10.66C350.84,243,351.1,242.1,352.12,241.94Z"/><path class="cls-7" d="M264.14,233.22a7.86,7.86,0,0,1-1.54,2.2q-8.82,10.94-17.64,21.86c-.35.43-.63.91-1,1.36a43.83,43.83,0,0,0-3.94,4.23c-1.25-.3-1.07-1.38-1.06-2.2.34-21.51,0-43,.13-64.52,0-2.43-.11-4.87-.16-7.3,6-5.87,11.92-11.84,18.26-17.34,2.1-1.82,4.24-3.59,6.36-5.39,1,0,1.22.77,1.33,1.56a20.46,20.46,0,0,1,.12,2.93q0,28.75,0,57.52A10.69,10.69,0,0,1,264.14,233.22Z"/><path class="cls-7" d="M295,195.53a14,14,0,0,1-1.75,2.58c-3.84,4.7-7.84,9.29-11.43,14.17-2.6,3.54-5.86,6.51-8.35,10.14a26.35,26.35,0,0,1-2.85,3.05c-.92-.2-1.14-.91-1.23-1.72a25.91,25.91,0,0,1-.11-2.92V164.54a9,9,0,0,1,1-5.06c7.86-7.49,15.63-15.08,23.93-22.11.72.6.41,1.42.41,2.15,0,7.31.06,14.63.09,21.94q.08,16.2.18,32.4C294.93,194.42,295,195,295,195.53Z"/><path class="cls-6" d="M335.56,236.19Q330,249.63,324.4,263.05q-12.58,30.24-25.2,60.46c-4.12,9.84-8.54,19.56-12.4,29.51q-1.69,4.39-3.2,8.85a3.41,3.41,0,0,1-1.93,2.31,17.25,17.25,0,0,1-5.8-2.25c-3-1.95-3.47-4.61-1.35-7.48a7.38,7.38,0,0,1,.81-.95c4.41-4.05,7.21-9.18,9.8-14.47,8.63-17.69,16.16-35.85,23.69-54,.62-1.48,1.25-2.95,1.84-4.44.84-2.14.77-2.24-1.57-2.57l-1-.1c-2.06-.39-1.9-2-1.76-3.43.43-4.49.69-9,1.35-13.48.39-2.61,1-5.18,1.17-7.83a4.81,4.81,0,0,1,2.83-4.5c.93-.68,1.87-.27,2.8,0a3.15,3.15,0,0,0,4-1.64c.56-1,1-2.16,2.27-2.62a1.68,1.68,0,0,1,1.21.1c.91.5,1.81.86,2.55-.22s1.45-2.55.72-4.06a3.39,3.39,0,0,0-2.65-2.08c-.84-.11-1.1,1-1.86,1.2-2.48,1-4.87.38-7.26-2-.5-2.8.87-5.2,1.81-7.62,1.59-4.09,3.51-8.05,5.48-12a3.59,3.59,0,0,1,1.7-2c1.49-.4,2.2.82,3.17,1.51a17.61,17.61,0,0,1,3.79,8.46,23,23,0,0,0-.93,4.45,4.3,4.3,0,0,0,2.78,4.6A33.13,33.13,0,0,0,335.56,236.19Z"/><path class="cls-7" d="M307.61,385.47a1.94,1.94,0,0,1,2.18,1.27,22.76,22.76,0,0,0,1.39,4.33c1.08,3.07,2.15,6.14,1.85,9.47a38.5,38.5,0,0,1-14.41,5.95,37.82,37.82,0,0,1-20.34-2.33,29,29,0,0,1-9.51-5.58,18.86,18.86,0,0,1-6.07-11.85c-.1-.83-.25-1.65-.38-2.48a26.94,26.94,0,0,1,6-6.37c4.76-4,10.17-7,15.5-10.17.66-.39,1.34-.75,2-1.12a1.15,1.15,0,0,1,1,.94c.67.56.44,1.22.26,1.91-1.81,7.13.59,11.85,7.36,14.58a18.74,18.74,0,0,0,10.26,1.13C305.64,385,306.73,384.46,307.61,385.47Z"/><path class="cls-8" d="M90.17,324l-11.1-4.7,6-3.2c1.9-1,3.81-2,6.11-3.24l-16.75-7.51V305c5.13-1.23,10.35-2.05,15.77-3.34L82.07,290l-7.8-11.24.31-.31,35.76,23.12c.42.56.2,1-.22,1.45-1.73,1.76-3.21,3.76-5.29,5.15-3,3.29-6.06,6.56-9.06,9.86-1.36,1.49-2.65,3.05-4,4.58C91.4,323.22,91.37,324.26,90.17,324Z"/><path class="cls-12" d="M270.32,159.48q0,32.19.08,64.36a3,3,0,0,0,.26,1.63,32.33,32.33,0,0,1-6.52,7.75c0-.9-.1-1.81-.1-2.71q0-30.9-.06-61.81c0-.86.33-1.81-.38-2.58A31.12,31.12,0,0,1,270.32,159.48Z"/><path class="cls-8" d="M193.2,320.14l18-22.27a5.26,5.26,0,0,1,1.59-1.63l7.31,7.52L207,307.12c.23.86.9,1.15,1.39,1.55,4.23,3.42,8.48,6.8,12.7,10.22.51.42,1.27.65,1.35,1.47-9.66.17-19.31.11-29,0A1.12,1.12,0,0,0,193.2,320.14Z"/><path class="cls-30" d="M312.23,249a4.6,4.6,0,0,0-2.4,4.13c-.28,3.76-1.24,7.41-1.58,11.14s-.69,7.48-1,11.22c-.08.89-.2,1.84.81,2.39a41.92,41.92,0,0,0-5.58.7,21,21,0,0,1-14.17-3.17c-2.41-1.54-2.71-3.29-1.21-5.84a14.6,14.6,0,0,1,3.8,1.6,19.3,19.3,0,0,0,8.63,2.09c1.21,0,2.09-.33,1.86-1.8a6.79,6.79,0,0,1-.1-1.56c0-.23.09-.45.13-.67a108.56,108.56,0,0,1,2.5-22.73,3.64,3.64,0,0,1,.65-1.53,1.14,1.14,0,0,1,1.31-.39,40.59,40.59,0,0,1,6.25,3.64A.7.7,0,0,1,312.23,249Z"/><path class="cls-31" d="M305.19,244.89q-.88,5.27-1.76,10.51a131.48,131.48,0,0,0-1.2,14.57c-2.08.37-6.16-1.83-6.79-3.65.47-.07,1-.08,1-.75a2.17,2.17,0,0,1,.68-1.44,5.93,5.93,0,0,0,1.12-3.7,122.85,122.85,0,0,1,1.53-15.79c.24-1.2.32-2.52,1.55-3.28A3.42,3.42,0,0,1,305.19,244.89Z"/><path class="cls-32" d="M295.44,266.32c2.2,1.34,4.81,1.9,6.79,3.65h0c.3.39,0,.92.34,1.3.54,2.62-.53,3.18-2.51,3.13a22.65,22.65,0,0,1-12-3.61c-.46-.29-1-.55-1-1.21.52-.45,1-.92,1.58-1.36A7.82,7.82,0,0,1,295.44,266.32Z"/><path class="cls-33" d="M90.17,324l1.62-1.44a3.89,3.89,0,0,1-.06,1c-.87,2.41-.07,4.38,1.6,6.09q6.27,6.45,12.58,12.86c3.23,3.28,6.49,6.52,9.72,9.79a5.43,5.43,0,0,1,1.65,2.18c-.88.44-1.22-.25-1.6-.63q-5.24-5.11-10.41-10.29c-4-4-7.94-8-12-12C91.09,329.51,89.84,327.11,90.17,324Z"/><path class="cls-34" d="M301.77,241.57a35,35,0,0,0-2.07,8.67,55.72,55.72,0,0,0-.46,10.8,2.67,2.67,0,0,1-2.11,3.09,37.15,37.15,0,0,0,0-5.06c1-3,1-6.18,1.21-9.28a54.08,54.08,0,0,1,1.4-10.31C301.44,239.18,302.14,239.86,301.77,241.57Z"/><path class="cls-35" d="M120.29,294.17c-.38-.05-.74-.25-.55-.64a3.86,3.86,0,0,1,.91-1.11q3.55-3.37,7.13-6.72a4.2,4.2,0,0,1,.81-.65.7.7,0,0,1,.56.06.47.47,0,0,1,.12.72,5.66,5.66,0,0,1-.69.78l-7.27,6.87A2,2,0,0,1,120.29,294.17Z"/><path class="cls-36" d="M104.83,308.13q2.1-2.38,4.19-4.79a5.53,5.53,0,0,0,1.32-1.81c1.31-.44,2-1.63,3.08-2.41.39-.29.72-.65,1.12-.92a.61.61,0,0,1,.57,0c.28.19.21.48,0,.72a4.52,4.52,0,0,1-.43.45c-2.75,2.64-5.49,5.29-8.26,7.92C106,307.75,105.55,308.23,104.83,308.13Z"/><path class="cls-9" d="M193.48,320.39c4.17,0,8.33-.07,12.5-.07,5.49,0,11,0,16.46,0-.36.52-.9.25-1.34.25q-12.89,0-25.78,0A3.41,3.41,0,0,1,193.48,320.39Z"/><path class="cls-37" d="M133.82,279.61a53.27,53.27,0,0,1,6.53-5.56,1.92,1.92,0,0,1-.46,1.34,20,20,0,0,1-7.07,6.16C132.81,280.66,133.92,280.42,133.82,279.61Z"/><path class="cls-14" d="M375.08,288.42a3.39,3.39,0,0,0-.81,2.48c0,1,0,1.93,0,2.88a13.92,13.92,0,0,1-.92,6.06l-.35-.09a7.07,7.07,0,0,0-2.82-2.06c-3.09-1.48-3.92-3.22-3.18-6.55a17.41,17.41,0,0,1,1.22-3.74c1-2.06,1.92-2.37,4-1.37.25.12.49.26.74.39Z"/><path class="cls-38" d="M485.32,337.09c0,.78.05,1.4-.73,1.46s-.83-.58-.93-1.12l-1.77-9-.12-.62a.75.75,0,0,1,.51-1c.64-.22.87.16,1,.68a49.72,49.72,0,0,1,1.58,6.91C485.07,335.37,485.21,336.33,485.32,337.09Z"/><path class="cls-39" d="M505.63,316.71a.71.71,0,0,1-.57.94c-.72.18-1-.28-1.16-.88q-.91-4.83-1.8-9.66a1.76,1.76,0,0,1,0-.82.64.64,0,0,1,1.14-.17,4.51,4.51,0,0,1,.48,1.15A79.24,79.24,0,0,1,505.63,316.71Z"/><path class="cls-40" d="M479.87,345.24c.05.55-.12.95-.72,1.07s-.87-.22-1-.78c-.55-3.14-1.11-6.27-1.65-9.41a2.88,2.88,0,0,1,0-.83.69.69,0,0,1,.61-.71.74.74,0,0,1,.83.47,4.3,4.3,0,0,1,.22.8l1.62,8.77C479.84,344.83,479.85,345,479.87,345.24Z"/><path class="cls-41" d="M490.78,329.51c0,.48.09.95-.46,1.11s-.93-.24-1.08-.71a31.46,31.46,0,0,1-.9-3.43c-.39-2.11-.68-4.25-1-6.38-.08-.5-.16-1,.52-1.12s.9.29,1,.79c.19.74.33,1.49.47,2.24C489.82,324.53,490.31,327.06,490.78,329.51Z"/><path class="cls-42" d="M511.1,308.93c0,.41-.15.71-.56.8a.7.7,0,0,1-.86-.41,13,13,0,0,1-.5-1.36,69.5,69.5,0,0,1-1.58-8.81c-.06-.4-.08-.87.47-1a.71.71,0,0,1,.92.61C509.71,302.13,510.4,305.53,511.1,308.93Z"/><path class="cls-43" d="M496.18,321.77c0,.5-.05.9-.6,1a.85.85,0,0,1-.92-.69,35.2,35.2,0,0,1-1.33-5.9c-.22-1.38-.35-2.76-.49-4.15,0-.33,0-.72.45-.83s.79.17.89.63c.39,1.84.78,3.67,1.15,5.52C495.64,318.81,495.9,320.31,496.18,321.77Z"/><path class="cls-44" d="M515.74,302.84a9,9,0,0,1-1.42-5.79,3.82,3.82,0,0,0-.48-2.37,5,5,0,0,1-.28-5.05,5.07,5.07,0,0,1,1.55,3.91,10.31,10.31,0,0,0,.83,4.45A5.76,5.76,0,0,1,515.74,302.84Z"/><path class="cls-45" d="M485.84,329.62a3.28,3.28,0,0,0-.64-2.75,4.54,4.54,0,0,1-.39-4c.21-.56.53-.62.87-.13a7.15,7.15,0,0,1,1.06,4.81,4.17,4.17,0,0,0,.49,2.59,5.5,5.5,0,0,1,.57,3.45c0,.28-.12.58-.44.64a.71.71,0,0,1-.68-.38A6.07,6.07,0,0,1,485.84,329.62Z"/><path class="cls-46" d="M474,337.79a5.84,5.84,0,0,1,1.74,5.07,4.21,4.21,0,0,0,.58,2.77,4.87,4.87,0,0,1,.26,4.55,3.51,3.51,0,0,1-1.6-3.63,6,6,0,0,0-.62-3.57A7.09,7.09,0,0,1,474,337.79Z"/><path class="cls-47" d="M471.19,358.71a5.64,5.64,0,0,1-1.61-5.1,3,3,0,0,0-.57-2.71,2.82,2.82,0,0,1-.51-2.19c.07-.63-.29-1.66.62-1.72.72-.06.89.94,1.11,1.59a2.19,2.19,0,0,1,.18,1c-.36,2,.41,3.8,1.09,5.62A3.86,3.86,0,0,1,471.19,358.71Z"/><path class="cls-48" d="M460.54,357.81c1.86,1.77,2.23,3.91,1.16,6.55C460.34,362.28,459.7,360.27,460.54,357.81Z"/><path class="cls-49" d="M491.47,321.29c2.26,1.92,2.64,3.86,1.17,5.87A6.38,6.38,0,0,1,491.47,321.29Z"/><path class="cls-50" d="M465.13,359.81c-2.24-1.54-2.72-3.17-2-6.21C465,355.26,465.06,357.36,465.13,359.81Z"/><path class="cls-51" d="M469.73,368.94a4.69,4.69,0,0,1-1.68-4.68c.19-.86.71-1,1.29-.33C470.71,365.49,470.32,367.21,469.73,368.94Z"/><path class="cls-52" d="M467.24,356.7a5.29,5.29,0,0,1,1.74,5c-.06.35-.16.75-.52.84-.52.15-.69-.34-.89-.69A6.23,6.23,0,0,1,467.24,356.7Z"/><path class="cls-49" d="M480.72,336.93c-1.16-2.06-2.17-4.14-1.09-6.9a6.4,6.4,0,0,1,1.06,6.93Z"/><path class="cls-39" d="M494.27,333.45a4.73,4.73,0,0,1-1.73-5c.21-.66.61-.68,1.08-.27a2.77,2.77,0,0,1,1,2q0,.72,0,1.44A3.91,3.91,0,0,1,494.27,333.45Z"/><path class="cls-52" d="M467.15,356.05c-1.62-1.77-1.66-3.82-1.4-6A4.71,4.71,0,0,1,467.15,356.05Z"/><path class="cls-53" d="M480.52,353.58c-1.63-1.61-1.75-3.52-1.39-5.59C481.05,348.7,481.66,351.14,480.52,353.58Z"/><path class="cls-44" d="M482.23,343.93c1.92,1.58,1.62,3.56,1.24,5.65A4.3,4.3,0,0,1,482.23,343.93Z"/><path class="cls-48" d="M484.82,339.36a6.6,6.6,0,0,1,1.7,5.35.65.65,0,0,1-.44.64.67.67,0,0,1-.68-.35C484.21,343.37,484.17,341.63,484.82,339.36Z"/><path class="cls-54" d="M520.41,287.8a5.14,5.14,0,0,1-1.89-5.28.71.71,0,0,1,.33-.48c.31-.17.52.08.68.3A6.76,6.76,0,0,1,520.41,287.8Z"/><path class="cls-55" d="M490.14,331.53c1.93,1.89,2.34,4,1.16,6C489.6,335.74,489.59,333.76,490.14,331.53Z"/><path class="cls-27" d="M506.93,290.93a5.33,5.33,0,0,1,1,5.94A4.93,4.93,0,0,1,506.93,290.93Z"/><path class="cls-38" d="M496.9,330a5.08,5.08,0,0,1-1.16-5.63C497.42,325.49,497.8,327.34,496.9,330Z"/><path class="cls-49" d="M490.54,314.45c1.81,1.73,1.63,3.69,1.4,5.71C490.14,319.36,489.6,317.33,490.54,314.45Z"/><path class="cls-56" d="M498.35,319.38a6.19,6.19,0,0,1-1.66-4.28c0-.53-.17-1.3.45-1.46s.93.67,1.17,1.17a5.55,5.55,0,0,1,0,4.6Z"/><path class="cls-50" d="M473.2,346.24a2.24,2.24,0,0,1-.1.68c-.21.63-.7.64-1.17.35-.87-.55-1.32-3.7-.63-4.48.36-.41.76-.21,1,.16A4.83,4.83,0,0,1,473.2,346.24Z"/><path class="cls-57" d="M522.66,284.55c2,1.45,1.81,3.54,2,5.59C522.76,289.44,522,287.3,522.66,284.55Z"/><path class="cls-58" d="M467.62,372.55a11.63,11.63,0,0,1-2.33-1.92c0-.48-.07-1-.07-1.44s0-1.38.76-1.5,1,.63,1.24,1.18A7.31,7.31,0,0,1,467.62,372.55Z"/><path class="cls-59" d="M501.28,316a6.56,6.56,0,0,1-1.72-4.94c0-.39-.05-.92.49-1s.7.37.9.73a5.33,5.33,0,0,1,.64,3.2c-.09.68-.23,1.36-.35,2Z"/><path class="cls-60" d="M507.8,313.57c-1.87-1.64-2.15-2.86-1.29-5.17C508.09,309.47,508.48,310.92,507.8,313.57Z"/><path class="cls-61" d="M499.72,308.75a6.28,6.28,0,0,1-1.4-5.59C500.35,304.08,500.83,305.91,499.72,308.75Z"/><path class="cls-62" d="M476.76,351.69c1.92,1.74,1.52,3.72,1.38,5.8C476.28,356.08,475.89,354.45,476.76,351.69Z"/><path class="cls-56" d="M498.31,319.41a6.39,6.39,0,0,1,1.24,6.5,6.61,6.61,0,0,1-1.2-6.53Z"/><path class="cls-55" d="M517.58,292.17c-1.12-1.38-2-2.83-1.7-4.72,0-.32,0-.73.39-.88s.67.18.81.47c.8,1.64,1.39,3.31.46,5.11Z"/><path class="cls-59" d="M501.24,316.07c1.16.59,1.24,1.77,1.48,2.83.19.86.24,1.76.37,2.74-2.39-1.21-2.79-2.53-1.81-5.6Z"/><path class="cls-46" d="M464.77,360.48a5.9,5.9,0,0,1,1.18,5.29C464.1,364.89,463.67,363.13,464.77,360.48Z"/><path class="cls-63" d="M509.17,286.89c1.73,1.41,2.21,2.82,1.72,4.49-.08.28-.2.55-.5.54a.74.74,0,0,1-.5-.32A5.64,5.64,0,0,1,509.17,286.89Z"/><path class="cls-64" d="M474,355a5.63,5.63,0,0,1-1.62-4.44c0-.36.17-.73.53-.8s.61.23.8.53A5.08,5.08,0,0,1,474,355Z"/><path class="cls-65" d="M505.44,300.94c-1.06-1.31-2-2.66-1.65-4.5,0-.25,0-.57.37-.67a.63.63,0,0,1,.7.32c1,1.51,1.47,3.09.55,4.82Z"/><path class="cls-66" d="M501.45,299.1c1.66,1.63,1.91,3,.89,4.89C500.74,302.32,500.46,300.8,501.45,299.1Z"/><path class="cls-67" d="M505.41,300.91a7.89,7.89,0,0,1,1.43,5.11c0,.32,0,.7-.36.89-1.69-1.34-2-3.1-1-6Z"/><path class="cls-68" d="M513,306.07a6.19,6.19,0,0,1-1.25-5.52C513.58,301.66,514,303.22,513,306.07Z"/><path class="cls-69" d="M496.83,311.91a4.43,4.43,0,0,1-1.28-4.31c.11-.65.54-.73,1-.27C497.59,308.32,497.72,310,496.83,311.91Z"/><path class="cls-70" d="M520.34,289.16c1.54,1.46,1.8,2.88.89,4.9C519.66,292.5,519.43,291.26,520.34,289.16Z"/><path class="cls-71" d="M471.2,359.78c2.1,1.47,1.57,3.35,1.52,5.19C471,364.19,470.65,362.92,471.2,359.78Z"/><path class="cls-72" d="M480.69,337c1.78,1.58,2.12,2.86,1.44,5.59a2.94,2.94,0,0,1-1.54-2.73c0-1,.08-1.92.13-2.89Z"/><path class="cls-73" d="M511.91,299c-2-1.72-1.52-3.59-1.42-5.83C512.24,295,512.44,296.68,511.91,299Z"/><path class="cls-44" d="M513.13,288.68a5.81,5.81,0,0,1-1.36-4.84C513.92,284.53,514.21,285.5,513.13,288.68Z"/><path class="cls-74" d="M515.9,284.15c-1.41-1.55-1.56-2.26-1.11-4.81C516.46,280.22,516.79,281.49,515.9,284.15Z"/><path class="cls-75" d="M517.54,292.15c1.18,1.56,1.91,3.2,1.07,5.2-1.68-1-2-2.85-1-5.18Z"/><path class="cls-76" d="M474.17,355.74c1.6,1.37,1.36,3,.94,4.75C473.46,359.23,473.18,357.8,474.17,355.74Z"/><path class="cls-68" d="M489,341.74a4.73,4.73,0,0,1-1.51-5.05C489.07,337.48,489.45,338.66,489,341.74Z"/><path class="cls-77" d="M463.46,368.92a10.51,10.51,0,0,1-2.3-2.11c.34-.6-.11-1.78,1.06-1.73s.86,1.09,1.06,1.78A5.12,5.12,0,0,1,463.46,368.92Z"/><path class="cls-44" d="M514.78,342.25a5.46,5.46,0,0,1-1.47-3.81,7.64,7.64,0,0,0-.69-4.18,10.57,10.57,0,0,1-.72-3.24c-.42-2.12-.83-4.23-1.24-6.35-.1-.55-.28-1.2.48-1.37s.93.45,1.13,1a29.31,29.31,0,0,1,1.49,6.71c.19,1.42.67,2.81.34,4.33-.15.69.49,1.55.76,2.33C515.38,339.12,515.83,340.58,514.78,342.25Z"/><path class="cls-42" d="M491.8,350a5.18,5.18,0,0,1,1.94,4.59,12.74,12.74,0,0,0,.72,4c.75,2.91,1,5.95,1.79,8.86a2.33,2.33,0,0,1-.43,2.1,4.39,4.39,0,0,1-1.54-4.26,5.28,5.28,0,0,0-.55-3.19,7,7,0,0,1-.76-4.06,5,5,0,0,0-.54-2.81A9.22,9.22,0,0,1,491.8,350Z"/><path class="cls-78" d="M534.46,313.05c0,.52,0,1-.65,1.1s-.74-.32-.86-.71c-.27-.86-.52-1.73-.72-2.6-.57-2.43-1-4.89-1.31-7.36-.07-.5-.09-1,.55-1.15a.82.82,0,0,1,1.06.73C533.19,306.38,533.82,309.71,534.46,313.05Z"/><path class="cls-79" d="M516.21,316.53a3.87,3.87,0,0,1,0-.69.67.67,0,0,1,.61-.49.57.57,0,0,1,.68.34,8.31,8.31,0,0,1,.4,1.4c.54,2.8,1,5.61,1.57,8.42a5.15,5.15,0,0,1,.11,1,.63.63,0,0,1-.45.63.7.7,0,0,1-.9-.3,3.45,3.45,0,0,1-.31-.77A52.36,52.36,0,0,1,516.21,316.53Z"/><path class="cls-80" d="M539.8,305c0,.75,0,1.24-.66,1.33s-.87-.29-1-.83c-.57-3.14-1.15-6.27-1.7-9.4a2.39,2.39,0,0,1,0-1,.64.64,0,0,1,1.14-.17,1.93,1.93,0,0,1,.27.56C539,298.58,539.29,301.9,539.8,305Z"/><path class="cls-49" d="M526,309.8a5.24,5.24,0,0,1,1.45,5.53,1.8,1.8,0,0,0,.17,1.57c1.5,2.39,1.5,2.53,1.11,5.83a3.5,3.5,0,0,1-1.73-3.09,23.39,23.39,0,0,0-1.34-6.87,2.77,2.77,0,0,1,.37-2.95Z"/><path class="cls-81" d="M486.69,358.1a4.45,4.45,0,0,1,1.64,3.72,9.05,9.05,0,0,0,.91,5.24,4,4,0,0,1,.22,2.67c-.09.6-.51.62-.89.26a3.3,3.3,0,0,1-.95-2.27,24.12,24.12,0,0,0-1.26-6.73A3.08,3.08,0,0,1,486.69,358.1Z"/><path class="cls-81" d="M516.39,331.93a5.68,5.68,0,0,1-1.62-5,5.3,5.3,0,0,0-.53-3,5.53,5.53,0,0,1-.35-4.44,2.72,2.72,0,0,1,1.61,2.68,12.34,12.34,0,0,0,1,5.46,5.67,5.67,0,0,1-.15,4.28Z"/><path class="cls-40" d="M505.72,347.24a4.15,4.15,0,0,1-1.86-4.13,5.15,5.15,0,0,0-.76-4.07,2.91,2.91,0,0,1,.14-3.6,3.35,3.35,0,0,1,1.42,3.39,7,7,0,0,0,.81,4C506.17,344.12,506,345.55,505.72,347.24Z"/><path class="cls-38" d="M497.24,358.46a4.47,4.47,0,0,1-1.46-4.17,4.14,4.14,0,0,0-.57-2.76,6.26,6.26,0,0,1-.42-4.83,2.89,2.89,0,0,1,1.69,2.89,13.68,13.68,0,0,0,1.09,6.2A2.64,2.64,0,0,1,497.24,358.46Z"/><path class="cls-82" d="M527.48,299.34a4.82,4.82,0,0,1,1.67,4.48,4.11,4.11,0,0,0,.64,3.31c.74.92.53,2.12.33,3.23a.49.49,0,0,1-.36.46.64.64,0,0,1-.69-.34,4.74,4.74,0,0,1-.83-3.58,4.35,4.35,0,0,0-.56-3A5.76,5.76,0,0,1,527.48,299.34Z"/><path class="cls-83" d="M526,325.68a2.65,2.65,0,0,1-1.66-2.83,8.11,8.11,0,0,0-.79-4,6.33,6.33,0,0,1-.13-5.18,5.13,5.13,0,0,1,1.4,4.38,5.09,5.09,0,0,0,.67,3.34A5.9,5.9,0,0,1,526,325.68Z"/><path class="cls-84" d="M506.09,332.19a16.46,16.46,0,0,1,1.87,9.74A15.79,15.79,0,0,1,506.09,332.19Z"/><path class="cls-85" d="M531.81,316a3.16,3.16,0,0,1-.23,1.6c-.32.54-.72.61-1.18.19a4.75,4.75,0,0,1-.7-4.5c.36-.68.83-.45,1.11,0A6.5,6.5,0,0,1,531.81,316Z"/><path class="cls-86" d="M499.88,340.9c.18-.6-.27-1.77.59-1.9s1,1.05,1.31,1.81a5.09,5.09,0,0,1,.34,2.44,1,1,0,0,1-.69.95c-.48.13-.76-.22-1-.59A5,5,0,0,1,499.88,340.9Z"/><path class="cls-87" d="M503.34,349.38a2.67,2.67,0,0,1-.12.77.66.66,0,0,1-1.25.21,5,5,0,0,1-1-3.52.94.94,0,0,1,.75-.88c.5-.12.76.25,1,.6A4.51,4.51,0,0,1,503.34,349.38Z"/><path class="cls-49" d="M526,309.82c-1-1.6-1.95-3.18-1.69-5.18a1.39,1.39,0,0,1,.73-1.34,6.3,6.3,0,0,1,.93,6.5Z"/><path class="cls-88" d="M485.12,368.59c-1.43-2.26-1.93-4.32-.8-6.58C485.4,364,486.29,366,485.12,368.59Z"/><path class="cls-47" d="M490.39,378.14c-1.37-2.1-2-4-1.54-6.14C490.91,373,491.37,374.62,490.39,378.14Z"/><path class="cls-84" d="M530,295.29c2,1.93,2.37,3.7,1.2,6A6.32,6.32,0,0,1,530,295.29Z"/><path class="cls-44" d="M510.11,330.77c-.07.45.24,1.49-.46,1.65-.95.22-1-.94-1.27-1.56a5.48,5.48,0,0,1-.37-3.05c0-.28.1-.57.42-.66a.69.69,0,0,1,.7.32A4.42,4.42,0,0,1,510.11,330.77Z"/><path class="cls-89" d="M497.73,342.58c1.74,1.78,1.68,3.68,1.3,5.71C497.21,347.42,496.72,345.43,497.73,342.58Z"/><path class="cls-90" d="M499,366.05c-2.05-1.83-2.12-3.89-1.81-6.09C498.79,360.89,499.31,362.56,499,366.05Z"/><path class="cls-75" d="M484.22,376.58c-.16.56.24,1.58-.63,1.7s-1-.91-1.29-1.61a5.3,5.3,0,0,1-.24-2.27c0-.43.18-.82.68-.91s.77.23,1,.6A4.74,4.74,0,0,1,484.22,376.58Z"/><path class="cls-81" d="M516.36,332c1.66,2.09,1.91,3,1.57,5.72-2-.84-2.49-2.79-1.54-5.74Z"/><path class="cls-55" d="M482.49,372.13c-1.28-1.65-2.24-3.39-1.14-5.82C483.15,368.08,483.05,370.05,482.49,372.13Z"/><path class="cls-78" d="M520.81,318.3c1.17,1.44,1.94,2.73,1.45,4.46-.1.35-.28.7-.66.68A1,1,0,0,1,521,323,4.29,4.29,0,0,1,520.81,318.3Z"/><path class="cls-91" d="M487,372.76c0,.08,0,.43-.07.77a.73.73,0,0,1-.67.69.78.78,0,0,1-.82-.51,5.17,5.17,0,0,1-.44-3.66c.15-.65.68-.71,1.1-.26A3.91,3.91,0,0,1,487,372.76Z"/><path class="cls-92" d="M519.45,311.11c1.55,1.56,1.58,3.24,1.43,5a.5.5,0,0,1-.31.48.61.61,0,0,1-.69-.31A4.9,4.9,0,0,1,519.45,311.11Z"/><path class="cls-93" d="M493.05,372.89a4.09,4.09,0,0,1-1.62-4.07c.07-.38.11-.91.65-.95s.7.4.89.76A4.14,4.14,0,0,1,493.05,372.89Z"/><path class="cls-94" d="M489.68,355c1.65,1.55,1.66,3.26,1.35,5.12C489.14,359.11,488.73,357.66,489.68,355Z"/><path class="cls-95" d="M486.66,375.51a6.91,6.91,0,0,1,1.55,4.72c0,.35-.06.74-.43.87s-.71-.29-.91-.63A5.1,5.1,0,0,1,486.66,375.51Z"/><path class="cls-48" d="M478.48,370.21c1.91,1.84,2.2,3.39,1.12,5.35C478,374.09,477.9,372.38,478.48,370.21Z"/><path class="cls-96" d="M505.58,348.49c1.73,1.37,2,2.72,1,4.79A3.52,3.52,0,0,1,505.58,348.49Z"/><path class="cls-97" d="M522.8,329.39a4.28,4.28,0,0,1-1.33-4.49c.12-.67.57-.71,1-.26C523.54,325.61,523.67,327.37,522.8,329.39Z"/><path class="cls-93" d="M490.8,361.72a4.66,4.66,0,0,1,1.67,4c0,.48-.05,1.06-.64,1.16s-.72-.39-.91-.75A5.17,5.17,0,0,1,490.8,361.72Z"/><path class="cls-98" d="M509.83,349.83c-2-1.36-2.32-2.48-1.36-5.15A5.29,5.29,0,0,1,509.83,349.83Z"/><path class="cls-55" d="M536.73,310.51c-1.88-1.42-1.76-3.14-1.43-5C537.1,306.54,537.56,308.12,536.73,310.51Z"/><path class="cls-99" d="M503.19,352.63a5.76,5.76,0,0,1,1.08,5.1C502.48,356.5,502.09,354.75,503.19,352.63Z"/><path class="cls-27" d="M541,297.63c1.56,1.13,2,2.51,1.39,4.74C540.5,301.32,540.14,300.06,541,297.63Z"/><path class="cls-100" d="M510.58,340.06c2,1.93,2.33,3.19,1.37,5.2C510.37,343.88,510.36,342.14,510.58,340.06Z"/><path class="cls-98" d="M522.32,307.26a5.65,5.65,0,0,1,1.38,4.81C521.67,311.27,521.32,310.16,522.32,307.26Z"/><path class="cls-101" d="M499,349.77c1.76,1.77,1.66,3.64,1.34,5.62C498.76,354.19,498.32,352.48,499,349.77Z"/><path class="cls-67" d="M535.52,303.69c-2.11-1.53-1.74-3.39-1.41-5.55C536,299.74,535.81,301.57,535.52,303.69Z"/><path class="cls-102" d="M500.23,356.66a3.16,3.16,0,0,1,1.45,3c0,.61.33,1.64-.6,1.68-.69,0-.93-.92-1.08-1.59A5.81,5.81,0,0,1,500.23,356.66Z"/><path class="cls-68" d="M533.14,291.53a4.75,4.75,0,0,1,1.1,4.79C532.5,295.37,532.15,293.88,533.14,291.53Z"/><path class="cls-103" d="M509.72,334.08c1.7,1.29,1.63,2.73,1.55,4.16,0,.26,0,.57-.39.65a.67.67,0,0,1-.69-.33C509.21,337.28,509.49,335.87,509.72,334.08Z"/><path class="cls-55" d="M519,328.86c1.85,1.37,2.08,2.55,1,4.6C518.58,332.23,518.73,330.69,519,328.86Z"/><path class="cls-1" d="M475.45,377l.66,1.51a2.31,2.31,0,0,1-1.68-.87A1.25,1.25,0,0,0,475.45,377Z"/><path class="cls-104" d="M367.89,157.79c-.43,3.34-.85,6.67-1.28,10a1.71,1.71,0,0,0,.15,1.38,1.07,1.07,0,0,1-.54,1.32c-2.08.73-3.53,2.32-5,3.83-2.45,1.33-3.9,3.69-5.64,5.71-2.17,2.52-3.89,5.42-5.82,8.15-.59.84-1.1,1.83-2.39,1.73-1.45-1.06-2.83-.4-4.12.26-2.61,1.35-5.37,2.33-8.05,3.5-1,.43-2.29,1.37-3.26.16s.25-2.22.91-3.11c2.74-3.69,5.69-7.22,8.21-11.07,1.37-2.1,1.36-2.16-1-2.87-.7-.21-1.4-.38-1.53-1.21s.39-1.28,1-1.72c2.48-1.92,5.06-3.7,7.47-5.71,2.88-2.42,5.81-4.77,7.11-8.51,1.64-1,3.56-1,5.36-1.36,2.09-.46,4.21-.76,6.31-1.14C366.56,157,367.35,156.93,367.89,157.79Z"/><path class="cls-9" d="M384.84,217.2c-3.19-1.76-6.46-3.35-9.76-4.89,1.24-3.84,2.93-7.5,4.5-11.21,3.68-8.72,7.72-17.29,11.07-26.14.39-1,.58-2.66,2.47-2.09a8.55,8.55,0,0,1,3.12,2.24,8.07,8.07,0,0,0,1.85,1.59,21.45,21.45,0,0,1,2.19,3.73,5.37,5.37,0,0,1-.56,3.79c-4.29,9-8.07,18.32-12.41,27.35a38.14,38.14,0,0,0-1.39,3.93C385.69,216.15,385.56,216.87,384.84,217.2Z"/><path class="cls-6" d="M361.29,207.3c-1.94-.78-4.1-1-5.86-2.19-1.2-1-1.09-2.18-.44-3.38,5.54-10.29,10.21-21,15.63-31.37a6.2,6.2,0,0,1,2.34-2.84l8.12-.06a1.83,1.83,0,0,1,1.17.36l-6.46,14.67q-4.92,11.17-9.87,22.32C364.7,207.57,364.5,207.66,361.29,207.3Z"/><path class="cls-105" d="M354.24,116.68c.55.79,1.07,1.6,1.66,2.37,1.08,1.41,1.84,1.56,3.37.6,1-.62,1.89-1.4,2.85-2.08,1.52-1.07,2.1-.86,2.63,1,.29,1,.49,2,.78,3,.19.64.21,1.41,1,1.76.53,2.44-.34,4.8-.51,7.2a33.6,33.6,0,0,1-1,5.54c-.23.93-.42,1.94-1.45,2.41-2.27.3-4.56-.76-6.83.12a9.16,9.16,0,0,0-2.64,1.56c-2.46,2.17-5.44,2-8.4,1.69a1.84,1.84,0,0,1-1.34-.89c1.11-8.33,2.48-16.57,8.4-23.17A2.66,2.66,0,0,1,354.24,116.68Z"/><path class="cls-6" d="M393.12,172.87c-.84.2-1,.95-1.2,1.58-4.55,12.21-10.34,23.89-15.13,36-.33.82-.54,1.79-1.71,1.86-2.05-1-4.36-1.29-6.28-2.57-1.19-1.16-.5-2.34,0-3.46,1.68-3.6,3.43-7.16,5.19-10.72,4.09-8.32,8-16.71,12.18-25a3.7,3.7,0,0,1,1-1.31A19.34,19.34,0,0,1,393.12,172.87Z"/><path class="cls-105" d="M364.24,101.6l-11.69-3.71A2.87,2.87,0,0,1,351,95.55c.35-3.33,1.6-6,5.12-7a5.12,5.12,0,0,1,1.63-.28,5.38,5.38,0,0,0,4.86-2.67c2.12-1.21,4.54-.45,6.76-1a55.34,55.34,0,0,1,6.51,6.57,20.59,20.59,0,0,1,3.35,4.46c.49,1,1.87.92,2.31,2a14.86,14.86,0,0,1-3.09,4.25,5.27,5.27,0,0,1-2.27,0,23.47,23.47,0,0,0-7.84-.29A37.81,37.81,0,0,1,364.24,101.6Z"/><path class="cls-9" d="M387.19,169.25a5.42,5.42,0,0,1-.75,3.19q-8.29,17-16.56,33.93a11.75,11.75,0,0,0-1.08,3.37c-2.64-.41-5-1.7-7.51-2.44,1.93.23,2.85-.85,3.57-2.49q7.63-17.51,15.37-35c.4-.91.61-2.08,2-2Z"/><path class="cls-106" d="M344.52,140.59a19.16,19.16,0,0,0,3.7.51,7.25,7.25,0,0,0,5.81-2.3,2.5,2.5,0,0,1,2.56-1c2.28.69,4.7.39,7,1a5,5,0,0,1,.66.08c2.64,1.59,5.62,1.8,8.58,2a33.91,33.91,0,0,1,4.5.67c.77.16,1.69.27,2,1.27a19.16,19.16,0,0,0-3.85,2,7.31,7.31,0,0,1-2.39.74,2.31,2.31,0,0,1-2.56-.92c-1.56-1.9-2.83-2-4.77-.5a26.27,26.27,0,0,0-3.23,3.27c-1.15,1.29-2.34,2.55-3.76,4.11a4,4,0,0,1,.82-2.73,16.84,16.84,0,0,0,1.85-3.73c.49-1.86-.06-2.63-2-2.73a4.2,4.2,0,0,0-3.5,1,73.79,73.79,0,0,0-7.63,9.37c-.44.31-.76.07-1.07-.24-.39-1.57.52-2.79,1.13-4.08a18.84,18.84,0,0,0,1-1.82,1.86,1.86,0,0,0-2.29-2.58,4.9,4.9,0,0,0-2.84,2c-1.59,2.11-3.14,4.25-4.77,6.33a4.46,4.46,0,0,1-1.65,1.55c-2,.12-1.62-2.21-2.88-2.87l-.91-1.59c1.82-2.37,3.65-4.74,5.46-7.13a5.15,5.15,0,0,0,1.31-2.11c1.58.17,1.75-1.06,2.12-2.11C344.69,138.13,344.21,139.61,344.52,140.59Z"/><path class="cls-107" d="M334,119.62l0-.28c.33-1,1.24-.92,2-1,.95-.1,1.75-.34,2-1.4.68-2.22,1-4.54,2-6.67a2.23,2.23,0,0,0-1-3.26c.52-1.57-1.21-1.38-1.71-2.16-.26-1,.49-1.25,1.2-1.57,2.05-.93,2.24-1.93.7-3.57a4.71,4.71,0,0,0-3-1.64c-1-.1-1.95-.26-2.25-1.43a4.39,4.39,0,0,0,1.71-4,21.15,21.15,0,0,1,.08-2.25c.95-.5,1.62,0,2.14.7a26.64,26.64,0,0,0,8.38,6.6c.77.44,1.65.8,1.64,1.91a21.21,21.21,0,0,0-3.46,11.81,82.54,82.54,0,0,1-4.57,23.84,6.21,6.21,0,0,0-.44,2c-1.52-1.21-2.78-2.55-2.47-4.74a6.68,6.68,0,0,1,.63-2,10.48,10.48,0,0,0,1-5.28c-.09-1.46-.25-2.91-.33-4.37a1.15,1.15,0,0,0-1.31-1.25C336,119.69,335,119.64,334,119.62Z"/><path class="cls-108" d="M347.42,152.29l.89.44a7.08,7.08,0,0,0,8.18.49c.91-.5,1.69-1.24,2.5.2.33.58,1.22.55,1.92.59,1.87.13,3.74.28,5.6.43a8.7,8.7,0,0,1,1.45.16c1.33.33,1.59,1,.85,2.07a11,11,0,0,1-.92,1.12l-13.7,2.54a2.82,2.82,0,0,1-2,.95,25.6,25.6,0,0,1-12.55-2.08c-1-.45-2.07-.88-2.2-2.22-1.26-1.81-2.46-3.64-2.51-5.95a1.75,1.75,0,0,1,1.92,1.28c.18.52.34,1.07.93,1.31a2.26,2.26,0,0,1,2.17-.14,3.24,3.24,0,0,0,2.51.11,4.15,4.15,0,0,1,1.23-4.83,2.2,2.2,0,0,1,2.81-.57,2.08,2.08,0,0,1,.85,2.55C347.22,151.28,347,151.79,347.42,152.29Z"/><path class="cls-9" d="M373,167.52a7.4,7.4,0,0,1-.38,1.18q-8,16.17-16,32.31c-.67,1.32-1.45,2.54-1.13,4.1a28.6,28.6,0,0,1-8-.84.48.48,0,0,1-.05-.58c2.86-.88,4.17-3,5.3-5.68,3.52-8.27,7.21-16.47,10.82-24.7A8.61,8.61,0,0,1,366,170c.25-.27.51-.54.76-.82,1.18-.41,2.35-.85,3.55-1.23A5.46,5.46,0,0,1,373,167.52Z"/><path class="cls-109" d="M369.75,122.83a26.83,26.83,0,0,1,4.38,2.37,33.33,33.33,0,0,0,3.91,2c3.22,1.37,4.46,3.33,4.33,6.82a20.72,20.72,0,0,1-2.14,7.54,2,2,0,0,1-1.81-.09c-1.6-1.29-3.43-1.19-5.34-1.12-3.44.11-5.55-1.87-5.61-5.28-.07-3.76.83-7.44,1.37-11.14A1.54,1.54,0,0,1,369.75,122.83Z"/><path class="cls-110" d="M369.75,122.83a88.83,88.83,0,0,1-1.14,9.48,16.23,16.23,0,0,0-.19,2.69c.13,2.89,2.08,4.93,4.87,4.3,3-.68,4.9.68,6.94,2.24a1.52,1.52,0,0,1-.94,1.3,1.86,1.86,0,0,1-.41,0c-3.78-.84-7.68-.85-11.46-1.63-1.37-.28-2.9-.46-3.75-1.87a1.08,1.08,0,0,1-.35-1l.06-.26c1.35-3.81,1.52-7.83,2.1-11.79.15-1.06.07-2.22,1-3C367.56,123.06,368.57,122.37,369.75,122.83Z"/><path class="cls-111" d="M378.42,101.31a2.7,2.7,0,0,0,.17-.6,3,3,0,0,1,2.79-3.17,3.43,3.43,0,0,1,2.5-3.4,11.7,11.7,0,0,1,.78,6.1,22.18,22.18,0,0,1-4.32,11.81,4.82,4.82,0,0,0-1.06,2.22,27,27,0,0,0-8.34-8.73,2.19,2.19,0,0,1,2.85-1.46c2.19.59,3.51,0,4-2.24C377.85,101.57,378.19,101.47,378.42,101.31Z"/><path class="cls-112" d="M347.9,99.63a33.51,33.51,0,0,1-8.42-5.33A11,11,0,0,1,337.34,92a5.58,5.58,0,0,0-1.6-1.61l-.11-1.62c.76-1.29,2.52-1.3,3.28-2.6a1.8,1.8,0,0,1,1.27-.15c1.43.29,2.17,1.44,3,2.45,1.9,2.38,4,4.45,7.21,4.82,1.27.15,1.33,1.24,1.64,2.13s.37,1.62.55,2.44A7,7,0,0,0,347.9,99.63Z"/><path class="cls-113" d="M344.52,140.59c-1.3-.35-.89-1.78-1.6-2.5a44.71,44.71,0,0,1,1-13.25c.45-2.14,1.48-3.46,3.86-3.11a1.9,1.9,0,0,0,2.13-1.29,9.39,9.39,0,0,1,2.42-3.35c.54-.45,1.12-1.15,1.94-.41-1,2.53-2.87,4.58-4.23,6.92a26.51,26.51,0,0,0-3.41,10,16.12,16.12,0,0,0-.4,3.72A3.11,3.11,0,0,1,344.52,140.59Z"/><path class="cls-114" d="M378.42,101.31a10.26,10.26,0,0,1,0,1.24c-.29,2.67-1.44,3.56-3.9,2.63-1.41-.54-2.4.46-3.61.35l-6.69-3.93c.27-.59.82-.66,1.37-.77A25,25,0,0,1,378.42,101.31Z"/><path class="cls-115" d="M404,126c.42,0,.83-.05,1.25-.1a.73.73,0,0,0,.69-1c-.3-1.07-.58-2.15-1-3.18-1.51-4.12-3.75-7.9-5.62-11.86a19.47,19.47,0,0,1-1.38-3.81c4.48,6.27,7.49,13.26,10.25,20.37C406.8,126.34,405.35,126.74,404,126Z"/><path class="cls-116" d="M353.91,151.22A3.79,3.79,0,0,1,356,148c.81-.38,1.46-.05,1.46.81a4,4,0,0,1-1.67,3.4,1.23,1.23,0,0,1-1.37.2C353.91,152.15,354,151.64,353.91,151.22Z"/><path class="cls-117" d="M366.77,149.8a3.38,3.38,0,0,1-1.7,2.64c-.85.45-1.57.05-1.54-.91a3.45,3.45,0,0,1,1.54-2.8,1.12,1.12,0,0,1,1.35-.12C366.84,148.89,366.75,149.33,366.77,149.8Z"/><path class="cls-118" d="M373.24,150.8a3,3,0,0,1-1.65,2.54c-.89.43-1.54,0-1.44-1a3.28,3.28,0,0,1,1.43-2.45,1,1,0,0,1,1.17-.13A1.1,1.1,0,0,1,373.24,150.8Z"/><path class="cls-119" d="M325.59,123.07l.92-.12a17,17,0,0,1,2.48.27,8.39,8.39,0,0,1,6.13,8.57c-.61.24-.87-.29-1.2-.58A85.35,85.35,0,0,1,325.59,123.07Z"/><path class="cls-120" d="M369.61,85c-.59,1-1.58.92-2.54.9-1.36,0-2.74-.24-4,.41-2.84,1.14-4.11.88-6.27-1.37a14.26,14.26,0,0,1-3.9-5.78c.1-1,.85-1.4,1.65-1.68,5.26-1.87,10.12-4.62,15.14-7,1.2-.57,2.42-1.54,3.89-.62,1.88.54,2.73,2.34,4.19,3.39a17.11,17.11,0,0,0,2.1,3.55,9,9,0,0,1,1.5,3.16c.14.72.36,1.5-.28,2.14a2,2,0,0,1-1.75.39c-.64-.06-1.4-.1-1.8.34C375.32,85.28,372.17,84,369.61,85Z"/><path class="cls-121" d="M369.61,85c.69-1.67,2.06-2,3.58-1.58a2.19,2.19,0,0,0,2.67-.72c1.48-1.77,3.31-1.7,5.19-.6.3.17.61.31.9.5,1.59,1,1.94,2.2,1.13,3.9-.33.68-.75,1.32-1.13,2a3.17,3.17,0,0,0-.54,1.76.76.76,0,0,0,.33.71.61.61,0,0,0,.75-.17c.31-.28.57-.61.87-.9s.49-.54.88-.32a.79.79,0,0,1,.32.91,14.69,14.69,0,0,0-.68,3.66c-.65,1.26-.94,2.8-2.5,3.4a2.79,2.79,0,0,1-3.17-1.68c-1.8-3.28-4.56-5.79-7.16-8.42C370.37,86.76,369.57,86.13,369.61,85Z"/><path class="cls-6" d="M384.84,217.2c-.25-2.18.71-4.09,1.55-6,4.22-9.46,8.51-18.89,12.78-28.33l1.11-2.47c3,3.29,4.22,7.37,5,11.63.12.61.25,1.21.37,1.82-1.32,3.21-2.61,6.43-4,9.62-2.2,5.2-4.33,10.43-6.54,15.62-.58,1.37-1.11,3.06-3.27,2.32-1.63-.59-2.88-1.82-4.38-2.64C386.59,218.3,385.72,217.74,384.84,217.2Z"/><path class="cls-108" d="M391.87,221.44a4,4,0,0,0,2.3-2.51q4.72-11.44,9.52-22.85c.39-.93.65-2,1.95-2.2.18,2.12.39,4.23.54,6.36a19.12,19.12,0,0,1-.51,6.12,52.19,52.19,0,0,0-3.5,7.07c-1.78,4.2-3.54,8.42-5.32,12.63a27.52,27.52,0,0,0-3.68-3.31A4.91,4.91,0,0,1,391.87,221.44Z"/><path class="cls-6" d="M352.12,241.94a4.34,4.34,0,0,1-.51,1.8C348,252,345.1,260.51,342,269q-7.71,21-15.48,42-6.43,17.48-12.85,35c-.29.78-.57,1.58-.93,2.33-.69,1.44-1.32,1.63-2.61.75a18.29,18.29,0,0,1-1.92-1.62c-1.07-1-2.08-2.06-3.18-3a5.16,5.16,0,0,1-1.44-6.42c1.21-3,2.39-5.95,3.62-8.92q18.18-44,36.4-88c.36-.87.49-2,1.75-2.09C347.8,239.55,350.31,240,352.12,241.94Z"/><path class="cls-122" d="M329.41,225.65c-1.3-1.14-1.77-2.77-2.43-4.26a23,23,0,0,0-1.76-3.51c-.33-1.49.83-2.34,1.59-3.23,5.65-6.72,10.91-13.75,16.46-20.54.71-.87,1.38-1.86,2.74-1.1a1.7,1.7,0,0,1,.15,1.76c-1.05,2.91-2.18,5.79-3.45,8.61a7.51,7.51,0,0,1-1.86,2.19c-3,1.81-4.18,4.59-4.3,8,0,.55,0,1.1,0,1.65-2.67.64-3.9,2.43-4,5.08-.05,1.1-.06,2.21-.09,3.31A11.55,11.55,0,0,1,329.41,225.65Z"/><path class="cls-123" d="M353,236a1.83,1.83,0,0,1-2-1.68,1.93,1.93,0,1,1,3.85-.14A1.93,1.93,0,0,1,353,236Z"/><path class="cls-124" d="M346,230a1.88,1.88,0,0,1-1.85,1.85,1.65,1.65,0,0,1-1.81-1.6,1.72,1.72,0,0,1,1.66-2A1.94,1.94,0,0,1,346,230Z"/><path class="cls-125" d="M337.43,228.32a1.6,1.6,0,0,1-1.59,1.78,1.71,1.71,0,0,1-1.79-1.62,1.69,1.69,0,0,1,1.73-1.89A1.61,1.61,0,0,1,337.43,228.32Z"/><path class="cls-126" d="M338.62,221.06a1.75,1.75,0,0,1-1.89-1.75,1.92,1.92,0,0,1,1.79-1.91,2.31,2.31,0,0,1,2,2C340.61,220.4,339.82,221.08,338.62,221.06Z"/><path class="cls-127" d="M358.16,223.12a2.06,2.06,0,0,1-1.81,1.94,1.81,1.81,0,0,1-1.8-1.87,1.53,1.53,0,0,1,1.63-1.72A1.76,1.76,0,0,1,358.16,223.12Z"/><path class="cls-128" d="M347,221.83a1.62,1.62,0,0,1-1.58-1.8,1.75,1.75,0,0,1,1.71-1.74,1.68,1.68,0,0,1,1.57,1.84A1.63,1.63,0,0,1,347,221.83Z"/><path class="cls-9" d="M340.85,205.57q2.11-5.34,4.22-10.68a6,6,0,0,0,.64-2c-.58-1.69,0-2.8,1.69-3.31,2-2.32,3.52-5,5.29-7.45a42.83,42.83,0,0,1,6.13-7,4.57,4.57,0,0,1,2-1.4c1,.76.43,1.64.17,2.48a73.61,73.61,0,0,1-4,9.43q-3.91,8.2-7.83,16.42a4.76,4.76,0,0,1-1.72,1.76l0,.47a3.58,3.58,0,0,0-3-.05Z"/><path class="cls-129" d="M342.42,207.59a1.84,1.84,0,0,1,2,1.91,1.87,1.87,0,0,1-1.86,1.81,2.13,2.13,0,0,1-2-2A1.73,1.73,0,0,1,342.42,207.59Z"/><path class="cls-130" d="M351,208.41a1.7,1.7,0,0,1,1.82,1.79,2,2,0,0,1-2.06,1.85,1.83,1.83,0,0,1-1.68-2A1.65,1.65,0,0,1,351,208.41Z"/><path class="cls-124" d="M360.17,211.4a1.79,1.79,0,0,1,1.79,1.88,1.77,1.77,0,1,1-3.54,0A1.7,1.7,0,0,1,360.17,211.4Z"/><path class="cls-7" d="M339.12,86.61c-.31,2-.34,2-2.26,2.14-.41,0-.82,0-1.23,0-1.23-1.43-3-2.44-3.33-4.55a8,8,0,0,1-.36-3c-.17-.51-.6-1-.34-1.56,1-2.12,2.16-4.21,4.57-5.13.39-.49.6-1.16,1.31-1.32a21.83,21.83,0,0,1,3.23-3.76,2.1,2.1,0,0,1,2.05-.67l2.55-1.44,10.06-3.65,5.17-.25a19,19,0,0,1,8.15,1.11c.58,1.28-.49,1.78-1.23,2.28a56.27,56.27,0,0,1-16.56,7.86c-2.9.79-5.84,1.39-8.51,2.86-3.54,1.95-4.21,3.4-3.14,7.28A2,2,0,0,1,339.12,86.61Z"/><path class="cls-9" d="M339.12,86.61c-.34-.69-.73-1.35-1-2.06-1.11-2.79-.57-4.85,1.84-6.61a20.35,20.35,0,0,1,7.78-3.48A56.61,56.61,0,0,0,368,65.27a5.52,5.52,0,0,0,.72-.73l1.63-.36a4,4,0,0,1,3.95,1.31,1.87,1.87,0,0,1,.36,2.61c-.38.58-.73,1.18-1.09,1.77-3.81,1.54-7.47,3.39-11.11,5.29a93,93,0,0,1-9.2,3.91,1.56,1.56,0,0,1-1.14,1.49,12,12,0,0,0-9.41,1.58c-1,.4-1.05,1.32-1.26,2.2s0,1.87-1.12,2.26Z"/><path class="cls-131" d="M334,96.64a9.7,9.7,0,0,0,2,.39c2.21,0,3.53,1.38,4.76,2.89s.71,3.54-1.38,4.19c-.65.2-1.39.06-2,.49a1.09,1.09,0,0,1-.7,1,63.38,63.38,0,0,1-7.77,2c-.2,0-.39-.13-.57-.23a1.66,1.66,0,0,1-.63-1.46c.21-2.38,0-4.76,0-7.13C329.5,97.16,331.74,96.94,334,96.64Z"/><path class="cls-132" d="M327.74,98.77a5.41,5.41,0,0,1,1.12,4.65,23,23,0,0,0-.29,3.7A4.21,4.21,0,0,1,324,110.5c-1.23-.15-1.34-1.39-2-2.08C321.18,104.06,323.1,100.86,327.74,98.77Z"/><path class="cls-13" d="M335.72,55.66c.63.81,1.27,1.61,1.88,2.43a2.82,2.82,0,0,0,2.17,1.37c.39,0,.87.12.63.75-1-.8-1.92-.4-2.83.21q-5,3.39-10,6.75a4.7,4.7,0,0,0-1.52,1.93l0,0a8,8,0,0,0-3.75,2,7.47,7.47,0,0,1-2.49,1.74c-.23-.26-.45-.52-.67-.79-1.85-2.28-1.8-4.16.54-5.88,3.31-2.41,6.3-5.22,9.63-7.59A13.7,13.7,0,0,1,335.72,55.66Z"/><path class="cls-13" d="M326.05,69.1c.9-.37,1.79-.79,2.7-1.1a4.21,4.21,0,0,1,5.62,3.61,1.81,1.81,0,0,1-.66,1.67A33.46,33.46,0,0,1,328.93,77c-1.63.94-2.67.7-3.76-.84a10.28,10.28,0,0,1-1.09-2c-.65-1.66-.42-2.51,1-3.62.52-.39,1-.7,1-1.44Z"/><path class="cls-133" d="M340.23,60.68a4.25,4.25,0,0,0,1.22,1.83c.4.43.94.8.9,1.51-1,.24-1.37,1.11-1.9,1.81a37.34,37.34,0,0,1-3.1,3.9c-.71.71-1.31,1-2.06.08-.59-.68-1.3-1.25-1.88-1.94-1.05-1.26-1-2.16.29-3.19A25.94,25.94,0,0,1,338.11,62,8.77,8.77,0,0,0,340.23,60.68Z"/><path class="cls-134" d="M322,80.39c-1.56,0-2.38-.73-2.84-2.41a3.3,3.3,0,0,1,1.15-3.72,2,2,0,0,1,2.59.67,21.94,21.94,0,0,0,2,2.91c.54.51.14,1.06-.21,1.48A3.7,3.7,0,0,1,322,80.39Z"/><path class="cls-135" d="M336.17,74.52a14.47,14.47,0,0,1-1.36,2,13,13,0,0,0-2.87,4.65,10.58,10.58,0,0,1-1.61-.43c-2-.89-2.06-1.58-.35-3a32.09,32.09,0,0,1,5-3.74C335.54,73.81,336.07,73.59,336.17,74.52Z"/><path class="cls-136" d="M329.79,82.68c-2.87.89-5.25.77-7.11-.38C324.79,79.63,327.86,79.8,329.79,82.68Z"/><path class="cls-137" d="M342.76,68.77c-1.35,1.15-2.35,2.66-3.87,3.63-.45.29-.81.75-1.41.8A5.46,5.46,0,0,1,339.36,69a22.26,22.26,0,0,0,3.06-3.3C343.29,66.66,342.29,67.79,342.76,68.77Z"/><path class="cls-138" d="M339.12,117.22c-.46,2-.46,2-2.38,2.06l-2.69.06c-2.44.31-4.4-.78-6.3-2.11-1.64-1.15-2.72-2.54-2.55-4.65,0-1.9.78-2.73,3-3.11,2,.33,3.46,1.67,5,2.81a9.6,9.6,0,0,0,3.7,1.8C339.41,114.61,339.41,114.61,339.12,117.22Z"/><path class="cls-139" d="M328.17,110.07a6.18,6.18,0,0,0-3,2.51c-1.71-.3-1.8-.46-1.25-2.08l4.62-3.38a40.72,40.72,0,0,1,8.81-2.52c.89,0,1.78,0,2.67.06a4,4,0,0,1,1.19.22.82.82,0,0,1,.57,1c-.09.4-.42.5-.77.55a6.28,6.28,0,0,0-2,.27c-.08.37-.3.73-.63.77C334.86,107.83,331.65,109.48,328.17,110.07Z"/><path class="cls-7" d="M347.4,189.6a20.63,20.63,0,0,1-1.69,3.31,101.67,101.67,0,0,0-6.75,8.2c-4,5-8,10-12,14.95-.52.65-1.14,1.22-1.72,1.82a18.22,18.22,0,0,1-2.5-1.86c-1.59.13-2-1.21-2.77-2.16a14.37,14.37,0,0,1-3.53-5.66,1.84,1.84,0,0,1,.78-1.86,210.74,210.74,0,0,0,14.45-27,15.88,15.88,0,0,0,1.44-6.68c-.13-5.69,1.69-10.79,4.36-15.68a25.76,25.76,0,0,0,15.07,3.32c.56,0,1.12,0,1.67,0a4.1,4.1,0,0,1-1.32,3.54,75.68,75.68,0,0,1-12.13,10.25c-.45.32-.91.64-1.35,1-.1.08-.14.23-.36.61,1.22.18,2.34.36,3.47.51,1.63.22,1.7.33.82,1.78a77.6,77.6,0,0,1-4.87,7.06L333.07,192a3,3,0,0,0-.82,1.44c.64.31,1.1-.1,1.58-.3,3.34-1.43,6.66-2.88,10-4.32.45-.2.88-.42,1.34-.59C346.65,187.71,346.92,187.88,347.4,189.6Z"/><path class="cls-140" d="M301.77,241.57a7.62,7.62,0,0,0-2-2.09c.14-6,2-11.69,3-17.54a2.34,2.34,0,0,1,.26-.56c1.86-.06,2.13,1.4,2.58,2.7s.07,2.76.93,3.94c1,1.63,1.84,3.4,3.36,4.66,1.21,1.58,3.19,2.4,4.15,4.23.9.49,1.78,1,2.69,1.45a4.58,4.58,0,0,0,3.94.28c1.11,1.31,1.35,4.54.45,6.2a12.08,12.08,0,0,0-1.85,3c-1,2.05-2.15,2.58-4.41,2-.88-.21-1.72-.55-2.58-.83a27.07,27.07,0,0,1-7-4.13A31.55,31.55,0,0,0,301.77,241.57Z"/><path class="cls-9" d="M306,228.57a4.32,4.32,0,0,1-1.2-3,7.86,7.86,0,0,0-1.86-4.23,2,2,0,0,1,.49-1.22c1.64-2.95,2.75-6.17,4.64-9,1.68-2.5,2.72-5.48,5.42-7.21,2-.36,2.69,1.22,3.68,2.38.05.7.09,1.4.13,2.1a3.4,3.4,0,0,1-.91,3.38,52.8,52.8,0,0,0-8.27,14.33C307.77,227.16,307.67,228.59,306,228.57Z"/><path class="cls-141" d="M313.52,204c-.57,1.91-1.93,3.36-2.93,5a78.78,78.78,0,0,0-5.08,9.34c-.4.93-.91,1.74-2.05,1.84a25.2,25.2,0,0,1,6.37-14.61A4.4,4.4,0,0,1,313.52,204Z"/><path class="cls-6" d="M303.83,371.36c-.72-.37-.76-1.05-1-1.6-2.4-5.55-6.23-9.49-12.27-11a2.4,2.4,0,0,1-2.07-2.91,19.08,19.08,0,0,1,3.58-9.67,5.08,5.08,0,0,1,7-1.51,29.1,29.1,0,0,1,9.31,8.56,4.61,4.61,0,0,1,.6,4.39q-2,6-4.12,12A3.47,3.47,0,0,1,303.83,371.36Z"/><path class="cls-6" d="M290.42,367.52a3.61,3.61,0,0,1,3.61.21c5,2.8,9.51,6.12,12.18,11.39a10.91,10.91,0,0,1,1.42,3.9c-.08,1.06-.91,1.41-1.72,1.53-5.63.81-11,.53-15.28-3.95a11.1,11.1,0,0,1-1.87-11.7C289.1,368.17,289.52,367.56,290.42,367.52Z"/><path class="cls-142" d="M290.42,367.52a12.57,12.57,0,0,0-1.44,7.07,9.51,9.51,0,0,0,5.25,7.6,16.61,16.61,0,0,0,13.4.83c1.14.83.71,1.64,0,2.45-6.15,1.83-11.94,1.25-17.24-2.59s-6.47-8.25-4.09-14.21c.15-.39.34-.76.5-1.14C288.34,365.82,288.94,365.82,290.42,367.52Z"/><path class="cls-9" d="M314,236.91a7.92,7.92,0,0,1-4.69-3.68,5.56,5.56,0,0,1,.51-3.65,123,123,0,0,1,7.73-15c.72-1.23,1.64-1.89,3.08-1.09a15,15,0,0,1,2.1,2.54c-1.93,4.08-3.89,8.14-5.76,12.24A48.54,48.54,0,0,0,314,236.91Z"/><path class="cls-143" d="M321.07,244.84a14.13,14.13,0,0,1-.45-6.2c.85-2.56,1.15-2.66,3.35-1.18,3.31,2.22,3.63,4.79.85,8.23-.88,1.09-1.27,1.06-2.43.16Z"/><path class="cls-144" d="M316.71,262.21c-1.41,0-1.94-.66-1.72-2.11.1-.68.15-1.37.23-2.05.17-1.33.6-1.79,1.76-1.92a2.85,2.85,0,0,1,2.86,1.27C320.49,258.86,318.3,262.22,316.71,262.21Z"/><path class="cls-31" d="M302.57,271.28a1.6,1.6,0,0,1-.34-1.3A1.54,1.54,0,0,1,302.57,271.28Z"/><path class="cls-145" d="M347.48,203.8a15.49,15.49,0,0,1,1.47-3.66c3.33-7.12,7-14.1,10-21.36.7-1.67,1.27-3.38,1.91-5.07,1-2.21,2.92-3.18,5.15-3.71a53.72,53.72,0,0,1-2.76,6.55c-3.37,7.73-6.79,15.45-10.19,23.17-.17.38-.33.77-.51,1.14C351.29,203.53,350.46,204,347.48,203.8Z"/><path class="cls-146" d="M350.53,131.55a13.17,13.17,0,0,1,1.09-4.18c.25-.43.54-.84,1.09-.83s.92.51,1.15,1a4,4,0,0,1-.1,2.83c-.25.86-.52,1.71-.84,2.54a1.11,1.11,0,0,1-1.27.84,1.17,1.17,0,0,1-.9-1C350.63,132.31,350.58,131.83,350.53,131.55Z"/><path class="cls-147" d="M363.39,139.33a15,15,0,0,1-6.14-.69c-.45-.11-.79-.29-.66-.84.74-.13,1.48-.26,2.23-.37a6.42,6.42,0,0,1,4.56.68v0A1,1,0,0,1,363.39,139.33Z"/><path class="cls-146" d="M363.4,127.85c0,1.37-.78,2.77-1.45,2.79s-.89-1.15-.68-2.8c0-.07,0-.14,0-.21.2-1.18.79-1.95,1.38-1.79S363.44,126.66,363.4,127.85Z"/><path class="cls-148" d="M340.3,86.6c.1-1.9-.09-3.89,1.69-5.24a19,19,0,0,1,3.92,4.24c2.09,2.68,4.62,3.18,7,1.48,1.18-.83,1.47-1.64.53-2.93s-2-2.35-1.41-4.07l1.16-1c1,1.33,1.95,2.69,3,4,1.74,2.17,3.91,3.5,6.81,3.26l-1,1.31a3.69,3.69,0,0,1-3.23,1.58,8.46,8.46,0,0,0-1.67.08,5.29,5.29,0,0,0-4.76,4.32c-.13.61-.23,1.23-.34,1.84-.46-.51-.81-1.2-1.61-1.2-3.17,0-5.25-2-7.18-4.12C342.19,89,341.27,87.78,340.3,86.6Z"/><path class="cls-149" d="M374.21,93.78c0,.82-.11,1.54-.89,1.77s-1.24-.44-1.57-1a8,8,0,0,1-.78-2.77,1,1,0,0,1,.41-1.09,1.17,1.17,0,0,1,1.35.16A4,4,0,0,1,374.21,93.78Z"/><path class="cls-150" d="M363.42,91.94a2.65,2.65,0,0,1,2,1.33c1,1.37,1.11,2.74.35,3.15s-2.06-.5-2.76-1.73a2.94,2.94,0,0,1-.41-2A.85.85,0,0,1,363.42,91.94Z"/><path class="cls-151" d="M347.42,152.29l-1.47.78c-.49-.54,0-.92.1-1.34a13.35,13.35,0,0,0,.58-2c.12-.89-.44-1.31-1.27-1.08-1.19.32-2.61,2.69-2.35,3.88.19.82,1,.88,1.8,1.22-2.57,1.7-4.8,1-7-.13a2.69,2.69,0,0,1,.74-1.67c1.63-2.17,3.24-4.35,4.89-6.49a6.7,6.7,0,0,1,2.89-2.32,3.34,3.34,0,0,1,3.81.79c1,1.08.71,2.22.07,3.26C349.17,148.84,348.61,150.73,347.42,152.29Z"/><path class="cls-105" d="M363.39,139.33v-1.17a1.22,1.22,0,0,1,.28,1.17l-.14,0Z"/><path class="cls-131" d="M328.17,110.07a17.53,17.53,0,0,1,10.85-3.4l.21,0c2.73.2,2.73.2,2,3a8.59,8.59,0,0,1-.57,1.78c-.9,1.82-1,3.85-1.56,5.77-.26-1.89-.25-1.92-2.05-2.08a8.59,8.59,0,0,1-4.29-1.91A35.15,35.15,0,0,0,328.17,110.07Z"/><path class="cls-152" d="M375,131.32a11.29,11.29,0,0,1-1.33,4.6c-.15.24-.33.5-.64.4a.65.65,0,0,1-.36-.46c-.15-2.14-.54-4.32.64-6.33.18-.3.38-.65.77-.61s.5.43.56.78A13.14,13.14,0,0,1,375,131.32Z"/><path class="cls-153" d="M365,78.79c0-1.56.59-2.27,2-2.27a3,3,0,0,1,2.93,3.12A2.07,2.07,0,0,1,368.05,82,3,3,0,0,1,365,78.79Z"/><path class="cls-154" d="M362.5,81.85a1.84,1.84,0,0,1-2.11,2,3,3,0,0,1-2.83-3.22,1.76,1.76,0,0,1,2.09-2A3,3,0,0,1,362.5,81.85Z"/><path class="cls-155" d="M375.15,75.63c0,1.42-.55,2.17-1.64,2.16a3.45,3.45,0,0,1-3-3.4,1.69,1.69,0,0,1,1.74-1.87A2.92,2.92,0,0,1,375.15,75.63Z"/><path class="cls-156" d="M352.07,80.08c1.11,1.42,1.7,3.16,2.94,4.53.79.86.56,1.76-.39,2.52a10.26,10.26,0,0,1-3.05,1.78,3.75,3.75,0,0,1-4.07-.75c-1.51-1.44-3-2.91-4.45-4.39A3.23,3.23,0,0,1,342,81.36l3.18-1.51A6.68,6.68,0,0,1,352.07,80.08Z"/><path class="cls-157" d="M320.62,213.48a3.2,3.2,0,0,0-2.36,1.85A107.44,107.44,0,0,0,310,232a2.51,2.51,0,0,1-.73,1.24,7.34,7.34,0,0,1-3.27-4.66c.42-1,.86-2,1.27-3.06a53.74,53.74,0,0,1,9-15.09,3.56,3.56,0,0,0,1-2C318,210.37,319.65,211.72,320.62,213.48Z"/><path class="cls-158" d="M349,86.6a3.16,3.16,0,0,1-2.63-4.43,2.09,2.09,0,0,1,2.55-.84A3.56,3.56,0,0,1,351.07,85,1.94,1.94,0,0,1,349,86.6Z"/></svg>