<svg id="Layer_1" data-name="Layer 1" xmlns="http://www.w3.org/2000/svg" viewBox="0 0 88 290"><defs><style>.cls-1{fill:#f4f4f6;}.cls-2{fill:#f0f9f8;}.cls-3{fill:#f2f2f5;}.cls-4{fill:#dee1e7;}.cls-5{fill:#cae8e8;}.cls-6{fill:#d9e3f9;}.cls-7{fill:#cad6ef;}.cls-8{fill:#e9effc;}.cls-9{fill:#c3cbda;}.cls-10{fill:#133476;}.cls-11{fill:#2cb0a7;}.cls-12{fill:#4774dd;}.cls-13{fill:#143677;}.cls-14{fill:#f0f4f7;}.cls-15{fill:#4273dd;}.cls-16{fill:#4171db;}.cls-17{fill:#c1c4c7;}.cls-18{fill:#c3c4c6;}.cls-19{fill:#0c1e40;}.cls-20{fill:#d9d9db;}.cls-21{fill:#2754b6;}.cls-22{fill:#2b58b9;}.cls-23{fill:#c3c3c1;}.cls-24{fill:#4373dd;}.cls-25{fill:#4575dd;}.cls-26{fill:#6184e5;}.cls-27{fill:#6586e5;}.cls-28{fill:#777;}.cls-29{fill:#4273dc;}.cls-30{fill:#c3c1c4;}.cls-31{fill:#5d82e7;}.cls-32{fill:#5a5a5d;}.cls-33{fill:#527ae0;}.cls-34{fill:#aac3f8;}.cls-35{fill:#0f295b;}.cls-36{fill:#7694e1;}.cls-37{fill:#15377a;}.cls-38{fill:#2455b5;}.cls-39{fill:#2455b4;}.cls-40{fill:#4573dd;}.cls-41{fill:#4371dd;}.cls-42{fill:#a6c1f7;}.cls-43{fill:#ecf0f7;}.cls-44{fill:#4381dd;}.cls-45{fill:#7495e1;}.cls-46{fill:#2558b8;}.cls-47{fill:#4070dc;}.cls-48{fill:#a0c0f5;}.cls-49{fill:#d1d5df;}.cls-50{fill:#15387d;}.cls-51{fill:#193f88;}.cls-52{fill:#eeeff0;}.cls-53{fill:#1d4491;}.cls-54{fill:#173b83;}.cls-55{fill:#f0f2f3;}.cls-56{fill:#d8d8d8;}.cls-57{fill:#f0f3f3;}.cls-58{fill:#4b73d7;}.cls-59{fill:#f3f4f6;}.cls-60{fill:#19448d;}.cls-61{fill:#d5dee0;}.cls-62{fill:#a8c1f7;}.cls-63{fill:#6e8eeb;}.cls-64{fill:#edeff4;}.cls-65{fill:#1a3c7f;}.cls-66{fill:#c2c4c5;}.cls-67{fill:#95b3f2;}.cls-68{fill:#99b6f3;}.cls-69{fill:#95b2f1;}.cls-70{fill:#92b1f3;}.cls-71{fill:#9cb7f4;}.cls-72{fill:#97b3f2;}.cls-73{fill:#8faef2;}.cls-74{fill:#9db9f5;}.cls-75{fill:#9ab6f4;}.cls-76{fill:#193b7e;}.cls-77{fill:#183a7e;}.cls-78{fill:#1c3f84;}.cls-79{fill:#eff1f4;}.cls-80{fill:#888a8a;}.cls-81{fill:#7d8788;}.cls-82{fill:#767779;}.cls-83{fill:#788283;}.cls-84{fill:#757575;}.cls-85{fill:#25558a;}.cls-86{fill:#4bc1b1;}.cls-87{fill:#5980e4;}.cls-88{fill:#404040;}</style></defs><path class="cls-1" d="M87.94,281c0,2.58-.06,5.16,0,7.74,0,1.08-.21,1.3-1.28,1.28-4.71-.08-9.43,0-14.15,0H0V10c1.15.13,1.09,1.07,1.17,1.86.09,1,0,2,0,3V118.06c0,1.41,0,2.83.05,4.23a12.18,12.18,0,0,1,.31,2c4.38-3.18,7.6-7.46,11.83-10.6,1-.72,2.08-2.08,3.11,0a3.22,3.22,0,0,1,.14.74c.12,14.25.23,28.51-.06,42.76-.12,1.78-1.34,3-2.36,4.25-3.91,4.9-7.75,9.86-11.76,14.68a8,8,0,0,0-1,1.77,7.35,7.35,0,0,0-.25,2.72v98a8.9,8.9,0,0,0,.18,2.47c.12.41.21.82.29,1.23a8.43,8.43,0,0,0,5.8,6.25,10.84,10.84,0,0,0,2.48.12H77.93a8.8,8.8,0,0,0,2.46-.16,9.2,9.2,0,0,0,6-5.83,5.16,5.16,0,0,1,.88-1.77A.48.48,0,0,1,87.94,281Z"/><path class="cls-1" d="M87.94,71.4V83.88a1,1,0,0,1-.59.27c-1-.15-2,.33-3-.13a2.9,2.9,0,0,1-.34-.36c-.71-.82-.38-2.32-1.45-2.77S80.86,81.69,80,82c-1.9.69-2.59-1-3.74-1.81-.86-.14-1.08.61-1.48,1.09s-.67,1.32-1.26,1.47c-3.8,1-3.54,4.2-4,7a19.63,19.63,0,0,0-.23,3.67c-.09,1-.08,2.06-1.48,2.12C66.48,95.12,66.15,94,66,92.82c1.2-4.88,2.63-9.71,3.11-14.75.19-2,0-4,.48-5.92a11,11,0,0,1,1.84-4.29,4.42,4.42,0,0,1,4.28-1.66,43,43,0,0,1,7.53,2.2c1.35.91,2.88,1.52,4.19,2.5Z"/><path class="cls-2" d="M.77,123.28a7,7,0,0,1-.23-3q0-53.61,0-107.22c0-1,.4-2.17-.47-3.09C0,7.11.1,4.2,0,1.29,0,.21.21,0,1.28,0,6.41.08,11.54,0,16.67,0Q51.44,0,86.21,0C87.69,0,88.08.29,88,1.79c-.16,2.4,0,4.82,0,7.23a.7.7,0,0,1-.86-.14c-2.68-6.53-7.85-7.69-14.31-7.6-19.76.28-39.54.1-59.31.11a28.69,28.69,0,0,0-3.71.11A8.89,8.89,0,0,0,1.9,10.06c0,1.08,0,2.16,0,3.24q0,52.49,0,105a11.74,11.74,0,0,1-.38,4.45A1,1,0,0,1,.77,123.28Z"/><path class="cls-3" d="M87.94,96.35v18a6.12,6.12,0,0,1-.64.5c-.91.32-1.83.74-2.66-.18-.86-2.35.19-4.62.28-6.93.66-1.46.22-2.19-1.41-2.17-2.58,0-5.06-1.21-7.76-.19a2.63,2.63,0,0,1-3.4-1.77c.72-2.51,2.78-4.06,4.34-5.95,1.23-1.5,3.65-1.82,4.7-.93.84.72.74,1.73-.37,3.93,1.3-2.61,3.54-3.8,6.27-4.3A.74.74,0,0,1,87.94,96.35Z"/><path class="cls-4" d="M87.51,9h.43V71.4l-.55,0a4.65,4.65,0,0,1-.67-2.89c-.08-2.06,0-4.13,0-6.2,0-3-.32-3.23-3.35-2.89-.33,0-.65.1-1,.12-3.51-.31-5.59-2.32-6.59-5.61.25-.94,1.08-1.19,1.84-1.46,1.79-.66,3.39-1.76,5.16-2.38,3.25-1.12,4.6-3.22,3.94-6.61-.09-2.79-.12-5.58,0-8.36a34.54,34.54,0,0,1,0-4.07c-.07-.62,0-1.24,0-1.87-.23-5.8-.08-11.6-.08-17.4A3.17,3.17,0,0,1,87.51,9Z"/><path class="cls-5" d="M87.94,281a2,2,0,0,1-.42,0c-1-.79-.92-1.92-.92-3,0-19.38-.17-38.76.09-58.13a39.45,39.45,0,0,1,0-4.74c-.23-2.16.15-4.31,0-6.47s-.1-4.53,0-6.79a64.23,64.23,0,0,1,.14-7.34,2,2,0,0,1,.35-.77.53.53,0,0,1,.75-.12Z"/><path class="cls-6" d="M87.48,114.3h.46v28.45a1.39,1.39,0,0,1-.78.32A1.2,1.2,0,0,1,86,141.94a48.79,48.79,0,0,0,.62-11.39c-.1-4.21,0-8.41,0-12.62A4.48,4.48,0,0,1,87.48,114.3Z"/><path class="cls-7" d="M87.42,142.77h.52V170.2l-.44.11a1.63,1.63,0,0,1-.56-.71c-.57-3.31-.23-6.65-.25-10-.08-3-.16-5.92,0-8.88C86.82,148.07,85.94,145.31,87.42,142.77Z"/><path class="cls-8" d="M87.58,170.25a.62.62,0,0,0,.36-.05v23.46l-.15,0h-.16c-1.15-.77-1-2-1-3.13q-.07-8.53,0-17.06C86.61,172.29,86.5,171.07,87.58,170.25Z"/><path class="cls-9" d="M87.94,96.35a.44.44,0,0,1-.35.09,1.44,1.44,0,0,1-.62-.69c-.63-3.44-.31-6.9-.23-10.36a2,2,0,0,1,.72-1.53l.48,0Z"/><path class="cls-10" d="M1.12,283l-.19-1a8,8,0,0,1-.14-2.48q0-50.18,0-100.35A5.36,5.36,0,0,1,1,176.69l1.18-1.06a6.3,6.3,0,0,1,3.56-.8q14.58,0,29.16,0a6.68,6.68,0,0,1,3.15.49c1.18.93.94,2.21.81,3.46A3.54,3.54,0,0,1,37.63,181c-2,.6-4.43.4-5.73,2.62-.58,1.67.53,2.5,1.7,3.11a12.68,12.68,0,0,0,7.6,1.57,32.55,32.55,0,0,1,4.41-.29c2.63.49,2.89.8,1.91,3.22C41.7,205.58,35.89,220,28.74,233.76a29,29,0,0,1-4,5.66c-2.55,3-2.19,4.63,1.37,6.17.45.19.93.32,1.41.47,1.18.55,3,.17,3.16,2.2-.47,1.42-1.79,1.89-2.91,2.54-4.58,2.69-9,5.58-12.5,9.67-5.45,6-5.26,11.55.45,16.27a33.59,33.59,0,0,0,6.56,3.92,6.29,6.29,0,0,1,1.91,1.11c.65.7.08,1-.48,1.26a10.94,10.94,0,0,1-3.69.28c-5-.12-9.9.17-14.84.49A5.37,5.37,0,0,1,1.12,283Z"/><path class="cls-11" d="M1.12,283l23.25-.51a3.15,3.15,0,0,1,2.78-.66c7.27.58,13.28-2.27,18.71-6.79a8.93,8.93,0,0,1,3.25-2.17c1.21.11,1.2,1.22,1.57,2,1.64,3.41,4.91,3.92,7.29,1,3-3.77,4-8.47,5.47-13,2.72-8.52,5.33-17.09,9.06-25.24,2.85-5,5.71-9.94,9.7-14.12,1.08-.9,2.1-1.86,3.11-2.83.57-.54,1.07-1.34,2.08-1L87.45,278c0,1,0,2,.07,3a10.9,10.9,0,0,1-6,8.05,5,5,0,0,1-2,.16H8.69A4.53,4.53,0,0,1,6.5,289,10,10,0,0,1,1.12,283Z"/><path class="cls-11" d="M38.23,175.71l-36-.08L16,158.18c1.12-2.12,2.83-3.81,4.15-5.79,5.57-6.67,11.17-13.32,16.34-20.32,8.06-9,15.66-18.46,23.33-27.84.92-1.12,1.7-2.51,3.41-2.64a1.31,1.31,0,0,1,.82.71c.13,1.66,1.52,2.92,1.51,4.63a44.89,44.89,0,0,0-2.88,12.75c-.24,2.17-1.45,4-2.35,6a120.91,120.91,0,0,1-7.06,13.06A3.1,3.1,0,0,1,52.08,140c-1.19.37-1.91-.79-2.95-.89-2.2.48-3.15,2.23-4.09,4a22.66,22.66,0,0,0-2.12,6.34,6.38,6.38,0,0,1-.24,1.07c-.41,1.58-.6,3.21-.94,4.81a16.82,16.82,0,0,0-.78,5,19.49,19.49,0,0,1-.48,2.85,68.39,68.39,0,0,0-1,9C39.43,173.46,39.41,174.79,38.23,175.71Z"/><path class="cls-12" d="M20.39,152.73A16.09,16.09,0,0,1,16,158.18l-.12-45.36c-.2-2.12,1.32-3.09,2.76-4a1.14,1.14,0,0,1,1.81.64,5.7,5.7,0,0,1,.31,2.2c-.3,12.44.81,24.86.52,37.29A6.68,6.68,0,0,1,20.39,152.73Z"/><path class="cls-13" d="M19.9,108.74a8.92,8.92,0,0,0-4,4.08c-4.42,3.05-8.12,6.94-12,10.6-.83.78-1.65,1.58-2.63,2.52-.62-.92-.27-1.85-.44-2.66l.2,0c2.6-4,6.58-6.7,10-9.89,4.65-4.34,9.39-8.6,14.07-12.91,5.41-5,10.78-10,16.61-14.51.88-.68,1.7-1.68,3.06-1.19.36,1.78-1.13,2.48-2.12,3.3-2.11,1.75-4,3.69-5.94,5.63-5,4.74-10.31,9.13-15.09,14.1A2.41,2.41,0,0,1,19.9,108.74Z"/><path class="cls-14" d="M1,176.69c-.06,1-.18,2-.18,3q0,49.53,0,99.08c0,1.07.07,2.15.11,3.23-.66-.8-.39-1.76-.39-2.64q0-50,0-100C.54,178.41.24,177.45,1,176.69Z"/><path class="cls-14" d="M6.5,289l75,.05c-.79.69-1.75.41-2.63.41q-34.86,0-69.74,0C8.22,289.46,7.26,289.76,6.5,289Z"/><path class="cls-15" d="M36.29,93.39c1.74-2.52,4.24-4.25,6.43-6.3a25.09,25.09,0,0,0,1.91-2.2c.91-3,3.2-4.59,6-5.53a3,3,0,0,1,3,.81,9.37,9.37,0,0,0,2.1,1.66c.78.54,1.72.77,2.48,1.34,1.08,2.11,3,3.44,4.82,5.39a5.41,5.41,0,0,0-3.06-4c-.72-.33-1.62-.63-1.31-1.78,2.09-2.68,4.77-2.44,7.58-1.54,1.16,2.19.75,4.47.21,6.7A8.56,8.56,0,0,0,66.48,93l1.15,2.37c-.48,2.88-2.66,4.56-4.56,6.43-4.45,4.22-7.84,9.35-11.84,14-4.81,5.55-9.18,11.48-14.43,16.64-1.07-1.08-.86-2.47-.86-3.77,0-6.65,0-13.3,0-19.95a76.68,76.68,0,0,0-.38-9.7C35.29,97.07,35.14,95.12,36.29,93.39Z"/><path class="cls-16" d="M76.51,79.4c2.14,2.72,2.19,2.78,5.06.75,1.33-.94,1.86-.52,2.2.82l.75,2.85c.7,3.43-.11,6.67-1.18,9.88a1.22,1.22,0,0,1-.69.44c-1.21,0-2.42-.12-3.64-.07-1.28-.11-2.08.81-3,1.42-2.18,1.4-4.15,1.44-6.06.12.69-5.06,1.52-10.08,4.74-14.3C75.2,80.6,75.6,79.75,76.51,79.4Z"/><path class="cls-16" d="M82.13,59c1.36-.88,2.9-.42,4.36-.59,1.24-.15,1,.87,1,1.53,0,2.82,0,5.64,0,8.47-1.21,1.09-2.66.59-4,.62L75.71,66.8a2.27,2.27,0,0,1-1.21-1.93c.61-3.3,1.34-4.08,4.42-4.68A9.91,9.91,0,0,0,82.13,59Z"/><path class="cls-17" d="M82.45,93.85l.36,0c1.29,1.25,3.2,1.34,4.56,2.45l.22.17a8.4,8.4,0,0,1-.28.91c-3.67-.59-4.77,2.58-6.68,4.56a1.38,1.38,0,0,1-1.1.44c.41-.83.85-1.66,1.23-2.51s1.32-2,.33-2.68a2.59,2.59,0,0,0-3.42.34c-1.42,1.5-2.73,3.11-4,4.71-.37.45-.64,1-1.24,1.15a.38.38,0,0,1-.52-.27,4.51,4.51,0,0,1,.77-2.3c.37-.79,1.07-1.7.06-2.41s-1.91-.07-2.61.67A49,49,0,0,0,67,102.87a6.48,6.48,0,0,1-1.26,1.5c-1.51.28-1.44-1.25-2.13-1.91l-.56-.69c1.06-2.47,3.2-4.18,4.56-6.43,1.18-.2.92-1.13,1-1.91.1-1.36-.4-2.77.37-4.07,1.47,1.82.67,4,1.06,6,2.39.85,4.61.75,6.47-1.21A2.57,2.57,0,0,1,79,93.5,3.71,3.71,0,0,0,82.45,93.85Z"/><path class="cls-18" d="M66.48,93a2.6,2.6,0,0,1-1.32-3.39c1.15-2.65.8-5.38.9-8.09a2.12,2.12,0,0,1-.32-.66A16.67,16.67,0,0,1,66,78.29a4.54,4.54,0,0,1,.23-1c1.11-3.25,1.11-3.25-2-4.24-.37-1.3.68-1.14,1.36-1.3s1.33,0,1.25-1c.74-2.12-.36-3.27-2.11-4.07-.58-.26-1.31-.25-1.72-.86A10.78,10.78,0,0,1,63.91,62c.59-.46,1.13-.14,1.53.24a32.23,32.23,0,0,0,6.22,4.67.83.83,0,0,1,.43,1c-2.51,3.45-1.93,7.58-2.41,11.43A62.06,62.06,0,0,1,66.48,93Z"/><path class="cls-19" d="M87.37,96.27c-1.68-.53-4,.16-4.56-2.45l1.71-10c1,0,2-1.06,2.94,0Z"/><path class="cls-20" d="M72.09,67.92a33.93,33.93,0,0,1-7.93-6,1.1,1.1,0,0,1-.32-1.33c.66-.89,1.84-1,2.6-1.77a1.4,1.4,0,0,1,.7-.08C69.59,61,72.35,62.89,75,64.91c.23.63.46,1.26.7,1.89A4,4,0,0,0,72.09,67.92Z"/><path class="cls-21" d="M70,95.4c-1.83-1.75-.58-4.05-1.06-6,.2-1.45.39-2.91.63-4.36s.8-2.35,2.37-2.21c1.13.09,1.49-.7,2-1.46s.93-2.3,2.53-1.93c-3,4.53-5.42,9.29-5.54,14.92C71,94.85,70.47,95.15,70,95.4Z"/><path class="cls-22" d="M83.37,69.05c1.19-1.19,2.68-.45,4-.62,0,1,0,2,0,2.94A18.51,18.51,0,0,1,83.37,69.05Z"/><path class="cls-11" d="M55.67,82.43a6.3,6.3,0,0,1-1.29-.67c-3-2.54-4-2.56-6.84.09-1,1-1.94,2-2.91,3-4.31,2.34-7.86,5.7-11.45,9-10.53,9.55-20.93,19.23-31.39,28.86a6.45,6.45,0,0,1-.82.54c0-.83-.11-1.65-.11-2.48C.86,84.51,1,48.25.77,12,.73,4.81,5.6.41,12.29.49c21.35.27,42.7.1,64.06.1C82.64.59,85.77,3,87.51,9q-.06,10.23-.13,20.46c-.78.81-1.88,1-2.84,1.43a6.83,6.83,0,0,0-3.61,3.54A12.13,12.13,0,0,1,76.22,40c-2,1.28-3.24,3.5-5.68,4.11-2.1-2.11-3.35-4.83-5-7.27A6.51,6.51,0,0,0,62,33.8c-5.12-4-8.32-4-13.06-.14-3.29,2.69-3.84,6-1.62,9.71a10.9,10.9,0,0,1,1.33,2.38c0,1.39.18,2.4,2,2.54a2.92,2.92,0,0,1,2.28,2.32c-.89,3.64,1,6,4.8,6.15,1.13,0,2.32-.22,3.36.48.6,1,0,1.78-.45,2.52a15.63,15.63,0,0,1-4,4.72c-5.23,3.69-7,10.68-1.11,16.16C55.89,81.22,56.17,81.8,55.67,82.43Z"/><path class="cls-23" d="M85.49,107.35c-.18,2.49-.35,5-.53,7.47.19.39,0,.65-.27.9a10.71,10.71,0,0,0-3.46,2.51,41.22,41.22,0,0,0-6.85,8.17c-.57.89-1,1.94-2.28,2.13a7.26,7.26,0,0,0-4,1c-1.57.73-3.2,1.34-4.78,2.08-.51.23-1.14.56-1.62.09s-.15-1.26.23-1.79c1.76-2.51,3.81-4.81,5.46-7.41.67-1.06,1.29-1.94-.29-2.81-1-.53-.45-1.27.07-1.86a13.16,13.16,0,0,1,1.92-1.57c3-2.24,5.94-4.49,7.73-7.9C79.63,107.53,82.42,106.23,85.49,107.35Z"/><path class="cls-24" d="M84.49,115.33l.47-.51,2.52-.52-.06,3.47c-1,4.59-3.52,8.51-5.52,12.64-1.47,3-2.88,6.11-4.42,9.11a5.51,5.51,0,0,1-5.36-.64.65.65,0,0,1-.07-.72,7.68,7.68,0,0,0,3.87-4.53c2.13-5.36,4.58-10.59,6.93-15.86A13.18,13.18,0,0,1,84.49,115.33Z"/><path class="cls-25" d="M85.49,107.35a70.36,70.36,0,0,0-9,1.54c-3.39,1.51-9,.44-11.35-2.17-.46-1.44-1.86-2.54-1.53-4.26,1.15.08,1.14,1.4,2,1.84,1.31-.51,2.63.62,3.94,0a4.85,4.85,0,0,0,1.38-.79c.39-.2.76-.49,1.19-.11a.31.31,0,0,0,.31,0c.88,1.18,2.32,1.87,3.44,1.34,3.06-1.45,5.89.47,8.83.18.63-.06,1.43-.06,1.73.63C86.76,106.36,86,106.84,85.49,107.35Z"/><path class="cls-26" d="M78.67,101.45c-.21,1-.5,2-1.55,2.08-.65.09-.68-.56-.65-1a1.91,1.91,0,0,1,1.52-2C78.69,100.4,78.52,101.15,78.67,101.45Z"/><path class="cls-27" d="M83.48,103.61c-.66-.2-.61-.72-.5-1.19.18-.76.59-1.45,1.44-1.45s.57.69.49,1.13A1.81,1.81,0,0,1,83.48,103.61Z"/><path class="cls-24" d="M67.09,58.94l-.52.05a3.77,3.77,0,0,1-.33-6,8.82,8.82,0,0,1,4-2.32,54,54,0,0,0,16-7,1.21,1.21,0,0,1,1.11.26c.74,3.2-.23,5.29-3.52,6.42A84.82,84.82,0,0,0,76,53.92a1.22,1.22,0,0,1-1.07.86c-2.32-.33-4.53-.16-6.36,1.57C67.8,57.05,67.91,58.27,67.09,58.94Z"/><path class="cls-28" d="M87.37,43.94l-1.09.12a30.94,30.94,0,0,1-8.91-.17c-1.8-2-.3-3.58.72-5a13.33,13.33,0,0,1,6-4.19c1.12-.18,2.26-.62,3.28.27C87.38,38,87.38,40.94,87.37,43.94Z"/><path class="cls-29" d="M84.38,34.92c-1.24.8-2.46,1.61-3.7,2.42A7.45,7.45,0,0,0,77,43.41a6.93,6.93,0,0,1-6.69,2.41,1.41,1.41,0,0,1,.29-1.89c2.26-1.89,4.54-3.75,6.79-5.66A9,9,0,0,0,80,34.75a8.1,8.1,0,0,1,7.35-5.27V31C86.21,32.16,85.55,33.74,84.38,34.92Z"/><path class="cls-30" d="M75.05,54.5l1-.58c1.49,2.38,3.07,4.63,6.13,5.1a2.58,2.58,0,0,1-2.64,1.79c-2.94-.16-4,1.59-4.48,4.1a15.56,15.56,0,0,1-7.92-6c.12-1.08,0-2.23.94-3,1.34-.16,1.63,1.14,2.39,1.77a13.53,13.53,0,0,0,2.4,2.07,2.61,2.61,0,0,0,3-.55c1-.78.36-1.6,0-2.41S74.75,55.42,75.05,54.5Z"/><path class="cls-31" d="M87,53.66c-.06,1.55-.37,2.33-1.47,2.15a2,2,0,0,1-1.67-2.14c0-.84.25-1.58,1.2-1.52C86.29,52.24,87.06,52.92,87,53.66Z"/><path class="cls-32" d="M84.38,34.92c.25-1.9.93-3.45,3-3.94v4C86.38,34.77,85.37,35.38,84.38,34.92Z"/><path class="cls-33" d="M78.91,55.16c0-.82.23-1.55,1.15-1.56,1.26,0,1.9.76,2,2,0,.89-.35,1.42-1.27,1.4A1.75,1.75,0,0,1,78.91,55.16Z"/><path class="cls-34" d="M73.08,237.57c-4.68,11.09-7.93,22.69-11.89,34a14.3,14.3,0,0,1-2.72,4.72c-1.24,1.44-2.67,2.56-4.73,2a4.94,4.94,0,0,1-4-4,9.09,9.09,0,0,0-.49-1.38,2.49,2.49,0,0,1-1.07-1.64,26.06,26.06,0,0,0-1.52-6.91,3.51,3.51,0,0,1-.24-2.39c1.32-1.86,1.86-4.07,2.58-6.17C54.7,239.4,60.48,223,66.17,206.49Q72.55,188,79,169.57a5.78,5.78,0,0,1,1.71-3c3-.26,4.85,1.56,6.65,3.53l.22.12c-.19,7.79-.28,15.58,0,23.36l-.21.06c-.55.55-.6,1.34-1,2a4.5,4.5,0,0,0,1,6l0,7c-.76,2.86-2.56,5.17-4.13,7.59a2.87,2.87,0,0,1-.82.69c-3.39.53-3.76,3.38-4.49,5.95A127.38,127.38,0,0,1,73.08,237.57Z"/><path class="cls-35" d="M82.48,216.6l.5-.46a4.41,4.41,0,0,1,4.39-.92c0,1.48,0,3,0,4.45-1.71,1.23-2.74,3.29-4.85,4A5.82,5.82,0,0,1,79.17,225c-1,0-1.76-.34-1.88-1.48C79,221.14,80.08,218.38,82.48,216.6Z"/><path class="cls-36" d="M87.37,215.22c-1.46.31-2.84,1-4.39.92a56.29,56.29,0,0,1,4.42-7.44Z"/><path class="cls-37" d="M87.45,201.67A2.59,2.59,0,0,1,85,198.81c.15-1.93.14-4.11,2.38-5.14Z"/><path class="cls-38" d="M72,138.37a11.88,11.88,0,0,0,5.52.91c1.83-.41,3.36.67,5,1,1.3.7,2.87.85,4,2l.94.5q0,4,0,7.95c-.8.65-1.58.2-2.3-.13a47.3,47.3,0,0,0-18.59-4.12,3.33,3.33,0,0,1-1.87-.5c-1.15-2.75-.26-5.07,2.74-7.14C68.86,138.39,70.27,137,72,138.37Z"/><path class="cls-34" d="M82.48,140.8a15.49,15.49,0,0,1-5-1.52,4.1,4.1,0,0,1,.31-2.18q4.83-9.66,9.63-19.33l-.06,13.16a27.08,27.08,0,0,1-3,8C83.92,139.76,83.49,140.59,82.48,140.8Z"/><path class="cls-24" d="M82.48,140.8c2.24-3,3-6.69,4.88-9.87.06,3.81.63,7.65-.88,11.34A6.86,6.86,0,0,1,82.48,140.8Z"/><path class="cls-39" d="M87.36,170.13c-2.18-1-4-2.71-6.36-3.39-2.15-.29-4-1.59-6-2.15a18.62,18.62,0,0,0-4.21-1.92,51.31,51.31,0,0,0-6.89-1.8,9.1,9.1,0,0,1-2.1-.64c-3.21-1.36-3.9-3.24-2.58-6.95a4.7,4.7,0,0,1,3-2.1c4.14-.49,7.93,1.15,11.76,2.26a66.07,66.07,0,0,1,11.84,4.85,2.75,2.75,0,0,1,1.6,1.45C87.36,163.2,87.36,166.67,87.36,170.13Z"/><path class="cls-40" d="M87.37,159.74c-7-3.33-14.1-6.27-21.73-7.72-1.2-.23-2.44-.24-3.66-.35q-1.86-5,2.68-5.93a49.73,49.73,0,0,1,22.71,5Z"/><path class="cls-15" d="M64,160.27a28.32,28.32,0,0,1,7,1.89c-3.16,5.86-5.32,12.16-7.87,18.28-6.23,14.95-12.32,30-18.52,44.92-.35.84-.7,1.69-1,2.55-1.21,3.3-.13,5.84,3,7.4,1.51.74,1.7-.45,2-1.33q2.7-7.24,5.35-14.5c6.21-17,12.31-34.06,18.73-51,.58-1.52,1-3.19,2.33-4.31A12,12,0,0,1,81,166.74c-3.65,8.09-5.93,16.68-8.88,25-7.84,22.16-15.48,44.39-23.3,66.56-.45,1.27.25,3.43-2.1,3.7a1.4,1.4,0,0,1-1.39-.88c-.23-.53-.35-1.09-.6-1.61a17,17,0,0,0-6.63-8.38,7.34,7.34,0,0,0-4.6-1.38,3.81,3.81,0,0,0-2.29-.8,1,1,0,0,1-.81-.48c-.13-2.13-2.26-.83-3.07-1.8,3.71-8.06,6.8-16.38,10.25-24.55,8.32-19.72,16.38-39.55,24.64-59.3C62.63,161.85,63,160.79,64,160.27Z"/><path class="cls-34" d="M64,160.27q-16.28,39.16-32.54,78.35c-.82,2-1.5,4-2.25,6.06-.35.95-.69,1.91-1.91,2a9.77,9.77,0,0,1-3.22-1.23c-2.39-1.53-2.87-3.59-.84-5.56,4.31-4.16,6.55-9.52,9-14.75,5.29-11.24,10-22.76,14.72-34.23.63-1.53.82-2.49-1.28-2.39-1.29-.13-1.59-1-1.51-2.1a118.16,118.16,0,0,1,1.86-15.23,3,3,0,0,1,2.37-2.54c1.27-.24,2.76.75,3.81-.7.57-.71,1-1.6,1.92-1.94,1.1.08,2.28.48,2.87-1a2.46,2.46,0,0,0-.7-2.87c-1.29-1.31-2,.17-3,.53a3.78,3.78,0,0,1-4-1.74,5.19,5.19,0,0,1,.45-3.36,71.81,71.81,0,0,1,5.13-11.21c1.28-.57,1.83.49,2.58,1.13,1.06,1.81,2.21,3.59,2.2,5.81C58.78,158.28,58.91,158.49,64,160.27Z"/><path class="cls-1" d="M30.4,248.49l.84.14c.59.46.34,1,.24,1.6-1.23,6.93,3.91,12,10.9,10.89,1.09-.18,2.2-.9,3.32-.06l1,1c.68,3.15,2.52,6.06,2,9.48-.29,1.33-1.44,1.74-2.45,2.25-7,3.56-14.1,3.53-21.29.75-4.75-1.84-8.36-4.92-10.14-9.85-.55-1.52-.89-3,0-4.54C19,254.8,24.83,251.83,30.4,248.49Z"/><path class="cls-15" d="M14.86,260.11a13.15,13.15,0,0,0,7.64,12.38c8.88,4.61,17.67,4.65,26.21-1,.66.31.56.92.58,1.49-7,6.7-14.92,10.8-24.92,9.46-3-1.71-6.26-2.77-9-5C9.17,272.17,8.9,265.73,14.86,260.11Z"/><path class="cls-41" d="M49.2,169.14c-1.69-.1-2.3.87-2.48,2.39-.58,5-1.18,9.94-1.83,14.91a1.87,1.87,0,0,0,.84,2.09c-2.94,0-5.83,1-8.82.18A14.19,14.19,0,0,1,32,186.56c-1.19-.91-1.69-2-.63-3.39,2.4.16,4.33,1.83,6.75,2,2.58.23,2.72.26,2.95-2.47-.32-4.93.62-9.75,1.44-14.57a3.31,3.31,0,0,1,.77-1.8C45.84,166,47.49,167.61,49.2,169.14Z"/><path class="cls-42" d="M43.71,166.22a75.9,75.9,0,0,0-2,17c-1.74-.35-3.47-.7-4.38-2.51l.93-1.6c1.17-2.25.81-4.75,1-7.12.13-2,.56-3.88.72-5.84a2.24,2.24,0,0,1,1.48-2.09C42.65,164.26,43.76,164.61,43.71,166.22Z"/><path class="cls-43" d="M37.3,180.7c1.41.92,3.16,1.25,4.38,2.51.88,2.77-.69,3.17-2.88,2.84a16.48,16.48,0,0,1-7.46-2.88A5.38,5.38,0,0,1,37.3,180.7Z"/><path class="cls-44" d="M41.76,164.18c-1.31.57-1.21,1.89-1.42,2.93a37.51,37.51,0,0,0-.72,10,1.8,1.8,0,0,1-1.39,2v-3.39c.9-4.29.57-8.73,1.62-13C40.9,162.65,41.66,163,41.76,164.18Z"/><path class="cls-45" d="M77.57,223.1c-.15,1.69,1.09,1.25,1.93,1.18a25,25,0,0,0,3-.58,128,128,0,0,0-9.46,13.87c1-5.14,2.78-10,4.38-15,.17.08.25.19.22.31S77.62,223.1,77.57,223.1Z"/><path class="cls-1" d="M36.29,93.39c.56,11.83.27,23.67.41,35.5,0,1.16.06,2.32.1,3.48-1.9,3.52-4.75,6.31-7.18,9.43a106.9,106.9,0,0,1-9.23,10.93q-.16-20.39-.34-40.77c0-1.07-.1-2.14-.15-3.21A188.75,188.75,0,0,1,36.29,93.39Z"/><path class="cls-1" d="M57.15,147.77l-2-1.52c-.89-.13-1.36-.81-1.88-1.43-.6-1-1.62-1.74-2-2.88a2.05,2.05,0,0,1,.42-2.14,114.63,114.63,0,0,0,10-18.76,9.29,9.29,0,0,0,.67-3.64,23.62,23.62,0,0,1,2.85-10.68,22.46,22.46,0,0,0,11.35,2.17,3.19,3.19,0,0,1-1.15,2.84c-2.54,2.71-5.67,4.71-8.49,7.07.33.78,1,.71,1.5.83,1.24.29,1.13.77.55,1.7-2.13,3.44-4.73,6.53-7.63,10.4,3.38-1.44,6.09-2.57,8.78-3.75.8-.34,1.55-.75,2,.39.67,1.45-.5,2.24-1.14,3.22-3.66,4.32-6.88,9-10.54,13.33C59.48,146,58.68,147.34,57.15,147.77Z"/><path class="cls-24" d="M51.66,139.8l.06,2.46c-2,3.66-4.64,7-6.17,10.91-.32.82-.5,1.78-1.45,2.2-2.13-1.15-1.51-3.32-1.89-5.13l.13-1c1.36-1.6,1.88-3.66,2.92-5.44s2.14-3.93,3.9-5.38C50.4,138.14,50.81,139.37,51.66,139.8Z"/><path class="cls-46" d="M42.21,150.24c1.29,1.43.65,3.6,1.93,5,1.21.5,1.54,1.82,2.42,2.63.84,1.15,2.2,1.73,3.09,2.84a6.17,6.17,0,0,0,4,1.44A2.41,2.41,0,0,1,54,165a1,1,0,0,1-.78.54c-5.27.29-11.47-5-12-10.25A13,13,0,0,1,42.21,150.24Z"/><path class="cls-47" d="M41.23,155.24c2,6.07,6.77,8.59,12.48,9.95.72,0,.77.4.48.95l-1.38,2.18a21.29,21.29,0,0,1-12.56-8.1A9.22,9.22,0,0,1,41.23,155.24Z"/><path class="cls-46" d="M40.25,160.22c3.22,1.82,5.36,5.16,9.07,6.36,1.19.39,2.62.57,3.49,1.74-.86,1.79-2.23,1.33-3.61.82a18.48,18.48,0,0,1-5.49-2.92l-2-2-1.92-1.47C40,161.88,40.11,161.05,40.25,160.22Z"/><path class="cls-48" d="M49.16,138.4c-1.75,3.45-4.11,6.56-5.6,10.16a1.16,1.16,0,0,1-1.22.66,19.44,19.44,0,0,1,3-8.06C46.24,139.78,47.22,138.37,49.16,138.4Z"/><path class="cls-49" d="M55.67,82.43l-.57-1.49c-1-2.3-1.6-4.65-.84-7.16,1.44-1.23,1.33.54,1.91,1,.28.72,1,1.11,1.37,1.76a5.28,5.28,0,0,0,5.51,3.65c1,0,2.15-.22,3,.65v.65c-2.7-.27-5.42-.65-7.38,1.91a.53.53,0,0,1-.6.1A3,3,0,0,1,55.67,82.43Z"/><path class="cls-50" d="M58.08,83.5l.6-.1c3.87,1.49,4.82,2.67,5,6.75-2.11-2.09-4-3.91-5.78-5.77C57.83,84.26,58,83.8,58.08,83.5Z"/><path class="cls-51" d="M76.51,88c-.6.8,0,2.58-1.69,2.77-.89.1-.91-1-.71-1.53.39-1.09-.08-2.79,1.45-3.11C76.44,85.91,76.49,87,76.51,88Z"/><path class="cls-52" d="M82.45,93.85c-1,1.15-3.21,1.16-3.8,0,0,0,.2-.22.31-.34C80.15,93.35,81.37,92.91,82.45,93.85Z"/><path class="cls-53" d="M82.91,86.85c-.25.63-.29,1.58-1.11,1.7s-.78-.69-.74-1.24c.06-.72.17-1.62,1-1.73C82.76,85.49,82.9,86.2,82.91,86.85Z"/><path class="cls-54" d="M84.51,64.83c-.07.4,0,1.08-.76.81a2.54,2.54,0,0,1-1.62-2.23.61.61,0,0,1,.74-.72A2,2,0,0,1,84.51,64.83Z"/><path class="cls-55" d="M72.09,103.36l-1,.51c-.53-.38-.32-1.11-.64-1.63-.91.8,0,1.77-.48,2.53a4.49,4.49,0,0,1-4.35-.47c1-2.5,2.86-4.39,4.64-6.3a2.32,2.32,0,0,1,3.34-.2c1,.84.51,1.94-.09,2.92S72.55,102.48,72.09,103.36Z"/><path class="cls-15" d="M54.77,73.41c-.46,2.54.55,5,.33,7.53-5.41-4.71-5.28-12.09.36-16.4a17.89,17.89,0,0,0,5.6-7.09c.49-.32.86-.05,1.22.24.6.92,1.57,1.59,1.81,2.75,0,.49,0,1,.07,1.47-.16,1.37.18,2.9-1.21,3.9-1.12,1.15-2.86,1-4.07,2C56.55,69,55.53,71.1,54.77,73.41Z"/><path class="cls-56" d="M58.58,67.34A6.47,6.47,0,0,1,63,65.81a5.14,5.14,0,0,1,3.78,1.39c1.28,1.28,1.6,2.35.36,3.74-2.38,1.13-4.78,2.12-7.51,1.62C58.6,71,58.78,69.11,58.58,67.34Z"/><path class="cls-57" d="M66.06,80.84c-2.45-.17-5,.73-7.26-1.12-1.06-.89-1.88-1.8-1.64-3.3-.17-1.48.9-1.67,2-1.88,2.62,1,4.77,3,7.45,3.88A3.49,3.49,0,0,1,66.06,80.84Z"/><path class="cls-56" d="M66.56,78.42c-3.2.34-5.05-2.16-7.44-3.54,1.1-2,2.61-2.6,4.95-2,4.63.12,4.63.12,2.74,4.61A7.36,7.36,0,0,0,66.56,78.42Z"/><path class="cls-58" d="M64.07,72.86a8.73,8.73,0,0,0-4.95,2,3.61,3.61,0,0,0-2,1.54c-.76.16-1.11-.35-1.45-.88a5.22,5.22,0,0,1,4-3,41.51,41.51,0,0,1,7.4-1.59c.4.26,1,.4.9,1s-.63.42-1,.46C66,72.52,65,72.23,64.07,72.86Z"/><path class="cls-59" d="M64.09,60.44c-.77-.74-1.71-1.34-2-2.46-.37-.78-1.15-1.39-1-2.39.19-2.23,1.92-3.58,3-5.33A5.87,5.87,0,0,1,65.72,49c1-.68,1.75-1.69,2.73-2.4.68-.35,1.23-1,2.13-.74L77,43.41c3.08.25,6.24-.65,9.25.65a34.19,34.19,0,0,1-13,6.41,20.07,20.07,0,0,0-5.08,1.84c-3.16,1.82-3.58,3.47-1.67,6.68C66.41,60.63,65.16,60.39,64.09,60.44Z"/><path class="cls-10" d="M48.25,45.93a36.72,36.72,0,0,1-2-3.11,7.27,7.27,0,0,1,1.86-9.37c5.15-4.47,10.23-4.47,14.1,0-.09,2.67-1.28,4.29-3.89,5.31-2.85,1.11-5.07,3.33-7.24,5.5C50.29,45,49.67,46.19,48.25,45.93Z"/><path class="cls-60" d="M48.25,45.93c2.69-2.17,4.81-5,7.86-6.74A10.93,10.93,0,0,1,58,38.06c1.89-.61,3.53-1.34,3.33-3.81,0-.24.55-.54.85-.81,1.92.19,2.89,1.1,3.85,3,1.31,2.57,3.38,4.79,4.59,7.5,0,.65,0,1.3,0,2l-2,1.07A1.71,1.71,0,0,1,68,45.68c-.07-.57,0-1.14-.09-1.71a4.92,4.92,0,0,0-1.08-1.88c-.18-.27-.35-.55-.52-.82C63.13,38.5,63,38.51,59.63,41c-1.2.89-2.26,2-3.53,2.74-2.45,1.51-3.56,3.49-2.65,6.37-.21.33-.46.56-.88.33-1.12-.93-2-2.44-3.88-1.58-.67.29-1-.4-.84-1.07S48.12,46.56,48.25,45.93Z"/><path class="cls-61" d="M68.47,43.62l.06,1.73c-.35,1.67-2.32,2.4-2.41,4.21l-1.59,1c-1.05.49-1.74,1.47-2.72,2-1.41.81-1.55,1.73-.23,2.77.16.88.33,1.76.5,2.63l-1-.53a37.87,37.87,0,0,1-4.39,0,4.86,4.86,0,0,1-4.1-7l.66-.63c.93-1.74,2.21-3,4.31-3a1,1,0,0,1,.38.94,2,2,0,0,1-.33.62c-1.1,1-.77,2.14.07,3.06s1.83.3,2.61-.33,2.34-1.3,1.81-2.89-1.85-1.32-3.11-1a1.23,1.23,0,0,1-1.36-.32,1.16,1.16,0,0,1,.45-1.3A69.46,69.46,0,0,1,64.69,41,2.69,2.69,0,0,1,67,40.89l-.05,1c-.44,1-1.5,1.18-2.27,1.76s-1.55.76-1.48,1.76a1.35,1.35,0,0,0,1.07,1.22c1,.24,1.35-.67,1.89-1.24S67,43.34,68.47,43.62Z"/><path class="cls-24" d="M70.56,131.29c.51-1,1-1.95,1.54-2.92,2.34-2.63,3.82-5.93,6.41-8.36.78-.72,1.61-1.38,2.41-2.07.61.58.31,1.24.08,1.84a187.17,187.17,0,0,1-7.92,17.36,4.89,4.89,0,0,1-1,1.09l-.13.14c-1.57-.35-2.84.65-4.26.93-.82-2,.62-3.41,1.22-5A13.51,13.51,0,0,1,70.56,131.29Z"/><path class="cls-62" d="M72.09,138.23c2.41-5.3,4.84-10.6,7.21-15.92.63-1.42,1.09-2.91,1.62-4.37.71-1.54,2.1-2.12,3.57-2.61q-4.51,10.52-9,21C74.83,137.74,73.78,138.64,72.09,138.23Z"/><path class="cls-63" d="M69.93,104.77c-.2-.53-.91-.73-.86-1.43a2.66,2.66,0,0,1,1.28-2.27,1,1,0,0,1,.88,0c.7.69-.06,1.37-.13,2.06,0,.25,0,.5,0,.74A1.24,1.24,0,0,1,69.93,104.77Z"/><path class="cls-64" d="M75.05,54.5c.43.71.92,1.38,1.29,2.12.45.91,1.91,1.8.28,2.89-1.36.91-2.83,2.08-4.46.64-1.47-1.31-2.76-2.83-4.13-4.26C70.14,54.23,72.34,53.1,75.05,54.5Z"/><path class="cls-65" d="M77.57,223.1l-.11-.52a17.14,17.14,0,0,0,.53-2.11c.36-2.65,2-3.74,4.49-3.87C80.93,218.83,80,221.52,77.57,223.1Z"/><path class="cls-66" d="M70.56,131.29l-2.86,8a6.73,6.73,0,0,0-3,6.44c-2.79,1.11-2.7,3.53-2.68,5.93l-2.28,1.6-2.55-5.5Z"/><path class="cls-67" d="M70,142c-.08.75-.44,1.22-1.23,1.24a1.16,1.16,0,0,1-1.34-1.13,1.14,1.14,0,0,1,1.31-1.36A1.27,1.27,0,0,1,70,142Z"/><path class="cls-68" d="M75.54,142.73c-.05.77-.54,1.09-1.3,1a1.09,1.09,0,0,1-1.14-1.28,1.16,1.16,0,0,1,1.32-1.13C75.19,141.4,75.54,141.91,75.54,142.73Z"/><path class="cls-69" d="M80.54,145.83c-.86-.07-1.12-.59-1.05-1.34s.42-1.11,1.07-1.08a1.22,1.22,0,0,1,1.21,1.27C81.79,145.46,81.26,145.81,80.54,145.83Z"/><path class="cls-34" d="M75.14,164.18q-4.38,11.91-8.77,23.8-8.46,23-16.88,46c-1.28,3.52-1.27,3.54-4.07,1.23-3.73-3.09-3.93-3.85-2.11-8.28q12.77-31.06,25.56-62.13c.44-1.06.5-2.58,2.2-2.65C72.52,162.63,74.13,162.81,75.14,164.18Z"/><path class="cls-70" d="M75.74,157.66c.79.13,1.3.51,1.22,1.3a1.22,1.22,0,1,1-2.44-.17A1.08,1.08,0,0,1,75.74,157.66Z"/><path class="cls-71" d="M69.76,154.81c.76.18,1.31.53,1.23,1.33a1.11,1.11,0,0,1-1.37,1.06,1.08,1.08,0,0,1-1-1.15C68.56,155.23,69.1,154.92,69.76,154.81Z"/><path class="cls-72" d="M64.14,156.08a1.13,1.13,0,0,1-1.07-1.32,1,1,0,0,1,1.1-1,1,1,0,0,1,1.1,1C65.35,155.58,64.85,155.94,64.14,156.08Z"/><path class="cls-73" d="M66.15,147.42c.69.22,1.26.64,1.23,1.37a1.23,1.23,0,0,1-1.49,1.26,1.27,1.27,0,0,1-1.11-1.43A1.4,1.4,0,0,1,66.15,147.42Z"/><path class="cls-74" d="M78,152.67a1.19,1.19,0,0,1-1.32-1.17c0-.78.5-1.18,1.24-1.22a.93.93,0,0,1,1.13,1A1.24,1.24,0,0,1,78,152.67Z"/><path class="cls-75" d="M71.72,148.23c.65,0,1.13.32,1.16,1a1.26,1.26,0,0,1-1.15,1.33c-.65.1-1-.39-1.09-1A1.13,1.13,0,0,1,71.72,148.23Z"/><path class="cls-34" d="M42.7,252.4c-1.82-5-4.46-8.07-8.92-9.26-1.39-.37-1.6-1.35-1.42-2.48a14.1,14.1,0,0,1,2.29-6A3.33,3.33,0,0,1,39,233.42c2.95,1.35,5,3.7,6.91,6.26a2.77,2.77,0,0,1,.25,2.42C45.17,245.31,44,248.48,42.7,252.4Z"/><path class="cls-34" d="M33.39,249.53a2.37,2.37,0,0,1,2.78-.25c4.23,2.32,7.77,5.28,9,10.25-1.81,2.22-4.27,1.3-6.4,1.09A7.7,7.7,0,0,1,32.11,252,2.77,2.77,0,0,1,33.39,249.53Z"/><path class="cls-76" d="M33.39,249.53c-1,3-1.29,5.89,1.24,8.25,3.1,2.9,6.75,3,10.57,1.75a1.47,1.47,0,0,1,.5,1.53,12.45,12.45,0,0,1-10.93-.82c-4.62-2.74-5.45-5.45-3.53-11.61C32.32,248.05,33.2,248,33.39,249.53Z"/><path class="cls-24" d="M49.65,160.74a5,5,0,0,1-3.42-2.53c.82-4.84,3.56-8.78,6-12.85a1.16,1.16,0,0,1,1.45-.64l1.47,1.53c-.65,3.3-2.83,5.93-3.86,9.07C50.72,157.12,49.82,158.81,49.65,160.74Z"/><path class="cls-77" d="M54.19,166.14l-.48-.95,0-3c.67-.4.24-2,1.44-1.63A3.76,3.76,0,0,1,58,163.37a3.72,3.72,0,0,1-1.47,3.51C55.48,167.77,55,166.25,54.19,166.14Z"/><path class="cls-78" d="M50.28,175.69c.1-.53-.23-1.95,1.5-2,.86,0,1.84.37,1.62,1.33s-.26,2.59-1.94,2.72C50.33,177.84,50,177.21,50.28,175.69Z"/><path class="cls-62" d="M53.7,144.72c-3,3.31-4.57,7.38-6.36,11.34-.33.74-.42,1.6-1.11,2.15a6.24,6.24,0,0,1-2.09-2.94c1.75-4.8,3.83-9.4,7.58-13A3.85,3.85,0,0,1,53.7,144.72Z"/><path class="cls-79" d="M59.69,72.53l-4,3c-.31-.71-.62-1.42-.94-2.13-.38-3.07,1.23-4.87,3.81-6.07C60.26,68.79,59.38,70.79,59.69,72.53Z"/><path class="cls-80" d="M61.58,55.35c-.89-.15-2-.34-2.12-1.29s1-1.21,1.58-1.64c1.08-.75,1.86-2.15,3.49-1.88C63.8,52.3,62.1,53.46,61.58,55.35Z"/><path class="cls-81" d="M66.12,49.56c-1.14-.89-.27-1.58.28-2.2a27,27,0,0,1,2.13-2l.06,1.6Z"/><path class="cls-82" d="M57.67,46.93c-1.75.55-2.91,2-4.45,2.91-1.59-2.28-1.11-4,1.21-5.52s4.38-3.69,6.82-5.22c1.66-1,3.09-1.44,4.27.66.29.51,1,.76,1.52,1.13C63.29,42,60.52,44.57,57.63,47Z"/><path class="cls-83" d="M68.47,43.62c-1.18.82-1.73,2.15-2.57,3.24-1.11,1.44-1.91.93-2.9-.14s-1.27-1.92.12-2.78,2.37-1.76,3.87-2A2.53,2.53,0,0,1,68.47,43.62Z"/><path class="cls-84" d="M57.63,47c.63-.18,1.27-.31,1.88-.55,1.53-.61,2.49,0,3.25,1.34s.23,2.17-.84,2.93c-.6.43-1.16.92-1.75,1.36-1.21.9-2.4,1.24-3.29-.37-.77-1.42-1.61-2.93.73-3.78.21.24.33.54.52.8a5.75,5.75,0,0,0-.52-.8l.06-1Z"/><path class="cls-85" d="M57,53.31a2,2,0,0,1-2.27,1.44c-1.46-.07-1.83-1.29-1.79-2.5,0-.94.48-2,1.65-1.7C56.07,50.87,56,52.6,57,53.31Z"/><path class="cls-86" d="M59.91,56.34a11.53,11.53,0,0,1-4.42-.08C57.18,54.4,58.14,54.42,59.91,56.34Z"/><path class="cls-87" d="M74.48,57.46c-.07,1-.53,1.47-1.42,1.45-1.32,0-1.89-.87-1.93-2.1a1.19,1.19,0,0,1,1.34-1.39C73.85,55.45,74.21,56.45,74.48,57.46Z"/><path class="cls-88" d="M57.61,47.9a.88.88,0,0,1,.22.1c.47.48,1.47.39,1.5,1.31,0,.16-.48.51-.7.48-1.09-.17-.93-1.11-1-1.89Z"/></svg>