<svg id="Layer_1" data-name="Layer 1" xmlns="http://www.w3.org/2000/svg" viewBox="0 0 73.88 244.85"><defs><style>.cls-1{fill:#050924;}.cls-2{fill:#015ffc;}.cls-3{fill:#015efb;}.cls-4{fill:#fefefe;}.cls-5{fill:#025ffc;}.cls-6{fill:#fdfdfd;}.cls-7{fill:#f8f7ea;}.cls-8{fill:#045df4;}.cls-9{fill:#c8d6e5;}.cls-10{fill:#043593;}.cls-11{fill:#efcc50;}.cls-12{fill:#2173fd;}.cls-13{fill:#fafbfd;}.cls-14{fill:#8f9c91;}.cls-15{fill:#648bb3;}.cls-16{fill:#071033;}.cls-17{fill:#f40050;}.cls-18{fill:#035cf4;}.cls-19{fill:#f20250;}.cls-20{fill:#8b043c;}.cls-21{fill:#ed014e;}.cls-22{fill:#95043e;}.cls-23{fill:#f0014f;}.cls-24{fill:#d6034c;}.cls-25{fill:#033ba1;}.cls-26{fill:#034ac8;}.cls-27{fill:#615737;}.cls-28{fill:#584f33;}.cls-29{fill:#051f5a;}.cls-30{fill:#fbfcfc;}.cls-31{fill:#161f3f;}.cls-32{fill:#c19ccb;}.cls-33{fill:#347ffc;}.cls-34{fill:#5a0a40;}.cls-35{fill:#283255;}.cls-36{fill:#630738;}.cls-37{fill:#9a9ead;}.cls-38{fill:#035cf3;}.cls-39{fill:#0259ed;}.cls-40{fill:#0b0925;}.cls-41{fill:#0457e5;}.cls-42{fill:#e5034f;}.cls-43{fill:#12112c;}.cls-44{fill:#0b0e2c;}.cls-45{fill:#0445bb;}.cls-46{fill:#0343b7;}.cls-47{fill:#0347bf;}.cls-48{fill:#0349c7;}.cls-49{fill:#024ed3;}.cls-50{fill:#033da7;}.cls-51{fill:#0350d8;}.cls-52{fill:#153472;}.cls-53{fill:#0253df;}.cls-54{fill:#043899;}.cls-55{fill:#0344b9;}.cls-56{fill:#033fac;}.cls-57{fill:#0252db;}.cls-58{fill:#034fd6;}.cls-59{fill:#05328c;}.cls-60{fill:#034ccd;}.cls-61{fill:#0245ba;}.cls-62{fill:#0443b6;}.cls-63{fill:#0440ad;}.cls-64{fill:#0249c6;}.cls-65{fill:#0344bb;}.cls-66{fill:#043ba3;}.cls-67{fill:#033086;}.cls-68{fill:#034ac9;}.cls-69{fill:#0348c2;}.cls-70{fill:#043a9f;}.cls-71{fill:#034cce;}.cls-72{fill:#0343b5;}.cls-73{fill:#024ed1;}.cls-74{fill:#0340ad;}.cls-75{fill:#0341af;}.cls-76{fill:#044ccb;}.cls-77{fill:#04389b;}.cls-78{fill:#033ea8;}.cls-79{fill:#0349c5;}.cls-80{fill:#043ca6;}.cls-81{fill:#034ed0;}.cls-82{fill:#0448c3;}.cls-83{fill:#0343b6;}.cls-84{fill:#0241b1;}.cls-85{fill:#033ba3;}.cls-86{fill:#03389b;}.cls-87{fill:#042569;}.cls-88{fill:#0344b7;}.cls-89{fill:#75145e;}.cls-90{fill:#043696;}.cls-91{fill:#04328d;}.cls-92{fill:#0247bf;}.cls-93{fill:#0241ae;}.cls-94{fill:#0345b8;}.cls-95{fill:#034bc9;}.cls-96{fill:#04389a;}.cls-97{fill:#bbbabb;}.cls-98{fill:#2e354f;}.cls-99{fill:#8c8f9c;}.cls-100{fill:#050a25;}.cls-101{fill:#334877;}.cls-102{fill:#19469b;}.cls-103{fill:#24488f;}.cls-104{fill:#2d549d;}.cls-105{fill:#1e6df2;}.cls-106{fill:#184085;}.cls-107{fill:#5d0633;}.cls-108{fill:#04266b;}.cls-109{fill:#dd014b;}.cls-110{fill:#610635;}.cls-111{fill:#42072f;}.cls-112{fill:#e0e1e6;}.cls-113{fill:#052d7e;}.cls-114{fill:#042468;}.cls-115{fill:#0343b8;}.cls-116{fill:#043694;}.cls-117{fill:#052367;}.cls-118{fill:#0348c4;}.cls-119{fill:#04389d;}.cls-120{fill:#042875;}.cls-121{fill:#042e7f;}.cls-122{fill:#05256a;}.cls-123{fill:#051f5c;}.cls-124{fill:#03266c;}.cls-125{fill:#191b31;}</style></defs><path class="cls-1" d="M0,238.9V198c1.32-1.6,3.26-.93,4.87-1.18,8.36-1.29,16.68-2.8,25-4.44,8.09-1.6,15.72-4.71,21.71-6.53-4.37,1.42-10.51,3.68-16.83,5.39-5.42,1.46-11,2.33-16.5,3.37-4.9.92-9.85,1.61-14.77,2.41-1.15.19-2.35.45-3.45-.29v-.42a2.13,2.13,0,0,1,1.08-.61,49.87,49.87,0,0,0,12.83-4.25,13.59,13.59,0,0,0-4,1,36.53,36.53,0,0,1-7.51,1.8A2.47,2.47,0,0,1,0,193.82V175.29c.87-.92,2.11-.71,3.16-.9,5-.9,9.88-1.88,14.84-2.73A10.09,10.09,0,0,0,20.9,171c.32-.07.65-.1,1-.14,1.77-.44,3.62-.52,5.37-1.08,4.42-.92,8.82-2,13.15-3.26,3.14-.9,6.33-1.54,9.43-2.55,2.63-.86,2.66-.82,2-3.49-.11-.42-.34-.81-.42-1.24-3-8.92-.09-16.55,5.06-23.7a2.35,2.35,0,0,1,.81-.65c4.5-1.79,9-3.54,13.59-5.16.94-.33,2.15-1.1,2.73.6v61.39c.05,1.84-1.21,1.5-2.32,1.41-2.72.25-4,2.27-5.18,4.32A11.82,11.82,0,0,0,65,200.36c-.22,1.59-.89,2.8-2.59,3.16-3.76,1.51-7.61,2.83-10.77,5.53a9.08,9.08,0,0,0-2.12,2.3c-.83,1.28-.82,2.9-1.67,4.17-1,3.15-2.84,6-3.79,9.14a9.36,9.36,0,0,0-.76,3.07c-.35,1.54-.21,3.2-1.16,4.58a4,4,0,0,1-2,.94C37,234,34,234.8,30.93,235.72a3.49,3.49,0,0,1-2.23.17c-1-.43-1.51-1.44-2.12-2.24a3.13,3.13,0,0,0-3.84-1.08c-2.66.8-5.23,1.83-7.83,2.75-.81.29-1.26.69-1,1.7a2.86,2.86,0,0,1-.78,3.07,46.21,46.21,0,0,1-10.34,2.65C.77,242.24.79,240.29,0,238.9Z"/><path class="cls-2" d="M0,72.5V7.2C.49,5.83.54,4.35,1.57,3.13A8.16,8.16,0,0,1,8.24.25c19,0,38,0,57,0,5.5,0,8.36,3.11,8.37,8.8q0,22.32,0,44.63c-.2.6-.69.74-1.23.82-.37,0-.75,0-1.12,0a25.88,25.88,0,0,1-3.63.05,23.25,23.25,0,0,0-2.5-.06,6,6,0,0,1-1.79-.14c-1.19-.35-2.29-.79-2.25-2.34a7.08,7.08,0,0,1,.06-1.3,6.78,6.78,0,0,0,1-4.79c.53-1.5-.41-2.46-1.44-3.13-1.25-.82-2.37.17-3.41.79s-1.88,1.66-1.22,3.12c-.48,2,1.44,3.32,1.33,5.2a1.07,1.07,0,0,1-.61,1,14.11,14.11,0,0,1-3,.79c-1.54.05-3.09.06-4.63,0-.44,0-.84.24-1.27.29a24.79,24.79,0,0,0-10,3.55c-7.22,2.53-14.56,4.76-21.55,7.93C11.74,67.62,7.23,69.8,2.73,72,1.91,72.44,1.07,73.19,0,72.5Z"/><path class="cls-3" d="M57.58,135.25c-5,6.39-8,13.35-6.09,21.71.17.75.33,1.5.5,2.25a1.88,1.88,0,0,1-1.08.94c-4.66,1.09-9.23,2.58-14,3.32a2,2,0,0,1-1.47-1.6,2.08,2.08,0,0,1,0-.61,8.51,8.51,0,0,1,.9-2.16,2.84,2.84,0,0,1,2-1.25c1,0,.61-.65.6-1.14,0-.21,0-.47-.11-.6-.67-.61-1.95-.93-1.56-2.12a5.2,5.2,0,0,1,2.36-2.5c1.1-.7,1.22-1.74.09-2.44a4.28,4.28,0,0,1-1.11-1.18c-.52-.64-1.06-1.11-1.79-.27S36,149.52,35,150.1c-.59.35-.22.84-.07,1.29s.25,1.09-.34,1.26c-1.1.32-2.14-.57-3.27-.28-1.48.39-1.72-.68-2-1.7-1.23-.71-2.3-.07-3.38.42-.07,0-.16,0-.21,0-1.58-.91-1.62-1-3.28.56-.78.72-2.15.68-2.44,2a2.23,2.23,0,0,1,3,1.63c0,1.06,1,1.53,1.42,2.37a1.31,1.31,0,0,1,0,.59,1.88,1.88,0,0,1-1,1.1c-.86.26-1.66.8-2.34-.51-.34-.66-.83.1-1.11.51-.75.4-1.05,1.39-2,1.58a1.33,1.33,0,0,1-.54-.15c-.52-.4-.81-1-1.32-1.42-1.11-.26-2.3-.81-2.87.82.21.85,1,1.86-.52,2.29-.38-.25-.66-.66-1.19-.69a2.53,2.53,0,0,1,.78.36c.7.92,1.26,0,1.88-.14,2,.05,2.4.34,2.24,2.19-.06.68-.1,1.21.55,1.57a.91.91,0,0,1,.23.52c-.14,1-1.61.84-1.71,1.91A55.85,55.85,0,0,1,3.71,170.3c-2-.34-3-1.73-3.68-3.44V112.52a1.93,1.93,0,0,1,1.3-.62c4.55.18,9-.74,13.45-1.36a1.79,1.79,0,0,1,1.38.86c1.11,1.85,2.58,1.82,4.48,1.33,8.16-2.11,16.35-4.11,24.59-5.91,3.11-.68,3.78-.47,5.55,2.27a31.2,31.2,0,0,0,8.75,9.16c1.2.69,2.1-.13,3.07-.6,1.2-.59,1.9-1.83,3.11-2.4,3.73.54,4.69,2,3.69,5.54-.44,1.52-1.54,2.66-2.29,4a19.07,19.07,0,0,1-2.58,3.15,13.12,13.12,0,0,1-1.75,1.49c-.81.54-2.2.46-2.09,2A10.41,10.41,0,0,1,59.62,133,5.85,5.85,0,0,1,57.58,135.25Z"/><path class="cls-2" d="M0,97.77V75c.68-1.27,2-1.45,3.17-1.78a124.1,124.1,0,0,1,13.86-3c2.51-.4,4.65-1.3,6-3.64a4.22,4.22,0,0,1,3.22-2.12c4.28-.47,8.55-1.1,12.85-1.31.21,0,.41.09.62.09,4,.08,4,.08,5,4,1.31,5.41,1.05,6-3.8,9.15-2.41,1.54-5,2.72-7.46,4.21-.59.36-1.21.68-1.78,1.08-2.72,1.9-2.86,3.21-.63,5.7a1.88,1.88,0,0,1,.52.89c-.83,1.66-2.49,1.93-4,2.29-3.39.79-6.77,1.64-10.2,2.2-2.34.39-3.9,1.22-4.11,3.76-.8,1-2,1.18-3.1,1.55-2.36.78-4.67,1.72-7,2.59a3.33,3.33,0,0,1-2.6.31C-.38,100,1,98.7,0,97.77Z"/><path class="cls-4" d="M68.85,121a1.8,1.8,0,0,1,0-.61c.94-2.78.74-3.26-1.9-4.32-.43-.17-.9-.25-1.36-.38-1.69.34-3.08-.44-4.47-1.21-.92-.87-.67-1.88-.4-2.92,1.29-5,4.22-8.72,9-10.63,2.66-1.07,3.51-2.65,3.1-5.27-.07-.49,0-1,0-1.47-.3-7-.1-14.1-.12-21.15,0-4-.18-8.09.13-12.14,0-1.44,0-2.88,0-4.33,0-.9-.13-1.85.53-2.63,0-15,.07-29.9,0-44.84A8.29,8.29,0,0,0,64.85.56Q36.75.45,8.68.54C4.18.55,1.53,3.17,0,7.2c0-2,.06-4.08,0-6.11C0,.18.18,0,1.08,0,5.55.07,10,0,14.5,0Q43.44,0,72.37,0c1.26,0,1.51.25,1.51,1.51q-.06,120.9,0,241.81c0,1.26-.24,1.6-1.51,1.51-1.88-.13-3.77,0-5.66,0a.47.47,0,0,1,0-.61,5.42,5.42,0,0,1,1.41-.87,8.35,8.35,0,0,0,4.63-7.79c0-1.74,0-3.48,0-5.22-.16-.82.06-1.64,0-2.46-.11-1.36,0-2.71,0-4.06-.11-.63.08-1.26,0-1.89a68.38,68.38,0,0,1,0-7.71,22,22,0,0,1,0-3.44c0-.39,0-.78,0-1.17a102.83,102.83,0,0,1,0-10.68c.19-2.11-.42-4.28.51-6.32,0-7.63.08-15.26.08-22.89q0-20.06-.07-40.11a2.72,2.72,0,0,1-.51-2,15,15,0,0,1,0-2.76,14.34,14.34,0,0,1,0-2.27,5.91,5.91,0,0,1,0-1c.12-1.27-.24-1.68-1.49-1C70.58,120.93,69.81,121.58,68.85,121Z"/><path class="cls-5" d="M73.34,223.83l.07,4.11a3,3,0,0,1-2.19,1.46c-14.63,4-29.15,8.38-44,11.43-5.33,1.09-10.5,2.91-15.91,3.7-.54.08-1.13-.13-1.61.27H6.32c-1.27-.68-3.23-.33-3.59-2.4L13,239.73a7.17,7.17,0,0,1,2.9-1.36c3.71-.92,7.33-2.16,11.06-3a2.3,2.3,0,0,1,1.63.11c2.11-.15,4-1,6-1.6,2.51-.71,5.14-1,7.57-2a3.46,3.46,0,0,1,2-1,23.75,23.75,0,0,0,2.37-.5A30.65,30.65,0,0,0,51.16,229c6.2-1.75,12.43-3.39,18.67-5C71,224.1,72.14,223.11,73.34,223.83Z"/><path class="cls-6" d="M39.44,63.6c-4.16.48-8.31,1-12.47,1.39a4.1,4.1,0,0,0-3.56,2.16c-1.3,2.38-3.4,3.27-5.92,3.69A93.66,93.66,0,0,0,0,75V72.5q7.64-3.6,15.28-7.17c7.21-3.37,14.78-5.75,22.3-8.25A4,4,0,0,1,39.44,63.6Z"/><path class="cls-4" d="M.36,100.68c2.85-.36,5.32-1.86,8-2.69,1.52-.47,3-1,4.55-1.47.69.42.7,1.14.78,1.83.46,3.71.5,7.49,1.55,11.13a1.46,1.46,0,0,1-.2,1.39c-4.9,1.57-10,1.65-15,1.65v-11.8C.12,100.53.23,100.52.36,100.68Z"/><path class="cls-7" d="M9.68,244.8A142.43,142.43,0,0,1,27,240.22c15.47-3.28,30.58-7.91,45.84-12a2.68,2.68,0,0,0,.54-.31c0,.87,0,1.73,0,2.6a3.7,3.7,0,0,1-1.81,1c-16.95,4.7-33.92,9.29-51.16,12.82a14.28,14.28,0,0,0-3.19.46Z"/><path class="cls-8" d="M18.48,172.28q-7.77,1.38-15.55,2.79a9.75,9.75,0,0,1-2.9.22v-2.11c.34-.39,1.25.06,1.15-1.12S2.5,171,3.3,170.54a72.48,72.48,0,0,1,7.61-1.18c.63.16,1.32.64,1.82-.26,1.7-.51,3.36-1.22,5.21-.89a2.55,2.55,0,0,1,.52.33C20.43,170.59,20.44,171.07,18.48,172.28Z"/><path class="cls-9" d="M11.3,169.82l-8.4,1.32c-1-.18-1.83.9-2.87.36v-1.27c1.06-.92,2.25-.73,3.45-.42a101.67,101.67,0,0,0,12.37-2.19,11,11,0,0,1,3.35-1.27,6.25,6.25,0,0,1,1-.09c1.68-.29,3.34-.71,5-1.15,1.36-.43,2.77-.64,4.14-1,2.41-.3,4.67-1.56,7.2-1.13,5.24-1,10.34-2.46,15.49-3.78a1.17,1.17,0,0,1,.32,1,2.19,2.19,0,0,1-1.67,1.12c-7.32,1.9-14.62,3.86-22,5.33-.65,0-1.25.33-1.89.39a8.9,8.9,0,0,1-1.23.32c-1.7,0-3.27.78-4.94,1a3.53,3.53,0,0,1-2.46.08l-5.5,1.15C12.21,169.94,11.75,169.83,11.3,169.82Z"/><path class="cls-10" d="M0,196.77c7.88-.52,15.59-2.12,23.33-3.55a120.7,120.7,0,0,0,18-4.44c4.07-1.42,8.16-2.78,12.26-4.13.7-.23,1.37-.75,2.33-.36-.54,1.1-1.66,1.18-2.54,1.49a186.6,186.6,0,0,1-35.31,9.35C12.44,196,6.79,197.25,1,197.71A4.61,4.61,0,0,0,0,198Z"/><path class="cls-11" d="M0,193.82a30.57,30.57,0,0,0,9.6-1.95,17.42,17.42,0,0,1,6.53-1.05A40.26,40.26,0,0,1,0,196.35Z"/><path class="cls-12" d="M17.23,244.8a6,6,0,0,1,2.93-.84c14.3-.79,28.61-.19,42.92-.35,1.28,0,2.69-.32,3.74.83,0,.12-.07.24-.11.36Z"/><path class="cls-13" d="M2.73,242.4c.85,1.33,2.52,1.41,3.59,2.4-1.81,0-3.63-.05-5.45,0-.73,0-.89-.13-.86-.86.07-1.69,0-3.37,0-5.06C1.24,239.83,1.33,241.62,2.73,242.4Z"/><path class="cls-14" d="M3.48,169.81c-1.16.06-2.25.67-3.45.42v-3.37C1.37,167.62,1.71,169.57,3.48,169.81Z"/><path class="cls-15" d="M0,171.5l2.87-.36c-.56.57-2.67.7-.56,2,.1.07.15.49.08.53a1.13,1.13,0,0,1-.72.22c-.6-.11-1-.82-1.67-.73Z"/><path class="cls-16" d="M.36,100.68l-.16.07-.17,0v-3C1.83,98.55,0,99.74.36,100.68Z"/><path class="cls-17" d="M73.31,198.89v10.9A6.13,6.13,0,0,1,70.87,212c-5.83,3.59-12.31,5.8-18.4,8.87-2.49,1.25-4.7,3-7.18,4.23-.6.3-1.73,1.42-1.69-.56.12-2.16,1.58-3.77,2.29-5.68.45-1.22,1-2.42,1.45-3.63,3.16-4.23,8-6.1,12.27-8.78,1.24-.77,2.53-1.38,3.31-2.76a3.57,3.57,0,0,1,2.14-1.58,40,40,0,0,0,6.62-3,2.48,2.48,0,0,1,1.11-.43A.74.74,0,0,1,73.31,198.89Z"/><path class="cls-18" d="M25.51,166.9l.88-.24c.7.39,1.34.5,1.78-.38l21.72-5.39c.81-.21,1.61-.44,2.42-.66.19.52.37,1.05.57,1.57.49,1.21.25,1.95-1.18,2.24a67,67,0,0,0-8,2c-3.32,1.13-6.76,1.69-10.06,2.8a59.88,59.88,0,0,1-6.3,1.41,3.45,3.45,0,0,1-2.13,0c-.74-.13-1.25-.7-1.91-1s-1.1-.63-1.2-1.35C23.11,167.13,24.39,167.25,25.51,166.9Z"/><path class="cls-19" d="M44.07,231.3a3.74,3.74,0,0,1-1.87.55,11.88,11.88,0,0,1,.57-4.35c1.54-2.5,4.22-3.54,6.54-5A95.09,95.09,0,0,1,63,216a88.38,88.38,0,0,0,9-4.84c.41-.23.76-.66,1.32-.41v3.19c-.22,1-1.11,1.38-1.9,1.8-4.81,2.55-9.76,4.8-14.59,7.31-4,2.06-8,4-11.17,7.29A10,10,0,0,1,44.07,231.3Z"/><path class="cls-20" d="M72.2,199.34A25.45,25.45,0,0,1,65,202.69c-.49.13-1.06.21-1.25.67-1,2.43-3.32,3.29-5.37,4.43a71,71,0,0,0-11.08,7.44c1.07-1.16.58-3,1.77-4.12a2.28,2.28,0,0,0,2.1-.57,90.11,90.11,0,0,1,8.57-5.07c1-.53,2.2-1,2.29-2.4,1.71-.24,2.17-1.55,2.52-3,1.73,1,3.06.51,3.69-1.52a14.19,14.19,0,0,1,3-6c.67-.77,1.32.92,2,0v6.31a2,2,0,0,1-.34-.06c-1.52-.72-.38-2.1-.76-3.08-1.07.36-1,1.46-1.58,2.28.5-.12.72-.75,1.24-.42A2.5,2.5,0,0,1,72.2,199.34Z"/><path class="cls-21" d="M62.07,203.07c1.32.39.54.94.1,1.43-1.3,1.45-3.18,1.92-4.77,2.88-2.36,1.44-4.73,2.88-7,4.42-1.09.74-1.28.34-1.27-.69,1.41-2.7,4-4,6.51-5.29A69.39,69.39,0,0,1,62.07,203.07Z"/><path class="cls-22" d="M73.32,210.74A91.43,91.43,0,0,1,57.14,219a69,69,0,0,0-14.37,8.48,5.73,5.73,0,0,1,.83-3c.11.7.51.77,1,.41,6.61-4.77,14.26-7.47,21.48-11,2.49-1.22,4.82-2.75,7.22-4.14Z"/><path class="cls-23" d="M71.32,192.56c-.75,2.45-2.26,4.58-2.73,7.2-.23,1.35-2,1.67-3.24,1.91s-.49-1-.76-1.56C65.27,196.12,68.13,192.91,71.32,192.56Z"/><path class="cls-24" d="M73.31,127.62c0,.66,0,1.31,0,2-4.51,1.67-9,3.35-13.55,5-.71.27-1.45.45-2.19.67l1.72-2.58c4-2.21,8.25-3.58,12.45-5.2A1.42,1.42,0,0,1,73.31,127.62Z"/><path class="cls-25" d="M16,238.92c-.88.65-2,.45-3,.81a2.27,2.27,0,0,0,.32-2.39c-.52-1.49.06-2.19,1.45-2.64,2.06-.66,4.06-1.49,6.12-2.17,4.72-1.55,4.87-1.48,7.7,2.93l-1.33.48c-1.6-3-3.92-3-6.65-1.71-1.18.55-2.47.89-3.7,1.38C14.71,236.52,14.63,236.82,16,238.92Z"/><path class="cls-26" d="M18.48,172.28c1.62-1.32.83-2.35-.39-3.33,1.05-.74,2.07-.31,3.09.08.86.89.57,1.69-.18,2.47A5.76,5.76,0,0,1,18.48,172.28Z"/><path class="cls-18" d="M21,171.5l.4-2.14c.66-1.19,1.32-.09,2,0a1.32,1.32,0,0,1,1.1,1c-.61,1-2,.17-2.65,1.14Z"/><path class="cls-26" d="M21.84,171.47c.44-1.21,1.84-.45,2.5-1.21.15-.37.55-.24.8-.42l2.22.44A27.44,27.44,0,0,1,21.84,171.47Z"/><path class="cls-27" d="M20.44,188.34c0,.52-.41.69-.82.76s-.93.11-.91-.48.48-.65.91-.7S20.32,187.88,20.44,188.34Z"/><path class="cls-28" d="M19.25,186.41a.65.65,0,0,1-.7.63c-.36,0-.74-.07-.72-.51s.31-.58.69-.62A.61.61,0,0,1,19.25,186.41Z"/><path class="cls-29" d="M14.33,205.83c0-.31.24-.52.52-.45a1.2,1.2,0,0,1,.93,1c.05.24-.16.32-.39.23C15,206.41,14.41,206.47,14.33,205.83Z"/><path class="cls-1" d="M39.44,63.6a5.19,5.19,0,0,0-1.83-6.51c3.19-1.85,6.45-3.49,10.25-3.57.38.44.72.54,1-.1,1.75-.44,3.54-.09,5.3-.24a8,8,0,0,0,9.22.62L65,54a2.27,2.27,0,0,0,2.45.05,9.06,9.06,0,0,1,3.81,0c.91.67,1.06,1.73,1.39,2.71a13.75,13.75,0,0,1-.09,4,3,3,0,0,1-2.44,2.34c-1.91.37-2.43,1.58-2.29,3.35.42,5.37.67,10.76,1.06,16.13a38.17,38.17,0,0,1-.16,10.24c-.7,1-1.84.81-2.84,1a19.35,19.35,0,0,1-15.09-3.25,50.57,50.57,0,0,0-7.35-4,7.14,7.14,0,0,0-6.59,0A29.43,29.43,0,0,1,33.62,88c-.71.25-1.41.67-2.2.25-3.68-2.56-3.7-4.81.08-7.15,2.78-1.73,5.71-3.22,8.53-4.89,1.2-.7,2.27-1.63,3.41-2.42,1.49-1,2.11-2.3,1.33-4.1a13.91,13.91,0,0,1-.59-2.24c-.28-1.15-.3-2.49-.93-3.4-.82-1.18-2.18.1-3.29-.12A1.63,1.63,0,0,1,39.44,63.6Z"/><path class="cls-30" d="M57.05,51.91c-.64-1.1-.62-2.51-1.72-3.42-.88-.73.62-1.05.43-1.72a1.3,1.3,0,0,1,0-1.21c1.12-2.09,3.06-1.12,4.7-1.23,1.21-.07,2.07.34,2.08,1.75,0,.13-.09.32,0,.41,1.3,1.68.08,2.84-.83,4.06a10.84,10.84,0,0,1-1,1.59C59.2,53.82,58.36,53.78,57.05,51.91Z"/><path class="cls-31" d="M62.52,46.08c-1.8-2.11-5.86-1.69-6.76.69-1.08-1.16-.57-2.16.36-3.05A10.67,10.67,0,0,1,59.38,42c1.62-.71,2,.73,2.74,1.45S63.66,45,62.52,46.08Z"/><path class="cls-32" d="M63.36,53.8l-.72.43c-4.37,2.39-4.57,2.37-8.5-1,1,.5,1.41-1.58,2.47-.48,1.49,1.07,2.83,1.18,4-.53a.71.71,0,0,1,1.07-.23C61.63,53.11,62.06,53.86,63.36,53.8Z"/><path class="cls-33" d="M61.65,51.94a9.06,9.06,0,0,0-1.15.86c-2,2.09-2,2.1-3.89-.1a.86.86,0,0,0,.44-.79c1.25,1.49,2.34,1.22,3.4-.25a7.56,7.56,0,0,1,1.21-1.11Z"/><path class="cls-34" d="M67.48,54.09c-.51.21.2,1.52-1,1.1-.59-.21-1.82.29-1.5-1.15Z"/><path class="cls-35" d="M73.34,54l0,2.5a.59.59,0,0,1-.51.23c-.44-.12-.57-.49-.67-.88,0-.55-.56-1.09,0-1.65Z"/><path class="cls-36" d="M48.84,53.42c.24.68.6,1.37-.18,2.15a4.15,4.15,0,0,1-.8-2A.92.92,0,0,1,48.84,53.42Z"/><path class="cls-37" d="M72.17,54.15l.37,1.53c-.26.22,0,.68-.4.84a5.14,5.14,0,0,1-.85-2.4Z"/><path class="cls-17" d="M31.42,88.25c2.45-1,4.91-2,7.35-3a2.9,2.9,0,0,1,2.41-.14c2.89,1.22,6,2.13,8.47,4.08,5.61,4.42,11.92,5,18.64,3.86a5.36,5.36,0,0,1,5,1.69l0,.21c.56,3.24,0,5.5-3.68,6.81-4.63,1.66-7.21,5.56-8.5,10.29a3.12,3.12,0,0,0-.17,2c.08,1.77.36,3.58-1.07,5-3-1.14-4.93-3.57-7-5.87a19.43,19.43,0,0,1-2.79-3.92c-1-2.07-2.35-2.5-4.55-2-8,2-16,3.82-24,5.77-4.1,1-4.08,1.05-6.6-2.23-1.88-4.61-1.61-9.54-2.13-14.35.35-3.48.37-3.39,3.94-4.31,4.67-1.21,9.6-1.45,14-3.64C31.07,88.48,31.24,88.36,31.42,88.25Z"/><path class="cls-38" d="M36.5,163a49.13,49.13,0,0,1-7.08,1.65,2.86,2.86,0,0,0-2.2-1.61c-1-.25-1.15-1.79-2.45-1.48-.68.16-1.34.23-1.74-.55-.1-.37,0-.85.3-.91,1.2-.28-.18-.88.19-1.23l.8-.86a1.72,1.72,0,0,0,1.12.29c-.37-.18-.81,0-1.1-.31-.46-.9-2-1.09-1.65-2.52,1.52.44,2.63-1.29,4.17-.79a1.45,1.45,0,0,1,.52.24,2.56,2.56,0,0,1,.58,1.43c.19-1.13-1-1.6-.52-2.45s.41-1.69.73-2.51A2.23,2.23,0,0,1,29.82,150c.73.49.14,1.29.44,2,1.49-.54,2.92-.32,4.75.73-.92-1.66-1.85-2.86.3-3.56.65-.22.45-1.57,1.2-2.09a1.25,1.25,0,0,1,.33.49,3.32,3.32,0,0,1-.29,1.76,4.58,4.58,0,0,1-.33.71c-.13.22-.4.58-.22.68s.43-.36.74-.42c1.13,0,1.26-.85,1.38-1.69a1.34,1.34,0,0,1,.91-1.11c.43,1.45,1.57,1.13,3,.82-.86,1.13-1.71,2-.4,2.94.15.1.17.52.1.74a.44.44,0,0,1-.68.21c-2.06-1.26-2,1.44-3.28,1.82-.32.1.17,1.4.79,1.25,2.26-.57.67,1,.88,1.49a3.12,3.12,0,0,0-2.93,2.56,2.33,2.33,0,0,1-.87,2.06,2.48,2.48,0,0,0-.8-.52,3.42,3.42,0,0,1,.81.51Z"/><path class="cls-39" d="M27.27,145a1.32,1.32,0,0,0-1.24.85,1.27,1.27,0,0,1-1.68,0,3,3,0,0,0-2.3-2.63c-1-.27-2.8-.83-.81-2.44.26-.21.17-.92.17-1.41,0-1.25.78-1.61,1.79-1.83.33.78-.21,1.19-.36,1.69s-.19,1.17,0,1.17c2,.06,2.73,3.06,5.15,2.07.72-.3,1.76-.35,1.7,1,0,1.08,1.05.68,1.45,1.18.12.61-.42,1-.46,1.58-.8.11-.78.58-.58,1.21s.12,1.32-.78,1.32c-.69,0-1.69.21-1.15-1.18.25-.64-.82-.39-.87-.93C27.75,146,28.27,145.47,27.27,145Z"/><path class="cls-40" d="M73.31,127.62c-3.85,1.17-7.5,2.86-11.26,4.29a5.42,5.42,0,0,1-2.75.76l1.09-1.27a7.55,7.55,0,0,1,2.17-2.19A11.61,11.61,0,0,0,65,127.58a38.48,38.48,0,0,1,6.17-2.89,2.23,2.23,0,0,1,2.18-.11Z"/><path class="cls-41" d="M27.26,162.66c1.21.12,2.83-.21,2.16,2a16.9,16.9,0,0,1-4.26,1,12.49,12.49,0,0,0-3.74.59,1.22,1.22,0,0,1-.66-1.93c-.23-.66-.49-.21-.74,0a2.79,2.79,0,0,1-.94.87c-.67.19-.8,1.55-1.86.88v0c-.46-.7-1-1.39-.46-2.27a.81.81,0,0,0-.05-1.1c-.83-.9-.41-1.61.4-2.24a.52.52,0,0,1,.53.12l.46,0c1,.89,1.82-1.05,2.85-.25.66.39.76,1.2,1.25,1.72l.38.35a8.84,8.84,0,0,1,1,.88c.22.24.45.46.81.26.39-.37.35-1,.73-1.34C26,161.36,26.38,163.18,27.26,162.66Z"/><path class="cls-42" d="M73.32,124.58A57.12,57.12,0,0,0,65,128.13c-.5.28-.82.19-.88-.43l2.43-2.89c2-1.43,4.12-2.75,6.78-2.49Z"/><path class="cls-43" d="M73.32,122.32l-6.78,2.49,2.31-3.8c1.55-.34,2.76-1.42,4.47-2.18Z"/><path class="cls-44" d="M59.92,119.07c.66-1.6,0-3.5,1.07-5l4.59,1.65C64,117.35,62.57,119.24,59.92,119.07Z"/><path class="cls-39" d="M19.29,154.23c-.87-1.24.36-1.59,1-2,1.13-.73,2.77-.85,2.62-2.83,0-.49.64-.64,1.15-.65s1,.05,1.11.67,0,1.31.87,1.42c-.17,1.27-1,.69-1.7.63.4,1,2.81,0,2,2.08a2.07,2.07,0,0,1-1.5.95,2.65,2.65,0,0,1-1.53-.49A2.91,2.91,0,0,0,19.29,154.23Z"/><path class="cls-45" d="M17.25,160.62c-.31.65-1.24,1.37.25,1.8.33.1.59.71.38.81-1.41.69-.31,1.91-.66,2.8-1,0-2-.22-1.31-1.56.9-1.88-.23-2.11-1.64-2.19.14-1.26,0-2.27-1.66-2.16-.13-.41-.7-1,.06-1.17,1.34-.27,2.73-1.15,4.11-.07a.78.78,0,0,1-1.12.16C16.14,159.42,17.29,159.41,17.25,160.62Z"/><path class="cls-46" d="M19.29,154.23c.72-1.93,2-1.94,3.53-1,.63.37,1.3.68,2,1s1.87-.65,2.1.83c-.86.29-1.76,0-2.47,1.18s-1.11-.51-1.72-.78c-.54-1.1-1-2.3-2.51-.94C19.9,154.77,19.53,154.51,19.29,154.23Z"/><path class="cls-47" d="M26,153.35c.39-1-.37-.83-.87-.79-1.19.09-1.29-.81-1.47-1.6a.79.79,0,0,1,.33-.68c.56-.26.37.28.51.52.43.77,1,.51,1.5,0,.91-1.9,2.45-.91,3.8-.84-.46.54-.91,1.09-1.36,1.63-.71,0-.47.74-.79,1.06C27.21,153.17,26.89,154,26,153.35Z"/><path class="cls-48" d="M21.88,162.63a3.63,3.63,0,0,1-.89-2.14c-.43-.38-1-.65-1.24-1.2-.68-1.64,1.18-1.78,1.59-1.8.91,0,.54,1,.55,1.76l1.63-.39c2.25,1.12-.51,1.3-.38,2a1.63,1.63,0,0,0-.17.2C22.32,161.39,22.4,162.23,21.88,162.63Z"/><path class="cls-49" d="M21.34,131.41c-.33-.23-.88-.4-.95-.7-.4-1.52-1.11-2.06-2.54-1.1-.08,0-.41-.11-.48-.25a.59.59,0,0,1,.09-.55,3,3,0,0,1,1.08-.58c1.66-.39,3.12.42,4.72.74C22.26,129.52,20.24,129.08,21.34,131.41Z"/><path class="cls-50" d="M36.52,159.31c-1.33-1.16.33-1.61.65-2.29.47-1,1.39-1.23,2.28-.27l.78,2A3.1,3.1,0,0,0,36.52,159.31Z"/><path class="cls-51" d="M48.67,131.89c.64.75,1,.05,1.56-.19a1.46,1.46,0,0,1,2,.58c.3.94-.74.71-1.27.81a8.26,8.26,0,0,1-4.74-.35.48.48,0,0,1,.43-.44.89.89,0,0,0,.84-.42A.85.85,0,0,1,48.67,131.89Z"/><path class="cls-39" d="M19.32,142c.69.42,1.41,1.54.95,1.73-1,.43-2.18,1.09-3.37.62-.39-.16-.63-.71-.93-1.08,0-1,.68-1.25,1.55-1.26C18.12,142,18.73,142.47,19.32,142Z"/><path class="cls-52" d="M17.22,166a.74.74,0,0,0,.88-.83c0-.68.38-.56.78-.4,1,.47,1.66,1,.52,2.06a10.62,10.62,0,0,1-3.55.78l-1.26-1C15.73,166.6,16.81,167.27,17.22,166Z"/><path class="cls-53" d="M12.61,160.12c.73-.92,1.35-.72,2.15,0,1.2,1.11-.41,1.42-.49,2.15-.56.27-1.14,1.44-1.68,0l0,0C14.32,161.5,12.77,160.82,12.61,160.12Z"/><path class="cls-54" d="M5.34,163.8c2.64-.86,3,1.06,4.25,2.54C7.42,166.21,6.68,164.86,5.34,163.8Z"/><path class="cls-55" d="M10.45,159.26a2.84,2.84,0,0,1-1.85-1.9c-.14-.38.52-.68.58-.48.38,1.24,2.45-.6,2.37,1.38C11.53,159,11.17,159.2,10.45,159.26Z"/><path class="cls-56" d="M16.79,156a3.83,3.83,0,0,0,1,.11c.34-.06.6-.7,1-.16a.58.58,0,0,1-.08.91c-.34.29-.52.95-1.15.45-.28-.22-.54-.46-.92-.21-.57.38-1.09.52-1.08-.43S16.2,155.87,16.79,156Z"/><path class="cls-57" d="M33.33,138.5c-.5-.18-1.17.37-1.25-.65-.1-1.4,1-.83,1.57-1.08.72-.32,1.05.41,1,.91C34.56,138.39,33.92,138.57,33.33,138.5Z"/><path class="cls-58" d="M2.67,159.83c1.51-.75,2.72.66,4.4.43A3,3,0,0,1,2.67,159.83Z"/><path class="cls-59" d="M19.75,159.29a1.18,1.18,0,0,1,1.24,1.2,3,3,0,0,0-1.64.63c-.61.39-1.16.36-1.25-.56l.53-.22C17.64,158.51,19.07,159.31,19.75,159.29Z"/><path class="cls-60" d="M19.32,142c-.09.75-.54,1-1.17.65a1.65,1.65,0,0,0-2.18.62c-1.41-1.06-.09-1.44.54-1.61A3.54,3.54,0,0,1,19.32,142Z"/><path class="cls-61" d="M25.46,127.93a1.19,1.19,0,0,1-1-1.15c-.05-.68-1.29-.89-.66-1.73.26-.34.59.07.89.16a1.34,1.34,0,0,1,1,1.85C25.57,127.31,25.53,127.57,25.46,127.93Z"/><path class="cls-62" d="M5,147.45c1.8-.73,3,.3,4.31.45A4.22,4.22,0,0,1,5,147.45Z"/><path class="cls-63" d="M15.07,149.26c.06.78-.57.9-1.06,1a1.06,1.06,0,0,1-1.19-.9c-.15-.74.59-.8,1.08-.93C14.55,148.26,14.89,148.69,15.07,149.26Z"/><path class="cls-64" d="M36.52,147.49c0-.15,0-.29,0-.43,1.09-1.33,1.85-.77,2.52.42-.14.43-.28.86-.41,1.28a.53.53,0,0,1-.49.15C37.39,148.67,37,148,36.52,147.49Z"/><path class="cls-65" d="M10.93,153.31c-.43,1.2,2.38,1,1.14,2.51-.17.2-.51.41-.72.15A2.49,2.49,0,0,1,10.93,153.31Z"/><path class="cls-66" d="M6.4,158.18c-1.13.74-2.63-1-3.35.88-.1.23-.66,0-.79-.38s.19-.78.58-.93C4,157.28,5.12,157.85,6.4,158.18Z"/><path class="cls-67" d="M30.7,146.18c-.79-.8-.1-1.17.46-1.58A2.48,2.48,0,0,1,33.34,146C32.47,146.56,31.48,145.33,30.7,146.18Z"/><path class="cls-68" d="M24.35,145.8H26c-.32.87,1.16,2.11,0,2.5s-.58-1.47-1.33-2C24.53,146.21,24.46,146,24.35,145.8Z"/><path class="cls-69" d="M9.44,154.33c-1.33-.24-1.88-1.13-2.22-2.57C8.64,152.26,8.9,153.42,9.44,154.33Z"/><path class="cls-70" d="M12.08,165c1.09-.11,1.77.19,1.77,1.28,0,.33.05.87-.39.82C12.29,166.91,12.71,165.57,12.08,165Z"/><path class="cls-60" d="M62.65,129.41c-.82.59-1.25,1.62-2.26,2-.92-2.37,1.22-1.84,2.22-2.38.11.08.15.16.12.25S62.68,129.41,62.65,129.41Z"/><path class="cls-71" d="M46.6,132.3l-.43.44-.19-.08c-.68-.39-1.72.6-2.16-.58,0-.11.2-.48.23-.47C44.9,131.85,46,131.06,46.6,132.3Z"/><path class="cls-72" d="M60.12,121.38c.75,0,.84.65,1,1.12s0,1.12-.5,1.18c-1,.11-.48-.88-.75-1.33S59.52,121.57,60.12,121.38Z"/><path class="cls-73" d="M54.84,128.83c.52-.05.61-.09.64-.06.67.61,1.34,1.24,1.08,2.28,0,.12-.4.3-.47.25C55.17,130.68,55.69,129.59,54.84,128.83Z"/><path class="cls-74" d="M37.64,135.49c1.15-.81,1.89-.41,2.46.86C39.13,136.34,38.11,136.86,37.64,135.49Z"/><path class="cls-75" d="M48.67,131.89H47.44c-.42-1.09.21-2.07,1-1.93C49.51,130.11,48.43,131.22,48.67,131.89Z"/><path class="cls-76" d="M34.24,118.71c-.24.36-.3,1.06-1,.74-.46-.21-1.18-.46-1.13-1,.07-.77.71-.31,1.12-.24S34.31,117.79,34.24,118.71Z"/><path class="cls-60" d="M59.72,126.86c-.27.61-.83.57-1.25.64s-.73-.4-.72-.81.42-.68.87-.64S59.44,126.49,59.72,126.86Z"/><path class="cls-77" d="M17.06,154.5c-.06.59-.52.55-.92.55s-1.08,0-1.1-.65.49-.58.92-.61A.94.94,0,0,1,17.06,154.5Z"/><path class="cls-78" d="M24.14,133.33c-.19.24-.24.34-.27.33-.82-.1-1.78.27-2.38-.61a.58.58,0,0,1,.15-.52C22.75,132.05,23.17,133.27,24.14,133.33Z"/><path class="cls-79" d="M28.18,136.52c-1.25.72-2,.12-3.13-.38C26.39,135.41,27.12,136,28.18,136.52Z"/><path class="cls-73" d="M6.63,145.09c-.35,0-.63-.25-.57-.5.15-.56,0-1.36.78-1.54a.57.57,0,0,1,.61.68A1.73,1.73,0,0,1,6.63,145.09Z"/><path class="cls-80" d="M27.27,145c.53-.2,1.32-.83,1.53,0s-.65,1.37-1.49,1.61C27.3,146.05,27.28,145.5,27.27,145Z"/><path class="cls-81" d="M12.83,142.64c-.2.42-.46.86-1,.76-.43-.06-.82-.32-.74-.81.1-.66.68-.57,1.15-.56S12.9,142.11,12.83,142.64Z"/><path class="cls-68" d="M4.26,147c-.86.7-1.47,1.15-2.26.63-.09,0-.09-.42,0-.53C2.6,146.43,3.28,146.58,4.26,147Z"/><path class="cls-82" d="M46.45,140.23l-1.89-2.32C45.48,138.19,46.62,138.24,46.45,140.23Z"/><path class="cls-83" d="M37.54,138.24c.15-.48.52-.45.82-.31.46.21,1.16.27,1,1-.06.33-.4.24-.66.16C38.21,139,37.61,139,37.54,138.24Z"/><path class="cls-84" d="M18.39,139.88c.06.6-.21.79-.58.82s-1,.05-1.11-.58c0-.36.37-.53.73-.59A.89.89,0,0,1,18.39,139.88Z"/><path class="cls-57" d="M34.66,140.29c-.12.45-.49.44-.81.42S33,140.5,33,140s.48-.58.89-.51S34.63,139.78,34.66,140.29Z"/><path class="cls-85" d="M9.37,162.77a2.58,2.58,0,0,1,2.26.72C10.5,163.83,10.5,163.83,9.37,162.77Z"/><path class="cls-86" d="M46.44,135.63c1.3-1.07,1.85-.27,2.46.11.08,0,.05.48,0,.5C48.05,136.56,47.65,135.6,46.44,135.63Z"/><path class="cls-53" d="M12.59,162.25c-1.13.18-1.66-.41-1.91-1.67,1,.36,1.73.62,2,1.63Z"/><path class="cls-87" d="M17.25,160.62c-.33-.83-1.35-.81-1.87-1.41.45-.56.95-.31,1.4-.33.4.5.95.91.86,1.66A1.36,1.36,0,0,0,17.25,160.62Z"/><path class="cls-88" d="M13.27,155.51c1,.08,1.54.47,1.7,1.23,0,.09-.27.37-.38.35C13.8,157,13.58,156.35,13.27,155.51Z"/><path class="cls-65" d="M24,147.55c-1.08.5-1.64.3-2.21-.49C22.68,146.66,23.2,147,24,147.55Z"/><path class="cls-89" d="M62.65,129.41c0-.13,0-.26,0-.39l1.5-1.32.88.43A5.24,5.24,0,0,1,62.65,129.41Z"/><path class="cls-90" d="M45.52,159.07c-1-.13-1.59-.09-1.79-.74,0-.15.1-.51.19-.52C44.68,157.71,44.93,158.29,45.52,159.07Z"/><path class="cls-91" d="M31.78,125.57c-.64.06-1.34.28-1.76-.42-.05-.09.14-.45.26-.48C31,124.51,31.32,125.09,31.78,125.57Z"/><path class="cls-92" d="M36.85,138.57c-.1.34-.23.69-.67.58s-.47-.45-.43-.81a.52.52,0,0,1,.56-.48A.58.58,0,0,1,36.85,138.57Z"/><path class="cls-93" d="M7.57,162.4c-1.18.39-1.91.81-2.34-.26C6,161.55,6.55,162.28,7.57,162.4Z"/><path class="cls-94" d="M51.85,120.66c0,.7,0,1.27-.8,1.38-.13,0-.45-.24-.43-.34A1.06,1.06,0,0,1,51.85,120.66Z"/><path class="cls-95" d="M16.56,132.12a1.16,1.16,0,0,1-.81.86.4.4,0,0,1-.55-.41c0-.51.35-.71.76-.82A.43.43,0,0,1,16.56,132.12Z"/><path class="cls-96" d="M44.34,127a1.28,1.28,0,0,1,1.62.54c0,.06-.15.44-.27.46C45,128.12,44.58,127.68,44.34,127Z"/><path class="cls-2" d="M66.82,244.44q-22,0-44.06-.08c-.87,0-1.82.32-2.6-.4,6-1.75,12.18-2.93,18.29-4.33,10.93-2.52,21.64-5.86,32.5-8.65a5.38,5.38,0,0,1,2.44-.44c-.14,2.7.4,5.45-.4,8.11A7.67,7.67,0,0,1,66.82,244.44Z"/><path class="cls-5" d="M73.31,94.7l-5-1.69c.35-9-.74-17.85-1.17-26.77-.11-2.25.36-3.59,2.79-3.76A2,2,0,0,0,72,60.86c.32,0,.51-.38.85-.39a.54.54,0,0,1,.4.22Q73.3,77.69,73.31,94.7Z"/><path class="cls-97" d="M44.07,231.3c2.58-3.58,6.37-5.58,10.12-7.55,5.62-2.93,11.33-5.69,17-8.53.74-.38,1.43-.86,2.15-1.29,0,2.73,0,5.45,0,8.18a7.69,7.69,0,0,1-3.31,2.4l-18.78,5c-1.79-.38-3.2.66-4.74,1.26A5.43,5.43,0,0,1,44.07,231.3Z"/><path class="cls-98" d="M70.07,224.51a7.1,7.1,0,0,1,3.31-2.4c0,.57,0,1.15,0,1.72Z"/><path class="cls-99" d="M73.29,60.69l-.17,0c-.89-1.32-.63-2.69-.19-4.07l.44-.13Z"/><path class="cls-100" d="M16,238.92c-1.35.09-1.56-.81-1.69-1.87s.49-1.29,1.28-1.56c2.37-.81,4.7-1.74,7.08-2.5,2.8-.9,3.91-.14,4.63,2.95Z"/><path class="cls-101" d="M46.55,230.77c1.61-1.77,3.14-2.18,4.74-1.26A13.23,13.23,0,0,1,46.55,230.77Z"/><path class="cls-102" d="M23.1,169.77c-.57-.1-1-.85-1.7-.41L18.09,169c0-.18,0-.35,0-.53a5.64,5.64,0,0,1,2.28-.53c.62.16,1.29-.2,1.89.18l1.29.84A.94.94,0,0,1,23.1,169.77Z"/><path class="cls-103" d="M11.3,169.82a1.23,1.23,0,0,1,1.28-.25c.22.34.56.76,0,1S11.6,170.28,11.3,169.82Z"/><path class="cls-45" d="M19.4,166.84c.55-.87-.09-1.44-.52-2.06l.84-.8c.75-.58,1.26-.13,1.73.43-.93.53-.42,1,0,1.53a1,1,0,0,1-1.13.7Z"/><path class="cls-104" d="M20.35,166.64l1.13-.7a3.12,3.12,0,0,1,3.68-.32A12.65,12.65,0,0,1,20.35,166.64Z"/><path class="cls-105" d="M22.25,168.07c-.63,0-1.29.19-1.89-.18a19.72,19.72,0,0,1,5.16-1C24.57,167.68,23.24,167.39,22.25,168.07Z"/><path class="cls-106" d="M28.17,166.28a2.1,2.1,0,0,1-1.41,2.1c-.31-.57.38-1.31-.37-1.72A3,3,0,0,1,28.17,166.28Z"/><path class="cls-107" d="M72.2,199.34c-.65-.45-.4-1.16-.5-1.76-.65-1.16-.2-1.94.84-2.52a1.24,1.24,0,0,1,.28,1.65,2.14,2.14,0,0,0,.15,2.12Z"/><path class="cls-108" d="M23.1,169.77a1,1,0,0,1,.44-.85c.69,0,1.07.6,1.6.92l-.8.42Z"/><path class="cls-109" d="M72.54,195.06a6.77,6.77,0,0,0-.84,2.52c-.57.64-.41,2-1.87,1.91a8.63,8.63,0,0,1,2-4.66C72.14,194.44,72.5,194.32,72.54,195.06Z"/><path class="cls-110" d="M47.42,72.5a1.41,1.41,0,0,1-.62,1.25,126.38,126.38,0,0,1-12.69,8.74c-.15.09-.39,0-1.26,0,4.94-3.33,9.53-6.17,13.7-9.6C46.81,72.7,46.94,72.22,47.42,72.5Z"/><path class="cls-111" d="M47.42,72.5l-.87.4q-.57-3.65-1.12-7.27C47.1,67.67,47.2,70.1,47.42,72.5Z"/><path class="cls-112" d="M72.93,56.58c.07,1.36.13,2.71.19,4.07a1.07,1.07,0,0,1-1.08.21c0-1.45.06-2.89.1-4.34l.4-.84Z"/><path class="cls-113" d="M31.67,153.54c1,1.43,2,2.53,3.72,2.56a.55.55,0,0,1,.52.74.69.69,0,0,1-.47.32A3.28,3.28,0,0,1,31.67,153.54Z"/><path class="cls-114" d="M26,153.35c.92,0,1.06-.94,1.57-1.43.27-.26.38-.79.87-.28-.16.76.86,1.88-.68,2.21-.64.24,0,1-.49,1.27a1.4,1.4,0,0,1-.41-.06c-.49-.81-1.64.05-2.1-.83Z"/><path class="cls-115" d="M25.19,162.2c-.14.7.33,1.54-.46,2.1-.36-.64-1.09-.5-1.61-.79l-.88-.82c1.16-.12.28-1.26.83-1.68l.07-.12a1.1,1.1,0,0,0,1.6.05A.9.9,0,0,1,25.19,162.2Z"/><path class="cls-116" d="M27.29,155.12c.16-.42-.68-1.24.49-1.27,0,.42-.11.89.38,1.09,1.26.5.5,1.19.14,1.78-.2.31-.5.81-1,.53-.95-.58-.07-1.16.07-1.74C27.43,155.39,27.33,155.25,27.29,155.12Z"/><path class="cls-117" d="M25.19,162.2l-.45-1.26c1.7-.7,1.63,1.22,2.52,1.72.07.36.59.69.18,1.08s-.61,0-.87-.24C26.08,163.1,26.11,162.14,25.19,162.2Z"/><path class="cls-118" d="M36.94,150.43c-.78.31.45,1.46-.66,1.61a.82.82,0,0,1-.82-.51c-.55-1,.26-1.65.67-2.4a1,1,0,0,1,1.08-.18C37.78,149.57,37.09,150,36.94,150.43Z"/><path class="cls-3" d="M36.94,150.43c-.45-.63.19-.85.45-1.21a.58.58,0,0,1,.72-.54l.51.08C38.22,149.49,39.09,151.49,36.94,150.43Z"/><path class="cls-54" d="M24.34,158c1.09-1,1.71-.56,2.1.79-.84,0-1.78.58-2.12-.77Z"/><path class="cls-119" d="M35.66,161.36c-1.24.29-1.43-.8-1.88-1.49-.14-.22.13-.64.41-.51a3.18,3.18,0,0,1,1.46,2Z"/><path class="cls-120" d="M27.17,160.18c0-.22.07-.57.39-.46.75.25,1.7.19,2.11,1,.18.39-.21.5-.44.27C28.65,160.45,27.44,161.62,27.17,160.18Z"/><path class="cls-121" d="M38.11,148.68l-.72.54-1.26-.09.39-1.64A1.65,1.65,0,0,1,38.11,148.68Z"/><path class="cls-122" d="M23.07,161c-.09.65.75,1.77-.83,1.68a2.25,2.25,0,0,0-.36-.06c.05-.49.14-1,.15-1.45C22.08,159.27,22.68,160.81,23.07,161Z"/><path class="cls-123" d="M21.45,164.41,19.72,164c-.27-.24-.51-.75-.14-.77a5.4,5.4,0,0,1,2.31.44C22.16,163.76,21.65,164.17,21.45,164.41Z"/><path class="cls-124" d="M23.12,163.51c.9-.49,1.75-.88,1.61.79C24.11,164.2,23.19,164.75,23.12,163.51Z"/><path class="cls-125" d="M56.78,227.15a1.16,1.16,0,0,1-.84-1.91,5.92,5.92,0,0,1,4.29-2.64c1.09-.15,1.66.63,1.2,1.78C61.05,225.35,58,227.22,56.78,227.15Z"/></svg>