<svg id="Layer_1" data-name="Layer 1" xmlns="http://www.w3.org/2000/svg" viewBox="0 0 82.53 271.98"><defs><style>.cls-1{fill:#fefefe;}.cls-2{fill:#fcfdfd;}.cls-3{fill:#c1d4e7;}.cls-4{fill:#c2d4e7;}.cls-5{fill:#0f1d42;}.cls-6{fill:#0b59a3;}.cls-7{fill:#162448;}.cls-8{fill:#e4459a;}.cls-9{fill:#fdfdfd;}.cls-10{fill:#fbfbfb;}.cls-11{fill:#e3469b;}.cls-12{fill:#edeef0;}.cls-13{fill:#d9dbe0;}.cls-14{fill:#101e42;}.cls-15{fill:#0b55a7;}.cls-16{fill:#4f50a3;}</style></defs><path class="cls-1" d="M0,13.13c0-4,.05-8,0-11.93C0,.19.2,0,1.2,0Q41.25.06,81.31,0c1,0,1.37.19,1.17,1.2a4.81,4.81,0,0,0,0,.93q0,133.85,0,267.69c0,1.76-.39,2.16-2.14,2.16Q40.2,271.88,0,271.93V246.66c.38-.36.61-.85,1-1.18,3.94-4.1,8.83-3.78,13.87-3.14,4.15.53,8.34.64,12.52.88,12.4.73,24.81.23,37.22.44,3.58.06,7.1-.73,10.68-.49a18.17,18.17,0,0,1,2.09.11c.54.1,1.19.2,1.32.79s-.35,1-.79,1.34c-1.76,1.28-3.64,2.39-5.49,3.53-5.27,3.24-10.51,6.52-15.71,10,7.55.15,15,.21,22.54.14a1.79,1.79,0,0,0,2-2c0-5.46.09-10.92,0-16.38,0-1.75-.83-2.63-2.7-2.78s-4-.31-6-.39c-8.91-.35-17.82-.52-26.74-.46-9.46.07-18.9.71-28.35,1-.15,0-.31,0-.46,0-.69,0-1.62.28-1.92-.42-.37-.86.5-1.41,1.13-1.81q5.21-3.33,10.47-6.55c7.55-4.64,15-9.45,22.55-14.06a3.16,3.16,0,0,1,.64-.44C58,210,66,204.83,74,199.89c1.85-1.13,3.68-2.31,5.52-3.47a3.21,3.21,0,0,0,1.79-2.8q0-17.4,0-34.82A1.14,1.14,0,0,0,81,158c-3.91.06-7.58.84-10.25,4-1.13,1.33-1.69.93-2.34-.27a40.2,40.2,0,0,0-3.17-4.62c-.67-.9-1.84-1.81-1-3.06s1.9-2.31,3.66-1.92a1.27,1.27,0,0,0,1.31-.22c3.46-2.08,6.88-4.24,10.27-6.44a4,4,0,0,0,1.66-3,19.29,19.29,0,0,0,.15-3c0-15.9,0-31.81,0-47.72,0-1,.27-2-.46-2.93a3.71,3.71,0,0,0-2.65-.56,18.16,18.16,0,0,1-7.14-1.78c-2.08-.93-2.51-2.14-1.84-4.52,2.51-.86,4.81.29,7.18.72,1.68.36,3.48,1.37,4.73-.81a10,10,0,0,0,.17-3c0-20.42-.08-40.84-.09-61.26,0-3.59,0-3.63-3.66-3.63H4.74a13,13,0,0,1-3.93-.26A3,3,0,0,1,0,13.13Z"/><path class="cls-1" d="M0,217.18V195.65c.33-.29.55-.68.88-1,6.07-4.18,12.5-7.81,18.69-11.81q4.59-3,9.31-5.73c2.85.45,5,2.35,6.65,4.32a34,34,0,0,0,5.1,4.67c1.21,1,2.54,1.81,3,3.41.1,1.25-.82,1.74-1.68,2.28q-17.6,10.91-35.16,21.86a48.29,48.29,0,0,1-6.19,3.68A.82.82,0,0,1,0,217.18Z"/><path class="cls-2" d="M0,81V76.31A1.45,1.45,0,0,1,.73,76a21,21,0,0,0,10.65-.41,2.49,2.49,0,0,1,2.22.16c.5,2.06.09,4.12,0,6.17-.05.89-.75,1.54-1.61,1a12.77,12.77,0,0,0-10-1.1,1.79,1.79,0,0,1-1.3-.38A5.8,5.8,0,0,1,0,81Z"/><path class="cls-3" d="M0,81l.54.06c1.08,1.66.51,3.51.61,5.29a17,17,0,0,1,.07,2.57q0,51.42,0,102.83A14.53,14.53,0,0,1,1,195.22c-.2.37-.57.39-.94.43Z"/><path class="cls-3" d="M.52,76.3H0V13.13H.5a4.25,4.25,0,0,1,.75,3.09q0,28.5,0,57C1.24,74.28,1.37,75.41.52,76.3Z"/><path class="cls-4" d="M0,217.18a.55.55,0,0,1,.4,0,3,3,0,0,1,.79,2.57c.05,8.14,0,16.27,0,24.4A12,12,0,0,1,1,246.19a1,1,0,0,1-.93.47Z"/><path class="cls-5" d="M.58,86.11c0-1.69,0-3.38,0-5.06.6.12,1.33.52,1.77.31,3.75-1.75,7.07-.56,10.47,1.51l.63-7c0-1.62,1.14-1.94,2.31-2a85,85,0,0,1,10.22,0c3.23.25,5.25,2.78,5.72,5.82-1.11-3.59-2.33-8.32-5.06-12.46-.69-1.05-.2-2,.36-2.82a8.92,8.92,0,0,0,1.35-5.09,11.8,11.8,0,0,1,8.47-10.82,15,15,0,0,1,7.82,0c2.38.64,2.71,1.8,1,4a4.71,4.71,0,0,1,5.25,0c1.06.67,2.08.21,3.11-.19C59.85,50,62.46,50.82,66,56a6.72,6.72,0,0,0,3.33,2.41,7.55,7.55,0,0,1,3.51,2.19c.79,1,1.67,2.16.27,3.45-.49.46-.3,1.19-.46,1.78-.26.94-.56,1.82-1.85,1.57-.7-.13-1.14.39-1.6.8s-1.09,1-1.35.76c-1.78-1.58-1.6.61-2.1,1.13-1.83,1.88-5.44,1.42-6.5-.91-.31-.68,0-1,.55-1.3,1.44-.86,1-1.73,0-2.56a9.69,9.69,0,0,0-1.34-.93,8.74,8.74,0,0,1-4-4.93c-.21-.61-.28-1.41-1.21-1.56-.73.88-.44,1.94-.4,2.9a8.81,8.81,0,0,1-2.44,6.61c-1.83,1.92-2.39,3.75-.67,6a.89.89,0,0,1,0,1.27c-3.44.86-6.91.28-10,.28,1.88.15,4.1.48,6.32.82A3,3,0,0,1,48.46,78a15,15,0,0,1,.65,5.07c0,3.62.18,7.15,2.67,10.14.93,1.11.45,1.84-1.1,1.8s-3.08-.38-4.64-.27c-2.57.19-3.34,1.4-2.24,3.74a19.17,19.17,0,0,0,5.69,7c2.94,2.28,4.85,5,4.36,9-.13,1.07.6,1.33,1.43,1.42a38.59,38.59,0,0,0,5.78.54,20.35,20.35,0,0,1,5.56.35c.52.17.9.64.62,1-.85,1.27-.54,2.7-.76,4-.92,1.32-2.43,1.24-3.75,1.5a19.48,19.48,0,0,1-8.53,0C57.49,125.58,59,128.67,58,133c-1.71,7,1.58,12,7.31,14.95a18.63,18.63,0,0,1,4.13,2.57c.12,1.44-1,1.5-1.93,1.69a3.12,3.12,0,0,0-.43.15c-3.15,1.85-3.11,1.82-1,4.67,1.28,1.74,2.42,3.59,3.58,5.32,2.72-4.49,7.51-4.56,12-5.28.31,3,0,6.07.14,9.1a2.18,2.18,0,0,1-1.46,2.18c-2,.85-3.82,2.07-5.84,2.86A23.24,23.24,0,0,0,69,173.07c-4.19,1.58-6.43.86-8.9-2.78-1.35-2-2.59-4-3.82-6.09-.75-1.25-1.59-1.82-3-1.32-1.64,0-2.47-1-3.13-2.36a62.33,62.33,0,0,1-3.59-8,37.44,37.44,0,0,0-5,7.75c-1,2.29-1.51,2.38-3.65,1l-.77-.53c-2.54-1.8-2.54-1.8-4.33.82-1.89,1.22-4.24.76-6.27,1.77a166.57,166.57,0,0,1,14.26,12.26c3,2.34,5.51,5.21,8.27,7.81,1.22,1.15,2.39,1.68,3.7.18a2.78,2.78,0,0,1,1-.21c3.41.93,7,1.39,9.74,4A4.19,4.19,0,0,1,64.92,192c-.68,2.54-1.66,4.87-3.92,6.41a5.28,5.28,0,0,0-2.43,4.32c-.17,5.84-3.64,9.35-8.17,12.2a1.23,1.23,0,0,0-.47.49l0,0c-2.16.42-3-.07-3.42-2.23a28.73,28.73,0,0,1-.61-6.74,14.78,14.78,0,0,0-1.23-7.07,2.35,2.35,0,0,1-.38-1.34c.54-2.85-.5-5.52-.88-8.26a3.94,3.94,0,0,0-.69-.94c-4.61-3.3-8-8.06-12.86-11.06a3.51,3.51,0,0,0-.85-.27c-3.3-1.33-5.5-4.14-8.24-6.23-.48-.37-.83-.92-1.32-1.29a6.92,6.92,0,0,1-2.81-6.9,7,7,0,0,1,2.24-5.16c1.63-1.62,2.84-3.65,4.8-5a1.4,1.4,0,0,0,.17-2.48,25.85,25.85,0,0,0-2.05-1.86c-1.6-1.71-1.85-2.82-.36-4.42a76.82,76.82,0,0,0,7.36-9.6c.79-1.17,2.17-1.69,3.26-2.68-3.37.91-4.25.49-3.73-2.9,1.56-10-2.3-19.2-4.18-28.66-.79-4-3.22-7.24-7.76-8-1.78-.32-3.2-1.14-3.54-3.18-.22-1.31-1.28-1.4-2.33-1.4-3,0-5.83-.75-8.76-1A1.76,1.76,0,0,1,.58,86.11Z"/><path class="cls-6" d="M49.88,74.32c-2.7-2.86-2.75-4.18,0-7.07,2.22-2.37,2.57-5.19,2.38-8.24,0-.77-.55-1.95.6-2.21s1.75.8,2,1.82a8,8,0,0,0,4.52,5.59c.42.2.74.58,1.15.8a2.2,2.2,0,0,1,1,2.41c-.14,1.32-1.28.81-2.45,1.29,1.58.84,2.91,2.13,4.21,2.1,1.77,0,3-1.51,2.94-3.57,0-.43-.07-1.07.62-1,.52.06.64.57.72,1.07s-.36.88.09,1.31c1-.26,1.44-1.12,2.1-1.74.27-.25.58-.82.88-.56,2.06,1.82,1.23-.52,1.58-1.09s-.9-2.35,1.2-2c0-.22,0-.45-.09-.66-.19-1-.61-2-1.47-2.27-3.93-1.16-6.26-4.18-8.91-7-2.39-2.54-5.52-2.06-8.4-.56-1.57.81-3,1.11-4.54,0a2.53,2.53,0,0,0-3.22,0c-1.33.95-2,.68-2.27-.85.39-.67,1.65.07,1.61-.71a1.9,1.9,0,0,0-1.7-2.1c-7.28-1.56-13.26,1.49-15.21,8a7.25,7.25,0,0,0-.31,2.76,6.27,6.27,0,0,1-1.34,4.79c-.86,1-1.52,2.3.45,3.11,1.47.61.6,2.17,1.14,3.27,1.65,3.4,3.28,6.94,3,11.13-.67-1.66-1.22-3.17-1.88-4.62a5,5,0,0,0-4.84-3c-3.11,0-6.21,0-9.31,0a2.5,2.5,0,0,0-2.63,1.49c-1.51.29-3.06.46-4.53.88A13.32,13.32,0,0,1,.52,76.3q0-31.59,0-63.16c1.86,0,3.72-.1,5.58-.1H79.39c1.37,0,2.46-.19,2.45,1.93-.06,22.14,0,44.27,0,66.41a7.8,7.8,0,0,1-.22,1.34c-1.22-1.41-.49-3.1-.67-4.66-.09-.84,0-1.7,0-2.6-1.86,2.43-2.66,5.44-4.63,7.75L69.57,82c-.62-.17-.88-.87-1.5-1-3.56-1.53-7.46-2.08-10.95-3.82a1.36,1.36,0,0,0-2,.6c.33.37.69-.22.91,0,3.06,2.34,7,1,10.3,2.55,1.46.67,1.86,1.5,1.22,2.91-.34.74-.82,1-1.28.1-1.19-2.37-3.28-2-5.25-1.68-1.48.25-2.88.66-4.21-.43-.74-.6-1.4-.17-2.11.26-1.64,1-2.36.61-2.56-1.27a3.72,3.72,0,0,1,.24-2.3c1.07-1.78.33-2.43-1.41-2.67A1.31,1.31,0,0,1,49.88,74.32Z"/><path class="cls-6" d="M43.45,189.75c1.19,2.34,2.43,4.67,1.37,7.46a1.78,1.78,0,0,0,.2,1.32c1.57,2.59,1.73,5.43,1.54,8.32a44.77,44.77,0,0,0,.54,6.23c.12,1.67,1.22,2.41,2.87,2.31-5.81,4.13-12,7.62-18,11.45-5.55,3.52-11.16,7-17.15,10.68,7.25-.3,14-.59,20.73-.84,14.9-.58,29.78-.27,44.67.54,1.16.06,1.61.37,1.6,1.6,0,6.4,0,12.79,0,19.18,0,.81,0,1.6-1.13,1.6-8.57,0-17.14,0-25.86-.46l24.43-15.25c-2,0-3.37,0-4.72,0A542.74,542.74,0,0,1,17,243.34a20.64,20.64,0,0,1-4.39-.46C8,241.56,4.4,243.44,1,246.19c-.89-.64-.43-1.57-.44-2.34-.06-8.9-.07-17.8-.09-26.7l30.72-19.26c3.55-2.22,7.12-4.41,10.66-6.64C42.43,190.85,43.3,190.68,43.45,189.75Z"/><path class="cls-6" d="M67.49,152.24l1.89-1.39a2.11,2.11,0,0,1,.89-1.32c1-.91,1-1.83.16-2.86a15,15,0,0,1-2.82-13.42,14.37,14.37,0,0,0-.56-8.07,9.64,9.64,0,0,1-.78-3.39c-1.09-1.7.07-3.17.47-4.72-2.1-1.47-3.6-3.56-5.42-5.32A10.5,10.5,0,0,0,56.85,109a15.53,15.53,0,0,1-7.4-5,2.25,2.25,0,0,1-.8-2.07,1,1,0,0,1,.77-.63c1.7.33,2.61,1.85,4,2.7,4.15,2.56,4.83,2.29,5.79-2.43.36-1.72.22-3.59,1.4-5.09,1-.91,2.2-.52,3.33-.37,1.72.23,3.07-.08,3.56-2.06.33-1.36,1.37-1.48,2.56-1.34,2.54.3,5,.84,7.54,1.38,2.79.6,3.22.17,3.32-2.71,0-1.13-.3-2.37.74-3.27.5,2.93.15,5.87.15,8.81,0,15.1,0,30.19,0,45.29a4,4,0,0,1-2.27,4.05c-3.58,2-7,4.29-10.47,6.48C68.3,153.28,67.55,153.87,67.49,152.24Z"/><path class="cls-6" d="M74.06,170.9c1.91-1,3.63-2.27,5.69-2.94a2.43,2.43,0,0,0,1.81-2.78c-.1-2.69,0-5.39.07-8.08.51,2.22.2,4.47.2,6.7,0,9.95-.06,19.91,0,29.86A3.4,3.4,0,0,1,80,197c-9.5,5.83-18.94,11.74-28.41,17.62-.52.32-1.1.54-1.64.81,1.59-1.55,3.16-3.13,4.79-4.66a10,10,0,0,0,3.06-6.84c.2-2.57.85-4.75,3.26-6.3s3.48-4.55,3.51-7.31c0-2.46-2.57-3.54-4.52-4.47a45.88,45.88,0,0,0-6.31-2c-.19-.73.41-.94.85-1.2,5.79-3.46,11.39-7.2,17.2-10.63C72.51,171.58,73.32,171.31,74.06,170.9Z"/><path class="cls-5" d="M81.63,88.15a40.29,40.29,0,0,0-.07,4.66c.19,2-.71,2.45-2.42,2.24-3.06-.39-6-1.32-9.1-1.68-1.36-.16-2-.16-2.1,1.41S66.69,97,65,97c-1.44,0-2.86-1-4.31-.14-3.24-1-7.25-5.88-7.48-9.14,0-.55-.11-1.17.45-1.47a1.19,1.19,0,0,1,1.44.48c2.14,2.54,5.23,2,8,2.38,2.08.27,3-1.61,3.71-3.31s.57-3.69,1.77-5.22c1,0,.88.8,1,1.42-.78,2.25.27,3.38,2.29,4.14a24.2,24.2,0,0,0,7.88,1.63C80.37,87.76,81.14,87.37,81.63,88.15Z"/><path class="cls-7" d="M76.31,83.2a10.1,10.1,0,0,1,.56-1.74,46.35,46.35,0,0,1,4.75-7.6v8.85C80,84.5,78.16,83.88,76.31,83.2Z"/><path class="cls-6" d="M17.1,163c-.33,3.06,1,5.27,3.33,7.15,3,2.35,5.75,4.91,8.62,7.38l-21.2,13.4L1,195.22c-.73-.39-.46-1.09-.46-1.67q0-53.49,0-107a2.44,2.44,0,0,1,.07-.46c3.87-.07,7.63,1.21,11.53,1,1,0,1.42.62,1.37,1.51-.11,1.91,1,2.68,2.63,2.94,5.88.94,8,5.15,9.14,10.33,1.25,5.75,2.5,11.51,3.87,17.23.81,3.38-.21,6.65-.22,10s0,3.16,3,2.15a2.85,2.85,0,0,1,2.52-.23c-5.74,2.83-7.54,8.79-11.75,12.67-2.14,2-2.07,3-.34,4.55-1.85,3-4.28,5.65-6.28,8.57-2.12,3.09-1.88,6.07.62,8.41C16.2,164.38,15.92,163.53,17.1,163Z"/><path class="cls-8" d="M68.55,80.55c-.52,2-.63,4.16-1.48,6.09-1.06,2.42-3,3.43-5.89,3a12,12,0,0,1-7.59-3.54c.49,5.12,3.57,8.07,7.11,10.71-.59,2.8-1.19,5.6-1.75,8.4-.24,1.17-.74,1.45-1.94,1.06a19.42,19.42,0,0,1-7.6-4.72c-.45-.1-.74-.49-1.28-.7.6.33.56.85.71,1.27A12.37,12.37,0,0,0,56,108c5,1.44,7.84,5.2,10.73,9a52.55,52.55,0,0,1-13.94-1c1.41-4.36-.29-7.49-3.68-10a19.17,19.17,0,0,1-6.19-7.76c-1.12-2.57-.12-4,2.68-4.2a33.33,33.33,0,0,1,6.66.65c-3.51-3.36-3.86-7.35-3.84-11.46v-.46c-.07-6.07-.22-6.25-6-6.85a6.36,6.36,0,0,1-4.15-1.59H49.87a2,2,0,0,0,.23.06c1.2.28,2.79.19,3.5.94s-.84,1.91-.88,3.06-.28,2.34.46,3.39c.76,0,1.08-.57,1.47-1,.91-1,1.71-1.57,2.63,0,.62,1,1.54.83,2.45.46A8.15,8.15,0,0,1,64.52,81c1.41.28,2.47.69,2.09,2.7,1.32-2,.59-2.71-1.06-3.21s-3.5-1.23-5.42-.51a2,2,0,0,1-2.52-.62c-1.08-1.64-2.12-1.34-3.36.34a3.1,3.1,0,0,1,1.07-3.27c.87-.84,1.61-.08,2.31.28C61.11,78.42,64.92,79.24,68.55,80.55Z"/><path class="cls-1" d="M74.06,170.9c-2.55,2.24-5.61,3.71-8.43,5.52-3.94,2.53-7.94,5-11.91,7.42l-.84.11c-3.19-1.07-5.43-3.43-7.38-6-1.33-1.74-2.48-3-4.75-1.81C35.41,172,31,166.62,24.85,163.4c2.37-1.34,5.11-1.43,7.74-2,2.13.83,2.9,3,4.2,4.54,3.31,4,3.24,4,7.74,1.4,2.88-1.67,5.47-3.87,8.69-4.93,1.56-1.12,2.47-.74,3.38,1a76.1,76.1,0,0,0,4.56,7.26c1.78,2.63,3.25,3,6.35,2.18C69.72,172.31,71.65,170.8,74.06,170.9Z"/><path class="cls-8" d="M66.27,121.79c2,3.75,3,7.68,1.89,11.91a13.84,13.84,0,0,0,2.28,12c2.08,2.94,2,3.18-1.06,5.19-1.57-.83-3.17-1.62-4.71-2.51-6.63-3.85-8.73-7.86-7.28-15.47.81-4.24-.48-7.1-3.78-9.41-.23-.17-.44-.36-1-.86C57.53,123.4,62,123.4,66.27,121.79Z"/><path class="cls-6" d="M53.22,162.46c-4.09,2.6-8.2,5.15-12.24,7.81-1.1.73-1.47.06-2-.61l-6.4-8.21c.14-.36.28-.72.41-1.08.72-2,1.76-2.4,3.46-.88,1,.91,2.34,2.23,3.44,2.16,1.26-.08,1.3-2.15,1.93-3.32,1.32-2.43,3.21-4.45,4.7-6.89,1.43,3.07,2.84,6,4.15,8.95A3,3,0,0,0,53.22,162.46Z"/><path class="cls-9" d="M17.1,163c-.68,1,.07,2.12-.37,3.12-2.72-1.82-3.71-4.15-2.39-7.15a33.6,33.6,0,0,1,7.94-10.67c1,1.23,3.26,1.89,3.11,3.36-.13,1.21-2,2.23-3,3.36C20.15,157.33,17.47,159.37,17.1,163Z"/><path class="cls-10" d="M33.61,71.61A7.7,7.7,0,0,0,34,67.45,3.39,3.39,0,0,1,34.63,65c1.78-2.45,1.23-4.44-1.45-6-.66-.38-2.15.06-1.84-1.46.1-.53.27-1.4,1.13-1.16,1.18.34,2.69-.08,3.4,1.49a22.46,22.46,0,0,1,1.81,8.19C37.81,68.66,36.64,70.28,33.61,71.61Z"/><path class="cls-11" d="M40.75,176.17c2.64-1.87,2.74-1.94,4.5.72,2,3,5,4.83,7.63,7.06-1.15,2.25-2.28,1.86-3.83.25C46.39,181.42,43.53,178.83,40.75,176.17Z"/><path class="cls-12" d="M40.18,65.57c.55-1.74,1.81-3.64-1.44-4.14,1.15-1,2-1,2.64,0A3.17,3.17,0,0,1,40.18,65.57Z"/><path class="cls-13" d="M29.27,63.65c.05,1.12.52,1.87-.3,2.48a.66.66,0,0,1-.63-.17C28,65.12,28.7,64.64,29.27,63.65Z"/><path class="cls-14" d="M81.45,54.39V65.61c-4.23-.93-7.72-5.43-7.85-10.08-.17-6.15,2.71-10.64,7.83-12.1v4.63C79.15,51.06,79.15,51.45,81.45,54.39Z"/><path class="cls-15" d="M81.45,54.39A3.09,3.09,0,0,1,79.11,51c0-1.8,1-2.4,2.32-2.93C81.44,50.17,81.44,52.28,81.45,54.39Z"/><path class="cls-16" d="M48.84,102.14A4.3,4.3,0,0,1,47.47,99l1.94,2.59Z"/></svg>