<svg id="Layer_1" data-name="Layer 1" xmlns="http://www.w3.org/2000/svg" viewBox="0 0 255.93 322.56"><defs><style>.cls-1{fill:#fefefe;}.cls-2{fill:#0b58a3;}.cls-3{fill:#0b59a4;}.cls-4{fill:#0f1d42;}.cls-5{fill:#e5459b;}.cls-6{fill:#fefffe;}.cls-7{fill:#fff;}.cls-8{fill:#f9f9f9;}.cls-9{fill:#f5f5f7;}.cls-10{fill:#0b56a9;}</style></defs><path class="cls-1" d="M255.93,322.56H0V0H255.93Z"/><path class="cls-2" d="M114,210.36q-49.49,30.85-99.14,61.47c.69-84.7-2.34-174.15,1-256.91,74.66,1.06,153-2,225.88,1.06q0,57.16,0,114.31c-25.51,18.5-55,34.2-81.83,51.6-.41-.47-.31-1.12-.63-1.6,10.84-6.76,1.53-5.17.4-14.66-.83-6.3,2.55-12.53-.62-18.6-.31-2.19-3.27-5.08-1.36-7,.38-.29,1-.46.9-1.12-2.95-3.65-5.83-8.1-10.35-9.87-6.09-1.7-12.09-6.24-13.12-12.54,3.25,3.94,7.05,8,12.54,9.23,2.61-.58,2-6.47,2.92-8.81-.2-4.71,4.34-2.28,7.16-2.44,2.79.09,1-4.57,3.25-4.5,10.22,1.13,19.2,6.91,19.84-8.21,2.52-10.12,4-20.59,11.41-28.33,5.87-6.41,3-18.4-4.95-21.93-1.06-.51-1.17-.43-1.17.75.71,5.54-8.83,5.48-8.36.06.15-2,0-2.05-1.9-1.25-12.92,4.44-11.06,24.5,1.81,27,5.42,1.48-6.64,15.92-7.61,19.69-.11,1.35-8.35-.38-8.34-1.45-2-2.38-6.71-2.15-9.63-3.6-3.25-1-8-5.3-8.51.85,2.24-1.93,2.23-2.41,4.26.05a2,2,0,0,0,2.29.68c2.49-.88,9-.3,9.4,2.57-.53,1.19-.43,3.15-1.36,3.94-.8-4.51,1.72-4.44-4.5-5.21-2.69-.35-5.51,2.77-7.09-.61-1.07-1.67-2.2,1.16-3.26,1.67-2.92,1.61-1.86-5.87-.43-7.09.13-.2.28-.28.18-.58-7,.09-9.79-6.17-4.11-10.73,4.05-3.26-.22-12.36,3.6-11.59C146,68.13,145,73.75,149,75c3,.82,6.28,6.31.92,6.11.87,1.59,4,.36,3.41,2.46,2.79.26,4.67-2.33,4.62-5a.79.79,0,0,1,1.52-.41c.7.77.18,1.6.33,2.51,2-.2,3.77-6,4.32-1.48,1.61-1.2-.53-6.44,2.28-4.68-.23-3.44-3.45-4.15-6.15-5.19-6.49-5-7.45-11.89-17.59-6.26-2.62,1.26-4.68-2.22-7.31-1.22-.69,1.22-1.51,1.17-2.67,1.1-.86.08-.37-.63-.3-1-4-.82,0-1.43,1.7-1.62-4.69-2.36.46-1.82,2.41-.7-9.41-5.35-23.45-.18-22.9,11.69a4.79,4.79,0,0,1-1.1,4.34c-.78.86-2.36,3.09-.54,3.69a2.06,2.06,0,0,1,1.49,2.7c.05,1.35,1.59,2.31,1.31,3.86-.19,1.36,2.39.84,1.36,2.35.28,2.88,2.07,5.75,1.34,8.92-.07.69-.8.69-.78,0-.87-11.58-10.52-8.43-18.77-9.07-1.57-.26-2.12.67-3,1.72-8.19,2.77-13.38,1.06-21.33-.6C61.21,90,49.34,92,41.46,80.17c-3.38-1.71,1.44,4,2.11,4.64,1.56,3.38-10.14-4.66-8.5-.74.52.78,11.35,4.23,6.23,4.43-2.42.18-5.48-2.1-7.53-.92-.2.79.75,1.15,1.35,1.31,8.78,2.38,11.69,4.27.26,3.67-2,4.59,22.55-1.71,8.4,12.13-.74,1.33,1,1.31,1.7.59,16.34-11.24,10.81-7.44,29.8-3.76,6-.24,11.88,1,17.93,1.31,1.77-.07,1.75.77,2.07,2.21,1.11,6.63,11.27-1.29,14.48,17.21,2.42,11,6.17,21.63,3.76,32.91-.81,3.67,10.24-4.48,7.4-.85-6.53,4.4-10,11.15-15.38,16.7-1.36,1.71-1.43,2.51-.38,4.34-1.71,3.5-5,6.44-7.19,9.78C89.72,196.08,108.21,203.6,114,210.36Z"/><path class="cls-3" d="M211.79,175.31c10.05-5.8,19.84-12.32,29.82-18.33.51,11.2,0,22.75.19,34.07-2,3.27-7.07,4.6-10.16,7.11-45,27.94-90.25,55.67-135.12,83.79,29-1.82,58.27-2.2,87.29.2,19.9-9.72,38.39-23.79,57.84-34.91.4,11.8,0,23.76.13,35.62A2.45,2.45,0,0,1,240,286q-17.38,10.77-34.76,21.55c-20.23,1.21-40.95,0-61.34.42l-.07-.18,30-18.6c-28.22.93-56.72,1.67-84.85-1.59-12,4.39-22.6,13.83-34.07,20a337.46,337.46,0,0,1-40.24-.07c.5-3.29-1.12-7.83.8-10.5q19.42-12,38.81-24L131,225.52a8.07,8.07,0,0,1,1.77,8.06c-.44,2.64,2.57,4.91,1.9,7.84.18,9.1-.63,20.11,9.66,8.32,4.47-3.78,2-10.22,5.68-14.26,7.27-5,8.32-13.16-1.51-15.69-1.78-.33-3.63-.44-5-1.84,2.59-2.85,7.53-4.69,10.91-7.21a273.81,273.81,0,0,1,33.81-18.84c1.87-.53,4.54-3.55,6.13-1.63a1.63,1.63,0,0,0,2.13.66c2.12-1,4.33.3,6.54-.44,5.95-2,11.71,1,17.68.8,7.78.13,2.57-8.76-1.1-11.29C217.33,177.91,214.2,176.76,211.79,175.31Z"/><path class="cls-4" d="M143.43,217.8c2.65,1.85,6.22,1.36,9,3.42,4.32,3,4.42,4.8,2.26,9.52-1.76,4.18-7.26,5.49-6.7,10.85,1.07,4.71-11.71,20.19-13,10.69-1.21-5.58.86-11.93-2.45-16.89a1.4,1.4,0,0,1-.16-1.54c1.37-2.77,0-5.88-1.41-8.33-1.73-3.6-5.74-5.36-8.77-7.71-1-.48.5-1.47-.59-2-2.58-1.74-5-3.86-7.62-5.44-14.57-11.25-22.36-15.2-5.29-30.05,2.2-2.13-6.56-4.46-4.31-7.94,3-4.31,7-7.84,9.55-12.58,2.17-2.33,5.55-3.73,7.35-6.42-10,5.58-8.54,2.86-7-6.37-.7-10.62-3.81-21.34-6.76-31.54-3.09-7.27-6.92-5.4-12-8.49-.58-1.1-.11-3.23-1.22-3.77-5.56,0-11.09-1.88-16.63-1.31C70.56,102,63,97.1,56.19,98.24c-2.57,2.78-19.63,13.78-9.89,3,6.74-7.8-8.65-4.76-11.64-8-1-2.67,9.25.93,7.74-1.72-1.42-1-12.55-2.68-7.82-4.62,2.78.44,5.26,1.56,8.14,1.39-2.21-2-5.3-2.37-7.75-3.91-2.23-4.39,7.17,1.45,8.8,1.15-1-1.91-4.25-3.66-3.6-5.9,1-.79,1.7.83,2.34,1.42,3.89,4.41,8,8,14.1,8.68C61.9,94.58,69.39,93.33,76,94.25c7.57,3.48,10.43-2,18,3.31.59-2.52-.18-5.49,1-7.86,1.11-3.68,11.22-.76,14.76-1.63,4.95,0,6.6,5.54,7.22,9.55.84-2.47.09-5.79-1.14-8.2-.2-.44-.52-.83.13-1.27,1-1.33-1.8-.54-1.45-1.81.4-1.75-1.25-2.74-1.37-4.15a1.82,1.82,0,0,0-1.4-2.6c-3-1.77,2.06-4.36,1.67-6.64-2-12.84,13.65-19.83,23.59-13.07a15.29,15.29,0,0,0-4.83-.94c.81.55,1.72.94,2.58,1.64-1.47.32-2.69.07-4.09.71.74.35,1.5.21,2.15.54,0,.4-.53.49-.52,1a14.21,14.21,0,0,0,2.57-.37c.1-.34-.22-.49-.18-.74.55-.58,1.9.72,1.74-.72,5.78,5.06,10-2.44,15.95.61,4,1.42,4.46,6.52,8.5,7.77,3,.8,5.89,2.27,5.83,5.81-.55-.3-.82-.92-1.59-.94,0,2,.2,4-1.13,5.72a7.88,7.88,0,0,1-.35-2.47c-1.66,1.1-2.1,3.36-4.29,3.61,0-1,.72-2-.17-2.88-.34-.61-1.12-.39-1,.33a5,5,0,0,1-5.42,5.4c.11-.49.53-.8.56-1.36-1.46-.11-2.93-.29-3.89-1.7.92-.48,2.36.73,2.86-.65,1.2-2.18-1.39-4.11-3.23-5-4.69-1.35-3.36-8.56-7.3-8.44-1.61.83-.08,3.35-.36,4.82,1.28,6.25-10.23,11.12-2.72,16.13-4.53.71-9.83.37-14.49.14,3.61,2.79,9.93-.35,12.14,3.9,1.44,7-.58,15.53,5.72,20.48-3.79-.33-14.92-3.46-11.38,4.34,2.39,6.54,10.33,8.75,12,15.48a5.67,5.67,0,0,1-.29,4.35c-.29.54,0,.71.45.8,5.27,1.18,10.76.87,16,1.52.29.22.29.42,0,.64-2.57,1.27-1.17,2.77-.63,4.8-4.73,2.29-10.77,2.05-16,1.18,15.22,10.21-7.87,20.57,19.6,33.35a63.18,63.18,0,0,0-6.51,4.31,42.59,42.59,0,0,1,6.78,10.05c2.45-7,12.47-6.5,18.67-7.86-2.84-5.35,5.87-2.74,6.39-5.77-.46-1.82,2.38-1.26,2.71-2.76.75-7.22,7.71-9.94,13-4.84,3.65,4.82,11,1.79,16.48,7.58,9.74,8.42,6.3,14.67-6.13,11.19-4.64-1.91-9.34.78-13.9,0-1.05-.36-2.13.39-3.18.54-1.14.36-1.51-.11-2.11-1-6.31-.9-36.92,22.49-41.77,13-2.24-2-6-11.62-8.13-11.16-5.75,3-7.34-8.84-9.61-12.52-10.5,13.68-3.69,15.59-13.55,8.77-1-.71-1-.71-1.59.37-1.49,4.84-7,2.89-10.85,5.11,12.06,6,20.8,17.41,31,26.15.45.44.73.35,1-.15C141,218.81,142.23,217.55,143.43,217.8Z"/><path class="cls-5" d="M158.87,138.85c-5.73,0-11.59-.22-17.18-1.55,3.4-5.58-2.29-10.67-6.4-13.85-9.45-9.6-6.27-15,6.69-11.1-9.11-4.95-1.19-21.56-9.11-22.44-3.05-.1-6.48-.14-9-2,6.76.11,13.31-.55,19.94,1a7.84,7.84,0,0,0-1.37,8.26c1.36-1,2.32-2.15,3.6-3.28,1.54,2.11,2.32,3.37,4.94,1.94,2.3-.92,4.68-.12,7,.38,1.3.73,0,3.13.37,4.49.1-1.47,1.68-3.6.83-4.79-2.71-1.23-5.73-2.43-8.68-1.35-3.86,1.18-3.16-5.22-6.78-.45-.78-1.48.83-4.44,2.54-4.23,4.67,2.44,9.72,3.77,14.71,5.34-.42,4.87-2.64,14.16-9.42,10.64-.47-.21-.88-.23-1.2.25-2.55.77-5.72-2.2-7.37-4.11.78,5.47,4.52,9.31,8.58,12.46-1.5,3.12-.69,9.82-3.33,11.69a20.66,20.66,0,0,1-12.94-9.66C138.54,129.3,152.65,126.83,158.87,138.85Z"/><path class="cls-4" d="M169.69,98.26c2.9-6.16,7.12-11.8,9.51-18.14A1.55,1.55,0,0,0,178,78.39c-9.77-1.9-14.6-14.43-8.65-22.4.82-1.82,7.81-7.29,8.8-5.08.25,1.24-.6,3.12.58,3.94,1.25.4,2.45,2.06,3.78,1.64,2.43-1.19,4.05-2,3.47-5,0-.75.08-.79.79-.49a14.29,14.29,0,0,1,8.77,12.23c.81,6.62-3.27,11.41-7.36,16-1.12,3.6-3.58,4.66-6.32,7C179.16,91.38,178.57,103.36,169.69,98.26Z"/><path class="cls-5" d="M161.86,178.82c-27.65-11.59-4.38-23.46-20.4-33.73a32,32,0,0,0,16.77-.8c5.81,8.4-1.6,18.69,4,27C164.74,175.05,166.86,175.67,161.86,178.82Z"/><path class="cls-4" d="M151.52,114.43a17.67,17.67,0,0,1-8.87-13.11c1.52,1.72,5.23,5.59,7.58,4.49.37-.6.41-.59,1.07-.31,7,3.79,8.54-5.47,9.63-10.31,1.64.08,1.23,2.32,1.09,3.43,0,4,9.77,4.82,13,4.91a2.8,2.8,0,0,1,2.68,1.5c5.59,12-11.1,5.56-16.82,5.19-.56,0-.64,0-.68.56C160.33,117,155.2,113.73,151.52,114.43Z"/><path class="cls-6" d="M95,89.7a45.27,45.27,0,0,0-.61,8.46c-4-3.22-8.84-3.42-13.45-2-7.64-4-18.1.34-24.36-6.47,6.86-.14,14.23-1.43,21,0C83.41,92.36,89.22,90.71,95,89.7Z"/><path class="cls-7" d="M178.65,110.22c.11-2.24-.39-5.76-2.84-6.46a25.32,25.32,0,0,1-13.26-3c-1.73-.63-.51-2.53-.5-3.88,4.22.19,8.41,2.55,12.48,2.15,7.21-2.49,3.39-13.88,11.26-15.79-1.43,6.57-3.41,13-4.84,19.64C180.31,105.36,181.05,108.5,178.65,110.22Z"/><path class="cls-7" d="M99.34,197v.76c-9.54-6.78,1.4-15.9,5.73-22.22a40.15,40.15,0,0,1,4.71,4C105.4,184.56,97.69,189.16,99.34,197Z"/><path class="cls-7" d="M127.63,209c-6.58-4.86-11.78-12.45-19.66-15.1,3.06-1.65,6.51-1.71,9.7-2.53,14.13,15.4,3.51,12.29,27.21,0,9.48,15.65,8.73,17.29,26.3,9.1-8.93,6.07-18.58,11.53-27.75,17.39-4.19.52-9.07-6-11.55-9.24C130.52,205.86,129.42,208.5,127.63,209Z"/><path class="cls-3" d="M142.9,192.46c-20.72,11.67-12.17,14.19-25.23-1.14l2.28-4c2.44,1.68,4.71,3.49,7.33,5,.64-5.4,5.09-8.6,7.24-13.29C136.69,182.67,138.23,192.48,142.9,192.46Z"/><path class="cls-7" d="M116.11,68.86c.54-2.52.61-2.57,3-2.09,1.1.25,2.52.32,2.7,1.7,0,1.65,1.17,2.76,1.84,4,0,4.88,1.56,10.58-4.79,12.25,2.08-2.71-.87-6.46,2.12-8.64C123.48,72.87,119.27,69.32,116.11,68.86Z"/><path class="cls-5" d="M127.63,209c5.09-5.38,4.5,3.85,14.84,9.24-1.19.45-1.7,1.49-2.28,2.66C136,216.86,131.78,212.92,127.63,209Z"/><path class="cls-8" d="M125.61,80c.87-1.78,4.19-7,.52-7.22-.5.08-.68,0-.72-.48a1.65,1.65,0,0,1,3,.18C129.59,75.25,127.73,78.22,125.61,80Z"/><path class="cls-9" d="M114,78.21a7,7,0,0,1-1.53-.41,20.46,20.46,0,0,1,1.46-2.87C114.07,76.14,114,77.15,114,78.21Z"/><path class="cls-2" d="M99.34,197a1.61,1.61,0,0,1-.1-1A1.31,1.31,0,0,1,99.34,197Z"/><path class="cls-10" d="M181.2,60.31c-.14.82.38,2-.5,2.53-1.28.43-2.57,2.13-3.94,1.66-3.17-1.36-3.77-2.44-3.39-5.86.22-1.08,3.26-2.73,4.31-2.57C179.44,57.2,181.84,57.72,181.2,60.31Z"/></svg>