<svg id="Layer_1" data-name="Layer 1" xmlns="http://www.w3.org/2000/svg" viewBox="0 0 71.48 236.92"><defs><style>.cls-1{fill:#1ca19b;}.cls-2{fill:#84388d;}.cls-3{fill:#278ac9;}.cls-4{fill:#3f2b68;}.cls-5{fill:#40388b;}.cls-6{fill:#fff;}.cls-7{fill:#5e327a;}.cls-8{fill:#312425;}.cls-9{fill:#8d221d;}.cls-10{fill:#f0f0f6;}.cls-11{fill:#422d6a;}.cls-12{fill:#e45732;}.cls-13{fill:#f6cb1e;}.cls-14{fill:#312c31;}.cls-15{fill:#bfcad8;}.cls-16{fill:#26974c;}.cls-17{fill:#479e57;}.cls-18{fill:#5c3638;}.cls-19{fill:#3d2e35;}.cls-20{fill:#4385c0;}.cls-21{fill:#bdcbce;}.cls-22{fill:#c8c6d9;}.cls-23{fill:#e7c849;}.cls-24{fill:#862e24;}.cls-25{fill:#3d89c2;}.cls-26{fill:#53ab91;}.cls-27{fill:#e4743c;}.cls-28{fill:#8379a5;}.cls-29{fill:#6a5059;}.cls-30{fill:#51b272;}.cls-31{fill:#2e2324;}.cls-32{fill:#159548;}.cls-33{fill:#f4cc21;}.cls-34{fill:#83408d;}.cls-35{fill:#51b174;}.cls-36{fill:#40388a;}.cls-37{fill:#23984b;}.cls-38{fill:#cacfdd;}.cls-39{fill:#d8b93e;}.cls-40{fill:#a3c167;}.cls-41{fill:#d4d1e3;}.cls-42{fill:#5e317a;}.cls-43{fill:#bc2d28;}.cls-44{fill:#40398b;}.cls-45{fill:#2f2425;}.cls-46{fill:#8d231d;}.cls-47{fill:#f6cd1f;}.cls-48{fill:#f5cc20;}.cls-49{fill:#e35532;}.cls-50{fill:#ee8623;}.cls-51{fill:#e55632;}.cls-52{fill:#e55732;}.cls-53{fill:#ec8725;}.cls-54{fill:#b73029;}.cls-55{fill:#b62f29;}.cls-56{fill:#b4392f;}.cls-57{fill:#f4cb25;}.cls-58{fill:#e46c3c;}.cls-59{fill:#8b241e;}.cls-60{fill:#42322c;}.cls-61{fill:#b97a70;}.cls-62{fill:#d2c4c9;}.cls-63{fill:#ad3e35;}.cls-64{fill:#ba382d;}.cls-65{fill:#d76345;}.cls-66{fill:#882921;}.cls-67{fill:#8f3026;}.cls-68{fill:#4c448b;}.cls-69{fill:#bb332c;}.cls-70{fill:#e48e33;}.cls-71{fill:#4c4144;}.cls-72{fill:#b6b9d1;}.cls-73{fill:#b0352d;}.cls-74{fill:#e5c042;}.cls-75{fill:#7398a7;}.cls-76{fill:#a45d59;}.cls-77{fill:#c8bbc6;}.cls-78{fill:#6889a9;}.cls-79{fill:#4a4046;}.cls-80{fill:#8c221d;}.cls-81{fill:#e65632;}.cls-82{fill:#d2d0df;}.cls-83{fill:#332528;}.cls-84{fill:#644380;}.cls-85{fill:#bfb3c3;}.cls-86{fill:#342a2d;}.cls-87{fill:#c6c3d8;}.cls-88{fill:#463c45;}.cls-89{fill:#3f2e3e;}.cls-90{fill:#b3aec7;}.cls-91{fill:#ab4b35;}.cls-92{fill:#41363e;}.cls-93{fill:#8f8693;}.cls-94{fill:#aba5b0;}.cls-95{fill:#823641;}.cls-96{fill:#ec8425;}.cls-97{fill:#372828;}.cls-98{fill:#c8bfd0;}.cls-99{fill:#c7b7c2;}.cls-100{fill:#7f7796;}.cls-101{fill:#d5d4e5;}.cls-102{fill:#402b68;}.cls-103{fill:#ed8524;}.cls-104{fill:#2f2426;}.cls-105{fill:#8f2921;}.cls-106{fill:#84398d;}.cls-107{fill:#ee8524;}.cls-108{fill:#cdcadb;}.cls-109{fill:#8c231d;}.cls-110{fill:#423a8a;}.cls-111{fill:#e45632;}.cls-112{fill:#382b28;}.cls-113{fill:#e35833;}.cls-114{fill:#3e2d27;}.cls-115{fill:#c7cbd6;}.cls-116{fill:#89428a;}.cls-117{fill:#542f39;}.cls-118{fill:#ccc4d6;}.cls-119{fill:#ea7036;}.cls-120{fill:#d3d0dd;}.cls-121{fill:#7b397d;}.cls-122{fill:#9968a5;}.cls-123{fill:#a4622f;}.cls-124{fill:#8f251e;}.cls-125{fill:#822923;}.cls-126{fill:#2e86c1;}.cls-127{fill:#723931;}.cls-128{fill:#916d46;}.cls-129{fill:#b1aac5;}.cls-130{fill:#352728;}.cls-131{fill:#e78031;}.cls-132{fill:#f1a82b;}.cls-133{fill:#843c8d;}.cls-134{fill:#423d8a;}.cls-135{fill:#e88529;}.cls-136{fill:#d6d5e1;}.cls-137{fill:#cdd1c4;}.cls-138{fill:#d5b7ae;}.cls-139{fill:#98af9f;}.cls-140{fill:#4d416d;}.cls-141{fill:#888086;}.cls-142{fill:#ed8623;}.cls-143{fill:#d5c2c3;}.cls-144{fill:#932e20;}.cls-145{fill:#458749;}.cls-146{fill:#895861;}.cls-147{fill:#ee8523;}.cls-148{fill:#e65834;}.cls-149{fill:#eb8525;}.cls-150{fill:#e15532;}.cls-151{fill:#d4d2e0;}.cls-152{fill:#ec8423;}.cls-153{fill:#ccc4cc;}.cls-154{fill:#8d2c21;}.cls-155{fill:#ea853c;}.cls-156{fill:#e15c34;}.cls-157{fill:#58302c;}.cls-158{fill:#d4cdd2;}.cls-159{fill:#e6812d;}.cls-160{fill:#d5632b;}.cls-161{fill:#e09937;}.cls-162{fill:#cf9c94;}.cls-163{fill:#5c3450;}.cls-164{fill:#e05732;}.cls-165{fill:#e1ba27;}.cls-166{fill:#63322a;}.cls-167{fill:#df7f27;}.cls-168{fill:#e75c33;}.cls-169{fill:#f1a835;}.cls-170{fill:#8c251e;}.cls-171{fill:#452d2b;}.cls-172{fill:#4d3938;}.cls-173{fill:#f6cd1d;}.cls-174{fill:#d66238;}.cls-175{fill:#422e69;}.cls-176{fill:#41398b;}.cls-177{fill:#8d747c;}.cls-178{fill:#c3a39f;}.cls-179{fill:#d4d4e4;}.cls-180{fill:#312526;}.cls-181{fill:#502f36;}.cls-182{fill:#63303b;}.cls-183{fill:#713634;}.cls-184{fill:#ea7b49;}.cls-185{fill:#81388a;}.cls-186{fill:#723b76;}.cls-187{fill:#382c31;}.cls-188{fill:#9e74ab;}.cls-189{fill:#43323c;}.cls-190{fill:#4e2f39;}.cls-191{fill:#3b2d33;}.cls-192{fill:#b297c0;}.cls-193{fill:#34262c;}.cls-194{fill:#c6bbd6;}.cls-195{fill:#50394d;}.cls-196{fill:#743977;}.cls-197{fill:#b49ac2;}.cls-198{fill:#633764;}.cls-199{fill:#332626;}.cls-200{fill:#b9322a;}.cls-201{fill:#543735;}.cls-202{fill:#e15936;}.cls-203{fill:#895043;}.cls-204{fill:#9a7f38;}.cls-205{fill:#2f2424;}.cls-206{fill:#e45633;}.cls-207{fill:#945c9e;}.cls-208{fill:#bfb0cd;}.cls-209{fill:#8a4693;}.cls-210{fill:#a176ad;}.cls-211{fill:#a984b3;}.cls-212{fill:#915297;}.cls-213{fill:#814188;}.cls-214{fill:#ccc6dc;}.cls-215{fill:#a178ae;}.cls-216{fill:#d1ccdb;}.cls-217{fill:#943733;}.cls-218{fill:#89428b;}.cls-219{fill:#a2635c;}.cls-220{fill:#5e2d55;}.cls-221{fill:#f5cc1e;}.cls-222{fill:#322626;}.cls-223{fill:#433628;}.cls-224{fill:#f4ca20;}.cls-225{fill:#882e23;}.cls-226{fill:#422c29;}.cls-227{fill:#8d5d38;}.cls-228{fill:#584a64;}.cls-229{fill:#c09e9b;}.cls-230{fill:#bb2d28;}.cls-231{fill:#56373c;}.cls-232{fill:#813a8b;}.cls-233{fill:#914577;}.cls-234{fill:#956b6e;}.cls-235{fill:#422f2a;}.cls-236{fill:#8a6841;}.cls-237{fill:#f3c523;}.cls-238{fill:#f0c12b;}.cls-239{fill:#7b5d36;}.cls-240{fill:#ba4b2e;}.cls-241{fill:#523c31;}.cls-242{fill:#704c39;}.cls-243{fill:#7f6a3e;}.cls-244{fill:#a05738;}.cls-245{fill:#5f4537;}.cls-246{fill:#c36b36;}.cls-247{fill:#c4722c;}.cls-248{fill:#945b2f;}.cls-249{fill:#693930;}.cls-250{fill:#43342c;}.cls-251{fill:#c04e38;}.cls-252{fill:#3a2828;}.cls-253{fill:#9b593d;}.cls-254{fill:#e5bf34;}.cls-255{fill:#3a2929;}.cls-256{fill:#e65732;}.cls-257{fill:#ee8728;}.cls-258{fill:#664830;}.cls-259{fill:#ef8c28;}.cls-260{fill:#9e4b35;}.cls-261{fill:#664234;}.cls-262{fill:#f2ab2a;}.cls-263{fill:#f1a82e;}.cls-264{fill:#f09f38;}.cls-265{fill:#a279af;}.cls-266{fill:#e48537;}.cls-267{fill:#4c383b;}.cls-268{fill:#392933;}.cls-269{fill:#5e3670;}.cls-270{fill:#563b57;}.cls-271{fill:#5e3d5f;}.cls-272{fill:#33262d;}.cls-273{fill:#5c332c;}.cls-274{fill:#ed8925;}.cls-275{fill:#745f37;}.cls-276{fill:#813b83;}.cls-277{fill:#a7716e;}.cls-278{fill:#966b3f;}.cls-279{fill:#d95134;}.cls-280{fill:#e15631;}</style></defs><path class="cls-1" d="M71.42,6.56V35.91c-1.49,1.83-2,4.45-4.33,5.59-1.46-.16-.78.86-.82,1.49-2.27,3.92-4.65,7.76-8.89,9.9a1.81,1.81,0,0,1-1.12-.36,24.28,24.28,0,0,0-12.85-3.39,15.69,15.69,0,0,0-3.35.6,16.14,16.14,0,0,0-2.94.25c-1.53.52-2.17,2-1.68,3.82.4.73,1,1.36,1.39,2.07a2.08,2.08,0,0,1,.2.85C37,58,36.15,58.9,35.84,60c-.27.65-.68,1.22-1,1.84a1.75,1.75,0,0,1-1.83.9,4,4,0,0,1-1.36-.66,13.58,13.58,0,0,1-4.4-3.49c-2.91-3.18-6.07-6.13-8.69-9.57-.75-1-1.88-1.86-1.24-3.38,1.18-.21,1.18-.21,5,1.32-2.42-2.58-5.27-4.05-8.11-5.54-.71-.37-1.54-.57-2-1.37C9.79,34.81,6.8,30,1.74,26.84c-.65-.41-1.53-.69-1.49-1.73q0-8.46,0-16.91A15.85,15.85,0,0,1,.46,5.36,5.6,5.6,0,0,1,6.24.46q29.68,0,59.38,0A5.49,5.49,0,0,1,71,4.79,6.6,6.6,0,0,0,71.42,6.56Z"/><path class="cls-2" d="M71.42,221.4v8.16c-.36,1.61-.38,3.35-1.8,4.56a4.05,4.05,0,0,1-2.84,1.33c-11.52,0-23.08.53-34.57-.15-9.48-.57-19,.11-28.41-.68a4.31,4.31,0,0,1-.8-.13c-2-.91-2.62-2.73-2.66-4.67-.13-5-.26-10,.07-15,2.4-1.35,5-.55,7.5-.64a32.87,32.87,0,0,1,3.42.16,3.11,3.11,0,0,1,.72.16c.49.21,1,.59,1.51.53,3.07-.33,6,1.07,9,.91a2.19,2.19,0,0,1,1.2.11c1.83,1.08,3.62,1.68,5.55.15.4-.31,1.09-.07,1.53.27,1.28,1,2.77.9,4.25.94a74.11,74.11,0,0,1,10.18,1.37,3.19,3.19,0,0,0,.79.17c4.47-.28,8.81,1.22,13.28.92,3.58-.24,7,1.18,10.65.89A1.94,1.94,0,0,1,71.42,221.4Z"/><path class="cls-3" d="M71.42,139.46v6.12c-.35.36-.69.74-1.27.68a1.15,1.15,0,0,1-.53-.26,6,6,0,0,1-.79-2.18c-.19-1.32-1.47-1.78-2.14-2.72a11.88,11.88,0,0,1-.69-1.92c-.2-.47-.36-1-.54-1.44-1.27-1.9-.76-4-.72-6.06a3.39,3.39,0,0,1,.18-1.59c.92-1.81.14-2.94-1.43-3.78a3,3,0,0,1-1-1.24,13.6,13.6,0,0,1-.25-2.29c0-.92.15-1.84,0-2.75-.76-1.27-1.64-1-2.56-.2-1,1.18-.29,2.71-.79,4a4.08,4.08,0,0,1-1.3,1.69A11.94,11.94,0,0,1,54,126.57a3.7,3.7,0,0,1-3.52-2.43c1.11-3.1,2.93-5.84,4.37-8.77.76-1.26,1.46-2.56,2.2-3.84a2.78,2.78,0,0,1,.36-.76,8.71,8.71,0,0,1,2.72-2A2.59,2.59,0,0,0,61.66,106a3.44,3.44,0,0,1,.05-.85c.49-2.52.19-3.24-1.9-4.49A9.13,9.13,0,0,1,58,99.44c-2.08-2.1-4.47-2.13-7-1.12a6.74,6.74,0,0,0-2.27.79c-.86.56-.52,1.22-.15,1.88a1.63,1.63,0,0,1,.1.84,1.87,1.87,0,0,1-.2.53,5.15,5.15,0,0,0,.31,4.57,8.27,8.27,0,0,1,1,3.93,3.17,3.17,0,0,1-.16,1.26,49.15,49.15,0,0,0-1.93,5.16c-.6,1.86-2.13,2.71-3.76,3.46-1.24.44-2.17-.78-3.37-.63a3.12,3.12,0,0,1-1.65-.24,2.52,2.52,0,0,1-1.27-2.15,30.35,30.35,0,0,0-.78-3.93c.21-1.94-.6-3.81-.37-5.74a12.42,12.42,0,0,1,2.77-5.92,1.9,1.9,0,0,0,.2-2.68,4.28,4.28,0,0,1-1-2.58c.21-2.74.89-3.46,2.9-3.05.76.47.61,1.77,1.74,1.9,1.63.27,2.61-.67,3.46-1.86.5-.71,1.07-1.37,1.5-2.12a7.38,7.38,0,0,1,.9-1,10.76,10.76,0,0,1,1-.88,7.63,7.63,0,0,0,2.69-1.75c1.26-1.06,1.27-2.66,1.73-4a33.53,33.53,0,0,1,1.3-3.64,3.32,3.32,0,0,0,.6-3.18c-.26-1.62.76-3,.78-4.61a2.64,2.64,0,0,1,.36-1.55c.73-.7,1.35-.06,2,.15,1.35,1,2.83.5,4.29.37a9.5,9.5,0,0,1,2,1.72c1.72,3.13,2.79,6.54,4.21,9.8a36.43,36.43,0,0,1,1.49,5.41v8.16a7.75,7.75,0,0,0-2.32,1.91c-1.29,1.69-1.3,3.13.11,4.75a17.3,17.3,0,0,1,2.21,3.12v25.68a29.14,29.14,0,0,0-1.11,4C70.05,137.44,70.8,138.43,71.42,139.46Z"/><path class="cls-4" d="M71.42,203.87v10.2c-.5,2.38-1,2.65-4.65,2.25-8.7,0-17.4,0-26.11,0a43,43,0,0,1-10.27-.18c-1.12-.2-2.12.33-3.19.34a33.26,33.26,0,0,1-6.42-.54,46.42,46.42,0,0,0-7.6-.71,3.46,3.46,0,0,1-1.37-.34l0,0c-.45-.55-1.09-.4-1.67-.42s-1.39-.12-1.42-1a1,1,0,0,1,1.16-1.17c-.75-.26-2.07,1.15-2.49-.69.63-.71,1.47-.53,2.26-.57a58.47,58.47,0,0,0,6.62-.16,3.51,3.51,0,0,1,1.76-.07A5.84,5.84,0,0,0,23.22,209,3.83,3.83,0,0,0,25,207c1.47-1.75,3-3.44,5.29-4.13A7.59,7.59,0,0,0,33,201a21.52,21.52,0,0,1,9.22-2.65,3.06,3.06,0,0,1,1.52.29c1.13,1.39-.68,2.09-.72,3.32,1.73-.43,2.55-2.62,4.56-2.43a7.81,7.81,0,0,1,2.92,1.76c.4,1.19-.58,1.52-1.27,2s-1.72.8-2.2,1.87c2.27-.3,3.12-2.53,4.91-3.36a2.46,2.46,0,0,1,.85-.16c1.48-.06,3,.09,3.68-1.76.18-.39.55-.69.55-1.17a4.24,4.24,0,0,0-.86-1.77c-.35-.54-.54-1.1.25-1.47A2.17,2.17,0,0,1,58,196c1.52,1.3,3.37,2.12,4.87,3.44a2.14,2.14,0,0,1,.64,1c1.91,3.36,3.16,4,7,3.4A1.44,1.44,0,0,1,71.42,203.87Z"/><path class="cls-5" d="M71.42,168.81v11c-.54.73-.78,1.73-1.79,2.05a9.87,9.87,0,0,0-4.82,1.73c-2.08,1.46-4.62,1.74-7,2.47-1.38.43-2,1.05-1.55,2.64.57,2.11-.05,2.67-2.22,2.38a5.45,5.45,0,0,1-.55-.25,58.93,58.93,0,0,1-5.43-5.17c-.43-1.27-1.56-2.1-2.07-3.32a1.61,1.61,0,0,1,0-.58c1-1.65,2.64-2.48,4.16-3.49a5.2,5.2,0,0,1,.53-.26,6.93,6.93,0,0,0,4-3.57,9.78,9.78,0,0,1,5.43-4.26,7,7,0,0,1,3.43-.38c.8.17,1.39-.34,2-.63,1.45-.29,3-.17,4.36-.71A1.4,1.4,0,0,1,71.42,168.81Z"/><path class="cls-6" d="M.53,214.87c0,4.59-.08,9.18-.05,13.77a8,8,0,0,0,2.4,5.42c1.08.55,2.31.72,3.4,1.27.56.38,1.32.63,1.06,1.57-2.16,0-4.32,0-6.49,0-.7,0-.95-.13-.82-.84a5.78,5.78,0,0,0,0-1Q0,118.47,0,1.87C0,.35.35,0,1.87,0q34,.09,67.93,0c1.39,0,1.8.26,1.66,1.67-.15,1.62,0,3.26,0,4.89-.57-.46-.48-1.22-.81-1.8C69.28,2.4,67.69.84,64.6.86,45.57,1,26.54.92,7.51.92c-4.15,0-7,2.63-7,6.88-.09,6,0,11.93,0,17.9a3.71,3.71,0,0,1,.64,2.92c-.26,1.4.31,2.81-.08,4.21.32,9.52.26,19,.05,28.56.25,1.28-.11,2.56,0,3.83A21.62,21.62,0,0,1,1.1,69.4a52.9,52.9,0,0,1,0,8.35,17.61,17.61,0,0,1,0,4,13.66,13.66,0,0,1,0,1.43c-.25,1.37.25,2.76-.06,4.14,0,.33,0,.67,0,1s0,.66,0,1,0,.67,0,1a6.71,6.71,0,0,1,0,2.05,14.38,14.38,0,0,1,0,3.65,112.46,112.46,0,0,1,0,12c.22,6.06.26,12.12,0,18.17-.18,1.18.14,2.35,0,3.52.27,5.51.25,11,0,16.51a57.49,57.49,0,0,1,0,8.9c0,.39,0,.77,0,1.16.19,4.39.26,8.79,0,13.18A36.45,36.45,0,0,1,1.07,176a20.47,20.47,0,0,1,0,2.93,7.91,7.91,0,0,0,.07,1.82,19.5,19.5,0,0,1-.07,3.33,58.08,58.08,0,0,1,0,8.75,30.18,30.18,0,0,1,0,6,17.66,17.66,0,0,1,0,3.25,8.33,8.33,0,0,1,.08,1.73,15,15,0,0,0-.08,2,9.55,9.55,0,0,1,0,1.31c0,.54,0,1.07,0,1.61a6.67,6.67,0,0,1,0,1.61c0,.43,0,.86,0,1.3,0,.22,0,.44,0,.66A3.16,3.16,0,0,1,.53,214.87Z"/><path class="cls-7" d="M67,215.73a12.17,12.17,0,0,1,1.81,0,2.11,2.11,0,0,0,2.66-1.64v7.33c-5.83.37-11.57-.93-17.4-1a49.38,49.38,0,0,1-8.1-.68A129.06,129.06,0,0,0,32.33,218c-1.68-.12-3.17-1.87-4.92.08a1.72,1.72,0,0,1-2.07-.27c-1.21-1.57-2.92-1-4.42-1.33-3-.73-6.22-.2-9.11-1.55,9.58,1,19.2.75,28.81.82a2.81,2.81,0,0,0,1.94.37q11.22,0,22.45,0A2.82,2.82,0,0,0,67,215.73Z"/><path class="cls-8" d="M63.77,126c2.4.75,2.85,1.8,1.77,4a8.24,8.24,0,0,0-.36,1.34c-1,2-2.46,3.68-3.08,5.85a3.2,3.2,0,0,0,.47,4.2c.94,1,2.15.85,3.27.13a2.31,2.31,0,0,1,1.29-.45c1,.47,2.05.91,2.07,2.28-.92,1-2.23.74-3.35,1.11a7.69,7.69,0,0,0-2.82,1c1.52,1.53,3.52.76,5.17,1.34,1.24.74,2.79,1.14,3.22,2.81v1.63a.88.88,0,0,1-.8.25,3,3,0,0,0-3.48.19,3.59,3.59,0,0,1-2.5-.07,28.32,28.32,0,0,0-4.92-4.42,19.93,19.93,0,0,0-3.36-9.14,5.83,5.83,0,0,1,0-3.41c.92-1.27.58-2.73.64-4.13,0-.64,0-1.29,0-1.93a2.56,2.56,0,0,1,.2-.91c.66-2,2.73-3.15,3.46-5.16a12.07,12.07,0,0,1,1.15-3,.8.8,0,0,1,.83-.22c.6,1.12.28,2.3.2,3.46a3.77,3.77,0,0,0-.36,2.53,3.62,3.62,0,0,1-.71,2.86,27.48,27.48,0,0,0-1.42,2.46c-.23.53-.74,1.28,0,1.61s1.37-.35,1.67-1.06a6.75,6.75,0,0,0,.23-2C62.42,127.93,62.6,126.72,63.77,126Z"/><path class="cls-9" d="M71.42,187.16v15.9a4.83,4.83,0,0,1-6.4-1.15c-.32-1.09.39-1.76,1-2.49,2-2.41,2.06-2.77.4-5.5-.8-1.33-1.77-2.55-2.44-4-.36-.77-.92-1.58-.06-2.41A8.27,8.27,0,0,1,71.42,187.16Z"/><path class="cls-10" d="M7.34,236.9l-1.22-1.21a2.28,2.28,0,0,1,2.05-.59A171,171,0,0,0,27.78,235c1.17-.1,2.26.31,3.41.31,11.28,0,22.55,0,33.82,0a4.18,4.18,0,0,0,2.36-.38c2.48-.9,3.15-3.2,4-5.32,0,2-.06,4.08,0,6.11,0,1-.23,1.25-1.24,1.25-12.78,0-25.55,0-38.33,0H26.81c-2.86-.48-5.75-.18-8.62-.18a67.29,67.29,0,0,0-9.63.18Z"/><path class="cls-11" d="M54,190.6c.62,0,1.38.58,1.83-.22.3-.56,0-1.11-.3-1.7-.81-1.62-.21-2.65,1.51-3.16,3.2-1,6.62-1.3,9.28-3.73.93-.85,2.36-.18,3.54-.43a1.22,1.22,0,0,1,1.54.09v4.89c-2.06.84-4.21.22-6.31.43-1.14-1.13-1-1.53,1-2.58-1.58.4-2.19,1.65-3,2.69a9.46,9.46,0,0,0-3.81,4.79,1.8,1.8,0,0,1-.95.83,4.56,4.56,0,0,1-3.45-.45C54.39,191.75,53.62,191.53,54,190.6Z"/><path class="cls-12" d="M71.42,157v4.89c-1.31.13-2.38-.68-3.59-.92a1.93,1.93,0,0,1-.46-.35c-1.41-1.52-3-1.42-4.71-.53-3.06.56-4.06-.74-3.06-4a10.24,10.24,0,0,0,.85-2.48c.19-.69.29-1.5,1.21-1.68A8.52,8.52,0,0,0,65,153.14a1.65,1.65,0,0,1,1.58,1c-.06,1.1.58,1,1.33.78A10.51,10.51,0,0,1,71.42,157Z"/><path class="cls-13" d="M66.19,154.53c-.16-1-.93-.81-1.55-.74a3.18,3.18,0,0,1-3.1-1.37,1.72,1.72,0,0,1,.5-1.33,2.18,2.18,0,0,1,2.42,0,8.31,8.31,0,0,0,2.9.09,3.11,3.11,0,0,1,2.18-.3,4.94,4.94,0,0,1,1.88,2V157c-1.58.27-2.43-1.08-3.64-1.64C67.33,154.92,66.53,155.17,66.19,154.53Z"/><path class="cls-14" d="M71.42,106.44a10.59,10.59,0,0,1-3.59-3.91c-1.32-2.25,1.12-6,3.59-5.87v2a3.39,3.39,0,0,0,0,4.07Z"/><path class="cls-15" d="M71.42,88.5c-1.28-2.19-1.78-4.71-2.81-7-1.19-2.63-2.2-5.35-3.28-8a1.21,1.21,0,0,1,1.5-.32c1.73,2.35,2.39,5.21,3.76,7.74.51.83.16,1.94.83,2.73Z"/><path class="cls-16" d="M67,41.29a17.57,17.57,0,0,0,2.79-3.83c.39-.66.77-1.42,1.67-1.55v8.16A4.9,4.9,0,0,1,67,41.29Z"/><path class="cls-17" d="M71.42,83.61c-1.16-.4-.88-1.59-1.29-2.41.39-.93.06-1.88.07-2.82,0-9.71,0-19.41,0-29.12a6,6,0,0,1,.52-3.37.51.51,0,0,1,.68-.19Z"/><path class="cls-18" d="M58.89,191.24c.82-2,1.71-3.89,4-4.55.43-.64,1-.89,1.63-.38l6.89,0v.82c-2.58.05-5.2-.25-7.68.82-.84.77-1.67,1.55-2.46,2.38C60.66,191,60,191.87,58.89,191.24Z"/><path class="cls-19" d="M65.34,201.36a3.78,3.78,0,0,0,3.68,1.7h2.4v.81a5.57,5.57,0,0,1-7.79-1.9c-.23-.47-.47-.93-.71-1.4C64.09,199.72,64.72,200.52,65.34,201.36Z"/><path class="cls-20" d="M67.77,160.67a3.49,3.49,0,0,1,3.65,1.21V168a.47.47,0,0,1-.54.06c-1.58-1.94-2.32-4.33-3.38-6.56A1,1,0,0,1,67.77,160.67Z"/><path class="cls-21" d="M71.42,45.7l-.37-.08c-1.87-.52-3.88-.81-4.9-2.82L64.4,41.24c1.07-.93,1.78-.06,2.56,0l4.46,2.78Z"/><path class="cls-22" d="M71.21,168l.11.09.1-.09v.81a18.71,18.71,0,0,1-6.08.94c-.85.19-1.1-.19-.91-1a2.36,2.36,0,0,1,1.61-.71C67.76,167.25,69.47,166.8,71.21,168Z"/><path class="cls-6" d="M8.56,236.9a1.78,1.78,0,0,1,1.5-.41H25.32a1.76,1.76,0,0,1,1.49.41Z"/><path class="cls-23" d="M69.79,136.25a5.28,5.28,0,0,1,1.63-4.13v4.08c-.3.3-.15,1-.81,1S69.89,136.71,69.79,136.25Z"/><path class="cls-24" d="M71.42,149.65l-3.28-2.39a3.14,3.14,0,0,1,1.74-1.32.51.51,0,0,1,.34.11c.57.2.79.78,1.2,1.16Z"/><path class="cls-25" d="M71.42,102.77c-1.94-1.4-1.94-3.12,0-4.07Z"/><path class="cls-26" d="M69.79,136.25c.56.74,1.11.68,1.63-.05v3.26A2.47,2.47,0,0,1,69.79,136.25Z"/><path class="cls-27" d="M71.42,152.92a3.11,3.11,0,0,1-1.78-1.56.62.62,0,0,1,.9-.12l.88,0Z"/><path class="cls-28" d="M71.42,181.45l-1.54-.09c.58-.44.54-1.52,1.54-1.54Z"/><path class="cls-29" d="M71.42,147.21c-.67-.1-1.15-.4-1.2-1.16l1.2-.47Z"/><path class="cls-30" d="M.52,61.51V32.69c1.05-.63,1.62.31,2.23.8C4.9,35.22,6.84,37.19,9,38.91S13.48,42.4,15.84,44c.67.45,1.42.82,1.61,1.72a2.77,2.77,0,0,0,.94,2.17,161.93,161.93,0,0,0,11.46,12.4,14.29,14.29,0,0,0,2.22,1.3c-1.58,1.58-2.15,1.56-4-.17a4.78,4.78,0,0,1,.36,2.11c-.09.56.09.94.73.92A1.59,1.59,0,0,1,31,66.05a2.37,2.37,0,0,1-1.56,2.55,4.92,4.92,0,0,1-.84.3c1.59,0,3.58-.94,5.3.64a.91.91,0,0,1-.33.9,6.89,6.89,0,0,1-3.94.33,49.91,49.91,0,0,1-7.13,0,12,12,0,0,0-3.26,1.57,2.83,2.83,0,0,1-2.47.57c-1.26-.85-2.2-2.18-3.81-2.49a23,23,0,0,0-6-6.68,5.52,5.52,0,0,0-4-1.49C2.05,62.23,1.12,62.37.52,61.51Z"/><path class="cls-31" d="M35,54.08c-1-3.64.57-5.23,4.8-4.88.52-.06,1,0,1.57-.05,1.16-.15,2.22.58,3.38.36A18.27,18.27,0,0,1,57,54.69a23.49,23.49,0,0,1,1.82,2.17,5.78,5.78,0,0,1,.22,2.86A11.84,11.84,0,0,0,59,64.2a21.92,21.92,0,0,1-1.17,3.6,72.38,72.38,0,0,1-7.57,2.82,3.61,3.61,0,0,1-3.74-1,13,13,0,0,1-3.24-4.62c-1.08-2.5-2.63-4.59-5.31-5.57-.78-.77-.29-2.14-1.3-2.8L36.48,56c.92-1.16,2.24-.85,3.37-.76,2.68.22,5-.31,6.87-2.53-1.13-.39-2.34,0-3.5-.26a3.49,3.49,0,0,0-2.5.47,1.62,1.62,0,0,1-1.37.09C37.54,52,36.19,52.8,35,54.08Z"/><path class="cls-32" d="M58.45,59.85l-.1-3.14c-.44-.79-.54-1.74-1.06-2.51a1.46,1.46,0,0,1,.27-1.51c.86-1.75,2.78-2.36,4-3.88,1.57-2,2.74-4.28,4.62-6,1.64.93,3.49,1.5,4.9,2.82Q71,62.33,71,79c0,.79.44,1.86-.87,2.17-1.26-2.52-2.71-5-3.29-7.78.85-3.08-.35-5.87-1.25-8.69a5.55,5.55,0,0,0-5.19-4.08C59.68,60.58,58.89,60.63,58.45,59.85Z"/><path class="cls-33" d="M16.74,72.71c1.92-.39,3.28-2,5.19-2.44,1.77,1.08,3.75.79,5.68.85s4.08.25,6-.84l.15-.89a3.17,3.17,0,0,1,0-2c.52-1.9-.33-4,.76-5.82l.84-1.61c.75-.06,1,.52.93,1-.07,1.4.57,2.61.85,3.91,0,1.21-.44,2.38-.31,3.63.51,0,1-.46,1.51-.19a2.17,2.17,0,0,1,1.11,1.16,8.65,8.65,0,0,1-.9,6.74,1.7,1.7,0,0,1-1.49.68,8.78,8.78,0,0,0-5-1.32C30.75,75.1,29.31,75,28.19,74,27.13,72.9,26,73.84,25,74a8.71,8.71,0,0,1-2,.1A5.14,5.14,0,0,0,18.29,76C16.77,75.52,16.4,74.71,16.74,72.71Z"/><path class="cls-34" d="M17.45,45.7C11.14,42.25,6.22,37,.52,32.69V28.77c.62-.51,1,.05,1.28.41A60,60,0,0,0,12.6,40c3.78,1.66,7.44,3.49,10.2,6.7.28.32,1,.53.63,1.09s-1,.07-1.42-.11C20.49,47.05,19.13,46,17.45,45.7Z"/><path class="cls-35" d="M12.6,40C9,38.6,6.71,35.66,4.16,33,2.87,31.65,2,29.9.51,28.77V25.7c2.23.29,3.62,2,5.12,3.35,3.08,2.71,5,6.39,6.92,10C12.69,39.29,12.59,39.69,12.6,40Z"/><path class="cls-36" d="M43.07,51.87c1.41,0,2.83,0,4.24,0,.48,0,1,0,1,.7s-.19.77-.73,1c-1.07.42-2.28.66-2.75,2.06-.19.59-1.09.32-1.67.33l-6.67.1c-.83-.38-1.06-1.24-1.53-1.91.77-2.4,1.93-3,4.1-1.89a3,3,0,0,0,1.49.38C41.27,51.93,42.34,52.52,43.07,51.87Z"/><path class="cls-37" d="M34.2,67.72c-.24.53.19,1.26-.49,1.67H26.33c.89-1.18,2.16-.82,3.2-1.47a1.89,1.89,0,0,0,.86-2.39c-.26-1.1-1.05-.38-1.65-.32-1,.1-2,.05-1.11-1.36,1-1.61-.8-2.52-1.05-4.24,2,.75,3,4,5.49,2l1,.89A11.54,11.54,0,0,1,34.2,67.72Z"/><path class="cls-38" d="M57.56,52.69l.14,1.51c.24.42.36.88-.07,1.22s-.58,0-.79-.28a20.37,20.37,0,0,0-12.16-5c-1-.59-2.22-.44-3.31-.71l-1.61-.23a21.33,21.33,0,0,1,9.54-.06A19.84,19.84,0,0,1,57.56,52.69Z"/><path class="cls-39" d="M36.58,65.34c-.89-1.69-.61-3.66-1.27-5.4,0-1.28.95-2.15,1.33-3.26,2-.12,1.63,1.06,1.24,2.26a12.56,12.56,0,0,0-.48,4.81C37.51,64.37,37.52,65.16,36.58,65.34Z"/><path class="cls-40" d="M34.2,67.72C33.64,66,32.64,64.39,33,62.46c.71,0,1.08-.44,1.46-.91C34.29,63.6,35,65.69,34.2,67.72Z"/><path class="cls-41" d="M67.37,234.88c-.6,1.07-1.63.78-2.54.78-11.49,0-23-.18-34.47.09q-8.89.21-17.8.36c-2.17,0-4.29-.32-6.44-.42a4.4,4.4,0,0,1-3.24-1.63c7.91,0,15.85-.43,23.71.18C40.19,235.3,53.79,234.33,67.37,234.88Z"/><path class="cls-42" d="M.53,214.87V212c1.84-1.18,3.87-.41,5.82-.56a1.45,1.45,0,0,1,1,.51c1.14,0,2.29,0,3.43.06.49,0,1.07.1.88.77-.14.49-.65.42-1,.17-.64-.43-1.34-.74-1.51.31s.74.72,1.3.76,1.26,0,1.36.83Z"/><path class="cls-43" d="M38.84,96.89a10.72,10.72,0,0,1-.67,7.8c-.55,1-.93,2.19-1.38,3.28-.59,1.92.52,4-.44,5.86a4.94,4.94,0,0,0-2.88,5,2.41,2.41,0,0,1-2.15,2.71,1.49,1.49,0,0,1-.95-.31,2.11,2.11,0,0,1-.36-1.92,5.6,5.6,0,0,1,.9-1.62,2.09,2.09,0,0,0,.15-2.79,8.2,8.2,0,0,0-.88-1,5.71,5.71,0,0,1-1-1.3c-.08-.19-.21-.4-.16-.57.86-2.69-.9-4.06-2.66-5.44-1.52-1.2-2.78-2.7-4.37-3.83-.47-.45-1.13-.7-1.41-1.37-.36-.87-1-.94-1.91-.57A17.73,17.73,0,0,1,22,102.79a8.3,8.3,0,0,1,1.85,2.68c-.11,1-.83,1.08-1.6,1.11-1,0-1.64-.78-2.41-1.29-1.07-.71-2-1.79-3.54-1.7-.1,1.19,1.58,2.1.42,3.33-1,.44-1.72-.26-2.53-.6-1.07-1.13-3-1.45-3.29-3.32a1.69,1.69,0,0,0-.79-1.53,67.92,67.92,0,0,1-5.75-4.08,10.62,10.62,0,0,1,2.75,2.34c.46.56.82,1.12.08,1.74a4.57,4.57,0,0,1-2.68.29c-1-.08-1.84-.22-1.82-1.53,0-.71-.77-1-1-1.67a4,4,0,0,1-.11-2,2.4,2.4,0,0,1,3.42-2A15.83,15.83,0,0,1,9.2,97.3a7.89,7.89,0,0,0,4.93,1.6,3.94,3.94,0,0,0,2.43-.62c3.19-1,5.1-3.47,6.83-6.13s3.76-3.73,6.15-3.11c1,1.33,0,2.31-.67,3.25a5.68,5.68,0,0,0-1.27,3.95c.07.78,0,1.11.94,1.49,1.35.53.85,1.91.46,3-.3.88-1.74,1.67-.67,2.63a3.15,3.15,0,0,0,3.74.68,2.08,2.08,0,0,1,.86-.11c.84,0,1.07.81,1.72,1.6,0-2.75.09-5.17,2.87-6.2.17-1-.82-2-.33-3C38.05,95.62,38.46,96.21,38.84,96.89Z"/><path class="cls-44" d="M36.58,65.34c.6-.84.15-1.66,0-2.51-.31-1.54-.18-3,1.32-3.89,2.54.31,3.9,2.14,5.12,4.09.64,1,1.06,2.18,1.62,3.26,2,3.95,4.15,4.62,8.24,2.76a9.47,9.47,0,0,1,4.71-1.32c.66.14.83.62.89,1.21A3.73,3.73,0,0,1,57.69,71l-.19,1.6c-4.76,1-9.48.16-14.22-.22a3.42,3.42,0,0,1-2-1,6.48,6.48,0,0,1-1.23-1.62c-.32-.86-1.29-.72-1.86-1.2-1-.31-1,1.15-1.94,1A7.77,7.77,0,0,1,36.58,65.34Z"/><path class="cls-31" d="M43.06,71.87c2.24-.05,4.48-.44,6.7.55a3.93,3.93,0,0,0,3.35-.09,3.9,3.9,0,0,1,4.39.28c.49,1.74-1,3.2-.71,4.91-.71,1.9-2.5,2.48-4.11,3-2.85,1-5.78,1-8.26-1a6.54,6.54,0,0,1-2.61-6.63C42,72.29,42.63,72.19,43.06,71.87Z"/><path class="cls-45" d="M38.84,96.89c-.55,0-.7-.82-1.33-.67C36.34,95,36,93.25,35,91.92c-.57-2.12-1.25-4.14-3.85-4.52a1.5,1.5,0,0,1-.75-.43c-.38-.88.24-1.25.84-1.58.88-.5,1.77-1,2.64-1.51a1.58,1.58,0,0,1,.56-.13c.76,0,1.55.52,2.28-.15,1-.87.65-1.92-.9-3-.81-1.59-1.55-3.2-3.32-4a.86.86,0,0,1-.3-1.47c1.86-.32,3.73-.69,4.74,1.56.66.83,1,2,2.37,2a5.71,5.71,0,0,1,1.93,4.72A3.5,3.5,0,0,0,41.77,86a2.11,2.11,0,0,1,.19.65,25.85,25.85,0,0,1,.16,5.42A2,2,0,0,1,41.3,94C38.94,93.65,39.38,95.7,38.84,96.89Z"/><path class="cls-46" d="M40.64,83.59c.16-1.85-.89-3.26-1.69-4.76-.67-.67-1.47-1.29-.9-2.43.64-2.3,1.31-4.6,1-7a1,1,0,0,1,1.5,0c.27.59,1,.9.94,1.66a4.76,4.76,0,0,1,.73,1.66c-.1,4.86,2.85,7.28,5.17,7.67a9.66,9.66,0,0,0,8.13-1.93c.4-.32.69-.87,1.32-.85a1.93,1.93,0,0,1-.65,2.91A48.3,48.3,0,0,0,50,83.82c-.85.25-1.35-.39-2-.74-1.34-.73-2.53-1.8-4.33-2,.08,1.47,1.12,2.37,1.58,3.51a4.1,4.1,0,0,1,.54,2.92c-.14.46-.38.92-.91,1a1,1,0,0,1-.94-.66,4.85,4.85,0,0,0-2.6-2.44C40.82,84.94,41.19,84.08,40.64,83.59Z"/><path class="cls-47" d="M50.65,98a6.16,6.16,0,0,1,6.94.26,15.22,15.22,0,0,0,3.46,2.24c1.5.57,1.87,2.71,1.09,4.7-.47.3-.74-.09-1-.32-1.3-1-2.36-1.1-3.92-.1-2.07,1.33-4.52,2.07-7,.87a2.22,2.22,0,0,1-.44-.37c-.22-.93-1.23-1.14-1.69-1.86a1.61,1.61,0,0,1,.24-1.47l.1,0C49.18,100.68,49.57,99.14,50.65,98Z"/><path class="cls-48" d="M58.45,59.85c2.89,0,5.82.16,7.16,3.27a60,60,0,0,1,2.5,7.69c.3,1.07-.93,1.69-1.27,2.61l-1.51,0a2.06,2.06,0,0,1-1.7-1.54,3.68,3.68,0,0,1,.5-1.2,5,5,0,0,1-3.11.77c-.47-.09-1-.22-1.08-.76s.31-.81.66-1.12c.71-.63,2-.48,2.23-1.75-.42-.61-1.53-.72-1.33-1.79,0-.45-.14-.79-.71-.68a2.21,2.21,0,0,1-1.56,0c-.53-.33-.4-1-.79-1.44A5.17,5.17,0,0,1,58.45,59.85Z"/><path class="cls-49" d="M57.7,127.64l-.12.79c-.55.61-.23,1.41-.45,2.1a2.21,2.21,0,0,1-.27.53,32.3,32.3,0,0,1-1.68,4.35,11.54,11.54,0,0,0-1,5.15c0,.66,0,1.5-.78,1.72s-1-.58-1.39-1a6.2,6.2,0,0,1-1.1-2.77,11.46,11.46,0,0,1-.94-5.27,13.31,13.31,0,0,0-.49-5.36,2,2,0,0,1,.12-1.28c.62-.86,1.41-.39,2.14-.24s1.55.41,2.19-.3c1.22-.23,2.28-1.09,3.59-1C58.35,125.91,58.08,126.77,57.7,127.64Z"/><path class="cls-50" d="M49.93,105.21a10.26,10.26,0,0,0,6.74-.77c.12-.06.28-.06.37-.14.73-.66.88-2.16,2.65-1a7.27,7.27,0,0,1,2.45,1.88l0,.79a32.26,32.26,0,0,1-3.24,3.27A6.31,6.31,0,0,0,57.69,111l-.09.67c-.33.35-.78.82-1.18.7-2.27-.67-4.77-.6-6.78-2.09C49.57,108.6,48.45,106.83,49.93,105.21Z"/><path class="cls-51" d="M41.47,85.28c2.07-.24,2.31,1.74,3.41,2.91a2.22,2.22,0,0,0,.1-2.76c-.6-1.12-1.4-2.15-1.89-3.31-.2-.49-1-1.06-.47-1.57a1.94,1.94,0,0,1,2.12,0c1.75.93,3.42,2,5.12,3a56.8,56.8,0,0,1-.75,7.37c0,.51-.17.86-.74.84,0,0-.11.09-.15.14-.91.93-1.5,2.52-3.14,2.11s-.72-2-1.21-3c-.06-.12-.1-.26-.15-.38-.63-1.61-1.51-3.1-2.24-4.67l0,0A.47.47,0,0,1,41.47,85.28Z"/><path class="cls-52" d="M55.28,115.47c-1.14,3.1-3,5.83-4.58,8.69-1.58.75-2.37-.1-2.92-1.45,0-1.89,1.21-3.74.23-5.68.37-2,.92-3.85,2.9-4.85a5.74,5.74,0,0,1,3.12.45C55.24,113.19,56,114,55.28,115.47Z"/><path class="cls-53" d="M49.11,90.93c.1-1.14-.8-2.46-.57-3.15.47-1.39.24-3,1.32-4.22,1.82-1.6,3.61-3.27,6.28-3.13-.48,2.39-1.72,4.56-2,7-.06.39-.38,1.21-1.19,1.14-1.15.31-2.54.2-3,1.73C50,90.92,49.45,90.81,49.11,90.93Z"/><path class="cls-54" d="M69.88,145.94c0,1.25-.87,1.27-1.74,1.32-1.8,0-3.63.16-5.32-.77-.39-.21-1-.12-1-.78s.58-.94,1.06-1.1a23.77,23.77,0,0,1,6.3-1.23A6.17,6.17,0,0,1,69.88,145.94Z"/><path class="cls-46" d="M41.48,86c1.72.84,1.82,2.78,2.77,4.14,0,2.13,1.29,4.52-1.21,6.16C41,96.7,41.35,95.21,41.3,94Z"/><path class="cls-55" d="M63.77,126a13,13,0,0,0-.8,4.72c.09,1.83-1.34,2.3-2.75,2.61-.82.18-1-.41-1-1.11,0-1.45.93-2.46,1.59-3.6s1.5-1.94,1.36-3.28c.16-.38.44-.36.76-.23Z"/><path class="cls-56" d="M61.61,137c.75-2.16,1.56-4.28,3.57-5.63,0,1.13.07,2.27,0,3.4a4.9,4.9,0,0,0,.84,3.05,2.91,2.91,0,0,1-2.1,1.33C62.34,139.45,61.65,138.8,61.61,137Z"/><path class="cls-57" d="M48.33,116.9c1.66,1.14.75,2.66.42,3.95a19,19,0,0,0-.47,1.91c-1.27,1-2.2-.22-3.28-.49-.41-.61-1.78-.69-1.08-1.93,1.24-1,2.63-1.84,3.37-3.34A.82.82,0,0,1,48.33,116.9Z"/><path class="cls-58" d="M63.7,67.34c.18,1,.12,1.82-1.22,2.06a9.46,9.46,0,0,0-2.34,1.17c1.52.93,2.6-.25,3.82-.41.43-.06.74-1.15,1.24-.24.33.6-.16,1-.62,1.3s-.63.46-.95.7c-1.51.67-3,1-4.41-.23-.33-.78-1.27-1.32-.94-2.37a3,3,0,0,1,1-1.15A5.52,5.52,0,0,1,63.7,67.34Z"/><path class="cls-59" d="M61.61,137c.44,1.71,1.42,2.2,2.92,1.2a2.93,2.93,0,0,1,1.51-.38c.2.39.71.67.43,1.23-.14,1-1.61,1.74-.35,2.87a2.8,2.8,0,0,1-4,.16C60.61,140.71,60.52,138.93,61.61,137Z"/><path class="cls-60" d="M37.37,113.76c1,1.82.33,4.08,1.59,5.82a21.72,21.72,0,0,0,2.18,3.28,2.53,2.53,0,0,1-2.24,2.07c-1.21,0-1.8-.39-1.81-1.76,0-1.74-.91-3.35-1.07-5.08a8.43,8.43,0,0,1,.1-3.39C36.4,114.21,36.63,113.64,37.37,113.76Z"/><path class="cls-61" d="M55.28,115.47A2.29,2.29,0,0,0,53,113c-.77-.13-1.53-.31-2.29-.46a1.15,1.15,0,0,1-1.72-.48l.16-1.2a.83.83,0,0,1,.83-.31,10.7,10.7,0,0,1,5.54,1.13,2.2,2.2,0,0,0,2,0C56.83,113,56.05,114.22,55.28,115.47Z"/><path class="cls-62" d="M45,122.05c1.29-.66,2.09,1,3.29.71.52,1,1.64.88,2.42,1.4A6.69,6.69,0,0,0,54,126.07c-.29,1.3-1.07,1.49-2.21,1a13.27,13.27,0,0,0-1.67-.46c-.61,0-.72-.74-1.26-.84a3.21,3.21,0,0,1-.7-.39c-.86-1.36-2.93-1.13-3.6-2.75A.55.55,0,0,1,45,122.05Z"/><path class="cls-63" d="M61.93,119.52c.43,1.21-.45,2.16-.64,3.25-.83.54-1.59,1.3-2.72.78.34-1.34-.63-2.9.66-4.08A2.28,2.28,0,0,1,61.93,119.52Z"/><path class="cls-64" d="M43,96.31a9.88,9.88,0,0,0,1.21-6.16c.64.6.31,1.39.4,2.1.06.45-.17,1,.32,1.29s1.05-.11,1.49-.39c.66-.41,1-1.28,1.91-1.38C47.07,95,45.34,96.44,43,96.31Z"/><path class="cls-65" d="M57.69,111c.11-1.85,2.38-4.42,4.47-5.05a2,2,0,0,1-.87,2.72Z"/><path class="cls-66" d="M58.57,123.55a3.58,3.58,0,0,1,2.72-.78c-.69,2-2.62,3.07-3.59,4.87l-.15-2.53C57.48,124.32,58.3,124.11,58.57,123.55Z"/><path class="cls-67" d="M50,110.56l-.83.31c-.33-1.38-.65-2.76-1-4.14a2.47,2.47,0,0,1-.11-2.26c1-.79,1.32.25,1.82.76v0Z"/><path class="cls-68" d="M40.72,123c-1.53-.63-1.81-1.93-1.76-3.4l1.55,0c1.12.62,2.34,1.17,2,2.83A1.24,1.24,0,0,1,40.72,123Z"/><path class="cls-69" d="M49,112.07l1.72.48c-1.12,1.28-1.5,3-2.42,4.35l-1,.1C47.65,115.28,47.89,113.51,49,112.07Z"/><path class="cls-70" d="M50.65,98c-.18,1.67-.61,3.18-2.3,4l-.11-.82a2.28,2.28,0,0,1,0-2.47C48.89,97.82,49.78,97.94,50.65,98Z"/><path class="cls-71" d="M37.37,113.76l-.63.82c-.54,0-.67-.38-.73-.82.07-2-.13-4,.78-5.79C36.91,109.91,37.65,111.78,37.37,113.76Z"/><path class="cls-72" d="M42.39,121.87c-.17-1.15-1.85-1.06-1.88-2.32,1.3-.44,2.18.94,3.41.79-.25,1,1.4.71,1.07,1.71a1.74,1.74,0,0,0-.14.27A1.72,1.72,0,0,1,42.39,121.87Z"/><path class="cls-73" d="M66.12,141.91c-.54-.09-1.25.2-1.49-.59s.36-1.07.75-1.47a7.34,7.34,0,0,1,1.09-.81l.66,2.05A1.13,1.13,0,0,1,66.12,141.91Z"/><path class="cls-74" d="M49.91,90.31c0-.34,0-.67,0-1,0-1.4.36-2.23,1.86-1,.28.23.75.21,1.14.31A4.72,4.72,0,0,1,49.91,90.31Z"/><path class="cls-75" d="M48.28,104.27l-.06,2.47a3.92,3.92,0,0,1,0-4.79l.12,1.58A.5.5,0,0,1,48.28,104.27Z"/><path class="cls-76" d="M61.93,119.52l-2.7,0c.94-1,2.11-1.11,3.47-.17Z"/><path class="cls-77" d="M58.47,69.37c-.16.91,1.34,1.27.75,2.32-.68.16-.87-.81-1.53-.68a2.16,2.16,0,0,1,.41-2.07C58.42,68.91,58.6,69,58.47,69.37Z"/><path class="cls-78" d="M48.28,98.69l0,2.47C47.13,100.32,47.06,99.49,48.28,98.69Z"/><path class="cls-79" d="M62.93,125.09l-.76.23c0-.93-.4-2,.73-2.56Z"/><path class="cls-80" d="M54,190.6a5.58,5.58,0,0,0,4.38,1.5c.5,2-1.2,1.92-2.27,2.45-2.74.73-5.28,2.21-8.32,1.86-1.37-.15-2.17,1.45-3.33,2.08-.74.25-1.61-.17-2.27.46a26.22,26.22,0,0,0-7.76,2.11,6.91,6.91,0,0,1-1.52.38,1.72,1.72,0,0,1-1.57.35c-.83-.42-1.91-.61-1.93-1.87.63-1.52,2.3-1.78,3.37-2.77.34-.32,1-.41,1.1-.84.61-2.69,3-3.28,5-4.29a24,24,0,0,1,3.83-1.82c.94-.29,2.15-.67,2,1.13-.07,1,.67.84,1.23.88a11.56,11.56,0,0,0,5.91-1,4.21,4.21,0,0,1,1.89-.64A.42.42,0,0,1,54,190.6Z"/><path class="cls-81" d="M56,194.2c.65-.9,2.24-.69,2.45-2.1.37-.17.39-.53.48-.86A4.67,4.67,0,0,0,61.57,189a1.89,1.89,0,0,1,2.17-1,44.6,44.6,0,0,0,3.75,6.45c1.39,2.22,1.31,3-.54,5-.57.61-1.51.92-1.61,1.92-.87-.07-1.45-1-2.42-.79l-.38-.75a9.06,9.06,0,0,0-4.76-3.27c-.22-.51-.75-.57-1.15-.81C55.83,195.48,55.47,195,56,194.2Z"/><path class="cls-82" d="M56,194.2a2.39,2.39,0,0,0,.67,1.54c-1.19.73.13,1.37.3,1.47a1.37,1.37,0,0,1,.6,1.71c-.62.69-1.63.6-2.3,1.19a3,3,0,0,1-2.53-.45c-1.77-.78-3.54-1.37-5.27.1-1.31.91-2.68,1.74-3.91,2.76a2.11,2.11,0,0,1-2.16.39c.84-1.35,1.93-2.48,2.35-4,0-.35.34-.53.54-.77,1.41-1.73,2.94-3.07,5.43-2.32,1.32.39,2.49-.37,3.6-.94A5.46,5.46,0,0,1,56,194.2Z"/><path class="cls-83" d="M31.41,201.39l1.52.05a1.89,1.89,0,0,1-1.44,1.5c-2.62.67-4.3,2.65-6.23,4.29l-.26-.16a6,6,0,0,0-3.21-4.52,4.59,4.59,0,0,1-.88-.83c-2.47-2.47-2.56-3.66-.48-6.62a3.93,3.93,0,0,1,3.17.41c.83.88.53,2.05.76,3.08A7.58,7.58,0,0,0,25.45,201c1.58,2.13,1.69,2.16,4.08,1A4.48,4.48,0,0,1,31.41,201.39Z"/><path class="cls-84" d="M67,215.73c-.2,1-1,.77-1.62.77q-11.55,0-23.1,0c-.64,0-1.42.19-1.61-.78Z"/><path class="cls-85" d="M23.65,209.23c-1.18,2-3.1,2.37-5.19,2.3-.6,0-1.2-.1-1.8-.15a2.32,2.32,0,0,1-.83,0c-.35-.13-.75-.2-.91-.62a.74.74,0,0,1,.19-.55,9.1,9.1,0,0,1,1.66-.73c1.73-.65,3.57-.94,5.3-1.62a1.42,1.42,0,0,1,1.66.15A1.14,1.14,0,0,1,23.65,209.23Z"/><path class="cls-86" d="M47.43,199.76c1-1.87,2.18-2.34,3.73-1.28a4.26,4.26,0,0,0,1.61.59c.89.5.52,1.1.14,1.71a6.65,6.65,0,0,1-1.44.95,1.15,1.15,0,0,1-1.11-.22A4.32,4.32,0,0,1,47.43,199.76Z"/><path class="cls-87" d="M50.36,201.51l1.11-.14c.74,0,.74.37.51.9A17.09,17.09,0,0,1,47.55,206c-.53.3-1.08.5-1.43.07s0-1,.38-1.52C47.5,203.07,49.53,203.08,50.36,201.51Z"/><path class="cls-88" d="M52.76,200.53c0-.49.39-1,0-1.46.91-.15,1.35,1.37,2.41.69a1.31,1.31,0,0,1,1.74,0c-.36,2.34-.69,2.52-4.19,2.38C52.24,201.62,52.62,201.08,52.76,200.53Z"/><path class="cls-89" d="M15.85,211.18l.81.2c-2.32.5-4.68.2-7,.26-.78,0-1.62-.27-2.32.35H6.54c-2-.46-4,.05-6-.28v-1.26c1.5-1,3.06,0,4.59-.16,2.31.63,4.67.22,7,.29A10.06,10.06,0,0,1,15.85,211.18Z"/><path class="cls-90" d="M30.78,213.23c-.34,0-.68,0-.69-.46,0-.74,2.33-2.7,3.06-2.57.44.07.64.37.45.7A4.47,4.47,0,0,1,30.78,213.23Z"/><path class="cls-91" d="M57.78,196.55a4.55,4.55,0,0,1,4.76,3.27Z"/><path class="cls-92" d="M23.65,209.23,23.58,208c.05-1.11.69-1.2,1.55-.93l.13.2A1.71,1.71,0,0,1,23.65,209.23Z"/><path class="cls-93" d="M56.92,199.79l-1.74,0c.48-1.14,1.52-.68,2.35-.84A.69.69,0,0,1,56.92,199.79Z"/><path class="cls-94" d="M52.76,200.53c.61.56-.07,1.09,0,1.64l-.75.1a.93.93,0,0,0-.51-.9C51.54,200.53,52.25,200.69,52.76,200.53Z"/><path class="cls-95" d="M44.25,198.15a.77.77,0,0,1-.54.77l-1.5,0C42.54,197.79,43.52,198.28,44.25,198.15Z"/><path class="cls-80" d="M50.19,178.64c-1.07,1.43-3,1.82-4,3.42a.73.73,0,0,1-.93.28A18.49,18.49,0,0,0,43.4,181,10.72,10.72,0,0,0,39,176.46c-1.31-1.29-1.87-3.16-3.38-4.29a1.11,1.11,0,0,1-.08-.6c.43-1,1.35-.85,2.18-.9s1.83.16,2.63-.47a9.54,9.54,0,0,0,3-1.81,2.29,2.29,0,0,1,2.58-.64c1.51,2,3.36,3.67,3.4,6.48C49.31,175.7,51,176.92,50.19,178.64Z"/><path class="cls-51" d="M53.73,190.58c-2.71,2.64-6.12,2.52-9.42,2.08-1.53-.2.08-1.33,0-2.06-.63-.37-1.14,0-1.68.26a34.41,34.41,0,0,0-5.4,2.69c-.88.63-3.28.59-2.19,2.92.06.12-.47.67-.81.79-1.66.55-2.93,1.77-4.46,2.56-.86.47-1.27,0-1.6-.74a1.36,1.36,0,0,1,.13-1c1.46-.9,3.25-1.4,3.58-3.52.09-.58.79-.91,1.34-1.16,3.48-1.61,6.31-4.17,9.4-6.35a16,16,0,0,1,3.59-1.84,2.21,2.21,0,0,1,2.29.28A23,23,0,0,1,53.73,190.58Z"/><path class="cls-50" d="M50.19,178.64A8.9,8.9,0,0,0,49,175.47c-.43-.77-.9-1.37-.48-2.4.23-.56-.24-1.34-.77-1.94-.78-.89-1.75-1.72-1.84-3,.16-1,1.07-1.27,1.75-1.78,1.51-1.11,3-2.2,4.63-3.15.73-.44,1.5-1,2.43-.45,1.47,1.24,1.17,2.91,1.07,4.52s0,2.93,0,4.4a15.57,15.57,0,0,1-4.74,6.71Z"/><path class="cls-96" d="M48.5,185.52a8.31,8.31,0,0,0-4.79,1.64c-3.61,2.4-6.79,5.44-10.84,7.16-.38.16-.77.41-.75.87.11,2.68-1.84,2.81-3.7,3.06-1.66-.48-1.71-1.82-1.69-3.2.67-2,2.81-2.27,4.15-3.49a116.77,116.77,0,0,1,11.2-7.36c1.7,0,2.84-1.12,4.08-2C47,183.26,48.31,184,48.5,185.52Z"/><path class="cls-97" d="M66.35,168.66l-1.81.28c-.35.44-.18,1.19-.85,1.43-1.21.25-2.51-.27-3.66.44a1.42,1.42,0,0,1-.53-1.13c1.14-2.69-.5-5.16-.63-7.75,0-.89-.78-1.36-1.32-1.94-.45-1.12.24-2,.6-3,.5-.58,1-1.11,1.91-.83a1.25,1.25,0,0,1,0,.19c-.76,2.94-.1,3.68,2.8,3.09,1.58.64,3.31.33,4.92.75l0,.46,0,.77c-.86,1.59-2.48,1.31-4.1,1.49.81,1.29,1.48,2.43,2.24,3.52C66.37,167.13,66.82,167.79,66.35,168.66Z"/><path class="cls-98" d="M60,169.71l.05,1.1A10.16,10.16,0,0,0,55,175c-.94,1.4-1.86,3.18-4,3.33,1-2.34,3-4.08,4.18-6.29a10.86,10.86,0,0,1,1.6-2.11C57.83,169.16,58.84,168.59,60,169.71Z"/><path class="cls-99" d="M46.16,182.18c-.71,1.77-1.91,2.79-3.92,2.52-.46-1.53.22-2.43,1.61-2.94a2.42,2.42,0,0,1,1.64.48l.74-.18Z"/><path class="cls-100" d="M63.69,170.37a1.39,1.39,0,0,1,.85-1.43c.06.48.43.65.8.81C65.11,170.82,64.32,170.37,63.69,170.37Z"/><path class="cls-2" d="M.53,183.88v-3.36a7.24,7.24,0,0,1,3.2-3c2.2-1.28,4.19-2.85,6.32-4.22a3.07,3.07,0,0,0,1.39-1.11c-.66-1-2-.89-2.61-1.78-.29-1.09.65-1.26,1.25-1.71s1.42-.26,1.93-.8c-.47-.33-1-.09-1.52-.29-.77-.33-1.27-.75-.55-1.59a5.45,5.45,0,0,1,3.26-.35,9.29,9.29,0,0,0,3.49-.66,12.32,12.32,0,0,1,2.5-.11,17.58,17.58,0,0,0,2.61-.07c-.09-.58-.66-.55-.84-.92-.12-1.45-.62-2.51-2.28-2.77-1.05-.15-2.59-.52-2.66-1.46-.09-1.25,1.65-.95,2.5-1.51a1.25,1.25,0,0,1,.39-.11c1.6-.28,3.26-.12,4.79-.82a13.76,13.76,0,0,1,3.79-.19,12.88,12.88,0,0,0,2.56.09,4,4,0,0,0,2.24-.64c2.42-1.1,2.53-1.06,3.23,1.35.38.17.81.13,1.19.28.76.31.94.73.26,1.32-.37.31-.8.52-1.17.81s-.87.49-.54.91.64,1.45,1.15,1.23c1.59-.66,3.43.23,4.89-.92.39-.17.78-.34,1.14.06a1.46,1.46,0,0,1,0,1.52c-1.66,1.36-3.79,1.32-5.7,1.91s-2.06.64-1.25,2.64a5.09,5.09,0,0,1,.36,3c-.1.45-.53.86-.13,1.36l.09.07c1.36,1.33,2,3.24,3.45,4.48s3,2.23,3.29,4.32c-.42,1.37-1.6,1.31-2.65,1.35-4.3.17-8.63.51-12.84,1.05-6,.78-12,.34-17.93.6a18.21,18.21,0,0,0-3.59.47C3.86,184.76,2.09,185.16.53,183.88Z"/><path class="cls-101" d="M.45,126.42l0-18.4c1.16-1.39,2.81-.8,4.25-1.06,3.76-.24,6.76,2,10.11,3.11,1.41,1,.25,1.52-.33,2.18-1.47,1.52-.13,1.52.9,1.67a5.84,5.84,0,0,1,2.15.42,1.92,1.92,0,0,1,.74.9,4,4,0,0,0,2.05,2.58,8.13,8.13,0,0,1,3.44,3.26,1.33,1.33,0,0,1,0,.88c-3,2.78-6.21,5.29-9.46,7.76-1.38.67-2.39,1.92-3.88,2.43a3,3,0,0,1-2.3.25,10.6,10.6,0,0,1-3.36-3.83A2.17,2.17,0,0,0,2.49,127C1.76,127,1,127.06.45,126.42Z"/><path class="cls-42" d="M.53,183.88c7.78-1.08,15.65-.34,23.43-1,3.3-.28,6.69,0,9.9-.74a40.3,40.3,0,0,1,7.31-.7c.79,0,1-.46,1.06-1.16.94-.24,1.14.74,1.73,1.06a.57.57,0,0,1-.17.75c-.92.62-.86,1.84-1.55,2.6L31.1,192.05a52.81,52.81,0,0,1-8.22.77c-5.58.13-11.16-.19-16.73.71-1.83.3-3.9.68-5.64-.67Z"/><path class="cls-101" d="M23.73,157.75c-1.51,1.27-3.37.51-5,.86-1,.53-2.21.16-3.42.82,1.92,1.3,4.18,1.29,5.93,2.6-.5,1.13-1.75,1.11-2.56,1.68a6.87,6.87,0,0,1,3.37.68c-.5,1.23-1.87.42-2.51,1.14l-2.78.09c-1.09.29-2.3.07-3.33.68l-3.52.16c-.42.19-.73.56-1.13.78,1.46.8,3.22-.19,4.65.77.08,1.21-.85.71-1.38.77a4,4,0,0,0-3.19,1.66.86.86,0,0,1-.5.78,3.71,3.71,0,0,1-1.95.2c-2-.45-4.24,0-5.88-1.7V156.1c.75-.13,1.23.45,1.86.68a18.3,18.3,0,0,1-1.85-1.32l-.06-9.09a15.63,15.63,0,0,0,1.16-2.53c.39-.73.83-1.38,1.78-1.38a1.57,1.57,0,0,1,1.14,1,12.32,12.32,0,0,1,.19,2.43A5.92,5.92,0,0,0,6.05,148a3.28,3.28,0,0,1,.66,1.68c-.21,2.16,1.17,1.78,2.51,1.69-.61-1.24-2.22-1.75-2.16-3.33a1.44,1.44,0,0,1,.66-1c1.21-.13,1.84.92,2.77,1.36,1.5.71,3.07,1.2,4.63,1.76a2.46,2.46,0,0,1,1,1.21c0,1-.65,1.19-1.45,1.18l-.39-.07a.69.69,0,0,0-.19,0c-.21.15.07.07.08.14a.9.9,0,0,1,.3.37,1.37,1.37,0,0,1-.24,1.07c-.47.83.25.59.61.66,2.43-.27,4.72.58,7.07.85a2.52,2.52,0,0,1,1.8,1.14A1,1,0,0,1,23.73,157.75Z"/><path class="cls-80" d="M25.13,207a2.74,2.74,0,0,0-1.55.93,41.9,41.9,0,0,1-6.95,2.11,37.34,37.34,0,0,1-12.61.1c-1.3-.17-2.63-.3-3.5-1.49V207.1a.93.93,0,0,1,.83-.19,4.44,4.44,0,0,0,4.3-.11c1.64-1,3.56-1.2,5.18-2.2a5.1,5.1,0,0,0,1.68-1.38,5.58,5.58,0,0,1,3.05-1.17,2.05,2.05,0,0,0,2-.73,3.27,3.27,0,0,0-.27-1.31,1.8,1.8,0,0,1-.41-2.24,4.41,4.41,0,0,1,.3-1.44,2.6,2.6,0,0,1,1.15-1.1c.73-.23,1.49-.7,2.05.28a1.61,1.61,0,0,1,.11.59c-.27,1.05-1.49,1.92-.82,3.13a8.38,8.38,0,0,0,3.47,3.55C25.15,203.76,25.42,205.15,25.13,207Z"/><path class="cls-102" d="M20.35,195.51c-.73-.37-1.34.19-2,.23A7.17,7.17,0,0,0,16,196.86a2.39,2.39,0,0,1-.58.28,12.28,12.28,0,0,1-4.72,1c-2.43,0-4.75.8-7.12,1.25-1.07.21-2.11.54-3.06-.31l0-6.17c8.14-.14,16.25-1.2,24.41-.9,2,.07,4.12-.65,6.18.09l-4,2.79c-1.09.87-2.25,1.46-3.68.89Z"/><path class="cls-103" d="M.52,83.21V82C2,80.94,3.78,80.69,5.4,80c2.2,0,1.71,2.1,2.44,3.25a6.21,6.21,0,0,0,.64,1.92c1,2.6,3.27,4,5.13,5.8a1.36,1.36,0,0,1,.08.93,1.93,1.93,0,0,1-2.07,1.26c-1.39-.2-2.8-.9-4.18.06-2.64,1.66-4.79,1.34-6.89-1l0-2.1a1.34,1.34,0,0,1,1.67,0c1.65.91,2.93.4,4-1,.6-.79,1.06-1.57-.14-2.24-1.22-.06-2.33,1-3.6.42C1.06,86.27,1.24,84.53.52,83.21Z"/><path class="cls-104" d="M.52,69.34l0-4c.29-.6.61-1.3,1.38-1.24,1.59.12,3.12-.55,4.71-.35A3.12,3.12,0,0,1,8.4,65.48c.68,1.68,1.5,3.28,2.34,4.88a2.19,2.19,0,0,1,0,2.29A1.33,1.33,0,0,1,9.27,73a4.91,4.91,0,0,0-3.5.15,2.45,2.45,0,0,1-1.95-.81A10.51,10.51,0,0,1,.52,69.34Z"/><path class="cls-105" d="M17.48,198.17c-1.06.84.39,1.07.4,1.65-4,.92-7.4,3.37-11.24,4.71-2.67,1.33-4.91,1.09-6.16-.66l0-1.54c1.8-2.75,4.7-2.84,7.51-3.15a4.42,4.42,0,0,0,3-.63c1.85-.29,3.7-.48,5.53-.84A1.63,1.63,0,0,1,17.48,198.17Z"/><path class="cls-106" d="M3.34,142.56c-.89.46-1.09,1.34-1.45,2.18-.28.63-.47,1.53-1.43,1.63q0-8.26.08-16.54c.55-.79,1.17-.44,1.8-.13a5.28,5.28,0,0,1,1.19,2C4.23,135.32,4.61,139,3.34,142.56Z"/><path class="cls-107" d="M4.65,107.33.49,108l0-12.21c1.06-.39,1.25.3,1.34,1.11.07.59-.16,1.21.2,1.76L3.94,99.8c.22.44-2.22,1.18.15,1.36a1.79,1.79,0,0,1,.36,2.19A4.25,4.25,0,0,0,4.65,107.33Z"/><path class="cls-108" d="M16.7,198.18a14.16,14.16,0,0,1-5.62.87c-.9.58-2.07,0-2.94.71a15.45,15.45,0,0,0-7.63,2.57l0-3.3c2.63-.36,5.22-.94,7.82-1.36s5-.59,7.52-1C16.58,196.9,17.15,197.24,16.7,198.18Z"/><path class="cls-109" d="M6.46,170.91l2,0c1.18.45,2.56.78,1.55,2.57-2.49,1.92-5.42,3.18-7.83,5.23a1.47,1.47,0,0,1-1.69.28l0-2.72C2.09,174,4.7,172.93,6.46,170.91Z"/><path class="cls-110" d="M.52,69.34c.26,0,.72-.06.76,0,.55,1.32,2.07,1.44,2.86,2.43a7.24,7.24,0,0,1,.53,3.9c-.88,2.16-2.11,2.81-4.14,2.21Z"/><path class="cls-111" d="M6.46,170.91c0,1.47-1.28,2-2.2,2.64-1.24.89-2.21,2.18-3.73,2.67l0-6.5Z"/><path class="cls-112" d="M.53,77.92a4.32,4.32,0,0,0,3.65-2c.47-.65.07-2,1.54-1.85,1.92,1.49,2,2,.19,3.25-1.44,1,.1,2.18-.54,3.13A6.78,6.78,0,0,1,.51,82C.52,80.65.52,79.29.53,77.92Z"/><path class="cls-113" d="M2.06,98.68c-.9-.75.26-2.61-1.54-2.87l0-3.63c1,.53,2.18.63,3.21,1.42,1.24,1,2.42-.49,3.58-1,.65.57.76,1.45,1.23,2.11.58.83,1.45,1.57.75,2.75a1.36,1.36,0,0,1-.43.36C7.63,97.15,6.7,96,5.38,95.44c-2.27-1-3.27-.48-3.32,2C2.05,97.86,2.06,98.27,2.06,98.68Z"/><path class="cls-114" d="M6.55,89.33c-1.74,2.31-2.44,2.5-4.71,1.16a2.42,2.42,0,0,0-1.32-.41v-.64c.36-.34.65-.68,0-1v-.81c.52-.66,1.36-.36,2-.68,1.49.47,2.48-1.5,4-.84C7.53,87.16,7.05,88.25,6.55,89.33Z"/><path class="cls-115" d="M6.58,64.09c-1.92,1-4.23,0-6.1,1.22,0-1.27,0-2.53,0-3.8,2.25,0,4.57-.44,6.43,1.38a1.41,1.41,0,0,1,.49.83A1.1,1.1,0,0,1,6.58,64.09Z"/><path class="cls-116" d="M1.26,207.17l-.75-.07V206c.69-.89,1.68-.57,2.57-.7,1.1-.16,2.26,0,3.28-.6,1.35-.41,2.65-1,4-1.36.76-.2,1.57-.57,2.25.22.11,1.42-1.25,1.35-2,1.82a16.29,16.29,0,0,1-4.93,1.8A5.89,5.89,0,0,1,1.26,207.17Z"/><path class="cls-117" d="M.51,178.94c3.11-1.84,6-4.13,9.25-5.67a.53.53,0,0,1,.48.47c-3,2.61-6.54,4.44-9.72,6.78C.52,180,.51,179.47.51,178.94Z"/><path class="cls-118" d="M6.54,205.11c-1.94.8-4,.7-6,.87,0-.71,0-1.41,0-2.11,2,1.32,4,.85,6.05.11A.78.78,0,0,1,6.54,205.11Z"/><path class="cls-119" d="M2.51,86.93c-.39,1-1.28.6-2,.68v-4.4C1.92,84.05,1.92,85.65,2.51,86.93Z"/><path class="cls-120" d="M2,129.88l-1.42,0-.09-3.41a16,16,0,0,1,3,.07c1,.21,1.93.7,1.82,2-1.14.33-1.74-1.61-3-.73C2.21,128.5,2.89,129.32,2,129.88Z"/><path class="cls-121" d="M.52,208.68l3.14.85c.31.53,1.48.24,1.23,1.3a18.85,18.85,0,0,1-4.37-.37Z"/><path class="cls-122" d="M.52,155.46c1.49,0,2.55.82,3.77,2-1.89.73-2.77-.51-3.78-1.38C.51,155.89.52,155.68.52,155.46Z"/><path class="cls-4" d="M.51,211.72c2,.11,4.05-.39,6,.28l-6,0A.29.29,0,0,1,.51,211.72Z"/><path class="cls-123" d="M.53,88.42c.84.1,1.72-.16,2.71.48-.93.61-1.89.31-2.71.54Z"/><path class="cls-124" d="M52.39,141.08c.59-.08.58.66,1.37.87-1-4.07,1.25-7.3,2.33-10.83a.78.78,0,0,1,.75-.55,5,5,0,0,1,0,4l-.07,3.57a3.91,3.91,0,0,1-.57,1.58c-.77,1.2-.37,2.92-1.7,3.87-.69.23-1.42.18-2,.74s-1.33.68-1.86-.22a7.69,7.69,0,0,0,.67-2.25A1.25,1.25,0,0,1,52.39,141.08Z"/><path class="cls-125" d="M64.46,151.14l-2.28.12c-.86-.25-1.06-1.9-2.21-1.29s-.14,1.68-.15,2.55.12,2-1.06,2.32-1.58-.68-1.86-1.61c-.14-.45-.39-.85-.53-1.3a9.43,9.43,0,0,1,0-3.63,7.13,7.13,0,0,0,.86-2.7,1.3,1.3,0,0,1,.35-.51c1.79-.42,1.67,1.46,2.55,2.14C62,148,64,148.75,64.46,151.14Z"/><path class="cls-126" d="M60.08,147.23c-1.65.33-1.2-1.8-2.37-2a4.12,4.12,0,0,1-2.21-2.35c.13-1.14-.09-2.34.44-3.44.13-.52,0-1.21.86-1.24C59.54,140.59,60,143.86,60.08,147.23Z"/><path class="cls-127" d="M56.87,134.6l0-4,0-.06a.47.47,0,0,1,.73,0C57.3,131.83,58.43,133.46,56.87,134.6Z"/><path class="cls-128" d="M70.54,151.24l-.9.12-2.28-.13C68.42,150.05,69.48,150.09,70.54,151.24Z"/><path class="cls-124" d="M57.61,130.46l-.73,0c.08-.75-.46-1.7.7-2.08Z"/><path class="cls-129" d="M64.53,186.31l-1.63.38a4.87,4.87,0,0,1,4.78-3.37C67.12,184.87,65.07,184.8,64.53,186.31Z"/><path class="cls-130" d="M56.85,152.06c1,.17.75,1,.82,1.6s.34.88.92.81.62-.45.62-.88a3.08,3.08,0,0,0-.29-2,1.63,1.63,0,0,1,.77-2.65c1.24-.55,2,.35,2.38,1.48a4.28,4.28,0,0,1,.11.8l-.64,1.16c-.9,1.09.18,3-1.48,3.76-.54.24-.91.82-1.58.81a5.65,5.65,0,0,1-3-3.2c-.1-.71-.47-1.5.49-1.95A1.12,1.12,0,0,1,56.85,152.06Z"/><path class="cls-131" d="M67.75,160.21c-1.73.38-3.53,1.21-4.92-.75C64.92,158.19,65.94,158.35,67.75,160.21Z"/><path class="cls-132" d="M66.19,154.53a1.51,1.51,0,0,1,1.59.82c-.94,0-.69,1-1.22,1.53C65.93,156.08,66.22,155.28,66.19,154.53Z"/><path class="cls-133" d="M66.35,168.66c-.64-1.89-2-3.32-3.09-4.92-.29-.41-.87-.83-.55-1.4s1-.19,1.42-.07c1.36.37,2.46-.32,3.61-.83,1.67,1.91,2.25,4.41,3.47,6.56C69.6,168.29,67.89,167.86,66.35,168.66Z"/><path class="cls-134" d="M6.58,64.09l.85-.37a11.94,11.94,0,0,1,5.69,6.38,4.56,4.56,0,0,1,1.54,3.48,1.12,1.12,0,0,1-1.2,1c-1.06-.56-2.88.11-3-1.91.06-.39.3-.91.14-1.16C9,69.16,8.51,66.22,6.58,64.09Z"/><path class="cls-135" d="M14.28,73.42c-.07-1.22-1.22-2-1.16-3.32,2-.22,2.85,1.12,3.62,2.6.81.9.39,2.33,1.34,3.16.46,0,.44.35.45.66a1.84,1.84,0,0,1-1,1.17,1.14,1.14,0,0,1-.87,0c-.6-.48-.72-1.29-1.26-1.81C14.65,75.24,14.64,74.25,14.28,73.42Z"/><path class="cls-136" d="M27.63,71.72c-2-.12-4.3,1-5.7-1.45l7.72-.08c.56.67,1,1.31-.42,1.39A4.33,4.33,0,0,0,27.63,71.72Z"/><path class="cls-137" d="M27.63,71.72c.42-.85,2.53.56,2-1.53l3.91.09A2.13,2.13,0,0,1,31,71.79C29.88,71.69,28.75,71.74,27.63,71.72Z"/><path class="cls-138" d="M58.47,69.37l-.37-.43c-.18-.4-.35-.8-.53-1.21A7.93,7.93,0,0,1,58.44,64a1.71,1.71,0,0,1,.86,1.25,2.16,2.16,0,0,1,.55,1.67,2.13,2.13,0,0,1-.57,1.67A.87.87,0,0,1,58.47,69.37Z"/><path class="cls-139" d="M56.84,55.14c1,.31.76-.45.86-.94,1.35.54.52,1.65.65,2.51A2,2,0,0,1,56.84,55.14Z"/><path class="cls-140" d="M43.07,51.87c-.57,1.22-1.63.66-2.53.7C41.09,51.27,42.2,52,43.07,51.87Z"/><path class="cls-141" d="M41.37,49.43c1.16,0,2.42-.51,3.31.71A7,7,0,0,1,41.37,49.43Z"/><path class="cls-142" d="M32.17,75.1c.3.43.54,1.17.89,1.23,2.41.38,2.59,2.32,3,4.11A6.68,6.68,0,0,1,34.47,84l-.33.06c-.74-.2-1.59.07-2.26-.48-.56-1,.09-1.74.58-2.53s1-1.46-.41-1.75a3.26,3.26,0,0,1-.82-.19c-.84-.45-1.61-.61-2.28.32-.5.68-.95,1.7-2,1.34s-.1-1.46-.48-2.16c-1,.27-1.51,1.46-2.69,1.13-1.45-1.33-1-2.91-.61-4.48a1.94,1.94,0,0,1,1.59-1,4.94,4.94,0,0,0,3.55-.74C29.46,74.41,31.06,74.16,32.17,75.1Z"/><path class="cls-143" d="M25.08,74.64,23.69,75c-1.74.74-3.4,1.78-5.42,1.53-.06-.23-.12-.46-.19-.7a3,3,0,0,1,3.13-2.45c1.31,0,2.64,0,4,.06A.72.72,0,0,1,25.08,74.64Z"/><path class="cls-144" d="M25.08,74.64l.09-1.17c1.07-.87,2.13-1.62,3.15.06C27.58,74.87,26.68,75.79,25.08,74.64Z"/><path class="cls-145" d="M38.05,76.4c.14.87,1.08,1.44.9,2.43-1.67.81-2.06.39-2-2.17Z"/><path class="cls-146" d="M40.5,69.31l-1.5,0-.79-.81C39,68.65,40.07,68.05,40.5,69.31Z"/><path class="cls-147" d="M30.54,86.82l.74.11a4.56,4.56,0,0,1,1.41,4.37c.07,3.63,0,7.27.05,10.9a3.62,3.62,0,0,1-.61,2.28c-.46,1.27-1.41.68-2.19.52-.36-.07-.66-.43-1-.56-2.24-.79-2.41-1.3-1-3.21.2-.27.42-.52.62-.79a1.86,1.86,0,0,0,.18-2.1c-.57-.85-1.14,0-1.71.24a4,4,0,0,1-1,0,3.74,3.74,0,0,0,.87-3.78c-.31-.93.61-1.72,1.19-2.44a6.76,6.76,0,0,0,1.54-3C28.81,87.48,29,87.11,30.54,86.82Z"/><path class="cls-103" d="M21.94,102.78a2.18,2.18,0,0,1,2,.76,45.44,45.44,0,0,0,3.46,3c1.94,1.5,3.24,3.18,2.17,5.79-.81,1-1.7.36-2.57.13a12.18,12.18,0,0,0-2.66-2c-.56-.54-1-.28-1.45.18-1,.4-2-.16-3,.13a1.29,1.29,0,0,1-.73-.4,22,22,0,0,0-2.42-3.26,2.68,2.68,0,0,1-.07-.27,2.66,2.66,0,0,0-1.07-2.28c-.42-.41-.72-.85-.45-1.41s.95-.43,1.45-.39c1.61.15,2.64,1.39,3.9,2.21.5.33.74,1,1.42,1.06a1.38,1.38,0,0,0,1.8.16c.42-.3.12-.69-.18-1-1-.51-1.78-1.17-1.6-2.46Z"/><path class="cls-47" d="M23.53,121.29a16.6,16.6,0,0,0-4.63-3.6,1.67,1.67,0,0,1-.74-2.24c.51-.7,1.21-.6,1.92-.44a2,2,0,0,1,.51.26c.29.15.66.6.76-.16.06-.5,0-1,.08-1.51a1.75,1.75,0,0,1,.42-.81,3.28,3.28,0,0,1,2.33-.58,3.67,3.67,0,0,1,1.57.86c1.49,1.12,3.06,1.73,4.83.62.56,0,.71.37.75.84a3.78,3.78,0,0,1,0,3.36,1.32,1.32,0,0,1-.86,1.26,19.41,19.41,0,0,0-3.92,2A2.55,2.55,0,0,1,23.53,121.29Z"/><path class="cls-148" d="M4.65,107.33c-2.22-.59-1.5-2.3-1-3.51a8,8,0,0,0,.48-2.66l3.26-.06c1.94-1,2.87.6,4,1.63a1.79,1.79,0,0,0,1.31,1.72A2.13,2.13,0,0,1,14.26,106a.92.92,0,0,1,.23.78c-.57.87-.07,1.48.51,2.07a1.75,1.75,0,0,1,.29.47.79.79,0,0,1-.3,1c-1.83.22-3.36-.69-4.88-1.44A17.86,17.86,0,0,0,4.65,107.33Z"/><path class="cls-149" d="M36,113.76l.73.82c-.05,2.61-.46,5.28,1.28,7.6a1.24,1.24,0,0,1,0,1.14c-1.05,1.35.25,1,.8,1.2a2.57,2.57,0,0,1-3.43,1.84c-1-1-.43-2.39-.71-3.58a15.77,15.77,0,0,1,.2-2.91c.21-.73.95-1.31.61-2.2a.24.24,0,0,0-.15-.11.28.28,0,0,0-.16.1c-.11.4-.14.8-.28,1.18a4.27,4.27,0,0,0-.53,2.57A5,5,0,0,1,34,124.3c-1.69.22-2.66-.88-2.67-3,1.87-.73,1.6-2.36,1.62-3.89C32.92,115.14,33.86,114.08,36,113.76Z"/><path class="cls-150" d="M30.54,86.82c-1.48.41-.64,1.69-.95,2.54-2.84-.51-4.28,1.6-6,3.22-.79-.63-.64-1.45-.45-2.28,2-1.78,2-4.35,2.61-6.67a1.07,1.07,0,0,1,.8-.36c1.2.36,2.22,1.84,3.68.6.6-.12,1.12-.85,1.82-.27.78-.28,1.68-1.1,2.06.46-.63,1.19-1.93,1.39-3,2C30.82,86.25,30.47,86.31,30.54,86.82Z"/><path class="cls-151" d="M31.28,121.26a8.06,8.06,0,0,0,2.29,3c.8.28.74,1.13,1.1,1.7-.33,1.85-2.11,2.26-3.25,3.31-2.36.66-3.49,0-4.82-3a1.57,1.57,0,0,1,.21-.88,3.92,3.92,0,0,1,1-1.05c1.29-.71,1.58-2.27,2.67-3.15Z"/><path class="cls-152" d="M35.33,91.72c1.12,1.31,2.29,2.59,2.18,4.5-.12,1.15.94,2.07.63,3.26-.17.22-.43.42-.68.33-1.48-.55-2,.33-2.4,1.53a1.35,1.35,0,0,1-.92,1c-1.28.17-1.63-.54-1.65-1.67-.05-1.82.54-3.57.6-5.38a23.36,23.36,0,0,1,.07-2.37C33.35,91.57,34,91,35.33,91.72Z"/><path class="cls-153" d="M23.61,90c0,.85,0,1.7,0,2.55-1.5,3-3.52,5.31-6.87,6.18-.8.36-1.79.12-2.51.75a6.52,6.52,0,0,1-5.35-1.72.29.29,0,0,0,0-.34,1.58,1.58,0,0,1,.85-.36c3.91.61,7.38-.18,10.13-3.24A4.44,4.44,0,0,0,22,91.13c.25-.67.3-1.44,1-1.88a.83.83,0,0,1,.58,0A.6.6,0,0,1,23.61,90Z"/><path class="cls-154" d="M30.5,121.2a4.22,4.22,0,0,1-2.36,3.55,1.26,1.26,0,0,1-.84-.78c-.75-1.48-1.95-1.33-3.24-1-.63-.16-.86-.52-.55-1.14l0-.57a6.05,6.05,0,0,0,4-1.7,2.2,2.2,0,0,1,2.91-.44C30.47,119.83,30.49,120.52,30.5,121.2Z"/><path class="cls-155" d="M33.7,95.44a9,9,0,0,1-.63,3.89c-.42.92-.89,2.74,1.39,2.63.7,1.6-.84,1.74-1.57,2.42l-.76.1q0-6.78,0-13.55c1.11-.34,1.16.38,1.22,1.18C33.4,93.23,33,94.4,33.7,95.44Z"/><path class="cls-156" d="M32.89,104.38c.15-1,1.51-1.32,1.57-2.42.36-3.11.65-3.31,3.68-2.48-.23.46.69,2-1,1.06-.69-.38-.91.24-1.21.69-.8,1.22-.57,2.59-.6,3.92,0,.68,0,1.5-.88,1.56s-.67-.82-.72-1.35S33.45,104.47,32.89,104.38Z"/><path class="cls-157" d="M11.37,102.73c-1.55,0-2.45-1.67-4-1.63a8.31,8.31,0,0,0-3.7-3.19c-.51-.25-1.27-.7-.9-1.33s1-.26,1.58.12c2,1.41,4,2.82,6.05,4.18A2,2,0,0,1,11.37,102.73Z"/><path class="cls-158" d="M30.58,113.69c-1,1.67-1.86,1.87-4.11.7a14.62,14.62,0,0,1-2.14-1.68.62.62,0,0,1,.27-.46,2.63,2.63,0,0,1,2.18,0l2.76.15C29.67,113,30.6,113,30.58,113.69Z"/><path class="cls-103" d="M22,102.77c-1.94,0-3.18-1.82-5.33-1.8,3.39-1.82,3.42-1.81,5.32,1.81Z"/><path class="cls-159" d="M14.22,106.82c0-.28,0-.55,0-.83,1-.26,1.62.56,2.42.87l0,0a.73.73,0,0,1-.07,1C15.48,108.24,14.31,108.75,14.22,106.82Z"/><path class="cls-160" d="M23.55,105.23c.73.1,1.11.61,1.5,1.39-1.18.15-2.29.84-3.12-.57C22.55,105.93,23.42,106.31,23.55,105.23Z"/><path class="cls-161" d="M31.31,117.89c0-1.12,0-2.24,0-3.36C32.57,115.66,32.52,116.78,31.31,117.89Z"/><path class="cls-162" d="M14.24,99.51c.53-1.3,1.62-.69,2.51-.75A3.24,3.24,0,0,1,14.24,99.51Z"/><path class="cls-163" d="M42.17,72.63c-.86-.28-.78-1-.73-1.66.7,0,.88,1,1.62.9C43,72.43,42.65,72.6,42.17,72.63Z"/><path class="cls-164" d="M33.7,95.44c-1.27-.34-.62-1.4-.8-2.15s.5-1.93-.81-2.36c.44-1.48-.9-2.6-.81-4,2.6.21,3.68,1.49,4,4.8-1.27-.09-1.76.51-1.64,1.76A18.31,18.31,0,0,1,33.7,95.44Z"/><path class="cls-165" d="M34.47,84c-.36-1.6.81-2.5,1.61-3.56,1.1-.25,1.64.34,1.76,1.33a2.64,2.64,0,0,1-1,2.73C35.8,85.22,35.13,84.77,34.47,84Z"/><path class="cls-166" d="M41.47,85.28l0,.76c-1.43-.43-.61-1.61-.79-2.45C41.64,83.79,41.29,84.67,41.47,85.28Z"/><path class="cls-167" d="M48.28,104.27l.09-.74c1.18,0,1.78.45,1.56,1.7C49.14,105.32,49,104.26,48.28,104.27Z"/><path class="cls-168" d="M59.39,67c-.43-.57-.17-1.17-.09-1.76.49-.19,1-.41,1.48-.56,1.36-.4,1.75.13,1.33,1.42C61.33,66.82,60.72,68,59.39,67Z"/><path class="cls-169" d="M59.39,67a5.9,5.9,0,0,0,2.72-.9c-.33,1.53,1.52.22,1.59,1.23-1.65-.2-2.85,1.19-4.42,1.25C59.31,68.06,59.35,67.54,59.39,67Z"/><path class="cls-170" d="M49.88,127.59c.36.47.86.81.85,1.53-.08,3.21-.2,6.42.68,9.56a1.67,1.67,0,0,1-1.6.47A2.6,2.6,0,0,1,47.76,137a21.8,21.8,0,0,1-1-7.13A3.09,3.09,0,0,1,48.84,127C49.32,127,49.59,127.28,49.88,127.59Z"/><path class="cls-171" d="M49.79,138.64l1.62,0c.32.8.65,1.6,1,2.4l-.78.81C49.75,141.24,49.38,140.57,49.79,138.64Z"/><path class="cls-172" d="M49.88,127.59l-.83-.33a1.42,1.42,0,0,1,.05-2c1.14-.14.78.82,1,1.36C50,127,50,127.27,49.88,127.59Z"/><path class="cls-173" d="M35.73,126.4l3.06-1.88c.78-.35,1.59-.65,1.93-1.54a2.12,2.12,0,0,0,1.67-1.11,3.23,3.23,0,0,1,2.46.45c.29,1.11,1.43.77,2.08,1.25a3,3,0,0,1,1.35,1.55c-.28,2.87-2.15,4.93-3.6,7.21a6.42,6.42,0,0,1-2.44,2.44c-1.12.32-1.19-.94-1.88-1.25-1-.05-1.36.78-1.86,1.39a40,40,0,0,0-4.67,7.36c-.87,1.71-1.8,3.54-4,3.51a5.19,5.19,0,0,1-4.67-3.41,3,3,0,0,0-2.41-1.84,4.15,4.15,0,0,1-1.21-1.07,3,3,0,0,0-4.2-1.06c-1.45.34-2.57-.52-3.81-1a3.26,3.26,0,0,1-1.64-2.51,2,2,0,0,1,.43-1.1,1.64,1.64,0,0,1,.42-.37,4.31,4.31,0,0,0,2.1-1.52,10.78,10.78,0,0,1,1-.92,20.57,20.57,0,0,0,6.79-6,2.42,2.42,0,0,1,1.06-.53,3,3,0,0,1,2.55,1.39c.5,1.24,1,2.5,1.58,3.7.93,1.8,1.34,1.86,2.73.45a7.66,7.66,0,0,1,.57-.57A30.35,30.35,0,0,1,35.73,126.4Z"/><path class="cls-174" d="M44.35,132.12l3.93-7,.82.15c0,.67,0,1.33-.05,2a5.52,5.52,0,0,0-1.92,2.38c-.24,1.34-.57,2.64-1.84,3.41C44.72,133,44.53,132.56,44.35,132.12Z"/><path class="cls-175" d="M28.52,199.05c.47.17.65.81,1.25.77,0,1.13,1.65.46,1.64,1.57-2.6,2.85-4.57,2.87-6.26.09C26.27,200.67,27.4,199.87,28.52,199.05Z"/><path class="cls-176" d="M28.52,199.05c-.56,1.61-1.53,2.63-3.37,2.43-2-1.5-1.52-3.72-1.68-5.75a8.56,8.56,0,0,1,3.68-.89,5.81,5.81,0,0,0,1.26,3.41C28.45,198.52,28.48,198.78,28.52,199.05Z"/><path class="cls-177" d="M4.89,210.83c-.41-.43-.82-.86-1.22-1.3,4.29.79,8.64.43,13,.54-.45.4-1,.15-1.55.32-2.07.46-4.12.08-6.17.05-.26-.27.22-.16,0,0,2,.49,4.09-.23,6.09.37l.84.36C12.2,211,8.52,211.64,4.89,210.83Z"/><path class="cls-178" d="M15,210.82H8.65v-.43h6.44C15.05,210.53,15,210.68,15,210.82Z"/><path class="cls-179" d="M56,153.72,58.48,157a4.18,4.18,0,0,1-.79,2.78,3.26,3.26,0,0,1-3.31,2.82l-8.44,5.49c-1.06-.38-1.69.53-2.52.86-1.38-.52-1-1.73-1-2.72s.29-2.13-.24-3.15l0-1.39a8.23,8.23,0,0,1,.71-3.28c.54-1.07.33-2.5,1.51-3.27a15.8,15.8,0,0,0,2.35-1.73c1.63-.49,3.59.1,4.87-1.53a9.14,9.14,0,0,1,2.08-1.63c1.14,0,1.38.88,1.62,1.68C55.5,152.54,55.46,153.24,56,153.72Z"/><path class="cls-180" d="M42.2,163.07c1,0,1.65.09,1.15,1.58-.43,1.31-.9,2.89.07,4.29a3.1,3.1,0,0,1-2.82,1.55c-1.72.71-3.53.22-5.3.38A6.54,6.54,0,0,0,34,166.36c-.72-.83,0-1.25.65-1.43C37.16,164.27,39.68,163.69,42.2,163.07Z"/><path class="cls-181" d="M43.71,181.5c-.89.08-.65-1.22-1.48-1.21l-3.3-3.63a.41.41,0,0,1,.09-.59c1.71.76,3.65,1.25,4,3.54a1.45,1.45,0,0,0,.79,1.06c.31.17.55.38.36.76C44.1,181.64,43.89,181.59,43.71,181.5Z"/><path class="cls-182" d="M39,176.07l-.09.59c-1.36-1.31-2.72-2.62-3.12-4.59C37.8,172.66,38.09,174.62,39,176.07Z"/><path class="cls-182" d="M35.3,170.87c1.72-.77,3.53-.29,5.3-.38-.47,1.3-1.6.57-2.42.77s-1.94-.5-2.46.74C35.17,171.78,35.27,171.31,35.3,170.87Z"/><path class="cls-183" d="M43.71,181.5c.49-.21.25-.53.13-.83a2.3,2.3,0,0,1,1.65,1.57l-1.7-.14C43.77,181.9,43.74,181.7,43.71,181.5Z"/><path class="cls-51" d="M54.38,162.59a11.22,11.22,0,0,0,3.31-2.82c1.54-.2,1.79.9,1.86,2a7.76,7.76,0,0,0,1.08,4.16c.84,1.26-.72,2.45-.65,3.78-1.17-.26-2.11.36-3.12.76s-1.14-.21-1.24-.95.18-1.62-.39-2.32C55.24,165.61,55.31,164,54.38,162.59Z"/><path class="cls-184" d="M55.23,167.2c1,.18.73.94.77,1.56s-.19,1.53.86,1.71c-.24.84-1,1.16-1.63,1.57Z"/><path class="cls-185" d="M46.62,153.82c-.39.86-.88,1.6-2,1.55a.81.81,0,0,1-.26-.67c0-.3.12-.62-.1-.9-1.17-.41-2.18-1.71-3.6-.6a2.59,2.59,0,0,1-.77.26,2.88,2.88,0,0,0-1.74.59,10.78,10.78,0,0,0-1.36.59c.53.47,1.44.71,1,1.67a4,4,0,0,1-1.95,1.86,1.32,1.32,0,0,0-.91.44c-.16-.11-.47-.26-.46-.34.74-3.4-1.35-1.22-2.21-1.05-.61.12-1.14.69-1.87.56-.26-.37.47-1.55-.91-1a6.48,6.48,0,0,1-1.77,0,24.25,24.25,0,0,0-4.26.07,29.09,29.09,0,0,0-9.15-1.54c-.55-1.28.55-1.2,1.2-1.39.86-.27,1.85.08,2.65-.53a8.25,8.25,0,0,1,5,0,13.12,13.12,0,0,0,9.42-1.07c2.81-1.3,5.29-3.32,8.47-3.79,2.24.63,3.68,2.28,5.07,4A3.1,3.1,0,0,1,46.62,153.82Z"/><path class="cls-186" d="M34.94,158.61c0-.33,0-.65.4-.8,2.43-.48,4.54-1.76,6.78-2.72.79-.34,1.55-1.25,2.57-.46,0,.24,0,.49,0,.74-1,.79-.64,2.07-1.12,3-.83-.33-2-1.84-2,.66,0,.64-.62.81-1.09,1a5.55,5.55,0,0,0-2.14,1.44c1,.42,2.16-.5,3.1.39-.28,1-1.14.71-1.83.78-1,.1-2.09-.16-3.1.5-.68.45-1.46.41-1.31-.81,0-.13.15-.3.1-.37-1.07-1.52-1.07-1.52.69-2.62l1.32-.81Z"/><path class="cls-187" d="M41.44,161.94a10.8,10.8,0,0,1-4.74.3c1.13-1.81,2.92-2.36,4.53-3.12,0-.81-1-.48-1-1.08,3.18-1.61,3.18-1.61,3.35.37-.59,1-.35,2.42-1.36,3.27Z"/><path class="cls-188" d="M16.7,163.84c1.07-1.25,2.85-.76,4.07-1.75-1.92-1.5-4.76-1.2-6.87-3.32a22,22,0,0,1,4.8-.16c-.65.68-1.6.61-2.53,1a33.08,33.08,0,0,0,4.38,1.67c1.46.34,1.33.88.64,1.84-.13.18,0,.52,0,.79A8.4,8.4,0,0,1,16.7,163.84Z"/><path class="cls-189" d="M20.79,167.27c1.31.19,2.25-1.21,3.6-.83s2.66,0,4,.14c.78.1,1.65-.14,2.21.67a.94.94,0,0,1-1.28.65c-2.73-.75-5.42.27-8.14.14C20.55,168,20.34,167.81,20.79,167.27Z"/><path class="cls-190" d="M10.24,173.74l-.48-.47c.87-1.51-1.28-1.37-1.28-2.41.12-.14.24-.28.35-.43,1.06.29,2.14.53,3.18.87a.74.74,0,0,1,.28,1.37C11.66,173.08,11.17,173.88,10.24,173.74Z"/><path class="cls-191" d="M23.46,156.86c1.14-1.73,2.76-.56,4.16-.69.54.61,1.6.12,2.11,1.06-.57.71-1.47.14-2.1.51h-3.9Z"/><path class="cls-192" d="M13.4,168H6.84c1-.88,1.72-1.88,3-1.55.31,1.16,1.27.55,1.94.73S13.37,166.78,13.4,168Z"/><path class="cls-193" d="M30.58,167.25c-1.52,0-3-.05-4.57-.1-.62,0-1.39.23-1.62-.71l.78-.12a8.53,8.53,0,0,1,5.31,0l1.53.3C31.66,167.44,31.08,167.24,30.58,167.25Z"/><path class="cls-194" d="M16.7,163.84l4.45.06c.69.13,1.81-.16,1.84.76.05,1.14-1.14.84-1.88.92a12.28,12.28,0,0,1-1.6-.05c.37-.83,1.23-.79,2.46-.9C19.88,164,18.16,164.93,16.7,163.84Z"/><path class="cls-195" d="M27.63,157.74l1.63-.57c-.63-.26-1.37-.26-1.64-1h4.09c-.05,1-1.36.74-1.31,1.61Z"/><path class="cls-196" d="M30.48,166.32H25.17A4.65,4.65,0,0,1,30.48,166.32Z"/><path class="cls-197" d="M13.4,166.3c.87-1.39,2.19-.6,3.33-.68A5.83,5.83,0,0,1,13.4,166.3Z"/><path class="cls-198" d="M20.79,167.27l.37.77c-.38,1-1.07.91-2.08.45Z"/><path class="cls-199" d="M22.11,113l-.17.8c-.73.35,0,2.2-1.61,1.63l0,0c-.72-.72-1.76-.19-2.55-.66-2,.1-3.75-.62-5.71-1.14.53-.77,1.46-.36,2-.68.46-.68-1-.56-.38-1.25,2.17-.2,2.17-.2,1.48-2.45h0c-.46-1.38.62-1,1.28-1.17,1.57-.19,2.07,1.26,3,2l.57.48C21.28,110.83,22.28,111.39,22.11,113Z"/><path class="cls-200" d="M23.58,124.77c-.15.35-.48.34-.77.4-2.32,2.12-4.84,4-7,6.35,0,.43-.1.69-.59.59a1.22,1.22,0,0,1-.88.27c-1.94-1.47-2-1.75-.23-3.17,3.13-2.43,5.92-5.31,9.36-7.35,0,.49.22.87.78.92a.89.89,0,0,1,.47.76C24.83,124.4,24.13,124.51,23.58,124.77Z"/><path class="cls-201" d="M12.64,133.76c.09.42,0,.76-.47.85-.41.77.44,1.62-.17,2.37-1.07.73-1.76-.16-2.48-.67a17.49,17.49,0,0,1-3.46-3.92c-1.38-1.82-3.14-3.31-4.51-5.13,1.84-1.37,2.71.19,3.74,1.26l3.1,3.78C9.58,133.45,11.31,133,12.64,133.76Z"/><path class="cls-202" d="M12.64,133.76c-1.6.05-3.5,1-4.25-1.46,2.14-.61,3.82-2.1,5.76-3.09-1.19,1-.54,1.93.06,2.88-.14.93-1,1.14-1.59,1.69Z"/><path class="cls-203" d="M15.13,109.25c1.33.53.41,2.07,1.25,2.88.17.16-.64.43-.92.25a4.09,4.09,0,0,0-1.81-.68c.41-.5,2.16.29,1.35-1.41C15,109.94,15.08,109.6,15.13,109.25Z"/><path class="cls-204" d="M17.76,114.77c.95-.18,1.95-.56,2.55.66l-2.15,0C18,115.26,17.66,115.14,17.76,114.77Z"/><path class="cls-205" d="M41.35,148.84C38.05,150,35.16,152,32,153.41a11.47,11.47,0,0,1-7.8.9,16,16,0,0,0-5.75-.49c-.8.41-1.34,0-1.85-.57s-.16-1.33-.69-1.82c-.38-.2-1-.14-.9-.86,1.34-1.34,3.33-.57,4.6-1.42-1.16.28-2.53.72-3.84-.25-.38-1.07.44-1.46,1.1-1.88a22,22,0,0,1,6.52-2.6c1.85.23,3.33,1.37,5,2.07,3.2,1.34,3.82,1.2,6.1-1.38a9.17,9.17,0,0,1,2.2-2.06c.72-.34,1.37-.92,2.26-.69,1.09.39,1.77,1.12,1.31,2.28s-.39,2.15.81,2.88C41.5,147.78,41.89,148.26,41.35,148.84Z"/><path class="cls-206" d="M15.9,148.73c1,0,2,0,3,0s1.8-1,3.08-.25c-2.11,1.77-4.52,2-7,2.09a11.68,11.68,0,0,1-7.2-3.38.91.91,0,0,1-.72-.34,5.66,5.66,0,0,0-1.58-1.76,7.24,7.24,0,0,1-1.39-1.63l-.77-.9c-.08-3.75.4-7.52-.39-11.25a1.25,1.25,0,0,1,1.46-.38c1.51.46,3.46,4.25,2.85,5.71-.32.77-.32,1.09.43,1.6,1.24.85,1.22,1.71-.08,2.46s-1.08,1.3.09,1.66a8.79,8.79,0,0,1,4.22,3C13,146.68,14.79,147.33,15.9,148.73Z"/><path class="cls-207" d="M7.3,148l1.58,2a6.22,6.22,0,0,0,2.18,1.71c-1.66.58-3.12.25-4.53.35-.58,0-1-.48-.69-.86C7,150,5.53,149.11,5.6,148a1.07,1.07,0,0,1,.85-.43A1.05,1.05,0,0,1,7.3,148Z"/><path class="cls-208" d="M16.77,152.91c.6.22.9,1,1.67.9-.42,1.21-1.46.56-2.22.77s-1.7-.59-1.91.74c-.49,0-1.13.3-1.37-.32s.42-.74.7-1.06a1.72,1.72,0,0,0,.58-1A2,2,0,0,1,16.77,152.91Z"/><path class="cls-209" d="M7.33,156.19c-.83-1.13-.56-1.57.84-1.72s2.11.75,3.21.92c.37.83-.13,1.12-.8,1.14C9.49,156.56,8.35,156.85,7.33,156.19Z"/><path class="cls-210" d="M7.33,156.19l2.74,0c.61,0,1.22,0,1.31-.82.9,0,1.28.75,1.89,1.29C11.25,156.66,9.19,157.81,7.33,156.19Z"/><path class="cls-211" d="M6.56,148l-1,0c-.88-.23-1.07-1-1.39-1.71.61-.42-.17-2.25,1.55-1.55.91.37,1.68.86,1.74,2A2.4,2.4,0,0,0,6.56,148Z"/><path class="cls-212" d="M5.76,144.78c-1.2-.18-.46,1.62-1.55,1.55,0-1-.07-1.91-.1-2.87C5,143.45,5.39,144.11,5.76,144.78Z"/><path class="cls-213" d="M16.77,152.91l-2.55.05,0-.06a.47.47,0,0,1,0-.76c.57-.17,1.41.26,1.63-.71C17,151.44,16.58,152.36,16.77,152.91Z"/><path class="cls-214" d="M6.56,148c0-.68-1.21-1-.69-1.62s1,.67,1.63.39l.3.43a1,1,0,0,1-.5.85Z"/><path class="cls-215" d="M14.27,152.14l0,.76a3.87,3.87,0,0,1-2.44-.4A3.76,3.76,0,0,1,14.27,152.14Z"/><path class="cls-216" d="M6.54,205.11V204c2.52-1.2,5.12-2.27,7.53-3.66,1.31-.75,2.52-.54,3.82-.5.18.49.49,1,.31,1.52-.59.8-1.8.41-2.37,1.25-1.25-.32-2,1-3.2.95C10.45,203.51,8.66,205,6.54,205.11Z"/><path class="cls-217" d="M1.26,207.17H5.72A3.38,3.38,0,0,1,1.26,207.17Z"/><path class="cls-218" d="M15.82,202.59c0-1.9,1.56-.88,2.37-1.25C17.88,202.67,16.82,202.57,15.82,202.59Z"/><path class="cls-219" d="M16.7,198.18c.28-.84-1-.76-.88-1.5a.32.32,0,0,1,.08-.21,1,1,0,0,1,1.43.06l.15,1.64Z"/><path class="cls-220" d="M17.33,196.53l-1.43-.06c.5-1.29,1.59-.59,2.43-.73Z"/><path class="cls-221" d="M10.42,72.63c.61,1.36,2.48.18,3.08,1.56.34.43,1,.48,1.24,1,1,.79,1.33,2.09,2.32,2.87A12.73,12.73,0,0,1,19,85c-.05,1,.6,1.77.79,2.69a1,1,0,0,1-.86,1.15c-1.18,0-1.7-1.06-2.48-1.68a41.86,41.86,0,0,1-3.4-5.27c-2.23.22-2.3.11-1.38-2.48a20.73,20.73,0,0,0-2.27,3.13c-.47.69-.89,1.6-2,1.16-.19-.88-1-1.51-.89-2.53.06-.7-.57-.75-1.12-.75-.87-1.68-1.85-3.36,1.11-4,.61-.13.53-.69.09-1.08s-.89-.57-1-1.16a1.11,1.11,0,0,1,0-1.47C7.2,71,8.81,72.28,10.42,72.63Z"/><path class="cls-222" d="M16.67,86.86c1,.23,1.24,1.25,2,1.7,2.22.08,2.22.08,2.24,2.58,0,.46,0,.93,0,1.39A2.08,2.08,0,0,1,20.36,94c-2.36,3.29-5.6,4.45-9.51,4-.45-.06-1,0-1.17-.57-.4-2.24,1.28-1.61,2.39-1.76,1.44-.07,2.47-1,3.57-1.76.53-.36,1.39-.57,1.13-1.4-.16-.53-.83,0-1.27-.12-.72,0-1.5.13-2.05-.55L13.28,91c-.41-1.35.8-1.84,1.4-2.66a14.83,14.83,0,0,1,1.72-1.45Z"/><path class="cls-223" d="M7.38,83.68C8.84,83.44,8.87,82,9.6,81.09c.86-1,1.37-3.16,2.71-2.67.88.33-.78,2.08-1,3.49.71-.12.92-.7,1.31-1.06.77-.74.75.13.95.52.38,2.65.07,3.38-1.88,4.47a4.79,4.79,0,0,1-3.58-.41C6.93,85.28,7.4,84.37,7.38,83.68Z"/><path class="cls-224" d="M8.16,85.43l3.71-.11c1.18.69,2,1.85,3.33,2.37a.85.85,0,0,1-.09.84c-.24,1.1-1.55,1.43-1.83,2.51C11,89.67,8.75,88.32,8.16,85.43Z"/><path class="cls-225" d="M12.72,96.22c-1,.49-2.66-.91-3,1.16l-.79.07c.55-1-.31-1.66-.73-2.41.91-1,2.33-1.39,3.22-2.45a2.43,2.43,0,0,0,2.06-.8h2.28c.37.65-.23.81-.55,1.12A3.26,3.26,0,0,0,12.72,96.22Z"/><path class="cls-226" d="M11.39,92.59c-.19,2-1.74,2.17-3.22,2.45-1-.57-.82-1.55-.83-2.47C8.7,91.11,10.05,92.17,11.39,92.59Z"/><path class="cls-227" d="M6.55,89.33c-.12-1.08.46-2.16,0-3.24C8,87.16,7.69,88.24,6.55,89.33Z"/><path class="cls-228" d="M5.6,72.67c0,.49,0,1,0,1.47-.87.25-.57,1.46-1.41,1.73,0-1.35,0-2.71,0-4.06C4.57,72.19,4.92,72.72,5.6,72.67Z"/><path class="cls-229" d="M8.14,199.76c.72-1.31,1.9-.72,2.94-.71C10.26,200,9.19,199.8,8.14,199.76Z"/><path class="cls-230" d="M15.9,148.73a10.61,10.61,0,0,1-5.53-4.29c-.79-1.24-2.28-1-3.39-1.59-.72-.37-1.3-.5-1.26-1.48s.59-1.09,1.34-1.11c.49,0,1-.09,1-.72s-.48-.85-1.06-.9c-1.81-.14-1.52-1-.56-1.9a1.19,1.19,0,0,0,.18-1.87c-1.09-1.34-1.15-3.75-3.69-3.56l-1-1.43c.77-1-1.28-1.59-.41-2.62,2.68.94,4,3.47,5.56,5.45a18.3,18.3,0,0,0,4.71,4.38,1.47,1.47,0,0,1,1.12.88c.59,1.81-1.25,1.91-2,2.69a.59.59,0,0,0,.81.21,7.42,7.42,0,0,1,7.23,1.25A5.74,5.74,0,0,0,23,143.53c.52.26,1,.53.5,1.2-1.81,1.27-4.15,1.33-5.95,2.63C17,147.78,16.17,147.93,15.9,148.73Z"/><path class="cls-9" d="M41.35,148.84c-.05-.2,0-.51-.15-.56-1.85-.88-3-1.91-1.35-4,.58-.76-.39-1.11-.81-1.57A1,1,0,0,1,39.3,141c1-.54,1.73-1.42,2.86-1.69,1.1,1,1.61,2.48,2.69,3.51.44.41.91,1,1.55.75s.39-.94.47-1.45c.11-.78,0-1.79,1-2s1.45.61,1.95,1.22,1.25,1.46,1,2.53c.51.55,1.25.7,1.46,0,.54-1.92,1.37-.79,2.17-.34,1.18,1.84.58,3.54-.42,5.2a1.62,1.62,0,0,1-.48.42c-1.38.57-2.91.06-4.37.52.4,1,1.6,1.66,1.11,2.93-1.34,1.21-2.78.86-4.24.28Z"/><path class="cls-150" d="M50.75,143.9c-.81-1.27-1.43-2.71-3-3.54a9.19,9.19,0,0,0-.25,3.23c-.06,1.17-.61,1.45-1.58.88a7.88,7.88,0,0,1-3.78-4.93c-.41-.68,0-1.18.41-1.6a1.9,1.9,0,0,0,.44-2c0-.78.1-1.51,1.1-1.6a7.51,7.51,0,0,1,4.25,2.85,2.07,2.07,0,0,0,1.48,1.48,4.28,4.28,0,0,0,1.82,3.25C51.45,142.62,52.81,144,50.75,143.9Z"/><path class="cls-231" d="M53.47,148.92c.47-1.76,1.23-3.48.91-5.38.84-1.25.24-3,1.56-4.13,0,1.27,0,2.54,0,3.81.21,2.63-.55,5.32.46,7.92a1,1,0,0,1-.3.91c-.77.54.11,1.12-.06,1.67-1-.46-1.13-1.48-1.51-2.33-.18-.42-.2-.9-.83-.85A1.08,1.08,0,0,1,53.47,148.92Z"/><path class="cls-232" d="M56.06,152.05c-1.52-2.22-.75-4.69-.76-7.08,0-.63-.22-1.38.6-1.75.77.5,1.85.72,1.81,2a.54.54,0,0,1-.07.37c-.7.7-.21,1.77-.76,2.52l0,4Z"/><path class="cls-233" d="M56.88,148.09c.08-.89-.61-2,.76-2.52C57.6,146.47,57.77,147.44,56.88,148.09Z"/><path class="cls-234" d="M14.42,75.52c-.22-.51-.93-.67-.92-1.33.51,0,.72-.3.78-.77.91.36.71,1.58,1.54,2C15.39,76,14.9,75.7,14.42,75.52Z"/><path class="cls-230" d="M23.54,89.46H23c-1.27-.5-.6-2.5-2.14-2.79A43.39,43.39,0,0,0,17.54,79c-.26-.49-.47-1-.1-1.48,0-.55.4-.79.83-1,1.74-.76,3.35-2,5.42-1.53.12,1.54-.92,3.22.6,4.57,1.58.53,1.76,2.24,2.74,3.27,0,.32,0,.61-.35.73H26a6.18,6.18,0,0,0-.95,3C24.91,87.74,24.8,88.91,23.54,89.46Z"/><path class="cls-235" d="M17.44,77.53c1,2.07,2,4.15,3.12,6.2a6.28,6.28,0,0,1,.75,2.86.42.42,0,0,1,0,.54c-.52.4-.95,1.14-1.77.55a1.77,1.77,0,0,1-1-1.38c.1-3-1-5.64-1.85-8.37-.1-.1-.12-.18-.07-.26s.09-.1.13-.1Z"/><path class="cls-236" d="M16.7,77.57a.39.39,0,0,1-.06.36c-1.26-.33-1.51-1.59-2.22-2.41l1.4-.1A2,2,0,0,1,16.7,77.57Z"/><path class="cls-237" d="M26.67,82.89c-1.51-.58-1.59-2.19-2.38-3.29.38-.38.74-.78,1.14-1.14s1-1.39,1.8-.76.19,1.33-.19,2a2,2,0,0,0-.14.64c1.22.27,1.11-.9,1.53-1.41,1-1.15,1.85-1.84,2.84-.07.32,1.54-.72,2.55-1.43,3.69A2.31,2.31,0,0,1,26.67,82.89Z"/><path class="cls-238" d="M32.08,83.6l-1.69.73a2,2,0,0,1-.31-2.17c.81-1,1.1-2.38,2-3.36,1.74.18,2.13,1,1.12,2.37C32.67,81.92,31.9,82.53,32.08,83.6Z"/><path class="cls-239" d="M32.09,78.8A3.58,3.58,0,0,1,30.53,82a.61.61,0,0,1-.84,0c.53-1.06,1.06-2.12,1.58-3.18Z"/><path class="cls-240" d="M22.11,113A9.18,9.18,0,0,0,20,110.55c.89-1.25,1.83-.14,2.75-.06a1.42,1.42,0,0,1,1.05.28c.43.47,1,.87.66,1.66a.24.24,0,0,1-.11.28Z"/><path class="cls-241" d="M24.44,112.43,23.53,111c-.31-1,.12-1.14.95-.9,1.06.41,2.4.53,2.3,2.18A2.9,2.9,0,0,1,24.44,112.43Z"/><path class="cls-43" d="M19.41,110.07c-1.2-.09-1.66-1.35-2.69-1.71-.29-.21-.28-.44-.06-.7v-.83A4.59,4.59,0,0,1,19.41,110.07Z"/><path class="cls-242" d="M24.48,110.05a.94.94,0,0,0-.95.9l-.8-.46c.08-.48-.13-1.12.63-1.23A.88.88,0,0,1,24.48,110.05Z"/><path class="cls-243" d="M20.33,115.41c1.18.09.54-1.62,1.61-1.63a8.23,8.23,0,0,1-.18,3.16C21.15,116.45,20.46,116.24,20.33,115.41Z"/><path class="cls-244" d="M16.66,107.66l.06.7c-.55.28-1.55-.27-1.63.89-.76-.64-2.7-.86-.87-2.43C14.67,108.17,15.79,107.54,16.66,107.66Z"/><path class="cls-245" d="M34.39,126.08c-1-.3-.64-1.18-.82-1.84l.21-3.09c.5-.78.34-1.73.66-2.56l.11-1.49c2,.18,1,1.46.85,2.42l-.15,3.17C34.86,123.79,35.4,125.14,34.39,126.08Z"/><path class="cls-246" d="M34.39,126.08c.29-1.13.58-2.26.86-3.39.28,1.22-.26,2.55.48,3.71-1,1.8-2.94,2.22-4.42,3.32a.49.49,0,0,1,0-.78Z"/><path class="cls-247" d="M35.4,119.52c-.33-.79.5-2-.85-2.42.18-1,.88-1.13,1.28-.36S36.68,118.78,35.4,119.52Z"/><path class="cls-248" d="M34.44,118.59c-.1.89.53,2-.66,2.56A3.32,3.32,0,0,1,34.44,118.59Z"/><path class="cls-249" d="M23.54,89.46a7.26,7.26,0,0,0,.85-3.64A2.09,2.09,0,0,1,26,83.59c0,2.44.33,5-2.38,6.44C23.58,89.84,23.56,89.65,23.54,89.46Z"/><path class="cls-250" d="M29.69,82h.84l-.14,2.34c-1.82,1.48-1.93,1.46-3.71-.72,0-.24,0-.48,0-.72C27.7,82.68,29,83.25,29.69,82Z"/><path class="cls-251" d="M31.3,128.94c0,.26,0,.52,0,.78-.61.92-1,2.38-2.24,2.27s-1.6-1.48-2-2.55A11.78,11.78,0,0,1,25.86,126a.73.73,0,0,1,1,0C28.08,127.46,28.77,129.63,31.3,128.94Z"/><path class="cls-252" d="M24.44,123.58l-.15-.8c.89-1.58,1.85-.92,2.83-.11a3.19,3.19,0,0,1,1,2.08l-1,.93A2.65,2.65,0,0,1,24.44,123.58Z"/><path class="cls-253" d="M24.44,123.58a10.18,10.18,0,0,0,2.69,2.1c.11.24,0,.33-.24.39l-1,0c-.73-.47-1.26-1.32-2.28-1.25C23.83,124.35,24.43,124.17,24.44,123.58Z"/><path class="cls-254" d="M21.31,86.59c1.08-.38,1.15.59,1.4,1.15A6.9,6.9,0,0,1,23,89.45c-.64,1.66-.33,3.89-2.67,4.54,0-.45,0-.89.05-1.34.63-1.87-.23-3.94.72-5.78A.41.41,0,0,0,21.31,86.59Z"/><path class="cls-255" d="M48.31,137.16a16.19,16.19,0,0,1-4.19-2.59c-.32-.91-.09-1.53.93-1.73l2.08-3.2C47.52,132.15,47.92,134.65,48.31,137.16Z"/><path class="cls-52" d="M45.05,132.84l-.93,1.73c-.89.23-.62,1-.68,1.56-.2,1.73-1.68,2.53-2.71,3.59-1.26,1.28-2.54,2.54-3.81,3.8-.7.73-1.42,1.44-2.09,2.2-2.34,2.65-2.76,2.8-6,1.61a30.11,30.11,0,0,1-5.32-2.6c.06-.56-.28-.72-.75-.76-2.16-.23-3.64-1.83-5.35-2.88-1.5-.92-3.26-1.64-4.21-3.32a.93.93,0,0,1,.21-.86c1.4.14,2.59,1.1,4,1,1.41,1.65,3.61,1.45,5.35,2.33,1.53-.48,2.31,0,2.8,1.64a4.47,4.47,0,0,0,4,3.39c1.89.14,2.54-1.42,3.28-2.75a44.58,44.58,0,0,1,6.37-9.42c.18-.19.75-1.66,1.34-.16.35.37.3.85.41,1.29.16.68.54.89,1.1.32.73-.8,1.46-1.61,2.2-2.41C45.24,131.72,45,132.44,45.05,132.84Z"/><path class="cls-256" d="M32.12,134.6c.46,0,1.07-.23,1.34.18s-.37.8-.63,1.1c-.93,1-1.94,2-3,3a2.34,2.34,0,0,1-3.57-.09,13.59,13.59,0,0,1-3.54-5c.67-.72,1.37-1.33,2.45-.84.65.06.83,1,1.57.87.82.76,2.07,0,2.88.78v0A2,2,0,0,0,32.12,134.6Z"/><path class="cls-257" d="M22.8,140.22c-1.49.05-2.93.19-4.36-.65a1.7,1.7,0,0,1-1-1.68C19.72,136.51,20.41,136.81,22.8,140.22Z"/><path class="cls-258" d="M15.85,131.52a13.77,13.77,0,0,1,7-6.35C21.41,128.31,18.7,130,15.85,131.52Z"/><path class="cls-259" d="M25.2,132.92c-.84.21-1.43,1.14-2.45.84a1.83,1.83,0,0,1-1.51-1.63c-.1-.61.44-.71.9-.86a1.9,1.9,0,0,1,2.35.5C24.78,132.12,25.21,132.37,25.2,132.92Z"/><path class="cls-260" d="M13.4,136.91l.07.87a.72.72,0,0,1-1,0c-.46,0-.62-.32-.62-.73.18-.82-.45-1.75.35-2.48C12.05,135.66,13.16,136.05,13.4,136.91Z"/><path class="cls-261" d="M12.62,133.78c.13-.94.89-1.29,1.59-1.69l1,0C14.77,133.29,14,134,12.62,133.78Z"/><path class="cls-262" d="M42.15,134.53q0,.89-.87.81c-.52,0-.65-.39-.66-.82s0-1.06,0-1.6C41.7,132.93,41.08,134.53,42.15,134.53Z"/><path class="cls-263" d="M29.65,134.57c-1-.2-2.22.59-2.88-.78C27.74,134,29,133.11,29.65,134.57Z"/><path class="cls-264" d="M32.12,134.6c-.83,1.11-1.66,1.3-2.48,0Z"/><path class="cls-265" d="M45.76,162.07A44.1,44.1,0,0,1,54.88,158C53.58,160.44,48.71,162.62,45.76,162.07Z"/><path class="cls-266" d="M53.47,148.92c.06.54.13,1.08.19,1.62a2.79,2.79,0,0,1-1.54,1.62,1.38,1.38,0,0,1-1.29.16c-.89-2-.4-2.69,2.24-3.32Z"/><path class="cls-267" d="M50.74,152.05l1.38.11c-1.33,2.24-3.53,1.54-5.5,1.66a1,1,0,0,1-.64-.93c1.31-.31,2.88.8,4-.74A.54.54,0,0,1,50.74,152.05Z"/><path class="cls-268" d="M44.69,154.63c-2.69,1.14-5.18,2.73-8.08,3.37-.47.11-.91.32-1.27-.19l2.07-1.61c.46-.25.48-.85.88-1.15a24.61,24.61,0,0,0,4.19-1.72,4.19,4.19,0,0,1,2.58.39C45.72,154.35,45.13,154.46,44.69,154.63Z"/><path class="cls-269" d="M42.21,153.74c-1,1.38-2.52,1.55-4,1.74-.61-.59-.08-1.22-.07-1.84.32-.85,1-.75,1.7-.69.62.7,1.6-.06,2.24.57C42.1,153.59,42.16,153.66,42.21,153.74Z"/><path class="cls-270" d="M38.11,153.64c1.75.55-.46,1.25.07,1.84,0,.49-.33.68-.77.72.13-1.72-1.55-.2-1.92-1.19C35.89,153.77,37,153.66,38.11,153.64Z"/><path class="cls-271" d="M45.06,153.72l-2.85,0h0c-.37-.63-1.29-.19-1.64-.86C42.48,151,43.62,153.15,45.06,153.72Z"/><path class="cls-272" d="M40.58,152.89c.6.18,1.55-.31,1.64.86-.77-.35-2,.66-2.41-.8Z"/><path class="cls-273" d="M36.92,143.52c1.62-3,4.28-5,6.52-7.39.53.61.38,1.12-.11,1.72s-1.13.9-1.22,1.69c-.57.7-.9,1.61-2,1.69a1.14,1.14,0,0,0-1,1.45C38.14,142.48,37.72,143.48,36.92,143.52Z"/><path class="cls-274" d="M15,87.69c-2,.56-2.42-1.15-3.14-2.37a5.15,5.15,0,0,0,1.75-3.95q1.53,2.75,3.05,5.49l0,.08A9.55,9.55,0,0,1,15,87.69Z"/><path class="cls-275" d="M21.13,86.87c0,2,.22,3.95-.72,5.78,0-.46-.09-.93-.09-1.39,0-1.05.55-2.46-1.46-2.17a3.29,3.29,0,0,1-.19-.53c.56,0,1-.14.86-.88Z"/><path class="cls-276" d="M12.72,96.22c-1-2.16-.44-3,2.31-3.73.82.38,1.34.9.9,1.88A7.57,7.57,0,0,1,12.72,96.22Z"/><path class="cls-277" d="M15.93,94.37,15,92.49l.71-.7c.61.45,1-1.76,1.75-.12S17.22,93.92,15.93,94.37Z"/><path class="cls-278" d="M15,87.69c.28-.91,1-.87,1.7-.75a2.7,2.7,0,0,1-1.6,1.59C15.08,88.25,15,88,15,87.69Z"/><path class="cls-171" d="M12.44,137.82l1,0L22.75,144c-1.39.58-2.52-.14-3.54-.88-2.47-1.77-4.94-3-8-1.28a.93.93,0,0,1-1.48-.52A1.47,1.47,0,0,1,11,139.51C12,139.29,13,139.28,12.44,137.82Z"/><path class="cls-279" d="M15.7,142.16c-.79,1.59-1.93,1.54-3.41,1.11C13.3,142.29,14.15,141.49,15.7,142.16Z"/><path class="cls-280" d="M50.74,152.05l-.8.1c-.4-1.24-1.84-1.71-2.33-3.13a22.18,22.18,0,0,1,5.46,0C52,149.77,50.55,150.29,50.74,152.05Z"/></svg>