<svg id="Layer_1" data-name="Layer 1" xmlns="http://www.w3.org/2000/svg" viewBox="0 0 87.11 288.72"><defs><style>.cls-1{fill:#52d1fb;}.cls-2{fill:#1878fa;}.cls-3{fill:#eeeeed;}.cls-4{fill:#fefefe;}.cls-5{fill:#07094d;}.cls-6{fill:#a0fb36;}.cls-7{fill:#080b4d;}.cls-8{fill:#1877f9;}.cls-9{fill:#1978fa;}.cls-10{fill:#f6f8fb;}.cls-11{fill:#1978f9;}.cls-12{fill:#3588fb;}.cls-13{fill:#fcfdfe;}.cls-14{fill:#272963;}.cls-15{fill:#a5c8f2;}.cls-16{fill:#9df139;}.cls-17{fill:#5f9ff6;}.cls-18{fill:#c3dbfd;}.cls-19{fill:#262863;}.cls-20{fill:#96de4d;}.cls-21{fill:#71acfc;}.cls-22{fill:#72acfc;}.cls-23{fill:#6faafc;}.cls-24{fill:#070a4d;}.cls-25{fill:#a0fa36;}.cls-26{fill:#1878f9;}.cls-27{fill:#fbfcfd;}.cls-28{fill:#0c144e;}.cls-29{fill:#070b4d;}.cls-30{fill:#fafbfd;}.cls-31{fill:#a0f737;}.cls-32{fill:#1a79fa;}.cls-33{fill:#f8f9fb;}.cls-34{fill:#0a0e4e;}.cls-35{fill:#0a1151;}.cls-36{fill:#d8eefd;}.cls-37{fill:#d9e7f0;}.cls-38{fill:#eeeef2;}.cls-39{fill:#94e647;}.cls-40{fill:#dbeff1;}.cls-41{fill:#92e041;}.cls-42{fill:#ecf2f6;}.cls-43{fill:#1d75db;}.cls-44{fill:#65d4bc;}.cls-45{fill:#121f59;}.cls-46{fill:#0b1857;}.cls-47{fill:#485b84;}.cls-48{fill:#65c18e;}.cls-49{fill:#c3d1df;}.cls-50{fill:#abd4e8;}.cls-51{fill:#8ee357;}.cls-52{fill:#a1d7fc;}.cls-53{fill:#5f9ef6;}.cls-54{fill:#1877fa;}.cls-55{fill:#1777f8;}.cls-56{fill:#1777fa;}.cls-57{fill:#1876f4;}.cls-58{fill:#408df8;}.cls-59{fill:#cee2fd;}.cls-60{fill:#78acf5;}.cls-61{fill:#1a1b56;}.cls-62{fill:#081258;}.cls-63{fill:#6fc477;}.cls-64{fill:#b8c5df;}.cls-65{fill:#091961;}.cls-66{fill:#4cc7f5;}.cls-67{fill:#9ef436;}.cls-68{fill:#4cc1e3;}.cls-69{fill:#50cdf2;}.cls-70{fill:#50ccf6;}.cls-71{fill:#0d104e;}.cls-72{fill:#eaf2fe;}</style></defs><path class="cls-1" d="M0,197.75V168c5.52-2.18,8.9-6.45,11.33-11.66,2.69-5,5.58-9.88,8-15a19.34,19.34,0,0,0,2.08-9c-.15-3.15.78-6.19.63-9.32.08-2.08-.61-4.18.21-6.22.67-1.2,1.86-1.13,3-1.18a29.18,29.18,0,0,0,3.84-.37c1.58-.28,1.7-1.05,1-2.27,2.55-1.09,2.47-3,1.67-5.21a11.39,11.39,0,0,0-1.21-4.31c-1.53-3.8-2.37-7.8-3.54-11.7-.5-1.71-.77-3.52-2-4.92a27.5,27.5,0,0,1-2.95-4,7.15,7.15,0,0,1-2.18-1.64A4.61,4.61,0,0,1,19.12,79c-.1-4.75-.66-9.34-4.63-12.67-2-2.73-4.74-2.48-7.56-1.85S2.7,67.59.66,69.26A.65.65,0,0,1,0,69.09V8.49c.63-2,.62-4.24,2.39-5.83C4.63.68,7.25.3,10,.3q18.63,0,37.28,0c9.79,0,19.58,0,29.38,0,2.11,0,4.25,0,6.17,1.3,2.92,1.92,4,4.69,4,8q0,30.25,0,60.51c0,.56.13,1.18-.45,1.58-1.44.31-2-.72-2.51-1.72a12.34,12.34,0,0,0-4.25-7.55c-2.25-2.09-5.28-1.49-7.31,1.23-3.41,2.74-3.77,6.25-2.73,10.22.41,1.56.31,3.2,1.16,4.72.7,1.26-.4,2.1-1.33,2.82A10.32,10.32,0,0,0,64,87.58c-1.81,2.27-3,5-4.63,7.33,0,0-.07.12-.12.21-1.08,2-3,13.6-2.66,16,.08,3.18-.64,6.34-.07,9.52,1.79,1.83,4.3,2.25,6.49,3.31.94.46,2.09.53,2.74,1.52.78,1.83.5,3.76.46,5.64-.09,4.27.94,8.34,2,12.41a14.49,14.49,0,0,0,5,8.15,6.82,6.82,0,0,1,1.59,1.83c.82,2.2,2.81,3.39,4.37,4.93a10.87,10.87,0,0,1,3,5c.89,3.26,2.18,6.39,3.31,9.57a20.91,20.91,0,0,1,1.36,6.75c.06,6.35.17,12.7,0,19.05a9.25,9.25,0,0,1-8.94,1.86c-4.56-1.21-8.72-.2-13,.76-2.56.46-3.12-1.28-3.52-3.2a16.21,16.21,0,0,1-.26-8.52c.16-.69.2-1.69,1-1.77s.93.94,1.2,1.59c.5,1.23.1,3.44,1.65,3.45s2.32-2,3.27-3.34c.83-1.45.18-2.86-.14-4.28a12.89,12.89,0,0,1-.46-3.15c0-1.82-.7-3.57-.5-5.4a6,6,0,0,1,.09-.74c.39-1.48,1.73-2.32,2.42-3.62.42-.79,1-1.48.79-2.47-.56-3.79-2-6.77-6.23-7.62-1.94-.39-2.17-1.92-2.15-3.65,0-1,.44-2.7-1.39-2.52-1.67.17-1.94,1.53-1.56,3,.27,1,.56,2.12-.38,3-.88.68-2.21.74-2.66,2-1.23,2.53-1.13,5.37-1.91,8-.41,1.82-1.25,3.61-.4,5.5,1.12-.41,1.12-.41.45-2.56a7.29,7.29,0,0,1,2.44-4.21c1.47-.37,1.83.66,2.06,1.73a11.37,11.37,0,0,1-.08,4.11c-1,3-.83,6.16-.89,9.28a50,50,0,0,1,1.14,14.33c-.61,1.14-1.72,1-2.76,1.08-2.1.08-4.22-.18-6.3.3a3.31,3.31,0,0,1-.89,0c-3.19-.63-6.41-.16-9.61-.33-2.18-.36-4.34-.82-6.49-1.36a7.36,7.36,0,0,0-3.4-.14c-4.78,1-5,.81-5.55-3.93a5.74,5.74,0,0,1,1-3.42A10,10,0,0,0,26,187.51a6.33,6.33,0,0,1,0-.76,13.07,13.07,0,0,1,.77-3.15c.11-1.07,2.11.49,1.72-1.26-.34-.92-.79-1.79-1.15-2.69-.37-1.06-1.75-1.5-1.76-2.79-.09-2.67-.09-2.67-3.52-1.16a2.24,2.24,0,0,1,1.31.6c.72,1.4-.18,2.13-1.17,2.81A8.94,8.94,0,0,0,19,182.7c-1,1.54,0,2.87.54,4.17a46.72,46.72,0,0,1,2,5.31c.33,1.06.47,2.17-1,2.51a9.85,9.85,0,0,1-3.63-.82c-.79-.46-1.49-.64-1.86.52a6.64,6.64,0,0,0-.46,2.6c.14,1.37-.61,1.89-1.8,2.07-3.22.28-6.44.78-9.68,0A5.16,5.16,0,0,1,0,197.75Z"/><path class="cls-2" d="M49,201.15h.6a38.88,38.88,0,0,1,9.27.21c1.75,1.23,2,3.12,2,5A3.62,3.62,0,0,1,57.17,210a56.92,56.92,0,0,1-8,.41c-1.27-1-.33-2.26-.4-3.14-.87,5.92-3.17,11.71-5,17.61q-9,29.14-18.14,58.26c-.36,1.19-.73,2.37-1.19,3.53-.38.94-.82,1.84-2.08,1.76H8.49c-5.34-.12-8.12-3-8.2-8.36q0-28.4,0-56.77A5.27,5.27,0,0,0,0,220.61v-9.94c.86-1.56,2.49-1.37,3.87-1.69,4.93-1.11,10-1.7,14.88-2.89,2.65-.45,5.46.42,8-.92,3.14-.56,6.28-1,8.51-1.55-2.37.76-5.82.74-9,1.86-1.87,0-2-1.4-2-2.7,0-1.46,1.24-1.83,2.42-1.92a90,90,0,0,1,12.18.19C42.21,201.45,45.59,200.56,49,201.15Z"/><path class="cls-3" d="M22.86,288.24c2.8-7.58,5-15.36,7.39-23.06q9.12-29,18.17-58.1a4.25,4.25,0,0,1,.69-1.59v4.58a2.6,2.6,0,0,1,.51.8,8.12,8.12,0,0,1,.3,3.43c-.63,9.47-1,18.95-1.49,28.43-.53,9.8-.87,19.62-1.55,29.41-.37,5.25.22,10.6-1.28,15.76a4.66,4.66,0,0,1-.56.76H22.79C22.48,288.46,22.51,288.32,22.86,288.24Z"/><path class="cls-4" d="M85.57,71.68c1.32-.07,1-1.1,1-1.84,0-19.87.05-39.74,0-59.61A9.64,9.64,0,0,0,76.9.57Q43.27.47,9.66.59a9.18,9.18,0,0,0-8.6,5.68C.71,7,.38,7.75,0,8.49c0-2.4.07-4.81,0-7.21C0,.21.21,0,1.27,0,6.55.08,11.82,0,17.1,0Q51.23,0,85.34,0c1.48,0,1.77.3,1.77,1.78q-.06,142.57,0,285.14c0,1.49-.28,1.89-1.77,1.78-2.21-.15-4.45,0-6.67,0a.57.57,0,0,1,0-.72A9.62,9.62,0,0,1,81,286.48c2.94-2,4.74-4.58,4.75-8.21.06-10.51,0-21,0-31.87-5,4.78-10.89,8-15.2,13.17-5.86,7-7.76,14.79-5.06,23.62.48,1.57,1.27,3.07,1.2,4.78a1.67,1.67,0,0,1-.38.69H54.44a5.93,5.93,0,0,1-.46-.56c-1.74-10-1.06-19.5,5.39-27.83a44,44,0,0,1,8.15-7.92c4.19-3.21,8.61-6.13,12.32-9.94a15.82,15.82,0,0,0,2.4-2.85c-1.18.3-2.36,2.06-3.46.53-1-1.35.47-2.41,1.32-3.37,1-1.17,2.15-2.28,3.3-3.35a4.91,4.91,0,0,0,1.28-5.85,14.39,14.39,0,0,0-4.58-6.34c-.87-.72-2-1.24-2.18-2.56a1,1,0,0,1,.61-.83c1.67-.36,2.68.92,3.93,1.62a20.5,20.5,0,0,0,3.1,1.93c.48-1.33.06-2.58.28-3.78a52,52,0,0,0-.11-5.3,20.65,20.65,0,0,1,.07-4.16c0-.27,0-.54,0-.81a11,11,0,0,1,0-2.75c0-.26,0-.52,0-.77a8.8,8.8,0,0,1,0-1.54c0-.25,0-.51,0-.77a3.66,3.66,0,0,1,.65-2.59c0-6.28.22-12.56-.06-18.82-.19-4.23-2.49-8-3.63-12-1.31-4.6-3.07-8.93-7.22-11.84a4,4,0,0,1-1.66-2.92,8.55,8.55,0,0,1,6.34,3.18,15,15,0,0,0,5.22,4.28c.5-2.17.19-4.22.25-6.23s0-3.8,0-5.7c0-2.86,0-2.88-2.7-2.47-1.48.22-1.8-.46-1.31-1.71A5.44,5.44,0,0,1,84,142.09a3.54,3.54,0,0,0,1.73-3.31c0-2.47,0-4.95,0-7.43a3,3,0,0,0-2.2-3.16c-1.68-.67-3.5-.91-5.16-1.64-1.28-1-.76-1.61.36-2.12a10.3,10.3,0,0,1,4.09-.6c2.8,0,2.79,0,2.84-2.93a52.77,52.77,0,0,1,.13-5.9,71.63,71.63,0,0,1,0-11.44,24.7,24.7,0,0,1,0-3.65,13.59,13.59,0,0,1,0-3.66,117.25,117.25,0,0,1,0-14.76c-.33-1.77.64-4-.6-5.26s-3.3-.11-5-.17c-.73,0-1.62.14-2-.64A1.92,1.92,0,0,1,79,73.21,6.15,6.15,0,0,1,85.57,71.68Z"/><path class="cls-5" d="M22.91,116.21l-.28,6.85c-1.43,1.06-.65,2.71-.87,4-1.2,6.94-4.38,12.92-8.22,18.62-1.82,2.71-4.22,5.06-4,8.76a1.94,1.94,0,0,1-2.14,2.18,3.43,3.43,0,0,1-1.21-2.58c-.45-2.85-1.68-4.94-4.85-5.26A2.2,2.2,0,0,1,0,148.08v-1.49c1.41-1.26,2.93-.61,4.36-.33-1.26-1.19-3.79-1-4.11-3.46q0-15.86,0-31.69c0-1-.36-2.2.82-2.91,6.29-2.31,14.55.87,18,6.81-.35-.74-1-1.49-1.48-2.32-.76-1.23-.28-1.85,1.12-1.81A9.73,9.73,0,0,1,22.19,113C22.85,114,23.54,115,22.91,116.21Z"/><path class="cls-2" d="M32.27,107.29c.18.45.38.89.54,1.35,1.13,3.2.64,4-2.6,4.3-1.6,1.1-2.93-.12-4.34-.56a16.13,16.13,0,0,1-3.26-1.71c-.59.44-.14,1.28-.68,1.71-1.37.64-1.81-.87-2.76-1.22-3.33-1.14-6-3.42-9.14-5-1.23-1-2.8-1-3.92-1.39a17.44,17.44,0,0,1,3.49,1c-1.63,1.55-7.15,1.76-9.56.52V88a.61.61,0,0,1,.68-.12C3,89.63,5.27,91.22,8.44,91.21a10.64,10.64,0,0,0,9.1-4.52c.68-.93,1.35-1.87,2-2.83a3.37,3.37,0,0,1,3.29-1.7L25,86c2.18,2.46,2.3,5.71,3.12,8.64s1.78,5.94,2.89,8.83A16.88,16.88,0,0,1,32.27,107.29Z"/><path class="cls-6" d="M7.38,156.55c1.57-.83,1.79-2.36,1.61-3.82a5.63,5.63,0,0,1,1.59-4.43c5.16-6.45,9.09-13.52,10.5-21.81.27-1.6.41-3.22.62-4.9.9.28.49,1.11.93,1.47.56,9.63-1.25,18.64-6.68,26.79-1.5,2.25-2.73,4.68-4.09,7-2.2,3.23-5.58,3.76-9.09,4A3.31,3.31,0,0,1,0,160v-4C2.87,153.77,4.75,153.9,7.38,156.55Z"/><path class="cls-7" d="M39,201.37c-4.07.58-8.17.14-12.25.35-.7,0-1.89-.42-1.82.93.06,1.11-.17,2.67,1.8,2.49l.09.09c-.14,1.3-1.21,1.18-2,1.24-1.95.15-3.9.19-5.85.28-1,.39-2.11,0-3.12.37-.77-.11-1.57-.37-1.36-1.31.16-.71,1-.87,1.65-.81,1.91.17,3.73-.39,5.61-.5,1.62-.1.94-.88.3-1.53-1.66-1-3.32-.42-5,0a29.55,29.55,0,0,1-3.88,0c-3.25-.84-6.56-.27-9.84-.44-1.13-.05-2.33.2-3.27-.73v-4c4.42.94,8.9.73,13.37.6.74.4,1.33-.24,2-.29a9.54,9.54,0,0,1,3.86.49,2.23,2.23,0,0,0,3-1.34A2.32,2.32,0,0,1,23.92,196c1.56.12.88,1.36.82,2-.15,1.84.77,2.28,2.15,1.7,4.25-1.78,8.11,0,12.06,1.11C39.26,201,39.28,201.14,39,201.37Z"/><path class="cls-8" d="M13.46,202.15l3.75,0a19,19,0,0,1,5.63-.1,14.54,14.54,0,0,1,.82,1.5c.65,1.52.2,2-1.49,1.89a37.6,37.6,0,0,0-6.62.3c-1.38.17,0,.58.07.9-1.42,1.28-3.28,1.11-5,1.38-3.54.57-7,1.77-10.62,1.61v-5c2.09-1,4.37-.53,6.54-.67,4-.25,8.07-.08,10.39-.07-3.8.05-9.31-.13-14.82.23A2.7,2.7,0,0,1,0,203.72v-1c2.18-.94,4.52-.51,6.78-.68A27.34,27.34,0,0,1,13.46,202.15Z"/><path class="cls-9" d="M0,160c4.21,0,8.36-.26,11.82-3.12a23.29,23.29,0,0,1-8.41,10.25c-1,.68-2.09,1.32-3.41.82Z"/><path class="cls-10" d="M10.42,105.86c3.27,1.14,6,3.32,8.93,5,.08.45,0,.69-.55.51l-1.48-.07c1.49,2.11,3,4,3.31,6.5-4.38-6.87-10.32-10.5-18.61-9.37a2.23,2.23,0,0,1-2-.08v-1.49c2.46-.53,5-.16,7.43-.23A4.33,4.33,0,0,0,10.42,105.86Z"/><path class="cls-11" d="M7.38,156.55A7.67,7.67,0,0,0,0,156v-7.95C5.71,148.36,6.09,148.8,7.38,156.55Z"/><path class="cls-12" d="M0,220.61c.58.5.49,1.18.49,1.84q0,29.18,0,58.35c-.19.17-.34.14-.45-.08Z"/><path class="cls-13" d="M0,280.72a2.36,2.36,0,0,1,.45.08c.87,4.09,3.46,6.43,7.42,7.4.33.13.34.28,0,.46-2.31,0-4.62-.05-6.92,0-.86,0-1-.15-1-1C.09,285.35,0,283,0,280.72Z"/><path class="cls-14" d="M0,108.34l2,.08c-1.24.48-1.53,1.39-1.52,2.7.06,10.79.05,21.59.06,32.39a.31.31,0,0,1-.52.1Z"/><path class="cls-15" d="M0,209.68c4.66-.83,9.32-1.68,14-2.48a2.92,2.92,0,0,0,1.6-.51l3.31.06L1.67,210.2c-.55.11-1.09.31-1.63.47Z"/><path class="cls-16" d="M0,143.61l.52-.1a21,21,0,0,1,6.27,3.57L0,146.59Z"/><path class="cls-17" d="M0,203.72H19.67c-6.54.43-13.09.55-19.63,1Z"/><path class="cls-18" d="M10.42,105.86c.5,1.35-.53,1-1.17,1-3.07,0-6.14,0-9.21,0v-.5H9.55c-2.32-1-4.49-.88-6.07-2.35A15.5,15.5,0,0,1,10.42,105.86Z"/><path class="cls-19" d="M.46,88.13A.51.51,0,0,1,0,88V69.09A1.44,1.44,0,0,0,.5,69a3.4,3.4,0,0,1,1,2.92q.06,6.64,0,13.31A3.26,3.26,0,0,1,.46,88.13Z"/><path class="cls-20" d="M13.46,202.15,0,202.72v-1l12.16-.07C12.67,201.66,13.19,201.59,13.46,202.15Z"/><path class="cls-21" d="M8,288.66a.57.57,0,0,0,0-.46l15,0a.61.61,0,0,1-.07.42Z"/><path class="cls-22" d="M66.3,288.66l.06-.53a2.28,2.28,0,0,1,1.7-.84,69.2,69.2,0,0,1,8.76,0,2.37,2.37,0,0,1,1.9.94.78.78,0,0,0,0,.45Z"/><path class="cls-23" d="M54.37,288.13l.07.53H45l.1-.55A10.3,10.3,0,0,1,54.37,288.13Z"/><path class="cls-5" d="M85.57,71.68c-1,.71-2.21.39-3.31.64a5.1,5.1,0,0,0-4,3.48c2.44-1.23,4.83-.48,7.08-1.16.93-.28,1.32,0,1.27,1-.08,1.8-.06,3.6-.09,5.4a3.3,3.3,0,0,1-2.08,1.21c-4.74,1.23-8.23,4.19-11.39,7.84-1.67,1.93-3.49,3.94-6.74,3.65-1.69-.16-2.73,1.87-3.91,3.11s-.78,3.1-2.61,3.7c-.36.12,0,.74.12,1.12a7.15,7.15,0,0,1,0,3.44c-.86,2.9.67,4.62,2.8,6.06,1,.66,1.43,1.37.53,2.41-3.13.91-5.32-.79-7.43-2.72a3.18,3.18,0,0,1-.3-3.28,37.92,37.92,0,0,0,1.56-8.45c.58-4.78,3.64-8.43,6.57-12A51.93,51.93,0,0,1,69,81c1.22-1,1.52-1.74.34-3.31s-.53-4-1-6.1a7.35,7.35,0,0,1,3.34-8.28,5.51,5.51,0,0,1,1.35-1c3.33-2.13,5.66-1.88,8.09,1.21a14,14,0,0,1,3.13,6.27Z"/><path class="cls-5" d="M78,126c.57.07,1.15.11,1.71.2,6.35,1.06,6.86,1.66,6.86,8v.25c.06,3.79.8,7.83-3.79,9.85-.52.23-.82,1-1.33,1.65,1.55.17,2.29-1.09,3.4-1.46s1.77-.58,1.75,1.06c-.08,5.46,0,10.92,0,16.56A8,8,0,0,1,81.49,159c-1.9-2.9-4.93-4-7.57-5.71-2.84-2.48-5.7-4.94-6.11-9.07a4.67,4.67,0,0,1,.31-4.24,32.56,32.56,0,0,0,2.95-7.3,15.12,15.12,0,0,1,2.84-5.43C75,126,76.27,125.16,78,126Z"/><path class="cls-5" d="M.46,88.13Q.49,78.58.5,69c1.56-2.34,3.28-4.5,6.19-5.21a10.76,10.76,0,0,0,2.66,0c2.89-.31,3.76.37,4.22,3.27-1.93,3.79-.43,6.55,2.56,9a19.81,19.81,0,0,1,4.16,4.86l2.54,1.26c-2.13.69-3,2.63-4.08,4.3C16,90.63,12.23,92.55,7.27,92A9.06,9.06,0,0,1,.46,88.13Z"/><path class="cls-2" d="M78,126a4.61,4.61,0,0,0-4.33,2.67,17.9,17.9,0,0,0-2,4.74,18.32,18.32,0,0,1-2.8,6.79c-.89,1.2-.85,2.62-1.06,4a31.53,31.53,0,0,1-2.52-11.93c0-2.38-.05-4.77-.08-7.15-.92-1.25-.33-2.42.17-3.59,4.67-6.79,11.41-8.28,19-7.49a2.89,2.89,0,0,1,2.08,1.16v10c-2.72-1-5.34-.53-8,0C77.92,125.34,78,125.66,78,126Z"/><path class="cls-5" d="M58.25,161.91c1.3-1,.12-1.94-.12-2.85-.58-2.14,1-4.58,3.11-4.18,1.8.36,2.08,2.41,1.67,3.67-.73,2.27.09,3,2.06,3.29,4.59.71,5.35,4.44,6.26,8-1,2.16-3.08,3.64-3.56,6.08a.54.54,0,0,0-.11.35c-3.16,1.68-6.41,1.32-9.68.42a13.77,13.77,0,0,0-.05-4.53c-.17-.73-.36-1.46-1.34-.78-.49.28-.21-2-1.13-.33a3.66,3.66,0,0,1-1.27,1.41.71.71,0,0,1-.66-.11c.36-2.52.72-5.05,1.06-7.58.08-.57.56-.77.92-1.09C56.1,162.73,57.63,163,58.25,161.91Z"/><path class="cls-24" d="M49.1,210.62c0-.18,0-.36,0-.55,2.61-.32,5.2-.75,7.81-.93,2.27-.17,3.55-1.53,3-3.76a39,39,0,0,0-1.21-3.75c-.44-.37-.11-.91-.31-1.34L57,185.86c3.06-.3,5.29-1.53,6.28-4.76.3-1,1.75-1.11,2.86-.77a1.68,1.68,0,0,1,1.17,2.14c-.94,1.49-.66,3.17-.75,4.8s1.7,1.58,2.34,2.56a15.55,15.55,0,0,1-2.66,3.8c-1.26,1.58-2,1.41-3-.48-.74-1.51-.42-3.22-.89-4.92-1.17,3.06-1.23,5.41-.33,9.73.21,1.22-.07,2.51.51,3.67a13.28,13.28,0,0,0,.5,4c.15,1.92,1.16,2.68,3.08,2.7,1.55,0,4-.26,4,1.75,0,1.77-2.34,1.57-3.84,1.8a11.14,11.14,0,0,0-1.29.19,80.82,80.82,0,0,1-13.2-.43A3.79,3.79,0,0,1,49.1,210.62Z"/><path class="cls-25" d="M66.83,182.67c-.22-.66.44-1.81-.9-1.87-1.06,0-2.5-.05-2.59,1.23-.32,4.5-2.92,4.8-6.38,3.83a17.1,17.1,0,0,1,.92-9.12,47.52,47.52,0,0,1,9.68-.42,21.69,21.69,0,0,1,.67,6.16C67.79,182.75,67.4,183.39,66.83,182.67Z"/><path class="cls-26" d="M18.35,182.2c1.18-1.45,1.89-3.36,4-3.91.81-.21,1-1,1.09-1.73,1-.36,1.59.37,2.24.91.49,1.09,2,.82,2.5,1.83l1,2.94c-.35.89-1.48.5-1.94,1.21a6.4,6.4,0,0,1-.55,3.37,2.43,2.43,0,0,1-1.09.65c-1.56.27-3.09.32-4.4-.8-1-1.13-.53-2.6-.89-3.88C19.87,181.91,18.84,183,18.35,182.2Z"/><path class="cls-27" d="M66,121.87c-.25,1.08-.51,2.17-.76,3.25A19.79,19.79,0,0,1,56,121.33a24.5,24.5,0,0,1,1.59-4.84c1.13-2.87,3.61-3.14,6.27-2.85a1.67,1.67,0,0,1,.57,1.41,3.48,3.48,0,0,1-.42,1.44c-1.21,1.48-1.6,2.8.61,3.77A2.24,2.24,0,0,1,66,121.87Z"/><path class="cls-28" d="M86.49,198.87l0,2.73c-.68.93-1.7.85-2.67.86-3,0-6,0-9,0-2.58.05-5.17-.09-7.75.08a3.19,3.19,0,0,1-2.07-.48.94.94,0,0,1-.24-1.28c3.88-1.11,7.62-2.6,11.86-1.15C79.88,200.77,83.23,199.61,86.49,198.87Z"/><path class="cls-29" d="M21.38,186.43l4.26.45c.47,2.9-.91,5.37-1.84,7.94-.65,1.55-1.77,1.72-3.15,1.05a1.58,1.58,0,0,1-.52-.54.85.85,0,0,1,.25-1c1.31-.11.84-.84.57-1.55-1-2.52-1.93-5-2.86-7.57-.38-1-.67-2.08.26-3,.82-.21,1.45-1.64,2.49-.38C21,183.36,19.39,185.1,21.38,186.43Z"/><path class="cls-30" d="M21.75,112.31l-.49-3.46c2.95,1.88,5.66,3.68,9,4.09.59.8,2.35-.37,2.28,1.07-.06,1.14-1.42,1.46-2.47,1.74a21.52,21.52,0,0,1-7.11.46l-1.11-2.93A.68.68,0,0,1,21.75,112.31Z"/><path class="cls-31" d="M20.29,80.9A66.32,66.32,0,0,1,12.37,73c-1.5-1.91-.57-3.7.6-5.38.75-.17,1,.4,1.41.86.91,1.55,1.38,3.32,2.36,4.84.72,1.13.66,1.17,1.8.77.95,1.53.76,3.34,1.18,5Z"/><path class="cls-32" d="M63.79,113.86c-3.72,0-5.06,1.08-6,4.72-.28,1.13-.61,2.23-1.83,2.75-1.11-2.53-.44-5.15-.37-7.74,0-.9.14-1.79.21-2.69,1.88.21,3.21,1.7,5,2.16a8.26,8.26,0,0,0,2.61.27C63.85,113.29,64,113.46,63.79,113.86Z"/><path class="cls-33" d="M66.83,182.67l1.4-.19c.42,1.57.45,3.23,1.27,4.69.58,1,0,1.87-.64,2.66-3,.18-3.46-.25-3-3.28a3.59,3.59,0,0,0-.11-2.18C65,183,65.87,182.84,66.83,182.67Z"/><path class="cls-34" d="M15.48,198.7c-.72,0-1.46.21-2.07-.35.67-1.45.26-3.12.95-4.59.28-.58.28-1.39,1-1.62.93-.32,1.22.55,1.61,1.16.92,1,2.77.48,3.41,2l0-.05c.32.51.06.9-.25,1.28s-.72.54-1.08.39C17.08,196.12,16.23,197.3,15.48,198.7Z"/><path class="cls-35" d="M25.31,177.77c-.73-.24-1.55-.34-1.88-1.21-1.13-.45-2.62.43-3.61-1,1.38-.93,3.41-.32,4.47-2,.18-.27,1.65-.05,2.15.68.65.94,0,1.86-.37,2.74C25.83,177.26,26.3,178.21,25.31,177.77Z"/><path class="cls-36" d="M30.79,103.82a55.07,55.07,0,0,1-3.94-12.48A27.52,27.52,0,0,0,25,86c1.68.63,1.78,2.29,2.2,3.64,1.42,4.55,2.72,9.15,4.06,13.73C31.44,103.84,31.21,103.92,30.79,103.82Z"/><path class="cls-37" d="M84.26,69.73c-1.45-2.17-2-4.85-4-6.77-1.77-1.74-3.46-2.31-5.66-.83a15.08,15.08,0,0,1-3,1.17c2.1-3.32,6-3.94,8.68-1.11C82.32,64.28,84.56,66.39,84.26,69.73Z"/><path class="cls-38" d="M53.85,172.39c.66-1.44,1.23-2.95,2.89-3.64.55,1.06-.6,1.78-.25,2.68-.16,1.51-1.61,2.35-1.92,3.78.14.78,0,1.45-.79,1.79C52.23,175.44,53.2,173.92,53.85,172.39Z"/><path class="cls-39" d="M19.93,196.16l.37-.91c1-.14,2.08,1.4,3-.21a42.13,42.13,0,0,0,2.44-6.45c.18-.53,0-1.43,1.05-1.2.52,3.34-1.65,5.79-2.83,8.57a2.47,2.47,0,0,1-1.11,1.46C21.4,198.06,20.48,197.52,19.93,196.16Z"/><path class="cls-40" d="M19.72,79.1c-1.06-1.5-.84-3.37-1.45-5a62.18,62.18,0,0,0-3.58-6.93,1.93,1.93,0,0,1-.18-1.76C19,68.91,20,73.77,19.72,79.1Z"/><path class="cls-41" d="M14.51,65.41l.89,1.69a2.59,2.59,0,0,1-1.62,1.5l-.81-1c.21-2.46-1.07-3.45-3.37-3.54a6.54,6.54,0,0,1-2.91-.29C9.48,63.43,12.44,62.23,14.51,65.41Z"/><path class="cls-42" d="M69,81c-1.33,2.43-2.62,4.9-5.33,6.13C64.07,83.88,66.46,82.38,69,81Z"/><path class="cls-42" d="M67.67,176c-1.11-1.18.09-1.9.58-2.69a9.1,9.1,0,0,1,3-3.39C71.18,172.59,69.08,174.08,67.67,176Z"/><path class="cls-43" d="M26.75,187.39c-1.16,2.56-1.64,5.42-3.49,7.65.79-2.72,1.59-5.44,2.38-8.16l1.07-.06C26.72,187,26.74,187.2,26.75,187.39Z"/><path class="cls-44" d="M39,201.37l-.06-.59c3.34.07,6.69-.45,10,.37C45.63,201,42.34,201.84,39,201.37Z"/><path class="cls-44" d="M58.45,200.29a1.26,1.26,0,0,1,.31,1.34l-9.22-.49c1.89-.8,3.88-.22,5.82-.42C56.39,200.62,57.5,201,58.45,200.29Z"/><path class="cls-45" d="M53.92,176.86c.21-.55.43-1.1.65-1.65,1,1,1.46,2.12.28,3.33-.76.78-1.49.92-2.14-.13C53.18,178,53.44,177.32,53.92,176.86Z"/><path class="cls-46" d="M27.26,183.45c-.64-2.5,1.51-.45,1.94-1.21.6.65.9,1.49.19,2.07C28.37,185.15,28.1,183.46,27.26,183.45Z"/><path class="cls-47" d="M53.92,176.86c0,.87-.51,1.26-1.21,1.55.1-2-.49-4.12.72-6a1.48,1.48,0,0,1,.42,0C53.84,173.88,52.5,175.39,53.92,176.86Z"/><path class="cls-48" d="M64.76,200.79l.14.83a1.72,1.72,0,0,1-2.78.11L62,198C62.4,199.42,62.23,201.43,64.76,200.79Z"/><path class="cls-49" d="M58.25,161.91c.08,2.22-1.79,1.37-2.84,1.82C55.83,162.3,57.09,162.18,58.25,161.91Z"/><path class="cls-50" d="M20.33,195.3c-1-.82-2.76-.49-3.41-2,1.09.55,2.44.23,3.46,1C20.36,194.64,20.35,195,20.33,195.3Z"/><path class="cls-51" d="M25.31,177.77l.76-.8c.23,1.2,2.09.93,2.1,2.33C27.25,178.72,25.88,179,25.31,177.77Z"/><path class="cls-52" d="M30.79,103.82l.46-.48c.66,1.24,1.35,2.46,1,4C31.78,106.14,31.29,105,30.79,103.82Z"/><path class="cls-53" d="M26.74,205.14c3.31-1.24,6.81-1.35,10.26-1.81-3.37.78-6.66,1.94-10.17,1.9Z"/><path class="cls-2" d="M49.1,210.62l16.05.63c4.48,1.23,8.13,4.11,12.17,6.21a2,2,0,0,1,.85,1.16c2.81,2.18,5.61,4.36,7,7.82,1.54,3.81,1.3,5.12-1.56,8-1.23,1.23-2.52,2.39-3.74,3.62-.5.5-1.32,1.15-.77,1.86.67.88,1.29-.1,1.85-.47a20.2,20.2,0,0,1,3-1.85,12.12,12.12,0,0,1-3.38,5.4c-4,4-8.74,7-13.16,10.47-6.43,5-11.39,11-12.8,19.35-.87,5.1-.54,10.22-.22,15.34l-9.23,0c.52-10.73,1-21.46,1.55-32.19q.87-17.32,1.81-34.66C48.69,217.72,48.9,214.17,49.1,210.62Z"/><path class="cls-2" d="M78.72,288.21l-12.36-.08C60.28,275,63.53,263,75.79,253.4c1.81-1.42,3.68-2.78,5.5-4.19a19.73,19.73,0,0,0,4.76-4.93c.85.18.51.8.51,1.19,0,10.91,0,21.82,0,32.73A9.71,9.71,0,0,1,78.72,288.21Z"/><path class="cls-5" d="M66,121.87l-2.09-1.24C61,119,61,119,63.39,116.42l.21-.13c.72-.45,1.86.93,2.31-.45s-1-1.6-1.77-2.13a10.32,10.32,0,0,0-2.21-6.16,9.83,9.83,0,0,1-1.26-2.68,3.16,3.16,0,0,1,.47-3.28c.65-.72,1.45-1.83,2.31-.08.14.27.32-.18.43-.33,2.73-3.69,6.64-5.56,10.78-7.08,1.94-.72,3.85-1.48,5.78-2.18.68-.25,1.56-.67,2,.06s-.26,1.36-.78,1.84a32.9,32.9,0,0,1-2.92,2.68c2.42-.43,5-1.68,7.71-.19V100c-1.72,2.36-4.55,3.17-6.76,4.83a9,9,0,0,1-1.53.79c2.41-.88,4.89-3.16,8.29-2.27,0,4,0,7.93,0,11.9a31.66,31.66,0,0,0-9.32-.27C72.35,115.46,68.86,118.18,66,121.87Z"/><path class="cls-54" d="M86.5,96.31c-3.2-.22-6.28.72-9.92,1.2,2.24-2,3.73-3.93,5.78-5.33-7.15,2.84-15.15,4.18-19.7,11.61-.56-1.1.56-1.81.24-2.83-1.68.88-2.26,2.1-1.48,3.82a12.34,12.34,0,0,0,1.52,2.82c1.56,1.89,2.33,3.88,1.4,6.29.39.64.54,1.2-.45,1.38,0-.47-.07-.94-.1-1.41l-.37-.53c.08-.58.19-1.21-.56-1.43-1.13-.34-1.77-1.37-2.59-1.92-1.84-1.24-1.69-2.65-1.21-4.2.68-2.19-.3-4.26-.21-6.3.45-.84,1.11,1.76,1.58-.28.83-3.58,3.7-5.39,6.52-7.15.63.6-.32,1,.11,1.49l.62-.21c3.13-1.26,4.86-4.09,7.14-6.33A19.78,19.78,0,0,1,86.5,81.08Z"/><path class="cls-2" d="M66.47,211.24l3.9-1.05a7.63,7.63,0,0,0-4.44-1c-3.42,0-3.42,0-3.61-3.45a2.85,2.85,0,0,1-.07-2.11,2.2,2.2,0,0,1,2.24-.54c2.29.48,4.62.71,6.89,1.31,4.34.59,8.65,1.46,13,2.3a3.18,3.18,0,0,1,2.16,1l0,4.33c-.32,2-1.18,4.08,0,6.1V223c-2.72-1.58-5-3.71-7.74-5-3.25-1-6-3-8.94-4.55C68.65,212.88,67,212.88,66.47,211.24Z"/><path class="cls-55" d="M62.39,203.7c0,.69,0,1.38-.07,2.07a6.64,6.64,0,0,1-.2-4l2.78-.11,9.65.14c3.09.5,6.22.07,9.32.23.88,0,1.81-.29,2.63.29l0,1.41c-1.93,1.43-4.2.93-6.2.64-4.36-.61-8.71-.27-13.06-.38C65.6,203.91,64,202.87,62.39,203.7Z"/><path class="cls-56" d="M86.47,204.24c0,1,0,1.93,0,2.9-2.53.45-4.86-.66-7.3-1-2.72-.33-5.39-1-8.1-1.34-.71-.38-1.6-.18-2.24-1A167.13,167.13,0,0,1,86.47,204.24Z"/><path class="cls-57" d="M86.5,103.3l-9.93,3.16c3.39-2.11,6.16-5.12,9.93-6.51Z"/><path class="cls-58" d="M86.47,204.24c-5.69,0-11.39.14-17.3-.68.66.94,1.67.39,2.08,1.12.3.16.31.33,0,.51a73.62,73.62,0,0,0-8.87-1.49c.09-1,.81-.53,1.3-.52l22.78.51Z"/><path class="cls-59" d="M66.47,211.24l12.29,6.81-.59.57c-4.36-2.41-8.87-4.58-13-7.37Z"/><path class="cls-60" d="M71.26,205.19v-.51l15.24,2.46v.6c-4.42-.77-8.85-1.55-13.28-2.31C72.57,205.32,71.91,205.27,71.26,205.19Z"/><path class="cls-61" d="M85.74,170c-.25-2-.46-3.55-.63-5.13-.06-.55.18-1,.77-1.07s.76.51.71,1C86.43,166.43,87.05,168.13,85.74,170Z"/><path class="cls-62" d="M86.5,218.17c-2.47-2-1.16-4.06,0-6.1C86.46,214.1,86.48,216.14,86.5,218.17Z"/><path class="cls-63" d="M86.5,202.28c-4-.19-8,.25-12-.52l12-.16C86.51,201.83,86.5,202.05,86.5,202.28Z"/><path class="cls-64" d="M21.75,112.31c0,.32,0,.65.05,1l-3-1.92.55-.51C20.27,111.13,20.7,112.24,21.75,112.31Z"/><path class="cls-65" d="M21.71,94.39c1,4.51-1,8.39-.56,12.36C19.53,102.76,20.28,98.85,21.71,94.39Z"/><path class="cls-66" d="M19.93,196.16c1,.38,1.76,1.21,2.88,1.26-.14,2.18-1.2,2.69-3.22,2a26.79,26.79,0,0,0-4.11-.74c-1.11-1.43.56-2.09,1-3s1.22.09,1.75.38S19.32,196.64,19.93,196.16Z"/><path class="cls-48" d="M22.84,202.1l-5.63.1A6.71,6.71,0,0,1,22.84,202.1Z"/><path class="cls-67" d="M11.91,79.11C9,77.71,7.48,75,5.35,72.91a2.67,2.67,0,0,1-.64-1c-.59-1.69,0-3.13,1.57-3.64s1.84,1.23,2,2.19C8.62,73.68,9.36,76.72,11.91,79.11Z"/><path class="cls-68" d="M68.44,170.75c-.29.56.09,1.76-1,1.85-.76.06-.72-.83-.45-1.32.4-.68-.23-2,1-2C68.62,169.21,68.69,170,68.44,170.75Z"/><path class="cls-69" d="M21.38,186.43a2.12,2.12,0,0,1-1.65-3.3,12.41,12.41,0,0,1,1.11-1.31C21.86,183.26,21.11,184.9,21.38,186.43Z"/><path class="cls-70" d="M63.89,115.27l.45-1.38c.74.07,1.16-2,2-.45.74,1.29,1,3.1,0,4.1-.69.7-2-.7-3-1.12C63.56,116,63.72,115.65,63.89,115.27Z"/><path class="cls-71" d="M13.78,68.6c-.2-1.31.42-1.72,1.62-1.5,1,1.73,2,3.46,3,5.18a1.73,1.73,0,0,1-.15,1.82c-.7.31-.26,1.16-.7,1.65A22.4,22.4,0,0,1,13.78,68.6Z"/><path class="cls-72" d="M77.45,240.76c.56.06,1.09.29,1,.84a2.13,2.13,0,0,1-1.84,2,.75.75,0,0,1-1-.77C75.73,241.66,76.54,241.14,77.45,240.76Z"/></svg>