<svg id="Layer_1" data-name="Layer 1" xmlns="http://www.w3.org/2000/svg" viewBox="0 0 81.93 270"><defs><style>.cls-1{fill:#fefafa;}.cls-2{fill:#fefefe;}.cls-3{fill:#fbe0e1;}.cls-4{fill:#e9e9f7;}.cls-5{fill:#fcfcfd;}.cls-6{fill:#f8ca6e;}.cls-7{fill:#dadae6;}.cls-8{fill:#8c8ec0;}.cls-9{fill:#fe1313;}.cls-10{fill:#fef6eb;}.cls-11{fill:#f3a917;}.cls-12{fill:#fe1414;}.cls-13{fill:#090528;}.cls-14{fill:#020027;}.cls-15{fill:#47499b;}.cls-16{fill:#030129;}.cls-17{fill:#6b6bec;}.cls-18{fill:#a01201;}.cls-19{fill:#9f1202;}.cls-20{fill:#0d0228;}.cls-21{fill:#19082f;}.cls-22{fill:#0f062f;}.cls-23{fill:#a01202;}.cls-24{fill:#47489b;}.cls-25{fill:#46489a;}.cls-26{fill:#6968e6;}.cls-27{fill:#615e70;}.cls-28{fill:#640b11;}.cls-29{fill:#2e2e70;}.cls-30{fill:#22235d;}.cls-31{fill:#494798;}.cls-32{fill:#503c83;}.cls-33{fill:#040229;}.cls-34{fill:#0b0a36;}.cls-35{fill:#420819;}</style></defs><path class="cls-1" d="M0,8.86c0-2.55.06-5.1,0-7.65C0,.24.16,0,1.17,0,3.79.1,6.41,0,9,0Q44.58,0,80.14,0c1.39,0,1.79.25,1.79,1.75q-.09,31,0,61.93a.73.73,0,0,1-.72.15,1.23,1.23,0,0,1-.64-.93c.58-4.54-.08-9.1.21-13.65,0-12.61,0-25.21-.06-37.82C80.63,4.61,77.09,1.22,70.29,1.22c-19.56,0-39.12.07-58.68-.06C6.49,1.13,3,3,1.28,7.91A3.21,3.21,0,0,1,.8,8.7.59.59,0,0,1,0,8.86Z"/><path class="cls-2" d="M81.89,173.77q0,47.16,0,94.31c0,1.59-.29,2-1.9,1.9-2-.18-4,0-6,0a.59.59,0,0,1,.09-.75,3.07,3.07,0,0,1,.93-.67c4.17-1.9,5.66-5.4,5.69-9.74,0-7.62,0-15.25,0-22.87-.06-1.58-.08-3.15,0-4.73-.09-8.28-.11-16.57,0-24.85-.09-10.36-.11-20.72,0-31.08a2.82,2.82,0,0,1,.39-1.26A.56.56,0,0,1,81.89,173.77Z"/><path class="cls-3" d="M0,8.86a1.7,1.7,0,0,1,.39,0c.88.75.81,1.8.81,2.79,0,23.31.11,46.62-.05,69.93.14,1.93,0,3.86,0,5.8,0,2.52.11,5,0,7.55.08,16.12.12,32.23,0,48.34,0,1.74.32,3.52-.38,5.21a.53.53,0,0,1-.74.22Z"/><path class="cls-2" d="M81.89,173.77h-.48a3.36,3.36,0,0,1-.72-2.6c0-10.84-.11-21.67,0-32.5-.11-1.35,0-2.71,0-4.06-.15-7.41,0-14.82-.06-22.23-.05-15,0-29.94,0-44.91,0-1.28-.26-2.65.68-3.78h.52Z"/><path class="cls-4" d="M0,261.57V176.1a.52.52,0,0,1,.73.2,3.15,3.15,0,0,1,.38,1.7c.19,13.45.1,26.91.07,40.36.07,13,0,26,0,39.08a8.23,8.23,0,0,1-.43,3.87A.57.57,0,0,1,0,261.57Z"/><path class="cls-5" d="M0,261.57a2.64,2.64,0,0,0,.4,0c1.11.94,1.18,2.47,2,3.58a12,12,0,0,0,5.92,4.17.48.48,0,0,1,0,.61c-2.47,0-4.94-.05-7.4,0-.81,0-1-.14-.95-.95C.08,266.53,0,264.05,0,261.57Z"/><path class="cls-6" d="M74.05,269.49a.48.48,0,0,0,0,.45H26.85a.59.59,0,0,1,.27-.78,7.15,7.15,0,0,1,3.39-.44q19.91,0,39.82,0C71.6,268.73,73,268.46,74.05,269.49Z"/><path class="cls-7" d="M.42,176.1H0V148.69l.41,0c.91.84.79,2,.79,3q0,10.71,0,21.43C1.23,174.16,1.35,175.29.42,176.1Z"/><path class="cls-8" d="M26.91,269.5a1.12,1.12,0,0,1-.06.44H8.36a.71.71,0,0,1-.1-.37,2.07,2.07,0,0,1,1.83-.78c5.36,0,10.72-.33,16.08.19A1.75,1.75,0,0,1,26.91,269.5Z"/><path class="cls-9" d="M.57,81.62Q.53,66.79.49,52,.46,30.41.42,8.85C1.63,3.15,4.85.51,10.61.5H71.2c6.28,0,10.06,3.79,10.08,10.1q0,19.5.08,39c-.19.26-.39.26-.59,0a2.87,2.87,0,0,1-.4-1.31c-.38-3.26-1-3.77-4.32-3.2a198.81,198.81,0,0,0-20.82,5.12c-1.93.24-3.61,1.79-5.72,1.07a4.08,4.08,0,0,1-1-2.32,9.63,9.63,0,0,0-.88-3.61c-1.34-1.63-3.28-2.26-5.13-3A5.33,5.33,0,0,1,39,39.05c-.71-2.09-2.74-2.81-4.59-3.59-2-.84-4.2-1-6.22-1.77-2.51-1-2.79-2.14-.82-4,2.91-2.79,6.37-4.85,9.31-7a110.67,110.67,0,0,0-14.53,7.68c-1.63,1-2.95,2.11-2.71,4.18a5.19,5.19,0,0,0,3.46,4.3,32.05,32.05,0,0,0,7.64,1.65c4.4.65,4.86.1,2.81,4.79a21.36,21.36,0,0,1-1.11,2.55c-.68.63-1.5,1.16-1.65,2.18a7.38,7.38,0,0,0-.33,2.51c-.31,1.51.59,2.21,1.78,2.74.39,1.45-.31,2.73-.61,4.07a5.85,5.85,0,0,1-2.92,2.52A91.78,91.78,0,0,0,2.82,80.46C2.24,81.07,1.72,82,.57,81.62Z"/><path class="cls-9" d="M81.37,63.69q0,12.18-.08,24.36,0,22,0,44.05c0,.84-.09,1.69-.14,2.53a2.19,2.19,0,0,1-1.39,1.14c-3.77,1.56-7.54,3.11-11.29,4.71a2.42,2.42,0,0,1-1.79.14,1.38,1.38,0,0,1-.58-.37c-3-4.4-6-8.79-9.29-13a1.77,1.77,0,0,1,.24-2.5A14.78,14.78,0,0,0,58.51,123c1.56-2.47,1.26-4.68-.9-6.6-.58-.51-1.16-1-1.78-1.48a6.53,6.53,0,0,1-2.74-5.58c0-.77,0-1.54,0-2.31-.14-2.46-1.12-3.15-3.47-2.42-1.47.46-2.78,1.32-4.28,1.72a8.27,8.27,0,0,1-5-.52c-1.45-.54-1.77-1.59-1.09-3a10.92,10.92,0,0,1,.9-1.35c3.84-5.58,7.39-11.35,11.12-17a14.93,14.93,0,0,0,2.61-6.36c.32-2.46-.7-4.79-.67-7.22.21-1.05,1.06-1.46,1.88-1.87,6-2.94,11.66-6.47,17.67-9.36,2.88-1.39,3.12-1.39,5.5.67A9.3,9.3,0,0,1,81,63.15Z"/><path class="cls-10" d="M81,63.15c-1.45-1.12-2.9-2.23-4.34-3.37-.6-.47-1-.92-2-.41-7,3.77-14,7.47-21,11.2-5.48,3.48-11.16,6.21-17.89,4.15C33,73.88,31.26,72.08,31.25,69c.42-1.22,1.53-1.7,2.53-2.21,4.3-2.2,8.55-4.5,13-6.4,7.63-2.79,15.16-5.85,22.88-8.39,1.07-.35,2.26-.49,2-2.22-.14-1,1-1,1.69-1.08a25.1,25.1,0,0,1,7.71.86,1.09,1.09,0,0,0,.26,0c-.47,2.18.22,4.34.09,6.52C81.31,58.47,81.58,60.83,81,63.15Z"/><path class="cls-11" d="M26.91,269.5l-.48-.08c-1.94-.4-3.44-1.65-5.06-2.66q-6.95-4.36-13.81-8.83a11.73,11.73,0,0,1-1.68-1.21c-.44-.42-1-.86-.71-1.56s.85-.62,1.38-.66c4.59-.29,9.18-.67,13.77-1,3.44-.26,6.88-.34,10.31-.73,5.69-.22,11.35-.87,17-1.18a91.19,91.19,0,0,0,11.65-1c-7.1-5.33-14.07-10.4-21.07-15.44-.81-.58-1.65-1.14-2.4-1.8-.57-.5-1.41-1.05-1-1.89s1.32-.7,2.09-.62c1.45.15,2.91.27,4.36.43,10,1.11,20.07,2,30.08,3.14,2.07,0,4.08.62,6.15.52,1.29.09,2.62.08,3.65,1.07,0,8.33.22,16.66.06,25-.08,4.36-2.84,7.29-7.17,8.51Z"/><path class="cls-11" d="M81.36,206.45q-.09,12.36-.17,24.72c-2.67-.58-4.31-2.84-6.56-4.12-2.34-1.72-4.62-3.54-7-5.21-13.26-9.7-26.32-19.68-39.57-29.39-1-.74-3-1.56-2.46-2.67.79-1.56,2.66-.36,4,0,8.39,2.57,16.77,5.19,25.2,7.64,3,1,6.07,1.86,9.1,2.83,1.85.72,3.82,1.07,5.69,1.75,2.37.66,4.7,1.46,7,2.19C78.24,204.84,80.2,204.76,81.36,206.45Z"/><path class="cls-10" d="M81.36,206.45l-5.06-1.76c-1.64-1.65-2.2-3.86-3-5.93-1.59-4.2-2.34-8.64-3.57-12.95-.63-2.2-.19-2.61,2.06-2.47,2.59.15,2.61.14,1.74-2.39-1.55-4.54-3.57-8.88-5.37-13.31-.49-1.21-1.06-1.73-2.08-.45s-2.14.8-3.26.1c-4.11-2.56-7.19-6.25-10.43-9.75a22.2,22.2,0,0,1-2.65-3.5c-1.15-1.9-1.08-2.41,1-3.34,3.73-1.65,7.46-3.29,11.27-4.74,2.13-.81,4.06-2.26,6.49-2.12a4.06,4.06,0,0,1,1.58,2.21A197.11,197.11,0,0,1,78.54,169a20.62,20.62,0,0,0,2.79,5.52Z"/><path class="cls-12" d="M81.33,174.52A5.54,5.54,0,0,1,78.61,171,225.46,225.46,0,0,0,68.5,144c-.17-.61.29-.83.69-1,3.57-1.58,7.14-3.15,10.83-4.44a1.6,1.6,0,0,1,1.12,0l.15,18.51.12,16.66Z"/><path class="cls-13" d="M74.91,226.67l6.28,4.51a20.91,20.91,0,0,1,0,4.81l-3.31-.49C76.12,232.81,74.39,230.12,74.91,226.67Z"/><path class="cls-14" d="M81.14,138.6,68.5,144,48.93,152c4.32,6,8.88,11.39,14.89,15.35.74.48,1.16.55,1.67-.22s1.1-1.47,1.92-2.55c1.37,3.18,2.63,6.09,3.86,9s2.41,5.84,3.35,8.86c.43,1.38.51,2-1.25,1.68-1.1-.23-2.23-.27-3.57-.42,2,7.18,3.42,14.34,6.5,21l-6.89-2.16a4.71,4.71,0,0,1-1-2.78c-1.12-7.49-2.41-14.95-3-22.51a6.87,6.87,0,0,0-.33-1.55A12.93,12.93,0,0,0,63.75,178c-1.14,1.9-2.14,2.15-3.58.46-2.89-3.4-6.28-6.36-8.71-10.18q-3.06-4.78-5.92-9.68c-2.11-3.62-2.14-3.6-6.07-2.09-5.92,2.62-11.91,5.07-17.89,7.55-3.63,1.4-7.15,3.05-10.72,4.58-5.65,1.88-5.75,2-3.89,7.67a7.9,7.9,0,0,0,.58,1.57,29.94,29.94,0,0,1,1.13-3.27c.25-.5.43-1.28,1.31-.76,1.25,3.83,3.17,7.48,3,11.68-.51,2.2-2.23,3.57-3.54,5.21a2.48,2.48,0,0,1-2.39.6,1.36,1.36,0,0,1-.9-.66C4.28,186.3,1.3,182.36.56,177.47L.42,176.1q0-13.71,0-27.44l.18-5.09c.64-2.23.33-4.65,1.28-6.82,1.9-3.24,4.58-5.8,7.19-8.43,1.8-1.81,1.81-1.83.08-3.58a1.9,1.9,0,0,1-.36-2.33c.63-1.42,1.37-2.78,2-4.17a5.26,5.26,0,0,0,.73-3.11c-.07-.51-.32-1.15.36-1.41s1,.17,1.46.51A15.74,15.74,0,0,1,15,115.9c.38.42.5,1.34,1.27,1.09.61-.19.67-1,.87-1.56a11.41,11.41,0,0,0,.33-4.61A9.69,9.69,0,0,1,21.53,102c.3-.24.61-.47.9-.73,1.86-1.63,1.89-1.94.35-3.89a4.73,4.73,0,0,1,0-2.86C23.7,92.57,25.69,92,27.29,91c1.14-.72,1.74-1.18.19-2.21-2.37-1.56-2.4-2-.88-4.47.62-1,1.14-2,1.8-3a8.07,8.07,0,0,0,1.29-6.14c-.42-3-.5-6.15,1.35-8.9a.65.65,0,0,1,.66.25c.48.77.14,1.5-.1,2.24.31,5.36,6.48,6.6,11.12,5.81,3.88-.66,7.16-3,10.9-4.08.47,2.6,1.21,5.17.88,7.86a3.67,3.67,0,0,1-1.87,1.29c-5.61,1.78-10.49,5.07-16,8a11.29,11.29,0,0,1,4.08-.41c.83,0,1.87-.2,2.32.65s-.28,1.59-.77,2.27A23.13,23.13,0,0,1,31,98.75c-.77.27-2.07.25-1.24,1.73a1,1,0,0,1-.13.62c-2.11,3.72-1.76,5.63,1.53,8.31,2.28,1.86,2.89,3.6,1.87,5.34,0,.06.09-.17.16-.17,3.26-.15,5.44-2.26,7.69-4.24a2.55,2.55,0,0,1,1.6-.85,14.91,14.91,0,0,1,5.86,7.79,1.39,1.39,0,0,1-1.11.8c-2.61.07-5.23,0-7.55,1.59-1.06.72-1.53,1.47-1,2.7,1.77,3.83,2.43,8,3.32,12a54.21,54.21,0,0,0,4.19,11.52c.77,1.62,1.66,1.91,3.27,1.18,4.85-2.17,9.84-4,14.7-6.16a3.85,3.85,0,0,1,2.44-.52l14.5-5.8A11.51,11.51,0,0,1,81.14,138.6Z"/><path class="cls-9" d="M2.45,136.46c-.35,1.89-.69,3.78-1,5.67-.11.56.09,1.3-.79,1.44,0-4.24-.12-8.48-.12-12.73q0-18.07.07-36.15c.9-.07,1.4.56,1.85,1.16,1,1.3,2.22,2.33,3.21,3.58A6.59,6.59,0,0,0,12.84,102s-.1,0-.28-.12c-.8-.45-2.36-.41-2-1.74.48-1.7,2.09-2,3.69-2a4.07,4.07,0,0,0-2.9-.55c-1.25.11-2.4,1-3.73.49-1.91-3-2.13-6.37-2.43-9.75.29-.83,1-1.1,1.75-1.36,5.11-1.87,10.21-3.8,15.32-5.66.85-.31,1.75-.75,2.55.14.84,1.81.14,3.61-.08,5.39-.32,2.47-.16,5.06-1.46,7.33L23,97.55c-1.08,3.07-3.59,5.13-5.47,7.62C12.38,112,7.37,118.92,5,127.37,4.19,130.4,3.79,133.57,2.45,136.46Z"/><path class="cls-15" d="M23.28,94.17,24.7,81c-.53-3.19.63-6.23.86-9.36a17.77,17.77,0,0,0,.27-2.31,33.15,33.15,0,0,0-5.59,3c-.85.49-.47,1.17-.08,1.79.61,1,.22,1.61-.67,2A140.85,140.85,0,0,0,1.81,87a1.31,1.31,0,0,1-1.28.33c0-1.91,0-3.83,0-5.75C4.49,78,8.27,74.3,12.5,71.06a88.66,88.66,0,0,1,15.72-9.65,8.53,8.53,0,0,0,2.77-2c.83-1.25,2.11-2.42.8-4.1-2.54.55-2.36-1.08-2.16-2.72,2.26-.62,1-1.84.49-2.93,0-1.09.4-1.89,1.69-1.82,2.45,1.49,2.34,1.43,3.75-1.31.71-1.37.64-3.42,2.71-3.87,1.06,1,1.09,2.27,1.11,3.57a2.84,2.84,0,0,1-.67,1.67c-1.64,1.61-1.11,3.44-.75,5.34.29,1.47.95,1.72,2.23,1.15.83-.37,1.67-.72,2.53-1s1.59-.68,2.41-1c1.48-.32,2.79-1.28,4.39-1.15l5.39-1.42a.54.54,0,0,1,.08.63,125.4,125.4,0,0,1-8.14,10.4c-5.11,2.61-10.42,4.82-15.25,8,0-.79-.07-1.58-.11-2.38A6,6,0,0,1,31.77,65a3.6,3.6,0,0,1-.71,1.55,16.56,16.56,0,0,0-.8,8.22c.65,3.12-.26,5.51-1.89,8-.87,1.32-2.52,2.63-2.26,4.13s2.41,1.67,3.5,2.74a2.84,2.84,0,0,1,.29.49Z"/><path class="cls-16" d="M.53,87.37a118.59,118.59,0,0,1,18-11.28c1.21-.6,2.15-1,.66-2.29-.78-.69-.68-1.26.26-1.76,2.3-1.22,4.57-2.48,7.24-4-.71,4.62-1.35,8.79-2,13L5.52,88.18c-.64,1.07-1.83,1-2.73,1.22a67.49,67.49,0,0,1,4.54,8.72c.07.16,0,.43.25.48A1,1,0,0,1,7.86,98a12.17,12.17,0,0,1,3.89-1c1.25.66,2.75.69,3.92,1.55-.12.73-.69.56-1.06.4-1.67-.73-2.75.19-3.92,1.3.76.82,1.8.85,2.67,1.22.4.17,1,.36.77,1s-.63.56-1.11.35a.36.36,0,0,0-.22,0c-5.28,1.18-7.51-3-10.41-6-.64-.66-1.22-1.39-1.82-2.08Q.56,91,.53,87.37Z"/><path class="cls-17" d="M.56,177.47,6.92,191a3.62,3.62,0,0,1,.94,1c1.88,3.38,3.24,7,4.8,10.52,1.12,3.18,1.57,6.54,2.81,9.7.13-4.12,2.26-8.47-1.46-12.14a67.08,67.08,0,0,1-1.52-14.19c.32-2.15-.55-4.07-1.1-6.06s-1.12-4-1.68-6c-1.19-2.13-.22-3.89,1-5.61a108.93,108.93,0,0,1,10.42-4.48c.8,0,1.15.69,1.63,1.17q15.06,15.15,30.13,30.3c.76.77,2,1.34,1.79,2.76q-12.67-3.81-25.37-7.6a8.48,8.48,0,0,0-4-.69l13.8,10.27L66.75,220.5c.43.32.81.7,1.22,1.05,1.64,3.54,1.66,7.53,3,11.14a2.62,2.62,0,0,1,.08,2.24L35,231.33l-.18.46c8.71,6.36,17.41,12.73,26.69,19.52l-31,2c-1.68.18-2.46-1.14-3.3-2.16-4.78-5.73-9.53-11.49-14.32-17.21-3.56-4.24-7-8.56-10.62-12.77a9.79,9.79,0,0,1-1.64-2.76Z"/><path class="cls-15" d="M.58,218.45q8.49,10.16,17,20.3c3.49,4.18,6.94,8.4,10.45,12.57a5,5,0,0,0,2.44,2L13,254.65l-8.3.62,21.7,14.15-18.17.15c-4.58-.71-6.88-3.68-7.83-8l.06-40.12C.5,220.46.55,219.46.58,218.45Z"/><path class="cls-16" d="M38,42.68c-1,2.08-2,4.14-2.88,6.26-.75,1.78-1.43,2-2.4.19a13,13,0,0,0-.93-1.31c.76-2.09,1.53-4.18,2.33-6.36-3.71-.41-7.4-.6-10.92-1.81-2.27-.79-3.92-2.12-4.4-4.6a3.86,3.86,0,0,1,1.59-4.29c5.5-3.41,11-6.78,17.16-9a1.18,1.18,0,0,1,1.23,0c-3.21,2.36-6.38,4.66-9.52,7-1.14.86-2.94,1.73-2.63,3.21s2.37,1.45,3.72,1.8a25.7,25.7,0,0,1,5.9,1.95c1.72.92,3.41,1.94,3.59,4.19C40,41.05,41,41,41.69,41.36c2.19,1.21,4.84,1.6,6.5,3.74-.49,1.62-1.72.95-2.62.72A31.73,31.73,0,0,1,38,42.68Z"/><path class="cls-18" d="M46.85,60.86c2.18-4,5.41-7.33,8.06-11a155.32,155.32,0,0,1,22.36-5.62c2.34-.42,3.71,1,3.74,3.29,0,.69.06,1.38.09,2.07-3,.54-6-.78-9.3-.18L73,51.58C64.06,54.32,55.59,58,46.85,60.86Z"/><path class="cls-19" d="M38,42.68c2-.2,3.42,1.41,5.23,1.76,1.63.32,3.11,1.82,4.94.66a8.15,8.15,0,0,1,.87,3.7c-1.8.84-3.36,1.88-3.67,4.07l-2.28.87a2.08,2.08,0,0,1-.49-2.89c.66-1.29.12-2-1-2.59A6.66,6.66,0,0,1,39,46.43Z"/><path class="cls-20" d="M45.39,52.87c-.08-3.5-.08-3.5,3.67-4.07.15.81.3,1.63.46,2.45A17.06,17.06,0,0,1,45.39,52.87Z"/><path class="cls-21" d="M31.79,55.29c.28-.27.81-.53.9-.11.24,1.07.61,2.25-.21,3.23a6.52,6.52,0,0,1-1.49,1C31.26,58,31.52,56.66,31.79,55.29Z"/><path class="cls-22" d="M30.12,49.64c.43.29.88.56,1.3.88.73.57.28,1.26.06,1.84-.44,1.21-1.22.23-1.85.21A4.73,4.73,0,0,1,30.12,49.64Z"/><path class="cls-10" d="M48.2,117a54,54,0,0,0-5.77-7.44c-.18-2.15,1.73-2.64,2.91-3.72a26.35,26.35,0,0,1,4.59-2c2.54-.63,3.66.2,3.71,2.81a30.3,30.3,0,0,0,.12,4.16c.3,1.85,1.6,3.07,3.07,4.17,4.22,3.16,4.44,6.51.57,10.13-1,.9-.54,1.32,0,2a107.4,107.4,0,0,1,9.24,13.27c-6.14,2.61-12.3,5.19-18.41,7.87-1.36.6-1.54-.31-2-1.09-3.12-5.51-4.75-11.52-6-17.68a26,26,0,0,0-2.4-7.47c-.59-1.11-.23-1.67.59-2.3a10.75,10.75,0,0,1,8.69-2.16c2.47.21,3.32,2.62,4.87,3.65C50.92,119.92,49.21,118.81,48.2,117Z"/><path class="cls-18" d="M45.34,105.87c-.65,1.49-2.3,2.19-2.91,3.72-.51.47-1,.92-1.54,1.4-2.82,2.74-2.81,2.74-9,4.16,1.37-.88,1.61-1.67,1-2.9-.95-1.84-2.62-2.78-4.12-4-1.73-1.36-1.13-6.52.86-7.46a14.15,14.15,0,0,0,3.15,1.54,22.54,22.54,0,0,1-3.17-1.53l-1.42-1.73A23.55,23.55,0,0,0,43,88a48.91,48.91,0,0,0-7.48.06c6.06-3.78,12.16-7.42,19-9.58a17.93,17.93,0,0,1-3,6.92c-3.91,5.81-7.43,11.88-11.6,17.52-1,1.35-.48,2.16.94,2.54A9.59,9.59,0,0,0,45.34,105.87Z"/><path class="cls-23" d="M71.1,234.93A60.26,60.26,0,0,1,68,221.55l6.94,5.12c.41,3.14,2.17,5.81,2.94,8.83C75.56,235.76,73.35,235.12,71.1,234.93Z"/><path class="cls-9" d="M54.65,198,28.19,171c-2.37-2.42-4.73-4.87-7.09-7.3l18.25-7.62c1.32-.13,1.64,1,2.14,1.8,3.8,6,7.42,12.13,11.16,18.18,1.87,3,3.71,6.07,5.71,9a31.53,31.53,0,0,1,5.36,12.72c.16,1,.64,1.94.05,2.92A60.35,60.35,0,0,1,54.65,198Z"/><path class="cls-18" d="M63.77,200.74c-.88-7.88-5.13-14.21-9.25-20.64-4.49-7-8.76-14.16-13.13-21.23a7.62,7.62,0,0,0-2-2.76c4.2-2,4.3-2.05,6.49,1.94a92.24,92.24,0,0,0,14.68,20.08c1.26,1.3,1.9,1.58,2.66-.31A16.79,16.79,0,0,1,65.39,174c1.12,9.58,2.58,19,4,28.49A27.22,27.22,0,0,1,63.77,200.74Z"/><path class="cls-9" d="M37.42,152.73c-6.5,2.74-12.92,5.66-19.56,8-1.4-.09-2-1.18-2.59-2.19a3.55,3.55,0,0,1,.33-2.9c2.42-5.42,4.84-10.84,7.17-16.29a4.4,4.4,0,0,1,1.28-1.9l2-4.24,1.32,2.36a6.46,6.46,0,0,1,1.91,2.24c2.4,4.4,5,8.67,7.72,12.87C37.4,151.28,38.16,151.89,37.42,152.73Z"/><path class="cls-24" d="M2.45,136.46a57.25,57.25,0,0,1,11.68-27.71C17,105,20,101.28,23,97.55c2.43,1,2.78,1.64.69,3.16C19,104.13,17.2,108.49,18,114.13a4.16,4.16,0,0,1-.27,1.35c-.24,1-.53,2.23-1.44,2.5s-1.13-1.15-1.74-1.73a8.73,8.73,0,0,0-3-2.44c1.24,1.65.59,2.88,0,4.11s-1.14,2.54-1.84,3.73c-.91,1.58-1.11,2.76,1,3.49,1.43.5,1.05,1.28.12,2.15A106.12,106.12,0,0,0,2.45,136.46Z"/><path class="cls-15" d="M24.05,137.48c-2.13,6.05-5.07,11.76-7.54,17.67-.43,1-1.3,2-.93,3.23-.55,1.51-.95,3.11-2.13,4.31L8,165.08c-.41.18-.86.53-1.27.13s-.08-.85,0-1.29c.89-3.56,3-6.47,5.26-9.18a36,36,0,0,0,7.94-18.46c.12-.9.36-1.78.56-2.78C22.25,134.44,23,136.14,24.05,137.48Z"/><path class="cls-18" d="M37.42,152.73l-10-17.13c1.5-.27.65-1.66,1.11-2.46a10.86,10.86,0,0,0,.69-2.71c.82.33.89,1.07,1.14,1.63,2.65,5.84,6.21,11.14,9.6,16.54,1.57,2.52,1.6,2.51-1.22,3.66C38.28,152.43,37.85,152.58,37.42,152.73Z"/><path class="cls-16" d="M12.49,185.86c1.17,2.92.77,6.08,1.33,9.1.33,1.73.41,3.51.6,5.27-.31,1.24-.37,2.75-2.33,2.34q-2.34-5.34-4.7-10.67c.26-.83,1.15-.54,1.63-1,.07-.07,1.15.05.26-.54Z"/><path class="cls-25" d="M10.68,168.21c-.23,1.89-1.22,3.64-1,5.61l-2.14,5.52a34.09,34.09,0,0,1-2.35-7.12,2,2,0,0,1,1.39-2.51C8,169.23,9.21,168.4,10.68,168.21Z"/><path class="cls-26" d="M13.45,162.69c.56-1.51.65-3.26,2.13-4.31l2.28,2.38A16.66,16.66,0,0,1,13.45,162.69Z"/><path class="cls-27" d="M48.2,117a31.09,31.09,0,0,1,5.48,6c-2.45-1.49-3.66-4.43-6.51-5.4C47.52,117.42,48.06,117.6,48.2,117Z"/><path class="cls-28" d="M23.07,124.3c2-.57,3.83-1.3,4.91-3.27C27.19,123.7,26.1,124.44,23.07,124.3Z"/><path class="cls-29" d="M9.28,190.41l1.88-1.29c-.72,2.06-2.47,2.1-3.77,2.78-.15-.3-.31-.6-.47-.9A3.78,3.78,0,0,0,9.28,190.41Z"/><path class="cls-30" d="M31.06,66.5l.64-3.06.56.09c-.35,1,0,2-.77,2.93A3.13,3.13,0,0,0,31.06,66.5Z"/><path class="cls-31" d="M7.86,98c0,.37,0,1-.17,1.07-.41.25-.59-.26-.74-.57-1.21-2.4-2.42-4.8-3.59-7.21-.37-.75-.57-1.59-1.76-1.81a13.34,13.34,0,0,1,3.92-1.29C6.27,91.46,6.59,94.84,7.86,98Z"/><path class="cls-32" d="M15.67,98.56c-1.34-.42-2.95-.18-3.93-1.55C13.23,97.08,14.73,97.11,15.67,98.56Z"/><path class="cls-33" d="M39,46.43c1.07,0,1.79.85,2.68,1.27,1.6.77,2.83,1.68,1.31,3.61-.65.81,0,1.62.08,2.43-.22.09-.43.19-.65.26-1.47.5-3.22,2.18-4.32,1.29-1.31-1.06-1.12-3.42-1.3-5.22C36.69,48.53,38.53,47.8,39,46.43Z"/><path class="cls-34" d="M12.09,202.57c1.51,0,1.35-1.77,2.33-2.34a3.14,3.14,0,0,1,2.31,3.52c-.12,1.77-.06,3.56-.17,5.33a26.62,26.62,0,0,1-.8,5C13.67,210.55,13.32,206.41,12.09,202.57Z"/><path class="cls-35" d="M29.61,100.84a9.66,9.66,0,0,1,4.41,2,6.06,6.06,0,0,1-4.39-2Z"/></svg>