<svg id="Layer_1" data-name="Layer 1" xmlns="http://www.w3.org/2000/svg" viewBox="0 0 508.41 285.93"><defs><style>.cls-1{fill:#fd1313;}.cls-2{fill:#46499b;}.cls-3{fill:#020026;}.cls-4{fill:#fe1313;}.cls-5{fill:#fefefe;}.cls-6{fill:#f2a916;}.cls-7{fill:#6a6bec;}.cls-8{fill:#fef6eb;}.cls-9{fill:#040129;}.cls-10{fill:#a11201;}.cls-11{fill:#04012a;}.cls-12{fill:#46499c;}.cls-13{fill:#fcf5ea;}.cls-14{fill:#a21302;}.cls-15{fill:#a01202;}.cls-16{fill:#05032a;}.cls-17{fill:#05022a;}.cls-18{fill:#f6f0e6;}.cls-19{fill:#484595;}.cls-20{fill:#f1eee4;}.cls-21{fill:#f6efe6;}.cls-22{fill:#f0ece1;}.cls-23{fill:#fdf5ea;}.cls-24{fill:#6b6beb;}.cls-25{fill:#434293;}.cls-26{fill:#fb1313;}.cls-27{fill:#9f1405;}.cls-28{fill:#9c1106;}.cls-29{fill:#9c1407;}.cls-30{fill:#030227;}.cls-31{fill:#030127;}.cls-32{fill:#040329;}.cls-33{fill:#444494;}</style></defs><path class="cls-1" d="M0,52.84q0-26,0-51.91C0,.17.17,0,.93,0Q254.57,0,508.19,0a2.56,2.56,0,0,1,.09,1.2q0,22.89,0,45.8c0,.71-.56.85-1.07,1-1.56.55-3.14,1-4.72,1.57C492.4,53,482.31,56.41,472.21,59.8q-8.08,2.72-16.16,5.43a2.23,2.23,0,0,1-1.56.25A1.65,1.65,0,0,1,454.3,64q1.92-13.3,3.85-26.62,1.91-13.09,3.79-26.21a2.1,2.1,0,0,1,.21-.78c-1.82,3.36-3.68,6.7-5.53,10.05-3.26,5.89-6.49,11.8-9.74,17.7q-4.2,7.65-8.42,15.29C435.28,59.2,432.14,65,429,70.71c-.71,1.31-1.44,2.6-2.16,3.91a1.71,1.71,0,0,1-.6.68c-7.43,2.49-14.84,5-22.29,7.5a1.92,1.92,0,0,1-1.37.19,1,1,0,0,1-.39-.89c-.06-2.47-.28-4.93-.44-7.4-.25-3.81-.46-7.63-.7-11.44a47,47,0,0,1-.26-7c0-.38-.19-.2-.07-.25s.06,0,.07.07a4.53,4.53,0,0,1-.3,1.59c-2.72,9.4-5.48,18.79-8.21,28.19a2,2,0,0,1-.55,1.06c-2.75,1.06-5.58,1.89-8.36,2.86-6.71,2.33-13.48,4.51-20.2,6.82-5.28,1.83-10.59,3.54-15.88,5.34-8.11,2.76-16.24,5.45-24.35,8.2-7.18,2.44-14.38,4.82-21.56,7.26-10.71,3.63-21.44,7.2-32.14,10.85-3.46,1.18-6.94,2.32-10.41,3.48a2.66,2.66,0,0,1-.89.18c-1.22-.38-2-1.42-2.83-2.22-5.3-4.77-10.54-9.61-15.83-14.39q-5.26-4.77-10.47-9.58c-1.29-1.19-2.54-2.41-3.67-3.35,1.84,2.66,3.68,5.65,5.59,8.6q5.45,8.39,10.83,16.8c1.44,2.25,2.91,4.48,4.35,6.73.23.37.54.73.31,1.21a2.84,2.84,0,0,1-1.51.79c-8.18,2.73-16.34,5.53-24.53,8.24-3.73,1.24-7.42,2.56-11.15,3.78a2.46,2.46,0,0,1-1.39.22,1.87,1.87,0,0,1-.89-.8,105.42,105.42,0,0,0-11.59-13.29c-.19-.19-.39-.38-.57-.58-.76-.84-.73-1.13.24-1.72a7.41,7.41,0,0,0,3.38-3.91,4.05,4.05,0,0,0-1.29-5,21.72,21.72,0,0,0-2.76-1.89,9.32,9.32,0,0,1-2.81-2.3,7.53,7.53,0,0,1-1.27-5.69,5.57,5.57,0,0,0,.07-1.41,2.32,2.32,0,0,0-2.57-2.28,15.92,15.92,0,0,0-5.61,1.27,8.22,8.22,0,0,1-.95.33,1.93,1.93,0,0,0-1,.29,4.66,4.66,0,0,1-3.81.38c-1-.29-2.13-.4-3.19-.62-1.74-.36-2.19-1.57-1.06-3,1.31-1.59,2.76-3.07,4.09-4.65,2.21-2.64,4.32-5.37,6.46-8.07,2-2.55,4.11-5,6.1-7.6a13.5,13.5,0,0,0,2.57-5.55,11.43,11.43,0,0,0-.23-4.51c-.19-1.29-.75-2.52-.65-3.86.21-.54.71-.7,1.18-.89,4.92-2,9.85-4,14.67-6.24,4-1.85,8.07-3.34,12.07-5.08a1.89,1.89,0,0,1,2.07.2,84.93,84.93,0,0,0,20.25,10.63c6.3,2.3,12.65,4.44,19,6.51,3.6,1.17,7.3,2.06,10.81,3.52,1.84.77,3.64,1.64,5.46,2.47a2,2,0,0,1,1.12.82,11.84,11.84,0,0,0,2,5c.53.23,1.12.28,1.65.51a4.19,4.19,0,0,0,4.33-.23,2.05,2.05,0,0,1,1.55-.37,13.85,13.85,0,0,1,3.3,1.89c.93.67,1.13,2.09.58,3.58a9.42,9.42,0,0,1-5.08,0,16.65,16.65,0,0,1-4-1.69c-2.71-1.48-5.5-2.77-8.28-4.09a23.61,23.61,0,0,0-10.33-2.63,21.6,21.6,0,0,0-8.5,1.72,4.76,4.76,0,0,0-3,3.78,11.22,11.22,0,0,0,2,8.31c2.43,3.28,5.83,5,9.27,6.68,5.77,2.85,11.68,2.81,17.65.68a10.57,10.57,0,0,0,5.33-4.19c.61-.9,1.21-1.8,1.87-2.66a5.93,5.93,0,0,1,4-2.4,5.24,5.24,0,0,1,2.29-.26,2.42,2.42,0,0,0,1.9.67,5.08,5.08,0,0,0,.78,0c.33,0,.65,0,1,0a4.66,4.66,0,0,0,.65,0c.33,0,.66,0,1,0h.49a9,9,0,0,1,1.47,0,20,20,0,0,0,2.32-.1,1.31,1.31,0,0,0,1.18-.8,1.29,1.29,0,0,0-.43-1.36,7.73,7.73,0,0,0-.64-.64,2.61,2.61,0,0,1-1-2.3,14.06,14.06,0,0,0-1.64-7.52A7.91,7.91,0,0,0,299.34,86c-2.22-2.27-4.59-4.38-6.89-6.57A5.39,5.39,0,0,0,289,78a36.68,36.68,0,0,0-8.18,0,3.22,3.22,0,0,0-.91.45c-1.09.75-1.29.75-2.43,0-3-2-6.07-4.09-9.14-6.06-3.82-2.45-7.62-4.91-11.45-7.34-6.32-4-12.71-7.89-19.23-11.54a88.57,88.57,0,0,0-14-6.61,5.86,5.86,0,0,0-2.91-.12c-9,1.5-18.07,3.2-27,5.43-.49.12-1,.17-1.49.32-2.05.55-4.11,1.07-6.17,1.59a1.51,1.51,0,0,1-1.18,0c-.68-.8-.45-1.82-.64-2.74a17.61,17.61,0,0,0-1.17-3.69,3.26,3.26,0,0,0-1.93-1.56c-2.68-.93-5.25-2.18-8-2.93-.51-.14-1-.38-1-1-.22-2-1.61-3-3.2-3.91a25.71,25.71,0,0,0-7.52-2.4,37.81,37.81,0,0,1-5.23-1.23,5.19,5.19,0,0,1-.86-.31,1.21,1.21,0,0,1-.5-2,6.23,6.23,0,0,1,1.79-1.64c3-2.06,6.21-3.86,9.4-5.63,1.47-.81,2.89-1.72,4.33-2.54-8.13,2.32-15.71,6-23.28,9.7a4.08,4.08,0,0,0-1.13,6.34,6.73,6.73,0,0,0,3.24,2.19,44.28,44.28,0,0,0,11.07,2c1.41.09,2.82.28,4.25.25.47,0,1.13.15.69.82-1.34,2-2.07,4.34-3.27,6.42-.08.06-.16.15-.26.15a2,2,0,0,0-2,1.8,14.34,14.34,0,0,0-.66,3,3.35,3.35,0,0,0-.07,1.3c.19,1.21.68,1.56,1.87,1.34.36-.07.72-.24,1.07,0,.26.51,0,1-.14,1.45-.28,1.06-.6,2.11-.93,3.16a5.07,5.07,0,0,1-2.72,2A128.88,128.88,0,0,0,143.75,71a127,127,0,0,0-14.46,9c-3.31,2.42-6.56,4.91-9.68,7.56-1.49,1.27-2.8,2.74-4.21,4.11a1.08,1.08,0,0,0-.14,1.54,9.19,9.19,0,0,0,1,1.39c1.5,2.15,3.55,3.8,5.33,5.7,2.54,2.69,5.55,4.84,8.31,7.28a2.63,2.63,0,0,0,2.52.7,10.2,10.2,0,0,1,4.82,0c.31.08.75.25.87-.21s-.36-.51-.66-.62c-.89-.33-1.83-.48-2.74-.75-.38-.11-.83-.2-.9-.7s.31-.72.66-.93.6-.32.87-.52a3.62,3.62,0,0,1,3.37-.5c.45.14,1,.63,1.52,0,0-.13-.08-.29-.21-.33a13,13,0,0,0-4.76-1,30.42,30.42,0,0,0-3.91.79,2.43,2.43,0,0,1-1.28.13c-.5-.21-.61-.69-.75-1.14q-1.25-4.07-2.22-8.21a1.83,1.83,0,0,1,0-1.38,2,2,0,0,1,1.15-.59c6.39-1.79,12.73-3.71,19.08-5.63,1.33-.4,2.63-.88,4-1.22.4-.11.83-.37,1.24,0a2.29,2.29,0,0,1,.07,1.67c-.68,4.08-1.26,8.18-1.9,12.26a18.65,18.65,0,0,1-.45,3.57,2.67,2.67,0,0,1-.64.78c-2.92,2.78-5.65,5.75-8.42,8.67a84.79,84.79,0,0,0-11.67,14.68,38,38,0,0,0-3.05,6.52,79.56,79.56,0,0,0-3.22,11.1c-.43,2-.92,4.07-1.3,6.12a1.71,1.71,0,0,1-.41,1c-.65.28-1-.23-1.41-.55-3.3-2.65-6.58-5.33-9.85-8q-7-5.72-14-11.43c-4.34-3.57-8.72-7.08-13-10.68-.37-.3-.78-.55-1.13-.86-2.15-1.86-4.39-3.61-6.59-5.42q-8-6.57-16-13.11Q50,94,40.5,86.21,28,76,15.56,65.85c-4.89-4-9.81-8-14.71-12A3.09,3.09,0,0,1,0,52.84Z"/><path class="cls-2" d="M0,52.84C4.61,56.57,9.22,60.29,13.8,64l36.78,30q15.57,12.7,31.12,25.41c.23.18.53.3.61.64a1.63,1.63,0,0,1-1.22.64c-9.33,2-18.64,4.1-28,6.16L32.4,131.48c-3.37.74-6.73,1.55-10.12,2.18l-.5.11c-.47.12-.55.32-.18.67,2,1.91,3.86,4,6,5.82.23.2.47.38.68.6,3.46,3.59,7.12,7,10.68,10.44,4.84,4.72,9.71,9.43,14.56,14.14l9,8.7,13.91,13.52a31.56,31.56,0,0,0,4.22,3.77c-.11.51-.58.52-.94.64-6.07,2-12.11,4.09-18.17,6.12-7.34,2.45-14.66,5-22,7.41a2.9,2.9,0,0,1-1.56.31c-.43-.32-.44-.82-.53-1.28-.62-3.22-1.31-6.43-1.89-9.65a3.25,3.25,0,0,0-1.59-2.32c-4.88-3.16-9.78-6.3-14.65-9.49q-8.75-5.71-17.54-11.37A5.29,5.29,0,0,1,0,170.48Z"/><path class="cls-3" d="M37.87,205.76q10.91-3.66,21.82-7.32L79,191.94l1.52-.53c.24-.48.73-.56,1.17-.72,7.26-2.51,14.57-4.88,21.84-7.36,4.86-1.67,9.74-3.29,14.62-4.91a1.34,1.34,0,0,0,1.08-1.53c-.07-3-.13-6,0-9a115.69,115.69,0,0,1,1.81-15.3.89.89,0,0,1,.37-.69q.82-3.72,1.66-7.43a21.24,21.24,0,0,1,4.14-4.43c2.34-2.15,4.8-4.18,7.29-6.15.75-.59.74-.66-.15-1.13-.65-.35-1.34-.63-2-.94-1.11-.51-1.21-.76-.65-1.87.88-1.72,2-3.32,2.9-5a11.58,11.58,0,0,1,.67-1.13,2.16,2.16,0,0,0,.09-2.87c-.18-.22-.36-.56-.1-.83s.65-.12.93.06a17.84,17.84,0,0,1,4.17,3.68c.79,1,1,1,1.72,0a7.75,7.75,0,0,0,1.27-5.89c-.34-2.65,0-5.16,1.85-7.22a23.71,23.71,0,0,1,3.82-3,20.39,20.39,0,0,0,3-2.69c.56-.61.48-.85-.26-1.19-.58-.26-1.29-.2-1.77-.7.38-1.19.12-2.45.46-3.64.21-.66.79-.9,1.34-1.16,2-1,4.13-1.86,6.15-2.89.23-.12.59-.16.61-.47s-.35-.38-.57-.5a38.49,38.49,0,0,0-3.59-1.9c-1-.43-1.12-.89-.4-1.7,1.76-2,3.15-4.31,4.88-6.35a3.25,3.25,0,0,0,.84-2.78,29.17,29.17,0,0,1-.24-8.08,4.37,4.37,0,0,1,.09-.81c1.27-4.23,2.36-8.55,5.43-12a3.14,3.14,0,0,1,1-.87c.22-.1.48-.19.66,0s.06.46-.07.65c-.59.87-1.24,1.69-1.86,2.53a13.92,13.92,0,0,0-3,8.76,2.68,2.68,0,0,0,.16,1.09,6.42,6.42,0,0,0,5.09,4.8,23.13,23.13,0,0,0,13.75-.57c2.87-1,5.71-2.11,8.63-3,.34-.1.68-.35,1,0a53,53,0,0,1,1.18,5.6,7.85,7.85,0,0,1-.09,3.09A11.18,11.18,0,0,1,187.93,84,107.5,107.5,0,0,0,175.15,89c-2.74,1.17-5.43,2.47-8,3.64,2.23,0,4.58-.35,6.94-.28a11,11,0,0,0,1.62-.09.77.77,0,0,1,.82.25.79.79,0,0,1-.12.94,15.65,15.65,0,0,1-2.1,2.48,35.23,35.23,0,0,1-6.46,5.07,35.67,35.67,0,0,1-7.8,3.14,15.43,15.43,0,0,1-3,.7c.85.4,1.43.82,2.07,1.11s1.41.68,2.15.94,1.39.52,2.11.71a5.54,5.54,0,0,1,1.43.51c.24.14.47.34.39.65s-.46.39-.75.31a23.77,23.77,0,0,1-3-.95,28.77,28.77,0,0,1-2.81-1.18c-.43-.23-.83-.2-1,.33a17.06,17.06,0,0,0-1,5.06,1.78,1.78,0,0,0,1,1.63c1.09.56,2.12,1.22,3.17,1.84a8.27,8.27,0,0,1,3.25,3.79c.27.57.35,1.16-.43,1.41-3,.94-4.64,3.32-6.14,5.87-1.79,3-2.82,4-6.37,4.45,2.87-.12,5-1.74,6.38-4.42a12.78,12.78,0,0,1,4-4.88,5.78,5.78,0,0,1,4.2-1.1c1.74.25,3.23-.64,4.61-1.58a46.12,46.12,0,0,0,4-3.14c.39-.33.74-.72,1.31-.68a9.67,9.67,0,0,1,2.69,2.13,92,92,0,0,0,11.46,11c.79.65,1.47,1.4,2.19,2.12a2.19,2.19,0,0,1,.37.48c.12.25.22.54,0,.75s-.59.08-.79-.15a22.64,22.64,0,0,0-2.37-2.22c-1.24-1.09-2.47-2.21-3.7-3.32a7.35,7.35,0,0,0-3.89-1.79,15.48,15.48,0,0,0-11,2.38c-1.05.66-1.08.82-.45,1.86a35.09,35.09,0,0,1,3.53,9.48,53.32,53.32,0,0,0,3.88,11.21c1.14,2.19,2.4,4.32,3.75,6.39a1.41,1.41,0,0,0,1.94.65c7.65-2.54,15.26-5.21,22.92-7.72a2.49,2.49,0,0,1,1.47-.26c2.88-.94,5.77-1.87,8.65-2.84q14.4-4.83,28.79-9.69l1.14-.41a.71.71,0,0,1,.67.38c.56.77,1.09,1.55,1.57,2.37a.81.81,0,0,1,0,.95A20.71,20.71,0,0,1,244,141c-5.66,2-11.37,3.82-17,5.75s-11.23,3.8-16.86,5.67c-7.39,2.56-14.85,4.92-22.23,7.51l-1.92.65c-1,.33-1,.38-.37,1.14a49.29,49.29,0,0,0,5.21,5.41c1.33,1.25,2.79,2.36,4.16,3.57a49.46,49.46,0,0,0,9.18,6.13,1.16,1.16,0,0,0,1.69-.28,15.18,15.18,0,0,1,1.71-1.87c.88-.83,1.24-.78,1.88.27.47.79.86,1.62,1.28,2.42a154.68,154.68,0,0,1,7.55,15.41,8.16,8.16,0,0,1,.46,1.34c.19.86,0,1.1-.92,1.1a32.8,32.8,0,0,1-4.74-.47c-.68-.1-1,0-.7.78,1.7,4.46,2.89,9.09,4.55,13.57.84,2.26,2.19,4.28,3.22,6.44.18.38.56.73.19,1.19a1.79,1.79,0,0,1-1.29,0c-2.34-.53-4.67-1.14-7-1.72a1.54,1.54,0,0,1-.88-.46,9,9,0,0,1-.69-2.74c-1.78-8.48-3.24-17-4.19-25.63a6.94,6.94,0,0,0-.36-1.78,39.94,39.94,0,0,0-3.1,4.48c-.09.14-.16.29-.25.44-.74,1.23-1.13,1.28-2.17.32-3.07-2.86-6.33-5.51-9.36-8.41a57.41,57.41,0,0,1-5.61-6.54c-2.54-3.3-4.88-6.74-7.44-10-.87-1.11-.91-1.13-2.21-.69s-2.51.81-3.75,1.26c-8.07,2.78-16.17,5.45-24.26,8.2-4.38,1.51-8.81,2.91-13.19,4.44-2,.73-4,1.36-6.05,2-1.25.42-1.36.6-1.3,1.91a3.72,3.72,0,0,0,.15,1c.64,2.18,1.63,4.21,2.53,6.53.78-1.66,1.37-3.12,1.92-4.6.06-.16.11-.32.18-.48.17-.38.2-1,.72-1s.35.67.52,1a30.8,30.8,0,0,0,1.88,5.53,31.14,31.14,0,0,1,1.65,5,2.89,2.89,0,0,1,.1,1.4,11.92,11.92,0,0,1-3.22,4.79,6.47,6.47,0,0,1-4.55,1.52,1.62,1.62,0,0,1-.78-.89c-1.81-3.34-3.69-6.62-5.75-9.8a33.42,33.42,0,0,1-2.28-4.75,11.5,11.5,0,0,1-.38-3c-.18-1.22-.16-1.25-1.38-.83-2.14.73-4.28,1.48-6.43,2.19-9.45,3.12-18.84,6.4-28.29,9.49l-.37.17c-6.25,2.11-12.52,4.16-18.76,6.3-8.57,2.94-17.2,5.74-25.76,8.72-12.42,4.12-24.81,8.33-37.21,12.51-.52.18-1,.52-1.65.26v-4.47a2.58,2.58,0,0,1,1.24-.66c7.59-2.52,15.14-5.13,22.73-7.63,4.15-1.37,8.26-2.84,12.41-4.2C36.87,205.79,37.34,205.51,37.87,205.76Z"/><path class="cls-4" d="M0,222.9,16,217.48q11-3.71,21.91-7.37a8.07,8.07,0,0,1,.88-.21c.45.15.41.58.48.92,2.13,10.44,4.18,20.89,6.26,31.34q2.87,14.43,5.75,28.86c.89,4.44,1.71,8.9,2.66,13.33.1.47.46,1-.22,1.43H1a1.86,1.86,0,0,1-1-.09Z"/><path class="cls-4" d="M37.87,205.76l-21.12,7.15L1.09,218.17a2,2,0,0,1-1.07.26v-48a61.73,61.73,0,0,1,5.82,3.66q14.49,9.36,29,18.76a1.69,1.69,0,0,1,.76,1.23C36.32,198,37.1,201.88,37.87,205.76Z"/><path class="cls-5" d="M0,285.68H52.69c.37,0,.74,0,1.11,0a1.62,1.62,0,0,1,1.14-.35c.47,0,1,0,1.42,0h96.41a13.84,13.84,0,0,0,2.73,0c.75-.06,1.49,0,2.23,0H258.16a9.76,9.76,0,0,1,1.62.07,9.65,9.65,0,0,1,1.42-.07H505.36c2.74,0,2.42.27,2.43-2.46q0-47.68,0-95.36a20.57,20.57,0,0,1,0-3,9.1,9.1,0,0,0,0-2q0-41.57,0-83.13a12.29,12.29,0,0,0,0-1.92,17.57,17.57,0,0,1,0-1.92V53.62c0-.65,0-1.29.06-1.93,0-1.43-.35-2.9.31-4.29,0-.47,0-.95,0-1.42q0-23,0-46c.06,0,.21-.1.2.1s0,.54,0,.81q0,142,0,284c0,.85-.21,1-1,1l-506.48,0C.64,285.87.24,286.1,0,285.68Z"/><path class="cls-6" d="M508.15,97.32c0,.41,0,.81,0,1.22q0,43,0,86c-.67.07-.84-.5-1.1-.9q-3.22-4.86-6.82-9.47c-2.55-3.24-5.28-6.33-8.08-9.38A126.36,126.36,0,0,0,477,150.86a135.82,135.82,0,0,0-45.88-23.54A138.25,138.25,0,0,0,409,122.84a158.57,158.57,0,0,0-21.68-.77,36.48,36.48,0,0,0-4.55.31,1.63,1.63,0,0,1-1.45-.24,1.31,1.31,0,0,1,0-1.08c2.9-9.91,5.71-19.84,8.66-29.73.29-1.27.74-2.51,1.09-3.77a1.1,1.1,0,0,1,.54-.8l9.11-31.23h.14c.05.4.14.8.16,1.2.3,5.27.59,10.53.9,15.79.19,3.27.4,6.54.6,9.82a4.43,4.43,0,0,0,.14.58A1.26,1.26,0,0,1,403,84c0,.93.09,1.86.16,2.78.23,4.29.5,8.57.76,12.85.18,2.9.38,5.81.49,8.71.06,1.58.22,3.17.36,4.78Q414,96.73,423,80.28c.78-1.35,1.56-2.71,2.28-4.11a2,2,0,0,1,.9-1l10.43-18.94q9.29-16.85,18.55-33.69l6.71-12.18a1.91,1.91,0,0,1,.64-.75c-.16,1.16-.3,2.32-.47,3.48-1.12,7.69-2.27,15.37-3.38,23.06q-2,13.74-3.92,27.48c-.09.6-.15,1.21-.22,1.81a14.36,14.36,0,0,1-.41,4.48c-.75,5-1.46,10-2.18,15.08-1.18,8.34-2.42,16.68-3.61,25-.65,4.53-1.21,9.06-2,13.64,4.28-5,8.61-9.82,12.87-14.71s8.39-9.48,12.54-14.26c4.85-5.6,9.83-11.1,14.62-16.75.33-.39.68-.76,1-1.12s.46-.6.84-.42.27.65.2,1c-.3,1.42-.59,2.85-.89,4.28-1.59,7.55-3.15,15.11-4.73,22.66-1.74,8.29-3.44,16.58-5.2,24.86-.34,1.58-.66,3.18-1,4.68,2.5-3,5.1-6,7.67-9.06,5.24-6.21,10.55-12.36,15.8-18.56,2.34-2.77,4.67-5.54,7.05-8.27C507.36,97.64,507.62,97.25,508.15,97.32Z"/><path class="cls-7" d="M121.41,151.87c-.44,3.28-.9,6.57-1.33,9.85a92.36,92.36,0,0,0-.47,15.51c0,.89-.27,1.14-1,1.39q-13.34,4.45-26.66,8.95l-11.44,3.84a1.46,1.46,0,0,1-1.25-.51c-3.18-3.13-6.32-6.3-9.59-9.33-2.51-2.33-4.89-4.78-7.38-7.12-4.42-4.17-8.7-8.51-13.06-12.74-4.78-4.64-9.6-9.26-14.39-13.88-1-1-2-2-3-2.91L21,134.32c-.14-.14-.41-.29-.25-.47a1.32,1.32,0,0,1,.72-.31c3.09-.68,6.19-1.34,9.29-2,6.56-1.45,13.11-2.93,19.67-4.37,5.27-1.15,10.55-2.25,15.83-3.41s10.73-2.42,16.1-3.62a34.87,34.87,0,0,1,4,3.1Q103.85,137.52,121.41,151.87Z"/><path class="cls-6" d="M248.47,139.16a20.69,20.69,0,0,0-2.33-3.55,33.57,33.57,0,0,0-2.53-4.13q-9.51-14.76-19-29.5c-.12-.18-.34-.34-.24-.7,1.43,1.28,2.84,2.53,4.22,3.8q8.77,8,17.54,16l11.33,10.31a4.27,4.27,0,0,0,.41.29c1.5.73,2.47,2.12,3.77,3.09,3,2.77,6,5.48,9,8.21,2.45,2.23,4.89,4.47,7.35,6.69,2.78,2.52,5.56,5,8.32,7.57,2.42,2.22,4.85,4.41,7.28,6.61a1.48,1.48,0,0,1,.51.74c0,.53-.43.82-.75,1.15a126.45,126.45,0,0,0-13.4,17c-2.51,3.77-4.78,7.68-7,11.65-.17.32-.33.68-.75.76a4,4,0,0,1-2-1.15c-8.05-6-16.18-11.93-24.26-17.9q-8.9-6.57-17.8-13.15c-.42-.32-1.25-.61-1-1.23s1-.14,1.5,0c7,1.38,14,2.85,21,4.26q8.76,1.77,17.51,3.57a.62.62,0,0,0,.47,0,4,4,0,0,0-.73-1.37c-5.38-8.25-10.66-16.56-16-24.82-.68-1-1.34-2.11-2-3.15A1.38,1.38,0,0,1,248.47,139.16Z"/><path class="cls-8" d="M190.39,74.21l-10.14,3.48a22.22,22.22,0,0,1-14.34.11,6.09,6.09,0,0,1-4.36-4.88c-.18-1,.59-1.19,1.22-1.48,2.62-1.19,5.24-2.36,7.9-3.45,3.51-1.43,7-2.86,10.64-4,4.16-1.32,8.36-2.52,12.52-3.83,6.43-2,12.93-3.81,19.42-5.6l1.17-.34c.91-.29.92-.38.31-1.15-.35-.43-1.1-.8-.82-1.38s1.11-.4,1.69-.36c3.88.28,7.76.43,11.63.82.41,0,.89.08,1,.51s-.28.78-.61,1.05c-.5.41-1,.78-1.52,1.19s-.39.57.11.78c1,.41,1.93.84,2.88,1.27,6.3,2.85,12.52,5.83,18.66,9A111.27,111.27,0,0,0,261,72.16a59.28,59.28,0,0,1,6.79,3.45,141.09,141.09,0,0,1,17.28,10.64c.32.23.7.42.83.85a.56.56,0,0,1-.25.52,11.69,11.69,0,0,1-3.28,1.72,23,23,0,0,1-5.56-3,74,74,0,0,0-14.77-5.84q-9.87-3-19.53-6.53a95.7,95.7,0,0,1-15.69-7.07c-2.39-1.41-4.74-2.88-7-4.52a1,1,0,0,0-1.17-.19C209.4,66,200.35,70.23,191,73.91,190.82,74,190.61,74.11,190.39,74.21Z"/><path class="cls-8" d="M207.56,148.55c-3.89,1.34-7.78,2.69-11.68,4-4.35,1.47-8.72,2.91-13.06,4.41a1.15,1.15,0,0,1-1.62-.52,56.21,56.21,0,0,1-8.37-19.76,24.46,24.46,0,0,0-3.52-8.47c-.4-.58,0-.79.32-1a16.06,16.06,0,0,1,11.88-3,9.34,9.34,0,0,1,5.28,2.93,58.09,58.09,0,0,1,5.37,5.09c.3-.72-.16-1-.42-1.22a63.3,63.3,0,0,0-6-5.43,43.86,43.86,0,0,1-4.78-4.66,43.33,43.33,0,0,0-5.33-5.25c-.13-.36.1-.59.31-.8a15.46,15.46,0,0,1,5.14-3.7,19.63,19.63,0,0,1,5.71-1.67c2.66-.29,3.88.94,3.65,3.61a9.29,9.29,0,0,0,.32,4.5,7.07,7.07,0,0,0,3.09,3.39c1,.59,2,1.18,2.91,1.85a4.55,4.55,0,0,1,1.52,6.25,7.21,7.21,0,0,1-3.39,3.52c-.7.34-.71.53-.17,1.08a132.27,132.27,0,0,1,10.9,12.16C206.26,146.74,206.9,147.65,207.56,148.55Z"/><path class="cls-2" d="M181.34,64.23c-5,1.81-10,3.74-14.88,5.9-1.45.64-2.88,1.33-4.32,2-.38.17-.63.37-.59.81a11.52,11.52,0,0,1,.85-6.4,20.41,20.41,0,0,1,3.28-5.22c.29-.4.6-.78,1.07-1.38-1.3.44-1.72,1.42-2.31,2.18A23.36,23.36,0,0,0,161,69.35a22.31,22.31,0,0,0-1.32,7.72,34.12,34.12,0,0,0,.46,5.24,1.67,1.67,0,0,1-.36,1.49c-1.92,2.4-3.57,5-5.63,7.3-.53.58-.33.84.27,1.07a42.75,42.75,0,0,1,4.4,2.3c.22.12.59.2.53.53s-.36.25-.57.36c-2.73,1.4-5.66,2.41-8.28,4.06q.94-6.32,1.88-12.64c.07-.47.11-.94.16-1.41a2.35,2.35,0,0,1,0-1.39c.66-3.66,1.16-7.35,2-11a.69.69,0,0,0,0-.51c-.24-.16-.45,0-.65.1q-4.12,1.72-8.17,3.62c-1,.47-1,.53-.27,1.3,1.76,1.83,1.77,1.84-.58,2.79a181.86,181.86,0,0,0-23.48,11.76c-1.41.82-2.83,1.59-4.25,2.39-.31.18-.62.44-1,.26-1.87-2-1.87-2.23,0-4.11,6.93-6.9,14.9-12.41,23.23-17.45a120.4,120.4,0,0,1,18.49-8.8,9.32,9.32,0,0,0,2.79-1.77,2.9,2.9,0,0,1,.94-.87c1.58-.86,1.56-.9,1.33-2.69-.09-.7-.27-1.16-1.07-1.08a1.2,1.2,0,0,0-.2,0c-2.38.74-3.3-.16-2.81-2.73.45-.31.91-.1,1.36,0s.93.1,1.1-.53.34-1.09-.33-1.49a3.3,3.3,0,0,1-1.44-1.2c.55-1.75.65-1.83,2.28-1.82,1,.4,1.48,1.32,2.16,2,.86.9.85,1,1.49-.16,1.31-2.28,2.5-4.63,3.77-6.93.2-.36.25-1,1-.79a10.63,10.63,0,0,1,1.36,4.38,3.69,3.69,0,0,1-1.63,2.12,2.62,2.62,0,0,0-.93,3.19c.36,1.08.59,2.21.87,3.32.2.8.58.92,1.31.67,1.79-.6,3.6-1.14,5.39-1.76,1-.3,2.05-.69,3.09-1,1.32-.26,2.58-.73,3.87-1.1.51-.14,1-.42,1.56-.16l6.13-1.52c.38-.09.78-.13,1.17-.2.15.54-.3.79-.58,1.08-1.3,1.32-2.63,2.62-3.93,3.94a45,45,0,0,0-5.42,6.12A3.43,3.43,0,0,1,181.34,64.23Z"/><path class="cls-9" d="M282.43,89.2l3.39-2.06a14,14,0,0,1,2.76-1.58,27.72,27.72,0,0,1,3.39-1.5,43.77,43.77,0,0,0-7.71-4.61c-.9-.37-1.79-.76-2.71-1.07-.36-.12-.82-.2-.81-.74a44.09,44.09,0,0,1,9.4.15,3.16,3.16,0,0,1,1.8.8,81.81,81.81,0,0,1,7.89,7.57,11.81,11.81,0,0,1,2.63,7.4c0,.58,0,1.15,0,1.73a3,3,0,0,0,0,1.29,3.13,3.13,0,0,1-1.7,3.49c-.47,0-.67-.29-.76-.66a4.48,4.48,0,0,0-.83-1.59.91.91,0,0,1,0-.67c.06-.25.21-.6-.2-.63s-.37.33-.41.59a2.94,2.94,0,0,0,.11.89c0,1,.81,1.77.63,2.78h-.56c-.93-.68-.94-1.76-1.19-2.74-.09-.48,0-1-.11-1.6-.47.55-.14,1.07-.23,1.52a2.43,2.43,0,0,0,.32,1.91c.16.27.41.54.24.91h-.62c-.75-.2-.72-1.16-1.38-1.52-.25.65.63.94.35,1.52h-.69a1.43,1.43,0,0,1-.7-.67c-.34-.84-.76-.62-1.2-.1a15.84,15.84,0,0,0-3.47.71,4.75,4.75,0,0,0-2.29,1.59,22.64,22.64,0,0,0-1.6,2.22c-2,3.44-5.09,5-8.79,6a22.09,22.09,0,0,1-16.64-2.3,18.74,18.74,0,0,0-2-1.05c-3.26-1.36-5.31-4-7.1-6.85-1.27-2-1-4.34-.82-6.59a2.83,2.83,0,0,1,1.07-1.2,12.87,12.87,0,0,1,5.21-2.36,23.89,23.89,0,0,1,6.54-.54,28.72,28.72,0,0,1,8.11,2.51c2.9,1.28,5.74,2.73,8.7,3.9A21.41,21.41,0,0,0,289,97.62a5.47,5.47,0,0,1,1.71.12,8.29,8.29,0,0,0,4.93.21,20.4,20.4,0,0,1-3.07-.29c-.35-.11-.91-.12-.55-.77,1.72-.75,1.85-1.35.69-3-.27-.38-.64-.72-.52-1.27a.43.43,0,0,1,.5-.26A4.65,4.65,0,0,1,294.56,95c.15.6.44.73,1,.61a15.45,15.45,0,0,1,3.47-.49c.87,0,.21-.76.31-1.16a7.07,7.07,0,0,0-1.28-3.87c-1.3-1.85-2.19-2-4.36-1,.08.34.5.44.59.78a2.05,2.05,0,0,1-1.3,2.19,4.73,4.73,0,0,1-2.32-1.16,1.94,1.94,0,0,0-2.08-.23,4.33,4.33,0,0,1-2.23.56,5.44,5.44,0,0,0-2.05.83,2.57,2.57,0,0,1-2.65.28c-1-.36-2-.61-3-.9a.4.4,0,0,1,.15-.6A14.49,14.49,0,0,1,282.43,89.2Z"/><path class="cls-10" d="M280.74,77.64c1.13.73,2.52.88,3.65,1.62,0,.62-.5.87-.9,1.09-1,.54-.88.79,0,1.45,1.45,1,2.91,2,4.32,3.15.31.24.69.42.84.83a16,16,0,0,1-2.87,1.36,148.93,148.93,0,0,0-23-13.82c-4-2-8.3-3.62-12.34-5.68-8.33-4.22-16.65-8.46-25.26-12.09-.06,0-.1-.08-.19-.16l3.52-2.8c-5-.49-9.67-.78-14.6-1a21.28,21.28,0,0,0,1.41,1.69c.58.58.57.86-.29,1.08-2.15.57-4.29,1.23-6.45,1.81-8.75,2.37-17.38,5.18-26.07,7.75-.39.12-.78.21-1.17.32,2.77-4,6.38-7.25,9.73-10.73l1.2-1.23c2.18-.55,4.35-1.15,6.55-1.64,5.59-1.25,11.21-2.38,16.86-3.35a43.21,43.21,0,0,1,6.71-1,9.92,9.92,0,0,1,3.44,1.06A84.33,84.33,0,0,1,236,52.23c5.37,2.83,10.51,6.07,15.7,9.21,4,2.41,7.9,4.92,11.81,7.43,3.6,2.32,7.16,4.71,10.73,7.07,1.27.83,2.55,1.64,3.8,2.5.6.4,1.05.44,1.56-.17A1.44,1.44,0,0,1,280.74,77.64Z"/><path class="cls-11" d="M261.33,134.9a46.08,46.08,0,0,1-3.5-3.2L310,114.14l58.91-19.86,21.81-7.36a1.69,1.69,0,0,1,.88-.16l-1.38,4.68a3.76,3.76,0,0,1-1.5.8c-7.41,2.52-14.83,5-22.24,7.5q-23.88,8-47.75,16.08-17.87,6-35.71,12-10.2,3.45-20.41,6.86A2.39,2.39,0,0,1,261.33,134.9Z"/><path class="cls-10" d="M181.05,111.16a28.76,28.76,0,0,0-5.45,4.5c-1.52,1.18-3,2.4-4.55,3.55a8.1,8.1,0,0,1-6.29,2c-1.68-.24-3,.84-4.21,1.93a12.56,12.56,0,0,0-2.73,3.76,7.94,7.94,0,0,1-6.5,4.72,2.33,2.33,0,0,1-1.63-.12,1.79,1.79,0,0,1,1.2-.35,7.24,7.24,0,0,0,6.29-4.15,17,17,0,0,1,2.51-3.68,8.14,8.14,0,0,1,3.77-2.47c.59-.18.65-.42.42-.94a8,8,0,0,0-3.39-3.92c-1.07-.58-2.09-1.24-3.17-1.8a1.73,1.73,0,0,1-1-1.64,19.46,19.46,0,0,1,1-5.66c.16-.64.51-.67,1-.38a29.18,29.18,0,0,0,5.56,2.18,1,1,0,0,0,1.28-.1,33.64,33.64,0,0,1-8.91-3.82l2.83-.68a30.51,30.51,0,0,0,16.48-10.14c.31-.37.94-.75.71-1.24s-.86-.05-1.31-.05c-2.77,0-5.54.21-8.31.4a1.16,1.16,0,0,1-.78-.22c1.86-.85,3.71-1.72,5.58-2.55,4.6-2,9.18-4.16,14-5.78a37.23,37.23,0,0,1,6-1.58A16.68,16.68,0,0,1,187.59,90c-2.4,2.91-4.68,5.91-7.05,8.85-2.54,3.15-5,6.32-7.83,9.28-.5.54-1.34,1-1,2a1.25,1.25,0,0,0,1,1c1.66.3,3.31.62,5,.94.84.17,1.47-.37,2.19-.61A3,3,0,0,1,181.05,111.16Z"/><path class="cls-11" d="M116,94.71c8.16-4.66,16.26-9.44,25-13.1,1.62-.68,3.24-1.37,4.87-2,.55-.23.83-.42.21-.94s-1-1-1.59-1.56c-.3-.3-.42-.49.1-.72,3.28-1.44,6.53-3,9.83-4.35.94-.4.47.49.42.72-.39,2.26-.88,4.51-1.27,6.77-.35,2-.6,3.94-1.06,5.87-8.4,2.65-16.84,5.19-25.33,7.53-.37.55-1,.51-1.53.68a21.53,21.53,0,0,1-2.91.68c.61-.17,1,.2,1.34.86a90,90,0,0,0,5.25,8.67,1.52,1.52,0,0,0,.51.58c.25-.24,0-.68.27-.88a22.06,22.06,0,0,1,5.32-1.14,9.41,9.41,0,0,0,3.69,1.11,3.38,3.38,0,0,1,1.48.56c.18.39.16.68-.36.66a2.63,2.63,0,0,1-.89-.14c-1.84-.81-3.4-.16-4.9.89-.23.15-.51.27-.44.6s.36.27.58.33c1.17.34,2.34.65,3.5,1,.43.13.69.35.47.9s-.42.6-.9.45a9.61,9.61,0,0,0-5.21-.13,2.8,2.8,0,0,1-2.61-.68,116.73,116.73,0,0,1-13-12.13C116.52,95.44,116.29,95.06,116,94.71Z"/><path class="cls-11" d="M169.94,44.36q-1.77,3.22-3.55,6.45a16.16,16.16,0,0,0-1.13,2c-.37,1-.71.65-1.17.11-.78-.92-1.58-1.83-2.38-2.75a35.38,35.38,0,0,1,3.47-6.79c-2.51-.17-4.94-.24-7.35-.52A34.66,34.66,0,0,1,148.72,41c-2.07-.84-3.67-2.16-4.12-4.51a4.28,4.28,0,0,1,2-4.31,180.14,180.14,0,0,1,18.92-8.38c1.87-.66,3.78-1.21,5.71-1.71a4,4,0,0,1-1.51,1.22c-3.71,2.31-7.63,4.26-11.3,6.62a16.13,16.13,0,0,0-3,2.24c-1.12,1.14-1,1.69.52,2.19,2.64.87,5.42,1.17,8.11,1.86a19.25,19.25,0,0,1,6.32,2.66,4,4,0,0,1,2,3.23.7.7,0,0,0,.61.77c3,.76,5.76,2.16,8.68,3.13a3.06,3.06,0,0,1,1.75,1.6c.06.84-.6.7-1,.69a14.81,14.81,0,0,1-3.29-.62c-2.65-.72-5.25-1.57-7.83-2.53A3.89,3.89,0,0,1,169.94,44.36Z"/><path class="cls-11" d="M453.78,69.9c.23-1.5.34-3,.71-4.48l27.07-9.1,26.6-8.92c0,1.42,0,2.85,0,4.27-.29.54-.86.62-1.37.79q-11.7,3.9-23.38,7.87c-9.3,3.15-18.62,6.22-27.9,9.41C455,69.93,454.4,70.35,453.78,69.9Z"/><path class="cls-2" d="M150,103.06a8,8,0,0,1,2.26.55c.82.29.76.74.29,1.28a19.51,19.51,0,0,1-3.41,3c-.72.51-1.41,1-2.13,1.55-3,2.06-3.85,5-3.4,8.42.31,2.35.08,4.6-1.63,6.45-.84.91-.87.93-1.61,0a17.76,17.76,0,0,0-4.26-3.85c-.22-.14-.4-.37-.76-.3,0,.09,0,.21,0,.26,1.24,1.33.84,2.56-.06,3.93-1.26,1.92-2.33,4-3.49,6-.34.58-.31.91.42,1.16a16.39,16.39,0,0,1,3,1.44c.46.27.49.44.05.77-2.65,2-5.18,4.13-7.63,6.36-1.57,1.44-3.07,3-4.6,4.43,2-9.58,5.62-18.3,12.14-25.76C139.94,113.27,144.88,108.09,150,103.06Z"/><path class="cls-11" d="M426.15,75.15c-1,1.73-1.82,3.53-2.93,5.18a3.42,3.42,0,0,1-1.12.66c-5.94,2.05-11.92,4-17.86,6-.45.16-.9.36-1.36.06a30.23,30.23,0,0,1-.22-4.14Q414,79.1,425.29,75.29C425.56,75.2,425.83,75,426.15,75.15Z"/><path class="cls-12" d="M290.63,97.94c-5.48.46-10.36-1.45-15.16-3.74-2-.94-3.91-1.86-5.91-2.69a19.89,19.89,0,0,0-12.49-1.08,17.18,17.18,0,0,0-6.22,3.26,4.83,4.83,0,0,1,3.62-4.32c5.15-1.78,10.28-2.17,15.54-.1a102.32,102.32,0,0,1,10.92,5.1,15.28,15.28,0,0,0,9.41,2.13C291,96.88,290.92,97.38,290.63,97.94Z"/><path class="cls-10" d="M169.94,44.36l4.66,1.57a40.55,40.55,0,0,0,7.09,1.9c.57.08,1.25.43,1.73-.26a18.6,18.6,0,0,1,1.14,3.67,10.41,10.41,0,0,1-3.19.86c-1.46.34-1.5.36-1.52,1.87a2.48,2.48,0,0,1-.29,1.56,12.59,12.59,0,0,1-3,.94,1.9,1.9,0,0,1-.46-2.35c.12-.24.27-.47.4-.7,1-1.63,1-1.62-.73-2.54-1.45-.77-3-1.3-4.45-2.12C170.84,47.3,170.39,45.83,169.94,44.36Z"/><path class="cls-2" d="M130.1,103.49a2.88,2.88,0,0,1,.11.49c0,.28.55.61,0,.84-.38.16-.7-.06-.92-.43-.8-1.29-1.63-2.56-2.44-3.84a54,54,0,0,1-3.2-5.63c-.26-.54-.59-.44-1-.39s-.63.31-1.08-.21l5.58-1.42A84.28,84.28,0,0,0,130.1,103.49Z"/><path class="cls-13" d="M290.63,97.94l-.29-1.44c0-.77,0-1.54,0-2.31,0-.47-.25-.65-.57-.85l-3.43-2.1c1-.39,2-.75,3-1.16.39-.15.65.06.93.23L293,91.94c.12.31,0,.49-.32.51a.47.47,0,0,0-.41.25,8.54,8.54,0,0,0,.12,2.62,2.06,2.06,0,0,1-.15,1.56c-.36.55.08.53.4.54,1.11,0,2.23.07,3.34.11.2,0,.43,0,.46.28a.38.38,0,0,1-.28.47,10.07,10.07,0,0,1-5.28-.12C290.75,98.13,290.7,98,290.63,97.94Z"/><path class="cls-9" d="M179.56,55.53c0-.74,0-1.49,0-2.23s.26-1.35,1.13-1.43c1.31-.11,2.54-.74,3.88-.63.14.92.28,1.83.41,2.75A48.33,48.33,0,0,1,179.56,55.53Z"/><path class="cls-14" d="M282.43,89.2a16.13,16.13,0,0,1-3,1.6c-.3.16-.76.13-.77.65a10.24,10.24,0,0,1-1.86-5.13C278.76,87.15,280.56,88.25,282.43,89.2Z"/><path class="cls-15" d="M300.63,100a4.2,4.2,0,0,0,1.67-3.64,1.73,1.73,0,0,1,.14-1.07c-.19,1.25.77,1.85,1.5,2.55.53.52,1,1,.71,1.84s-1,1-1.76,1.07-1.35,0-2,0C300.64,100.56,300.38,100.35,300.63,100Z"/><path class="cls-16" d="M161.75,57.94c1.19-.58,1-.54,1.34.6.5,1.91,0,3.15-1.93,3.7a3.11,3.11,0,0,0-.61.34Z"/><path class="cls-17" d="M159.43,52c.57.34,1.14.71,1.73,1a.92.92,0,0,1,.49,1.24c-.42,1.5-.39,1.51-1.93,1.17l-1-.21A8.74,8.74,0,0,1,159.43,52Z"/><path class="cls-18" d="M300.63,100c.08.26.15.52.23.78h-1.55a7.58,7.58,0,0,1-.91-2.88.57.57,0,0,1,.85-.16,1.85,1.85,0,0,1,1.05,1.6C300.33,99.62,300.29,99.89,300.63,100Z"/><path class="cls-19" d="M140.59,104c-1.35-.24-2.71-.49-4.07-.71-.59-.09-.79-.57-1.1-1,1.73-.08,3.28.64,4.89,1.07C140.56,103.49,140.58,103.78,140.59,104Z"/><path class="cls-20" d="M297.78,100.77c-.48-.88-1.43-1.62-.8-2.82a.59.59,0,0,1,.82,0,14.15,14.15,0,0,0,.95,2.84Z"/><path class="cls-21" d="M293.54,100c.15-.3-.41-.83.32-.94a.74.74,0,0,1,1,.58,5.24,5.24,0,0,0,.62,1.13C294.68,100.84,293.84,101.09,293.54,100Z"/><path class="cls-22" d="M296.13,100.77c-.26-.38-.55-.75-.78-1.15-.11-.2-.39-.51,0-.64s.75-.4,1,.2.54,1.07.81,1.59Z"/><path class="cls-23" d="M272.21,195.09c1.28-2.25,2.52-4.53,3.84-6.76A135.39,135.39,0,0,1,293.51,165l.39-.46c-.07-.52.32-.79.62-1.1A138.78,138.78,0,0,1,322,141.32a136,136,0,0,1,40.44-16.52,130.59,130.59,0,0,1,17.92-2.87,1.19,1.19,0,0,1,1,.18c4.22-.26,8.44-.47,12.68-.45a135.86,135.86,0,0,1,97.24,41.65,132.26,132.26,0,0,1,16.1,20.21c.22.35.32.84.81,1-.27.63,0,1.26,0,1.89q0,48.95,0,97.91c0,1.38,0,1.38-1.38,1.38h-247a14,14,0,0,1-1.11-4.49A124.44,124.44,0,0,1,256.85,265a141.82,141.82,0,0,1,3.07-37c.21-1,.09-1.09-1.08-1.39-4.26-1.09-8.55-2.08-12.82-3.15-4.89-1.23-9.79-2.4-14.68-3.64a2.43,2.43,0,0,1-1.2-.51c-.22-.68.38-.88.74-1.15a82.73,82.73,0,0,1,9-5.75,49.56,49.56,0,0,1,9.37-4.14,1,1,0,0,0,.73-.47,1.69,1.69,0,0,0-1.41,0,67.67,67.67,0,0,0-9.67,3.41,55.07,55.07,0,0,0-11.15,6.63,4,4,0,0,1-.95.57,26.42,26.42,0,0,1-6.14-1.4.42.42,0,0,1-.29-.37c-1.47-3-3.29-5.77-4.31-8.94-1.44-4.47-2.82-9-4.51-13.53a49.63,49.63,0,0,0,7.16.78c-2.51-7.43-6.57-14-10.13-20.95-1.06,1.13-2,2.15-3,3.2-.31.34-.53.47-1,.21A67.17,67.17,0,0,1,185,161.51c-.19-.22-.35-.47-.58-.78l9.29-3.12,15.57-5.24a5.2,5.2,0,0,1,.68-.17c.51.22.68.73.93,1.16a138.78,138.78,0,0,1,6.47,12.76c2.35,5,4.42,10.19,6.47,15.35a5.07,5.07,0,0,0,1.48,1.89c4.77,4.28,10,8,14.89,12.11,4.71,3.91,9.44,7.81,14,11.92,2.84,2.56,5.67,5.12,8.49,7.71.52.48.74.41.95-.24a134,134,0,0,1,5.66-14.35c.74-1.61,1.56-3.16,2.34-4.74A1.35,1.35,0,0,1,272.21,195.09Z"/><path class="cls-2" d="M155.53,285.64l-2.64,0H55c-.41,0-.81,0-1.22,0q-4.12-20.77-8.26-41.55-3.3-16.5-6.61-33c-.08-.4-.13-.8-.19-1.2,3.29-1.31,6.69-2.33,10-3.47Q62.4,201.81,76,197.22c2.43-.81,4.88-1.58,7.32-2.36.54,0,.85.36,1.19.68,2.24,2.16,4.45,4.35,6.67,6.53,4.12,4,8.26,8,12.37,12q6.89,6.75,13.82,13.44c4.77,4.61,9.51,9.24,14.28,13.86,4.47,4.33,8.92,8.68,13.41,13,2.19,2.11,4.38,4.23,6.54,6.37s4.62,4.28,6.77,6.58c.29.32.92.6.42,1.23a13.07,13.07,0,0,1-2.71.35c-4.65.23-9.31.53-14,.78-3,.16-6.07.35-9.11.48a58,58,0,0,0-5.82.42c3.79,1.92,7.53,3.87,11.29,5.81,5.35,2.75,10.72,5.49,16,8.31C154.94,284.94,155.47,285.06,155.53,285.64Z"/><path class="cls-7" d="M159,268.37c-3.43-3.65-7.17-7-10.72-10.52-5-5-10.12-9.86-15.18-14.78L119.9,230.29l-14.82-14.4c-4.73-4.6-9.42-9.24-14.22-13.77-2.53-2.39-4.92-4.93-7.5-7.26,2.76-1.11,5.61-2,8.43-2.91,9.06-3.07,18.14-6.11,27.21-9.2.8-.27,1.17-.24,1.13.72-.1,3.27,1.32,6.05,3,8.68,2.11,3.35,4,6.81,6,10.25.34.12.49.43.71.67a59,59,0,0,1,5.36,9.73c.12.28.25.57.4.85a2.07,2.07,0,0,0,.43.73c.4.12.6-.16.82-.4a6.89,6.89,0,0,1,1.26-1.27,1.48,1.48,0,0,0,.48-1.71c-1-4.53-1.31-9.16-2-13.74a2.37,2.37,0,0,1,.08-1,21.27,21.27,0,0,0-1.77-6.2,25.38,25.38,0,0,1-1.91-5.75,6.34,6.34,0,0,1,.35-4.94,4.27,4.27,0,0,1,1.13-1.76l13.18-4.45a4,4,0,0,1,1.53,1l25.18,20.56c5.7,4.64,11.37,9.31,17.08,13.93.35.29.95.48.69,1.16a1.58,1.58,0,0,1-1.19,0q-13.51-3.3-27-6.67c-3.58-.89-7.17-1.76-10.45-2.6,1.94,1.06,4.07,2.4,6.21,3.7q14.58,8.77,29.17,17.52c6.13,3.68,12.26,7.34,18.37,11a8.08,8.08,0,0,1,2.07,1.46,48.41,48.41,0,0,1,1.22,4.92,66,66,0,0,0,2.69,8.08c.2.51.63,1,.27,1.62a2.4,2.4,0,0,1-1.58.19c-4.75-.44-9.51-.78-14.26-1.19-5.43-.47-10.87-.87-16.29-1.34q-6.74-.6-13.46-1.08c-.58,0-1.14-.15-1.84-.21,6.26,3.66,12.4,7.33,18.56,10.94q7.46,4.36,14.87,8.78c.46.27,1.27.48,1,1.17s-1,.42-1.54.44q-6.63.35-13.27.76c-2.84.17-5.68.3-8.51.46l-9.32.55c-2.57.15-5.14.23-7.7.44A1.1,1.1,0,0,1,159,268.37Z"/><path class="cls-6" d="M159,268.37c5.24-.28,10.48-.55,15.72-.85l16.13-.92,9-.49a5.07,5.07,0,0,0,.72-.13L165,245l.06-.19,6.32.48q10.38.87,20.75,1.74l19.64,1.61c.53.05,1.08,0,1.62.06a3.69,3.69,0,0,1,2.18-.12c2.27.22,4.56.29,6.82.63,2.86.21,5.72.43,8.57.69,1.36.13,2.73.18,4.22.36-5.76-3.48-11.42-6.85-17-10.25-2.58-1.55-5.14-3.12-7.73-4.65a4.75,4.75,0,0,1-1.33-1.07c-4.34-2.63-8.67-5.27-13-7.88l-34.11-20.47-8.87-5.34a2,2,0,0,1-.79-.7l4.72,1.16,34.28,8.47c.3.07.6.11.9.16a2.07,2.07,0,0,1,1.47.1c3.37.8,6.71,1.72,10.1,2.48,2.08.5,4.15,1,6.23,1.54a2.05,2.05,0,0,1,1.25.58c3,.88,6.06,1.61,9.13,2.27,2.12.64,4.27,1.15,6.45,1.59a4.72,4.72,0,0,1,3.33.84q7.56,1.91,15.12,3.79c4.79,1.2,9.57,2.39,14.37,3.53.86.2.95.53.77,1.31A132.55,132.55,0,0,0,257,259.1a130.8,130.8,0,0,0,2.68,25.57,8.42,8.42,0,0,1,.08,1H156.24c-.24,0-.47,0-.71,0-2.84-1.49-5.67-3-8.52-4.46q-10.32-5.34-20.64-10.64c-.05,0-.07-.1-.18-.26Z"/><path class="cls-4" d="M272.21,195.09c-1.54,3.31-3.2,6.56-4.59,9.94s-2.62,6.59-3.74,10c-.12.37-.26.74-.43,1.21l-6.58-6c-8.59-7.82-17.57-15.17-26.71-22.34-2-1.54-3.85-3.2-5.72-4.87a4.19,4.19,0,0,1-1-1.72c-3.06-7.82-6.38-15.52-10.19-23-1-2-2.19-4-3.28-6.06,3.05-1.06,6.11-2.13,9.17-3.16l29.35-9.88c2,3,3.95,6,5.89,9Q261,158.4,267.6,168.69c.25.39.48.8.87,1.44l-41.23-8.39-.08.17c1.26.94,2.52,1.89,3.79,2.82l24.17,17.83,16.65,12.28A3.14,3.14,0,0,0,272.21,195.09Z"/><path class="cls-4" d="M203.67,212.54,194,210.21c-.61-.15-1.22-.34-1.83-.52q-5.41-4.44-10.82-8.88L148,173.6a5.81,5.81,0,0,1-.43-.43l13.24-4.49c3.48-1.18,7-2.35,10.47-3.52.22-.08.45-.12.68-.18.45-.1.55.3.74.55,4.4,5.58,8.69,11.23,12.94,16.93,2.46,3.31,4.95,6.59,7.56,9.79a123.28,123.28,0,0,1,7.47,9.86,6.71,6.71,0,0,1,.83,1.62c.81,2.61,1.57,5.24,2.32,7.88C203.92,211.94,204,212.28,203.67,212.54Z"/><path class="cls-10" d="M203.67,212.54c-.39-2-1-3.9-1.57-5.84-.18-.64-.39-1.28-.56-1.94-.62-2.4-2.27-4.19-3.71-6.08-3.19-4.18-6.5-8.27-9.7-12.44-3.76-4.9-7.45-9.85-11.18-14.76-1.65-2.18-3.32-4.34-5-6.5,1.59-.56,3.19-1.1,4.77-1.68.51-.18.66.17.88.46,1.84,2.47,3.75,4.89,5.51,7.41a74.36,74.36,0,0,0,14,15.14c1.28,1,2.48,2.2,3.66,3.36.57.55.87.56,1.26-.16a48.37,48.37,0,0,1,3.19-4.94,2.63,2.63,0,0,1,.76-.9,5.16,5.16,0,0,1,.46,2.23c1,8.3,2.33,16.53,4,24.71.26,1.25.49,2.52.73,3.78C208.66,213.91,206.16,213.25,203.67,212.54Z"/><path class="cls-4" d="M151.59,145.54c.82-1.57,1.64-3.15,2.53-4.88l2.22,3.21a2.2,2.2,0,0,1,1,.81c2.16,3.48,4.64,6.72,7.06,10,1.38,1.88,2.9,3.65,4.29,5.52.28.37.77.72.44,1.32-5.39,1.83-10.78,3.68-16.19,5.48-3.09,1-6.15,2.2-9.3,3.07a11.75,11.75,0,0,1-3.69-2.87,2.14,2.14,0,0,1,.46-1.51c2.32-4.32,4.7-8.6,7.09-12.88,1.16-2.06,2.09-4.24,3.29-6.28C151,146.17,151.12,145.71,151.59,145.54Z"/><path class="cls-2" d="M151.59,145.54c-2.9,5.88-6.15,11.57-9.31,17.32a28.55,28.55,0,0,0-2.18,4.31,24.36,24.36,0,0,1-1.85,3.81,7.18,7.18,0,0,0-.58,1.18c-2.95,1-5.88,2-8.83,3-.2.07-.45.29-.65.06s0-.44.1-.65a26.92,26.92,0,0,1,5.6-9,97.12,97.12,0,0,0,7.1-8.19A33.47,33.47,0,0,0,146,145a20.3,20.3,0,0,0,.67-4.39A20.06,20.06,0,0,1,151.59,145.54Z"/><path class="cls-10" d="M169.13,161.53a8,8,0,0,0-1.69-2.48c-2.26-2.74-4.31-5.63-6.45-8.46-1.3-1.72-2.44-3.55-3.66-5.33-.32-.47-.66-.93-1-1.39.63-.12.45-.7.56-1.06.51-1.82.95-3.65,1.48-5.7.89,1.54,1.66,2.9,2.46,4.24a134.5,134.5,0,0,0,9.6,13.28c1.2,1.55,2.39,3.11,3.62,4.63.36.44.27.58-.22.74C172.27,160.49,170.7,161,169.13,161.53Z"/><path class="cls-2" d="M134.4,177.62a24.16,24.16,0,0,0-1.55,4.32c-.16.83.29,1.59.07,2.38-.22-.24-.12-.58-.29-1-.8,2.31-1.69,4.45-2.63,6.57-.1,0-.2,0-.22,0-1-2.19-1.92-4.4-2.7-6.67a4.06,4.06,0,0,1-.21-1c-.16-2-.14-2,1.76-2.64Z"/><path class="cls-24" d="M137.67,172.16c-.06-.12-.2-.27-.17-.33a36,36,0,0,1,2.6-4.66l3.54,2.91C141.69,170.91,139.66,171.48,137.67,172.16Z"/><path class="cls-25" d="M129.52,203.17c-.29-.18-.25-.54-.44-.77.57-.1,1.13-.18,1.69-.3,2.63-.57,4.06-2.47,5.23-4.67.21-.39.4-.77.6-1.16.06.29.13.57.19.86a8.08,8.08,0,0,1-6.78,6A1.16,1.16,0,0,0,129.52,203.17Z"/><path class="cls-4" d="M453.78,69.9c3.46-1.14,6.93-2.27,10.38-3.43l44-14.8c0,.24,0,.47,0,.71q0,22.11,0,44.23c0,.24,0,.48,0,.71-2.14,2.22-4,4.65-6,7q-6.25,7.28-12.47,14.58-6.6,7.77-13.19,15.56c-.08.1-.17.19-.43.47,4.09-19.61,8.14-39,12.18-58.36l-.18-.09-41.92,47.81-.22,0Z"/><path class="cls-4" d="M381.36,122.11c-5.08.55-10.14,1.2-15.15,2.21a135.54,135.54,0,0,0-51.58,22.26,140.46,140.46,0,0,0-20.73,18l-11.81-10.71-20-18.18c-.28-.25-.53-.53-.79-.79,3.29-1.14,6.57-2.3,9.87-3.41l68.26-23,49.8-16.78c.32-.1.65-.18,1-.26q-3.17,10.95-6.34,21.91C383.05,116.27,382.2,119.19,381.36,122.11Z"/><path class="cls-4" d="M402.88,87.05l9-3,11.31-3.76c-1.42,3-3.13,5.83-4.72,8.74q-5.14,9.44-10.35,18.84c-1.13,2.06-2.28,4.12-3.55,6.4-.35-2.16-.34-4.1-.47-6q-.63-9.62-1.2-19.21C402.89,88.4,402.9,87.72,402.88,87.05Z"/><path class="cls-11" d="M171.28,48.76c1.65.1,2.89,1.22,4.36,1.77a6.21,6.21,0,0,1,.81.42c1.42.78,1.49.83.52,2.2a2.91,2.91,0,0,0-.45,3.32c-2,.88-4.16,1.39-6.22,2.13-.42.16-.54,0-.63-.37-.46-1.9-.92-3.81-1.42-5.71-.12-.46.13-.68.4-1A19.46,19.46,0,0,0,171.28,48.76Z"/><path class="cls-1" d="M288.69,85.78c-1.58-.85-2.87-2.09-4.38-3-.59-.38-1.12-.86-1.71-1.25s-.41-.64,0-.89a11.53,11.53,0,0,0,1.77-1.33,36.53,36.53,0,0,1,8.2,5A19,19,0,0,0,288.69,85.78Z"/><path class="cls-10" d="M292.63,92.45c.11-.17.22-.34.32-.51a2.49,2.49,0,0,0,1.15-2.08c.73-.18,1.07.47,1.52.8a27,27,0,0,1,4,3.22c.06.33.14.66.17,1,.07.64-.06,1-.82.63-.59-.31-1.19,0-1.78.08a9.37,9.37,0,0,0-1.57.35c-.8.22-1.42.34-1.37-.87a2.54,2.54,0,0,0-.92-1.65A2.46,2.46,0,0,1,292.63,92.45Z"/><path class="cls-26" d="M299.64,93.88a6.45,6.45,0,0,1-2-1.34c-1.21-.85-2.36-1.78-3.54-2.68l-1.32-.94c1.22-.32,2.17-.62,3.15-.81s1.35.55,1.83,1.07A7.28,7.28,0,0,1,299.64,93.88Z"/><path class="cls-27" d="M292.19,96.88c-.13-1.06-.21-2.13-.39-3.19a.81.81,0,0,1,.42-1,5.05,5.05,0,0,0,1,1.36,2.25,2.25,0,0,1,.54,1.17C293.94,96.56,293.52,97,292.19,96.88Z"/><path class="cls-28" d="M299.25,97.74l-.85.16a1.63,1.63,0,0,1-.07-1.17c.06-.26,0-.68.41-.69a1,1,0,0,1,.82.26.83.83,0,0,1,0,.86C299.43,97.35,299.17,97.46,299.25,97.74Z"/><path class="cls-29" d="M297.8,97.93,297,98c0-.51-.41-1,0-1.54a.74.74,0,0,1,.76-.36c.36.06.11.37.11.58C297.82,97.06,297.81,97.5,297.8,97.93Z"/><path class="cls-30" d="M230.12,219.09a22.24,22.24,0,0,1-3.33-.84,53.62,53.62,0,0,1,16.72-9.16,44.84,44.84,0,0,1,5.43-1.68,3.89,3.89,0,0,1,.9-.11.59.59,0,0,1,.67.49c.06.38-.27.41-.51.5-.83.3-1.66.58-2.49.89A69.87,69.87,0,0,0,230.12,219.09Z"/><path class="cls-10" d="M222.56,249.49c-3.07-.22-6.14-.4-9.19-.79a66.06,66.06,0,0,1-3.84-12l-.48-2.38,9.06,5.4c1.22,2,1.92,4.27,3,6.34.41.77.75,1.57,1.16,2.34C222.48,248.71,222.76,249.05,222.56,249.49Z"/><path class="cls-3" d="M129.52,203.17a.35.35,0,0,1,.36-.39c3.46-.35,5.4-2.59,6.79-5.5a.88.88,0,0,1,.12-.15c.86,4.43,1,9,2,13.38.06.26.07.53.11.79-.43.46-.17,1.19-.66,1.62L137,214.16c-.18.16-.5.12-.5,0,0-1.08-1.05-.77-1.53-1.19a82.74,82.74,0,0,0-5.24-9.44Z"/><path class="cls-31" d="M139.47,225.53a14.69,14.69,0,0,1-1.13-3.35,41.38,41.38,0,0,0-2.06-6.14c-.21-.51-.26-.8.34-1.1a5.28,5.28,0,0,0,2.3-2.35c.34-.65.66-.7,1.18-.28a1.2,1.2,0,0,1,.47.86,45.7,45.7,0,0,1-.41,11.68C140.09,225.22,140.13,225.73,139.47,225.53Z"/><path class="cls-32" d="M141.08,213a2.93,2.93,0,0,1,.88,2.39c-.11,3.72-.46,7.42-.89,11.11,0,.22,0,.53-.28.58s-.53-.24-.72-.48a8.11,8.11,0,0,1,.28-3,42.34,42.34,0,0,0,.25-8c0-.64,0-1.28,0-1.92C140.6,213.36,140.61,213,141.08,213Z"/><path class="cls-33" d="M141.08,213c-.39.27-.22.68-.22,1a64.23,64.23,0,0,1-.18,9c-.17,1.2-.41,2.39-.61,3.58l-.6-1c.32,0,.34-.25.38-.49a36.32,36.32,0,0,0,.47-9.54,11.78,11.78,0,0,0-.22-3.19A2.35,2.35,0,0,1,141.08,213Z"/><path class="cls-31" d="M135,212.94c.68-.28,1.33.52,2,0,.41.43-1.21.85.07,1.21-.34.4-.63,1-1.29.44a.67.67,0,0,0-.35-.81A1.52,1.52,0,0,1,135,212.94Z"/><path class="cls-31" d="M138.24,212.92c0-.33.26-.61.12-1s.17-.58.54-.64A1.56,1.56,0,0,1,138.24,212.92Z"/><path class="cls-3" d="M135.38,213.79c0-.14.12-.42.26-.21s.54.64.09,1Z"/><path class="cls-3" d="M222.56,249.49c-1.62-3-3-6.1-4.38-9.23a.61.61,0,0,1-.07-.57L236,250.4l0,.24Z"/></svg>