<svg id="Layer_1" data-name="Layer 1" xmlns="http://www.w3.org/2000/svg" viewBox="0 0 80.67 267.36"><defs><style>.cls-1{fill:#fbaf40;}.cls-2{fill:#dc9676;}.cls-3{fill:#fefaf8;}.cls-4{fill:#576586;}.cls-5{fill:#dc9675;}.cls-6{fill:#fbb042;}.cls-7{fill:#fdf9f7;}.cls-8{fill:#64718f;}.cls-9{fill:#eeefec;}.cls-10{fill:#fefdfb;}.cls-11{fill:#985755;}.cls-12{fill:#6a7693;}.cls-13{fill:#4d868e;}.cls-14{fill:#f8ede6;}.cls-15{fill:#643e6d;}.cls-16{fill:#56835f;}.cls-17{fill:#653f6d;}.cls-18{fill:#455d5e;}.cls-19{fill:#945455;}.cls-20{fill:#e7d1c5;}.cls-21{fill:#fbf4f2;}.cls-22{fill:#4d858e;}.cls-23{fill:#f8f2ee;}.cls-24{fill:#d3ddde;}.cls-25{fill:#f9f6f3;}.cls-26{fill:#55815f;}.cls-27{fill:#e1cabd;}.cls-28{fill:#596786;}.cls-29{fill:#48838c;}.cls-30{fill:#426247;}.cls-31{fill:#d49877;}.cls-32{fill:#fcf8f7;}.cls-33{fill:#cdd7da;}.cls-34{fill:#bdcdcf;}.cls-35{fill:#f8f6f5;}.cls-36{fill:#3e5b43;}.cls-37{fill:#db9776;}.cls-38{fill:#352016;}.cls-39{fill:#3f5e44;}.cls-40{fill:#55825f;}</style></defs><path class="cls-1" d="M0,221.3V208.42a18.78,18.78,0,0,1,1.83-3.11c6.48-8.65,13.26-17.06,19.78-25.66,2.08-2.49,4.11-5,6-7.62,5.12-6.56,10.51-12.91,15.18-19.82,6.51-9.62,12.78-19.4,17.27-30.18A38.22,38.22,0,0,0,63,107c0-4.2,0-8.41,0-12.61.08-1.27-.51-3,.7-3.64s2.36.68,3.38,1.39a137.46,137.46,0,0,0,12.45,8.1c.5.28.9.57.84,1.22,0,12.69-.16,25.37.07,38.06.11,5.63-.53,10.94-3.23,15.91a66.82,66.82,0,0,0-2.95,6.08c-.6,1.44-1.3,2.84-1.82,4.32-.9,1.82-1.53,3.76-2.28,5.66-3.66,8.39-7.06,16.9-10.46,25.4-.45,1.11-.7,2.36-1.8,3.11-1,.39-2.06.79-2.42,1.93-1.88,6-7,8.53-11.93,11.33-7.82,4.45-16.44,6.88-24.77,10-3.12,1.18-6.45,2-8.87,4.54a2.75,2.75,0,0,1-1.22.66C4.76,227.42,1.4,225.57,0,221.3Z"/><path class="cls-2" d="M63.64,94.3c0,8.29.81,16.62-1.74,24.76-1.94,6.19-5.14,11.73-8.27,17.32a233.7,233.7,0,0,1-21.35,31c-1.37,1.73-2.78,3.42-4.18,5.12-4.6-.09-9-1.31-13.5-2.2a75.62,75.62,0,0,1-12.64-4A5,5,0,0,1,0,165.18V150.92a79.22,79.22,0,0,1,5.32-17.21c.18-.41.41-.79.58-1.21a5.5,5.5,0,0,1,.28-.6,161.27,161.27,0,0,1,8.56-15.58c2-3.26,2.28-6.5.21-9.82a9.21,9.21,0,0,1,4.11-4.38c1.21-.75,2.18-1.3,1.36-2.92-.17-.34.08-.72.4-1A26.29,26.29,0,0,1,31.23,98a1.6,1.6,0,0,1,1,1.67c-.47,5.46,1.68,10.24,3.2,13.71a33,33,0,0,1-3.23-11c-.13-1.62-.38-3.43,1.52-4.42,9.39-.9,18.77-1.75,28-3.86A2.22,2.22,0,0,1,63.64,94.3Z"/><path class="cls-1" d="M0,260v-9.66c1.1-1,2.41-.73,3.7-.63,4.39.32,8.78.65,13.18.76a42.43,42.43,0,0,0,6.37-.33c4.51-.58,4.52-.54,4.92-5.11a17.23,17.23,0,0,0-.7-5.09c-.21-.6-.46-1.31.21-1.86a3.35,3.35,0,0,1,2-.35c7.15.48,14.29.2,21.45.06,4.7-.1,9.43.17,14.15.26,3.28.07,6.52-.55,9.8-.54a2.51,2.51,0,0,0,2.68-2.28c.32-1.5.48-3,.84-4.52.38-.92,0-2.37,1.7-2.36.18,10.26.12,20.53,0,30.79,0,4.81-2.24,7.07-7.1,8a1.4,1.4,0,0,0-.4.21H7.36Q1.09,266.25,0,260Z"/><path class="cls-3" d="M72.85,267.31c5.45-2,7.57-5.84,7.39-11.64-.29-9.14-.12-18.3-.15-27.45-.87-1-.6-2.17-.61-3.28,0-3.87,0-7.74,0-12-6.51,5.8-12.79,3.63-19,.28-2.13-1.15-3-2.72-2.08-4.48,1.65-3.23,1.87-6.13-.64-9q5.49-13.32,11-26.63c.29-.7.65-1.37,1-2.05,1.12-.33,1.88.42,2.69,1a56.07,56.07,0,0,0,7,4.22c.77-3.29-.25-5.57-3.36-7.09-1.56-.77-3.31-1.67-4-3.57a13.92,13.92,0,0,1,1.83-4.33c1.76-.34,2.68,1.16,3.93,1.89s1.73.73,1.77-.89c.06-2,0-4-2.17-5a1.87,1.87,0,0,1-1-1.45,7.24,7.24,0,0,1,1.17-3.19c2.29-4,2.76-8.22,2.69-12.76-.21-13-.13-26-.17-39a2.82,2.82,0,0,1-.68-2.11c0-4.49-.18-9,.07-13.46a10.82,10.82,0,0,0,0-1.8,6.21,6.21,0,0,1-.13-1.36c0-18.66-.06-37.32,0-56,.11-5.65.15-11.31-.06-17a8.48,8.48,0,0,0-3.67-6.33c-3.4-1.33-6.93-.54-10.4-.69-19,0-38,.1-57,0C5.12,2,3.12,3.25,1.56,6.34c-.37.74-.28,1.9-1.53,2C0,5.94.1,3.56,0,1.19,0,.2.19,0,1.18,0,6.06.07,11,0,15.83,0Q47.44,0,79,0c1.36,0,1.64.28,1.64,1.65q-.06,132,0,264.05c0,1.37-.26,1.74-1.64,1.64C77,267.2,74.91,267.31,72.85,267.31Z"/><path class="cls-1" d="M0,8.32C.83,6.38,1.5,4.39,3.19,3,4.45,1.9,5.76,1.13,7.48,1.55c.51,1,0,2-.25,2.88C4.38,13.09,4.21,22,4.74,31,5.57,44.77,8,58.3,10.93,71.76a7.39,7.39,0,0,1,.19,2.73c-1.79,4-4.47,7.45-6.2,11.46-3,3.49-3.13,7.48-2.07,11.69.67,2.67,1.21,5.37,1.88,8a5.72,5.72,0,0,1-.86,5.17,27.06,27.06,0,0,0-2,4.82c-.33.8-.53,1.82-1.79,1.66Z"/><path class="cls-4" d="M27.57,238.43a9.71,9.71,0,0,1,1.17,6.48A3.78,3.78,0,0,1,25.4,246c-7.58-.25-15.16-.54-22.74-1A3.61,3.61,0,0,1,0,243.84V221.3c2,3.41,5.19,5.4,8.65,7,2.19.26,3.91,1.64,5.86,2.47a78.39,78.39,0,0,1,11,5.63C26.34,236.93,27.34,237.31,27.57,238.43Z"/><path class="cls-4" d="M0,165.18c3.4,1.1,6.77,2.25,10.18,3.27a114.88,114.88,0,0,0,15.15,3.19,4.66,4.66,0,0,1,2.74.9A94.88,94.88,0,0,1,22,180c-2.22.94-4.39-.41-6.6-.17a4.66,4.66,0,0,1-1.56-.57,25,25,0,0,1-3.24-.76,4.94,4.94,0,0,0-4.07.26,1,1,0,0,1-.8-.48c-.44-1.15-1.48-1.43-2.5-1.79S.84,175.9,0,174.84Z"/><path class="cls-3" d="M0,243.84a196.66,196.66,0,0,0,28.71,1.07c0,.69.1,1.38.08,2.06-.11,2.79-.78,3.47-3.5,3.76-7.15.76-14.28.25-21.41-.26-1.29-.09-2.59-.12-3.88-.18Z"/><path class="cls-3" d="M15.1,179.41c2.39-.87,4.59.56,6.9.59-4.82,6.31-9.61,12.65-14.49,18.91C5,202.09,2.86,205.52,0,208.42v-8.74c1.87-3.52,4.43-6.55,6.77-9.74,2.22-3,4.33-6.08,6.63-9A3.84,3.84,0,0,1,15.1,179.41Z"/><path class="cls-3" d="M6.42,178.51a2.16,2.16,0,0,1,2.85-1,38.89,38.89,0,0,0,4.84,1c.9.93,0,1.6-.45,2.15C9.58,186.38,5.41,192,1.29,197.63c-.31.42-.57,1-1.26.67V187.72C1.71,184.33,3.55,181.06,6.42,178.51Z"/><path class="cls-5" d="M0,117.34C1,117,1,116,1.25,115.28c.82-2,1.35-4.18,2.75-5.91.93-1.16.21-2.3.15-3.45,3.07-.55,6.1-1.43,9.26-.89A11,11,0,0,1,12,111.79c-1.71,2.89-2.95,6.16-6,8.09-2.12-.35-4.28-.6-6-2.08Z"/><path class="cls-6" d="M6,133.47c-2.49,5.65-3.49,11.8-5.95,17.45V133.44A6,6,0,0,1,6,133.47Z"/><path class="cls-7" d="M0,174.84c1.79.59,3.55,1.27,5.37,1.72,1.09.28.83.78.55,1.44-1.24,2.89-3.29,5.25-5.08,7.77a.65.65,0,0,1-.84.11Z"/><path class="cls-8" d="M0,198.3q7-9.44,14-18.88c.15-.2.07-.57.1-.86l1,.85Q7.93,189.3.75,199.17a2.59,2.59,0,0,1-.72.51Z"/><path class="cls-9" d="M0,127v-7.82A10.84,10.84,0,0,1,5,120.31a1.19,1.19,0,0,1,0,1.65c-1.37,1.76-2.44,3.78-4.25,5.18A.63.63,0,0,1,0,127Z"/><path class="cls-10" d="M0,260a11.6,11.6,0,0,0,7.33,7.36c-2.14,0-4.27-.05-6.41,0-.8,0-1-.14-.94-.95C.08,264.24,0,262.09,0,260Z"/><path class="cls-11" d="M0,127a1.37,1.37,0,0,0,.45,0A41.24,41.24,0,0,1,6,130.72a1.18,1.18,0,0,1,.41,1.76l0,0A7.52,7.52,0,0,1,0,132.06Z"/><path class="cls-12" d="M0,185.88C2.38,183.54,3.7,180.42,6,178l.47.51A92.71,92.71,0,0,1,0,187.72Z"/><path class="cls-13" d="M5.05,120.68c-1.71-.35-3.55-.31-5-1.5V117.8a24.67,24.67,0,0,1,6,1.81C6.17,120.39,5.78,120.69,5.05,120.68Z"/><path class="cls-14" d="M0,132.06l6.35.44a1,1,0,0,1-.4,1l-5.95,0Z"/><path class="cls-15" d="M57.72,199.82c3.86,3,3.45,4.25,2,7.31-1.78,3.69-1.51,4.21,2.16,6.16a25.81,25.81,0,0,0,5.74,2.17c4.94,1.22,9.06.16,12.49-4.78v17.54l-.88,2.14c-.53.79-1.39.84-2.21,1a70.46,70.46,0,0,1-25.41.34c-5.72-1.05-11.49-.71-17.26-.17a65.39,65.39,0,0,1-21.49-1.88c-1.28-.31-2.72-.62-3.34-2.1,1.21-2,3.26-2.69,5.23-3.43,5.19-1.94,10.41-3.83,15.66-5.62a95,95,0,0,0,14.88-6.88c4.33-2.36,8.06-5.13,9.74-10C55.42,200.37,56.14,199.34,57.72,199.82Z"/><path class="cls-16" d="M80.15,85.14l-.09,15.78c-1,.48-1.57-.33-2.22-.76-4.63-3-9.23-6.15-14.2-9.48V94.3a145.11,145.11,0,0,1-30.19,4.18c-.29-.34-.36-.86-.05-1,1.91-1,1.32-2.71,1.34-4.36a8,8,0,0,1,3.06-6.38,5.1,5.1,0,0,1,2.5-.66,1.91,1.91,0,0,0,1.8-.5c1.33-.67-.05-2.54,1.39-3.16a43.28,43.28,0,0,1,10.58,1.09c1.43.43,2.23,1.71,3.29,2.43,0-.88-3.16-1.07-.66-2.74,5.16-.26,10.27.34,15.39.75,1.74.14,3.49,0,5.23.08A3.15,3.15,0,0,1,80.15,85.14Z"/><path class="cls-3" d="M9.5,227.54c7.63,3.26,15.73,3.66,23.78,3.19,7.41-.42,14.74-.64,22.07.68,6.78,1.23,13.51.26,20.24-.63,1.2-.16,2.41-.28,3.62-.42.22,2.17-.56,4.2-.91,6.3-.2,1.24-1.24,1.47-2.24,1.55a156.77,156.77,0,0,1-23.44.28,44.82,44.82,0,0,0-4.77.17c-6.76.18-13.52.26-20.28-.23-5.24-3.44-10.95-6-16.57-8.68a24.09,24.09,0,0,1-2.32-1.43Z"/><path class="cls-15" d="M72,165.65c2.07,1.42,4,3,6.24,4.21a3.26,3.26,0,0,1,1.94,3.65c-.12,1.21,0,2.44,0,4a103.81,103.81,0,0,1-10.47-6.33A24.11,24.11,0,0,1,72,165.65Z"/><path class="cls-17" d="M76.37,155.83c4.48,1.78,4.15,5.45,3.6,9.52-2.14-1.4-4.14-2.71-6.13-4A20.9,20.9,0,0,1,76.37,155.83Z"/><path class="cls-18" d="M13.32,105.3c-1.79.22-3.61.34-5.38.68a9.86,9.86,0,0,1-3.79-.06A75.47,75.47,0,0,1,1.58,93.66a10.06,10.06,0,0,1,2.94-8.1c.07,0,.18-.11.21-.09,3,2.06,6.89,2.36,9.67,4.87A23.77,23.77,0,0,0,19,96.23a3.53,3.53,0,0,1,1.53,2.68c1.71,2.17,1.74,2.23-.76,3.42-1.94.93-3,2.79-4.59,4.08A1.41,1.41,0,0,1,13.32,105.3Z"/><path class="cls-16" d="M20.56,98.91c-1.46-2.18-3.75-3.59-5.16-5.81a5.73,5.73,0,0,1-1.18-2.44.86.86,0,0,1-.14-1c1.55-2,2.57-4.62,5.47-5.22,2.33,1.23,4.43,3,7.34,2.79,2.28-.19,4.54-.53,6.79-.93,1-.17,1.94-.52,2.89.06.62.79.08,1.4-.32,2a14.6,14.6,0,0,0-1.72,5.14c-.35,2-.83,4-2.84,5.13C28,98.69,24.25,98.08,20.56,98.91Z"/><path class="cls-1" d="M13.32,105.3l1.89,1.11c2,1.54,2.65,5.93,1,8.67-2.93,5-5.81,10-8.51,15-.43.79-.87,1.57-1.31,2.35,0-1.46-1.2-1.9-2.2-2.32A8.18,8.18,0,0,1,.48,127l4.57-6.29,1-1.07a60.34,60.34,0,0,0,5.57-8.29C12.75,109.4,12.12,107.12,13.32,105.3Z"/><path class="cls-19" d="M22.92,127.89a35.6,35.6,0,0,0,6.79,3.93,1.08,1.08,0,0,1,.56,1.16,2.26,2.26,0,0,1-2,.89,75.55,75.55,0,0,1-8.64-.24,2.14,2.14,0,0,1-1.71-1c.16-1.42-.5-2.94.47-4.27.5-.25.91,0,1.33.21l.51.11a3.64,3.64,0,0,0,.74,0,3.84,3.84,0,0,0,.46-.11,3.4,3.4,0,0,0,.77-.6A.61.61,0,0,1,22.92,127.89Z"/><path class="cls-20" d="M31.69,98.63c1.21-2.06,2.47-4.07,2.52-6.61,0-2.14,1.47-3.74,2.51-5.47.63-.43,1.16-.52,1.39.41C36,89.59,34.23,92.26,36,95.85c.31.64-.13,1.23-.89,1.21a1.39,1.39,0,0,0-1.66,1.42c-1.65,3-.4,5.93.32,8.83a38.45,38.45,0,0,0,3.14,7.84c.24.49.84,1.18-.06,1.53-.68.26-.81-.54-1-1C33.16,110.33,31,104.83,31.69,98.63Z"/><path class="cls-21" d="M17.92,132.64c4.1.62,8.21,1.2,12.35.34.62,1.25-.4,1.29-1.09,1.35a63.12,63.12,0,0,1-9.82-.11C18.45,134.15,17.73,133.79,17.92,132.64Z"/><path class="cls-22" d="M18,118.63c-.71-1.33-.6-2.1,1.14-1.56a5.68,5.68,0,0,0,3.31.13c1.65-.5,1.59.35,1.4,1.47a1.19,1.19,0,0,1-.69.51c-.54.14-1.11.12-1.66.25l-.27,0a2.44,2.44,0,0,1-.54,0,9.35,9.35,0,0,0-1.06,0,2.51,2.51,0,0,1-.55-.06A1.52,1.52,0,0,1,18,118.63Z"/><path class="cls-23" d="M23,118.78l.85-.11q-.45,4.6-.88,9.22l-.55.42a.86.86,0,0,1-.82-1.12c.41-2.26.15-4.55.31-6.81A1.74,1.74,0,0,1,23,118.78Z"/><path class="cls-24" d="M19.26,119.2h.48a16.46,16.46,0,0,1,0,10.06l-1.34-.9a1.14,1.14,0,0,1,0-.45c.44-2,.1-4.11.2-6.16C18.63,120.85,18.43,119.89,19.26,119.2Z"/><path class="cls-25" d="M19.26,119.2c-.42,2.89-.14,5.86-.88,8.72-.15-3.1-.29-6.19-.43-9.29C18.44,118.69,19,118.67,19.26,119.2Z"/><path class="cls-26" d="M10.62,75c-1-5.17-2-10.33-3-15.5C5.32,47.3,3.67,35,3.72,22.61c0-7.23.9-14.33,3.76-21.06,10.29,0,20.58-.09,30.87-.09,9.07,0,18.14.06,27.21.09,3,1.46,6.19,2.75,9.28,4.12-.53,3.06-1.32,6.08-1.59,9.18-.54.93-1.3.51-2,.26a24,24,0,0,1-3.51-1.84,46.1,46.1,0,0,1,6.17,3.9,34.29,34.29,0,0,1,6.17,8.46l0,58.07a1.87,1.87,0,0,1-1.68.51C70.71,83.82,63,83.29,55.25,83a4.85,4.85,0,0,1-1.54-.39c-1.84-.88-3-2.52-4.44-3.91C43,72.44,36.65,66.21,30.5,59.82,23.59,52.66,17,45.25,12.83,36a43.4,43.4,0,0,1-3.91-16c.32,7.88,2.89,15.08,6.57,22A59.93,59.93,0,0,0,26.27,56.09c.91.91,2.29,1.72,1.64,3.43-.82.44-1.62.08-2.43-.05-2.32-.4-3.29.15-4.32,2.29-.81,1.72-.66,3.57-.89,5.37a6.53,6.53,0,0,1-1.65,3C15.63,71.22,13.28,73.37,10.62,75Z"/><path class="cls-1" d="M80.1,25.63l-6.38-8.12c-.75-.58-1.32-1.24-.92-2.3a23,23,0,0,1,1.71-9.65,2.85,2.85,0,0,1,1.71-3.17,8.29,8.29,0,0,1,3.91,7.14C80.22,14.89,80.12,20.26,80.1,25.63Z"/><path class="cls-27" d="M53.22,82c8.94,1,17.94,1,26.9,1.7l0,1.44c-2.9-.76-5.88-.45-8.82-.67a134.67,134.67,0,0,0-15.43-.61c-.41.52-1,0-1.49.32a67.84,67.84,0,0,0-11.28-1.24c-.91.88.07,2.34-1,3.18-.45.33-.75,1.27-1.5.36-.38-1.39-1.74-2.35-1.7-3.93A8.88,8.88,0,0,1,45.42,81c2.11.28,4.21.68,6.34.78A8.15,8.15,0,0,1,53.22,82Z"/><path class="cls-28" d="M76.22,2.39,74.51,5.56a14.44,14.44,0,0,1-9-4c2.81,0,5.63-.05,8.44-.1A2.78,2.78,0,0,1,76.22,2.39Z"/><path class="cls-29" d="M10.62,75a12.81,12.81,0,0,1,7.76-5c2.3,0,4,1.34,5.77,2.53a2.85,2.85,0,0,1,.66,1.22,9.72,9.72,0,0,1-.11,4.09c-.18.66-.41,1.41-1.2,1.52s-1.31-.63-1.68-1.3a8.34,8.34,0,0,1-.56-2.21c-.56-2.33-2.39-3.21-4.51-2.08a12.3,12.3,0,0,0-4.26,4.07c-.78,1.16-1.22,2.59-.21,3.84s2.4,1,3.78.61c2.52-.76,3.37-.13,3.3,2.4a17.39,17.39,0,0,0-5.14,6c-3-2.14-7.06-2.26-9.7-5.1C6.27,81.87,8,78.15,10.62,75Z"/><path class="cls-2" d="M19.36,84.63c-.57-1.76-1.18-3-3.43-1.58a3.53,3.53,0,0,1-4.25-.69c-1.15-1.11-.85-2.6-.32-3.87a10.26,10.26,0,0,1,6.11-5.82A3.35,3.35,0,0,1,22,75.78c.15,1.84.15,1.84,1.5,3.21,1.11-1.66.85-3.5.89-5.28,1.24-.15,1.55.86,1.8,1.66,1.14,3.65,3.5,5.42,7.36,5.72,1.83.14,4,.2,5.43,1.8,1.48.77,2.3,1.84,1.72,3.59L38.11,87c-.36-.5-.89-.42-1.39-.41-2.32.34-4.65.61-6.95,1C25.8,88.32,22.21,87.84,19.36,84.63Z"/><path class="cls-30" d="M54.41,84.18c.4-.56,1-.39,1.49-.32,1,1.07,2,2.14,3,3.22l-.24.25Z"/><path class="cls-31" d="M42.17,86.12a17.68,17.68,0,0,0-.11-2.42c-.19-1.14.55-.74,1.07-.76C43.35,84.17,44.06,85.54,42.17,86.12Z"/><path class="cls-32" d="M21.52,129.17l-.19.09-.22,0c-.89-.82-.79-2-.76-3,.09-2.37-.44-4.82.75-7.08v0c1-.41,1.13.24,1.15,1A46.06,46.06,0,0,1,21.52,129.17Z"/><path class="cls-33" d="M21.1,119.18c.18,3.36-.43,6.71,0,10.06l-.93,0a27.09,27.09,0,0,1,.46-10.11Z"/><path class="cls-34" d="M21.52,129.17c.16-2.77.33-5.53.46-8.29,0-.72.23-1.58-.89-1.72.5-.7,1.23-.31,1.86-.38a4,4,0,0,0-.43,3.07c.2,2.17-.62,4.3-.15,6.46A1.15,1.15,0,0,1,21.52,129.17Z"/><path class="cls-35" d="M20.64,119.18c-.06,3.37-.73,6.72-.46,10.11l-.45,0c0-3.35,0-6.7,0-10.06C20,118.84,20.33,118.76,20.64,119.18Z"/><path class="cls-36" d="M53.22,82a.81.81,0,0,1-1,.31,12.67,12.67,0,0,1-3.89-2.77c-5.42-5.15-11-10.15-16.29-15.4a5.77,5.77,0,0,0-1.62-1.25c-1-1-2.43-1.72-2.48-3.43a7.57,7.57,0,0,0-2.31-3.08A58.2,58.2,0,0,1,10.31,31.26,31.12,31.12,0,0,1,8.94,18.61a57,57,0,0,0,2,10.67A57.58,57.58,0,0,0,22.18,49.6c9.07,10.76,19.41,20.31,29.24,30.34C52.06,80.59,52.62,81.32,53.22,82Z"/><path class="cls-37" d="M23.91,72.86l-5.53-2.92,1.4-2.73c1.61-.95,3.76-1.19,4.33-3.53.15-.59.95-.69,1.58-.5.92.3.86,1.06.77,1.85,1.58-2.32,2.3-2.6,4.35-1.7a7.12,7.12,0,0,1-4.48,8.54C25.5,72.16,25,73.24,23.91,72.86Z"/><path class="cls-38" d="M30.68,63.53c-2.23-1-3,1.31-4.47,2-.32-.67.4-1.9-.83-2s-.85,1.13-1.17,1.8c-.92,1.89-2.58,2.13-4.43,1.89A15.77,15.77,0,0,1,20.24,62c1.06-3,2.66-3.91,5.77-3.12.66.17,1.31.39,2,.58l2.73,3.15A.62.62,0,0,1,30.68,63.53Z"/><path class="cls-39" d="M72.8,15.21c.31.77.62,1.53.92,2.3a34.83,34.83,0,0,1-6.81-5Z"/><path class="cls-40" d="M30.68,63.53c0-.31,0-.61,0-.92.57-.49.8.12,1.08.38q8.32,7.87,16.61,15.77c1.26,1.21,2.91,2,3.86,3.55a13.1,13.1,0,0,1-3.85-.23,15.32,15.32,0,0,0-9.45.81c-3.37-.55-6.63-1.71-10.07-1.9-.95-.06-1.14-.75-1.46-1.49a24.51,24.51,0,0,0-3.06-5.79l-.45-.85c1-.71,1.47-1.73,3.14-1.85,1.14-.09,2.32-2.4,3.1-3.91C30.67,66.09,30.53,64.73,30.68,63.53Z"/></svg>