<svg id="Layer_1" data-name="Layer 1" xmlns="http://www.w3.org/2000/svg" viewBox="0 0 611.2 549.95"><defs><style>.cls-1{fill:#fcb040;}.cls-2{fill:#fdf7f1;}.cls-3{fill:#55825f;}.cls-4{fill:#3d4069;}.cls-5{fill:#dd9776;}.cls-6{fill:#bd7d63;}.cls-7{fill:#576586;}.cls-8{fill:#fffbf9;}.cls-9{fill:#643e6d;}.cls-10{fill:#455d5e;}.cls-11{fill:#48838d;}.cls-12{fill:#945354;}.cls-13{fill:#fdfaf9;}.cls-14{fill:#483050;}.cls-15{fill:#4e8791;}.cls-16{fill:#fdfaf7;}.cls-17{fill:#ead4c9;}.cls-18{fill:#3d5a42;}.cls-19{fill:#dd9877;}.cls-20{fill:#351f15;}.cls-21{fill:#3e5a42;}.cls-22{fill:#e9d2c8;}.cls-23{fill:#db9877;}.cls-24{fill:#b94e45;}.cls-25{fill:#543d3d;}.cls-26{fill:#747dbc;}.cls-27{fill:#bd7d62;}.cls-28{fill:#e9d2c7;}.cls-29{fill:#ad745e;}.cls-30{fill:#56835f;}.cls-31{fill:#fdfaf8;}.cls-32{fill:#4d8791;}.cls-33{fill:#fcf9f7;}.cls-34{fill:#466754;}.cls-35{fill:#bd8368;}.cls-36{fill:#fdf9f7;}.cls-37{fill:#ead3c9;}.cls-38{fill:#fefaf9;}.cls-39{fill:#fef9f8;}.cls-40{fill:#925f4c;}.cls-41{fill:#bb5047;}.cls-42{fill:#ba5047;}.cls-43{fill:#ba4f46;}.cls-44{fill:#fdf8f6;}.cls-45{fill:#c7cac3;}.cls-46{fill:#fcfaf9;}.cls-47{fill:#fbf9f8;}.cls-48{fill:#747bb6;}.cls-49{fill:#fdf9f8;}.cls-50{fill:#7ea7ad;}.cls-51{fill:#8b6668;}</style></defs><path class="cls-1" d="M610.82,550H0V.57C39.9-.24,80.17.56,120.19.29a6.07,6.07,0,0,1,1.28.06c.91.63.37,1.35.09,2-13.39,35.13-5.85,74.25-.59,110.39,2.12,12.16,4.71,24.23,7.42,36.27.23,1.43.48,2.94-.68,4-5,6.35-7.9,13.93-12.14,20.73-2.24,4-5.37,7.54-5.71,12.42-.57,10.13,3.11,20,5.15,29.78,1.62,3.2.71,5.9-1.25,8.71-5.48,11.74-10,23.26-17,34.39-1.81,2-5.72,9.69-1.72,10.49a104.34,104.34,0,0,0,20.84,2.38c1.4-.4,3.82-.34,2.83,1.79-8.18,19.73-11.87,41.17-21.62,60.27C80.56,369.39,60,402.71,40.77,436.67c-2,2.81-5.63,3.75-6.89,7.32-8.22,15.23-15.39,32.09-16.07,49.54.13,3.19.91,4.35,4,5.26a226,226,0,0,0,26.08,5.88c30.27,4.92,60.8,9,91.49,9.52a157.12,157.12,0,0,0,20.81-1c3.09-.33,3.94-1.33,4.42-4.42a44.41,44.41,0,0,0-1.84-20,1.62,1.62,0,0,1,1.77-.62c11,1.17,22,.83,33,.65,22.27-.86,44.7,1.54,66.94-1.29,4.93-.92,3.67-9.94,5.06-13.85,3-13,4.63-26.57,7.43-39.75.42-7.68,6.27-14,9.19-21,4.46-8.63,9.21-17.13,14.25-25.43,1.49-1.66,2.05,1.12,2.05,2.25q.71,22.42.91,44.86c-.3,7.32,1.46,15.65-.44,22.48-1.94,1.22-2.51,3.1-2.71,5.24-1,14.38-.56,28.83-.82,43.24-.7,5.72-1.25,15.48,6.59,15.64,44.66,3.71,90.38,10.41,134.64.25,6.68-2.19,2.9-24.14-4.55-25.2-19.7-8.25-40-15.45-57.35-28.33-5.8-3.47-13.46-17.23-20-16.37-.8.23-1.67.6-2.34-.31.87-30,5.9-60,9.1-89.91,1.94-19.41,3.65-38.76,5.23-58.2.95-2.53-.17-24.13,3.85-19,18.15,23.73,37.19,46.9,58.34,68,22.78,22.7,47.94,43.23,67.69,68.78.45,6.34,8,11.33,4.57,18.2-8.32,22.44-32.64,28.5-51.47,39.25-6.15,2.8-8.2,9-7.26,15.37,1.43,4.86,9.7,3.64,13.83,4.91,18.85,2.1,38,2,56.52-2.38,25.1-5.61,49.82-15.69,70.49-31.14,4.26-3.74-1.14-9.54-2.54-13.56-5.18-9.24-8.48-19.5-15.84-27.42-4.44-4.27-7.4-11.66-13.49-13.55-10.66-13.9-19.5-29.13-28.9-43.9-27-40.46-45.41-86.26-75.63-124.7-5.89-5.71,2.66-6.66,6.42-9.52,13.45-7.29,26.6-15.16,40.61-21.36,34.62-17,73.46-31.5,97.16-63.56,6.31-8.51,10.51-18.24,14.31-28.06.24-.61.5-1.62,1.53-.7C610.84,262.49,611.22,406.3,610.82,550Z"/><path class="cls-2" d="M121.68.55Q60.85.4,0,.57V0H611.11c-.29,183.13.55,367.35-.29,550q.2-272.81-.67-545.23c0-3.48,0-3.48-3.5-3.48C445.12.56,282.75,2.54,121.68.55Z"/><path class="cls-3" d="M121.68.55c40,0,80-.19,120,0,5.54,2.81,10.35,7.18,17,7.4a1.68,1.68,0,0,1,1.67,2.55c-1.77,5.14-3.46,10.6-3,16.09.52,1.44-.41,3.35-2.05,2.31-4-1.95-8.17-3.61-12-5.94,7.36,4.82,15.66,9,20.55,16.54Q279.81,60,296.71,79.65c18.69,21.06,38.2,41.39,53.55,65.15,1.19,1.18,1.09,3.19-.92,3.3-18.44,4.23-35.41,12.84-50.37,24.24-16-.79-31.82-1.89-47.82-2.83-11.5-1.29-23.44.18-34.6-2.44-35.72-39.38-91.33-74.88-92.09-133.41-1.86,58.69,52,96.13,90.26,132.68,3.75,4.31-17.74-1.22-20,.25-9.32,5-19.75-1.13-29.72-1.64a2.6,2.6,0,0,1-2.47-2c-.93-4.27-4.2-7.45-5.18-11.69-.13-1.3-1.43-2-1.61-3.19.62-1.9,1.34-5.77,4.08-4.64,2,.79,2.69.26,3.92-1.84-.28-2.64,2-3.34,3.5-4.61a1,1,0,0,0,.44-.84c-.41-5,3.61-9.28-1.48-13.16-12.29-10.48-20.68-.18-18.29,13.23-2.17,2.74-3.17,6.57-7.2,6.91a30.39,30.39,0,0,0-10.6,7c-.5.54-1,1.24-1.87,1.12C119,107.18,103.89,43,121.68.55Z"/><path class="cls-4" d="M610.76,80.72c-.1,12.53.47,25.15-.21,37.63-12,39.38-46.75,62.26-82.16,78.85-18.32,9.46-37.51,17.14-55.42,27.37-4.07,1.38-14.17,9.86-17.36,8.05-1.26-2.49-11.38-7.53-7-9.84,6.84-3.92,8-11.89,10.77-18.62,2.33-3.85,4.83-7.59,7.3-11.36,1.79-2.44,5.23-.38,7.78-1,7.46-.68,4.38-9.84,3.36-14.63-.57-3.49-2.26-6.9-1.12-10.43.24-3.87.17-7.75,3.19-10.63,11.5-6.22,11.75-20.05-2.75-21.42-5.56-.57-6.71,6.09-11,8.06-1,.45-1.59,1-1.08,2.16.19.54-.45,1-.44,1.51.45,1,.63,2-.37,2.77-.27.22-.19.61-.2.94-.86,3.34,1.12,1.91,2.67,3.57.23,2.51-2.42,4.67-4.63,5.26-15.49,5.87-10.25,20.31-20.78,16.92-4.12-.87-9.48.4-12.44-3.22-.64-2.17-3.66-2-4.53-.12-.39.62-.57,1.44-1.44,1.66a8.93,8.93,0,0,1-6.75-3.15c-2.32-2.39-5.39-2.75-8.44-2.84-6.81-.17-13.63-.17-20.42.26-2.42.26-3.56-1.41-1.15-3a533.84,533.84,0,0,1,49.93-41.78c18-14.64,47.46-29,57.52-50-5.66,17-55.38,42-71.72,57.34-13.81,11.37-27.17,23.44-38.95,36.91-1.35,1.63-3.85,1-5.69,1.18-4.63.25-9.33.94-13.94.82-2.23-2.07-2.85-5.48-4.25-8.14-.56-2,2.08-3.09,3.3-4.2,33.65-25.53,68.85-49.06,104.79-71.23a39.79,39.79,0,0,0,16.08-18.65c2.25-4.25,3.23-9.54,6.21-13.22a2.11,2.11,0,0,1,2.05.17c11.59,5.19,23.78,9.54,36.6,10C557.92,66.16,585.37,59.48,610.76,80.72Z"/><path class="cls-5" d="M96.51,333.8c9.76-19.61,13.64-41.39,22-61.5,4.73-13.76,14.13-26.45,21.19-39.41,1.17-3.45,0-7.37.57-11,.06-1.7-.34-3-1.91-3.78a1.37,1.37,0,0,1-.81-1c1.95-5,6.85-8.72,11.91-10.45,3.32-.6-.84-3.26-1.32-4.87-.9-1.08.12-2.17,1.4-1.83,7.34-.1,14.71.36,22,.31.67.37.67,1,.58,1.62-1.17,8.07,1,15.58,3.77,23,1.13,2.17,4.24,12.28,6.18,12.25.68-.36,0-1.12-.21-1.63-4.78-10.48-10.86-22.45-8.19-34.2.21-.7.47-1.38,1.35-1.48,6,.25,12-.82,18.08-1.25,14.46-1.64,29-3.28,43.11-7.1a1.39,1.39,0,0,1,2,1c1.17,16.57,1.45,33.63-3.36,49.75-12,33.59-33.26,63.34-54.64,91.6-5.4,6.13-9.92,13.84-16,19C141.13,349.58,117.36,344.46,96.51,333.8Z"/><path class="cls-5" d="M373.15,283.44c-1.56,13.35-2,26.91-3.49,40.38-22.22,9.18-47.29,8.4-70,.86-9.74-1.23-6.33-6.95-8.83-14.39-2.44-14.07-5.08-28.16-4.39-42.51-.35-14.2-.33-28.87,1.13-43.06.63-1,1.55-.75,2.41-.46,9.46,3.43,19.17,5,28.65,8.43-16.75-7.73-34.13-14.84-48.26-26.5,6.68-12,16.12-22.79,25.94-32.47,19.72.5,40-1.08,59.61-1.53,3,1.64,5-1.81,8.41-.81,5.5,9.17,6.65,20.61,8,31.13,1.88,15.18,2.63,30.44,3,45.72-.29,8,.23,16.09-.79,23.91-.94,1.91-3.6,1.2-4.73,2.92-1.72,3.12,4,1.29,4.31,3.73C373.65,280.27,374.26,282.32,373.15,283.44Z"/><path class="cls-6" d="M373.15,283.44c-.08-2.17-.36-6.38,3-5.42,5.33.35,10.66.13,16,.11,1.41,0,1.92-1,2.24-2.21,0-2.54,1.31-5,1-7.56,11.09-22.53,15.85-13.52,1.88-21.76-2.22-1.85-2.11.36-2.83,2-3.22,5.34-4.19,12.06-8,17.16-1.71,3.31-9.19,7.23-12.33,6.48a368.5,368.5,0,0,0-5.11-87.36c1.52-3.7,3.31-5.06,6.48-3.5a199.52,199.52,0,0,1,50,25.1c1.85.84,1.89,2.61.11,3.51-5.17,4.05-10.61,7.75-15.7,11.88-1.42.92,2,2.7,2.95,1.91,5.1.46,9.89,4,13.8,7.23,2.61,3.08,6.69-2.34,10-2.72,1.35,1,1.45,2.34,1.22,3.78-.31,1.92-.26,2.09,1.57,2.63,2.09.72,6.21,5.94,1.81,6.33-2.3,1.19-6.3.74-7.58,3.1a31,31,0,0,1-7.8,9.44c-1.07.91-1.05,1.06,0,2.08,8.18,7.37,18.68,15.22,2.6,21.37-4.88,3.83,5.87,3.27,8,2.87A35.43,35.43,0,0,0,449.46,275c4.36-2.22-5-10.16-6.12-12.67-2.95-4.69-6.12-9.16-8.5-14-.64-1.15-2.12-2.86-1.19-4.13a47.44,47.44,0,0,1,11.3-1.57c2.62.52,3.62,3.81,5.7,5.31.81,1.21,2.06.22.88-.75-2.52-3.9-9.23-8.83-9.13-13.43.62-1.07.15-1.79-.55-2.52-1-1.34-4.09-1.45-3-3.74,2.31-.87,6.53-3.91,8.71-3.11,3.5,2.61,6.34,6.56,10,8.71-1.25,1.27-10.16,4.25-7.93,6,12,15.52,22.59,32.09,32.53,49,.91,2.42,4.4,5.1,2.8,7.73-8.8,13.33-17.78,26.76-29.36,37.88-6.76,6.22-13.9,12-21,17.86-.87.93-2.33,1.36-3.14.07C410.34,330.39,391.54,307,373.15,283.44Z"/><path class="cls-7" d="M294.09,322.4c28.68,9.31,46.72,10.05,75.57,1.42-3.09,21.79,3.64,20.44-14.12,23-2.17.33-2.55.77-2.66,2.94-.31,5.89-.88,11.77-1.33,17.65-2.76,31.1-4.61,62.88-4.07,93.87,2.83-1.64.15-7.11,5-8.5,1.41-.34,2.84-2.13,4.31-1.35,7.56-3,11.85,7.19,17.07,11.1,12.22,11.72,28.21,19,43.71,25.42,10.13,4.89,27.23,6.55,26.57,21-29,8.18-61.25,6.37-91.36,4-17.19-1.47-34.12-5-51.32-6.43-.81-.08-1.75,0-2.29-.9-1.44-5.45.26-12-.1-17.78-.13-8.95-.36-17.9.68-26.81.11-2.32,1.61-3.78,3.54-4.81,4.13-4.4,7.8,2.45,9.72,5.82.7-26-.88-52.33.62-78.42.42-10.83-.23-21.63-.11-32.45,0-2.42-.05-3.87-2.84-4.15-4.27-.47-8.48-2.49-12.72-2.4-.71-.07-.9-.58-1-1.17-1-6.4-2.28-12.77-3.29-19.18C293.54,323.52,293.41,322.88,294.09,322.4Z"/><path class="cls-7" d="M96.51,333.8c14.08,5.17,28.07,11.22,43,14,8,1.75,16.08,3.08,24.18,4.29,1.21.1,1,1.58.32,2.17-4.06,4.75-7.45,10.49-12.11,14.57-4.07.05-8-1.1-12-1.66a2.16,2.16,0,0,0-2.44,1q-8.2,11.25-16.51,22.44c-13.48,19.41-29.52,37.23-40.59,58.19-.27,1.14-3.39,4.42-1,4.26,3.15-.56,5.68-2,6.83-5.15a11.89,11.89,0,0,1,11.51-8.4c8,1.9,7.47,18.7,18.72,23.67,14.33,9.42,30.91,14.62,45.2,24.16,3.19,1.86,5.94,14.33,2.69,15.64-48.37,1.38-97.1-4.54-143.46-18.62-7.66.69,8.79-34.06,10.91-37.92,1.93-3.48,5.52-11,10.36-8,2.16.59,3,8.7,4.61,3.79C62,415.83,80.93,391.57,97.34,365.78c.74-2.12,7.84-8.61,3.78-9.16C81.32,349.25,89.55,352,96.51,333.8Z"/><path class="cls-8" d="M297.74,344.33c-1.13-2.4,12.06,2.46,14.07,2.1,2.8-.07,2.2,3.79,2.39,5.86.47,28.75-.89,57.47-.54,86.23-.18,8.1,1.31,18.61-.19,25.54-2.75-3.54-4.38-10.85-10.22-7.91-1-22.64-.22-45.95-1.7-68.79-9.14,13.05-15.69,29.14-23.9,42.76-5.56-.69-9.55,9.38-15.43,11.4-11.57,4.48-26.45-.62-35.17-8.86-1-1.22-.77-2.57-.21-3.9,3.75-8.84,7.36-12-1.52-19C228,399.69,233.23,390,236.8,380c3.85-9.39,7.8-18.73,11.61-28.13.35-.87.69-1.82,1.78-2.09,15.55,9.14,31.15,19.38,48.74,24.75,3.07,1.81.62-6.81,1.1-8.46,0-2.24-.33-2.56-2.43-3.29a144.24,144.24,0,0,1-14.74-6.23c-4.5-2.64-31.44-15-27.91-20.32,1.43-2.67,2.47-9.47,6.44-5.53,10.84,7.82,22.42,14.76,35.1,19.15C299.76,351.25,296.16,345.51,297.74,344.33Z"/><path class="cls-9" d="M225.52,409.6c14.31,8.87-1.09,15.31,2.28,23,10.06,8.61,28.83,15.19,39.46,4.37,3.22-2.05,6.17-9.8,10.52-6.9,0,7-2.51,13.87-3.35,20.82-1.59,6.86-1.26,15.23-4.59,21.25-12.8,3.51-27.36,4.15-40.83,4-10.33-.61-20.41-3.43-30.81-3.41-13.08-.26-26,2.3-39.1,1-9.28-1-52.61-3.33-24.09-14.51,26-9.56,53.11-17,75.88-33.41,4.91-3.66,6-10.2,9.37-15C221,408.78,224.17,407.42,225.52,409.6Z"/><path class="cls-9" d="M497.45,450.91c3.94-5.93,10.67-13.26,6.55-20.67-2-3.52-7.8-11.51.14-11.6,9.9,2.34,11.72,15,24.35,15.78,10.57,2.19,32.21-1,26.88-16.13-.52-2.32-3-6.78.13-8.07,5.16-.34,11.59,11.84,15.53,15.5,6,6.93,9.11,15.44,13.09,23.49.64,1.07,1.62,2.4.22,3.33-11.62,9-24.09,16.43-38,21.43-9.81,3.42-20.43,3.14-30.29,6.47-12.36,4.34-24.78,8.58-38.09,7.75-10,.1-19.95-1.43-29.8-3.18-5.6-2,10.15-10.13,12.35-11.14,9.65-4.77,19.65-8.91,28.75-14.71a48.33,48.33,0,0,1,17.8,3.43C503.37,459.54,496.94,456.41,497.45,450.91Z"/><path class="cls-8" d="M555.5,410.22c-2.47,3.52,1.16,7.47,1.31,11.21.52,15.46-22.19,15.88-33,12.53-9-1-14.74-20-23.57-13.09-32-38.94-30.47-15.74.8-50.42,5.27-5.92,9.79-12.39,14.42-18.79a1.81,1.81,0,0,1,2.06-1.08C529.32,371,542.49,390.69,555.5,410.22Z"/><path class="cls-8" d="M446.76,484.07c29.82,5.92,45.41,4.62,73.71-5.52,9-2.42,18.51-2.23,27.2-5.76,13.62-5.05,26.05-12.8,37.47-21.7,3.8,6.89,7.94,12.69-1.07,17.39a194.94,194.94,0,0,1-60,26.78,166.94,166.94,0,0,1-55.29,4.87c-7-.6-14-1.24-20.72-3.25C444.06,495.67,445.76,487,446.76,484.07Z"/><path class="cls-8" d="M299.13,505.55c48.05,5.93,96.94,14.1,145,3.34.86,3,.47,6.84-.07,10-2.14,5.77-14.21,4.71-19.55,6.18-23.14,3.38-46.54,2.77-69.79.91-15.12-1.19-30.24-2.23-45.32-3.81-7,.17-11.17-2.69-10.89-10.15C298.72,510,297.65,507.18,299.13,505.55Z"/><path class="cls-8" d="M125.22,466.29c24.3,10.94,51.56,5.23,77.22,5.89,19.08,2.59,38.17,5.09,57.35,1.33,16-3,9.66-.77,8.13,12.36-2.52,5.7-40.23,3.05-48,3.56-18.91-.76-38.28.86-57.09-.44-12.09-8.57-26.29-13.22-39-20.66C123.55,466.86,123.82,466.45,125.22,466.29Z"/><path class="cls-8" d="M18.3,483c47.51,14.78,97.53,20.74,147.15,19.4-.15,3.72,1.11,10.25-3.73,11.26A117.77,117.77,0,0,1,142,514.92c-19.33,0-38.59-1.94-57.75-4.36-21-2.6-42.09-5.22-62.45-11C14.34,498.07,17.42,488.27,18.3,483Z"/><path class="cls-8" d="M432.59,352.45a208.26,208.26,0,0,0,52.83-58.37c4.4,7.19,8.9,15.07,11.93,22.88-6.42,13.59-16.66,26.2-27.72,36.6-6.36,5.13-12.16,12.45-19.43,15.81A167.49,167.49,0,0,1,432.59,352.45Z"/><path class="cls-8" d="M356.75,451.39c-11.16,3.73-3.84,7.28-10,11.71-.55-32.19,1.39-65.18,4.32-97.51,3-21.63-4.91-18,16.43-21.53C365.34,379.49,358.51,415.57,356.75,451.39Z"/><path class="cls-8" d="M88.35,350.35a121,121,0,0,0,14,6.06c1.26.5,1.4.89.66,2-18.6,29.32-40.25,56.86-57.35,87-2.37-2.28-2-7-6.23-7.5C55.5,408.67,73.38,380.27,88.35,350.35Z"/><path class="cls-10" d="M148.07,200.67c9,11-.93,1.55-10.22,16.42-.73.43-1.28-.11-1.82-.41-1.34-.52-2.5-2.18-4-1.89-2,1.36-4.33,1.4-6.57,1.62-3.76-.23-11.12,2.77-11.73-2.73-2.49-13-9.38-28.51,1.2-39.67a2.36,2.36,0,0,1,3.2.71c3.34,4.49,9,3.79,13.18,6.64,1.25,1.29,3.69,1.26,3.93,3.38a3.45,3.45,0,0,0,.93,2C139.76,191.56,145.45,195.38,148.07,200.67Z"/><path class="cls-9" d="M450.2,369.37c19.06-14.26,35.25-31.76,47.15-52.41,1.36,2.5,7.91,11.35,5.83,13.37-7.63,11.31-15.83,22.34-25.67,31.84-6,5-11.55,11.86-18.49,15.16A49.6,49.6,0,0,1,450.2,369.37Z"/><path class="cls-8" d="M459,377.33c17.84-13.51,32.64-30.22,44.77-49,1.43,2.47,8.2,11.16,6.3,13.25a123.56,123.56,0,0,1-26.44,30.83c-5.33,4.11-9.94,10.37-15.77,13.29A76.53,76.53,0,0,1,459,377.33Z"/><path class="cls-9" d="M467.88,385.72c15.74-13.87,32.12-27.34,42.59-45.87A71.23,71.23,0,0,1,517,350.56c-10.95,16.83-25,31.15-40.61,43.7A67.55,67.55,0,0,1,467.88,385.72Z"/><path class="cls-11" d="M134.81,184.91c-.21-.5-.25-1.22-.88-1.36-3.46-1.9-6.66-3.79-10.67-4.41-3.42-.74-4.84-4.74-8.34-5.13,6.79-12.6,13.08-29.33,28.83-32.32,2.59-.86,7.83,4.17,11.05,4.83,4,3.32,2.26,9.62.61,13.75-1.77,3.16-5.65-3.9-4.83-5.91.95-5.58-6-8.17-9.82-6a28,28,0,0,0-9.31,8.08c-6.19,9.1,1.12,15.85,10,10.37,1.27-1,2.29-.78,3,.67,2.25,3,2,4.88-.91,7.21C140.45,177.94,137.55,181.51,134.81,184.91Z"/><path class="cls-5" d="M114.57,216.09c4.76-.29,14.11.94,17.43-2.47,3.46,10.57-5.64,20.55-11.47,28.68-.74,3.4-13.09-.3-14-2.35,2.5-5.82,4.06-12.16,7.71-17.4C116.12,220.53,114.89,218.39,114.57,216.09Z"/><path class="cls-12" d="M92.79,266.88c.06-1.8,2.46-10.5,5-7.42,1,1.89,2.93,1.84,4.77,1.51a1.88,1.88,0,0,0,2.09-1,2.11,2.11,0,0,1,4,.31c1.87,4.6,8.67,4.11,10.81,8.3C121.37,273.58,94.21,269.38,92.79,266.88Z"/><path class="cls-13" d="M99.7,261.62c-1.62.33-1.94-1.55-2.73-2.54a.94.94,0,0,1-.31-1.52c2.71-4.31,5.08-8.82,7.54-13.28.31-.74.8-1.52,1.72-1.42,5.14.14-6.2,12.69-7,15.18,2.52-2.43,7.69-15.72,11.1-13.61.8.57.69,1.25.19,2C106.58,251.34,103.55,257,99.7,261.62Z"/><path class="cls-14" d="M497.45,450.91c1.42,5.75,6.95,8.64,11.16,12.22-6.11-1.3-12.94-2.86-19.3-4C492.09,456.6,494.78,453.67,497.45,450.91Z"/><path class="cls-15" d="M98.23,259.38c2.19-5.14,6.4-9.72,9-14.82.4-1-1.55-1.06-2.16-1.55l1.46-3.06c3.83,1.93,8.16,2.37,12.14,3.6.21,1.55-.87,2.29-1.92,3-5.39-.81-9.4,12.83-13.91,14.94-1.71-2.28,8.93-12.73,9-15.33-2.59.06-9.44,15.72-12.16,15.41,2.94-5.67,7-10.66,10.53-16-2.1-5.51-9.8,12.4-12,13.73Z"/><path class="cls-16" d="M92.79,266.88c8.52,2.69,17.62,3.22,26.31,3.75-1,4.7-16.81.14-21,.2C95.84,270.3,91,270.34,92.79,266.88Z"/><path class="cls-9" d="M489.64,458.86l-.3.31A.38.38,0,0,1,489.64,458.86Z"/><path class="cls-1" d="M489.41,55c-5,12.21-9.91,25.32-22.11,32.05-36.58,22.6-72.5,46.47-106.58,72.7-.85.79-2.14,1.6-2.71.1-2.21-3.89-4.31-7.84-6.78-11.57-4.6-9.12-11.94-17.24-17.82-25.77C308.8,92.86,281.58,65.36,259,34.06c-5.32-5.83-1-18.43,1.29-25.2-.37-2,3.05-7.08,4.68-8.31Q386.31.31,507.71.54C505.39,12,499.9,23.66,496.65,35.22,494,41.65,493,49.06,489.41,55Z"/><path class="cls-9" d="M489.41,55c6.06-18.15,11.79-36.43,18.3-54.43C541.34.38,575,.55,608.6.45c1.3-.09,2.58.09,2.22,1.74-.05,26.17.11,52.36-.06,78.53C564.87,50.05,541.34,79,489.41,55Z"/><path class="cls-7" d="M264.93.55c-1.38,2.84-3.26,5.46-4.68,8.31A29.76,29.76,0,0,1,241.72.61C249.45.46,257.2.48,264.93.55Z"/><path class="cls-5" d="M145.82,171.42c-4-9.58-3.5-1-10.6-2.12-12.9-1.06-4.39-16.39,2.69-20.05,3.77-3.23,9.78-3,12.29.59s-.64,6.58,3.52,10.41c2.24,2.41,3.19-10.07,2.69-11.56,13,23.33-.49,11.62,30,19.74,3.91.45,6.84,3.23,3.63,7.07-3,3.2-7.3-.18-10.88,1.22C168.61,178.79,151.84,183.16,145.82,171.42Z"/><path class="cls-5" d="M350.83,146.62c3.46,4.29,5.37,9.71,8.63,14,.58,3,2.66,5.73,3.65,8.68a4.74,4.74,0,0,1-5,.55,2.83,2.83,0,0,0-3,.13c-1.76,1-3.8.76-5.73.94-16.21.74-34.34,2.85-50,.7C313.94,158.79,332.84,152.13,350.83,146.62Z"/><path class="cls-17" d="M299.35,171.67c18.54-.26,38.3,1.36,56.24-2.8.69-.69,1-.68,1.88-.09,1.64,1.34,3.73.75,5.64.57,3.05,0,6.14-.39,9.21-.55,7.94,0,41.14-4.91,44.45,2.31-1.16,1.49-3.54-.08-5.15,0-7.32-1.07-14.82-.55-22.2-.18s-14.83.82-22.27,1.47c-.86.08-1.83.26-2.52-.56-1.4.35-3.48-.33-4.46.91a1.57,1.57,0,0,1-1.86.72c-1.15-.25-2.37-.19-3.4-.95-1.23-.63-2.75.22-4.08.16a437.18,437.18,0,0,1-50.15,1.52c-3.13-.68-5.95,1.07-9,.39-2.58-.74-4.93,2.26-7.18.17-9-2.34-19.12-1.35-28.48-2.52-19.64-1.7-39.25-.59-58.73-3.41-1.83-.05-4.18.68-5.26-1.36,5.62-4.38,14,.49,20.59-.19.88-.09,2,.55,2.75-.06.05-.49.28-.75.8-.61,2.52-.6,4.07,1.23,6.43,1.14C248.39,167.87,274.29,170.6,299.35,171.67Z"/><path class="cls-18" d="M216.19,166.59c-2.23,2.3-11.71-9.43-14.58-11C189,143.87,176.56,132,164.53,119.66c-23.27-22.57-43.38-53.46-40.21-87.1C126,91.45,181.7,126.88,216.19,166.59Z"/><path class="cls-19" d="M156.1,148.06c-4.11-2.08-8.18-4.44-12.35-6.37,1.07-1.59,2-5.21,4-5.46,2.61-1.29,7.53-1.08,7.68-5.25.05-5.47,6.81-3.81,5,1,.54-1.71,2.24-2,3.35-3.08a3.36,3.36,0,0,1,5.71-.41c.34,1.92-1.3,3.54-1.23,5.5-.31,1.1.87,3.18-.55,3.62-1.92-.3-.87,1.48-2.22,1.79-1.37-.07-1.75.57-.72,1.57.41.9-1.11,1.43-1.36,2.28-.9,1.58-2.61,1.37-4,.63C157.1,143,157.4,147,156.1,148.06Z"/><path class="cls-20" d="M169.5,128.52c-1.63-.2-3.79-1.78-4.91.28-.37.66-.53,1.51-1.46,1.55-2.15-.12-1.71,3.45-3.46,3.4-.89-1,.8-2.62.4-3.9-.06-1.7-2.51-2.61-3.4-1-.54,5.25-3.88,8.29-9.27,7.19-1.07-3.07-.2-7.72.38-11.11C151.23,113,169,118.61,169.5,128.52Z"/><path class="cls-21" d="M256.85,28.91A53.5,53.5,0,0,0,259,34.06,162.58,162.58,0,0,1,242,22.24C247,23.82,251.86,27,256.85,28.91Z"/><path class="cls-22" d="M189.85,175.19c3-6.94-1.94-4.25-3.41-6.76,5.56-3.5,9.42,2.29,6.47,7.39C192.38,177.65,188.87,177.26,189.85,175.19Z"/><path class="cls-23" d="M192.49,175.52c1-2.76,1.28-5.65-1.15-7.75l.71-.32a10.89,10.89,0,0,0,3.27.93C197.61,170.72,196.27,176.75,192.49,175.52Z"/><path class="cls-24" d="M446.42,175.79c3.6-8.49,9.91-17.84,19.87-18.5,3.55,1.45,8.3,1.17,11.31,3.29.33,11.22-2.4,22.37-9.16,31.43-3.8,2.21-6.46,13.86-11.28,12.91-6.91-3-16.68.81-22-5,.53-3.62,3.27-6.82,4.61-10.26,1.18-2.36,4-.42,6-.3,3.46.58,6-3,9.58-1.73,10.13,1.62,15.64-12.65,13.73-20.88-5.7-10.26-14.66,3-18.44,8.25-1.77,1-3.16,5.07-5.37,4.28C444.18,178.24,445.37,176.35,446.42,175.79Z"/><path class="cls-6" d="M446.42,175.79c-4,8.19,4.83-2.29,6-4.16,2.88-5,10.17-13,15.88-7.41,4.69,6.29.3,15.33-3.88,20.83-2.93,4.23-7.88,3.11-12.23,3.07-6.3,3.33-6.69,1.23-13.23.69-5.8-2.6-12.06-5-17-8.94.25-2.17,2.61-3.66,3.1-5.91.51-1.33,1.11-1.69,2.4-1.2.92.36,1.24-.51,1.9-.57C433.24,176.22,441.15,174.44,446.42,175.79Z"/><path class="cls-25" d="M435.51,199.57c3.14,3.4,8.77,3.12,13.14,3.1,3.82,0,7.4,1.9,11.23,1.78-2.48,9.11-6.35,18.66-16.23,21.54-1.75.38-4.77,3.24-5.74.53C435.93,219.11,426.83,204.74,435.51,199.57Z"/><path class="cls-26" d="M386.9,167.8c-1.47.5-3.12.11-4.66.2,20.85-24.65,46.91-44.33,73.64-62.18,13.18-10,30.27-17.66,38-32.81-5.08,17.4-29.45,29.77-43.09,40.93a541,541,0,0,0-61.47,49.46C388.37,164.77,382.68,168.18,386.9,167.8Z"/><path class="cls-20" d="M463.91,146.3c1.87-3.36,8.71,3.84,9.33-2-.23-2,1.15-4.88-.58-6.4-3.11-2.35,2.76-4.29,4.76-3.91,14.43,1,15.12,16.92,2.82,22.29-3.9,0-4.77-6-2.61-8.69.66-.92,1.78-2.49.44-3.35-3.6-.93-2.79,5.07-4.6,6.95-1.25,2.24-4.69,4.17-7,2.51-2.59-.19-4.48-1.46-2.72-4C465.5,148,465.5,148,463.91,146.3Z"/><path class="cls-6" d="M468.44,192c-.3-1.66,1.5-3.16,2.1-4.69,3.35-5.07,4.88-10.94,6.27-16.74C479.57,179.92,484.85,196.43,468.44,192Z"/><path class="cls-27" d="M466.52,153.73c5.73.82,7.53-4.48,8.61-9,.7-1.74,3.93-2,4.3.08-1.06,4.83-5.25,7.23.81,11.51-.59,1.55-1.8,2.83-2.64,4.27-4.52-.76-8.94-2-13.38-3.13C464.89,156.14,466.11,155.18,466.52,153.73Z"/><path class="cls-6" d="M411.71,170.63c1.75-.36,3.36.83,5.06.48a20.46,20.46,0,0,0,6.15,2.81c.88,4.39-5,5.52-8.32,5.64-4.21,0-5-1.54-4.67-5.84C410,172.51,410.12,171.09,411.71,170.63Z"/><path class="cls-27" d="M471.69,136.3c1.16,1,3.16,2,2.48,3.89-.68,2.3.52,4.9-1.51,6.74a1.59,1.59,0,0,1-2.25.53c-1.89-.91-4.11-.91-5.9-2,.38-1.08-1.57-2,.35-2.8C468.18,141.61,469.37,138.4,471.69,136.3Z"/><path class="cls-28" d="M414.64,179c10.8.4,6.19-9.59,13.09-8.44,1.93.2,2.18,3.77,0,3.07-.52-.39-1.28-1.11-1.73-.21-1.65,3.64-4.27,10-9.36,8C415.59,181,414.51,180.43,414.64,179Z"/><path class="cls-29" d="M463.91,146.3c2.18.56,2.21,3.86-.29,3.6-1.1-1.44,1.34-1.26.94-2.44C464.36,147.08,463.71,146.79,463.91,146.3Z"/><path class="cls-1" d="M125.22,466.29c-.84.35-1,1.29-1.36,2-12.65-5.58-17.16-12.53-22.24-24.89a4.88,4.88,0,0,0-4-3.34c5-11.54,15.07-21.09,22.24-31.6,10.85-13,20.35-27.84,31.92-39.95,25-31,50.47-61.92,69.23-97.21,15.67-25.18,19.38-50.41,16.68-79.51-2.91-13.11,3.07-6.06,9.33-2,6.93,4.8,14,9.45,21,14,1,.64,2.35,1,2.63,2.42,5.91,4.08,12.93,7.38,18.07,12.19-.85,11.61-1.54,23.55-1.77,35.38-.34,5.77,1.06,12-1.64,17.29-20.6,46.33-41.15,91.27-59.78,138.48-6.92-3.18-8.49,15.36-15.86,17.84-12.22,7.66-24.81,14.95-38.53,19.58-10.34,3.51-20.59,7.26-30.87,10.94C134.93,459.89,128.92,461.81,125.22,466.29Z"/><path class="cls-30" d="M270.64,206.26c-10.84-6.91-21.54-14-32-21.48-2-1.47-.59,5.85-1,7.05-2,1.85-79,14.8-59.89,4.91,2.08.6,2.85-1.32,1.48-2.76-1.35-1.78-.91-3.84-.8-5.79.46-4.48,2.66-9.83,6.82-11.8,1.24-.1,2.7.29,3.59-.8a1.05,1.05,0,0,1,1-.4c.1,1.7,2,1.78,2.64.33,3.21-.35,4.18-3.84,2.62-6.37.53-2.66,12.73.77,15.55.5,1.75.28,3.76-.22,5.27.93,21.7-1.18,44.87,1.6,67.08,2.74,2,0,2.38,2.76,4.69,1.2,2.67-1.39,5.81-.25,8.69-.47C287,184.06,278.1,194.66,270.64,206.26Z"/><path class="cls-30" d="M145.82,171.42c8.87,12,24.43,5.28,36.45,4.48.35.65-.09,1.08-.43,1.53a19.36,19.36,0,0,0-4.64,14.23,2.07,2.07,0,0,1-.91,2.09c-1.59,2-2.1,4.78-3.88,6.79-7.91,1.06-16.32-.28-24.34.13C134.61,184.68,128.92,188.21,145.82,171.42Z"/><path class="cls-1" d="M119.1,270.63c-2.26-.43-4.71.23-6.89-.33,14.34.6,2.81-4.06-2.44-7.21-1.63-.93-1.42-3.41-3.17-4-.37-.48.05-.78.28-1.11,3.16-3.8,5.53-8.95,9.66-11.65,7.24-9.67,17.18-19.66,15.46-32.69,2.07.7,3.88,2.41,5.85,3.47,1.06.73,2.91,1.32,3.06,2.74-.41,4.36.57,9-.47,13.18C132.8,245.21,126.09,258.21,119.1,270.63Z"/><path class="cls-12" d="M142.89,270.84c.17-1.85-.95-12,2.85-8.12a2.81,2.81,0,0,0,3.59.78,10.81,10.81,0,0,0,1.95-.91c.63-.51.57-1.92,1.92-1.48a2,2,0,0,1,2,.75c2.87,4.87,13.2,5.33,13.75,9.57C164.88,274.33,147.44,273,142.89,270.84Z"/><path class="cls-17" d="M171.76,200.78c.61-2.1,2.58-3.7,2.91-5.74-.13-1.1,0-1.28,1.06-1.71.84-.36.87-.36.82-1.24-.69-4.51,2.53-18.56,8.71-15.7-5.3,5.1-8.26,12.81-4.6,19.45-.45,3.44-3,.42-4.25,1.95-7.51,12.1,1.94,27.35,6.77,39-1.54,7.73-9.06-15-9.67-16.81C171.58,213.77,170.4,207.19,171.76,200.78Z"/><path class="cls-31" d="M168.53,271.51l.44-.08c1.13,5.25-14.39,2.91-17.77,2.94-2.78-.75-9.11,1-8.31-3.53C151.38,271.84,160.05,273.34,168.53,271.51Z"/><path class="cls-32" d="M146,263.69c-3.85-4.6,2.31-19.59-3.11-21.81-3.29-7.45,4.95-.18,12.07-3.42,1.45,0,.6,4.13-.73,4.19-3.41,3.52,0,16.29-3.05,20.65-1.75-5.52,0-12.3.11-18.18.13-1.51,0-1.72-1.5-1.92-2.43-.55-3.37.72-3.06,3.05,0,5.09,0,10.19,0,15.29C146.68,262.3,146.92,263.2,146,263.69Z"/><path class="cls-33" d="M151.55,263c-.08-6.43.53-12.85.87-19.27-.14-1.63,1.6-1.74,2.86-1.75-.66,6.39-1.32,12.78-2.08,19.16C152.2,261.33,152.29,262.49,151.55,263Z"/><path class="cls-31" d="M142.87,241.88c1.31,0,3,.22,2.87,1.93-.08,6.4-.18,12.82-.25,19.23-.54-.33-.6-1.24-1.4-1.13C143,255.51,143.86,248.47,142.87,241.88Z"/><path class="cls-4" d="M414.64,179c1.7,2.88,5.05,2.68,7.42.75a45.22,45.22,0,0,1,8,4.59c3.92,5.24-.36,15.1.3,21.62-1,.91-2.19,2.84-3.71,2.21-3.7-2.69-7.55-5.16-11.46-7.52a221.62,221.62,0,0,0-19.65-10.5,169.28,169.28,0,0,0-21.78-8.59c-2.71-1.37-2.87,2.34-4.85,3.34-.89-4.5-3.33-8.7-4.24-13.07,4.93-.24,9.85-.79,14.78-.89,1,1.22-4,5.61-4.16,6.22,2.12-2.47,5.23-7.62,9.8-6.67,8.82-.32,18-1.51,26.66.15C409.73,173.82,409.62,179.5,414.64,179Z"/><path class="cls-8" d="M264,318.51c1-4.92,4.23-9.68,6-14.52,1.28-1.36,2.11-8.64,4.36-5.85,4.76,5.25,11.58,8.08,16.87,12.23,1.69,3.12,1.44,7,2.38,10.42.67,5.41,3.08,11.71,2.48,17-11.11-3.59-21.18-10.63-30.67-17.43C264.78,319.85,264,319.5,264,318.51Z"/><path class="cls-6" d="M291.22,310.37a58.15,58.15,0,0,1-18.37-12.89c4.73-10.26,9.1-20.68,13.82-30.94.94,6.73.25,13.78,1.15,20.57C288.23,294.88,291.21,302.77,291.22,310.37Z"/><path class="cls-34" d="M395.51,268.25c1.51.45-.39,5.19-.46,6.62a1.87,1.87,0,0,1-1.94,1.7c-1.61.13-30.05,1.08-22.45-3,4.3-1.61,8.74-2.85,12.67-5.31,1.86-.66,1.8-3.36,3.65-3.7,1.32.33,1.67.94,1.41,2.4-1,3.25,3.9,3.24,5.61,1.75C394.44,268.33,394.86,267.86,395.51,268.25Z"/><path class="cls-35" d="M288.12,224.44c-.15-2.11.29-4.18.29-6.29,10.65,4,21.27,9.93,31.64,14.94C309.54,231.28,298.58,227.43,288.12,224.44Z"/><path class="cls-36" d="M369.31,274.71c5.16,2.24,10.67.28,16,1.25,3.19.64,6.36,0,9.55-.26,0,1.81-.87,3.42-2.92,3.05C389.05,278.36,364.48,280.45,369.31,274.71Z"/><path class="cls-25" d="M426.61,208.16c1.26-.21,2.35-2.48,3.52-1.8.72,3.54-11.1,10.15-13.67,13.65,4.08-3.82,8.46-7.31,12.69-11,.88-1.22,2.07-.07,2.09,1.09A110.59,110.59,0,0,0,436.07,225c.72,1.24,1.38,3.31-.31,4.29-2.67.43-6.74,5.19-8.87,2.88a34.6,34.6,0,0,0-12.9-7.7,1.45,1.45,0,0,0-1.82.35.5.5,0,0,1-.76.08c-.7-1-3.22-1.31-3.08-2.55C414.1,217.24,420.8,213.15,426.61,208.16Z"/><path class="cls-37" d="M436.49,228.46c-2.28-7.41-5.79-14.67-6.68-22.35-.82-7.33,2.62-14.58.21-21.78,9.39,1.26-.64,20.32,3.42,27.29,1.4,5.8,4.1,11.2,5.77,16.9a.82.82,0,0,0,.82.83c1.43.16,2.24,1.57,3.17,2.51,1.21,1.28-1.46,2.42-.08,3.71a122,122,0,0,0,9,11.28c.57.61,1.16,1.55.38,2.23-2.65,1.2-5-4.69-7.16-6-3.25-1.38-2.74-6.73-6.42-7.76C435.09,234.88,438.24,230.78,436.49,228.46Z"/><path class="cls-34" d="M426.85,277.87c-.75-.61.45-1,.9-1.31,4.31-2.24,10.22-4.13,8.13-10.09.4-1,1.1-.63,1.7-.29,1.62,2,6.52,3.89,7.37.38.05-.63-.11-1.37.63-1.76,2.66,1.25,4.07,4.56,5.22,7.17-1.72,3.27-6.38,4.49-9.84,5.22C437,278,430.21,280.67,426.85,277.87Z"/><path class="cls-8" d="M395.51,268.25a5.62,5.62,0,0,1-7.08,1.29c-.79-.49-1.49-1.06-1-2,.67-1.44.69-1.82-.49-3,1.29-3.34,2.53-6.69,3.92-10,3.07,0,5.8,3.06,8.89,3.84.49.2,1,.42,1.09,1-1,2.61-2.73,5-4,7.55A2.11,2.11,0,0,1,395.51,268.25Z"/><path class="cls-8" d="M445.58,264.8a3.69,3.69,0,0,0,.1,1.55c.41,3.71-5.85,3.42-7.52,1.26-.58-.65-1.29-1.81-2.28-1.14-1.27-1.09-6.09-4.91-3.44-6.34,2.49-1.42,3.57-4.74,6-5.85C441.55,256.79,443.09,261.52,445.58,264.8Z"/><path class="cls-31" d="M426.85,277.87A33.66,33.66,0,0,0,450.8,272c4,4.37-12.12,8.31-15.18,8.65C433.82,280.84,423.05,281.3,426.85,277.87Z"/><path class="cls-38" d="M433.59,244.51c1.34,2.49,2.59,5-.06,7.14-2.61,3-6.19,8.43-9.45,3.12-.24-.23-.2-.49.06-.74a35.85,35.85,0,0,0,8.12-8.68C432.51,245,433.22,243.57,433.59,244.51Z"/><path class="cls-39" d="M394,248.5c-.32-1.19.62-2.25,1-3.31.58-1.06,1.74.58,2.45.85,1.48,1.89,10.35,4,9.48,5.27s-2.19,3.41-4,2.46C400,252.28,395.52,251.49,394,248.5Z"/><path class="cls-40" d="M433.59,244.51c-3.47-2.42,7.86-3.9,9.43-4.6a22.9,22.9,0,0,1,2.33,3.13C441.41,243.4,437.53,244.29,433.59,244.51Z"/><path class="cls-36" d="M403.47,255.4c-1.23,5.32-7.62-.16-10.43-1.48a1.21,1.21,0,0,1-.69-1.17c-1.08-1.52,1.16-3.11,2.42-1.89C397.29,253,401.41,253.13,403.47,255.4Z"/><path class="cls-41" d="M402.87,255.11c-2-.69-12.84-3.9-8.88-6.61a49.28,49.28,0,0,0,10.66,5.23c.31.8-.75,1.17-1.18,1.67h0C403.34,255.17,403.05,255.24,402.87,255.11Z"/><path class="cls-42" d="M427.24,257.11a39.43,39.43,0,0,0,8-8.93h0a3,3,0,0,1,.53,3.82c-2,2.15-5.79,9.25-8.87,5.34A1.24,1.24,0,0,0,427.24,257.11Z"/><path class="cls-43" d="M392.35,252.75a52,52,0,0,0,9.75,4.88,4.73,4.73,0,0,1-1.22,1.77,48.53,48.53,0,0,1-10-4.87C391.28,253.86,391.45,252.86,392.35,252.75Z"/><path class="cls-44" d="M428.52,258.57a28.42,28.42,0,0,0,7.64-8.3c4,3-2.36,7-4.46,9.28C430.72,260.78,428.89,260,428.52,258.57Z"/><path class="cls-43" d="M430,260.16a35.08,35.08,0,0,0,7.3-7.65c3.72,2-4.08,7.51-5.77,9.16A4.51,4.51,0,0,1,430,260.16Z"/><path class="cls-8" d="M331.09,468.92c-1.41-40,.52-79.95,3.14-119.84.44-2.06,11.62-.88,14.42-2,1.91-.23,2-.19,1.85,1.69-1.34,17.21-3,34.39-4.11,51.62-.75,17.14-1.16,34.28-1.67,51.43C345,467,345.3,464.63,331.09,468.92Z"/><path class="cls-8" d="M315.53,429.54c-.46-25.62,1.24-51.2.5-76.83.32-5.6-2-6,4.79-5.09,3.66.43,7.33.51,11,.71,1,0,.49,1.66.58,2.34-1.3,17.8-2,35.58-3.18,53.36-.61,21.2-.36,42.46-.06,63.67,0,1.48-.12,1.77-1.58,2-3.77.77-10.53,2-11.52-3.11Q315.82,448.08,315.53,429.54Z"/><path class="cls-9" d="M264,318.51c10.09,7.45,20.7,14.39,32.42,19,1.19,4,1.4,8.24,2.25,12.35,0,.44.35,1.44-.38,1.38-14.41-4.67-27.21-12.7-39.46-21.43A51.36,51.36,0,0,1,264,318.51Z"/><path class="cls-8" d="M119.27,362.33c-20.18,30.45-43.4,59.1-60.79,91.28-3.23,3.37-9-1.26-10.95-4.39-1.69-3,2.3-6.31,3.21-9.22,17-27.14,36-53,53.38-79.94.71-1.34,1.9-2.57,3.5-1.73C111.49,359.76,115.56,360.6,119.27,362.33Z"/><path class="cls-8" d="M135.86,365.94c-15.44,21.71-31.62,43.05-47.33,64.63A123,123,0,0,0,78.46,447c-2,2.67-2.24,8.09-6.41,7.76-1.81-.29-13.87,1.72-11.49-1.31,17.32-31.2,39.65-59.29,59.42-88.94C121.6,360.39,131.89,365.91,135.86,365.94Z"/><path class="cls-8" d="M151.74,368.55c-17.68,23.72-37.68,46.11-53.58,71-15.29,2.89-7.44,13.74-20.94,14.46,15.31-31.19,40-57.1,59.45-85.8C138.75,364.21,147.74,368.69,151.74,368.55Z"/><path class="cls-9" d="M250.19,350.09c1.39-3.81,2.65-7.86,4.87-11.24a160.83,160.83,0,0,0,43.7,23.67c1,.29,1.76.72,1.75,1.9.08,3.8.78,7.66.61,11.42C282.83,370.52,266,360.72,250.19,350.09Z"/><path class="cls-45" d="M135.41,183.84c0,1,1,2.11.33,3.1C135.13,186.28,134.11,184.11,135.41,183.84Z"/><path class="cls-46" d="M100.27,261.64c2.75-5.38,6.68-10.1,9.91-15.2.87-1.52,1.54-1.23,3-.69-3,5.47-7.74,10-10.31,15.79A5.63,5.63,0,0,1,100.27,261.64Z"/><path class="cls-47" d="M116.54,246.31c-4.38,4.72-7.83,12.17-13.17,15.09,2.49-5.11,6.46-9.35,9.46-14.18C113.62,245.69,115,245.82,116.54,246.31Z"/><path class="cls-15" d="M98.21,259.36c0,.58-.43,0,0,0Z"/><path class="cls-48" d="M381.63,170.73c-2.67,2.73-5.1,5.74-7.95,8.26,1.23-2.84,4.25-5.19,5.73-8.06A3.6,3.6,0,0,1,381.63,170.73Z"/><path class="cls-3" d="M168.38,128.28a1.14,1.14,0,0,1,.86.22A.88.88,0,0,1,168.38,128.28Z"/><path class="cls-4" d="M432.39,203.57c-.64-5.9,2.12-11.82.65-17.79a71.15,71.15,0,0,1,7.68,3.15C438.3,193.94,436.35,199.59,432.39,203.57Z"/><path class="cls-49" d="M146,263.69c.09-6.44,0-12.89.13-19.34-.15-1.58,1.12-2,2.46-1.81a2.25,2.25,0,0,1,.75,1.91c-.7,5.9-.53,11.83-.56,17.75C149.38,264,146.93,265.61,146,263.69Z"/><path class="cls-13" d="M149.47,242.76c.7-.29,2.46-.66,2.6.34-.46,6.73-1.08,13.44-.91,20.2-1,.77-2.92,1.33-2.53-.56C148.74,256.09,148,249.29,149.47,242.76Z"/><path class="cls-50" d="M149.47,242.76c-.45,7.07-1.09,14.35-.36,21.36-.26.17-.54.07-.81.08-.43-7.22.58-14.5.27-21.66Z"/><path class="cls-5" d="M168.53,271.51c-.07.14-.18.15-.31.09C168.3,271.47,168.39,271.42,168.53,271.51Z"/><path class="cls-50" d="M147.23,242.54a.78.78,0,0,1-.6.23A.59.59,0,0,1,147.23,242.54Z"/><path class="cls-7" d="M296,337.42s0,0,0-.06Z"/><path class="cls-51" d="M429.89,206.35a4.49,4.49,0,0,1,.27,2.32q-7.49,6.3-14.88,12.7C416.13,217.75,430.45,209.85,429.89,206.35Z"/><path class="cls-6" d="M433.11,186.53c.05.08.15.15.07.24C433.12,186.69,433,186.63,433.11,186.53Z"/><path class="cls-6" d="M427.24,257.11l-.31.21A.31.31,0,0,1,427.24,257.11Z"/><path class="cls-6" d="M435.26,248.18l-.22.3A.28.28,0,0,1,435.26,248.18Z"/><path class="cls-6" d="M402.08,257.62a.61.61,0,0,1-.57-.22A.64.64,0,0,1,402.08,257.62Z"/><path class="cls-6" d="M402.87,255.11a.58.58,0,0,1,.61.29A1,1,0,0,1,402.87,255.11Z"/></svg>