<svg id="Layer_1" data-name="Layer 1" xmlns="http://www.w3.org/2000/svg" viewBox="0 0 207.99 689.33"><defs><style>.cls-1{fill:#f69951;}.cls-2{fill:#f8af59;}.cls-3{fill:#f6a555;}.cls-4{fill:#fcfcfb;}.cls-5{fill:#65acc2;}.cls-6{fill:#f68159;}.cls-7{fill:#5292af;}.cls-8{fill:#fbca67;}.cls-9{fill:#fbb961;}.cls-10{fill:#454375;}.cls-11{fill:#5291ad;}.cls-12{fill:#f4975b;}.cls-13{fill:#5395b1;}.cls-14{fill:#5fa6bc;}.cls-15{fill:#fcd070;}.cls-16{fill:#5295ad;}.cls-17{fill:#f67259;}.cls-18{fill:#f6cc75;}.cls-19{fill:#5192b0;}.cls-20{fill:#f2f2e5;}.cls-21{fill:#f9fbf8;}.cls-22{fill:#f9bb5f;}.cls-23{fill:#fbe7bb;}.cls-24{fill:#fef2d2;}.cls-25{fill:#fae7ba;}.cls-26{fill:#f3d898;}.cls-27{fill:#e5c88b;}.cls-28{fill:#f0a368;}.cls-29{fill:#f7c76c;}.cls-30{fill:#f5e6b6;}.cls-31{fill:#bfdadf;}.cls-32{fill:#74b0c6;}.cls-33{fill:#fad77a;}.cls-34{fill:#f5dda8;}.cls-35{fill:#efe5d4;}.cls-36{fill:#d8e9d9;}.cls-37{fill:#dfeeea;}.cls-38{fill:#edd08f;}.cls-39{fill:#f6e4a9;}.cls-40{fill:#d9b568;}.cls-41{fill:#f8f1ce;}.cls-42{fill:#e0c38f;}.cls-43{fill:#f8ce74;}.cls-44{fill:#f4c76c;}.cls-45{fill:#f9b95e;}.cls-46{fill:#5a8fa6;}.cls-47{fill:#f77559;}.cls-48{fill:#474279;}.cls-49{fill:#f8735a;}.cls-50{fill:#f8fbf9;}.cls-51{fill:#faf0e2;}.cls-52{fill:#6f949a;}.cls-53{fill:#f4f7f4;}.cls-54{fill:#fbedda;}.cls-55{fill:#f4f0e7;}.cls-56{fill:#f6e0c4;}.cls-57{fill:#e3d8c0;}.cls-58{fill:#93927e;}.cls-59{fill:#97a88f;}.cls-60{fill:#d1d7c4;}.cls-61{fill:#93bac5;}.cls-62{fill:#e7e6d5;}.cls-63{fill:#8c9a9b;}.cls-64{fill:#e3dabe;}.cls-65{fill:#fccd6e;}.cls-66{fill:#fccd6d;}.cls-67{fill:#5494b1;}.cls-68{fill:#484678;}.cls-69{fill:#facd6f;}.cls-70{fill:#5d9eba;}.cls-71{fill:#8c755b;}.cls-72{fill:#f7da93;}.cls-73{fill:#4b5282;}.cls-74{fill:#4f90af;}.cls-75{fill:#5fa8ba;}.cls-76{fill:#f5bf67;}.cls-77{fill:#f8ca6f;}.cls-78{fill:#f7c568;}.cls-79{fill:#ebc67f;}.cls-80{fill:#f8ce70;}.cls-81{fill:#f4b761;}.cls-82{fill:#ddbf78;}.cls-83{fill:#f9cc6e;}.cls-84{fill:#f7ce6e;}.cls-85{fill:#f3b962;}.cls-86{fill:#f3bc61;}.cls-87{fill:#867d6c;}.cls-88{fill:#f7cf72;}.cls-89{fill:#f8ca75;}.cls-90{fill:#837b65;}.cls-91{fill:#8a7f69;}.cls-92{fill:#f5d286;}.cls-93{fill:#f7cd77;}.cls-94{fill:#f77660;}.cls-95{fill:#6d6c5c;}.cls-96{fill:#f5d073;}.cls-97{fill:#797a6c;}.cls-98{fill:#edb766;}.cls-99{fill:#edb566;}.cls-100{fill:#f3cf70;}.cls-101{fill:#f0b563;}.cls-102{fill:#49648f;}.cls-103{fill:#655f5e;}.cls-104{fill:#d8bc88;}.cls-105{fill:#e5cd92;}.cls-106{fill:#e9bc6b;}.cls-107{fill:#d7e0e5;}.cls-108{fill:#747367;}.cls-109{fill:#cee0e1;}.cls-110{fill:#eacb79;}.cls-111{fill:#699eba;}.cls-112{fill:#dabb85;}.cls-113{fill:#edca82;}.cls-114{fill:#ebebd4;}.cls-115{fill:#c3dbdf;}.cls-116{fill:#f3c77d;}.cls-117{fill:#4d5761;}.cls-118{fill:#e2efe3;}.cls-119{fill:#f6e8c6;}.cls-120{fill:#f1ca72;}.cls-121{fill:#ebd6a7;}.cls-122{fill:#d6b880;}.cls-123{fill:#dbd1bb;}.cls-124{fill:#f7e5c3;}.cls-125{fill:#a38369;}.cls-126{fill:#f8735c;}.cls-127{fill:#7c6138;}.cls-128{fill:#a58043;}.cls-129{fill:#f1c469;}.cls-130{fill:#f7c46d;}.cls-131{fill:#907f60;}.cls-132{fill:#cdb582;}.cls-133{fill:#e5cfa6;}.cls-134{fill:#fbd170;}.cls-135{fill:#fbd375;}.cls-136{fill:#f3edc7;}.cls-137{fill:#f2e1a6;}.cls-138{fill:#e7ede0;}.cls-139{fill:#f0f3e8;}.cls-140{fill:#495584;}.cls-141{fill:#6f91b1;}.cls-142{fill:#f8775d;}.cls-143{fill:#f9af55;}.cls-144{fill:#f5725c;}.cls-145{fill:#5598af;}.cls-146{fill:#fbd274;}.cls-147{fill:#464977;}.cls-148{fill:#7cb0c2;}.cls-149{fill:#62abcb;}.cls-150{fill:#e0e9cf;}.cls-151{fill:#d3c48c;}.cls-152{fill:#c9847b;}.cls-153{fill:#5ca8c4;}.cls-154{fill:#cfe7ea;}.cls-155{fill:#e6dacc;}.cls-156{fill:#f0cb7a;}.cls-157{fill:#e5e4de;}.cls-158{fill:#5d6777;}.cls-159{fill:#5593ad;}.cls-160{fill:#868982;}.cls-161{fill:#c4aa75;}.cls-162{fill:#dac8a1;}.cls-163{fill:#f67559;}.cls-164{fill:#5ba8be;}.cls-165{fill:#f6e9ba;}.cls-166{fill:#f7f3de;}.cls-167{fill:#e37059;}.cls-168{fill:#e97d66;}.cls-169{fill:#6094a8;}.cls-170{fill:#55526a;}.cls-171{fill:#506d87;}.cls-172{fill:#c95b59;}.cls-173{fill:#cdc08f;}.cls-174{fill:#e2d49b;}.cls-175{fill:#e0e0c6;}.cls-176{fill:#75bcc8;}.cls-177{fill:#e7edd4;}.cls-178{fill:#f9735b;}.cls-179{fill:#f59b56;}.cls-180{fill:#8a5953;}.cls-181{fill:#80bdd3;}.cls-182{fill:#f0d582;}.cls-183{fill:#4a7c9c;}.cls-184{fill:#f4b962;}.cls-185{fill:#f4bc66;}.cls-186{fill:#f4b961;}.cls-187{fill:#f2bc63;}.cls-188{fill:#f5ba60;}.cls-189{fill:#f7c360;}.cls-190{fill:#f2c269;}.cls-191{fill:#6e6757;}.cls-192{fill:#f1be66;}.cls-193{fill:#c0a583;}.cls-194{fill:#efd6a5;}.cls-195{fill:#f9e8bc;}.cls-196{fill:#f5e9c1;}.cls-197{fill:#f2ddb8;}.cls-198{fill:#8b6b4c;}.cls-199{fill:#60a7bc;}.cls-200{fill:#dcc59f;}.cls-201{fill:#cec5a0;}.cls-202{fill:#f7715b;}.cls-203{fill:#5e9cae;}.cls-204{fill:#eddfbb;}.cls-205{fill:#f6c369;}.cls-206{fill:#f9c86d;}.cls-207{fill:#f6c96c;}.cls-208{fill:#e9c072;}.cls-209{fill:#f2d988;}.cls-210{fill:#f1c269;}.cls-211{fill:#efe0af;}.cls-212{fill:#6f5f53;}.cls-213{fill:#ac9879;}.cls-214{fill:#f1dab1;}.cls-215{fill:#f3e2ae;}.cls-216{fill:#9c8b7b;}.cls-217{fill:#f4c66c;}.cls-218{fill:#f7ca6e;}.cls-219{fill:#f4c467;}.cls-220{fill:#dbc692;}.cls-221{fill:#f5ca6f;}.cls-222{fill:#efc072;}.cls-223{fill:#ebc273;}.cls-224{fill:#f1e2b1;}.cls-225{fill:#efddb1;}.cls-226{fill:#f0dcaa;}.cls-227{fill:#f0e3b0;}.cls-228{fill:#f0e3c7;}.cls-229{fill:#ac9671;}.cls-230{fill:#f0d7a0;}.cls-231{fill:#a69776;}.cls-232{fill:#f8c76b;}.cls-233{fill:#f8c96d;}.cls-234{fill:#a09377;}.cls-235{fill:#f2ca78;}.cls-236{fill:#f3c169;}.cls-237{fill:#f4bc63;}.cls-238{fill:#f1bf6c;}.cls-239{fill:#f2be6c;}.cls-240{fill:#eedab0;}.cls-241{fill:#b6a481;}.cls-242{fill:#9d8167;}.cls-243{fill:#f2deb3;}.cls-244{fill:#9d7e5a;}.cls-245{fill:#e6d7a3;}.cls-246{fill:#9c8f72;}.cls-247{fill:#ecc272;}.cls-248{fill:#f1c26c;}.cls-249{fill:#f0c26d;}.cls-250{fill:#f1dfb7;}.cls-251{fill:#f0e1bc;}.cls-252{fill:#f2e1b9;}.cls-253{fill:#f9e8be;}.cls-254{fill:#f8c56a;}.cls-255{fill:#f6c160;}.cls-256{fill:#eec26d;}.cls-257{fill:#d3b376;}.cls-258{fill:#f1e2ca;}.cls-259{fill:#eed69a;}.cls-260{fill:#ab8c6c;}.cls-261{fill:#edc67a;}.cls-262{fill:#f8f6e7;}.cls-263{fill:#ecb466;}.cls-264{fill:#f7e89e;}.cls-265{fill:#e46d5e;}.cls-266{fill:#f4c86b;}.cls-267{fill:#eec36b;}.cls-268{fill:#f2ca6e;}.cls-269{fill:#ebdfc0;}.cls-270{fill:#f3e0ad;}.cls-271{fill:#589cb2;}.cls-272{fill:#5393af;}.cls-273{fill:#5b9db8;}.cls-274{fill:#7f524e;}.cls-275{fill:#f5e6ba;}.cls-276{fill:#e4be7d;}.cls-277{fill:#f78a55;}.cls-278{fill:#fcaf4d;}.cls-279{fill:#5b9baf;}.cls-280{fill:#f39651;}.cls-281{fill:#d1e6e3;}.cls-282{fill:#8d5663;}.cls-283{fill:#8ba7a6;}.cls-284{fill:#e9ce87;}.cls-285{fill:#f3cc9d;}.cls-286{fill:#845846;}.cls-287{fill:#f8f1c3;}.cls-288{fill:#d5e7d6;}.cls-289{fill:#eed485;}.cls-290{fill:#89b9b4;}.cls-291{fill:#f1efed;}.cls-292{fill:#b87b5c;}.cls-293{fill:#b3bdb3;}.cls-294{fill:#c2a87f;}.cls-295{fill:#eebe6a;}.cls-296{fill:#7c4b32;}.cls-297{fill:#be6856;}.cls-298{fill:#f5c46e;}.cls-299{fill:#deb977;}.cls-300{fill:#f4daa8;}.cls-301{fill:#fae39d;}.cls-302{fill:#f2e7b5;}</style></defs><path class="cls-1" d="M.14,64.15V19.08c1-1.4.48-3.07.77-4.6C2.68,5.06,7.05,1.32,16.7,1.3c21,0,42,0,63,0,36.46-.05,72.92.07,109.38,0,9.81,0,16,5,17.42,14.66,1.82,12.74.52,25.6.72,38.4.06,3.46,1,7.06-.78,10.42-2.1,1.53-4.53,1.13-6.85,1.14q-95.83,0-191.66,0C5.24,65.91,2.36,66.4.14,64.15Z"/><path class="cls-2" d="M.14,67.71V66.52c2.05-1.65,4.5-1.16,6.81-1.16q96.68,0,193.34,0c2.13,0,4.35-.42,6.34.78,1.2,1.8.64,3.84.64,5.76q.06,29.26,0,58.54a3.14,3.14,0,0,1-1.58,3c-8.47,3.61-16.58,9.11-26.53,5.51-2.26-.48-4.25-1.92-6.55-2,6.4,2.24,6.8,2.91,3.68,7.71,4.44-3.36,8.39-2.94,12.65-1.77,3.38.93,6.53,1.08,8.31-3.68,1.39-3.7,5-5.4,9-2.43.89,9.84.44,19.69.29,29.53-.1,6.87-9,11.37-15.66,7.69-8.87-4.87-19.33-7.27-25.81-16.07-.57-.78-1.81-.61-2.79-.64-2.79.11-5.16-1.47-7.8-2-7.64-3.9-14.65-.13-20.25,6.68-2.34,2.84-3.72,6.43-6.67,8.82-9.39,9.72-21,16.8-31.05,25.69-2.93,2.58-6.6,5.87-11.53,4.13-2.76-1.89-1.67-4.28-.36-6.2,4.89-7.15,8.32-15.64,14.2-21.62s8.87-14.47,16.75-18.44c2-1,1.83-2.26.24-3.63-1.88-1.61-4.47-2.8-3.94-6,1.51-1.76.08-1.86-1.09-1.57-3.6.87-6.5,3.05-9.28,5.41-2,1.23-2.7,3.36-3.4,5.36-2.3,6.62-6.28,11.67-11.54,16.47-10.09,9.21-20.19,18.47-29.74,28.29-1.68,1.73-3.13,4.26-6.29,3.47a185,185,0,0,1-11.75-17.94c-.6-3,1.1-6.25-.62-9.21-5-1.33-8.82,3.73-13.78,2.44A119.62,119.62,0,0,0,10,186c-6.47,2-6.47,2-9.86-4.4v-64a10.84,10.84,0,0,0,1.42-1.87c5.94-10.54,16-13.43,26.17-7.1,3.37,2.09,6.56,3.36,10.46,2.58a4.72,4.72,0,0,1,2.91.06c7.15,3.66,14.09.28,21.07-.62,2.45-.32,4.74-.51,6.69,1.12,3.53,3,8.32,3.3,12,6,1.77,1.3,4.14.7,6.19-.33,3.18-1.6,6.74-2,10.1-3,2.68-.87,5.49-.59,7.17,2.34a8.66,8.66,0,0,1-.18,2c1.75,1.31,4.31,2,4,4.88a3.2,3.2,0,0,1,.06.56c8.61-2.65,17.8,1.59,26.57-3.61,7.89-4.69,16.72-8.25,26.72-7.19,3.13.33,8.14-.06,8.59-5.62a8.94,8.94,0,0,1,1.37-2.52c3-2.24,5.94-5.26,9.74-1.22.47,2.66-2,4.06-2.89,6.54,6.85,2.08,14,1.76,20.71,4,2.4.8,3.69-1,3.75-3.32.29-12.23.38-24.46-.05-36.68-.09-2.57-1.75-3.82-4.24-4s-4.71-.15-7.06-.15q-90.13,0-180.26-.05C7.37,70.24,3.18,71.29.14,67.71Z"/><path class="cls-3" d="M104,117.31c-3-.71-5.61-3-8.84.89-1.46,1.73-5.92.41-9.08,2.35s-6.85.5-9.49-2.57a4.52,4.52,0,0,0-4.29-1.44c-.93.13-2.51.45-2.76,0-5.5-8.93-12.18-.66-18.22-1.21-1.29-.12-3.4,1.62-4.4.69-4.44-4.14-9.61-1.88-14.47-2.15a7.52,7.52,0,0,1-4.2-1.91c-8.42-6.46-16.59-5.6-23.35,2.35-1.28,1.52-2.64,3-4.79,3.16V67.71H197.55c8,0,8,0,8,8.23,0,11.84,0,23.68,0,35.53,0,7.38-1,7.85-7.87,5.77-7.07-2.16-14.2-5.12-21.77-1.71-1.33.6-2.74,0-2.44-1.35.52-2.46-1.2-6.08,2.52-7.08,2.33-.63,3.92-1.59,4.78-3.79,1.26-5.52,7-5.06,10.29-7.94,1.32-.92,2.7-1.83,0-2.76-8.28-.35-15.48,3.24-22.86,6.11-2.32.9-4.36,2.7-7.12,2.12-3.45-1.38-3.53-4.75-4.49-7.63-.46-1.37-.3-3.39-2.48-3.35-1.72,0-2.7,1.31-3.4,2.78-1.18,2.45-1.66,5.15-2.62,7.69-4.29,7.55-6.21,8.51-16.36,6.82a83.46,83.46,0,0,0-11.58-1c2.6,0,4.85,1.26,7.33,1.34,5.08,2.7,5.48,5.51.66,7.91s-9.15,6-14.84,6.2C110.07,120.42,105.76,121.6,104,117.31Z"/><path class="cls-4" d="M206.33,132.11l.18-65.31a2.37,2.37,0,0,1,.12-2.79q0-19.25,0-38.48c0-6.55-1.72-12.42-6.16-17.4a17.37,17.37,0,0,0-13.92-6.24C131.78,2.05,77,2,22.2,2,11,2,5.32,6,1.32,16.4,1,17.31.53,18.18.14,19.08c0-5.34.17-10.69-.08-16C-.06.5.55,0,3.09,0,15.68.19,28.27.1,40.86.1q81.45,0,162.9-.1c3.52,0,4.23.71,4.23,4.25q-.17,340.41,0,680.83c0,3.54-.71,4.26-4.23,4.25q-99.75-.2-199.49,0c-3.52,0-4.49-.68-4.23-4.26.37-5.31.1-10.66.1-16,3.07-.31,3.91,2.22,5.05,4.19,4.82,8.31,12.19,12.12,21.53,12.14q76.14.17,152.28,0c3.93,0,7.76-1.1,11.68-1.18a12.83,12.83,0,0,0,3.49-1.94c8.08-6.72,10.42-15.55,10.12-25.75a257.15,257.15,0,0,1,.28-28.85,20.32,20.32,0,0,1,.14-6,16.37,16.37,0,0,0-.07-3.05,49.55,49.55,0,0,1,0-14.49,27.22,27.22,0,0,0,.14-3.13c.14-6.27.19-12.55,0-18.83,0-.69,0-1.39,0-2.08-.23-1.71-.1-3.45-.45-5.15-.3-5.2,1.11-10.34.6-15.55v-2.08c.51-4.65-1.41-8.92-2.11-13.38-.12-15,.58-30,1.77-44.9a18.78,18.78,0,0,0,.08-3.18,34.29,34.29,0,0,1,0-11.39,16,16,0,0,0,0-3,38.23,38.23,0,0,1,.1-12.85c0-.64,0-1.29,0-1.93a20.65,20.65,0,0,0-.43-2.82c-1-3.05-.47-6.19-.59-9.29.12-3.66-.2-7.55.83-10.91s-1.28-3-2.51-4.09c-1.4-6.67-.54-13.32.55-19.85,2.94-17.67,1-35.43,1.39-53.14.07-3.26-1.73-4.59-5-3.8-1.91.45-3.83.87-5.76,1.21-4.66-.41-9,1.06-13.34,2.43-8.18,1.34-16.26,3.28-24.46,4.55a14.78,14.78,0,0,0-4.65.92q-33.14,7.47-66.41,14.2c-2.54.32-5.16.28-7.42,1.77-22.19,5.39-44.47,10.4-66.78,15.24-3.23.7-7,2.06-10-.94v-2.37c4.82-7.31,12.34-10.7,20-13.93,5.16-.31,9.86-2.43,14.76-3.77,5.84-1.63,11.72-3.08,17.67-4.22,3.5-2.28,7.61-1.72,11.42-2.52a17,17,0,0,0,1.73-.33,45.38,45.38,0,0,1,13.56-3.61,14,14,0,0,0,3.32-.83c4.27-1.76,8.89-1.86,13.3-3a10.68,10.68,0,0,1,1.65-.47,73.83,73.83,0,0,1,14.34-3.53c.58,0,1.17-.1,1.75-.18,5.37-1.76,10.75-3.49,16.43-4a20.68,20.68,0,0,0,3.46-.73c5.29-2.36,11-2.87,16.6-4.06.89-.13,1.77-.38,2.66-.54,6.53-1.59,12.88-3.93,19.62-4.57q8.44-2.08,16.95-3.8c1.18-.24,2.26-.8,3.42-1.08,8.46-1.2,13.31-5.23,11.66-14.64-.22-1.26.45-2.66.37-4-.05-.65-.11-1.28-.19-1.92a70.83,70.83,0,0,1,.17-18.4,15.72,15.72,0,0,0-.26-3c-.56-2.93-.22-5.88-.17-8.83a26.23,26.23,0,0,1-.33-4c.38-7.12-.22-14.27.8-21.37,0-.68-.08-1.37-.16-2.06a47,47,0,0,1,.15-14.6,17.67,17.67,0,0,0-.41-4.17c-.66-5.27,0-10.52.37-15.76-.06-.69-.15-1.38-.27-2.06a60.87,60.87,0,0,1,.34-16.29c0-.91,0-1.82,0-2.72-.63-2-.08-4.2-1.23-6.39-3.9,1.9-6.84,5.15-10.74,6.81-.67.43-1.28.93-1.91,1.42a99.72,99.72,0,0,1-17,11.88,17.92,17.92,0,0,0-2,1.33,189.9,189.9,0,0,1-17.87,13c-.69.43-1.45.72-2.13,1.18a177.61,177.61,0,0,1-19.86,13.95q-9.13,6.21-18,12.78l-1.4.77c-3.57,2.6-7.5,4.7-10.74,7.76a35.6,35.6,0,0,1-3.75,2.74,19.57,19.57,0,0,0-2,1.27c-4.1,3.56-8.87,6.12-13.35,9.09-1.33.4-2.12,1.54-3.18,2.31-3.93,2.83-7.72,5.89-12.33,7.61-1.45.31-2.28,1.6-3.5,2.28-2.26,1.25-4.5,2.81-6.9.28a14,14,0,0,1-.59-10.85c1-2.16,3.37-2.75,4.78-4.42a88,88,0,0,1,7.61-5.2c3.39-2.76,7.31-4.66,11.07-6.83,5.75-6.06,13.66-9.22,19.7-14.88,26.71-20.51,53.88-40.39,81.1-60.19,7.31-5.32,13.86-11.64,21.66-16.29a3.65,3.65,0,0,0,2-2.75c1.89-14.66,2.74-29.35,1.34-44.11A3.33,3.33,0,0,1,206.33,132.11Z"/><path class="cls-5" d="M192.2,685.47c-3.56,2-7.47,2.27-11.41,2.27q-77.52,0-155,0c-13.21,0-21.13-6.88-25.62-18.71V654.84c2.47-3.07,6-2.57,9.25-2.58,22-.09,44,0,65.92,0,33.75,0,67.49.07,101.22-.07,2.51.25,3.83,2,4.45,4.13,2.55,8.73,6.88,16.65,10.78,24.77C192.41,682.41,193.29,683.87,192.2,685.47Z"/><path class="cls-6" d="M178.16,653.59c-3.21,1.25-6.57,1-9.91,1l-161.64,0c-2.16,0-4.32.15-6.47.23V632.3a7.4,7.4,0,0,1,5.13-2.47c16.83-1.59,33.65-.28,50.46.31,11.72.41,23.46,1.26,35.17.55,6.88-.41,13.69.88,20.53.21,17.16-1.66,34.37,1,51.53-.7,3.1-.31,6.22.59,9.21,1.61,2.4,1.22,3.08,3.65,4.09,5.86C177.15,642.94,180.54,647.92,178.16,653.59Z"/><path class="cls-7" d="M.14,550.46v-34.4c1.49-1.56,3.42-1.75,5.42-1.75,31.33,0,62.67-.1,94,0a8.35,8.35,0,0,1,2.88.5c3.57,2.08,3.68,5.65,4.15,9.2.77,5.84,1.42,11.68,2.27,17.51a23.42,23.42,0,0,1,0,2.37c-.39,8.05-.56,8.28-8.48,8.29q-46.23,0-92.45,0C5.23,552.21,2.36,552.71.14,550.46Z"/><path class="cls-8" d="M.14,593.16v-13c1.85-1.94,4.27-1.76,6.61-1.76q40.1,0,80.16,0c10.19,1.37,20.45,1.27,30.7,1.2a22,22,0,0,1,3.24.21c3.25,1,6.59,1,9.94,1q32.15,0,64.3,0c9.93,0,15.07,8.49,10.57,17.34-1.14,2.23-3.23,2.57-5.48,2.79-9.78,1-19.54.63-29.34.06-10.3-.61-20.63.84-31,0-2.72-.22-5.41,0-8.07-1.21s-5.84-1.48-8,0c-4.46,3.1-8.85,2.15-13.55,1.44C102.8,600,95.44,602.52,88,602c-5.46-.37-10.94.49-16.44-.7a9.83,9.83,0,0,1-6.89-4.84c-3.1-1.57-6.43-1.54-9.77-1.54-15.65,0-31.31,0-47,0C5.2,594.91,2.33,595.45.14,593.16Z"/><path class="cls-9" d="M206.5,604.06l.06,15c-1.75,2.09-4.19,1.92-6.53,1.92q-96.65,0-193.27,0c-2.35,0-4.77.16-6.62-1.76V603.83c2-2.08,4.68-1.76,7.21-1.76q96,0,192.06,0C201.93,602.08,204.6,601.72,206.5,604.06Z"/><path class="cls-10" d="M.14,345.26V306.12c2.45-11.48,11.21-14.5,21.15-16,11.06-.9,21.22,2.85,31.44,6.23a5.83,5.83,0,0,1,4,4.75,10.16,10.16,0,0,1,.15,2.06c-.69,9.06-1.31,18.12.11,27.17.14,1.47-.5,2.82-.65,4.25a31.39,31.39,0,0,1-.46,3.21,54.85,54.85,0,0,0-.81,14.06c.18,4.59-1.63,7.08-6.26,7.33-8.74,1.46-17.32-1.09-26-1.13-8.57-1.11-9.17-1.95-8.11-10.83.2-1.68.69-3.46-.28-5-1.91,1.39-2.28,3.79-3.79,5.37-1.64,1.3-3.2,2.78-5.55,2.47C2.27,349.69,1.34,347.33.14,345.26Z"/><path class="cls-11" d="M.14,461.5v-5.93c1.42-2.74.17-6.62,3.61-8.48.63-.47.11.39.5-.25,4.78-7.9,11.45-14.08,18.11-20.22a13.7,13.7,0,0,0-.72-3.1c-1.75-7.89-.4-12.59,4.46-15.61,4.59-2.84,11.42-2,16.8,2,3.57,3.64,3.61,8,2,12.36-1,2.73-.39,4.43,2.06,5.67,1.76,2,4.18,3,6.4,4.31,8.81,7.55,13.21,17,12.49,28.77-1.88,2.87-4.86,2.25-7.5,2.17-15.27-.45-30.56.92-45.84-.71C8.42,462.08,4.07,464.59.14,461.5Z"/><path class="cls-12" d="M172.49,633.47.14,632.3v-9.49c2.2-2.31,5.07-1.78,7.76-1.75,19.41.21,38.84.31,58.24.2,26.28-.16,52.56,0,78.84-.2,7.43-.06,14.9.59,22.31-.09,5.84-.54,10.81,3,16.5,2.86,1.32,0,2.33,1.35,3,2.61a4,4,0,0,1,.32,2C183,632.38,177.68,632.71,172.49,633.47Z"/><path class="cls-13" d="M.14,513.69V498.27c1.49-1.57,3.42-1.76,5.41-1.76,34.25.08,68.49-.27,102.73.18,3.7,1.25,4.4,3.61,2,6.55-2.7,3.27-4.5,7.15-7.32,10.33-1.78,1.7-4,1.28-6.14,1.28q-45.24,0-90.47,0C4.21,514.86,2,515.23.14,513.69Z"/><path class="cls-14" d="M.14,567.06V551.64c1.63-1,3.45-.57,5.18-.57q48.63,0,97.26,0c2.69,0,5.65-.62,7.15,2.64,1.15,5.36-.4,9-5.66,11.23a49.6,49.6,0,0,1-12.24,3.88c-1.09,0-2.18,0-3.27,0q-40,0-80,0C5.63,568.81,2.55,569.47.14,567.06Z"/><path class="cls-15" d="M.14,402.19C23.5,398.33,46.32,392,69.45,387.05c2.48-.53,5-1,7.47-1.43,3.66-.05,5.68,1.69,5.2,5.42-.74,5.91,2.14,12.24-2,17.77-4.1,2-8.48.92-12.74,1-6.66.19-13.33,0-20,0A17.8,17.8,0,0,1,40,408.62c-11.2-4.89-18.64.3-18.55,12.76.38,2.36.5,4.57-1.58,6.41C16.26,431,4.62,432,.14,429.47Z"/><path class="cls-16" d="M.14,481.66V468.61c1.65-2,3.88-2.38,6.35-2.38q38.88,0,77.76,0c1.76,0,3.55-.05,5.09,1.07,3.45,7-.21,14.53-7.43,14.86-3.24.15-6,1.31-9,2.3-16.28,1.09-32.48-1.05-48.74-1-6.6,0-13.18,2.13-19.83,0C2.85,483,1.3,482.86.14,481.66Z"/><path class="cls-17" d="M21.34,356.18l27.4,1.06a6.22,6.22,0,0,1,2.1,1.6c2.88,9.25-2.46,14.26-9.41,18.49a27.42,27.42,0,0,1-5.76,2.81c-4.58,3.82-10.31,5.36-15.5,8l-20,11.7V376.1c3.13-5.18,8.29-8.1,13-11.43C16.47,362.32,19.67,360.05,21.34,356.18Z"/><path class="cls-18" d="M67.41,594.33c-.29,3.12,1.08,4.32,4.22,5,8.77,2,17.52.3,26.24.2,5.27-.06,10.54-.9,15.78.19,3,.63,5.78.82,8.31-1.42a8.23,8.23,0,0,1,8.94-1.19c8.13,3.73,16.83,2.5,24.91,2.05,10.78-.6,21.43.63,32.15.36,2.92-.07,5.8-.54,8.74-.54,8.43,0,9.13-.85,8.83-9.14-.2-5.33-2.67-7.32-9.72-7.35-15.92-.08-31.84,0-47.75,0-7.08,0-14.15,0-21.23,0-2.13,0-4.36.41-6.26-1,1.84-2.52,4.59-1.86,7.05-1.87,12.17-.09,24.34,0,36.52,0,11.75,0,23.5,0,35.25,0,2.49,0,5.18-.44,7.07,1.92l.06,19.83c-1.75,1.8-4,1.33-6.13,1.33q-97,0-194,0c-2.13,0-4.36.37-6.22-1.17v-7.12c2-1.11,4.22-.55,6.33-.56q27.6-.07,55.18,0C63.57,593.78,65.58,593.29,67.41,594.33Z"/><path class="cls-19" d="M.14,495.9V484A5.7,5.7,0,0,1,4,482.88c22.18-.16,44.35.53,66.52.59a3.17,3.17,0,0,1,2.13.87c1.87,3.93-.08,7.56-.88,11.28-1.48,1.77-3.54,1.44-5.46,1.44q-30.29.06-60.56,0C3.81,497.07,1.8,497.31.14,495.9Z"/><path class="cls-20" d="M71.07,494.71c-.95-3.39.32-6.45,1.35-9.55.24-.84.07-1.82.81-2.5a8.28,8.28,0,0,1,7-2.33c5.36.88,7.94-1.38,8.22-6.77A20.94,20.94,0,0,1,89.7,469c-1.44-3.32-4.4-2.79-7.1-2.79q-37.17,0-74.34,0c-2.94,0-6,.39-8.12-2.37V461.5l49.75.34c3.7,0,7.39,0,11.08,0,2.17,0,4-.33,4-3.09-.15-9.8,6.82-14.16,13.91-18.43,3.55-2.23,1.53-6.78,3.91-9.48,1.46-1.89,3.81-2.41,5.63-3.74,3.54-1.78,5.85-5.79,10.6-5.73-4.26-2.83-4.78-6.79-4.15-11.18a11.44,11.44,0,0,0,.07-2.68c-.6-2.67-.49-5.41-1.16-8.08-1.88-7.54-.8-9.4,6.6-12.18a11.73,11.73,0,0,1,2.76-.84,4.81,4.81,0,0,1,2.73.55c2.32,2.23.91,4.26-.35,6.3-2.44,1.33-5,2.6-2.59,6.06a56.26,56.26,0,0,1,.05,8.21c0,4,0,7.69,3.75,10.46,2.1,1.55,2.66,4.25,2,7a5.51,5.51,0,0,1-4.14,3.85c-6.86,1.29-9,6.26-9.92,12.29-.35,2.32-.22,4.81-2.62,6.25-1.38.16-2-.71-2.54-1.8,0-2.76-1.86-5-2.4-7.7,1.4,3.83,1.4,7.09-2.87,8.92-4.54,1.88-8.9,4-11.54,8.49-1.09,1.86-1.55,3.7,1.28,3.59,6.72-.24,14.07,2.45,19.71-3.71,4.2,1.42,4.16,4.9,3.59,8.24-.8,4.64-2.06,9.21-3.31,13.75s-4.32,7.07-9.08,6.82c-4-.21-6.21,1.72-7.39,5.28-.92,2.45-1.44,5-2.41,7.46C72.43,498.71,71.51,497.18,71.07,494.71Z"/><path class="cls-21" d="M21.29,292.91c-7.95-.33-14.06,2.69-18.07,9.79a21.46,21.46,0,0,1-3.08,3.42v-9.49C2,293,1.32,288.91,1.9,285c.2-1.77-.44-3.49-.39-5.25.14-.59.26-1.18.37-1.78,1.52-6.27,1.5-12.68,1.84-19.05,0-4.77.8-9.75-3.58-13.33v-8.31c3.12-4.88,6.27-9.77,9.66-14.45,2.59-3.58,5.86-6.87,10.92-6.92a2.78,2.78,0,0,1,2.43,2.52c-3.18,6.85-7.22,13.46-7.37,21.3-.11,5.89-1.21,11.64-1.63,17.48-1.93,3.8.95,7.5.29,11.27C11.88,274,12.25,280,11.36,285.75c-.46,3,1.91,3.37,4.18,3.68S20.82,289.36,21.29,292.91Z"/><path class="cls-22" d="M20.28,217.2c-5.9,3.13-10.59,7.25-12.51,14.06-1,3.66-5.34,3.69-7.63,6.06V181.57c2.85,2,5.24,5.8,9.43,2.38a2,2,0,0,1,.26,2.19c-3.95,8.09-3.84,9.25,2.05,16.06a40.07,40.07,0,0,1,3.79,4.43c1.23,2,3.13,3.48,4.68,5.23S22.94,215.46,20.28,217.2Z"/><path class="cls-23" d="M.14,619.25l201.72.1c1.56,0,3.13-.17,4.7-.26l-.15,2.82c-5.64,4.31-12.28,2.73-18.2,2-19.32-2.28-38.67-1.51-58-1.69s-38.5,0-57.74,0H4.14c-1.35,0-2.77.28-4-.59Z"/><path class="cls-24" d="M206.63,64l-.12,2.79q-81.66-.06-163.34-.11c-14.34,0-28.69-.11-43-.17V64.15c28.51.1,57,.25,85.55.29q54.29.09,108.58,0C198.39,64.45,202.51,64.16,206.63,64Z"/><path class="cls-25" d="M.14,601.46H194.73c3.93,0,7.86-.11,11.79-.17,0,.92,0,1.85,0,2.77l-153.3-.18-53.06,0Z"/><path class="cls-26" d="M87.76,580.25.14,580.11v-1.19c1.93-2.36,4.61-1.76,7.1-1.76,21,0,41.95,0,62.58,0-2.63-.72-6.32,1.62-8.58-2.13,1-3,3.64-2.52,5.87-2.56,7-.12,14,0,21-.05,3.33.07,6.66-.17,10,.23,1.39.45,2.77.9,2.47,2.83-2,.94-4.24.29-6.36.55,20.73-2.38,41.53-.82,62.29-1.18,2.57-.05,5.69-.94,7.11,2.56a3.07,3.07,0,0,1-2.31,3.24c-14.34.16-28.68,0-43,.07C108.11,580.41,97.92,581.29,87.76,580.25Z"/><path class="cls-27" d="M.14,463.87c28.49,0,57,.08,85.48,0,3.82,0,6.58.31,4.08,5.14-9.41-1-18.84-.38-28.26-.43-20.43-.11-40.87,0-61.3,0Z"/><path class="cls-28" d="M.14,621.62l199.79.2c2.16,0,4.32.06,6.48.09,0,1.82,0,3.65.05,5.47-4.45,3.52-15.11,4.32-19.72,1.49-1.52-2.63-3.51-4.26-6.75-3.26-3.64,1.13-5.85-2.44-9.75-2.4-31.84.31-63.7-.22-95.55-.36-24.85-.11-49.7,0-74.55,0Z"/><path class="cls-29" d="M.14,574.18v-4.75c1.47-1.27,3.27-1.17,5-1.17,26.89.07,53.78-.2,80.67.13a3.41,3.41,0,0,1,1.88,1c.27,2-1.61,2.71-2.39,4.09-25.84-.2-51.54,4-77.42,2.45C5.22,575.8,2.35,576.45.14,574.18Z"/><path class="cls-30" d="M61.56,575.23c5.3,0,10.6.08,15.9.19,1.31,0,3.26-.25,3.35,1.52.13,2.36-2.11,1.89-3.52,1.9-8.44.09-16.88.08-25.32.08H.14v-3.55c4.62-1.31,9.34-.49,14-.55,13.53-.18,27.06.19,40.57-.6C57,574.09,59.46,573.71,61.56,575.23Z"/><path class="cls-31" d="M71.07,494.71c1.14.49,1.52,2.85,3.45,1.42.81-1.57,2.3-1.81,3.81-2,9.46-.3,18.89-1.22,28.37-.66a6.23,6.23,0,0,1,3.78,1.29c1.49,1.51.93,2.65-.65,3.61L.14,498.27V495.9q32.7,0,65.4,0C67.42,495.87,69.52,496.48,71.07,494.71Z"/><path class="cls-32" d="M.14,513.69q47.84,0,95.67,0c2.57,0,5.15.17,6.72-2.48,1.44.75,1.64,2,1.36,3.43a2.72,2.72,0,0,1-1.27,1.5L.14,516.06Z"/><path class="cls-33" d="M.14,429.47c4.49-.25,8.88-1.39,13.45-1.31,4.39.08,7-2.22,6.64-7,2.59-.21,2.11,2.62,3.52,3.59l2.41,1.48c.09,1.91-1.51,2.12-2.71,2.57A27.18,27.18,0,0,0,6.91,445.23c-.43,1.11-1.37,1.92-1.92,3-3.35,1.31-2.71,5.27-4.85,7.38Z"/><path class="cls-34" d="M87.12,569.36l-87,.07v-2.37l89.53.1C89.9,569.17,89.39,570.29,87.12,569.36Z"/><path class="cls-35" d="M21.34,356.18c.38,3.9-1.09,6.59-4.72,8.35-6.1,3-10.21,8.82-16.48,11.57v-4.75c.54-.53.67-1.31,1.09-1.91a18.46,18.46,0,0,1,3.25-3.12c2.36-1.57,4.5-3.48,7-4.78,1.43-.36,2.65-.77.73-2.27-3.78-6.77.13-12.86,1.62-19.16l2.38-5.61c0,5.89.38,10.29-.11,14.59S16.67,356,21.34,356.18Z"/><path class="cls-36" d="M109.55,555.41c-2.12-3.18-5-3.83-8.8-3.81-33.54.15-67.08.06-100.61,0v-1.18l95.13-.23a38.72,38.72,0,0,1,5.28,0c4.94.65,7.51-.72,5.91-6.27a11.91,11.91,0,0,1-.13-2.94c4.58.39,3.57,4.29,4.39,7-.09,2.09,1.37,4.12.22,6.25A2.09,2.09,0,0,1,109.55,555.41Z"/><path class="cls-37" d="M73.23,482.66l-.81,2.5c-1.76-1.88-4-1.05-6.09-1.06Q33.22,484,.14,484v-2.37l58.35.79Z"/><path class="cls-38" d="M61.56,575.23l-61.42.14v-1.19c4.9,0,9.81,0,14.72-.06q33.22-.52,66.46-1.1c1.76,0,3.54,0,5.15-.9.74-1.42,1.91-1.14,3.09-.77,1.31,1.42.13,2.08-.85,2.79C79.67,574.81,70.53,572.93,61.56,575.23Z"/><path class="cls-39" d="M6,258.71c0,7.18,0,14.35-2.34,21.26-2.63-1.62-.83-5.46-3.5-7.06V256.3C3.26,254.21,4.64,256.4,6,258.71Z"/><path class="cls-40" d="M67.41,594.33H.14v-1.18q30.24,0,60.49,0C62.93,593.19,65.37,592.64,67.41,594.33Z"/><path class="cls-41" d="M6,258.71.14,256.3V245.63c4.7-.72,6.41,1.44,6,6C5.85,254,6,256.35,6,258.71Z"/><path class="cls-42" d="M1.3,370.53l-1.16.82V345.26l4.78,3.49c.06,1.57-.27,3.13-.15,4.7a50.09,50.09,0,0,0-.5,9.86A8.65,8.65,0,0,1,1.3,370.53Z"/><path class="cls-43" d="M.14,272.91c5.35.26,3,4.37,3.5,7.06a2.24,2.24,0,0,1-.89.09c-.63.94-1.27,1.86-2.61,1.15Z"/><path class="cls-44" d="M.14,281.21l2.6-1.15a6.9,6.9,0,0,1,.95,4.71c-1.37,1.44.39,5.25-3.55,4.74Z"/><path class="cls-39" d="M.14,289.51c2.21-.8,2.11-3.35,3.55-4.74-.66,4.11.11,8.65-3.55,11.86Z"/><path class="cls-45" d="M206.44,135.33c.08,14.41.09,28.81.27,43.21,0,3-1.23,4.67-3.46,6.32q-51.46,38-102.83,76.14c-1.14.94-2.83,1.36-3.79.78-6.1-3.72-13.62-4.32-19.29-8.92-1.65-2.24-2-5.33-4.54-7-2-2.94-5.46-4.84-6-8.78.82-3.22,4-3.37,6.23-4.59,2-1.08,4.42-1.45,6-3.26,1.09-1.46.86-3.55,2.26-4.87,2.89-2.53,6.52-3.61,9.93-5.07,11.55-5,22-11.45,29.27-22,2.19-3.16,6.15-4.28,8.16-7.58a10.62,10.62,0,0,1,6-3.7c8.17,3.18,16.12,3.14,23.8-1.58a3.4,3.4,0,0,1,2.28-.06,2.74,2.74,0,0,1,1.83,1.68c.79,3-2.29,3.73-3.3,5.68a6.49,6.49,0,0,1,5.87-3.07c4.85.09,5.21-2.21,3.63-5.9a7.51,7.51,0,0,1,.52-4.16c1-5.07,1.38-10.07-1.77-14.63-2-2.71-6.08-4.07-5.62-8.45,3-1,4.3-.21,6.76,2.56,3.15,3.55,6.46,9.29,13.64,7.47,3.15-.8,4.57,3.82,7.7,5.28,9,4.18,15.5.8,15.52-9.06,0-8.46,0-16.93-.06-25.39A1,1,0,0,1,206.44,135.33Z"/><path class="cls-46" d="M113.46,119.78c4.58-2.09,9.17-4.14,13.73-6.27,1.16-.54,3.07-.86,2.8-2.39-.21-1.16-1.81-1.87-3.28-1.89a2.28,2.28,0,0,1-1.06-1.5c0-2.51,1.44-3,3.45-2.27,2.62.91,5.31.77,8,.81,7.6.11,7.6.13,9.25-7.79,1.27-4.66.63-10.38,7.35-11.8,3-.63,4.71-.79,5,3.07.25,3.23.35,6.63,2.19,9.55,1.84,2.57,3.43.2,4.92-.42,6.83-2.79,13.66-5.58,20.84-7.33a15.67,15.67,0,0,1,6.35-.63c4.63,2.86,2.31,4.66-.94,6.32l-11.33,6.08c-3.24.4-6.06,1.91-8.87,3.42-1.31,1.31-3.48.31-4.43,1.9-.7-.29-.59-.13-.05-.19,1.21-.13,2.27-1.8,3.62-.3,1.92,2,1.91,4.13-.63,5.24-3,1.31-6.5,3.14-9.46,2.68-10.94-1.71-19.51,4.33-28.77,8-4.64,1.83-8.77,4.3-13.79,1.15-2-1.23-4.19.27-6.22.85a29.57,29.57,0,0,1-9.62,1.12c.74-3,3.19-2.89,4.89-3.77.65-.88.27-2.26,1.37-2.93C110.21,119.33,112.1,121.42,113.46,119.78Z"/><path class="cls-47" d="M112.42,144.71c1.47,3.1,5.15,3.36,7.25,5.75s2.64,4.56-1.16,5.44c-4.64,1.08-7.54,3.65-8.87,8.3a10.45,10.45,0,0,1-3.8,5.1c-9.9,8-14.21,19.87-20.81,30.16.48,2.16-1,2.76-2.59,3.29a3.92,3.92,0,0,1-1.89-.23c-4.66-1.84-9.1,1.36-13.77.58-2.84-.48-5.94.25-8-2.51-1.32-2.79.6-4.38,2.27-6,9-9,18.45-17.47,27.61-26.28a29.74,29.74,0,0,0,8.43-13c1-3.19,2.48-6.19,5.44-8.12C105.69,145.82,108.19,141.66,112.42,144.71Z"/><path class="cls-48" d="M40.22,172.43c2.1,3.89,1.83,7.78,0,11.66-3.43,4.21-1.4,11.1-6.93,14.32-.49.29-.26,1.08-.31,1.67-.67,7.89-4,10.79-12.93,11.34-2.29-1-3.66-3-5.33-4.69-2-3.37-5-6.07-6.82-9.61S6,190.4,9,187.48c5.15-4.92,10.73-9.09,17.86-10.65C31.65,176.37,35.31,172.49,40.22,172.43Z"/><path class="cls-49" d="M20.21,210.68c2.25-1.16,4.48-2.36,6.76-3.45,3.52-1.7,7-3,2.77-7.87-1.85-2.11-.09-4.19,2.66-4.11,2.27.06,3.82-.58,2.85-2.82-2.27-5.32,1-6.93,4.93-8.35,5,4.93,9.46,10.26,10.69,17.54,1.19,1.81.59,3.61,0,5.41-3.88,4.32-9.74,4.81-14.47,7.5-3.7,1.26-7.23,3.22-11.35,2.81C22.42,215.85,19.86,214.32,20.21,210.68Z"/><path class="cls-50" d="M161.9,155.48l7.28,7.41c.51,4.46-2.4,7.25-4.9,10.25a38.3,38.3,0,0,1-6.58,6.52,4,4,0,0,1-.89.77c-5.17,2.84-10.92,3.08-13,.13-3.33-4.64-.3-8.5,2.08-12.33a3.34,3.34,0,0,1,.7-.94c4.7-3.71,5.69-7.64.77-12,1.19-5.35,4.88-2.19,7.63-2.27S159.58,154.67,161.9,155.48Z"/><path class="cls-51" d="M49.89,206.33a8.21,8.21,0,0,1,1-4.71q20-18.68,39.9-37.36c2.51-2.36,3.5-5.62,4.66-8.76s2-6.36,5-8.35c1.33-.8,2.29-.85,2.32,1.1-8.73,22-28.45,34.52-43.65,50.94C57.37,203.32,55.16,206.82,49.89,206.33Z"/><path class="cls-52" d="M206.44,135.33c-.32.34-.65.68-1,1l-6.66,2.9c2.4,1.24,4.4,2.63.83,4.45-3,1.53-6.5,3.21-9.53,1.93-5.73-2.44-11-1.27-16.47.25a8.33,8.33,0,0,1-2.34-.1c1.42-2.69,4.92-1.82,6.18-4.32-1.44-2.64-4.64-1.79-6.53-3.45,1.73-4.11,4.85-1.6,7.45-1.58,7.25,2.72,13.85-.2,20.56-2.34,2.42-.78,4.92-1.32,7.38-2C206.37,133.18,206.4,134.26,206.44,135.33Z"/><path class="cls-53" d="M155,153c-1.92,1.11-5.71-2.33-6.1,2.53-7.09,5.85-13.51,12-13.11,22.4.09,2.26-.38,4.87-3.53,5.32-4.43-1.59-5.18-5.33-5.45-9.36-.19-1.35-1-2.67-.23-4.07,1.79-3,3.43-6.15,5.4-9.05C137.25,153,145.53,150.23,155,153Z"/><path class="cls-54" d="M126.53,169.86l2.2,2.08c-2.82,5.76-8,9.36-12.32,13.78-5.6,4.9-11.57,9.35-17.36,14s-11.85,5.1-16.55,2L85,199.46c4.47.21,7.75-2.4,10.93-4.94C106.21,186.37,116.35,178.09,126.53,169.86Z"/><path class="cls-55" d="M27.26,177.75a57.17,57.17,0,0,0-13.67,7.65c-6.44,4.93-6.92,8.2-2.34,14.75,1.44,2.06,2.95,4.08,4.43,6.12.3,1.23-.24,1.61-1.38,1.4-1.76-2.1-3.6-4.13-5.25-6.3-6.55-8.61-6.51-9.21.52-17.42l14.22-8.39C24.42,177.13,27.36,175,27.26,177.75Z"/><path class="cls-56" d="M102.75,148.25l-2.32-1.1c9.06-6.77,11.48-7.17,18.87-3.08-2.25,1.25-4.65.12-6.88.64C108.55,144.12,106.05,147.28,102.75,148.25Z"/><path class="cls-57" d="M27.26,177.75l-3.47-2.19c4.34.63,7.94-1.44,11.66-3.13,1.56-.7,3.19-3.05,4.77,0A35.93,35.93,0,0,1,27.26,177.75Z"/><path class="cls-58" d="M178.39,136.42c-2.51.39-5.32-.67-7.45,1.58l-6-1.89.24-1.71C169.67,133.79,174,134.88,178.39,136.42Z"/><path class="cls-59" d="M108.64,120.83a2.15,2.15,0,0,1-1.24,2.56c-1.94-3.93-6.91-1.9-9.36-4.81a.55.55,0,0,1,.12-.51,6.54,6.54,0,0,1,1-.48C102.26,118.93,106.22,117.61,108.64,120.83Z"/><path class="cls-60" d="M108.64,120.83l-9.44-3.24,4.83-.28,9.43,2.47C112.19,121.65,110.37,121,108.64,120.83Z"/><path class="cls-61" d="M171,108.15,164.16,110a10.48,10.48,0,0,1,7.7-3.27C171.57,107.21,171.28,107.68,171,108.15Z"/><path class="cls-62" d="M192.68,91.26c-10.06,1.58-19.07,6.28-28.53,9.66-2.94,1-3,1-3.27-1.62,5.42-2,10.85-4,16.26-6.09a39.12,39.12,0,0,1,15.3-2.85c.48.08.68.24.59.48S192.82,91.26,192.68,91.26Z"/><path class="cls-63" d="M146.35,98.48c-.23,8.6-.82,8.8-8.7,8.7-3.69-.05-7.83-2.62-11.27.94-3.54-.32-7.33,0-9.61-3.64a76.58,76.58,0,0,1,15.79.76C142.15,106.83,142.31,106.65,146.35,98.48Z"/><path class="cls-64" d="M116.77,104.48a34.84,34.84,0,0,0,9.61,3.64q.18.55.33,1.11a27.71,27.71,0,0,1-10.59-2.61C113.15,105.38,114.73,104.65,116.77,104.48Z"/><path class="cls-2" d="M192.68,91.26l-.24-.9c2-.11,3.51.47,3.55,2.83,0,2.65-1.31,4-3.93,4C193.49,95.38,196.56,93.69,192.68,91.26Z"/><path class="cls-65" d="M192.61,361.74c14.06-4.86,13.83-4.85,14.11,9.45a466.71,466.71,0,0,1-3.3,68.71c-4.88,1.68-5.54,7.71-10,9.81-3.16.06-5.26-1.74-7.09-4-2-2.87-.39-5.86-.33-8.81.37-3.51-.29-7-.15-10.52.51-18.56.27-37.11.1-55.65C185.89,365.47,187.36,362.45,192.61,361.74Z"/><path class="cls-66" d="M154.7,369a205.23,205.23,0,0,1,24.69-4.87c4.47-1.4,6.73,0,6.68,4.95-.18,18.67.26,37.35-.22,56-3,4.52-10.15,5.37-14,1.55a43.64,43.64,0,0,1-3.09-3.55c-1.24-1.49-2.41-3.12-4.14-4.05-4-2.15-5.41-4.62-3.51-9.47,1.56-4-.53-8-3.87-10.89-2.36-2-4.14-4.15-3.41-7.51,1.75-3.9-1.67-6.83-1.92-10.35C152.47,376.79,149.94,372,154.7,369Z"/><path class="cls-67" d="M206.52,498.5q-.54,22.93-1.09,45.86c-1.05,7.84-1.05,7.88-9.27,7.86a85.79,85.79,0,0,1-11.11-.25c-4.55-1.71-5.44-6-6.26-9.91a63.52,63.52,0,0,0-6.51-17.47,16.41,16.41,0,0,1-1.92-10.76c.74-4.46,4.13-8.18,3.59-13a5.21,5.21,0,0,1,2.28-3.6c8.9-1.49,17.85-.52,26.78-.57A4.5,4.5,0,0,1,206.52,498.5Z"/><path class="cls-68" d="M186.74,628.87c6.55-.82,13.08-2,19.72-1.48,0,12.16.2,24.33.09,36.5-.09,8.93-4.44,15.64-11.64,20.62-2.63.39-3.17-1.87-4.11-3.44-8.35-14-12.2-29.48-15.41-45.22a3.18,3.18,0,0,1,1.21-3.62c3.19-1.73,6.7-2.48,10.15-3.42Z"/><path class="cls-69" d="M104.22,388c-7.34,2.07-11.74,5.59-7.52,14.08.76,1.54.06,3.82,0,5.76C93,411.19,88.78,410,84.6,409c-.44-.39-1.11-.68-1.23-1.23-1.69-7.88-2.52-15.74.54-23.51,17.3-5.05,35.09-7.91,52.65-11.8,4.76-1.05,9.47-2.6,14.44-2.5,2.56,3.43,1.37,7.17.87,10.85-1.15,1.86-3.35,1.77-5,2.67-2.43,1.31-4.33,3.33-3.86,6,.73,4.13-1.11,6.94-3.89,9.11-3.37,2.63-2.68,7.87-6.79,9.83-4.43,1-7.46-.24-7.7-5.31-.25-5.39-5.36-8.13-6.8-12.83C114.16,384.25,109.14,386.43,104.22,388Z"/><path class="cls-70" d="M21.29,292.91c-1.74-1.26-3.78-.79-5.69-.9-7.68-.43-7.68-.4-6.65-8.29.51-3.9,1.07-7.79,1.49-11.7.2-1.85.44-3.54,2.6-4,2.87-3.09,5.93-5.65,10.56-3.86,1.82,2.74-1.11,4.22-1.84,6.65,2.39,1.51,4.93,1.53,7.7,1.43,5.74-.23,11.19-2,16.81-2.82,5.43-.81,8.87-5.91,9.29-12.08.41-5.85-1.14-11.81,1-17.56a2.47,2.47,0,0,1,3.58.3c2,2.7,1.64,5.81,1.28,8.8a18.66,18.66,0,0,0,.49,6.2c-.35,5.86-1.34,11.69-1,17.6-.84,5.66-.33,11.51-2.48,17q-.19,5.86-.4,11.72a2,2,0,0,1-2.52.32c-.53-.78-.92-2.05-1.63-2.26C43.21,296.22,32.87,291.38,21.29,292.91Z"/><path class="cls-71" d="M170.9,224.54l1.82-1.12c3.44,1,2.75,4.25,3.66,6.64a12.22,12.22,0,0,1,.17,1.72c-.24,4.25-.94,8.5-.16,12.8,9.68-3.35,11.74-6,11.45-13.46-.1-2.7-1.19-3.91-3.59-4.37a3.92,3.92,0,0,1-1.35-1c.85-5.41,6.07-8.65,6.93-14.06l2-1.88c2.79.59,2.45,3.16,3.07,4.88,3.61-2.11,6.18-6.66,11.51-4.73,0,.78,0,1.55,0,2.33-1.37,3.26-4,5.25-6.89,7-1.64,1-3.67,1.83-4.09,4-.55,2.89-1.59,6.36.35,8.53,1.48,1.65,3.71-1.2,5.68-1.86,1.68-.56,3.32-1.36,5,.05v1.63a9.81,9.81,0,0,1-5.23,6c-4.85,2.25-7,6-6.22,11.32.27,2-.61,3.86-.67,5.81a9.5,9.5,0,0,0,.39,5.91c.88,4-.39,8.15.65,12.16.1.65.18,1.31.25,2-1,6.32,0,12.75-1.07,19.06a14.37,14.37,0,0,0,.36,3.06c.18,3.54.7,7.12-1.24,10.4-1,1.19-2.18,1.9-3.8,1.23-2.84-2.59-2-5.84-1.62-9a14.18,14.18,0,0,0-.22-4,11.76,11.76,0,0,1,.07-4.8,15.13,15.13,0,0,0-.25-7.11c-.39-2.67-1.91-2.45-3.76-1.49a80.3,80.3,0,0,1-11.94,4.52,2.8,2.8,0,0,1-1.6-.81,3.85,3.85,0,0,1-.79-1.67c-.35-3.14-.09-6.29-.24-9.43,0-.88,0-1.77-.11-2.65-1.13-4.14.19-8.49-1-12.9-5.34,1.57-9.22,6.16-14.9,6.28a2.73,2.73,0,0,1-1.93-4.15c3.13-3.05,7.25-4.54,10.85-6.86,6.79-4.37,7.34-5.5,5.82-14.19-4.73.42-7.59,5.83-12.77,4.92a2.23,2.23,0,0,1-1.14-1.18c.15-4.51,3.86-6.11,6.92-7.85C166,233.47,169.44,229.9,170.9,224.54Z"/><path class="cls-72" d="M78.21,251.39c3.88,3.82,9.75,2.3,14.06,5.39,2.41,1.73,4.54,4.61,8.15,4.22l-20,14.39c-4-.92-7.93.45-11.9,0-2.09-.23-4.21-.12-6.07-1.31-5.08-7.19-3.52-12.63,4.77-15.12C71.83,257.57,76,256,78.21,251.39Z"/><path class="cls-73" d="M206.48,558.6q0,8.39,0,16.79c-.67,1.52-1.64,2.81-3.42,2.83-12,.16-24,3.29-36.1,1.34-2.43-2.81-.72-4.68,1.64-6a5.61,5.61,0,0,0,3-6.77c-.83-2.75-.53-5.15,2.07-6.85,3.74-2.11,7.21-.75,10.65.84,2.28,1,3.26,2.92,3.83,5.17.15,3.79,2.41,3.8,5.27,3.1s5.86-1,7.05-4.32C202.25,562.43,201.5,557.69,206.48,558.6Z"/><path class="cls-74" d="M206.55,484.27v11.42c-1.15,1.35-2.72,1.41-4.28,1.36-8.73-.24-17.47.66-26.18-.48-3.55-2.74-1.52-6.42-1.64-9.74a4.82,4.82,0,0,1,1-2c3.22-2.21,7.22-1,10.63-2.43,4.88-.25,9.77-.08,14.66-.09C202.87,482.27,205.05,482.28,206.55,484.27Z"/><path class="cls-75" d="M206.48,558.6c-3.75,1.88-2.24,5.92-3.6,8.79-3.4.92-6.92,1.19-10.37,1.84a6.06,6.06,0,0,1-5.81-2q-1.27-2.49-2.54-5c-2.78-2.33-2.35-5.57-2.42-8.67a3.12,3.12,0,0,1,1.77-2.48c4.51,0,9.08.43,13.53-.13,5.57-.7,8.91.9,9.58,6.78A1,1,0,0,1,206.48,558.6Z"/><path class="cls-76" d="M192.73,293.81c0-6.63-1.51-13.34.94-19.86a13.8,13.8,0,0,1,12.78-5.41c-.19,7.39,1.41,14.86-.91,22.17C201.82,294,197.68,295.58,192.73,293.81Z"/><path class="cls-77" d="M172.68,351.46c-6.59,1.42-12.89,4.13-19.74,4.38-3.93-5-3.2-12.7,1.56-16.5,4.67-.74,9-2.78,13.57-3.93,3.44,0,4.91,1.94,5,5.23,0,2.95.11,5.91-.05,8.86C172.87,350.15,172.77,350.81,172.68,351.46Z"/><path class="cls-78" d="M206.25,305.06a117.47,117.47,0,0,1,.09,19.76,8.19,8.19,0,0,1-3.53,3c-9.07,4.31-12,2.5-12-7.48,0-1.17,0-2.35,0-3.53C190.83,308.09,197.24,303.22,206.25,305.06Z"/><path class="cls-79" d="M81.41,287.08l14-9.44c3.88,6.62,2.22,13.46.79,20.29-5.48,6.61-11.1,7.79-15.84,3.34C79.58,296.46,79.13,291.67,81.41,287.08Z"/><path class="cls-80" d="M151,356.56a90.22,90.22,0,0,1-17.51,3.71c-4.72-9.17-2.57-14.7,6.88-17.1,3-.76,6-1.89,9.24-1.52C153.73,346.27,151.68,351.48,151,356.56Z"/><path class="cls-81" d="M206.41,230c-3.56,2-7.16,4-10.69,6.05-2.22,1.3-2.69.63-3.27-1.79-3-12.34,4.62-17.67,13.94-22Q206.41,221.13,206.41,230Z"/><path class="cls-82" d="M184.32,425.89c0-18.57-.08-37.13,0-55.7,0-3.59-.37-6.41-4.91-6.06,4.35-1.1,8.65-2.45,13.21-2.39-4.12,1.58-4.89,4.71-4.85,8.88.17,18.82,0,37.64,0,56.46C186.18,428,185.21,427,184.32,425.89Z"/><path class="cls-83" d="M206.42,326.56c.08,1.76.21,3.52.23,5.28.12,13.35-.14,13.61-13.93,14.42-3.69-4.73-1.61-10-1.37-15.12a2.23,2.23,0,0,1,2.07-1.8C197.81,328.71,201.78,326,206.42,326.56Z"/><path class="cls-84" d="M131,361a86.27,86.27,0,0,1-17.14,4c-3.28-4.9-3-10.27.7-14.26a62.29,62.29,0,0,1,10.5-3.27c5.24-1.28,7.22.33,7.25,5.74C132.3,355.89,133.16,358.76,131,361Z"/><path class="cls-85" d="M192.78,255.31c-3.41-12.52,3.11-19.26,13.63-23.68q.06,8.09.11,16.17C203.42,253,199.24,256.27,192.78,255.31Z"/><path class="cls-86" d="M193.67,272.85c-2.3-4.2-.88-8.69-1-13.06,2-4.37,9.48-8.71,13.92-8.05l-.19,14.94C202.7,269.89,198.11,271.21,193.67,272.85Z"/><path class="cls-87" d="M131,361c-.09-12.32-.09-12.33-11.88-9.82-1.13.24-2.24.53-3.37.8a2.32,2.32,0,0,1-.39-1.64c1.14-2.72,3.63-3.47,6.13-4,5.11-1.05,8.12-3.59,7.32-9.31-.19-1.36.55-2.69.44-4.1-.05-.61-.12-1.2-.23-1.81a12.1,12.1,0,0,1-.52-3.83c1.51-8.13.92-16.31.69-24.49-.52-2.5-.68-4.94,1.09-7.08a2.21,2.21,0,0,1,1.87-.71c3,1.57,2.09,4.79,3.08,7.2.08.65.16,1.3.27,1.94,1.41,7.17-.24,14.52,1.18,21.69.69,2.24-1.24,4.11-.86,6.31a17.8,17.8,0,0,1,.08,1.78c.17,7.55.17,7.55,7.76,6.59,1.75-.22,3.52-.55,5.11.64a1.27,1.27,0,0,1,.38,1c0,.36-.09.54-.17.54a35.81,35.81,0,0,1-3.8,1.46c-12.1,3.26-12.1,3.25-11.69,16.08C132.72,360.8,132,361.49,131,361Z"/><path class="cls-88" d="M112.29,365.33c-4.89,1.7-9.83,3.18-15,3.38-3.41-4-2.65-8.15-.51-12.37,3-1.87,6.33-2.77,9.62-3.8,2.25-.7,4.54-1.19,6.29,1.13C112.81,357.56,113.4,361.47,112.29,365.33Z"/><path class="cls-89" d="M34.5,378.77c2.42-1.59,4.69-3.52,7.3-4.7,6.88-3.1,8.78-8.54,7.93-15.51,3.67-1.78,4,1.06,4,3.3.07,5.66.52,11.33-.27,17,0,.34,0,.67,0,1L35.59,384.1C33.67,382.65,33.43,380.84,34.5,378.77Z"/><path class="cls-90" d="M97.93,356.91c-1.89,3.84-.49,7.87-.69,11.8l-1,.91c-1.76-.08-3.27-1-3.38-2.64-.36-5.25-3.53-5.65-7.61-5a3.32,3.32,0,0,1-2.65-1,2.76,2.76,0,0,1-.35-1.62,3.36,3.36,0,0,1,2.18-2.54c6.54-1.28,8.19-5.93,8.33-11.72a4.62,4.62,0,0,0-.79-3.37c1.66-5.62.48-11.37.81-17.05a28.78,28.78,0,0,0,.13-3.94c.12-3.39.68-6.77.21-10.17-.08-1.26,0-2.52,0-3.78a10.11,10.11,0,0,1,.65-3.73c-.27-1.76,1.36-3.24.74-5.06,1.79-6.72.81-13.57,1-20.36l1.37-1a3.92,3.92,0,0,1,1.88,3.21,19.85,19.85,0,0,0,.53,2.85,22.15,22.15,0,0,1-.23,6.75c.07,1.65-.25,3.27-.24,4.91,0,1,0,2,0,3.05.18,13.56.44,27.11,0,40.66,0,.67,0,1.34,0,2,0,1,.07,2,.17,2.93a26,26,0,0,1,.05,10.36C98.73,354.6,98.78,355.88,97.93,356.91Z"/><path class="cls-91" d="M206.42,326.56c-14.35,4.39-14.35,4.39-13.7,19.7a2.28,2.28,0,0,1-2.36,1.05c-2.6-1.48-1.7-4-2-6.26s.69-5-2.84-5.34c-1.36.09-2.63.65-4,.66-2.61-.31-5.23,2-7.82-.06a2.31,2.31,0,0,1-.52-1.62c1-3.4,4.17-3.77,6.83-4.68,9-3.09,10.82-10.65,4.13-17.88.31-4,2.79-4.42,6-3.74l2.28-1.16c4.14-3,8.24-6.05,13.83-4.46,0,.76,0,1.53,0,2.29-.92.31-1.85.58-2.75.95-11.77,4.88-12.49,6.3-11,19.26.33,2.86,1.36,3.18,3.73,2.43,3.34-1.06,6.74-1.93,10.11-2.87C206.36,325.4,206.39,326,206.42,326.56Z"/><path class="cls-92" d="M62.57,272.81c4.86,0,9.73,0,14.6.12,1.57,0,3.92-.67,3.26,2.46-3,3.18-7.22,4.49-10.76,6.84-3,.72-7.46-.74-6.91,4.94-1.09,1.46-2.74,1.91-4.35,2.43-.38-5.63-.62-11.25.59-16.82A2.76,2.76,0,0,1,62.57,272.81Z"/><path class="cls-93" d="M80.27,373.28l-13.73,3.4c-3.25-4.43-2.94-8.9-.16-13.41,4.81-1.32,9.4-4.76,14.71-1.63C82.65,365.65,83,369.58,80.27,373.28Z"/><path class="cls-94" d="M193.7,448.61c.64-1.62,1.32-3.24,1.93-4.87,1.4-3.76,3.86-5.28,7.79-3.84.79,1.07,3.31-2,3.13,1.24-.24,4.36,1.16,8.86-1.08,13.05a6.45,6.45,0,0,1-1.4,1.31c-3,1.47-5.68,0-8.38-1.1C194,452.83,192,451.38,193.7,448.61Z"/><path class="cls-95" d="M149,342.73c0-.28,0-.56,0-.84-.2-5.1-.57-10.2.31-15.28a19.35,19.35,0,0,0,.08-2.95,27.78,27.78,0,0,0-.5-3c-.27-6-.13-11.93-.16-17.9.69-2.38.59-4.84.76-7.27.07-4.48.06-9,0-13.44,0-.67-.07-1.34-.14-2-1.26-4.52.26-9.18-.7-13.71a15.38,15.38,0,0,1-.32-1.92c.73-5,.23-10,.83-15-.11-.91-.39-1.79-.53-2.7-.38-2.9,1.37-5.2,2.21-7.75l1.71-1.33c3.13,1.52.92,4.83,2.3,6.93l-.05-.08c.23,5.65,1.73,11.46-2.15,16.56l.06,3.87c1.94,1.86,1.47,4.31,1.53,6.6.17,6.8-.43,13.63.84,20.39.43,1.71-.11,3.34-.45,5a23.7,23.7,0,0,0-.08,3.86c1.13,6.57-.41,13.33,1.34,19.86.3,1.56-.37,3-.67,4.43-.23,4.91-1,9.84.58,14.69.06.26.11.53.16.8-3.94,1.71-3.13,5.23-3.12,8.4,0,2.33.11,4.66.17,7-.52.6-1.09,1.07-2,.73,0-3.25,0-6.5,0-9.75C151,345.15,151.33,343.24,149,342.73Z"/><path class="cls-78" d="M206.29,302.77c-4.57,1.62-8.65,4.78-13.83,4.46q.16-5.36.35-10.72c4.08-3.3,8.44-5.45,13.83-3.33C206.52,296.38,206.41,299.58,206.29,302.77Z"/><path class="cls-96" d="M82.84,360.64l.57-.1c3.22-.69,6.84-2.64,9.57-1.77,3.86,1.23,1,5.9,2.13,8.83a18.26,18.26,0,0,0,1.15,2c-4.5,1.18-9,2.4-13.65,2.56C80.11,368.28,79.81,364.42,82.84,360.64Z"/><path class="cls-97" d="M82.84,360.64c-1.58,3.81-1.14,7.67-.23,11.53l-2.33,1.12q-.07-5.52-.13-11c-.43-1.13-1.82-1.65-1.89-3-.09-3.28.77-6.55.23-9.84-.14-1.2-.69-2.29-.85-3.49a91.31,91.31,0,0,0,0-14.13c-.17-1.7-.06-3.41-.21-5.11.28-3.89.88-7.79.16-11.7-.1-1.15.1-2.31-.09-3.45-1-2.71-.62-5.44-.2-8.17a19.06,19.06,0,0,0-.19-2.93c-.68-3.88-.77-7.65,1.86-10.94.3-1.31.71-2.51,2.41-2.4L82,301.54A22.18,22.18,0,0,1,83.55,306c.55,1.58-.19,3.13-.08,4.69a13.69,13.69,0,0,0,.39,2.78c.33,3.72.27,7.46.56,11.18,0,1.52-.77,3-.45,4.53.15,5.1-.08,10.22,1,15.27-.06,1.75-1.4,3.27-.84,5.13a26.64,26.64,0,0,1-1.21,9.76Z"/><path class="cls-98" d="M174.89,230.47c-2.45-1.81-.9-4.87-2.17-7.05l17.11-11.77c2,6.75-1.43,10.75-6.85,13.76C181.58,229.19,179.07,231.18,174.89,230.47Z"/><path class="cls-99" d="M154.78,244.5c-3.42-1.42-1.59-4.6-2.3-6.93l18.42-13c1.56,5.89-.62,9.52-6.05,12.3C161.19,238.71,156.92,240.36,154.78,244.5Z"/><path class="cls-100" d="M64.83,377c-3.45,2.37-7.9.7-11.39,2.88l-.2-.24c-1.16-3.23-.52-6.57-.52-9.86,0-4.63,3.89-4.65,7-5.48,4.52-.94,6.52.88,5.91,5.51C65.33,372.16,66.43,374.72,64.83,377Z"/><path class="cls-101" d="M206.38,209.92l-12.92,7.79c-2-2.57-.15-5.61-1.66-7.94l14.25-10.27A30.26,30.26,0,0,1,206.38,209.92Z"/><path class="cls-102" d="M206.45,467.83l.18,13.69c-4.35,2.6-9.06,1.07-13.6,1.08-1.91,0-2.36-1.67-2.08-3.46C191.87,473.33,200.43,467.06,206.45,467.83Z"/><path class="cls-103" d="M112.29,365.33l-.13-11.57a10.69,10.69,0,0,1-1.63-2.61c-1.27-3.67-.81-7.39-.3-11.11a23,23,0,0,0,.2-3,14.87,14.87,0,0,0-.35-3,53.77,53.77,0,0,1-.46-7.06,52.92,52.92,0,0,0,.25-17.93c-.3-1.55.26-3.13-.14-4.68a20.37,20.37,0,0,1,.63-3.47c0-.57.06-1.14.08-1.72,0-3.41.5-6.87-.7-10.2a6.93,6.93,0,0,1-.21-1.75,32.86,32.86,0,0,1,.41-4.43,9.37,9.37,0,0,0,.35-4.52c-.62-1.95-.07-3.88,0-5.83-.62-2.6.67-4.67,1.85-6.77l.08,0c3.28.13,2.88,2.62,2.94,4.73.13,4.15-.07,8.3.18,12.44.09,1.3.53,2.55.66,3.84-1.1,4.15-.52,8.3,0,12.46a6.23,6.23,0,0,1,.12,1.83c-1.45,4.8.41,9.71-.42,14.53a64,64,0,0,0,.23,19.19c.19,1.26-.29,2.5-.14,3.76.56,4.27-.53,8.53-.06,12.79a1.49,1.49,0,0,0-.07.69c-4.28,3.82-1,8.74-1.89,13Z"/><path class="cls-104" d="M113.59,284.61c0-4.7-.07-9.39-.15-14.09,0-1.67.77-3.57-1.19-4.76l18.93-13.39.81.65c1.74,5,.86,10,.64,15-1.84,3.88-5.39,2.11-8.27,2.43-2.2.25-4.86-.67-5.45,2.74A15.58,15.58,0,0,0,116.6,280c-.11,1.42.45,2.85-.15,4.25C115.63,285.31,114.74,285.9,113.59,284.61Z"/><path class="cls-105" d="M206.54,464.1l-.13,2a22,22,0,0,1-9.09,4.22,62.53,62.53,0,0,1-13.73.77c-2.14-.14-4.22-.36-5.75-2.13a4.76,4.76,0,0,1,.18-5.56C187.57,461.55,197.11,460.64,206.54,464.1Z"/><path class="cls-106" d="M150.77,238.9c.2,2.68.45,5.37-.57,8-3.13,4.35-8.74,5.69-11.92,10a5.61,5.61,0,0,1-5,1.48c-2.64-1.13-.75-3.93-2-5.56l-.07-.39Z"/><path class="cls-107" d="M177.49,632.39c-1.45,6.41,1.12,12.33,2.46,18.33a112.24,112.24,0,0,0,11,29c1,1.8,1.47,4.18,3.95,4.8l-2.71,1a126.76,126.76,0,0,1-14-31.88q-1.75-7.7-3.5-15.41C173.74,632.39,173.74,632.39,177.49,632.39Z"/><path class="cls-108" d="M64.83,377c0-2.52,0-5,.11-7.57.22-3.54-1.19-4.68-4.49-3.37a1.81,1.81,0,0,1-.55-1.49,17.12,17.12,0,0,0,3.17-10.65c-.15-1.21-.76-2.3-.86-3.52a7.38,7.38,0,0,1,0-2c2-9.08.77-18.29,1.11-27.44v-2c0-4.72.06-9.45-.08-14.17-.13-2-.69-4,.56-5.77.28-1.32.58-2.59,2.42-2,1.67.93,1.93,2.49,1.84,4.2a27.22,27.22,0,0,0,.16,2.85c1.14,4-.08,8.09.62,12.1.08,1.23-.39,2.43-.17,3.66.34,3.94-.31,7.9.22,11.83a22.41,22.41,0,0,0-.07,3.57c-.15,4.69-.24,9.38.77,14,.06,1.48-1,2.69-1,4.17a48.63,48.63,0,0,1-.3,9.42,3.92,3.92,0,0,1-.94,1.43c-2,4.06-.67,8.33-.8,12.51Z"/><path class="cls-77" d="M185.16,333.26c3.47-2.26,5.26-1.82,5,2.84-.18,3.73.09,7.47.16,11.21l-17.68,4.15-.21-.28c-.23-5.14-2.43-10.44,1.21-15.28l8.28-1.71c1,2.26-.8,3.19-2.08,4.3s-2.88,1.86-1.44,3.76a5.7,5.7,0,0,0,5.14,2.36c1.88-.14,2.49-1.59,2.84-3.27C187,338.46,185.63,335.94,185.16,333.26Z"/><path class="cls-109" d="M198.73,468.82l7.68-2.7c0,.57,0,1.14,0,1.71-6.75,2.35-11.79,6.52-14.73,13.75,5.3.49,10.1.83,14.91-.06,0,.92,0,1.83-.08,2.75H185.43a6.16,6.16,0,0,1-3.44.33c-1.61-.19-4.23,1-4.62-1-.52-2.65,2.39-3.42,4.32-3.72a11.67,11.67,0,0,0,8.82-5.88C192.36,471,195.64,470,198.73,468.82Z"/><path class="cls-110" d="M66.44,301.46c-.09-1.51-.17-3-.25-4.52L79,289.48l.18,11.59C75,304.23,70.76,303.87,66.44,301.46Z"/><path class="cls-111" d="M166.53,577.85c6.56,2.56,13.13.72,19.63-.14,6.77-.89,13.67-.55,20.33-2.32,0,1.59,0,3.18,0,4.77-13.27,1.22-26.57.21-39.84.54a15.44,15.44,0,0,1-2-.11C163.22,578.24,164.47,577.75,166.53,577.85Z"/><path class="cls-112" d="M83.91,384.29c.66,7.83-1.32,15.8,1.18,23.54q-2.9,3.42-5.82,0c2.22-6.07.72-12.33,1-18.5.08-2.19-2.15-2.53-3.31-3.73A13,13,0,0,1,83.91,384.29Z"/><path class="cls-113" d="M112.1,272.85c0,2,0,4,0,6-4.81,2.05-9.58,4.61-14.81,1.14l-.45-3.37,3.67-2.58c2.07-1,4.31-1.45,6.35-2.51S110.86,270.27,112.1,272.85Z"/><path class="cls-114" d="M206.54,464.1l-28-.3a2.08,2.08,0,0,1-.11-2.94c5.15-3.32,10.79-1.64,16.26-1.59,4.52,1,7.12-2,9.84-4.81a3.54,3.54,0,0,1,.91-.27C205.8,457.49,205.28,460.89,206.54,464.1Z"/><path class="cls-115" d="M176.4,496.29l30.15-.6,0,2.81-30.18-.56C175.5,497.36,175.44,496.81,176.4,496.29Z"/><path class="cls-116" d="M34.5,378.77a10.07,10.07,0,0,1,1.09,5.33l-15.41,4Z"/><path class="cls-117" d="M164.33,580.41l42.15-.25c0,.43,0,.87,0,1.3l-42.37-.27Z"/><path class="cls-118" d="M206.62,557.72c-.19,0-.53,0-.55-.13-2.42-8.28-9.13-5.64-14.71-5.83-2.55-.08-5.1-.07-7.65-.11-.4-.11-.74-.3-.7-.51.1-.63.63-.74,1.15-.81,4.45,0,8.94-.39,13.35,0,4.79.46,7.78-.67,7.92-6C205.91,548.8,207.17,553.18,206.62,557.72Z"/><path class="cls-119" d="M206.57,251.74c-5.26,1.6-9.63,4.76-13.92,8.05-2-1.55-.4-3,.13-4.48,5-1.7,9.29-4.77,13.74-7.51C206.54,249.11,206.55,250.42,206.57,251.74Z"/><path class="cls-120" d="M62.76,287.17c-2.28-.1-3.79-1-3.4-3.59.31-2.05,1.88-2.31,3.5-2.29,2.3,0,4.71-.55,6.81.94Z"/><path class="cls-121" d="M112.1,272.85c-4-1.18-7.62,2.18-11.64,1.23l11.71-8.36Q112.14,269.29,112.1,272.85Z"/><path class="cls-122" d="M150.11,380.87c2-3.49.84-7.24.89-10.88a4.87,4.87,0,0,1,3.7-1c-1.87,4.22-.8,8.69-1.07,13.05C152,382.92,150.5,383.62,150.11,380.87Z"/><path class="cls-123" d="M63.77,299a6.18,6.18,0,0,1,1.06,4.64A8.64,8.64,0,0,1,63.42,305a6.48,6.48,0,0,1-7.49-.32,2.42,2.42,0,0,1-.69-1.8c.08-.4.17-.81.25-1.21l2.52-.31Z"/><path class="cls-124" d="M206.64,293.18c-5-.58-9.35,1.72-13.83,3.33,0-.89-.06-1.79-.08-2.69,4.25-1.14,8.35-2.89,12.81-3.11C205.91,291.53,206.27,292.36,206.64,293.18Z"/><path class="cls-125" d="M193.67,272.85a42.8,42.8,0,0,1,12.71-6.17c0,.62.05,1.24.07,1.86L193.67,274A10.09,10.09,0,0,0,193.67,272.85Z"/><path class="cls-28" d="M177.49,632.39c-4.05.41-2.27,3.67-2.82,5.79q-1.09-2.35-2.18-4.71c4.1-3.58,9.15-4.21,14.26-4.66Z"/><path class="cls-126" d="M108.8,549.14c-.82-2.69-1.65-5.38-2.47-8.07q-1.86-12.44-3.7-24.89l.52-1.24c2-6.11,5.77-10.91,10.63-15,6,2.27,12.61,3.74,14.07,11.58-.26,2.46-2.71,3.69-3.3,6-2.89,7.43-.83,15.17-1.46,22.74-.29,3.44.68,7.18-2.42,10C116.49,552.37,112.47,552.65,108.8,549.14Z"/><path class="cls-127" d="M164.33,580.41c-.09.26-.16.52-.24.78l-43.52.24-2.3-.34-.83-.4.83-.41,43.57-.43a1.93,1.93,0,0,1,2.32.18Z"/><path class="cls-128" d="M118.27,580.28q0,.4,0,.81c-10.18.09-20.39,1-30.51-.84Z"/><path class="cls-129" d="M13.87,340.11c.94,4.33-.54,8.52-.68,12.79-.07,2.3-.48,4.72,1.22,6.72.53,2.13-1.71,2.43-2.44,3.72-2.07,1.78-4.08,3.64-6.89,4.2-2.38.89-1.93-1-1.95-2.15-.1-4.26,0-8.53,0-12.79.47-3.75,5.94-2.65,6.29-6.54C10.36,343.68,12.16,341.92,13.87,340.11Z"/><path class="cls-130" d="M54.41,334.54l0-3.5c1.52-2.8-.37-6.06,1.19-8.85,2.74-1.93,5.5-3.62,8.58-.59a31.39,31.39,0,0,1,.22,7C64.31,335.3,60.69,337.4,54.41,334.54Z"/><path class="cls-131" d="M60.38,366.05l.07,0c-5.46.51-7.93,3.28-7,8.93a20.31,20.31,0,0,1-.24,4.65c-2.2-4.91-.87-10.12-1.32-15.17-.18-2,2.13-5.32-2.19-5.87l-1-1.32c3.36-.1,4.59-1.63,4.55-5.18-.06-5.05-1.16-10.24,1.06-15.15a3,3,0,0,1,1.35,1.16,20.92,20.92,0,0,1,.78,2.52c.78,3.73-.19,7.78,2,11.25.57,2.15-1.59,3.35-1.78,5.24C54.3,361.57,58.94,363.16,60.38,366.05Z"/><path class="cls-132" d="M55.67,323c-.35,2.69.65,5.59-1.22,8.06.08-9.41-.32-18.83.79-28.21l.58,1.11c3.49,2.92,1.43,7.38,2.81,11.13,2.94-.4,2.61-2.62,2.75-4.36.19-2.54.21-5.09,2.51-6.83.31-.1.62-.2.94-.28q0,7.77-.08,15.53C62.17,321.49,58.25,320.62,55.67,323Z"/><path class="cls-132" d="M54.57,338a10.7,10.7,0,0,0-.22-1.1l.06-2.37c9.46-.66,9.76-1.08,9.35-13.09-.21-.86,0-1.3,1-1.09-.13,10,1.72,20-.79,29.94-3.93-2.76-2.09-7-2.7-10.57C59.8,336.18,56.38,340.21,54.57,338Z"/><path class="cls-133" d="M9.39,346.06c0,3.66-2.77,4.45-5.5,5.25-.73.67-1.2.52-1.4-.45l2.43-2.11C7,348.79,7.92,347,9.39,346.06Z"/><path class="cls-134" d="M46.1,429.6l-4.45-1.37c-2.33-.7-2.87-1.8-.91-3.63,4.09-3.83,3.56-8.32,1.72-13,.08-2.82,2.1-2.94,4.12-2.91,10.92.14,21.85-.36,32.76.26,1.11.51,2.37,1.23,2.42,2.41.25,6.22,1.68,12.51-.9,18.6-6.43,2.6-13.15.89-19.73,1.17C56.1,431.39,50.91,432,46.1,429.6Z"/><path class="cls-135" d="M80.43,442.45c-7.53,3.2-12.45,8.88-15.51,16.35-2.33-9.56-5.92-18.47-13-25.57,0-2.67,2.06-2.52,3.71-2.5,8.5.11,17-.59,25.5.38C83.41,435,81.42,438.72,80.43,442.45Z"/><path class="cls-136" d="M79.36,409.68l-31.73-.2c-2,0-3.93.26-5.16,2.16-2.28-1.53-4.46-3.15-7.32-3.54-9.78-1.31-14.12,5-11.4,16.61-1.78-.6-2.32-2.42-3.52-3.59,0-13.19,6.8-18.15,19.3-14,3.65,1.22,7.35.86,11,.87,9.57,0,19.14-.09,28.71-.16l5.82,0H96.74c0,.94.05,1.88.07,2.82-3.43,1.87-7.15,1.06-10.77,1.14A28,28,0,0,1,79.36,409.68Z"/><path class="cls-137" d="M81.62,431.81c-7.85,0-15.7.05-23.55.12-2.13,0-4.36-.29-6.17,1.3-2.17-.83-4.33-1.68-5.8-3.63l34.29-.23a5.46,5.46,0,0,1,3.83-1.7c2.27-.41,4.4-.39,5.76,1.94L83.91,432A1.57,1.57,0,0,1,81.62,431.81Z"/><path class="cls-138" d="M5,448.19c1.38-8.59,6.18-14.7,13.7-18.71,2.39-1.28,5-2.2,7.47-3.29,2.28,1.62.27,2.25-.77,2.73-8.2,3.74-14.64,9.13-17.45,18.12C7.51,448.43,6.25,448.5,5,448.19Z"/><path class="cls-139" d="M114.29,501.23l-11.14,13.71c-.2-1.23-.41-2.46-.62-3.69,1.52-3.24,3.87-5.86,6.18-8.52,1.06-1.21,3-2.33,1.12-4.36l1.28-2.47c1.07-5.49,5.43-8.47,9.07-12a8.37,8.37,0,0,0,2.74-2.84c3-2.52,5.2-6.13,9.66-6.36a3.49,3.49,0,0,1,3,4.55c-5,7.18-12.47,11.86-18.11,18.37a12.33,12.33,0,0,1-2,2.05C115.11,500.19,114.72,500.72,114.29,501.23Z"/><path class="cls-140" d="M92.17,567.08c2.36-.86,4.69-1.82,7.08-2.56,4.82-1.49,8.48-4.23,10.31-9.11l.3-.38c4.3-3.35,7.81-.8,11.37,1.53,2.94,3.52,4.37,7.35,2.35,11.88a4.31,4.31,0,0,1-1.81,1.22c-8.43.77-16.87.28-25.31.27C94.58,569.93,92.33,569.94,92.17,567.08Z"/><path class="cls-141" d="M92.17,567.08c3.15,2.49,6.78,1,10.17,1.12,6.83.21,13.67,0,20.5,0a2.2,2.2,0,0,1-.26,3.14c-11.78,1.26-23.58,2.85-35.2-1.14-.09-.28-.18-.56-.26-.84a3.31,3.31,0,0,0,2.55-2.2Z"/><path class="cls-8" d="M64.76,600l-9-1.61C59.16,596.23,62.19,596.53,64.76,600Z"/><path class="cls-142" d="M107.28,425.73c-.91-3.18-.56-7.22-5.49-7.59-.55,0-1.41-1.5-1.42-2.31-.1-5.64-1.47-11.41,1.39-16.8,5.31-5,13.13-3.72,16.46,2.21,2.36,4.21,4.27,8.4,4.38,13.26,2.85,2.74,6.68,2.41,10.15,3.22,10.54.89,18.84,6.31,26.38,13.22,1.58,1.46,3.24,2.92,3.69,5.22-1.62,6.33-7,9.44-11.52,13.22-1.53,1.29-3.64.32-5.37-.9-2.84-2-5.45-4.39-8.73-5.71-3.18-1.53-6.75-2.67-9.1-5.32-3.66-4.12-7.66-4.06-12.18-2.12a14.75,14.75,0,0,1-5.26-.26C105.89,433.69,104.77,430.56,107.28,425.73Z"/><path class="cls-143" d="M107.28,425.73c-.6,6.64.29,7.31,9.7,7.34,6.22,1,9,6.69,13.53,10a50.27,50.27,0,0,1,15.88,19.56c1.18,2.57,2.39,5.16.42,7.8-2.25,3-5,1.23-7.51.47a31.62,31.62,0,0,1-3.7-.91,46.29,46.29,0,0,1,5.54,1.55c2.26.81,4,2.2,3.27,4.8-.64,2.44-2.94,2.18-4.9,2.28a5.63,5.63,0,0,1-4.81-1.74l-2.31-1.4c-2.75-.36-4-2.54-5.55-4.45-1.54-2.57-4.26-3.87-6.27-5.92-.6-.89-1.2-1.78-1.74-2.71-3.58-3.53-6.87-7.39-11.15-10.15-1.58-.81-2.22-2.8-5.14-1.51a8.43,8.43,0,0,1-10.31-2.95c0-.28,0-.55-.08-.83,1-6.16-.57-12.8,5.13-18C100.48,426.09,104.15,427.31,107.28,425.73Z"/><path class="cls-144" d="M75.51,489.69c.37-5.37,2.78-8.44,8.58-7.75,4.75.56,7.38-1.37,7.77-6.36.51-6.66,5.47-12.89,1.91-19.95-2.39-1.57-2.26-3.58-1-5.79,5.33-.09,10.79-.94,15.57,2.48,2.47,2.8,1.25,6.35,2,9.51a11.87,11.87,0,0,1,.2,1.88,7.55,7.55,0,0,1-1,5.29c-2.42,5.54-7.9,8.52-11.13,13.38A12.25,12.25,0,0,0,96,485.67c-1.28,1.95-2.47,4-3.9,5.79-2.18,2.79-4.72,4.52-7.48.8-2.13-2.87-3.08-.53-4.37.7-1.35,1-2.83,2.71-4.46,1.52S75.07,491.34,75.51,489.69Z"/><path class="cls-145" d="M93.64,449.76c-.71,2-.21,3.92.13,5.87.61,4.75-1.22,6.7-6.19,6.31a127.81,127.81,0,0,0-15.78,0c-4.79.22-4.83-1.88-3-5.23,3.33-6.09,7.87-10.66,15-11.87,2.34-.39,4.69-1.78,7,.11L92.15,447l.78,1C93.11,448.59,93.48,449.13,93.64,449.76Z"/><path class="cls-146" d="M90,429.61l-6-.24c-3.47-5.45-1.43-11.4-1.38-17.14,0-1.74,2-2.24,3.53-2.59,3.61-.09,7.3-1.16,10.7,1,.19,4.65-.87,10.18,7.11,9.89C98.65,422.92,93.61,425.22,90,429.61Z"/><path class="cls-147" d="M121.65,416.73c-2.05-1-2.07-2.81-1.65-4.52.66-2.75,1.06-5.13-2.7-5.67-.32,0-.83-.45-.84-.71-.32-10.67-8.41-5.82-13.54-6.85a4.57,4.57,0,0,0-1.16,0,13,13,0,0,1-3-1.7c-1-.92-1.9-2.2-1.37-3.63.62-1.71,2.3-.91,3.54-1s2.72,0,4.07,0c5.19-4.69,9.8-1,14.52,1,5.55,4.06,8.45,12,6.51,18.1C125.33,414,124.34,416.18,121.65,416.73Z"/><path class="cls-148" d="M119.37,395c-4.84-.46-9.35-2.92-14.35-2.37-1.31-2.31.77-3.23,1.84-4.57,4.74-4.15,7.44-3.68,12.89,2.26C119.89,391.94,120.72,393.58,119.37,395Z"/><path class="cls-149" d="M90.83,444.92l-7-.1c0-1.3,5.43-.12,1.46-3.35-2.52-2-1.82-4.49,0-6.7.85-1.07,1.92-2.21,3.4-2,2,.33,1.21,2.13,1.35,3.36C90.33,439.07,90.56,442,90.83,444.92Z"/><path class="cls-150" d="M119.35,390.22c-3.69-3.52-7.76-4.8-12.49-2.12l-2.64-.12c6-5.15,8.42-5.15,15.14,0A1.48,1.48,0,0,1,119.35,390.22Z"/><path class="cls-151" d="M81.62,431.81l2.29.15c-2.31,3.12,1.12,8.15-3.48,10.5C80,438.81,81.28,435.37,81.62,431.81Z"/><path class="cls-152" d="M75.51,489.69c.27,1.24.16,3.21.87,3.56,1.54.78,1.52-1.71,2.73-2.13,1.88,2,1,3.49-1,4.69l-3.59.32C72.73,493.65,74.59,491.75,75.51,489.69Z"/><path class="cls-153" d="M56.77,240.86c1.78,8.09,2.82,16.32-.78,24-2.23,4.79-6.26,7.36-12.25,7.36-4.31,0-8.74,1.53-13.12,2.36-4.62.87-8.5-.79-12.6-1.78-3.21-.79-1.83-2.39-.07-3.46,2.18-1.32,4.59-2.3,5.8-4.79-.07-.18-.25-.48-.19-.54,6-6,4.05-13.44,3.73-20.59,0-.78,0-1.57,0-1.8-.42,3.78.59,8.05.57,12.35,0,5.64-8.76,12-14.1,10.29-4-1.27-2.22-4.28-2-6.82.8-8,1.43-16,2.44-23.89.78-6.17,3.22-11.65,8.32-15.59a3.18,3.18,0,0,1,2.33-1.86l11-4.07c4.69-.22,9-1.68,13.45-3.23,6.9-2.42,13.83-5.08,21.41-3.84,6.57,7,9.33,15.51,10.19,24.84-5.89,3.69-12.11,6.27-19.21,5.85a2.38,2.38,0,0,1,2.38.61,1.87,1.87,0,0,1-.21,1.58c-4,1.9-8.43,1.14-11.9,2.53C53.07,240.91,55.16,239.05,56.77,240.86Z"/><path class="cls-154" d="M11.76,257.48c-.49,5.39,1.45,5.81,6.34,4.26,6.33-2,8.69-5.21,8-11.89A56.42,56.42,0,0,1,26.42,233c2.84.72,2.17,2.61,2.25,4,.31,5.29.23,10.61.74,15.88s-.88,9.22-5.66,11.73L13,268C12.79,264.45,8.82,261.39,11.76,257.48Z"/><path class="cls-155" d="M24.85,216.14,22.52,218l-2.24-.8c.8-4.94-4.76-5.86-6-9.53l1.38-1.4,4.53,4.41A16.72,16.72,0,0,0,24.85,216.14Z"/><path class="cls-156" d="M122.83,570.56c0-.79,0-1.57,0-2.36v0c1.56-1.78,3.09-3.56,5.76-3.57,13.64-.1,27.29-.84,40.92.42,5.06,4.39,4.84,6-1.23,9.09-8.05,2.24-16.24,1.05-24.38.9-4.26-.08-8.54-1-12.69.69a7.27,7.27,0,0,1-4-.17c-4.12-1.57-8.42-.68-12.63-.79-5.52-.15-11,.08-16.53-.66H88.71l1.16-1.81c1.38-2.14,3.5-1,5.26-1.07C104.36,570.78,113.62,572,122.83,570.56Z"/><path class="cls-30" d="M127.68,575.18h3.43c2.92-1.71,6.16-1.19,9.18-.9,8,.76,16,.28,24,.47,1.87,1.72,1.73,2.07-1.17,3.07-2.18-1.94-4.84-1.22-7.31-1.23-23.25-.05-46.5,0-69.79-1.3h14.47C109.52,572.15,118.6,574.14,127.68,575.18Z"/><path class="cls-38" d="M127.68,575.18c-9.07.89-18.15-1.72-27.21.11l-2.37-1.14c9.32-2.33,18.73-1,28.11-.63C126.72,573.54,127.19,574.6,127.68,575.18Z"/><path class="cls-157" d="M163.1,577.82l2.37-2.42c.08-1.47,1.51-1.62,2.31-2.38,1.81-1.35,6.84-1.22,2.44-5.4.82-1.79,2-1.38,3.29-.58,1.24,3.45,1.23,6.21-3.07,7.58-1.49.48-2.61,2.12-3.91,3.23L164.16,580l-2.32-.18Z"/><path class="cls-158" d="M122.83,570.56c-1.43,2.5-3.86,1.46-5.84,1.5-9,.19-18.08.19-27.12.27l-3.4-.21c-.86-1.19,0-1.58.91-1.92C99.19,571.4,111,570.28,122.83,570.56Z"/><path class="cls-159" d="M78.11,495.81c.38-1.55,1.57-2.93,1-4.69.61-2.43,1.79-4.53,4.53-4.46s2.37,2.48,2.7,4.38c.47,2.64,1.89,2.13,3.06.55,1.85-2.48,3.51-5.1,5.24-7.67,8.1-3.11,16.46-1.36,24.72-1.32a2.44,2.44,0,0,1,2.54,2.65L111.11,495.9Z"/><path class="cls-160" d="M2.49,350.86l1.39.44c.77,5.39-1.43,11,1.2,16.24a6.28,6.28,0,0,1-3.78,3C3.81,364.1,1.85,357.4,2.49,350.86Z"/><path class="cls-161" d="M12,363.34q1.21-1.86,2.44-3.72c1.12-.6,2.07-1.78,4.13-.84C17.05,361.5,14.44,362.33,12,363.34Z"/><path class="cls-162" d="M120.18,557.62c-3.46-.78-6.64-2.68-10.32-2.59q-.54-2.94-1.06-5.89l11.57-.12c1.09-.29,1.67.32,2.11,1.19a11.72,11.72,0,0,1,.2,2.77C122.68,555,122.35,556.8,120.18,557.62Z"/><path class="cls-163" d="M82.5,201.73a21.28,21.28,0,0,0,17.16-5.64c5-4.42,10.43-8.24,15.67-12.32,7.08-2,10.93,2.48,14.62,7.29-12.82,16-27.8,29-48.11,34.39-2.17-.34-2.49-2.24-3.09-3.82-2.13-5.58-5.28-10.73-7-16.51,2.45-3.54,6.16-3.4,9.82-3.39C81.91,201.74,82.21,201.74,82.5,201.73Z"/><path class="cls-164" d="M132.66,182.85c.26-3.28.61-6.56.75-9.84.36-8.09,8-11.7,11.12-18.14.18-.38,2.82.44,4.32.7,8.19,4.35,8.18,4.34,1.62,11.07a20.82,20.82,0,0,0-3.43,4c-1.59,2.81-4.82,6.28-2.2,9,2.42,2.5,6.66,1.17,9.95-.46.87-.43,1.67-1,2.51-1.54,4.31,1,5.66,3.48,3.82,7.6-3.34,2.81-8.54,2.08-11.34,6.41-.93,1.45-4.07.15-6.06-.63-3.07-1.21-6.07-2.58-9.1-3.88C132.94,186.2,131.07,185.32,132.66,182.85Z"/><path class="cls-165" d="M62.57,272.81l-3.57,0q.2-8.89.4-17.78c.52-2.85,1.7-5.2,4.88-5.66a21.2,21.2,0,0,0,10.2-4.86c1.81,2,3.47,4.07,3.73,6.91,2,5.09.08,7.71-5.16,8.42a34.65,34.65,0,0,0-5.67,1.51C60,263.61,59.06,265.92,62.57,272.81Z"/><path class="cls-166" d="M74.48,244.48c.47,6.14-4.44,6.24-8.25,6.85-2.89.47-5.28,1.06-6.83,3.67q-.06-7.58-.11-15.15c.94-2,3.19-1.49,4.66-2.49l0,0a2.84,2.84,0,0,1,3.7-.47C70.28,239.12,72.88,241.35,74.48,244.48Z"/><path class="cls-167" d="M132.66,182.85q1,2.16,2,4.32L130,191.06c-2,0-4.21-.26-5.25-2-2.19-3.65-6.08-3.86-9.36-5.32,4.66-3.71,7.89-9,13.39-11.81C129,176,129.83,179.77,132.66,182.85Z"/><path class="cls-168" d="M161.12,185.26c-.51-2.92-2.47-5.1-3.82-7.6l5.89-6.09c5.5-.24,5.93,4.7,8,7.93l-1.11,3.27c.37,3.54-1.33,5.44-4.65,6.3-2.4.62-3.17-.63-3.58-2.58Z"/><path class="cls-2" d="M161.88,186.49c5.14,4.13,5.62-2.18,8.23-3.72,3.68,2.36,1.33,5.32.42,7.76-.82,2.18-2.67,1.18-4.42.39a3.64,3.64,0,0,0-5.24,2.16,4.34,4.34,0,0,1-3.88,3c-.94.16-2,.76-2.7-.2-.83-1.16-.15-2.29.73-3.1C157.31,190.67,160.23,189.29,161.88,186.49Z"/><path class="cls-169" d="M171.22,179.5c-3.95-1.34-4.71-5.94-8-7.93l6-8.68C173.53,168,172.75,173.69,171.22,179.5Z"/><path class="cls-170" d="M71.93,205.4c4.47,6.09,5.81,13.76,9.91,20-.61,1.53,1.25,3.31-.49,4.72-.39.54-.77.5-1.15,0-1.66-8.48-5.93-15.92-9.38-23.68C70.62,205.52,71,205.2,71.93,205.4Z"/><path class="cls-171" d="M80.2,230.15l1.15,0c-3.83,3.75-9.36,4-13.69,6.75l-3.69.47c-1.77-2-4.45-.75-6.57-2C65.48,235.5,72.9,233.08,80.2,230.15Z"/><path class="cls-2" d="M185.91,190.16c1.23.15,2.44.47,2.31,2s-1.4,1.78-2.51,2-2-.05-2.17-1.3C183.37,191.24,184.41,190.46,185.91,190.16Z"/><path class="cls-2" d="M199.59,180.69c-.87.05-1.61-.25-1.67-1.17-.07-1.15.86-1.66,1.79-2,1.13-.38,1.94.05,1.86,1.32S200.56,180.43,199.59,180.69Z"/><path class="cls-172" d="M71.93,205.4l-1.1,1.07c-7.24,1.43-14.52,2.67-21.71,4.34a41.91,41.91,0,0,1-13.27,1.26c4.8-1.63,9.71-3,14-5.74l9.21-7.14c5,2.62,10.16,1.27,15.26.73,2.75-.29,5.41-1.15,7.26,1.81C79.1,204.85,75.34,204.65,71.93,205.4Z"/><path class="cls-173" d="M184.32,425.89l3.45,1.19c0,3.56,0,7.13,0,10.69-1.21,3.52-3.25,5.17-6.95,3.14a3.28,3.28,0,0,1-1-2.52c2.12-5.8,2.12-5.84-4.36-6.55-1.77-.2-3.4-.5-4.51-2.07-1.81-3.08-3.37-6.17-.94-9.66.58.48,1.39.84,1.73,1.46C175.08,427.73,177,428.42,184.32,425.89Z"/><path class="cls-174" d="M180.67,440.17c2.72.22,5.31.08,7.12-2.4.33,2.37-1.6,4.73,0,7.1-2.56,2.62-6.15-.94-8.75,1.5-2.29.95-4.73.55-7.1.83-3.05-1.14-5.65-2.57-4-6.59C172.16,439.2,176.36,438,180.67,440.17Z"/><path class="cls-175" d="M179.55,444.28c-.3-2.63,1.38-1.38,2.36-1.14,2,.5,3.92,1.15,5.88,1.73,1.86,1.41,3.57,3.08,5.91,3.74.11,1.86,1.43,3.07,2.36,4.49a1.94,1.94,0,0,1,.29,2.45c-1.44.84-2.7.17-3.66-.74a49.27,49.27,0,0,0-11.8-8.19A2.24,2.24,0,0,1,179.55,444.28Z"/><path class="cls-176" d="M170,420.11l2.64,9.66a1.76,1.76,0,0,0,0,2c1.19,1.62,4.28,2.15,3.36,4.92-.77,2.35-3.25,2.53-5.32,3.08a10,10,0,0,1-6.87-.55c-1.19-.48-1.52-1.65-2.05-2.65-8.54-7.87-17.17-15.56-29.52-16.6a1.25,1.25,0,0,1-.23-1.11c2.18-4.77,2.19-4.76.44-8.89,2.27-5.59,3.71-11.67,9.34-15.2,1.11-.69.87-1.91.74-3.17-.59-5.38,2-9.21,6.19-9.4,4.5-.21,7.72,3.6,7.55,8.91-2.21,2.91-.24,3.76,2.06,5.16,6.41,3.92,7.8,13,2.91,18.06C164.25,416.14,167.67,417.3,170,420.11Z"/><path class="cls-177" d="M156.23,391.14c-.19-4.9-2.75-8.3-7.56-7.44-4.56.82-6.93,4.27-4.23,9.25a1.5,1.5,0,0,1-.88,2.33c-6.8,2.69-7.61,9.4-10.08,15-1.39.74-2.13-.11-2.46-1.24s.61-1.61,1.49-2c1.42-4.48,3.05-8.81,7-11.8a4.25,4.25,0,0,0,1.65-4c-.29-6.73,1.71-8.88,8.94-10.34a4.56,4.56,0,0,0,3.52,1.18C155.57,384.77,158.64,387.16,156.23,391.14Z"/><path class="cls-178" d="M184.16,550.33l-.45,1.32c-.21.76-.43,1.51-.65,2.27-2.84,3.76-6.88,2.52-10.62,2.6-2.33-.69-3.22-2.67-4.07-4.67-4-9.37-7.82-18.83-11.08-28.44a21.67,21.67,0,0,1,2.28-19,9.64,9.64,0,0,1,4.56-.76c8.15-.22,9.34,1.09,8.64,9.46a15.76,15.76,0,0,0,2.36,11.23C180.16,532.25,180.53,541.87,184.16,550.33Z"/><path class="cls-179" d="M176.4,496.29l-.06,1.66c-.18,1.35-.35,2.71-.52,4.06-.84,1.25.17,4.52-2.5,3.62-7.11-2.42-14.06-.86-21.1-.07-2.85-1.33-4-3.65-4-6.7a30.16,30.16,0,0,1,0-3.92,5.12,5.12,0,0,1,.9-3.46c.27-.3.76-.7.94-.56,3.73,2.93,6,1,7.85-2.34a2.52,2.52,0,0,1,2.74.48c3.67,3.3,7.05,2.47,10.47-.45,1.28-1.09,2.49-2.65,4.59-2Q176.07,491.43,176.4,496.29Z"/><path class="cls-180" d="M152.42,504.62c5.64-2.21,11.35-1.87,17.15-.72,2.3.46,5,1.63,6.25-1.89.94,4.24-2.55,7.26-3,11.09-.48-7.68-1.5-8.27-13-7.53-1.76,1.34-3.45,2.88-5.93,2.5C152.06,507.45,149.7,507.07,152.42,504.62Z"/><path class="cls-181" d="M202.49,515.77H175.71l0-.52h26.58Z"/><path class="cls-182" d="M132.51,407.05c-.62,1.37-1.11,2.69,1,3.23.74,2.5,3.54,2.67,5.09,4.46-1.32,2.8-5.24,2.38-6.36,5.26-3.66-.65-7.78.23-10.56-3.28,1.15-3.69,2.71-7.31,3.35-11.09.81-4.71-.12-9-5.63-10.59,0-1.61,0-3.21,0-4.82,0-.75,0-1.5,0-2.25,1.44,6.17,8.19,9.81,7.65,17.16C126.83,407.63,130.53,406.62,132.51,407.05Z"/><path class="cls-183" d="M64,237.36c-1.09,1.71-3.09,1.7-4.66,2.49l-2.51,1c-3.66.09-7.43.76-10.5-2.73C52.41,241,58,237.36,64,237.36Z"/><path class="cls-184" d="M152.58,261c.81-5.51-2-11.48,2.15-16.56,5.79-1.75,10-6.6,15.73-8.58C173.14,250.41,165.2,261.42,152.58,261Z"/><path class="cls-185" d="M153.66,264.59c4.66-2.85,9.37-5.63,14-8.6,2.41-1.56,3.52-1.29,3.48,1.76-.06,4.51-.08,9-.12,13.53a17.86,17.86,0,0,1-12.12,9.92c-2.31.57-4.64,1-5.8-1.94C153.3,274.37,152.28,269.43,153.66,264.59Z"/><path class="cls-186" d="M184.87,225.6c3.69-2.1,5.54-2.21,5.42,3.24-.25,11.89-2.67,15.26-16.91,20.36.6-6-1.45-11.8,1.6-17.36A31.1,31.1,0,0,1,184.87,225.6Z"/><path class="cls-187" d="M173.74,268c-3.34-11.25.66-18.79,11.44-22.94,1.41-.55,2.39-2.05,4.7-1.89v14.39C186.27,263.77,180.62,266.83,173.74,268Z"/><path class="cls-188" d="M189.83,261.49c1.2,12.25-2,16.68-13.79,19.91-2.4.65-3.3.16-3.25-2.25l.15-7C177.37,266.64,182.66,262.56,189.83,261.49Z"/><path class="cls-189" d="M190.18,308.39c-1.45,2.08-4.71,1.23-5.93,3.68l-.58.84c-3.66,1.12-7.12,4.79-11.18.88-.73-4.68-1.39-9.36.53-13.94a25.81,25.81,0,0,1,16.93-.64C190,302.27,190.1,305.33,190.18,308.39Z"/><path class="cls-190" d="M172.28,286c4.81-4.56,11.6-5.35,16.65-9.51,1.65,2.24,1,4.19,1,6.07.33,5.28-2.48,6.91-7.25,6.36-3.25-.38-6.65.78-9.77-1A1.77,1.77,0,0,1,172.28,286Z"/><path class="cls-191" d="M172.28,286l.47,1.19a5.19,5.19,0,0,1,1.37,2.92c.67,7.95-2.07,15.76-1,23.73,2.08,6.48,1.08,13.08.71,19.66l-.12,1c0,.46,0,.91,0,1.36-2.19,5-.09,10.24-1.21,15.28-2.57-3.22-.9-7-1.13-10.44-.18-2.64-.94-3.92-3.6-3.82l-.31-.76a31.45,31.45,0,0,0,1.47-11.25c-.11-2.35-1.13-3.51-3.35-3.81-1.4-.32-3-.23-3.94-1.59a2.89,2.89,0,0,1,1.93-3.73c5-1.89,5.63-5.79,5.29-10.33a22.77,22.77,0,0,1,.51-5.2,17.3,17.3,0,0,0-.06-2.88,17.72,17.72,0,0,1,.39-9,3.28,3.28,0,0,1,1.78-2.39Z"/><path class="cls-192" d="M189.86,290.67c0,1.52,0,3,0,4.56-1.7,4-5.32,2.86-8.4,3.17-8.53-.12-8.53-.12-8.29-7.47C177.28,288.16,186.55,288,189.86,290.67Z"/><path class="cls-193" d="M153.66,264.59q0,7.57.08,15.15c.39.75,1,1.36,1.35,2.12.54,3.68,2,4.9,5.95,3.4,4.88-1.87,7.94-4.61,7.85-10.12A2.29,2.29,0,0,1,171,274a40.46,40.46,0,0,1,0,11.1c-1.94,4.26-6.88,4.69-9.77,7.75-2.47,1.25-4.93,2.79-7.64.54-2.27-9.43-.77-19-1-28.5A6.1,6.1,0,0,1,153.66,264.59Z"/><path class="cls-194" d="M189.86,290.67l-16.05-.09a1.09,1.09,0,0,1-1.07-1.17c0-.73,0-1.47,0-2.21,3.5,0,7-.26,10.51.06,3.75.34,5.94-.95,6.63-4.69Z"/><path class="cls-195" d="M189.83,261.49,172.94,272.1c-.41-1.5.26-2.8.8-4.13l16.14-10.44C189.86,258.85,189.84,260.17,189.83,261.49Z"/><path class="cls-196" d="M153.68,282.38l.06-2.64c7.73,1.26,11.74-5.13,17.23-8.46,0,.89,0,1.79,0,2.68l-1,1.48C167.17,283.27,160.56,286.08,153.68,282.38Z"/><path class="cls-194" d="M182,296.71c2.69-.29,5.54.25,8-1.47,0,1.32,0,2.64,0,4l-16.13,1.19c-1.43-2.34-.2-3,1.93-3.18S180,297.7,182,296.71Z"/><path class="cls-197" d="M160.54,290.81c2.86-3.09,7-3.73,10.47-5.75a3.39,3.39,0,0,0,.44.92l-.63,2.58C168,291.88,164.78,293.8,160.54,290.81Z"/><path class="cls-198" d="M184.87,225.6c-2.85,2.8-6.33,4.58-9.89,6.24l-.09-1.37,8.09-5.06Z"/><path class="cls-199" d="M120.18,557.62q.3-3,.59-6a11.38,11.38,0,0,1,6.71-1.71c12.74.07,25.47-.11,38.2.1,4.91,1.34,5.26,6.32,7.62,9.7a9.37,9.37,0,0,1,.29,1.76c-1.72,1.85,0,3.75-.08,5.63l-3.29.57c-15.8-.23-31.61-1.06-47.39.62Q121.51,562.93,120.18,557.62Z"/><path class="cls-200" d="M172.4,555.2c3.42-1.57,7.11-.88,10.66-1.28,1.78,2.58,1.54,5.43,1.1,8.3-3.55,0-6.94-2-10.57-.8l-.08-.51C172.31,559.17,170.79,557.49,172.4,555.2Z"/><path class="cls-201" d="M186.7,567.22l16.18.17c-2.88,2.6-6.75,2.9-10.13,4.35C188.16,573.71,186.1,572.26,186.7,567.22Z"/><path class="cls-202" d="M175.75,486.57a14.17,14.17,0,0,1-4.06,4.92c-5.42,4.14-9.46,3.35-13.34-2.76-5-3.17-.9-6.76-.47-10.18.62-2.06,2.91-2,4.11-3.35,3.24-5.33-.15-10.42-.55-15.61-.24-1.51-1.24-2.74-1.57-4.22.81-4.57,2.56-5.72,5.82-3.24a20.16,20.16,0,0,0,8.27,4c2.74.58,4.1,2.47,3.93,5.64a104.22,104.22,0,0,0,.39,17.66c-.37,2-1.7,3.64-1.72,5.71Z"/><path class="cls-203" d="M176.56,485.17c-.15-1.89-.31-3.79-.46-5.69,2-3.34-1.72-8,2.49-10.85l20.14.19c-3.27,3.07-6.72,6-8.54,10.27-1.15,2.69-3.33,2.85-5.76,3a12.85,12.85,0,0,0-6.14,1.77l7.14.42C182.61,485.92,179.54,485,176.56,485.17Z"/><path class="cls-95" d="M167.74,336.92a22.07,22.07,0,0,1-11.85,3.54l.09.1c2.13-5.57,6.14-6.78,11.8-3.57Z"/><path class="cls-204" d="M82,306.19,82,301.54c5.18,2.42,8.66-1.18,12.49-3.54,1.91,1.7.79,3.79.74,5.74C91,305.64,87,308.25,82,306.19Z"/><path class="cls-205" d="M150.78,302.71l.25,18.55c-1.84,5.18-7.66,4-10.92,7a3.48,3.48,0,0,1-4.3-.73c-2.87-.38-2.45-2.62-2.45-4.52,0-6.31.06-12.61.1-18.92,3.9-3.17,9-2.8,13.45-4.68C148.9,298.52,150.37,300.52,150.78,302.71Z"/><path class="cls-206" d="M150.74,326.45c-.55,5.15,2.63,10.75-1.81,15.44-3.79.85-7.64,1.48-11.34,2.61-3.2,1-4.33,0-4.23-3.18s.07-6.65.11-10C138.9,328.57,143.62,323.22,150.74,326.45Z"/><path class="cls-207" d="M115.79,351.33c-3.86-3.87-1.57-8.59-1.76-13,4.51-5.47,11.17-7.8,16.72-5.85.78,13.1.78,13.09-11.43,17C118.05,349.92,116.58,350,115.79,351.33Z"/><path class="cls-208" d="M113.6,314.23c1.08-4.63-1.22-9.49,1-14a11.59,11.59,0,0,0,9.76,1.58c2.08-.6,4.51-1.28,6.36.9.1,8.77,1.52,17.58-.62,26.3l-.74-.4c-2.87-3.85-1.7-8.34-1.61-12.53.09-4.49-1.48-4.81-5.15-3.5-2.53.91-4.67,3-7.63,2.68A2.44,2.44,0,0,1,113.6,314.23Z"/><path class="cls-209" d="M130.67,302.67c-3.77.83-7.42,2.14-11.36,2.32-3.6.16-5-1.37-4.76-4.8l0-.09c3.62-6.93,10.5-6.35,16.72-7.3a2,2,0,0,1,0,2.55Z"/><path class="cls-210" d="M133.81,302.29c-1.91-2-1.22-4.63-1.65-7a3.18,3.18,0,0,1,0-2.79,5.51,5.51,0,0,1,3.16-2.21,26.88,26.88,0,0,0,8.36-1.6,6.39,6.39,0,0,1,6,.95c2.19,3.28.9,5.39-2.27,7-3.66,1.79-7.64,2.91-11,5.27A2.8,2.8,0,0,1,133.81,302.29Z"/><path class="cls-211" d="M133.81,302.29a1.64,1.64,0,0,0,.82-.74c5-3,10-6.14,16.2-6,0,2.39,0,4.78-.05,7.17-1.15-.93-2.17-2.76-3.9-1.54-4.11,2.91-8.89,2.2-13.42,2.88C133.58,303.47,133.7,302.88,133.81,302.29Z"/><path class="cls-212" d="M132.44,293.19c-.09.71-.19,1.41-.28,2.12a5.07,5.07,0,0,1-.87,0c-.15-.71-.31-1.42-.46-2.13a4.34,4.34,0,0,1-1.41-3.42c-.06-.64-.13-1.27-.21-1.9-.6-5.08-1.38-10.15.07-15.22a4,4,0,0,1,1.63-3.37q.18-8.28.34-16.55c2.32.8.34,3.81,2.41,4.73,2,3.54,1.11,7.27.78,11a18.73,18.73,0,0,0,.16,3.51,20.55,20.55,0,0,0,.29,4.29,7.78,7.78,0,0,1-.33,1.73c-.81,2.69-.14,5.34.23,8S135,291.37,132.44,293.19Z"/><path class="cls-213" d="M113.6,314.23a5.16,5.16,0,0,0,1,.27c3.13,2.17,2.42,5.52,2.53,8.57.22,6.38.19,6.42,6.13,5,2.32-.54,4.59-1,6.8.29l0,.57c.32.65.63,1.3.94,1.94-5.42,1.72-10.53,4.57-16.43,4.49C112.32,328.43,113.6,321.3,113.6,314.23Z"/><path class="cls-214" d="M150.74,326.45c-6.15.24-11.61,2.91-17.28,4.89-1.5-2.68,2-2.3,2.35-3.85l3.54-.82c3.79-1.2,7.36-3.4,11.59-2.61Z"/><path class="cls-215" d="M114.56,335.4c5.51-1.37,10.72-3.87,16.43-4.48l-.24,1.58A61.34,61.34,0,0,0,114,338.35,2.5,2.5,0,0,1,114.56,335.4Z"/><path class="cls-216" d="M112.18,351c0,.93,0,1.85,0,2.78-5-.34-9.34,2.77-14.23,3.15-.26-.85-.51-1.7-.77-2.55C101.58,350.59,106.52,349.18,112.18,351Z"/><path class="cls-217" d="M84,345c-3.8-5-1.53-10.69-1.89-16.09,4.36-5.45,7.93-6.87,12.63-5,.24,3.72.36,7.45.75,11.16.29,2.77-.86,4.85-2.51,6.82C90.9,345.53,89.11,346.15,84,345Z"/><path class="cls-218" d="M112.18,351a48.28,48.28,0,0,1-15,3.39c0-3.73.07-7.45.1-11.17,5-4.77,10.37-6.1,14.74-3.65Z"/><path class="cls-219" d="M83.71,325.05c-3.49-3.5-1.31-7.77-1.56-11.71a9.57,9.57,0,0,1,12.49-3.22,14.79,14.79,0,0,1-.31,11.15C91.19,323.67,87.94,325.75,83.71,325.05Z"/><path class="cls-220" d="M112,307.36q0,10,.08,20.09c-1.82.33-2.2-1.15-2.87-2.3-.91-1.56,0-5-3.65-3.8-2.68.88-4.92,2.13-5,5.6-.11,3.89.46,7.82-.54,11.68-.81,1-1.64,1.86-2.81.44l0-42.25c.83-2.6,2.22-4.2,5.21-3-.2,3.82,2.23,6.39,4.34,9.11-.38,1.94-1.86,2-3.39,2-.37,0-.74,0-1.11.05.45.46,1.2.21,1.65.71,1.16,2.62-1.5,3.2-2.48,4.67a2.14,2.14,0,0,0-.35,2.19c.59,1.18,1.57.59,2.5.43C107.27,312.37,108.28,307.8,112,307.36Z"/><path class="cls-221" d="M82.9,359.35c-1.56-3.41-.92-7-.72-10.52,3.3-3.89,7.38-5.68,12.5-4.66C95.2,355.52,95.2,355.52,82.9,359.35Z"/><path class="cls-222" d="M112.1,283.39a4.65,4.65,0,0,1-.69,4.1c-1.8,1.32-3,3.59-5.6,3.7-2.89-.25-6.13,1.25-8.5-1.69l-.12-7.25C103.15,278.83,109.62,279.33,112.1,283.39Z"/><path class="cls-223" d="M82,306.19c4.25-1.6,8.42-3.61,13.18-2.45l-.6,3.34c-3.59,3.09-7.65,4.37-12.33,3.15Z"/><path class="cls-224" d="M112,339.55c-5.36-.62-9.74,2.76-14.74,3.64v-2.52c2.85-1.89,5.6-3.9,9-4.76,2.15-.54,4.13-.86,5.88.89Z"/><path class="cls-225" d="M83.71,325.05l10.63-3.78c1.19.73.72,1.7.36,2.65-4.82.12-8.37,3.47-12.64,5C81.32,327.09,82.3,326,83.71,325.05Z"/><path class="cls-226" d="M112.1,283.39c-4.7-3.85-9.83-2.21-14.91-1.14,0-.74,0-1.48,0-2.22l14.81-1.14C112.07,280.39,112.09,281.89,112.1,283.39Z"/><path class="cls-227" d="M94.68,344.17c-4.66.22-8.44,2.84-12.51,4.66-.91-2-.29-3.23,1.79-3.81l9-3.12C95.11,341.42,95.29,342.49,94.68,344.17Z"/><path class="cls-228" d="M82.29,310.23a56.39,56.39,0,0,0,12.33-3.15c.8,1,.39,2,0,3a37.87,37.87,0,0,0-12.49,3.21C82.2,312.3,82.24,311.27,82.29,310.23Z"/><path class="cls-229" d="M106.7,289.55c1.41-1.06,2.6-2.63,4.71-2.06l-.29.45c.23,5.37-3.77,5.7-7.5,6.37l-.86-.18a12.73,12.73,0,0,0-5.52,2.69c0-.91-.09-1.82-.13-2.73C99.19,290.21,103.49,291,106.7,289.55Z"/><path class="cls-230" d="M106.7,289.55a24.6,24.6,0,0,1-9.59,4.54c.06-1.53.13-3.06.2-4.59Z"/><path class="cls-231" d="M112.17,336.8l-14.91,3.87c0-.53,0-1.07,0-1.6l2-.86c3.42-4.2,7.56-6,12.85-3.85Z"/><path class="cls-232" d="M184.25,312.07c4.55-1,6.19.22,6,5.42-.43,12.11-.09,12.12-11.57,15.48-1.67.49-3.33,1-5,1.57v0c-1.34-5.23-.31-10.55-.61-15.81-.14-2.44,1.47-3.4,3.46-4.13,2.57-.94,5.28-1.45,7.78-2.59Z"/><path class="cls-233" d="M185.16,333.26c6.73,1.56,3.5,6.84,3.4,10.46-.09,3.13-3.11,4.35-6.15,3.68-4-.87-7.29-2.92-8.32-7.2-.38-1.59,1.23-2.28,2.49-2.8,2-.8,4.18-1.12,5.37-3.2Z"/><path class="cls-234" d="M67.34,364.18a9.39,9.39,0,0,0,0-1.06c2.41-4.26,6.39-4.67,10.65-4.42a2,2,0,0,1,1.26,1.15c.32.8.63,1.6.94,2.4C75.64,361.32,71.75,364.49,67.34,364.18Z"/><path class="cls-235" d="M195.66,455.49c.13-.79.27-1.59.4-2.39l8.5,1.36c1.06,6.65-2.57,7.91-8,7.06C194.3,459.79,194,457.79,195.66,455.49Z"/><path class="cls-236" d="M171.07,300.4c1.54,9.27.64,17.25-10.41,19.85-1.35,2.58-3,3.41-5.39,1.11-2.77-.42-2.53-2.63-2.54-4.53,0-5.48.05-11,.09-16.45C158.91,297.06,165,297.45,171.07,300.4Z"/><path class="cls-232" d="M167.78,337c-4.21.27-8.32.88-11.8,3.57-2.38-.1-3.31-1.35-3.21-3.72.18-4.21.2-8.42.28-12.63,4-3.16,9.54-2.54,13.52-5.71,3-1.43,4.77-1.1,4.65,2.79a65.91,65.91,0,0,0,.12,9.84C171.71,334.27,169.69,335.49,167.78,337Z"/><path class="cls-237" d="M132.93,269.11c-.76-3.94-1.09-7.85.73-11.62l3.36-1.82c3.12-3,6.93-4.9,10.49-7.19,1-.61,2.22-2,3.51-.28-.37,5.52,1.22,11.14-.86,16.57-2.44,4.81-6.6,7.06-11.67,8C136.36,272,134,271.47,132.93,269.11Z"/><path class="cls-238" d="M150.12,265.84c1.84,4.55.8,9.23.68,13.87-5.6,3.66-14.26,2.93-17.09-1.44.21-2.21.53-4.47,3-5.19C141.76,271.65,145.62,268.15,150.12,265.84Z"/><path class="cls-239" d="M160.54,290.81l10.28-2.25a29,29,0,0,1,.17,9.11c-6.21,1.79-12.4,3.07-18.24-1.14a3.3,3.3,0,0,1,.85-3.18Z"/><path class="cls-240" d="M152.75,296.53c6,1.7,12.11,1.53,18.24,1.14,0,.91.06,1.82.08,2.72l-18.25,0C152.8,299.09,152.77,297.81,152.75,296.53Z"/><path class="cls-241" d="M150.83,295.54l-16.2,6c2.55-4,7.18-4.39,11-6.24,2-1,4.82-1.21,4.36-4.58-2.08-1.7-2-4.13-2.18-6.48a3.35,3.35,0,0,1,1.5-3,1.91,1.91,0,0,1,1.63-.14A69.69,69.69,0,0,1,150.83,295.54Z"/><path class="cls-242" d="M150.12,265.84c-4.14,4.93-10.42,6.59-15.41,10.22-.25.85-.67.94-1.25.29-.55-1.12-1.33-2.18-.92-3.55,1.76-1.49,3.86-1.43,6-1.31l11.65-6.72A6.35,6.35,0,0,1,150.12,265.84Z"/><path class="cls-243" d="M133.46,276.35l1.25-.29c-.22,2.77,1,3.93,3.79,3.84,4.1-.14,8.2-.13,12.3-.19,0,.46.07.93.1,1.39a3.06,3.06,0,0,0-.89.22c-2.65,1.8-5.77,2.46-8.77,3.16-6.35,1.5-8.79-1.13-7.7-7.9Z"/><path class="cls-244" d="M151,248.2c-5.5.91-8.79,6-14,7.47,3.21-4.72,8-7.09,13.18-8.81Z"/><path class="cls-245" d="M166.57,318.5c-3.6,4.07-8.85,4.19-13.52,5.7-.13-1.62,1.54-1.83,2.21-2.84l5.41-1.11Z"/><path class="cls-246" d="M150.94,324.06c-3.91.67-7.52,2.66-11.59,2.61,3.15-3.43,8.31-2.47,11.68-5.41Z"/><path class="cls-247" d="M68.61,349.64c-4.49-4.47-1.54-9.93-2-14.94,4.21-5,7.72-6,12.76-3.7,1.06,5.06,1.53,10.12-.41,15.1C76.84,351.19,73,351.24,68.61,349.64Z"/><path class="cls-248" d="M67.7,331.92c-2.49-4-1.13-8.28-1-12.48,4.38-5,8.23-6.45,12.67-4.69a19.5,19.5,0,0,1-.42,12.6C76,331,72,331.7,67.7,331.92Z"/><path class="cls-249" d="M67.7,316.53c-2.57-4-1-8.37-1.18-12.59,4.19-2.26,8.42-2,12.66-.18l.6,7.95C76.31,314.72,72.08,315.82,67.7,316.53Z"/><path class="cls-250" d="M67.7,316.53c3.43-3.11,8-3.24,12.08-4.82-.15,1-.31,2-.46,3-4.55.67-8.48,3-12.68,4.68C66.45,318.27,66.48,317.18,67.7,316.53Z"/><path class="cls-251" d="M68.61,349.64c3.49-1.07,7.33-1.11,10.36-3.54,1.17.79,1.15,1.89.78,3.09a10.06,10.06,0,0,1-3.08,2.87c-3.25,1.11-6.45,3.06-10,.81C66,351,67,350.11,68.61,349.64Z"/><path class="cls-252" d="M67.7,331.92l11.2-4.57c1.45,1,.51,2.41.47,3.65-4.65-.14-8.66,1.91-12.76,3.69C66.37,333.53,66.49,332.52,67.7,331.92Z"/><path class="cls-253" d="M79.18,303.76l-12.66.18c0-.83-.06-1.65-.08-2.48l12.74-.39Z"/><path class="cls-247" d="M76.67,349.82a3.24,3.24,0,0,1,3.09-.64c.46,3.59,1.34,7.2-.55,10.67a3.12,3.12,0,0,0,.05-.68C75.79,356.79,77,353.08,76.67,349.82Z"/><path class="cls-254" d="M112.12,334.36l-12.85,3.85c-2.34-4.71-1-9.69-1-14.54,0-1.89,9.17-7,11-6.48s1.64,2,1.76,3.35c.2,2.32-.48,4.78,1,6.91Z"/><path class="cls-255" d="M112,307.36c-.89,3.57-2.57,6.61-6.44,7.39-2.4.48-4.73,5.05-7.21,1-2.11-3.47.37-7.53,4.68-9a4.87,4.87,0,0,0,1-.63c2-1.66,3.87-4,7-2.13C111.57,305.05,112.46,306,112,307.36Z"/><path class="cls-256" d="M106.48,302.57c-.38-.08-.76-.14-1.13-.23-8.3-2.06-8.3-2.06-2.59-8.2v.08c8.59-3.3,8.59-3.3,9.16,5.87a2.8,2.8,0,0,1,0,1.08C110.38,302.66,108.84,304.24,106.48,302.57Z"/><path class="cls-257" d="M130.93,289.62c0,1.2-.06,2.4-.1,3.6l-16.3,6.88c-1-4.38-1.8-8.76.06-13.14l.7.29a14.83,14.83,0,0,1,2.09,2.18C121.88,291.54,126.43,289.06,130.93,289.62Z"/><path class="cls-258" d="M106.48,302.57l5.46-1.4c.45,1.19.38,2.21-.92,2.83l-7,2.13-5.79-.29Z"/><path class="cls-259" d="M111.92,300.09c.24-7.14-3.25-8.4-9.16-5.87,2.34-2.69,6.78-2.56,8.36-6.28C113.35,291.86,111.9,296,111.92,300.09Z"/><path class="cls-260" d="M113.59,284.61l2.3-.91c1.46-3,3.85-4.13,7.1-3.45,3.24,3.09,0,4.43-1.76,5.88a6.07,6.07,0,0,1-6.56,1.26l-.08-.43C114.26,286.18,113.92,285.4,113.59,284.61Z"/><path class="cls-261" d="M114.67,287.39c2.45-2.57,7.24-2.17,8.26-6.57-2.67-1.1-5.78,2.47-8.23-.79.41-2.75-1.69-6.71,3.42-7.2,4.52-3.21,8.22-3.19,12.68.08v15.35a21.44,21.44,0,0,1-16,2.47Z"/><path class="cls-262" d="M130.8,272.91l-12.68-.08c-.76-1.07-3.07-.53-2.87-2.37.18-1.54,1.83-2.16,3.11-2.21,4.21-.15,8.54-1.3,12.55,1.06C130.87,270.51,130.84,271.71,130.8,272.91Z"/><path class="cls-263" d="M118,265.58c2.48-1.74,4.89-3.63,7.49-5.17,1.18-.7,2.59-2.69,3.93-1.2.82.91.46,3,.47,4.49,0,1.79-.83,3.05-2.73,3.11-2.89.08-5.78,0-8.67,0Z"/><path class="cls-264" d="M114.7,280a60.19,60.19,0,0,0,8.14-.73c2.24-.32.15,1,.09,1.52l-7,2.88A3.77,3.77,0,0,1,114.7,280Z"/><path class="cls-265" d="M178.59,468.63c-2.12,3.31-.66,7.47-2.49,10.85a49.09,49.09,0,0,1,.76-12.26c1.35-6.39,0-7.86-6.46-8.65-2.73-.33-4.43-2.24-5.79-4.49-.62-1-1.42-2.2-2.72-1.46s-.3,2.1-.16,3.19c-4.52,1.16-6.82-2.38-9.62-4.72a1.81,1.81,0,0,1,.13-2.64c4.14-3.08,6.53-8.22,11.72-10a4.57,4.57,0,0,1,4,3.14l4.1,4.21c7.71,2.92,10.23,8.89,6.72,15.94l-.21,2.1C178.57,465.41,178.58,467,178.59,468.63Z"/><path class="cls-266" d="M76.67,349.82c4.44,2.12,1.73,6.23,2.59,9.35l-12,3.95c-1.68-3.33-.76-6.82-.62-10.25Z"/><path class="cls-267" d="M63.82,337,64,350.3a3,3,0,0,1-.34.7c-1.17,3.34-3.15,3.23-5.55,1.3-2.92.6-4-.84-3.84-3.56s.25-5.5.38-8.26C57,337.62,59.74,335.45,63.82,337Z"/><path class="cls-268" d="M60.38,366.05c-8.18-1.37-8.45-1.81-6-9.62,3.07-2.33,6.37-3.74,10.31-2.63C65.07,358.53,66.27,363.56,60.38,366.05Z"/><path class="cls-269" d="M64.74,353.8l-10.31,2.62c-.83-3.2,2.39-2.78,3.65-4.12a7.32,7.32,0,0,0,5.55-1.3A2.29,2.29,0,0,1,64.74,353.8Z"/><path class="cls-270" d="M64.76,320.36l-1,1.09L55.67,323c2.4-2.79,5.74-3.32,9.08-3.85C64.75,319.54,64.76,320,64.76,320.36Z"/><path class="cls-271" d="M178.78,461.7c-.32-6.13-2-11.66-6.72-15.94,2.25-1.73,5-1,7.49-1.48a24.33,24.33,0,0,1,16.11,11.22c.29,2,.57,4,.86,6Z"/><path class="cls-249" d="M63.89,303.88c0,3.12,0,6.23,0,9.35a4.61,4.61,0,0,1-2.7,4.68c-4.64,2.31-5.54,1.85-5.54-3.47,0-3.5.1-7,.16-10.5Z"/><path class="cls-272" d="M121.8,550.29,120.37,549c.9-9.07.27-18.14.06-27.21-.06-2.48-.7-5.33,2.7-6.39,8.58-3.15,17.45-1.74,26.23-1.63,2.07,0,3.64,1.32,5,2.82,4.17,10.17,8.88,20.12,12.81,30.4a3.5,3.5,0,0,1,0,2.87c-.79,1.12-2,1.17-3.16,1.17h-40A2.87,2.87,0,0,1,121.8,550.29Z"/><path class="cls-273" d="M153.28,518.44c-1.63-2.63-4.24-2.26-6.79-2.36-7.79-.3-15.61.81-23.36-.66l3.9-4.82a4.22,4.22,0,0,1,3.11-2.33c3.26-.75,4.84-3.63,7.06-5.68s4-4.25,7-4.9c2-.6,4-1.4,5.83.4,1.11,2.06,0,5,2.41,6.52-1.36,2.22.5,1.72,1.57,1.89C156.79,510.66,157.41,514.69,153.28,518.44Z"/><path class="cls-274" d="M131.15,510.46c-1.37.06-2.75.11-4.12.15-3.13-4.67-8.59-6.14-12.74-9.38-1-.82-2.63-1.64,0-2.51C121.94,499.27,129.5,504.53,131.15,510.46Z"/><path class="cls-275" d="M63.82,337c-3.5,0-6.24,2.06-9.2,3.5,0-.82,0-1.64,0-2.46,2.16-.9,4.32-1.81,6.49-2.7C62.71,334.64,63.7,335.07,63.82,337Z"/><path class="cls-276" d="M86.11,409.64c-3.65,3.07-1.79,7.26-2.11,11-.25,2.9,0,5.84,0,8.76H80.39c-.49-6.56,1.13-13.23-1-19.69Z"/><path class="cls-277" d="M134.7,476.92a13,13,0,0,0,2.34-.05c2-.4,5.22,1.27,5.72-1.17.7-3.34-3.08-3.32-5.25-4.3-1.57-.7-3.23-1.18-6.31-2.28,4.48-.59,7.06.88,9.78,1.37,1.78.33,3.56.69,4.76-1.11,1.09-1.62-.1-2.88-.78-4.3a57.67,57.67,0,0,0-17.77-21.5c-3.85-2.91-6.84-7-10.21-10.51,4.62-2.57,8.55-3,12.07,2.21,2,2.92,5.71,4,9.16,4.86,4.33,6.43,11.25,9.57,17.36,13.74,2.88,2,6.2,3.51,7.36,7.27.24,3.84,1.15,7.57,1.75,11.35.46,2.83-.57,4.42-3.33,5-8.08,3.32-16.65,2.23-25,2.87a3.33,3.33,0,0,1-1.75-1.11Z"/><path class="cls-278" d="M134.57,479.23l1.39-.11a132.19,132.19,0,0,1,22.51-.08c.68.39,2.75.51,1.8,1.2-3.36,2.44-2.33,5.45-1.92,8.49.6,4-1.18,7.72-4.55,8.45-3.88.85-1.45-4.53-3.73-6a5.44,5.44,0,0,1-2.57,1.36c-8.24-1.68-15.91-.64-23,4.24-2.52,1.72-5.58,3.36-8.55.35C121.58,490.56,127.35,484.13,134.57,479.23Z"/><path class="cls-279" d="M96.33,482c3.21-5.12,7.84-9,11.62-13.65,7.19-3.68,14.08-2.79,20.78,1.33l3.66,5.89L124,482.6c-6.49,1.72-13-.19-19.54.07C101.86,482.77,98.73,485,96.33,482Z"/><path class="cls-280" d="M115.91,497.1c3.66.55,6.42-1.67,9-3.53,7.22-5.23,15-4,22.84-2.66-1.89,3.22-4.45,1-6.79.92,2.12.46,4.39.71,5.11,3.33a3.14,3.14,0,0,1-1.81,3.62c-3.13,3.4-6.32,6.77-9.38,10.24-1.06,1.22-1.86,2.61-3.73,1.44-4.7-5.25-11.48-7.49-16.88-11.74Z"/><path class="cls-281" d="M96.33,482l27.66.66-2.09,2.64c-4.79-2.55-9.93-.79-14.9-1.17-4.1-.32-8.24-.13-12.36-.16C94.67,482.81,95.56,482.43,96.33,482Z"/><path class="cls-282" d="M161.71,460.52c-4.89-3.53-9.83-7-14.65-10.6-3.56-2.67-7.34-5.2-8.85-9.78,12.89,10.36,12.89,10.36,23.51-3.54l2.4,1.24c.49.22.65.42.48.63a.68.68,0,0,1-.5.29c-3.1,3-6.12,6-9.32,8.85-1.67,1.49-2.38,2.47.08,3.82s4.59,2.9,6.87,4.37c.48,1.11,1,2.21,1.43,3.31C163.4,460.33,162.84,460.71,161.71,460.52Z"/><path class="cls-283" d="M108.67,462.9c-2.1-3.07-.65-6.67-1.51-9.93a3.17,3.17,0,0,1,.91-2.11c5.88,1.5,8.78,6.51,12.43,10.64C117.17,467.18,112.7,463.17,108.67,462.9Z"/><path class="cls-284" d="M128.73,469.63c-6.82-2.17-13.89-.41-20.78-1.33.29-1.51.58-3,.88-4.52,4.29-1.55,8.56-.54,12.84.06C123.91,465.92,127.23,466.65,128.73,469.63Z"/><path class="cls-285" d="M122.87,456.38c-5.43-1.87-7.29-6.77-10.76-10.18a1.81,1.81,0,0,1,.07-2.66c.93-1,1.84-.54,2.44.35C117.41,448,120.13,452.22,122.87,456.38Z"/><path class="cls-286" d="M108.07,450.86c-.3.71-.61,1.41-.91,2.12-3.93-3.52-9.19-1.41-13.52-3.22-.87-.34-1.33-.85-.72-1.79,2.1.4,4.18.85,6.28,1.18,3.55.57,6.55.64,1.58-5.68A22.7,22.7,0,0,1,108.07,450.86Z"/><path class="cls-287" d="M121.67,463.84l-12.84-.06a3,3,0,0,1-.16-.89c3.71-2.52,8.11,1,11.83-1.39Z"/><path class="cls-38" d="M167.78,573l-2.31,2.38-34.36-.22c2.91-4.14,7.29-2.39,10.68-1.86C150.54,574.71,159.13,574.11,167.78,573Z"/><path class="cls-288" d="M121.8,550.29c13.17,0,26.35,0,39.52-.12,1.91,0,4.55,1.18,5.32-2.08,2.64.41,2,1.93,1.17,3.5h-47C121.11,551.14,121.46,550.72,121.8,550.29Z"/><path class="cls-289" d="M171.34,430.66c.43-.3.86-.6,1.3-.89,2.3-.09,4.61-.21,6.91-.24s4.42,0,4.67,3c.23,2.72.12,5.21-3.54,5.31C176.9,436.32,172.72,435.32,171.34,430.66Z"/><path class="cls-290" d="M171.34,430.66c1.8,4.11,7.2,3.49,9.34,7.16v2.35c-4.1,1.8-8.53.46-12.72,1.38l-3.86-2.79c0-.3,0-.61,0-.92,3.73,1.57,7,.05,10.53-1.39C174.05,434.21,169,434.5,171.34,430.66Z"/><path class="cls-291" d="M167.81,551.59a4.27,4.27,0,0,0-1.17-3.5q-6.69-14.82-13.36-29.65.36-6,.7-11.94a7.83,7.83,0,0,1,5.77-.93c-4.31,18.74,6.09,33.69,12.65,49.63l1.11,5.71C169.41,559.16,170.45,554.23,167.81,551.59Z"/><path class="cls-292" d="M145.68,496a14.8,14.8,0,0,0-7.91-4.63l10-.48,2.33.24c0,1,0,2.06,0,3.09C149.07,496,147.73,496.89,145.68,496Z"/><path class="cls-293" d="M145.68,496l4.37-1.78c0,1.28,0,2.57,0,3.85-1.93.14-3.74,1.34-5.76.69C144.73,497.86,145.21,496.94,145.68,496Z"/><path class="cls-91" d="M184.33,312c-13,3-11.8,12.77-10.63,22.53-2.91-6.61-.73-13.5-1.13-20.24.46-.72.91-.71,1.35,0C177.45,313.85,180.58,311.54,184.33,312Z"/><path class="cls-294" d="M173.92,314.34l-1.35,0q.09-12.46.17-24.91l1.07,1.17c-1.38,7.54,4,6,8.14,6.13-2.09,2.62-7.13-1.35-8.13,3.69Q173.87,307.38,173.92,314.34Z"/><path class="cls-295" d="M153.68,282.38c6.06-.87,12.39-1.08,16.34-6.95-.16,2.87,1.41,6.6-1.27,8.35-4,2.63-8.71,4.35-13.23,6.15-1.43.57-1.86-1-1.9-2.25C153.57,285.92,153.66,284.15,153.68,282.38Z"/><path class="cls-296" d="M158.47,479l-22.51.08c2.35-2.07,5.2-1.21,7.82-1.14a120.1,120.1,0,0,0,18-1.22c1.3-.53,2.49-.88,2.27,1.29C162.15,478.21,160.16,477.81,158.47,479Z"/><path class="cls-297" d="M164,478.05l-2.27-1.29c2.82-1.69,1.94-4.09,1.43-6.58-.66-3.19-1-6.44-1.48-9.66l1.45-1.42C164.25,465.38,167.31,471.57,164,478.05Z"/><path class="cls-298" d="M130,328.4c-15.38,6.17-15.38,6.17-15.44-9.77,0-1.38,0-2.75,0-4.13,3.73-4.43,9.93-3.9,15.46-8.46Z"/><path class="cls-299" d="M133.54,276.58c-.82,5.46,2.18,6.53,6.6,5.55a31.27,31.27,0,0,1,9.87-.81l-1.09,2.39c.09,3-2,3.84-4.27,4.63-3.38,1.21-6.91,2-10,4l-2.22.86c0-3.69-.06-7.4,0-11.09C132.51,280.22,131.64,278.11,133.54,276.58Z"/><path class="cls-300" d="M134.66,292.33c3.55-4.88,9.8-5.25,14.26-8.63,2.23,2.06,1.07,4.62,1,7C144.74,290.17,139.79,292.13,134.66,292.33Z"/><path class="cls-301" d="M114.77,290.73l16-2.47c0,.45.09.91.13,1.36-4.34,3.43-9.74,2.05-14.59,3.2C115.26,293.08,114.9,291.75,114.77,290.73Z"/><path class="cls-302" d="M138.51,271.49c-1.84,1.12-3.35,3.8-6,1.31l.39-3.69C135,269.38,137.15,269.53,138.51,271.49Z"/></svg>