<svg width="52" height="52" viewBox="0 0 52 52" fill="none" xmlns="http://www.w3.org/2000/svg">
<g clip-path="url(#clip0_701_68)">
<path fill-rule="evenodd" clip-rule="evenodd" d="M38.0312 34.8965C38.5057 34.6591 39.0508 34.6041 39.5632 34.7419C40.0756 34.8797 40.5196 35.2006 40.8111 35.644L40.9367 35.865L45.2701 44.5317C45.4247 44.8407 45.5031 45.1823 45.4988 45.5279C45.4946 45.8734 45.4077 46.2129 45.2455 46.5181C45.0832 46.8232 44.8504 47.0851 44.5663 47.282C44.2823 47.4788 43.9552 47.6048 43.6126 47.6495L43.3331 47.6668H8.66639C8.32074 47.6669 7.98008 47.5844 7.67286 47.426C7.36563 47.2676 7.10076 47.038 6.90036 46.7564C6.69996 46.4747 6.56984 46.1493 6.52087 45.8071C6.47191 45.4649 6.50552 45.116 6.61889 44.7895L6.72722 44.5295L11.0606 35.8628C11.3034 35.3608 11.7305 34.9718 12.253 34.7767C12.7754 34.5816 13.353 34.5954 13.8655 34.8154C14.378 35.0353 14.7859 35.4444 15.0044 35.9576C15.2229 36.4707 15.2351 37.0483 15.0386 37.5702L14.9367 37.802L12.1721 43.3335H39.8274L37.0627 37.802C36.8061 37.2882 36.764 36.6936 36.9456 36.1488C37.1272 35.604 37.5177 35.1536 38.0312 34.8965ZM25.9997 4.3335C30.0222 4.3335 33.8799 5.93141 36.7242 8.77571C39.5685 11.62 41.1664 15.4777 41.1664 19.5002C41.1664 24.6612 38.3736 28.8537 35.4832 31.8285C33.8866 33.4501 32.1315 34.9076 30.2442 36.1792L29.4361 36.7122L28.7167 37.165C28.6041 37.2322 28.4957 37.295 28.3939 37.36L27.8371 37.6807C26.6931 38.3307 25.3064 38.3307 24.1624 37.6807L23.6056 37.3578L22.9339 36.9483C22.8099 36.8703 22.6864 36.7916 22.5634 36.7122L21.7552 36.1792C19.8679 34.9076 18.1128 33.4501 16.5162 31.8285C13.6259 28.8537 10.8331 24.6612 10.8331 19.5002C10.8331 15.4777 12.431 11.62 15.2753 8.77571C18.1196 5.93141 21.9773 4.3335 25.9997 4.3335ZM25.9997 15.1668C24.8505 15.1668 23.7483 15.6234 22.9356 16.436C22.1229 17.2487 21.6664 18.3509 21.6664 19.5002C21.6664 20.6494 22.1229 21.7516 22.9356 22.5643C23.7483 23.3769 24.8505 23.8335 25.9997 23.8335C27.149 23.8335 28.2512 23.3769 29.0639 22.5643C29.8765 21.7516 30.3331 20.6494 30.3331 19.5002C30.3331 18.3509 29.8765 17.2487 29.0639 16.436C28.2512 15.6234 27.149 15.1668 25.9997 15.1668Z" fill="white"/>
</g>
<defs>
<clipPath id="clip0_701_68">
<rect width="52" height="52" fill="white"/>
</clipPath>
</defs>
</svg>
