<svg width="53" height="42" viewBox="0 0 53 42" fill="none" xmlns="http://www.w3.org/2000/svg">
<path d="M5.63125 0C4.13775 0 2.70542 0.587693 1.64936 1.63379C0.593291 2.6799 0 4.09871 0 5.57812V36.4219C0 37.9013 0.593291 39.3201 1.64936 40.3662C2.70542 41.4123 4.13775 42 5.63125 42H47.3688C48.8623 42 50.2946 41.4123 51.3506 40.3662C52.4067 39.3201 53 37.9013 53 36.4219V5.57812C53 4.09871 52.4067 2.6799 51.3506 1.63379C50.2946 0.587693 48.8623 0 47.3688 0H5.63125ZM19.875 15.75C19.875 16.7943 19.4562 17.7958 18.7108 18.5342C17.9653 19.2727 16.9542 19.6875 15.9 19.6875C14.8458 19.6875 13.8347 19.2727 13.0893 18.5342C12.3438 17.7958 11.925 16.7943 11.925 15.75C11.925 14.7057 12.3438 13.7042 13.0893 12.9658C13.8347 12.2273 14.8458 11.8125 15.9 11.8125C16.9542 11.8125 17.9653 12.2273 18.7108 12.9658C19.4562 13.7042 19.875 14.7057 19.875 15.75ZM9.275 24.2812C9.275 23.7591 9.4844 23.2583 9.85713 22.8891C10.2299 22.5199 10.7354 22.3125 11.2625 22.3125H20.5375C21.0646 22.3125 21.5701 22.5199 21.9429 22.8891C22.3156 23.2583 22.525 23.7591 22.525 24.2812V24.9375C22.525 24.9375 22.525 30.1875 15.9 30.1875C9.275 30.1875 9.275 24.9375 9.275 24.9375V24.2812ZM27.825 16.0781C27.825 15.1725 28.567 14.4375 29.4813 14.4375H42.0688C42.2863 14.4375 42.5016 14.4799 42.7026 14.5624C42.9035 14.6448 43.0861 14.7657 43.2399 14.918C43.3937 15.0704 43.5157 15.2512 43.5989 15.4503C43.6822 15.6493 43.725 15.8627 43.725 16.0781C43.725 16.2936 43.6822 16.5069 43.5989 16.706C43.5157 16.905 43.3937 17.0859 43.2399 17.2382C43.0861 17.3906 42.9035 17.5114 42.7026 17.5939C42.5016 17.6763 42.2863 17.7188 42.0688 17.7188H29.4813C28.567 17.7188 27.825 16.9837 27.825 16.0781ZM29.4813 23.625H42.0688C42.508 23.625 42.9293 23.7978 43.2399 24.1055C43.5505 24.4132 43.725 24.8305 43.725 25.2656C43.725 25.7007 43.5505 26.118 43.2399 26.4257C42.9293 26.7334 42.508 26.9062 42.0688 26.9062H29.4813C29.042 26.9062 28.6207 26.7334 28.3101 26.4257C27.9995 26.118 27.825 25.7007 27.825 25.2656C27.825 24.8305 27.9995 24.4132 28.3101 24.1055C28.6207 23.7978 29.042 23.625 29.4813 23.625Z" fill="#F6BC41"/>
</svg>
