<svg width="64" height="64" viewBox="0 0 64 64" fill="none" xmlns="http://www.w3.org/2000/svg">
<path d="M31.9996 63.072C30.3268 63.072 29.7207 61.716 29.7207 60.0432L28.9707 19.6332C28.9707 17.9605 30.3267 16.6045 31.9995 16.6045C33.6722 16.6045 35.0282 17.9605 35.0282 19.6332L34.2782 60.0432C34.2783 61.716 33.6723 63.072 31.9996 63.072Z" fill="#D5DEE4"/>
<path d="M32.0004 16.6045C30.3277 16.6045 28.9717 17.9605 28.9717 19.6332L29.1907 31.4315C30.0936 31.6401 31.0342 31.7502 32.0004 31.7502C32.9667 31.7502 33.9073 31.6401 34.8103 31.4316L35.0293 19.6334C35.0292 17.9606 33.6732 16.6045 32.0004 16.6045Z" fill="#BCCBD3"/>
<path d="M32 27.875C39.663 27.875 45.875 21.663 45.875 14C45.875 6.33705 39.663 0.125 32 0.125C24.337 0.125 18.125 6.33705 18.125 14C18.125 21.663 24.337 27.875 32 27.875Z" fill="#A22820"/>
<path d="M22.0634 10.9749C23.1617 11.7015 25.0534 10.777 26.2886 8.90993C27.5239 7.04286 27.6348 4.94026 26.5365 4.21363C25.4382 3.487 23.5465 4.41151 22.3113 6.27857C21.0761 8.14564 20.9651 10.2482 22.0634 10.9749Z" fill="#FD7085"/>
</svg>
