<svg width="25" height="27" viewBox="0 0 25 27" fill="none" xmlns="http://www.w3.org/2000/svg">
<path d="M1.37216 14.9583H9.60511C10.3598 14.9583 10.9773 14.3021 10.9773 13.5V1.83333C10.9773 1.03125 10.3598 0.375 9.60511 0.375H1.37216C0.617472 0.375 0 1.03125 0 1.83333V13.5C0 14.3021 0.617472 14.9583 1.37216 14.9583ZM1.37216 26.625H9.60511C10.3598 26.625 10.9773 25.9688 10.9773 25.1667V19.3333C10.9773 18.5312 10.3598 17.875 9.60511 17.875H1.37216C0.617472 17.875 0 18.5312 0 19.3333V25.1667C0 25.9688 0.617472 26.625 1.37216 26.625ZM15.0938 26.625H23.3267C24.0814 26.625 24.6989 25.9688 24.6989 25.1667V13.5C24.6989 12.6979 24.0814 12.0417 23.3267 12.0417H15.0938C14.3391 12.0417 13.7216 12.6979 13.7216 13.5V25.1667C13.7216 25.9688 14.3391 26.625 15.0938 26.625ZM13.7216 1.83333V7.66667C13.7216 8.46875 14.3391 9.125 15.0938 9.125H23.3267C24.0814 9.125 24.6989 8.46875 24.6989 7.66667V1.83333C24.6989 1.03125 24.0814 0.375 23.3267 0.375H15.0938C14.3391 0.375 13.7216 1.03125 13.7216 1.83333Z" fill="white"/>
</svg>
