<svg width="31" height="31" viewBox="0 0 31 31" fill="none" xmlns="http://www.w3.org/2000/svg">
<path d="M27.875 22.375V10H8.625V22.375H27.875ZM27.875 3.125C28.6043 3.125 29.3038 3.41473 29.8195 3.93046C30.3353 4.44618 30.625 5.14566 30.625 5.875V22.375C30.625 23.1043 30.3353 23.8038 29.8195 24.3195C29.3038 24.8353 28.6043 25.125 27.875 25.125H8.625C7.89565 25.125 7.19618 24.8353 6.68046 24.3195C6.16473 23.8038 5.875 23.1043 5.875 22.375V5.875C5.875 5.14566 6.16473 4.44618 6.68046 3.93046C7.19618 3.41473 7.89565 3.125 8.625 3.125H10V0.375H12.75V3.125H23.75V0.375H26.5V3.125H27.875ZM3.125 27.875H22.375V30.625H3.125C2.39565 30.625 1.69618 30.3353 1.18046 29.8195C0.664731 29.3038 0.375 28.6043 0.375 27.875V11.375H3.125V27.875ZM25.125 19.625H19.625V14.125H25.125V19.625Z" fill="white"/>
</svg>
