<svg width="23" height="23" viewBox="0 0 23 23" fill="none" xmlns="http://www.w3.org/2000/svg">
<path d="M14.651 0C13.1887 0 12.0088 -2.28484e-08 11.0813 0.125163C10.1185 0.253535 9.30765 0.531675 8.66367 1.1746C8.10312 1.73623 7.81857 2.42623 7.66987 3.23712C7.52545 4.02554 7.49764 4.9894 7.49122 6.14688C7.49009 6.35967 7.57353 6.5642 7.72319 6.71547C7.87285 6.86673 8.07647 6.95235 8.28925 6.95349C8.50204 6.95462 8.70656 6.87118 8.85783 6.72152C9.00909 6.57186 9.09471 6.36823 9.09584 6.15544C9.10226 4.98619 9.13222 4.15712 9.24775 3.52702C9.36007 2.92153 9.53872 2.56958 9.79867 2.30963C10.095 2.0133 10.5111 1.82074 11.2963 1.71484C12.104 1.60679 13.1748 1.60465 14.7099 1.60465H15.7796C17.3158 1.60465 18.3866 1.60679 19.1943 1.71484C19.9795 1.82074 20.3945 2.01437 20.6919 2.30963C20.9872 2.60595 21.1797 3.02102 21.2856 3.8073C21.3947 4.61391 21.3958 5.68581 21.3958 7.22093V15.7791C21.3958 17.3142 21.3947 18.385 21.2856 19.1938C21.1797 19.979 20.9872 20.394 20.6908 20.6904C20.3945 20.9867 19.9795 21.1793 19.1943 21.2852C18.3866 21.3932 17.3158 21.3953 15.7796 21.3953H14.7099C13.1748 21.3953 12.104 21.3932 11.2952 21.2852C10.5111 21.1793 10.095 20.9856 9.79867 20.6904C9.53872 20.4293 9.36007 20.0785 9.24775 19.473C9.13222 18.8429 9.10226 18.0138 9.09584 16.8446C9.09528 16.7392 9.07397 16.635 9.03313 16.5378C8.9923 16.4407 8.93273 16.3526 8.85783 16.2785C8.78293 16.2044 8.69417 16.1457 8.59661 16.1059C8.49906 16.0661 8.39462 16.0459 8.28925 16.0465C8.18389 16.0471 8.07968 16.0684 7.98255 16.1092C7.88542 16.1501 7.79729 16.2096 7.72319 16.2845C7.64908 16.3594 7.59046 16.4482 7.55066 16.5458C7.51086 16.6433 7.49066 16.7478 7.49122 16.8531C7.49764 18.0106 7.52545 18.9745 7.66987 19.7629C7.81963 20.5738 8.10312 21.2638 8.66474 21.8254C9.30765 22.4694 10.1196 22.7454 11.0824 22.8759C12.0088 23 13.1887 23 14.651 23H15.8385C17.3019 23 18.4807 23 19.4082 22.8759C20.371 22.7454 21.1819 22.4694 21.8258 21.8254C22.4698 21.1814 22.7458 20.3705 22.8763 19.4077C23.0004 18.4802 23.0004 17.3003 23.0004 15.8379V7.16209C23.0004 5.69972 23.0004 4.51977 22.8763 3.59228C22.7469 2.62949 22.4698 1.8186 21.8258 1.1746C21.1819 0.530605 20.371 0.254605 19.4082 0.125163C18.4807 -2.28484e-08 17.3008 0 15.8385 0H14.651Z" fill="white"/>
<path d="M14.7096 10.698C14.9224 10.698 15.1265 10.7825 15.277 10.933C15.4274 11.0834 15.5119 11.2875 15.5119 11.5003C15.5119 11.7131 15.4274 11.9172 15.277 12.0676C15.1265 12.2181 14.9224 12.3026 14.7096 12.3026H2.97129L5.06906 14.0998C5.23078 14.2383 5.33087 14.4353 5.34732 14.6476C5.36378 14.8598 5.29524 15.0699 5.15678 15.2316C5.01833 15.3934 4.82131 15.4935 4.60905 15.5099C4.3968 15.5264 4.18671 15.4578 4.02499 15.3194L0.280871 12.1101C0.192793 12.0347 0.122079 11.9412 0.0735928 11.836C0.0251067 11.7307 0 11.6162 0 11.5003C0 11.3844 0.0251067 11.2699 0.0735928 11.1646C0.122079 11.0594 0.192793 10.9659 0.280871 10.8905L4.02499 7.68123C4.10506 7.61267 4.19786 7.56056 4.29807 7.52786C4.39828 7.49517 4.50396 7.48254 4.60905 7.49068C4.71415 7.49883 4.81661 7.52759 4.91059 7.57534C5.00457 7.62308 5.08823 7.68887 5.15678 7.76895C5.22534 7.84902 5.27745 7.94182 5.31014 8.04204C5.34284 8.14225 5.35547 8.24792 5.34732 8.35302C5.33918 8.45812 5.31041 8.56059 5.26267 8.65457C5.21493 8.74855 5.14914 8.83221 5.06906 8.90076L2.97236 10.698H14.7096Z" fill="white"/>
</svg>
