<svg width="33" height="32" viewBox="0 0 33 32" fill="none" xmlns="http://www.w3.org/2000/svg">
<path d="M25.7742 25.0469C26.4119 24.4326 27.4343 24.4326 28.072 25.0469L32.2872 28.3463H32.3604C33.2132 29.1821 33.2132 30.5373 32.3604 31.3731C31.5076 32.209 30.125 32.209 29.2722 31.3731L25.7742 27.4855L25.6414 27.3403C25.3942 27.0368 25.2576 26.6584 25.2576 26.2662C25.2576 25.8086 25.4435 25.3699 25.7742 25.0469ZM14.1531 0C17.9067 0 21.5066 1.4615 24.1609 4.06298C26.8151 6.66446 28.3062 10.1928 28.3062 13.8719C28.3062 21.5331 21.9696 27.7438 14.1531 27.7438C6.33656 27.7438 0 21.5331 0 13.8719C0 6.21065 6.33656 0 14.1531 0Z" fill="white"/>
</svg>
