<svg width="33" height="33" viewBox="0 0 33 33" fill="none" xmlns="http://www.w3.org/2000/svg">
<path d="M16.5 0.3125C7.56074 0.3125 0.3125 7.56074 0.3125 16.5C0.3125 25.4393 7.56074 32.6875 16.5 32.6875C25.4393 32.6875 32.6875 25.4393 32.6875 16.5C32.6875 7.56074 25.4393 0.3125 16.5 0.3125ZM22.5342 23.2062C21.0672 24.5576 19.0654 25.3525 16.6771 25.3525C13.2191 25.3525 10.2273 23.3688 8.77119 20.4782C8.17139 19.2822 7.82812 17.9309 7.82812 16.5C7.82812 15.0691 8.17139 13.7178 8.77119 12.5218C10.2273 9.62754 13.2191 7.64385 16.6771 7.64385C19.0618 7.64385 21.0636 8.52188 22.5992 9.94912L20.0627 12.4893C19.1449 11.6112 17.9778 11.1668 16.6807 11.1668C14.3754 11.1668 12.4242 12.7241 11.7269 14.8162C11.5498 15.3474 11.4486 15.9146 11.4486 16.5C11.4486 17.0854 11.5498 17.6526 11.7269 18.1838C12.4242 20.2759 14.3754 21.8332 16.6771 21.8332C17.8694 21.8332 18.8812 21.5188 19.6725 20.9877C20.6119 20.359 21.2334 19.4231 21.4394 18.3139H16.6771V14.8885H25.0129C25.1177 15.4702 25.1719 16.0736 25.1719 16.6987C25.1719 19.3979 24.2071 21.6634 22.5342 23.2062Z" fill="white"/>
</svg>
