<svg id="Layer_1" data-name="Layer 1" xmlns="http://www.w3.org/2000/svg" viewBox="0 0 49.92 298"><defs><style>.cls-1{fill:#e5855d;}.cls-2{fill:#df6463;}.cls-3{fill:#dc4b78;}.cls-4{fill:#b04592;}</style></defs><path class="cls-1" d="M39,76.7a328.86,328.86,0,0,1,10.1,59.9A250.5,250.5,0,0,1,36.3,238.2,163.38,163.38,0,0,1,3,295.5,34.67,34.67,0,0,1,.1,298V177.4c6.4-24.8,13-49.6,19.8-74.2a103.34,103.34,0,0,1,5.3-14.4c1.6-3.5,3-7,2.9-10.9a8.54,8.54,0,0,1,1.3-4.7c.9-1.6,2.1-3.3,4-3.2s1.8,2.1,2.2,3.4C36.3,75,37.9,75.6,39,76.7Z"/><path class="cls-2" d="M39,76.7c-4.9.8-5.4-2.1-4.5-6.5-3.1,1.1-5,3.2-4.8,5.4.4,6.7-2.8,12.1-5,17.8-5.7,14.6-8,30.2-13,44.9C7.3,151.2,7,165.2.1,177.3V105.5C5,86.4,9,67,14.6,48.1c1.4-4.7,3.3-5.9,7.9-4.6,1.7.5,3.5.9,4.8,2.2C33.5,55.2,35.6,66.3,39,76.7Z"/><path class="cls-3" d="M27.3,45.8a9.76,9.76,0,0,1-5.6-1.1c-3.3-1.6-5.3-.1-5.7,3C14.9,58.5,9.8,68.1,7.4,78.5A47.31,47.31,0,0,0,5.8,89.7c.1,6.1-3.5,10.8-5.8,16V38.9c1.1-4,1.8-8,2.8-11.9a33.76,33.76,0,0,1,2.6-6.9c2.7-4.5,5.2-4.7,8.1-.4a20,20,0,0,0,1.9,2.2l9.9,18C26.5,41.7,27.7,43.5,27.3,45.8Z"/><path class="cls-4" d="M15.6,21.9a3.31,3.31,0,0,1-3.1-2c-2.1-5-4-2-5.5.3-2.3,3.3-2.9,7.3-3.8,11.1A29.63,29.63,0,0,1,.1,38.9V0C5.7,6.9,12.4,13.1,15.6,21.9Z"/></svg>