<svg id="Layer_1" data-name="Layer 1" xmlns="http://www.w3.org/2000/svg" viewBox="0 0 746.37 591.52"><defs><style>.cls-1{fill:#8366a7;}</style></defs><path class="cls-1" d="M707.2,294.24c-2.16,8.55-7.56,15.05-12.67,21.69-22.84,29.71-50.63,53.52-84.4,70-25.72,12.55-53,19.86-81.23,24.13-31.23,4.71-62.61,4.5-94,3.6-21.34-.6-42.67-2.34-63.94-4.55-14.17-1.46-28.44-1.94-42.63-3.31a621.77,621.77,0,0,0-80.6-2.72c-40.47,1.35-80.27,7.17-118.18,22.17-27.84,11-52.71,26.82-73.23,48.87-19.16,20.6-32.83,44.56-42.57,70.9A372.15,372.15,0,0,0,.47,591.52C-1,584.19,1.4,578.12,3,572c7.1-26.66,17.13-52.09,32.59-75.1,21.56-32.09,50.6-55,85.89-70.41,26.06-11.35,53.36-17.74,81.41-21.74,29.74-4.24,59.62-4.52,89.48-3.56,23,.74,46,3,68.92,4.86,17,1.38,34,2.79,51,4.09a662.86,662.86,0,0,0,73.22,1.62c44.66-1.55,88.07-9.23,128.22-30.14a226.58,226.58,0,0,0,66.71-52.23,256.74,256.74,0,0,0,25.66-34.25A4.82,4.82,0,0,1,707.2,294.24Z"/><path class="cls-1" d="M706.12,27.06a262.52,262.52,0,0,1,36,90.14,233.89,233.89,0,0,1,3.79,59.49,272.72,272.72,0,0,1-12.36,64.78,217.35,217.35,0,0,1-22.29,49.35c-.33.54-.74,1-1.49,2-1.31-3.14.42-5.17,1.54-7,16.43-27.28,26-57,30.55-88.32,2.84-19.58,2.71-39.25.59-59a275.37,275.37,0,0,0-19.28-74.86c-5-12.34-11.7-23.85-18-35.52C704.7,27,705.22,26.86,706.12,27.06Z"/><path class="cls-1" d="M706.12,27.06l-1,1L686.29,1l1.39-1A243.31,243.31,0,0,1,706.12,27.06Z"/></svg>