<svg width="20" height="20" viewBox="0 0 20 20" fill="none" xmlns="http://www.w3.org/2000/svg">
<path d="M1.42857 0.353271H8.57143C8.95031 0.353271 9.31367 0.554901 9.58158 0.913805C9.84949 1.27271 10 1.75949 10 2.26705C10 2.77462 9.84949 3.26139 9.58158 3.6203C9.31367 3.9792 8.95031 4.18083 8.57143 4.18083H1.42857C1.04969 4.18083 0.686328 3.9792 0.418419 3.6203C0.15051 3.26139 0 2.77462 0 2.26705C0 1.75949 0.15051 1.27271 0.418419 0.913805C0.686328 0.554901 1.04969 0.353271 1.42857 0.353271ZM11.4286 15.6635H18.5714C18.9503 15.6635 19.3137 15.8651 19.5816 16.224C19.8495 16.5829 20 17.0697 20 17.5773C20 18.0849 19.8495 18.5716 19.5816 18.9305C19.3137 19.2894 18.9503 19.4911 18.5714 19.4911H11.4286C11.0497 19.4911 10.6863 19.2894 10.4184 18.9305C10.1505 18.5716 10 18.0849 10 17.5773C10 17.0697 10.1505 16.5829 10.4184 16.224C10.6863 15.8651 11.0497 15.6635 11.4286 15.6635ZM1.42857 8.00839H18.5714C18.9503 8.00839 19.3137 8.21002 19.5816 8.56892C19.8495 8.92783 20 9.4146 20 9.92217C20 10.4297 19.8495 10.9165 19.5816 11.2754C19.3137 11.6343 18.9503 11.8359 18.5714 11.8359H1.42857C1.04969 11.8359 0.686328 11.6343 0.418419 11.2754C0.15051 10.9165 0 10.4297 0 9.92217C0 9.4146 0.15051 8.92783 0.418419 8.56892C0.686328 8.21002 1.04969 8.00839 1.42857 8.00839Z" fill="white"/>
</svg>
